<?xml version="1.0" encoding="UTF-8"?>
<svg xmlns="http://www.w3.org/2000/svg" xmlns:xlink="http://www.w3.org/1999/xlink" width="400px" height="400px" viewBox="0 0 400 400" version="1.1">
<g id="surface1">
<rect x="0" y="0" width="400" height="400" style="fill:rgb(0%,0%,0%);fill-opacity:1;stroke:none;"/>
<path style=" stroke:none;fill-rule:nonzero;fill:rgb(100%,100%,100%);fill-opacity:1;" d="M 234.078125 162.398438 L 169.441406 162.398438 C 166.71875 162.398438 164.480469 164.640625 164.480469 167.359375 L 164.480469 232 C 164.480469 234.71875 166.71875 236.960938 169.441406 236.960938 L 234.078125 236.960938 C 236.800781 236.960938 239.039062 234.71875 239.039062 232 L 239.039062 167.359375 C 239.039062 164.640625 236.800781 162.398438 234.078125 162.398438 Z M 234.078125 162.398438 "/>
<path style=" stroke:none;fill-rule:nonzero;fill:rgb(100%,100%,100%);fill-opacity:1;" d="M 159.359375 87.839844 L 94.71875 87.839844 C 92 87.839844 89.761719 90.078125 89.761719 92.800781 L 89.761719 157.441406 C 89.761719 160.160156 92 162.398438 94.71875 162.398438 L 159.359375 162.398438 C 162.078125 162.398438 164.320312 160.160156 164.320312 157.441406 L 164.320312 92.800781 C 164.320312 90.078125 162.078125 87.839844 159.359375 87.839844 Z M 159.359375 87.839844 "/>
<path style=" stroke:none;fill-rule:nonzero;fill:rgb(100%,100%,100%);fill-opacity:1;" d="M 308.800781 87.839844 L 244.160156 87.839844 C 241.441406 87.839844 239.199219 90.078125 239.199219 92.800781 L 239.199219 157.441406 C 239.199219 160.160156 241.441406 162.398438 244.160156 162.398438 L 308.800781 162.398438 C 311.519531 162.398438 313.761719 160.160156 313.761719 157.441406 L 313.761719 92.800781 C 313.761719 90.078125 311.519531 87.839844 308.800781 87.839844 Z M 308.800781 87.839844 "/>
<path style=" stroke:none;fill-rule:nonzero;fill:rgb(100%,100%,100%);fill-opacity:1;" d="M 159.359375 237.121094 L 94.71875 237.121094 C 92 237.121094 89.761719 239.359375 89.761719 242.078125 L 89.761719 306.71875 C 89.761719 309.441406 92 311.679688 94.71875 311.679688 L 159.359375 311.679688 C 162.078125 311.679688 164.320312 309.441406 164.320312 306.71875 L 164.320312 242.078125 C 164.320312 239.359375 162.078125 237.121094 159.359375 237.121094 Z M 159.359375 237.121094 "/>
<path style=" stroke:none;fill-rule:nonzero;fill:rgb(100%,100%,100%);fill-opacity:1;" d="M 308.800781 237.121094 L 244.160156 237.121094 C 241.441406 237.121094 239.199219 239.359375 239.199219 242.078125 L 239.199219 306.71875 C 239.199219 309.441406 241.441406 311.679688 244.160156 311.679688 L 308.800781 311.679688 C 311.519531 311.679688 313.761719 309.441406 313.761719 306.71875 L 313.761719 242.078125 C 313.761719 239.359375 311.519531 237.121094 308.800781 237.121094 Z M 308.800781 237.121094 "/>
</g>
</svg>
