<?xml version="1.0" standalone="no"?>
<!DOCTYPE svg PUBLIC "-//W3C//DTD SVG 1.0//EN" "http://www.w3.org/TR/2001/REC-SVG-20010904/DTD/svg10.dtd">
<svg xmlns="http://www.w3.org/2000/svg" xmlns:xlink="http://www.w3.org/1999/xlink" id="body_1" width="400" height="400">

<g transform="matrix(10 0 0 10 -0 20)">
    <path d="M24.7582 -3.97364E-07L14.6238 -3.97364E-07C 14.2851 -3.97364E-07 14.0138 0.281178 14.0064 0.630683C 13.8017 10.4549 8.82234 19.7792 0.251893 26.3837C -0.0202046 26.5933 -0.0821946 26.9872 0.116734 27.2709L0.116734 27.2709L6.04623 35.734C 6.24796 36.022 6.64099 36.087 6.91766 35.8754C 12.2765 31.7728 16.5869 26.8236 19.691 21.338C 22.7951 26.8236 27.1057 31.7728 32.4646 35.8754C 32.741 36.087 33.1341 36.022 33.3361 35.734L33.3361 35.734L39.2656 27.2709C 39.4642 26.9872 39.4022 26.5933 39.1304 26.3837C 30.5597 19.7792 25.5804 10.4549 25.3759 0.630683C 25.3685 0.281178 25.0969 -3.97364E-07 24.7582 -3.97364E-07z" stroke="none" fill="#FF875B" fill-rule="nonzero" />
</g>
</svg>