<?xml version="1.0" encoding="UTF-8"?>
<svg id="Layer_1" data-name="Layer 1" xmlns="http://www.w3.org/2000/svg" version="1.1" viewBox="0 0 200 200">
  <defs>
    <style>
      .cls-1 {
        fill: #011f29;
      }

      .cls-1, .cls-2 {
        stroke-width: 0px;
      }

      .cls-2 {
        fill: #01eefd;
      }
    </style>
  </defs>
  <circle class="cls-1" cx="100.5" cy="99.9" r="99.9"/>
  <path class="cls-2" d="M79.3,35.2c4.8,0,9.7.2,14.5,0,4.7-.2,8.5,1.5,11.7,4.8,5.4,5.5,10.8,10.8,16.2,16.3,9.9,9.9,19.8,19.8,29.7,29.7,2,2,3.7,4.1,5,6.5,2.6,4.9,2.7,9.8,0,14.8-1.4,2.7-3.4,4.9-5.5,7.1-15,15-30.1,30-45.1,45.1-3.6,3.7-7.7,5.5-12.9,5.4-10.1-.3-20.1,0-30.2,0-2.2,0-4-.5-4.9-2.6-1-2.2-.6-4.2.9-6,.8-.9,1.7-1.7,2.5-2.6,16.2-16.2,32.4-32.4,48.6-48.6,3.3-3.3,3.3-6.6-.1-10-16.6-16.6-33.3-33.3-49.9-49.9-.9-.9-1.9-1.9-2.3-3.2-1.1-3.5,1-6.6,4.6-6.6,5.6,0,11.3,0,16.9,0h0Z"/>
</svg>