<?xml version="1.0" standalone="no"?>
<!DOCTYPE svg PUBLIC "-//W3C//DTD SVG 1.0//EN" "http://www.w3.org/TR/2001/REC-SVG-20010904/DTD/svg10.dtd">
<svg xmlns="http://www.w3.org/2000/svg" xmlns:xlink="http://www.w3.org/1999/xlink" id="body_1" width="400" height="400">

<defs>
        <clipPath  id="1">

            <path clip-rule="evenodd" d="M0 12C 0 5.372583 5.372583 0 12 0L12 0L138 0C 144.62741 0 150 5.372583 150 12L150 12L150 138C 150 144.62741 144.62741 150 138 150L138 150L12 150C 5.372583 150 0 144.62741 0 138L0 138L0 12z" />        </clipPath>
</defs>

<g transform="matrix(2.6666667 0 0 2.6666667 0 0)">
	<g clip-path="url(#1)" >
        <path d="M0 12C 0 5.372583 5.372583 0 12 0L12 0L138 0C 144.62741 0 150 5.372583 150 12L150 12L150 138C 150 144.62741 144.62741 150 138 150L138 150L12 150C 5.372583 150 0 144.62741 0 138L0 138L0 12z" stroke="none" fill="#54FFF5" fill-rule="nonzero" />
		<g>
            <path d="M7.89878 116.371C -17.1841 186.94 116.989 167.008 187.211 148.222C 259.081 124.371 209.406 19.235 157.86 16.9082C 106.314 14.5813 164.251 65.5226 120.466 80.0721C 76.6806 94.6217 39.2524 28.1597 7.89878 116.371z" stroke="none" fill="#FFFFFF" fill-rule="nonzero" />
		</g>
		<g>
            <path d="M50.1046 -26.8481C 36.947 -62.7975 -9.91346 -14.0587 -31.699 14.8044C -52.4796 46.2011 1.76327 73.3322 23.0395 58.6167C 44.3158 43.9011 4.55533 41.038 17.2094 21.9026C 29.8635 2.76715 66.5516 18.0887 50.1046 -26.8481z" stroke="none" fill="#00FFF0" fill-rule="nonzero" fill-opacity="0.6666667" />
		</g>
		<g>
            <path d="M56.531 132.084C 38.5841 71.6971 -38.7198 103.498 -75.1284 126.947C -110.15 154.712 -26.9948 234.579 7.54247 230.493C 42.0797 226.408 -20.1632 191.64 1.16426 174.709C 22.4917 157.779 78.9646 207.568 56.531 132.084z" stroke="none" fill="#9D81FF" fill-rule="nonzero" />
		</g>
		<g>
            <path d="M165.305 -62.9014C 126.59 -109.002 71.1694 -70.8801 48.2985 -46.0567C 28.2854 -17.9551 131.411 33.5347 160.032 24.7106C 188.653 15.8864 121.003 -2.37248 133.182 -19.5039C 145.361 -36.6353 213.698 -5.27597 165.305 -62.9014z" stroke="none" fill="#4D94FF" fill-rule="nonzero" />
		</g>
        <path d="M54.603 89.5523L80.0822 89.5523L51.0989 60.3815L80.4549 31.2107L88.4504 23.4375L62.0036 23.4375L28.3219 57.2914C 26.6221 58.9977 26.6308 61.7587 28.3393 63.4563L28.3393 63.4563L54.603 89.5523zM69.92 60.4494L69.7239 60.4494L69.9178 60.4473L69.92 60.4494zM69.92 60.4494L98.9012 89.618L69.5452 118.789L61.5497 126.562L87.9964 126.562L121.678 92.7103C 123.378 91.004 123.369 88.243 121.661 86.5454L121.661 86.5454L95.397 60.4494L69.92 60.4494z" stroke="none" fill="#000000" fill-rule="nonzero" />
	</g>
</g>
</svg>