<?xml version="1.0" encoding="UTF-8"?>
<svg id="Layer_1" data-name="Layer 1" xmlns="http://www.w3.org/2000/svg" xmlns:xlink="http://www.w3.org/1999/xlink" version="1.1" viewBox="0 0 500 500">
  <defs>
    <style>
      .cls-1 {
        fill: url(#linear-gradient);
      }

      .cls-1, .cls-2 {
        stroke-width: 0px;
      }

      .cls-2 {
        fill: #fefdfc;
      }
    </style>
    <linearGradient id="linear-gradient" x1="250" y1="-.3" x2="250" y2="500.3" gradientUnits="userSpaceOnUse">
      <stop offset="0" stop-color="#eeaa3d"/>
      <stop offset="1" stop-color="#df5d2b"/>
    </linearGradient>
  </defs>
  <g id="_9xsQUw.tif" data-name="9xsQUw.tif">
    <image id="Layer_0" data-name="Layer 0" width="399" height="399" transform="translate(51 51)" xlink:href="Citrea-1.png"/>
  </g>
  <circle class="cls-1" cx="250" cy="250" r="250.3"/>
  <g>
    <path class="cls-2" d="M310,361.2c7,12.4,14,24.9,21.1,37.2,3.5,6.2,3.4,6.6-3.8,6.6-50.9,0-101.7,0-152.6,0-1.8,0-3.6.2-5.4.3-3.2-1.1-2.5-3-1.2-5.3,19.3-33.2,38.3-66.6,57.8-99.7,11.9-20.1,36.8-19.8,48.7.4,10.9,18.4,21.4,37,32.1,55.5,1,1.7,2.3,3.3,3.4,5Z"/>
    <path class="cls-2" d="M361.3,245.8c-17.5,0-35-.1-52.6,0-11.7.1-21.7-3.1-27.8-13.7-6.3-10.9-3.9-21.3,2.1-31.6,17.7-30.5,35.2-61,52.8-91.6.1-.2.2-.4.3-.6,5-8.7,6.1-8.8,11.1,0,25,43.3,50,86.7,74.9,130.1,3.9,6.8,3.5,7.5-4.3,7.5-18.9,0-37.8,0-56.7,0h0Z"/>
    <path class="cls-2" d="M250.3,94.7c25.3,0,50.5,0,75.8,0,7.6,0,8.1,1,4.2,7.7-18.9,32.7-37.8,65.4-56.8,98-10.3,17.6-35.6,18.8-46.1,1.5-20.1-33.3-39.1-67.3-58.5-101-3.6-6.3.8-6.3,4.9-6.3,25.5,0,51,0,76.5,0Z"/>
    <path class="cls-2" d="M388.1,321.6c-14.2,24.3-28.4,48.5-42.4,72.9-2.6,4.6-4.2,5.9-7.3.4-7.4-13.2-15.2-26.2-22.9-39.2-10.6-18.7-21-37.4-31.9-56-3.3-5.6-5.5-11.3-6.7-17.6,0-.9,0-1.9,0-2.8,4.6-18.3,13.4-25.3,32.4-25.4,36.3,0,72.7,0,109,0,7.1,0,7.6.9,3.9,7.3-10.5,18.3-21.1,36.5-31.7,54.8-1,1.7-2.5,3.3-2.5,5.5Z"/>
    <path class="cls-2" d="M144,377.2c0-.4-.2-.8-.6-1.1-.1-2.3-1.5-4-3-5.6,0-.4,0-.6-.4-.7-11.6-22.4-25.1-43.8-37.5-65.7-8.2-14.4-16.6-28.7-24.8-43.2-3.5-6.2-3-7,3.7-7,37.3,0,74.7-.2,112,.2,25.1.2,36.8,22.2,24.1,44-19.7,33.8-39.2,67.7-58.8,101.5,0,0,0,0,0,0-6.1-6.7-8.6-15.6-14.5-22.5Z"/>
    <path class="cls-2" d="M138.6,245.8c-19.1,0-38.2,0-57.3,0-5.5,0-7-1.2-3.9-6.5,25.5-44.1,50.8-88.3,76.3-132.4,4.1-7.1,5.4-7,9.3-.2,18.6,32.1,37.3,64,55.5,96.3,11.7,20.7-.9,42.2-24.6,42.6-18.4.3-36.9,0-55.3,0h0Z"/>
  </g>
</svg>