<?xml version="1.0" encoding="UTF-8"?>
<svg xmlns="http://www.w3.org/2000/svg" xmlns:xlink="http://www.w3.org/1999/xlink" width="200px" height="px" viewBox="0 0 200 200" version="1.1">
<g id="surface1">
<rect x="0" y="0" width="200" height="200" style="fill:rgb(0%,0%,0%);fill-opacity:1;stroke:none;"/>
<path style=" stroke:none;fill-rule:nonzero;fill:rgb(80%,100%,0%);fill-opacity:1;" d="M 101.359375 171.679688 C 89.601562 171.679688 78.960938 166.878906 71.199219 159.199219 C 63.519531 151.519531 58.71875 140.800781 58.71875 129.039062 C 58.71875 119.921875 61.601562 111.519531 66.480469 104.558594 L 69.28125 121.28125 C 68.71875 123.761719 68.398438 126.398438 68.398438 129.039062 C 68.398438 138.160156 72.078125 146.398438 78.078125 152.320312 C 84.078125 158.320312 92.320312 162 101.359375 162 C 110.480469 162 118.71875 158.320312 124.640625 152.320312 C 130.640625 146.320312 134.320312 138.078125 134.320312 129.039062 C 134.320312 119.921875 130.640625 111.679688 124.640625 105.761719 C 118.640625 99.761719 110.398438 96.078125 101.359375 96.078125 C 92.640625 96.078125 84.71875 99.441406 78.878906 104.960938 L 77.039062 94.078125 C 83.921875 89.28125 92.320312 86.480469 101.359375 86.480469 C 113.121094 86.480469 123.761719 91.28125 131.519531 98.960938 C 139.199219 106.640625 144 117.359375 144 129.121094 C 144 140.878906 139.199219 151.519531 131.519531 159.28125 C 123.839844 166.960938 113.121094 171.761719 101.359375 171.761719 Z M 101.359375 171.679688 "/>
<path style=" stroke:none;fill-rule:evenodd;fill:rgb(10.980392%,84.313725%,82.352941%);fill-opacity:1;" d="M 94.078125 116.480469 C 94.078125 119.617188 91.535156 122.160156 88.398438 122.160156 C 85.261719 122.160156 82.71875 119.617188 82.71875 116.480469 C 82.71875 113.34375 85.261719 110.800781 88.398438 110.800781 C 91.535156 110.800781 94.078125 113.34375 94.078125 116.480469 Z M 94.078125 116.480469 "/>
<path style=" stroke:none;fill-rule:evenodd;fill:rgb(10.980392%,84.313725%,82.352941%);fill-opacity:1;" d="M 108.640625 129.121094 C 108.640625 132.257812 106.097656 134.800781 102.960938 134.800781 C 99.824219 134.800781 97.28125 132.257812 97.28125 129.121094 C 97.28125 125.984375 99.824219 123.441406 102.960938 123.441406 C 106.097656 123.441406 108.640625 125.984375 108.640625 129.121094 Z M 108.640625 129.121094 "/>
<path style=" stroke:none;fill-rule:evenodd;fill:rgb(10.980392%,84.313725%,82.352941%);fill-opacity:1;" d="M 112.558594 109.921875 C 112.558594 113.058594 110.015625 115.601562 106.878906 115.601562 C 103.742188 115.601562 101.199219 113.058594 101.199219 109.921875 C 101.199219 106.78125 103.742188 104.238281 106.878906 104.238281 C 110.015625 104.238281 112.558594 106.78125 112.558594 109.921875 Z M 112.558594 109.921875 "/>
<path style=" stroke:none;fill-rule:evenodd;fill:rgb(10.980392%,84.313725%,82.352941%);fill-opacity:1;" d="M 126.320312 122.960938 C 126.320312 126.097656 123.777344 128.640625 120.640625 128.640625 C 117.503906 128.640625 114.960938 126.097656 114.960938 122.960938 C 114.960938 119.824219 117.503906 117.28125 120.640625 117.28125 C 123.777344 117.28125 126.320312 119.824219 126.320312 122.960938 Z M 126.320312 122.960938 "/>
<path style=" stroke:none;fill-rule:evenodd;fill:rgb(10.980392%,84.313725%,82.352941%);fill-opacity:1;" d="M 90.320312 135.199219 C 90.320312 138.335938 87.777344 140.878906 84.640625 140.878906 C 81.503906 140.878906 78.960938 138.335938 78.960938 135.199219 C 78.960938 132.0625 81.503906 129.519531 84.640625 129.519531 C 87.777344 129.519531 90.320312 132.0625 90.320312 135.199219 Z M 90.320312 135.199219 "/>
<path style=" stroke:none;fill-rule:evenodd;fill:rgb(10.980392%,84.313725%,82.352941%);fill-opacity:1;" d="M 122.640625 141.519531 C 122.640625 144.65625 120.097656 147.199219 116.960938 147.199219 C 113.824219 147.199219 111.28125 144.65625 111.28125 141.519531 C 111.28125 138.382812 113.824219 135.839844 116.960938 135.839844 C 120.097656 135.839844 122.640625 138.382812 122.640625 141.519531 Z M 122.640625 141.519531 "/>
<path style=" stroke:none;fill-rule:evenodd;fill:rgb(10.980392%,84.313725%,82.352941%);fill-opacity:1;" d="M 104.558594 148.480469 C 104.558594 151.617188 102.015625 154.160156 98.878906 154.160156 C 95.742188 154.160156 93.199219 151.617188 93.199219 148.480469 C 93.199219 145.34375 95.742188 142.800781 98.878906 142.800781 C 102.015625 142.800781 104.558594 145.34375 104.558594 148.480469 Z M 104.558594 148.480469 "/>
<path style=" stroke:none;fill-rule:nonzero;fill:rgb(80%,100%,0%);fill-opacity:1;" d="M 79.441406 125.28125 C 80.160156 124.320312 80.480469 123.121094 80.238281 121.839844 L 65.121094 32.160156 C 64.878906 30.878906 64.238281 29.839844 63.28125 29.199219 C 62.320312 28.480469 61.121094 28.160156 59.839844 28.398438 C 58.558594 28.640625 57.519531 29.28125 56.878906 30.238281 C 56.160156 31.199219 55.839844 32.398438 56.078125 33.679688 L 71.199219 123.359375 C 71.441406 124.640625 72.078125 125.679688 73.039062 126.320312 C 74 127.039062 75.199219 127.359375 76.480469 127.121094 C 77.761719 126.878906 78.800781 126.238281 79.441406 125.28125 Z M 79.441406 125.28125 "/>
</g>
</svg>
