<?xml version="1.0" encoding="utf-8"?>
<!-- Generator: Adobe Illustrator 26.4.1, SVG Export Plug-In . SVG Version: 6.00 Build 0)  -->
<svg version="1.1" id="Layer_1" xmlns="http://www.w3.org/2000/svg" xmlns:xlink="http://www.w3.org/1999/xlink" x="0px" y="0px"
	 viewBox="0 0 200 200" style="enable-background:new 0 0 200 200;" xml:space="preserve">
<style type="text/css">
	.st0{fill-rule:evenodd;clip-rule:evenodd;}
	.st1{fill:#CCFF00;}
	.st2{fill-rule:evenodd;clip-rule:evenodd;fill:#1CD7D2;}
</style>
<g id="surface1">
	<path class="st0" d="M100,0.1c55.2,0,100,44.7,100,100s-44.7,99.9-100,99.9S0,155.2,0,99.9S44.7,0.1,100,0.1z"/>
</g>
<g>
	<path class="st1" d="M101.9,179.1c-13.3,0-25.2-5.4-33.9-14.1s-14.1-20.7-14.1-33.9c0-10.2,3.3-19.7,8.8-27.5l3.2,18.8
		c-0.6,2.8-1,5.7-1,8.8c0,10.3,4.2,19.5,10.9,26.2c6.7,6.7,16,10.9,26.2,10.9c10.3,0,19.5-4.2,26.2-10.9s10.9-16,10.9-26.2
		s-4.2-19.5-10.9-26.2s-16-10.9-26.2-10.9c-9.8,0-18.7,3.8-25.3,10l-2-12.2c7.8-5.4,17.1-8.6,27.3-8.6c13.3,0,25.2,5.4,33.9,14.1
		s14.1,20.7,14.1,33.9c0,13.3-5.4,25.2-14.1,33.9C127.1,173.8,115,179.2,101.9,179.1L101.9,179.1z"/>
	<path class="st2" d="M93.6,117.1c0,3.6-2.9,6.4-6.4,6.4c-3.6,0-6.4-2.9-6.4-6.4c0-3.6,2.9-6.4,6.4-6.4
		C90.8,110.7,93.6,113.6,93.6,117.1z"/>
	<path class="st2" d="M110,131.3c0,3.6-2.9,6.4-6.4,6.4c-3.6,0-6.4-2.9-6.4-6.4s2.9-6.4,6.4-6.4C107.2,125,110,127.8,110,131.3z"/>
	<path class="st2" d="M114.4,109.8c0,3.6-2.9,6.4-6.4,6.4c-3.6,0-6.4-2.9-6.4-6.4s2.9-6.4,6.4-6.4
		C111.6,103.4,114.4,106.2,114.4,109.8z"/>
	<path class="st2" d="M129.9,124.4c0,3.6-2.9,6.4-6.4,6.4c-3.6,0-6.4-2.9-6.4-6.4c0-3.6,2.9-6.4,6.4-6.4
		C127.1,118,129.9,120.9,129.9,124.4z"/>
	<path class="st2" d="M89.4,138.1c0,3.6-2.9,6.4-6.4,6.4c-3.6,0-6.4-2.9-6.4-6.4c0-3.6,2.9-6.4,6.4-6.4
		C86.6,131.7,89.4,134.7,89.4,138.1z"/>
	<path class="st2" d="M125.7,145.3c0,3.6-2.9,6.4-6.4,6.4s-6.4-2.9-6.4-6.4s2.9-6.4,6.4-6.4S125.7,141.7,125.7,145.3z"/>
	<path class="st2" d="M105.4,153.1c0,3.6-2.9,6.4-6.4,6.4s-6.4-2.9-6.4-6.4s2.9-6.4,6.4-6.4S105.4,149.6,105.4,153.1z"/>
	<path class="st1" d="M77.2,127c0.8-1.1,1.1-2.4,0.9-3.9l-17-100.9c-0.3-1.4-1-2.7-2-3.4c-1.1-0.8-2.4-1.1-3.9-0.9
		c-1.4,0.3-2.7,1-3.4,2c-0.8,1.1-1.1,2.4-0.9,3.9l17,100.9c0.3,1.4,1,2.7,2,3.4c1.1,0.8,2.4,1.1,3.9,0.9
		C75.3,128.9,76.5,128,77.2,127z"/>
</g>
</svg>
