<?xml version="1.0" encoding="utf-8"?>
<!-- Generator: Adobe Illustrator 26.4.1, SVG Export Plug-In . SVG Version: 6.00 Build 0)  -->
<svg version="1.1" id="Layer_1" xmlns="http://www.w3.org/2000/svg" xmlns:xlink="http://www.w3.org/1999/xlink" x="0px" y="0px"
	 viewBox="0 0 200 200" style="enable-background:new 0 0 200 200;" xml:space="preserve">
<style type="text/css">
	.st0{fill:#2173EA;}
	.st1{opacity:0.2;}
	.st2{fill:#FFFFFF;}
	.st3{fill-rule:evenodd;clip-rule:evenodd;fill:#FBD52E;}
</style>
<g>
	<g>
		<g>
			<path id="SVGID_1_" class="st0" d="M100,0c55.2,0,100,44.8,100,100s-44.8,100-100,100S0,155.2,0,100S44.8,0,100,0L100,0z"/>
		</g>
		<g class="st1">
			<path id="SVGID_2_" class="st2" d="M115.6,133.4l35.1-76.9c2.3-5.1,8.3-7.3,13.4-5c5.1,2.3,7.3,8.3,5,13.6L134,142
				c-2.3,5-8.3,7.2-13.4,5C115.6,144.7,113.2,138.6,115.6,133.4L115.6,133.4z"/>
		</g>
	</g>
	<g>
		<g>
			<path id="SVGID_5_" class="st2" d="M159.9,70.9c-5.6,0-10.1-4.6-10.1-10.1s4.6-10.1,10.1-10.1S170,55.2,170,60.8
				S165.6,70.9,159.9,70.9L159.9,70.9z"/>
		</g>
		<g>
			<path id="SVGID_6_" class="st2" d="M124.8,148c-5.6,0-10.1-4.6-10.1-10.1c0-5.6,4.6-10.1,10.1-10.1c5.6,0,10.1,4.6,10.1,10.1
				C134.9,143.4,130.4,148,124.8,148L124.8,148z"/>
		</g>
		<g>
			<path id="SVGID_7_" class="st2" d="M108.6,103.7c-2.3,5.1-8.3,7.3-13.4,5c-5.1-2.3-7.3-8.3-5-13.4l18-40.1
				c2.3-5.1,8.3-7.3,13.4-5s7.3,8.3,5,13.4L108.6,103.7L108.6,103.7z"/>
		</g>
		<g>
			<path id="SVGID_8_" class="st2" d="M47.2,141.9c-2.3,5.1-8.3,7.3-13.4,5s-7.3-8.3-5-13.4l35.1-76.9c2.3-5.1,8.3-7.3,13.4-5
				c5.1,2.3,7.3,8.3,5,13.4L47.2,141.9L47.2,141.9z"/>
		</g>
		<g>
			<g>
				<g>
					<defs>
						<path id="SVGID_00000077294217708258471860000016133149775662706064_" d="M159.9,70.9c-5.6,0-10.1-4.6-10.1-10.1
							s4.6-10.1,10.1-10.1S170,55.2,170,60.8S165.6,70.9,159.9,70.9L159.9,70.9z"/>
					</defs>
					<clipPath id="SVGID_00000178179946274458333520000010281707631838496436_">
						<use xlink:href="#SVGID_00000077294217708258471860000016133149775662706064_"  style="overflow:visible;"/>
					</clipPath>
				</g>
			</g>
		</g>
	</g>
</g>
<path class="st3" d="M263.4-7.6"/>
</svg>
