<?xml version="1.0" encoding="utf-8"?>
<!-- Generator: Adobe Illustrator 26.4.1, SVG Export Plug-In . SVG Version: 6.00 Build 0)  -->
<svg version="1.1" id="Layer_1" xmlns="http://www.w3.org/2000/svg" xmlns:xlink="http://www.w3.org/1999/xlink" x="0px" y="0px"
	 viewBox="0 0 200 200" style="enable-background:new 0 0 200 200;" xml:space="preserve">
<style type="text/css">
	.st0{fill:#2173EA;}
	.st1{opacity:0.2;}
	.st2{fill:#FFFFFF;}
	.st3{clip-path:url(#SVGID_00000168829603705439833960000003407856386807998368_);}
	.st4{fill-rule:evenodd;clip-rule:evenodd;fill:#FBD52E;}
</style>
<g>
	<g>
		<g>
			<path id="SVGID_1_" class="st0" d="M100,10c49.7,0,90,40.3,90,90s-40.3,90-90,90s-90-40.3-90-90S50.3,10,100,10L100,10z"/>
		</g>
		<g class="st1">
			<path id="SVGID_2_" class="st2" d="M114,130.1l31.6-69.2c2.1-4.6,7.5-6.6,12.1-4.5c4.6,2.1,6.6,7.5,4.5,12.2l-31.6,69.2
				c-2.1,4.5-7.5,6.5-12.1,4.5C114,140.2,111.9,134.7,114,130.1L114,130.1z"/>
		</g>
	</g>
	<g>
		<g>
			<path id="SVGID_5_" class="st2" d="M153.9,73.8c-5,0-9.1-4.1-9.1-9.1s4.1-9.1,9.1-9.1s9.1,4.1,9.1,9.1S159,73.8,153.9,73.8
				L153.9,73.8z"/>
		</g>
		<g>
			<path id="SVGID_6_" class="st2" d="M122.3,143.2c-5,0-9.1-4.1-9.1-9.1s4.1-9.1,9.1-9.1c5,0,9.1,4.1,9.1,9.1
				S127.4,143.2,122.3,143.2L122.3,143.2z"/>
		</g>
		<g>
			<path id="SVGID_7_" class="st2" d="M107.7,103.3c-2.1,4.6-7.5,6.6-12.1,4.5c-4.6-2.1-6.6-7.5-4.5-12.1l16.2-36.1
				c2.1-4.6,7.5-6.6,12.1-4.5c4.6,2.1,6.6,7.5,4.5,12.1L107.7,103.3L107.7,103.3z"/>
		</g>
		<g>
			<path id="SVGID_8_" class="st2" d="M52.5,137.7c-2.1,4.6-7.5,6.6-12.1,4.5s-6.6-7.5-4.5-12.1l31.6-69.2c2.1-4.6,7.5-6.6,12.1-4.5
				c4.6,2.1,6.6,7.5,4.5,12.1L52.5,137.7L52.5,137.7z"/>
		</g>
		<g>
			<g>
				<defs>
					<path id="SVGID_00000038370860852283177200000010010016064484539275_" d="M153.9,73.8c-5,0-9.1-4.1-9.1-9.1s4.1-9.1,9.1-9.1
						s9.1,4.1,9.1,9.1S159,73.8,153.9,73.8L153.9,73.8z"/>
				</defs>
				<clipPath id="SVGID_00000026139512506504466010000015275052675961606311_">
					<use xlink:href="#SVGID_00000038370860852283177200000010010016064484539275_"  style="overflow:visible;"/>
				</clipPath>
			</g>
		</g>
		<g>
			<g>
				<defs>
					<path id="SVGID_00000029039913475124996840000005353089043150168194_" d="M153.9,73.8c-5,0-9.1-4.1-9.1-9.1s4.1-9.1,9.1-9.1
						s9.1,4.1,9.1,9.1S159,73.8,153.9,73.8L153.9,73.8z"/>
				</defs>
				<clipPath id="SVGID_00000102508030167686323480000014184441503423002540_">
					<use xlink:href="#SVGID_00000029039913475124996840000005353089043150168194_"  style="overflow:visible;"/>
				</clipPath>
			</g>
			<g>
				<defs>
					<path id="SVGID_00000003784743360472556710000006113637684457728191_" d="M153.9,73.8c-5,0-9.1-4.1-9.1-9.1s4.1-9.1,9.1-9.1
						s9.1,4.1,9.1,9.1S159,73.8,153.9,73.8L153.9,73.8z"/>
				</defs>
				<defs>
					<path id="SVGID_00000031920391720172143930000008945632467811164303_" d="M122.3,143.2c-5,0-9.1-4.1-9.1-9.1s4.1-9.1,9.1-9.1
						c5,0,9.1,4.1,9.1,9.1S127.4,143.2,122.3,143.2L122.3,143.2z"/>
				</defs>
				<clipPath id="SVGID_00000138555604479995185620000011631782822388961974_">
					<use xlink:href="#SVGID_00000003784743360472556710000006113637684457728191_"  style="overflow:visible;"/>
				</clipPath>
				
					<clipPath id="SVGID_00000052787300279482209070000004261395989771318960_" style="clip-path:url(#SVGID_00000138555604479995185620000011631782822388961974_);">
					<use xlink:href="#SVGID_00000031920391720172143930000008945632467811164303_"  style="overflow:visible;"/>
				</clipPath>
			</g>
		</g>
	</g>
</g>
<path class="st4" d="M263.4-7.6"/>
</svg>
