<?xml version="1.0" encoding="UTF-8"?>
<svg xmlns="http://www.w3.org/2000/svg" xmlns:xlink="http://www.w3.org/1999/xlink" width="200px" height="px" viewBox="0 0 200 200" version="1.1">
<defs>
<linearGradient id="linear0" gradientUnits="userSpaceOnUse" x1="2.02523" y1="18.6255" x2="18.6406" y2="2.01012" gradientTransform="matrix(10,0,0,10,0,0)">
<stop offset="0" style="stop-color:rgb(0%,67.843137%,90.980392%);stop-opacity:1;"/>
<stop offset="1" style="stop-color:rgb(41.176471%,98.039216%,73.72549%);stop-opacity:1;"/>
</linearGradient>
</defs>
<g id="surface1">
<path style=" stroke:none;fill-rule:nonzero;fill:url(#linear0);" d="M 157.300781 8.09375 C 134.65625 8.09375 116.242188 26.507812 116.242188 49.152344 L 116.242188 94.65625 C 112.011719 94.867188 107.777344 95.078125 103.121094 95.078125 C 98.675781 95.078125 94.234375 95.289062 90 95.503906 L 90 48.941406 C 89.578125 26.296875 70.953125 8.09375 48.308594 8.519531 C 26.085938 8.941406 8.308594 26.71875 7.882812 48.941406 L 7.882812 157.511719 C 8.308594 180.160156 26.929688 198.359375 49.578125 197.9375 C 71.800781 197.511719 89.578125 179.734375 90 157.511719 L 90 112.222656 C 94.234375 112.011719 98.464844 111.800781 103.121094 111.800781 C 107.566406 111.800781 112.011719 111.585938 116.242188 111.375 L 116.242188 157.726562 C 116.667969 180.371094 135.289062 198.570312 157.9375 198.148438 C 180.160156 197.726562 197.9375 179.945312 198.359375 157.726562 L 198.359375 48.941406 C 198.359375 26.296875 179.945312 8.09375 157.300781 8.09375 Z M 48.941406 24.816406 C 62.273438 24.816406 73.070312 35.609375 73.28125 48.941406 L 73.28125 97.195312 C 61.21875 98.890625 49.578125 102.273438 38.359375 107.144531 C 33.492188 109.257812 29.046875 112.011719 24.816406 115.183594 L 24.816406 48.941406 C 24.816406 35.609375 35.609375 24.816406 48.941406 24.816406 Z M 73.28125 157.511719 C 73.28125 170.847656 62.488281 181.851562 48.941406 181.851562 C 35.609375 181.851562 24.601562 171.058594 24.601562 157.511719 L 24.601562 146.71875 C 24.601562 137.195312 32.222656 127.882812 44.921875 122.382812 C 54.019531 118.570312 63.332031 115.820312 73.070312 114.128906 L 73.070312 157.511719 Z M 157.300781 181.851562 C 143.96875 181.851562 133.175781 171.058594 132.964844 157.726562 L 132.964844 109.472656 C 145.027344 107.777344 156.667969 104.390625 167.882812 99.523438 C 172.75 97.40625 177.195312 94.65625 181.429688 91.480469 L 181.429688 157.511719 C 181.429688 170.847656 170.636719 181.851562 157.300781 181.851562 Z M 161.109375 84.285156 C 152.011719 88.09375 142.699219 90.847656 132.964844 92.539062 L 132.964844 48.941406 C 132.964844 35.609375 143.757812 24.601562 157.300781 24.601562 C 170.636719 24.601562 181.640625 35.398438 181.640625 48.941406 L 181.640625 59.734375 C 181.640625 69.472656 174.019531 78.570312 161.109375 84.285156 Z M 161.109375 84.285156 "/>
</g>
</svg>
