<?xml version="1.0" encoding="UTF-8"?>
<svg id="katman_1" data-name="katman 1" xmlns="http://www.w3.org/2000/svg" viewBox="0 0 1350 1350">
  <defs>
    <style>
      .cls-1 {
        fill: #11b2ba;
      }

      .cls-2 {
        fill: #272d3e;
      }
    </style>
  </defs>
  <circle class="cls-2" cx="675" cy="675" r="675"/>
  <g id="Resim_8" data-name="Resim 8">
    <g>
      <path class="cls-1" d="M684.47,862.15h-286.03c-28.13,0-50.94-22.81-50.94-50.94s22.81-50.92,50.94-50.92h286.03c22.4,0,40.64-18.24,40.64-40.64s-18.24-40.64-40.64-40.64h-194.47c-78.56,0-142.5-63.92-142.5-142.5s63.94-142.5,142.5-142.5h416.65c22.4,0,40.62-18.24,40.62-40.64s-18.22-40.62-40.62-40.62h-208.21c-28.13,0-50.94-22.81-50.94-50.94s22.81-50.94,50.94-50.94h208.21c78.58,0,142.5,63.92,142.5,142.5s-63.92,142.5-142.5,142.5h-416.65c-22.4,0-40.62,18.24-40.62,40.64s18.22,40.64,40.62,40.64h194.47c78.58,0,142.5,63.92,142.5,142.5s-63.92,142.5-142.5,142.5"/>
      <path class="cls-1" d="M398.44,1139.14c-53.82,0-97.59-43.77-97.59-97.59s43.77-97.59,97.59-97.59,97.59,43.77,97.59,97.59-43.77,97.59-97.59,97.59M398.44,1000.54c-22.62,0-41.01,18.39-41.01,41.01s18.39,41.01,41.01,41.01,41.01-18.39,41.01-41.01-18.39-41.01-41.01-41.01"/>
      <path class="cls-1" d="M606.53,261.8c0-28.11-22.79-50.9-50.9-50.9s-50.9,22.79-50.9,50.9,22.79,50.9,50.9,50.9,50.9-22.79,50.9-50.9"/>
    </g>
  </g>
</svg>