<?xml version="1.0" encoding="utf-8"?>
<!-- Generator: Adobe Illustrator 26.4.1, SVG Export Plug-In . SVG Version: 6.00 Build 0)  -->
<svg version="1.1" id="Layer_1" xmlns="http://www.w3.org/2000/svg" xmlns:xlink="http://www.w3.org/1999/xlink" x="0px" y="0px"
	 viewBox="0 0 200 200" style="enable-background:new 0 0 200 200;" xml:space="preserve">
<style type="text/css">
	.st0{fill:url(#SVGID_1_);}
	.st1{fill-rule:evenodd;clip-rule:evenodd;fill:#FBD52E;}
	.st2{clip-path:url(#SVGID_00000081607610974275978920000015899933993586872725_);}
	.st3{fill:url(#SVGID_00000015334428401338912570000017224527473736389274_);}
	.st4{fill:url(#SVGID_00000071532193411670889940000004450433149536680362_);}
	.st5{clip-path:url(#SVGID_00000163036174625452917630000017076737859355279245_);}
	.st6{fill:url(#SVGID_00000101823759014896938380000001447409193698777008_);}
	.st7{fill:url(#SVGID_00000145017204404742042810000013898626443907915433_);}
	.st8{clip-path:url(#SVGID_00000023264529462673174760000009455285035061114554_);}
	.st9{fill:url(#SVGID_00000089570797758398881130000009371390026478284726_);}
</style>
<g id="surface1">
	
		<linearGradient id="SVGID_1_" gradientUnits="userSpaceOnUse" x1="3.099442e-06" y1="-542.11" x2="200" y2="-542.11" gradientTransform="matrix(1 0 0 -1 0 -442.11)">
		<stop  offset="0" style="stop-color:#252864"/>
		<stop  offset="1" style="stop-color:#16183C"/>
	</linearGradient>
	<path class="st0" d="M200,100c0,55.3-44.7,100-100,100S0,155.3,0,100S44.7,0,100,0S200,44.7,200,100z"/>
</g>
<path class="st1" d="M263.4-7.6"/>
<g>
	<g>
		<g>
			<g>
				<g>
					<defs>
						<rect id="SVGID_00000155856178064897756140000010227808577577731750_" x="34.1" y="50.5" width="131.9" height="108.8"/>
					</defs>
					<clipPath id="SVGID_00000145024072850884449860000001276246414547496833_">
						<use xlink:href="#SVGID_00000155856178064897756140000010227808577577731750_"  style="overflow:visible;"/>
					</clipPath>
					<g style="clip-path:url(#SVGID_00000145024072850884449860000001276246414547496833_);">
						
							<linearGradient id="SVGID_00000072988198808373732420000001020669980691990405_" gradientUnits="userSpaceOnUse" x1="-492.665" y1="496.1162" x2="-465.5545" y2="482.1363" gradientTransform="matrix(6.25 0 0 6.25 3102.75 -2968.5625)">
							<stop  offset="0" style="stop-color:#FDA9FF"/>
							<stop  offset="2.760000e-02" style="stop-color:#F9AAFF"/>
							<stop  offset="0.2435" style="stop-color:#DCB3FF"/>
							<stop  offset="0.3671" style="stop-color:#D1B6FF"/>
							<stop  offset="0.8897" style="stop-color:#4DFFE5"/>
						</linearGradient>
						<path style="fill:url(#SVGID_00000072988198808373732420000001020669980691990405_);" d="M34.1,52.7v41.5v-1.6
							c0.2,35.4,29.7,65.8,65.9,65.8s65.6-28.6,65.9-64.1v-1.6v-40c0,0-9.1-4.6-19.6,6.2c-6.7,6.9-12,31.8-26.3,32
							c-19.1,0.4-32.1-25.4-47.6-35C56.3,45.9,34.1,52.7,34.1,52.7z"/>
						
							<linearGradient id="SVGID_00000059276853463488305840000014586939650638276234_" gradientUnits="userSpaceOnUse" x1="-481.6419" y1="491.7279" x2="-478.7916" y2="481.4215" gradientTransform="matrix(6.25 0 0 6.25 3102.75 -2968.5625)">
							<stop  offset="0" style="stop-color:#16183C;stop-opacity:0.302"/>
							<stop  offset="0.8669" style="stop-color:#16183C;stop-opacity:0"/>
						</linearGradient>
						<path style="fill:url(#SVGID_00000059276853463488305840000014586939650638276234_);" d="M34.1,52.7v41.5v-1.6
							c0.2,35.4,29.7,65.8,65.9,65.8s65.6-28.6,65.9-64.1v-1.6v-40c0,0-9.1-4.6-19.6,6.2c-6.7,6.9-12,31.8-26.3,32
							c-19.1,0.4-32.1-25.4-47.6-35C56.3,45.9,34.1,52.7,34.1,52.7z"/>
					</g>
				</g>
			</g>
		</g>
	</g>
	<g>
		<g>
			<g>
				<g>
					<defs>
						<rect id="SVGID_00000034084062272716987740000015604721637740742840_" x="34.1" y="67.7" width="131.9" height="99"/>
					</defs>
					<clipPath id="SVGID_00000098180462912322460920000005819901267452860337_">
						<use xlink:href="#SVGID_00000034084062272716987740000015604721637740742840_"  style="overflow:visible;"/>
					</clipPath>
					<g style="clip-path:url(#SVGID_00000098180462912322460920000005819901267452860337_);">
						
							<linearGradient id="SVGID_00000173875641055141090220000013969548271812954796_" gradientUnits="userSpaceOnUse" x1="-491.7602" y1="496.8977" x2="-467.4776" y2="486.3001" gradientTransform="matrix(6.25 0 0 6.25 3102.75 -2968.5625)">
							<stop  offset="0" style="stop-color:#FDA9FF"/>
							<stop  offset="2.760000e-02" style="stop-color:#F9AAFF"/>
							<stop  offset="0.2435" style="stop-color:#DCB3FF"/>
							<stop  offset="0.3671" style="stop-color:#D1B6FF"/>
							<stop  offset="0.8897" style="stop-color:#4DFFE5"/>
						</linearGradient>
						<path style="fill:url(#SVGID_00000173875641055141090220000013969548271812954796_);" d="M165.9,98.2v-1.8v-27
							c-3.8,0.6-8.3,2.5-13.1,7c-7.5,7-13.5,32.1-29.5,32.4c-21.4,0.4-36-25.7-53.4-35.4c-12.1-6.8-27.1-6-35.9-4.7v29.5v-1.8
							c0.2,37.9,29.7,70.3,65.9,70.3S165.6,136.2,165.9,98.2z"/>
						
							<linearGradient id="SVGID_00000026886060288238534860000001744067971954957759_" gradientUnits="userSpaceOnUse" x1="-482.9076" y1="494.6087" x2="-479.1203" y2="486.9314" gradientTransform="matrix(6.25 0 0 6.25 3102.75 -2968.5625)">
							<stop  offset="0" style="stop-color:#16183C;stop-opacity:0.302"/>
							<stop  offset="0.8669" style="stop-color:#16183C;stop-opacity:0"/>
						</linearGradient>
						<path style="fill:url(#SVGID_00000026886060288238534860000001744067971954957759_);" d="M165.9,98.2v-1.8v-27
							c-3.8,0.6-8.3,2.5-13.1,7c-7.5,7-13.5,32.1-29.5,32.4c-21.4,0.4-36-25.7-53.4-35.4c-12.1-6.8-27.1-6-35.9-4.7v29.5v-1.8
							c0.2,37.9,29.7,70.3,65.9,70.3S165.6,136.2,165.9,98.2z"/>
					</g>
				</g>
			</g>
		</g>
	</g>
	<g>
		<g>
			<g>
				<g>
					<defs>
						<rect id="SVGID_00000037671662465437528580000005643283763075215535_" x="34.1" y="86.5" width="131.9" height="79.7"/>
					</defs>
					<clipPath id="SVGID_00000178885194910756129380000004016837842210347686_">
						<use xlink:href="#SVGID_00000037671662465437528580000005643283763075215535_"  style="overflow:visible;"/>
					</clipPath>
					<g style="clip-path:url(#SVGID_00000178885194910756129380000004016837842210347686_);">
						
							<linearGradient id="SVGID_00000062182369777315168170000004211122539475250591_" gradientUnits="userSpaceOnUse" x1="-492.7946" y1="498.1792" x2="-471.0133" y2="489.9334" gradientTransform="matrix(6.25 0 0 6.25 3102.75 -2968.5625)">
							<stop  offset="0" style="stop-color:#FDA9FF"/>
							<stop  offset="2.760000e-02" style="stop-color:#F9AAFF"/>
							<stop  offset="0.2435" style="stop-color:#DCB3FF"/>
							<stop  offset="0.3671" style="stop-color:#D1B6FF"/>
							<stop  offset="0.8897" style="stop-color:#4DFFE5"/>
						</linearGradient>
						<path style="fill:url(#SVGID_00000062182369777315168170000004211122539475250591_);" d="M165.9,96.5v-1.8V90
							c-2.8,1.1-6,2.8-9.1,5.6c-8.1,7-14.5,32.1-31.8,32.4c-23.1,0.4-38.7-25.7-57.4-35.4c-10.9-5.6-24-6-33.5-5.3v9.1v-1.8
							c0.2,37.9,29.7,70.3,65.9,70.3S165.6,134.4,165.9,96.5z"/>
					</g>
				</g>
			</g>
		</g>
	</g>
</g>
</svg>
