<?xml version="1.0" encoding="utf-8"?>
<!-- Generator: Adobe Illustrator 26.4.1, SVG Export Plug-In . SVG Version: 6.00 Build 0)  -->
<svg version="1.1" id="Layer_1" xmlns="http://www.w3.org/2000/svg" xmlns:xlink="http://www.w3.org/1999/xlink" x="0px" y="0px"
	 viewBox="0 0 200 200" style="enable-background:new 0 0 200 200;" xml:space="preserve">
<style type="text/css">
	.st0{fill:url(#SVGID_1_);stroke:#FFFFFF;stroke-width:3.125;stroke-miterlimit:25;}
	.st1{fill-rule:evenodd;clip-rule:evenodd;fill:#FBD52E;}
	.st2{clip-path:url(#SVGID_00000094611705393067686620000011186808536165146519_);}
	.st3{fill:url(#SVGID_00000084489267784056720690000002660973196112682685_);}
	.st4{fill:url(#SVGID_00000124144154844392734490000009468869035923702442_);}
	.st5{clip-path:url(#SVGID_00000094583616443877004560000011769750961453418376_);}
	.st6{fill:url(#SVGID_00000134237561646226199070000013288678236254625204_);}
	.st7{fill:url(#SVGID_00000005962393553833820310000016669227719441112986_);}
	.st8{clip-path:url(#SVGID_00000077317668565147515130000017848015596750199468_);}
	.st9{fill:url(#SVGID_00000109008118935612641230000003317256873763059596_);}
</style>
<g id="surface1">
	<linearGradient id="SVGID_1_" gradientUnits="userSpaceOnUse" x1="9.4904" y1="100" x2="190.5096" y2="100">
		<stop  offset="0" style="stop-color:#252864"/>
		<stop  offset="1" style="stop-color:#16183C"/>
	</linearGradient>
	<path class="st0" d="M190.5,100c0,50-40.5,90.5-90.5,90.5C50,190.5,9.5,150,9.5,100C9.5,50,50,9.5,100,9.5
		C150,9.5,190.5,50,190.5,100z"/>
</g>
<path class="st1" d="M263.4-7.6"/>
<g>
	<g>
		<defs>
			<rect id="SVGID_00000002350954732223008290000015516662190907755695_" x="43.8" y="50.4" width="112.5" height="92.8"/>
		</defs>
		<clipPath id="SVGID_00000133510930546992958690000008141444245481113472_">
			<use xlink:href="#SVGID_00000002350954732223008290000015516662190907755695_"  style="overflow:visible;"/>
		</clipPath>
		<g style="clip-path:url(#SVGID_00000133510930546992958690000008141444245481113472_);">
			
				<linearGradient id="SVGID_00000096021169478904351980000004756734614317862293_" gradientUnits="userSpaceOnUse" x1="5.5664" y1="180.7948" x2="28.6961" y2="192.7219" gradientTransform="matrix(6.25 0 0 -6.25 0 1250)">
				<stop  offset="0" style="stop-color:#FDA9FF"/>
				<stop  offset="2.760000e-02" style="stop-color:#F9AAFF"/>
				<stop  offset="0.2435" style="stop-color:#DCB3FF"/>
				<stop  offset="0.3671" style="stop-color:#D1B6FF"/>
				<stop  offset="0.8897" style="stop-color:#4DFFE5"/>
			</linearGradient>
			<path style="fill:url(#SVGID_00000096021169478904351980000004756734614317862293_);" d="M43.8,52.3v35.4l0-1.4
				c0.2,30.2,25.3,56.1,56.2,56.1s56-24.4,56.2-54.7l0-1.4v-34c0,0-7.8-3.9-16.7,5.3c-5.7,5.9-10.2,27.1-22.4,27.3
				c-16.3,0.3-27.4-21.7-40.6-29.9C62.7,46.5,43.8,52.3,43.8,52.3z"/>
			
				<linearGradient id="SVGID_00000174599698279398694370000004907217727803113103_" gradientUnits="userSpaceOnUse" x1="14.9736" y1="184.53" x2="17.4053" y2="193.323" gradientTransform="matrix(6.25 0 0 -6.25 0 1250)">
				<stop  offset="0" style="stop-color:#16183C;stop-opacity:0.302"/>
				<stop  offset="0.8669" style="stop-color:#16183C;stop-opacity:0"/>
			</linearGradient>
			<path style="fill:url(#SVGID_00000174599698279398694370000004907217727803113103_);" d="M43.8,52.3v35.4l0-1.4
				c0.2,30.2,25.3,56.1,56.2,56.1s56-24.4,56.2-54.7l0-1.4v-34c0,0-7.8-3.9-16.7,5.3c-5.7,5.9-10.2,27.1-22.4,27.3
				c-16.3,0.3-27.4-21.7-40.6-29.9C62.7,46.5,43.8,52.3,43.8,52.3z"/>
		</g>
	</g>
	<g>
		<defs>
			<rect id="SVGID_00000170978162826023146040000013802966052800688273_" x="43.8" y="65.1" width="112.5" height="84.5"/>
		</defs>
		<clipPath id="SVGID_00000075885533888367522090000000166112529271411359_">
			<use xlink:href="#SVGID_00000170978162826023146040000013802966052800688273_"  style="overflow:visible;"/>
		</clipPath>
		<g style="clip-path:url(#SVGID_00000075885533888367522090000000166112529271411359_);">
			
				<linearGradient id="SVGID_00000137829163523872923010000012665724475717123752_" gradientUnits="userSpaceOnUse" x1="6.3461" y1="180.1121" x2="27.0631" y2="189.1536" gradientTransform="matrix(6.25 0 0 -6.25 0 1250)">
				<stop  offset="0" style="stop-color:#FDA9FF"/>
				<stop  offset="2.760000e-02" style="stop-color:#F9AAFF"/>
				<stop  offset="0.2435" style="stop-color:#DCB3FF"/>
				<stop  offset="0.3671" style="stop-color:#D1B6FF"/>
				<stop  offset="0.8897" style="stop-color:#4DFFE5"/>
			</linearGradient>
			<path style="fill:url(#SVGID_00000137829163523872923010000012665724475717123752_);" d="M156.2,91.1l0-1.5V66.6
				c-3.2,0.5-7.1,2.1-11.2,6c-6.4,6-11.5,27.4-25.2,27.6c-18.3,0.3-30.7-21.9-45.6-30.2c-10.3-5.8-23.1-5.1-30.6-4v25.2l0-1.5
				c0.2,32.3,25.3,60,56.2,60S156,123.5,156.2,91.1z"/>
			
				<linearGradient id="SVGID_00000174572542723356632070000007769632487436244635_" gradientUnits="userSpaceOnUse" x1="13.9013" y1="182.0689" x2="17.1325" y2="188.6189" gradientTransform="matrix(6.25 0 0 -6.25 0 1250)">
				<stop  offset="0" style="stop-color:#16183C;stop-opacity:0.302"/>
				<stop  offset="0.8669" style="stop-color:#16183C;stop-opacity:0"/>
			</linearGradient>
			<path style="fill:url(#SVGID_00000174572542723356632070000007769632487436244635_);" d="M156.2,91.1l0-1.5V66.6
				c-3.2,0.5-7.1,2.1-11.2,6c-6.4,6-11.5,27.4-25.2,27.6c-18.3,0.3-30.7-21.9-45.6-30.2c-10.3-5.8-23.1-5.1-30.6-4v25.2l0-1.5
				c0.2,32.3,25.3,60,56.2,60S156,123.5,156.2,91.1z"/>
		</g>
	</g>
	<g>
		<defs>
			<rect id="SVGID_00000164485802520793589060000001247349876612114597_" x="43.8" y="81.1" width="112.5" height="68"/>
		</defs>
		<clipPath id="SVGID_00000090976293778685227500000011222864082436990360_">
			<use xlink:href="#SVGID_00000164485802520793589060000001247349876612114597_"  style="overflow:visible;"/>
		</clipPath>
		<g style="clip-path:url(#SVGID_00000090976293778685227500000011222864082436990360_);">
			
				<linearGradient id="SVGID_00000084506236353789690460000001295669932239159468_" gradientUnits="userSpaceOnUse" x1="5.4662" y1="179.0108" x2="24.0492" y2="186.0458" gradientTransform="matrix(6.25 0 0 -6.25 0 1250)">
				<stop  offset="0" style="stop-color:#FDA9FF"/>
				<stop  offset="2.760000e-02" style="stop-color:#F9AAFF"/>
				<stop  offset="0.2435" style="stop-color:#DCB3FF"/>
				<stop  offset="0.3671" style="stop-color:#D1B6FF"/>
				<stop  offset="0.8897" style="stop-color:#4DFFE5"/>
			</linearGradient>
			<path style="fill:url(#SVGID_00000084506236353789690460000001295669932239159468_);" d="M156.2,89.7l0-1.5v-4.1
				c-2.4,0.9-5.1,2.4-7.8,4.8c-6.9,6-12.4,27.4-27.1,27.6c-19.7,0.3-33-21.9-49-30.2c-9.3-4.8-20.5-5.1-28.6-4.5v7.8l0-1.5
				c0.2,32.3,25.3,60,56.2,60S156,122,156.2,89.7z"/>
		</g>
	</g>
</g>
</svg>
