<?xml version="1.0" encoding="UTF-8"?>
<svg xmlns="http://www.w3.org/2000/svg" xmlns:xlink="http://www.w3.org/1999/xlink" width="200px" height="px" viewBox="0 0 200 231" version="1.1">
<g id="surface1">
<path style=" stroke:none;fill-rule:evenodd;fill:rgb(94.117647%,72.54902%,4.313725%);fill-opacity:1;" d="M 100.039062 0.164062 L 38.707031 35.515625 L 61.257812 48.574219 L 100.039062 26.28125 L 138.824219 48.574219 L 161.371094 35.515625 Z M 138.824219 67.039062 L 161.371094 80.097656 L 161.371094 106.21875 L 122.585938 128.511719 L 122.585938 173.09375 L 100.039062 186.152344 L 77.492188 173.09375 L 77.492188 128.511719 L 38.707031 106.21875 L 38.707031 80.097656 L 61.257812 67.039062 L 100.039062 89.328125 Z M 161.371094 124.683594 L 161.371094 150.800781 L 138.824219 163.863281 L 138.824219 137.742188 Z M 138.597656 182.324219 L 177.382812 160.035156 L 177.382812 115.449219 L 199.929688 102.390625 L 199.929688 173.09375 L 138.597656 208.445312 Z M 177.382812 70.867188 L 154.832031 57.804688 L 177.382812 44.746094 L 199.929688 57.804688 L 199.929688 83.925781 L 177.382812 96.984375 Z M 77.492188 217.902344 L 77.492188 191.785156 L 100.039062 204.84375 L 122.585938 191.785156 L 122.585938 217.902344 L 100.039062 230.960938 Z M 61.257812 163.863281 L 38.707031 150.800781 L 38.707031 124.683594 L 61.257812 137.742188 Z M 100.039062 70.867188 L 77.492188 57.804688 L 100.039062 44.746094 L 122.585938 57.804688 Z M 45.246094 57.804688 L 22.699219 70.867188 L 22.699219 96.984375 L 0.148438 83.925781 L 0.148438 57.804688 L 22.699219 44.746094 Z M 0.148438 102.390625 L 22.699219 115.449219 L 22.699219 160.035156 L 61.480469 182.324219 L 61.480469 208.445312 L 0.148438 173.09375 Z M 0.148438 102.390625 "/>
</g>
</svg>
