<?xml version="1.0" encoding="UTF-8"?>
<svg id="Layer_1" data-name="Layer 1" xmlns="http://www.w3.org/2000/svg" xmlns:xlink="http://www.w3.org/1999/xlink" version="1.1" viewBox="0 0 500 500">
  <defs>
    <style>
      .cls-1 {
        fill: url(#linear-gradient);
      }

      .cls-1, .cls-2, .cls-3, .cls-4 {
        stroke-width: 0px;
      }

      .cls-2 {
        fill: url(#linear-gradient-2);
      }

      .cls-3 {
        fill: url(#linear-gradient-3);
      }

      .cls-4 {
        fill: #fff;
      }
    </style>
    <linearGradient id="linear-gradient" x1="314.8" y1="106.5" x2="314.8" y2="295.7" gradientUnits="userSpaceOnUse">
      <stop offset="0" stop-color="#7bd0ff"/>
      <stop offset=".1" stop-color="#77beff"/>
      <stop offset=".4" stop-color="#6f90ff"/>
      <stop offset=".7" stop-color="#6247ff"/>
      <stop offset="1" stop-color="#5705ff"/>
    </linearGradient>
    <linearGradient id="linear-gradient-2" x1="235.6" y1="163.6" x2="235.6" y2="352.8" gradientUnits="userSpaceOnUse">
      <stop offset=".2" stop-color="#624aff"/>
      <stop offset=".5" stop-color="#9529fe"/>
      <stop offset=".8" stop-color="#b614fe"/>
      <stop offset=".9" stop-color="#c30dfe"/>
    </linearGradient>
    <linearGradient id="linear-gradient-3" x1="249.8" y1="90.9" x2="249.8" y2="409.1" gradientUnits="userSpaceOnUse">
      <stop offset="0" stop-color="#6ecbff"/>
      <stop offset=".4" stop-color="#664aff"/>
      <stop offset=".8" stop-color="#c643ff"/>
      <stop offset="1" stop-color="#ef41ff"/>
    </linearGradient>
  </defs>
  <circle class="cls-4" cx="250" cy="250" r="249.9"/>
  <g>
    <path class="cls-1" d="M330.2,206.8l-.8,101.6,60.9-34.5-.8-102.4c0-1.3-.7-2.4-1.8-3l-89.5-49.2-58.8,34.5,90.9,53.1Z"/>
    <polygon class="cls-2" points="159.5 198.6 251.2 250.8 252.1 352.8 311.7 317.4 311.3 214.2 220 163.6 159.5 198.6"/>
    <path class="cls-3" d="M250.8,372.6l-107.4-60.9-.8-122.2,140.3-79.4-32.4-18.7c-1.1-.6-2.4-.6-3.5,0l-135.5,79c-1.1.6-1.7,1.8-1.7,3v154.3c0,1.2.7,2.4,1.7,3l135.6,77.8c1.1.6,2.4.6,3.4,0l137.5-77.8c1.1-.6,1.8-1.8,1.8-3.1l-.8-34.9-138.2,79.8Z"/>
  </g>
</svg>