<?xml version="1.0" encoding="utf-8"?>
<!-- Generator: Adobe Illustrator 26.4.1, SVG Export Plug-In . SVG Version: 6.00 Build 0)  -->
<svg version="1.1" id="Layer_1" xmlns="http://www.w3.org/2000/svg" xmlns:xlink="http://www.w3.org/1999/xlink" x="0px" y="0px"
	 viewBox="0 0 200 200" style="enable-background:new 0 0 200 200;" xml:space="preserve">
<style type="text/css">
	.st0{fill-rule:evenodd;clip-rule:evenodd;fill:#FBD52E;}
	.st1{fill:#E53935;}
</style>
<path class="st0" d="M263.4-7.6"/>
<g id="surface1_00000173847548103308127240000005436810969070195085_">
	<path class="st1" d="M100,5.1c52.4,0,94.9,42.5,94.9,94.9s-42.5,94.9-94.9,94.9S5.1,152.4,5.1,100S47.6,5.1,100,5.1z M100,13.9
		c-47.6,0-86.1,38.5-86.1,86.1s38.5,86.1,86.1,86.1s86.1-38.5,86.1-86.1S147.6,13.9,100,13.9z"/>
	<path class="st1" d="M155.8,65V57h-25.5c-1.4-5.2-2.7-9.8-4.2-14l-8.6,1.5c1.5,3.7,3,8,4.3,12.5H94.9V65H155.8z M90.5,124.9V73.5
		H77.9c2.6-3.9,5.3-8.5,7.9-14.2v-5.9H65.4c1.1-2.5,2.2-4.9,3.1-7.5l-8-2.5c-3.8,12.2-9.6,21.9-17.4,29.5l1.8,8.8
		c1.6-1.5,3.2-3,4.7-4.6V125h40.9V124.9z M69.4,73.5H52.8c3.2-4,6.3-8.4,9-13.1h15.7C74.7,65.4,72.1,69.8,69.4,73.5z M120.7,156.9
		c6.2,0,9.5-3.4,9.5-10.2v-35.3h19.8V76.2h-48.4v35.2h19.9v33.1c0,3.1-1.3,4.7-3.8,4.7c-2.9,0-5.8-0.2-8.8-0.6l1.7,8.3H120.7z
		 M66.5,95.6h-9.3V80.8h9.3V95.6z M82.9,95.6h-9V80.8h9V95.6z M141.4,103.6H110V84.2h31.4V103.6z M82.9,117.4h-9v-14.7h9V117.4z
		 M66.5,117.4h-9.3v-14.7h9.3V117.4z M150.4,151.2l6.6-4.6c-3.3-8-8.1-17.1-14.3-27.7l-6.6,4C142.1,133.4,146.9,142.7,150.4,151.2z
		 M98.3,153.4c5.5-8.5,10.2-18.7,14.2-30.3l-7.2-3.4c-3.9,11.2-8.5,20.8-13.7,28.9L98.3,153.4z M87.9,145l6.1-1.5
		c-1.7-5.9-3.4-11.2-5.5-15.6l-5.8,1.7C84.7,134.5,86.4,139.6,87.9,145z M74.7,152.1l6.5-0.8c-0.8-9.4-2.2-16.8-4.1-22.3l-6.2,0.8
		C72.9,135.1,74.2,142.5,74.7,152.1z M51,155.5c2.6-7.3,4.2-15.6,4.9-25l-6.7-0.9c-0.6,8.9-2.4,16.8-5.1,23.8L51,155.5z M61.5,154
		l6.5-0.8c-0.2-9.8-0.9-17.5-1.7-23.2l-5.9,0.8C60.8,136.2,61.2,144,61.5,154z"/>
</g>
</svg>
