<?xml version="1.0" encoding="UTF-8"?>
<svg xmlns="http://www.w3.org/2000/svg" xmlns:xlink="http://www.w3.org/1999/xlink" width="200px" height="200px" viewBox="0 0 200 200" version="1.1">
<g id="surface1">
<path style=" stroke:none;fill-rule:nonzero;fill:rgb(89.803922%,22.352941%,20.784314%);fill-opacity:1;" d="M 100 0 C 155.226562 0 200 44.773438 200 100 C 200 155.226562 155.226562 200 100 200 C 44.773438 200 0 155.226562 0 100 C 0 44.773438 44.773438 0 100 0 Z M 100 9.332031 C 49.925781 9.332031 9.332031 49.925781 9.332031 100 C 9.332031 150.074219 49.925781 190.667969 100 190.667969 C 150.074219 190.667969 190.667969 150.074219 190.667969 100 C 190.667969 49.925781 150.074219 9.332031 100 9.332031 Z M 100 9.332031 "/>
<path style=" stroke:none;fill-rule:nonzero;fill:rgb(89.803922%,22.352941%,20.784314%);fill-opacity:1;" d="M 158.820312 63.21875 L 158.820312 54.738281 L 131.964844 54.738281 C 130.523438 49.261719 129.082031 44.433594 127.511719 40 L 118.472656 41.566406 C 120.042969 45.476562 121.617188 49.914062 123.058594 54.738281 L 94.628906 54.738281 L 94.628906 63.21875 Z M 90.042969 126.21875 L 90.042969 72.085938 L 76.8125 72.085938 C 79.5625 68.042969 82.3125 63.085938 85.066406 57.085938 L 85.066406 50.824219 L 63.449219 50.824219 C 64.628906 48.21875 65.675781 45.609375 66.726562 42.871094 L 58.339844 40.261719 C 54.410156 53.042969 48.253906 63.347656 40 71.304688 L 41.964844 80.566406 C 43.667969 79 45.371094 77.433594 46.941406 75.738281 L 46.941406 126.21875 Z M 67.773438 72.085938 L 50.21875 72.085938 C 53.625 67.914062 56.898438 63.21875 59.78125 58.261719 L 76.289062 58.261719 C 73.40625 63.476562 70.65625 68.175781 67.773438 72.085938 Z M 121.746094 160 C 128.296875 160 131.703125 156.347656 131.703125 149.175781 L 131.703125 112 L 152.53125 112 L 152.53125 74.957031 L 101.570312 74.957031 L 101.570312 112 L 122.53125 112 L 122.53125 146.957031 C 122.53125 150.21875 121.222656 151.914062 118.601562 151.914062 C 115.589844 151.914062 112.445312 151.652344 109.300781 151.261719 L 111.136719 160 Z M 64.761719 95.304688 L 55.066406 95.304688 L 55.066406 79.78125 L 64.761719 79.78125 Z M 81.921875 95.304688 L 72.359375 95.304688 L 72.359375 79.78125 L 81.921875 79.78125 Z M 143.625 103.78125 L 110.480469 103.78125 L 110.480469 83.304688 L 143.625 83.304688 Z M 81.921875 118.390625 L 72.359375 118.390625 L 72.359375 102.871094 L 81.921875 102.871094 Z M 64.761719 118.390625 L 55.066406 118.390625 L 55.066406 102.871094 L 64.761719 102.871094 Z M 153.058594 154 L 160 149.175781 C 156.460938 140.824219 151.484375 131.175781 144.933594 120.085938 L 137.992188 124.261719 C 144.28125 135.085938 149.386719 145 153.058594 154 Z M 98.164062 156.21875 C 103.929688 147.21875 108.910156 136.523438 113.101562 124.261719 L 105.503906 120.609375 C 101.441406 132.347656 96.59375 142.523438 91.089844 151.128906 Z M 87.292969 147.347656 L 93.710938 145.78125 C 91.878906 139.523438 90.042969 134.042969 87.949219 129.347656 L 81.789062 131.175781 C 83.886719 136.390625 85.71875 141.738281 87.292969 147.347656 Z M 73.40625 154.914062 L 80.21875 154.128906 C 79.433594 144.21875 77.992188 136.390625 75.894531 130.652344 L 69.34375 131.433594 C 71.441406 136.914062 72.75 144.738281 73.40625 154.914062 Z M 48.382812 158.433594 C 51.136719 150.738281 52.839844 142 53.625 132.085938 L 46.550781 131.175781 C 45.894531 140.566406 44.0625 148.914062 41.179688 156.21875 Z M 59.386719 156.871094 L 66.199219 156.085938 C 65.9375 145.78125 65.285156 137.566406 64.367188 131.566406 L 58.078125 132.347656 C 58.734375 138.085938 59.125 146.304688 59.386719 156.871094 Z M 59.386719 156.871094 "/>
</g>
</svg>
