<?xml version="1.0" encoding="utf-8"?>
<!-- Generator: Adobe Illustrator 26.4.1, SVG Export Plug-In . SVG Version: 6.00 Build 0)  -->
<svg version="1.1" id="Layer_1" xmlns="http://www.w3.org/2000/svg" xmlns:xlink="http://www.w3.org/1999/xlink" x="0px" y="0px"
	 viewBox="0 0 200 200" style="enable-background:new 0 0 200 200;" xml:space="preserve">
<style type="text/css">
	.st0{fill-rule:evenodd;clip-rule:evenodd;fill:#FBD52E;}
	.st1{fill:#E53935;}
</style>
<path class="st0" d="M263.4-7.6"/>
<g id="surface1_00000173847548103308127240000005436810969070195085_">
	<path class="st1" d="M100,0c55.2,0,100,44.8,100,100s-44.8,100-100,100S0,155.2,0,100S44.8,0,100,0z M100,9.3
		C49.8,9.3,9.3,49.8,9.3,100s40.6,90.7,90.7,90.7s90.7-40.6,90.7-90.7S150.2,9.3,100,9.3z"/>
	<path class="st1" d="M158.8,63.1v-8.4h-26.9c-1.5-5.5-2.8-10.3-4.4-14.8l-9.1,1.6c1.6,3.9,3.2,8.4,4.5,13.2H94.6v8.4H158.8z
		 M90,126.2V72.1H76.7c2.7-4.1,5.6-9,8.3-15v-6.2H63.5c1.2-2.6,2.3-5.2,3.3-7.9l-8.4-2.6c-4,12.9-10.1,23.1-18.3,31.1l1.9,9.3
		c1.7-1.6,3.4-3.2,5-4.8v50.5H90V126.2z M67.8,72.1H50.3c3.4-4.2,6.6-8.9,9.5-13.8h16.5C73.3,63.5,70.6,68.2,67.8,72.1z M121.8,160
		c6.5,0,10-3.6,10-10.7V112h20.9V74.9h-51V112h21v34.9c0,3.3-1.4,5-4,5c-3.1,0-6.1-0.2-9.3-0.6l1.8,8.7H121.8z M64.7,95.4h-9.8V79.8
		h9.8V95.4z M82,95.4h-9.5V79.8H82V95.4z M143.6,103.8h-33.1V83.4h33.1V103.8z M82,118.3h-9.5v-15.5H82V118.3z M64.7,118.3h-9.8
		v-15.5h9.8V118.3z M153.1,154l7-4.8c-3.5-8.4-8.5-18-15.1-29.2l-7,4.2C144.4,135.2,149.4,145,153.1,154z M98.2,156.3
		c5.8-9,10.7-19.7,15-31.9l-7.6-3.6c-4.1,11.8-9,21.9-14.4,30.5L98.2,156.3z M87.2,147.4l6.4-1.6c-1.8-6.2-3.6-11.8-5.8-16.4
		l-6.1,1.8C83.9,136.4,85.7,141.7,87.2,147.4z M73.3,154.9l6.8-0.8c-0.8-9.9-2.3-17.7-4.3-23.5l-6.5,0.8
		C71.4,137,72.8,144.8,73.3,154.9z M48.4,158.5c2.7-7.7,4.4-16.4,5.2-26.3l-7.1-0.9c-0.6,9.4-2.5,17.7-5.4,25.1L48.4,158.5z
		 M59.4,156.9l6.8-0.8c-0.2-10.3-0.9-18.4-1.8-24.4l-6.2,0.8C58.7,138.1,59.1,146.4,59.4,156.9z"/>
</g>
</svg>
