<?xml version="1.0" encoding="UTF-8"?>
<svg id="Layer_1" data-name="Layer 1" xmlns="http://www.w3.org/2000/svg" version="1.1" viewBox="0 0 500 500">
  <defs>
    <style>
      .cls-1 {
        fill: #000;
      }

      .cls-1, .cls-2 {
        stroke-width: 0px;
      }

      .cls-2 {
        fill: #fff;
      }
    </style>
  </defs>
  <circle class="cls-2" cx="250" cy="250" r="249.1"/>
  <g>
    <path class="cls-1" d="M366.3,392.8c-22.6,17.4-47.5,30.2-75.4,36.4-25,5.6-50.1,6.3-77.8.6,15.1-14.6,29.1-28.1,43.1-41.6,25.2-25.4,52.6-48.7,74.6-77,34.2-43.8,26.9-101.9-12.8-137.2-18.6-16.5-40.2-25-64.7-26-8.5-.4-17,.5-26.8,2.5,25.5-25.5,50-49.9,74.3-74.5,2.9-2.9,5.3-1.4,7.9-.5,44.6,15.6,78.8,43.8,102.2,84.9,43.1,75.8,24.7,174.9-42.8,230.4-.7.6-1.2,1.3-1.8,2Z"/>
    <path class="cls-1" d="M240.6,382.6c-12.9,12.8-26,25.5-38.7,38.5-3.7,3.8-6.7,5-12,3-29-10.7-54.4-26.6-75.2-49.5-.6-.6-1.4-1.1-2.1-1.6-21.9-25.5-36.8-54.5-43.2-87.5-7.3-37.9-3.2-74.6,12.5-110,17.2-38.4,44.4-67.6,81.4-87.5,31.7-17,65.7-24.2,101.8-21,6.4.6,12.8,1.5,20,2.3-12.2,12.4-23.5,24.1-35,35.7-24.8,24.9-51.1,48.4-74.3,74.8-18.8,21.3-30.3,46.2-28.5,75.5,2.3,37.7,20.8,65.5,53.4,84,21.1,12,43.8,15.2,67.7,11,.9-.2,1.8,0,4.7,0-11.5,11.4-22,21.9-32.4,32.3Z"/>
  </g>
</svg>