<?xml version="1.0" encoding="UTF-8"?>
<svg id="Layer_1" data-name="Layer 1" xmlns="http://www.w3.org/2000/svg" version="1.1" viewBox="0 0 500 500">
  <defs>
    <style>
      .cls-1 {
        fill: #19191a;
        stroke-width: 0px;
      }
    </style>
  </defs>
  <path class="cls-1" d="M298.4,388c15.4,0,27.8-12.4,27.8-27.7s-12.4-27.7-27.8-27.7-27.7,12.4-27.7,27.7,12.4,27.7,27.7,27.7Z"/>
  <path class="cls-1" d="M198.8,388.8c15.4,0,27.7-12.4,27.7-27.7s-12.3-27.7-27.7-27.7-27.7,12.4-27.7,27.7,12.4,27.7,27.7,27.7Z"/>
  <path class="cls-1" d="M138,99.1h66.1c12.4,33.6,44.9,128.9,47.2,134.2.6-2.7,33.3-106.5,42.5-133.7h68.7v236.9c-8.5-4.7-17.1-9.4-26.3-14.8-6.4-3.2-12.3-6.8-18.8-9.4-.6-46-1.2-91.8-2.6-139.6-9.2,27.4-41.1,124.2-43.7,126.9h-42.5s-41.3-117.4-43.3-122.7c-.6,45.1-1.2,90.3-2.7,136.9-25.3,13-40.4,20.4-45.1,22.1V99.1h.6Z"/>
  <path class="cls-1" d="M249.6,38.3c115.9,0,210.7,94.4,210.7,210.7s-94.4,210.7-210.7,210.7S38.9,365.3,38.9,249,133.3,38.3,249.6,38.3ZM249.6-1.5C111.1-1.5-1,110.6-1,249s112.1,250.5,250.6,250.5,250.4-112.1,250.4-250.5S387.9-1.5,249.6-1.5Z"/>
</svg>