<?xml version="1.0" encoding="utf-8"?>
<!-- Generator: Adobe Illustrator 26.4.1, SVG Export Plug-In . SVG Version: 6.00 Build 0)  -->
<svg version="1.1" id="Layer_1" xmlns="http://www.w3.org/2000/svg" xmlns:xlink="http://www.w3.org/1999/xlink" x="0px" y="0px"
	 viewBox="0 0 200 200" style="enable-background:new 0 0 200 200;" xml:space="preserve">
<style type="text/css">
	.st0{fill:#F0B90B;}
</style>
<g id="surface1_00000095319932151023777610000004295551145047143346_">
	<path d="M194.9,100.5c0,51.9-42,93.9-93.9,93.9s-93.9-42-93.9-93.9S49.1,6.6,101,6.6S194.9,48.6,194.9,100.5z"/>
	<path class="st0" d="M58.8,100.5l0.1,24.8l21.1,12.4v14.5l-33.4-19.6V93.2L58.8,100.5z M58.8,75.6v14.5l-12.3-7.3V68.4l12.3-7.3
		l12.3,7.3L58.8,75.6z M88.7,68.4l12.3-7.3l12.3,7.3L101,75.6L88.7,68.4z"/>
	<path class="st0" d="M67.6,120.2v-14.5l12.3,7.3v14.5L67.6,120.2z M88.7,142.9l12.3,7.3l12.3-7.3v14.5l-12.3,7.3l-12.3-7.3V142.9z
		 M131,68.4l12.3-7.3l12.3,7.3v14.5l-12.3,7.3V75.6L131,68.4z M143.3,125.3l0.1-24.8l12.3-7.3v39.4l-33.4,19.6v-14.5L143.3,125.3z"
		/>
	<path class="st0" d="M134.5,120.2l-12.3,7.2v-14.5l12.3-7.3V120.2z"/>
	<path class="st0" d="M134.5,80.8l0.1,14.5l-21.2,12.4v24.9l-12.3,7.2l-12.3-7.2v-24.9L67.6,95.3V80.8L80,73.5L101,86l21.2-12.5
		L134.5,80.8L134.5,80.8z M67.6,56L101,36.3L134.5,56l-12.3,7.3L101,50.8L79.9,63.2L67.6,56z"/>
</g>
</svg>
