<?xml version="1.0" encoding="UTF-8"?>
<svg id="Layer_1" data-name="Layer 1" xmlns="http://www.w3.org/2000/svg" version="1.1" viewBox="0 0 500 500">
  <defs>
    <style>
      .cls-1 {
        fill: #d5bcae;
      }

      .cls-1, .cls-2, .cls-3 {
        stroke-width: 0px;
      }

      .cls-2 {
        fill: #37262c;
      }

      .cls-3 {
        fill: #fefefe;
      }
    </style>
  </defs>
  <path class="cls-2" d="M249.9,499.5c137.8,0,249.6-111.7,249.6-249.6S387.7.3,249.9.3.3,112,.3,249.9s111.7,249.6,249.6,249.6h0Z"/>
  <g>
    <path class="cls-3" d="M380,142.7c-3.5,38-6.8,73.4-10.3,110.9-14.5-13.5-27.9-25.8-41.2-38.3-24.1-22.4-48.2-44.7-72-67.3-4.4-4.2-6.9-5.2-11.5,0-17,19.2-34.4,38-52,56.6-4,4.3-3.2,6.4.8,10,25.4,23.3,50.5,47,76,70.3,5.1,4.6,5.3,7.5.3,12.2-7.1,6.8-13.8,14.1-20,21.7-4,4.9-6.3,4-10.5.1-35.9-33.8-72-67.3-108.2-100.8-4.6-4.2-6.2-6.6-1-12.1,37.4-40.1,74.6-80.6,111.4-121.2,5.2-5.7,8-5.9,13.7-.5,29.5,28.1,59.7,55.5,89.2,83.6,5.4,5.2,8,5.2,12.7-.6,6.5-8.1,14-15.3,22.7-24.6Z"/>
    <path class="cls-1" d="M120.3,355.8c3.3-35.2,6.6-70.4,9.9-105.8,5.1.7,7.2,4.4,9.9,6.9,33.7,31.3,67.6,62.4,100.9,94.2,7.3,7,10.9,6.5,17.3-.9,15.2-17.7,31.2-34.7,47.3-51.6,5-5.2,5.3-7.9-.3-13-25.1-22.7-49.6-46.1-74.6-68.9-4.8-4.4-6-7.2-.7-12.2,6.7-6.3,12.7-13.3,18.7-20.3,3.1-3.5,5.1-3.4,8.6-.2,36.7,34.4,73.5,68.7,110.4,102.8,4,3.7,4.4,6,.6,10.1-37.3,40.3-74.4,80.7-111.4,121.2-4.3,4.7-6.6,4-10.9,0-30.1-28.4-60.6-56.4-90.8-84.8-4.8-4.6-7.7-5.1-12.2.4-6.6,8.1-14,15.4-21.1,23-.6-.4-1.1-.7-1.7-1.1Z"/>
  </g>
</svg>