<?xml version="1.0" encoding="UTF-8"?>
<svg xmlns="http://www.w3.org/2000/svg" xmlns:xlink="http://www.w3.org/1999/xlink" width="200px" height="200px" viewBox="0 0 200 200" version="1.1">
<defs>
<filter id="alpha" filterUnits="objectBoundingBox" x="0%" y="0%" width="100%" height="100%">
  <feColorMatrix type="matrix" in="SourceGraphic" values="0 0 0 0 1 0 0 0 0 1 0 0 0 0 1 0 0 0 1 0"/>
</filter>
<mask id="mask0">
  <g filter="url(#alpha)">
<rect x="0" y="0" width="200" height="200" style="fill:rgb(0%,0%,0%);fill-opacity:0.984314;stroke:none;"/>
  </g>
</mask>
<clipPath id="clip1">
  <rect x="0" y="0" width="200" height="200"/>
</clipPath>
<g id="surface5" clip-path="url(#clip1)">
<path style=" stroke:none;fill-rule:evenodd;fill:rgb(54.901961%,55.294118%,100%);fill-opacity:1;" d="M 57.75 39.25 C 58.742188 49.234375 59.078125 59.402344 58.75 69.75 C 76.585938 69.582031 94.421875 69.75 112.25 70.25 C 94.546875 84.476562 76.796875 98.644531 59 112.75 C 58.917969 126.585938 58.667969 140.417969 58.25 154.25 C 40.234375 135.234375 22.398438 116.066406 4.75 96.75 C 22.4375 77.5625 40.105469 58.398438 57.75 39.25 Z M 57.75 39.25 "/>
</g>
<mask id="mask1">
  <g filter="url(#alpha)">
<rect x="0" y="0" width="200" height="200" style="fill:rgb(0%,0%,0%);fill-opacity:0.996078;stroke:none;"/>
  </g>
</mask>
<clipPath id="clip2">
  <rect x="0" y="0" width="200" height="200"/>
</clipPath>
<g id="surface8" clip-path="url(#clip2)">
<path style=" stroke:none;fill-rule:evenodd;fill:rgb(29.803922%,31.764706%,62.352941%);fill-opacity:1;" d="M 140.75 39.25 C 159.066406 58.070312 177.066406 77.234375 194.75 96.75 C 177.101562 116.066406 159.265625 135.234375 141.25 154.25 C 140.75 144.089844 140.582031 133.921875 140.75 123.75 C 122.914062 123.917969 105.078125 123.75 87.25 123.25 C 105.070312 109.34375 122.820312 95.34375 140.5 81.25 C 140.75 67.25 140.832031 53.25 140.75 39.25 Z M 140.75 39.25 "/>
</g>
</defs>
<g id="surface1">
<use xlink:href="#surface5" mask="url(#mask0)"/>
<use xlink:href="#surface8" mask="url(#mask1)"/>
</g>
</svg>
