<?xml version="1.0" encoding="utf-8"?>
<!-- Generator: Adobe Illustrator 26.4.1, SVG Export Plug-In . SVG Version: 6.00 Build 0)  -->
<svg version="1.1" id="Layer_1" xmlns="http://www.w3.org/2000/svg" xmlns:xlink="http://www.w3.org/1999/xlink" x="0px" y="0px"
	 viewBox="0 0 200 200" style="enable-background:new 0 0 200 200;" xml:space="preserve">
<style type="text/css">
	.st0{fill-rule:evenodd;clip-rule:evenodd;fill:#FBD52E;}
	.st1{fill-rule:evenodd;clip-rule:evenodd;fill:#4C519F;}
	.st2{fill:#8C8DFF;}
</style>
<path class="st0" d="M263.4-7.6"/>
<g>
	<g id="surface1">
		<g>
			<path d="M200,99.8c0,55.4-45,100.5-100.5,100.5S-0.9,155.2-0.9,99.8S44.1-0.7,99.5-0.7S200,44.4,200,99.8z"/>
		</g>
	</g>
	<g>
		<g id="surface8">
			<path class="st1" d="M133.3,50.9c15.6,16,30.8,32.2,45.9,48.9c-15,16.5-30.1,32.7-45.5,48.9c-0.4-8.6-0.5-17.3-0.4-25.9
				c-15.2,0.1-30.3,0-45.5-0.4c15.2-11.8,30.2-23.7,45.3-35.8C133.3,74.7,133.3,62.7,133.3,50.9z"/>
		</g>
		<path class="st2" d="M19.9,101C34.7,86,50,70.8,65.5,55.1c0,8.2,0,16.2,0,24.4c15.4,0,30.4,0,45.4,0c0.1,0.2,0.1,0.3,0.2,0.5
			c-2.1,1.6-4.2,3.2-6.3,4.8c-12.3,9.1-24.5,18.3-36.9,27.3c-1.6,1.2-2.3,2.4-2.3,4.4c0.1,9.3,0.1,18.7,0.1,28c0,0.8,0,1.6,0,2.7
			C50.1,131.6,34.8,116.3,19.9,101z"/>
	</g>
</g>
<g id="_x30_w19IT_00000032625753936434351030000007077415936826890929_">
</g>
</svg>
