<?xml version="1.0" encoding="utf-8"?>
<!-- Generator: Adobe Illustrator 26.4.1, SVG Export Plug-In . SVG Version: 6.00 Build 0)  -->
<svg version="1.1" id="Layer_1" xmlns="http://www.w3.org/2000/svg" xmlns:xlink="http://www.w3.org/1999/xlink" x="0px" y="0px"
	 viewBox="0 0 200 200" style="enable-background:new 0 0 200 200;" xml:space="preserve">
<style type="text/css">
	.st0{fill-rule:evenodd;clip-rule:evenodd;fill:#FBD52E;}
	.st1{clip-path:url(#SVGID_00000139982875086439386620000016878109120475517624_);}
	.st2{fill-rule:evenodd;clip-rule:evenodd;fill:#8C8DFF;}
	.st3{clip-path:url(#SVGID_00000099651308751608941540000008384058081784477590_);}
	.st4{fill-rule:evenodd;clip-rule:evenodd;fill:#4C519F;}
</style>
<g id="surface1">
	<g>
		<path d="M190.5,100c0,50-40.5,90.5-90.5,90.5C50,190.5,9.5,150,9.5,100C9.5,50,50,9.5,100,9.5C150,9.5,190.5,50,190.5,100z"/>
	</g>
</g>
<path class="st0" d="M263.4-7.6"/>
<g>
	<g>
		<defs>
			<rect id="SVGID_1_" x="20.3" y="22.2" width="161.3" height="161.3"/>
		</defs>
		<clipPath id="SVGID_00000170994446838693838380000014686243047805734799_">
			<use xlink:href="#SVGID_1_"  style="overflow:visible;"/>
		</clipPath>
		<g id="surface5" style="clip-path:url(#SVGID_00000170994446838693838380000014686243047805734799_);">
			<path class="st2" d="M66.9,53.8c0.8,8.1,1.1,16.3,0.8,24.6c14.4-0.1,28.8,0,43.2,0.4c-14.3,11.5-28.6,22.9-43,34.3
				c-0.1,11.2-0.3,22.3-0.6,33.5c-14.5-15.3-28.9-30.8-43.2-46.4C38.4,84.7,52.7,69.3,66.9,53.8z"/>
		</g>
	</g>
</g>
<g>
	<g>
		<defs>
			<rect id="SVGID_00000181782994250050798160000010615514939634500030_" x="20.3" y="22.2" width="161.3" height="161.3"/>
		</defs>
		<clipPath id="SVGID_00000011006582162394737170000006664902735373131195_">
			<use xlink:href="#SVGID_00000181782994250050798160000010615514939634500030_"  style="overflow:visible;"/>
		</clipPath>
		<g id="surface8" style="clip-path:url(#SVGID_00000011006582162394737170000006664902735373131195_);">
			<path class="st4" d="M133.9,53.8c14.8,15.2,29.3,30.6,43.6,46.4c-14.2,15.6-28.6,31-43.2,46.4c-0.4-8.2-0.5-16.4-0.4-24.6
				c-14.4,0.1-28.8,0-43.2-0.4c14.4-11.2,28.7-22.5,43-33.9C133.9,76.4,133.9,65.1,133.9,53.8z"/>
		</g>
	</g>
</g>
</svg>
