<?xml version="1.0" encoding="utf-8"?>
<!-- Generator: Adobe Illustrator 26.4.1, SVG Export Plug-In . SVG Version: 6.00 Build 0)  -->
<svg version="1.1" id="Layer_1" xmlns="http://www.w3.org/2000/svg" xmlns:xlink="http://www.w3.org/1999/xlink" x="0px" y="0px"
	 viewBox="0 0 200 200" style="enable-background:new 0 0 200 200;" xml:space="preserve">
<style type="text/css">
	.st0{fill-rule:evenodd;clip-rule:evenodd;fill:#FBD52E;}
	.st1{stroke:#F9F7F7;stroke-width:5;stroke-miterlimit:10;}
	.st2{fill-rule:evenodd;clip-rule:evenodd;fill:#4C519F;}
	.st3{fill:#8C8DFF;}
</style>
<path class="st0" d="M263.4-7.6"/>
<g>
	<g id="surface1">
		<g>
			<path class="st1" d="M197.2,99.8c0,53.7-43.5,97.2-97.2,97.2S2.8,153.5,2.8,99.8S46.3,2.6,100,2.6S197.2,46.1,197.2,99.8z"/>
		</g>
	</g>
	<g>
		<g id="surface8">
			<path class="st2" d="M133.6,51.1c15.5,15.9,30.7,32.1,45.7,48.7c-14.9,16.4-30,32.5-45.3,48.7c-0.4-8.6-0.5-17.2-0.4-25.8
				c-15.1,0.1-30.2,0-45.3-0.4c15.1-11.7,30.1-23.6,45.1-35.6C133.6,74.8,133.6,62.9,133.6,51.1z"/>
		</g>
		<path class="st3" d="M20.7,101c14.8-14.9,30-30.1,45.4-45.7c0,8.2,0,16.1,0,24.3c15.3,0,30.3,0,45.2,0c0.1,0.2,0.1,0.3,0.2,0.5
			c-2.1,1.6-4.2,3.2-6.3,4.8c-12.2,9.1-24.4,18.2-36.7,27.2c-1.6,1.2-2.3,2.4-2.3,4.4c0.1,9.3,0.1,18.6,0.1,27.9c0,0.8,0,1.6,0,2.7
			C50.8,131.5,35.6,116.2,20.7,101z"/>
	</g>
</g>
<g id="_x30_w19IT_00000032625753936434351030000007077415936826890929_">
	
		<image style="overflow:visible;" width="462" height="280" id="_x30_w19IT_00000124126973475699267300000012201982438177828509_" xlink:href="C743ACE4A91BF415.jpg"  transform="matrix(1 0 0 1 -131 -371.7574)">
	</image>
</g>
</svg>
