<?xml version="1.0" encoding="utf-8"?>
<!-- Generator: Adobe Illustrator 26.4.1, SVG Export Plug-In . SVG Version: 6.00 Build 0)  -->
<svg version="1.1" id="Layer_1" xmlns="http://www.w3.org/2000/svg" xmlns:xlink="http://www.w3.org/1999/xlink" x="0px" y="0px"
	 viewBox="0 0 200 200" style="enable-background:new 0 0 200 200;" xml:space="preserve">
<style type="text/css">
	.st0{fill-rule:evenodd;clip-rule:evenodd;fill:#7BC24F;}
	.st1{fill:#FFFFFF;}
</style>
<circle class="st0" cx="100" cy="100" r="100"/>
<g id="surface1">
	<path class="st1" d="M100,30c6.1,0,11.6,3.5,14.3,8.8l45.1,90.2c2.5,4.9,2.2,10.9-0.6,15.7c-3,4.7-8,7.5-13.6,7.5H55
		c-5.6,0-10.8-2.8-13.6-7.5c-3-4.7-3.2-10.6-0.6-15.7l45.1-90.2C88.4,33.4,94,30,100,30 M100,19c-10.3,0-19.7,5.8-24.2,15
		l-45.1,90.2c-4.2,8.4-3.8,18.4,1.1,26.3s13.6,12.9,23,12.9H145c9.4,0,18.2-4.8,23-12.9c4.8-8,5.4-17.9,1.1-26.3L124,33.9
		C119.7,24.8,110.3,19,100,19z"/>
</g>
</svg>
