<?xml version="1.0" encoding="UTF-8"?>
<svg xmlns="http://www.w3.org/2000/svg" xmlns:xlink="http://www.w3.org/1999/xlink" width="200px" height="200px" viewBox="0 0 200 200" version="1.1">
<g id="surface1">
<path style=" stroke:none;fill-rule:nonzero;fill:rgb(43.921569%,83.137255%,29.411765%);fill-opacity:1;" d="M 99.992188 15.285156 C 108.414062 15.261719 116.117188 20.019531 119.867188 27.5625 L 182.363281 152.550781 C 185.808594 159.441406 185.441406 167.621094 181.394531 174.175781 C 177.34375 180.726562 170.191406 184.71875 162.488281 184.714844 L 37.496094 184.714844 C 29.796875 184.710938 22.648438 180.722656 18.601562 174.167969 C 14.558594 167.617188 14.191406 159.4375 17.636719 152.550781 L 80.132812 27.5625 C 83.875 20.023438 91.574219 15.261719 99.992188 15.285156 M 99.992188 0.0078125 C 85.796875 0.0117188 72.820312 8.03125 66.46875 20.726562 L 3.972656 145.71875 C -1.84375 157.339844 -1.222656 171.144531 5.605469 182.203125 C 12.433594 193.257812 24.5 199.988281 37.496094 199.992188 L 162.488281 199.992188 C 175.488281 199.996094 187.558594 193.265625 194.390625 182.207031 C 201.222656 171.152344 201.84375 157.34375 196.027344 145.71875 L 133.53125 20.726562 C 127.179688 8.027344 114.195312 0.00390625 99.992188 0.0078125 Z M 99.992188 0.0078125 "/>
</g>
</svg>
