<?xml version="1.0" encoding="utf-8"?>
<!-- Generator: Adobe Illustrator 26.4.1, SVG Export Plug-In . SVG Version: 6.00 Build 0)  -->
<svg version="1.1" id="Layer_1" xmlns="http://www.w3.org/2000/svg" xmlns:xlink="http://www.w3.org/1999/xlink" x="0px" y="0px"
	 viewBox="0 0 200 200" style="enable-background:new 0 0 200 200;" xml:space="preserve">
<style type="text/css">
	.st0{fill-rule:evenodd;clip-rule:evenodd;fill:#191919;}
	.st1{fill:#7BC24F;}
</style>
<circle class="st0" cx="100" cy="100" r="96.1"/>
<g id="surface1">
	<path class="st1" d="M100,42c4.9,0,9.4,2.8,11.6,7.1l36.5,73c2,4,1.8,8.8-0.5,12.7c-2.4,3.8-6.5,6.1-11,6.1h-73
		c-4.5,0-8.7-2.3-11-6.1c-2.4-3.8-2.6-8.6-0.5-12.7l36.5-73C90.6,44.8,95.1,42,100,42 M100,33.1c-8.3,0-15.9,4.7-19.6,12.1l-36.5,73
		c-3.4,6.8-3.1,14.9,0.9,21.3c4,6.4,11,10.4,18.6,10.4h73c7.6,0,14.7-3.9,18.6-10.4s4.4-14.5,0.9-21.3l-36.5-73
		C115.9,37.8,108.3,33.1,100,33.1z"/>
</g>
</svg>
