<?xml version="1.0" encoding="utf-8"?>
<!-- Generator: Adobe Illustrator 26.4.1, SVG Export Plug-In . SVG Version: 6.00 Build 0)  -->
<svg version="1.1" id="Layer_1" xmlns="http://www.w3.org/2000/svg" xmlns:xlink="http://www.w3.org/1999/xlink" x="0px" y="0px"
	 viewBox="0 0 200 200" style="enable-background:new 0 0 200 200;" xml:space="preserve">
<style type="text/css">
	.st0{fill-rule:evenodd;clip-rule:evenodd;fill:#F0B90B;}
	.st1{fill:#FFFFFF;}
</style>
<g id="surface1">
	<path class="st0" d="M100,0.1c55.2,0,100,44.8,100,100s-44.8,99.9-100,99.9S0,155.1,0,99.9S44.8,0.1,100,0.1z"/>
	<path class="st1" d="M47.3,99.9l0.1,31l26.4,15.5v18.1l-41.6-24.5V91L47.3,99.9z M47.3,69v18L32,77.9v-18l15.3-9.1l15.4,9.1
		L47.3,69z M84.6,59.9l15.3-9.1l15.4,9.1L100,69L84.6,59.9z"/>
	<path class="st1" d="M58.4,124.6v-18.1l15.3,9.1v18L58.4,124.6z M84.6,152.9l15.3,9.1l15.4-9.1v18L99.9,180l-15.3-9.1V152.9z
		 M137.3,59.9l15.3-9.1l15.4,9.1v18L152.6,87V69L137.3,59.9z M152.6,130.9l0.1-31l15.3-9.1V140l-41.6,24.5v-18.1L152.6,130.9z"/>
	<path class="st1" d="M141.6,124.6l-15.3,9v-18l15.3-9.1V124.6z"/>
	<path class="st1" d="M141.6,75.4l0.1,18.1l-26.4,15.5v31.1l-15.3,9l-15.3-9v-31.1L58.4,93.6V75.4l15.4-9.1L100,81.9l26.4-15.5
		L141.6,75.4L141.6,75.4z M58.4,44.5L100,20l41.6,24.5l-15.3,9.1L100,38L73.6,53.6L58.4,44.5z"/>
</g>
</svg>
