<?xml version="1.0" encoding="utf-8"?>
<!-- Generator: Adobe Illustrator 26.4.1, SVG Export Plug-In . SVG Version: 6.00 Build 0)  -->
<svg version="1.1" id="Layer_1" xmlns="http://www.w3.org/2000/svg" xmlns:xlink="http://www.w3.org/1999/xlink" x="0px" y="0px"
	 viewBox="0 0 200 200" style="enable-background:new 0 0 200 200;" xml:space="preserve">
<style type="text/css">
	.st0{fill-rule:evenodd;clip-rule:evenodd;fill:#F0B90B;}
	.st1{fill:#FFFFFF;}
</style>
<g id="surface1">
	<path class="st0" d="M100,0.2c55.2,0,100,44.8,100,100s-44.8,99.9-100,99.9S0,155.2,0,100S44.8,0.2,100,0.2z"/>
</g>
<g>
	<path class="st1" d="M68.8,113.1c-0.3,0.3-0.6,0.5-0.9,0.8c-5.4,5.4-10.8,10.8-16.2,16.1c-0.9,0.9-0.7,1.3,0.1,2.1
		c15.7,15.6,31.3,31.3,46.9,46.9c0.9,0.9,1.3,1,2.2,0c15.6-15.7,31.2-31.3,46.9-46.9c0.8-0.8,1-1.3,0-2.2
		c-5.3-5.2-10.6-10.5-15.8-15.8c-1-1-1.5-1-2.4,0c-9.5,9.5-19,19-28.5,28.6c-1.1,1.1-1.6,1-2.7-0.1c-9.5-9.5-19-19-28.5-28.5
		C69.6,113.8,69.2,113.4,68.8,113.1z M100.1,20.4c-0.5,0.5-0.9,0.7-1.2,1C83.2,37.1,67.4,52.8,51.7,68.5c-0.9,0.9-0.6,1.3,0.1,2
		c5.4,5.3,10.7,10.7,16,16c0.9,0.9,1.3,0.7,2.1-0.1c6.1-6.1,12.2-12.2,18.3-18.3c3.5-3.5,7.1-7,10.6-10.6c0.9-0.9,1.5-0.9,2.2,0.1
		c0.2,0.3,0.5,0.5,0.7,0.7c9.4,9.4,18.7,18.7,28.1,28.1c0.5,0.5,0.9,1.4,1.9,0.4c5.5-5.5,11-11,16.5-16.5c0.7-0.7,0.5-1-0.1-1.6
		c-0.9-0.9-1.8-1.8-2.7-2.7c-14.7-14.7-29.5-29.5-44.2-44.2C100.8,21.3,100.5,20.9,100.1,20.4z M99.8,118.4c0.3-0.3,0.6-0.5,0.9-0.8
		c5.5-5.5,11.1-11.1,16.6-16.6c0.7-0.7,0.6-1.1-0.1-1.7c-5.6-5.5-11.1-11.1-16.6-16.6c-0.7-0.7-1.1-0.6-1.7,0
		c-5.5,5.5-11,11-16.5,16.5c-0.7,0.7-0.8,1.1-0.1,1.8c5.5,5.5,11,11,16.5,16.5C99.2,117.9,99.5,118.1,99.8,118.4z M161.6,82.3
		c-0.3,0.2-0.6,0.4-0.8,0.6c-5.5,5.5-11,11-16.5,16.5c-0.6,0.6-0.6,1,0,1.6c5.5,5.5,11,11,16.5,16.5c0.6,0.6,1,0.6,1.6,0
		c5.4-5.5,10.9-10.9,16.4-16.4c0.6-0.6,0.8-1,0-1.7c-5.5-5.4-10.9-10.9-16.4-16.4C162.2,82.8,161.9,82.6,161.6,82.3z"/>
	<path class="st1" d="M20.7,99.5c5.4-5.3,10.7-10.6,16-16c1.1-1.1,1.7-1,2.7,0.1c5.2,5.3,10.4,10.5,15.7,15.7c0.8,0.8,0.9,1.2,0,2.1
		c-5.4,5.3-10.7,10.6-16,16c-0.8,0.8-1.3,0.8-2.1,0c-4.9-5-10-10-14.9-15c-0.4-0.4-0.7-1-1.4-1.2C20.7,100.6,20.7,100,20.7,99.5z"/>
	<path class="st1" d="M68.8,113.1c0.4,0.4,0.8,0.7,1.1,1.1c9.5,9.5,19,19,28.5,28.5c1,1,1.6,1.2,2.7,0.1c9.5-9.6,19-19,28.5-28.6
		c1-1,1.5-1,2.4,0c5.2,5.3,10.5,10.6,15.8,15.8c0.9,0.9,0.8,1.3,0,2.2c-15.7,15.6-31.3,31.2-46.9,46.9c-0.9,0.9-1.3,0.8-2.2,0
		c-15.6-15.7-31.3-31.3-46.9-46.9c-0.8-0.8-0.9-1.2-0.1-2.1c5.4-5.3,10.8-10.7,16.2-16.1C68.2,113.6,68.5,113.4,68.8,113.1z"/>
	<path class="st1" d="M100.1,20.4c0.4,0.5,0.7,1,1.1,1.4c14.7,14.7,29.5,29.5,44.2,44.2c0.9,0.9,1.8,1.8,2.7,2.7
		c0.6,0.6,0.7,0.9,0.1,1.6c-5.5,5.5-11,11-16.5,16.5c-1,1-1.4,0.1-1.9-0.4c-9.4-9.3-18.7-18.7-28.1-28.1c-0.2-0.2-0.5-0.4-0.7-0.7
		c-0.7-1-1.3-1-2.2-0.1c-3.5,3.6-7,7.1-10.6,10.6c-6.1,6.1-12.2,12.2-18.3,18.3c-0.8,0.8-1.2,0.9-2.1,0.1c-5.3-5.4-10.7-10.7-16-16
		c-0.7-0.7-1-1.1-0.1-2c15.7-15.7,31.5-31.4,47.2-47.1C99.2,21.1,99.5,20.8,100.1,20.4z"/>
	<path class="st1" d="M99.8,118.4c-0.4-0.3-0.7-0.6-0.9-0.8c-5.5-5.5-11-11-16.5-16.5c-0.8-0.8-0.6-1.2,0.1-1.8
		c5.5-5.5,11-11,16.5-16.5c0.6-0.6,1-0.7,1.7,0c5.5,5.6,11.1,11.1,16.6,16.6c0.6,0.6,0.8,1,0.1,1.7c-5.6,5.5-11.1,11.1-16.6,16.6
		C100.4,117.9,100.1,118.2,99.8,118.4z"/>
	<path class="st1" d="M161.6,82.3c0.3,0.3,0.6,0.5,0.8,0.7c5.5,5.5,10.9,10.9,16.4,16.4c0.7,0.7,0.6,1.1,0,1.7
		c-5.5,5.4-10.9,10.9-16.4,16.4c-0.6,0.6-0.9,0.7-1.6,0c-5.5-5.5-11-11-16.5-16.5c-0.6-0.6-0.6-1,0-1.6c5.5-5.5,11-11,16.5-16.5
		C161.1,82.7,161.4,82.5,161.6,82.3z"/>
</g>
</svg>
