<?xml version="1.0" encoding="utf-8"?>
<!-- Generator: Adobe Illustrator 26.4.1, SVG Export Plug-In . SVG Version: 6.00 Build 0)  -->
<svg version="1.1" id="Layer_1" xmlns="http://www.w3.org/2000/svg" xmlns:xlink="http://www.w3.org/1999/xlink" x="0px" y="0px"
	 viewBox="0 0 200 200" style="enable-background:new 0 0 200 200;" xml:space="preserve">
<style type="text/css">
	.st0{fill-rule:evenodd;clip-rule:evenodd;fill:#F0B90B;}
	.st1{fill:#FFFFFF;}
</style>
<g id="surface1">
	<path class="st0" d="M100,5.7c52,0,94.2,42.2,94.2,94.2S152,194,100,194S5.8,151.8,5.8,99.8S48,5.7,100,5.7z"/>
	<path class="st1" d="M57.6,99.8l0.1,24.9l21.2,12.5v14.6l-33.5-19.7V92.6L57.6,99.8z M57.6,74.9v14.5l-12.3-7.3V67.6l12.3-7.3
		L70,67.6L57.6,74.9z M87.6,67.6l12.3-7.3l12.4,7.3L100,74.9L87.6,67.6z"/>
	<path class="st1" d="M66.5,119.6V105l12.3,7.3v14.5L66.5,119.6z M87.6,142.4l12.3,7.3l12.4-7.3v14.5l-12.4,7.3l-12.3-7.3V142.4z
		 M130,67.6l12.3-7.3l12.4,7.3v14.5l-12.4,7.3V74.9L130,67.6z M142.3,124.7l0.1-24.9l12.3-7.3v39.5l-33.5,19.7v-14.6L142.3,124.7z"
		/>
	<path class="st1" d="M133.5,119.6l-12.3,7.2v-14.5l12.3-7.3V119.6z"/>
	<path class="st1" d="M133.5,80.1l0.1,14.6l-21.2,12.5v25l-12.3,7.2l-12.3-7.2v-25L66.5,94.7V80.1l12.4-7.3L100,85.3l21.2-12.5
		L133.5,80.1L133.5,80.1z M66.5,55.2L100,35.5l33.5,19.7l-12.3,7.3L100,50L78.8,62.5L66.5,55.2z"/>
</g>
</svg>
