<?xml version="1.0" encoding="UTF-8"?>
<svg xmlns="http://www.w3.org/2000/svg" xmlns:xlink="http://www.w3.org/1999/xlink" width="200px" height="200px" viewBox="0 0 200 200" version="1.1">
<g id="surface1">
<path style=" stroke:none;fill-rule:evenodd;fill:rgb(94.117647%,72.54902%,4.313725%);fill-opacity:1;" d="M 100 0 C 155.230469 0 200 44.769531 200 100 C 200 155.230469 155.230469 200 100 200 C 44.769531 200 0 155.230469 0 100 C 0 44.769531 44.769531 0 100 0 Z M 100 0 "/>
<path style=" stroke:none;fill-rule:nonzero;fill:rgb(100%,100%,100%);fill-opacity:1;" d="M 54.960938 100 L 55.03125 126.441406 L 77.5 139.664062 L 77.5 155.144531 L 41.882812 134.253906 L 41.882812 92.269531 Z M 54.960938 73.558594 L 54.960938 88.964844 L 41.875 81.226562 L 41.875 65.816406 L 54.960938 58.078125 L 68.109375 65.816406 Z M 86.882812 65.816406 L 99.96875 58.078125 L 113.117188 65.816406 L 99.96875 73.558594 Z M 86.882812 65.816406 "/>
<path style=" stroke:none;fill-rule:nonzero;fill:rgb(100%,100%,100%);fill-opacity:1;" d="M 64.414062 120.960938 L 64.414062 105.480469 L 77.5 113.222656 L 77.5 128.628906 Z M 86.882812 145.207031 L 99.96875 152.949219 L 113.117188 145.207031 L 113.117188 160.617188 L 99.96875 168.355469 L 86.882812 160.617188 Z M 131.882812 65.816406 L 144.96875 58.078125 L 158.117188 65.816406 L 158.117188 81.226562 L 144.96875 88.964844 L 144.96875 73.558594 Z M 144.96875 126.441406 L 145.039062 100 L 158.125 92.257812 L 158.125 134.246094 L 122.507812 155.136719 L 122.507812 139.65625 Z M 144.96875 126.441406 "/>
<path style=" stroke:none;fill-rule:nonzero;fill:rgb(100%,100%,100%);fill-opacity:1;" d="M 135.585938 120.960938 L 122.5 128.628906 L 122.5 113.222656 L 135.585938 105.480469 Z M 135.585938 120.960938 "/>
<path style=" stroke:none;fill-rule:nonzero;fill:rgb(100%,100%,100%);fill-opacity:1;" d="M 135.585938 79.039062 L 135.65625 94.519531 L 113.125 107.742188 L 113.125 134.246094 L 100.039062 141.914062 L 86.953125 134.246094 L 86.953125 107.742188 L 64.421875 94.519531 L 64.421875 79.039062 L 77.5625 71.296875 L 99.960938 84.582031 L 122.492188 71.296875 L 135.640625 79.039062 Z M 64.414062 52.605469 L 99.96875 31.644531 L 135.585938 52.605469 L 122.5 60.34375 L 99.96875 47.058594 L 77.5 60.34375 Z M 64.414062 52.605469 "/>
</g>
</svg>
