<?xml version="1.0" encoding="utf-8"?>
<!-- Generator: Adobe Illustrator 26.4.1, SVG Export Plug-In . SVG Version: 6.00 Build 0)  -->
<svg version="1.1" id="Layer_1" xmlns="http://www.w3.org/2000/svg" xmlns:xlink="http://www.w3.org/1999/xlink" x="0px" y="0px"
	 viewBox="0 0 200 200" style="enable-background:new 0 0 200 200;" xml:space="preserve">
<style type="text/css">
	.st0{fill:url(#SVGID_1_);}
	.st1{fill-rule:evenodd;clip-rule:evenodd;fill:#FBD52E;}
	.st2{fill:#FFFFFF;}
</style>
<g id="surface1">
	<linearGradient id="SVGID_1_" gradientUnits="userSpaceOnUse" x1="5.158" y1="100" x2="194.842" y2="100">
		<stop  offset="0" style="stop-color:#00AEE9"/>
		<stop  offset="1" style="stop-color:#69FABD"/>
	</linearGradient>
	<path class="st0" d="M194.8,100c0,52.4-42.5,94.8-94.8,94.8S5.2,152.4,5.2,100S47.6,5.2,100,5.2S194.8,47.6,194.8,100z"/>
</g>
<path class="st1" d="M263.4-7.6"/>
<g id="surface1_00000067212563466332045910000014758932028060188305_">
	<path class="st2" d="M134.8,38.9c-14.6,0-26.4,11.8-26.4,26.4v29.2c-2.7,0.2-5.5,0.3-8.4,0.3s-5.7,0.1-8.4,0.3V65.3
		c-0.2-14.4-12-26-26.4-26c-14.4,0-26.2,11.6-26.4,26v69.8c0.2,14.4,12,26,26.4,26c14.4,0,26.2-11.6,26.4-26v-29.2
		c2.7-0.2,5.5-0.3,8.4-0.3s5.7-0.1,8.4-0.3v29.8c0.2,14.4,12,26,26.4,26c14.4,0,26.2-11.6,26.4-26V65.3
		C161.2,50.7,149.4,38.9,134.8,38.9z M65.2,49.7c8.6,0,15.6,7,15.6,15.6v30.9c-7.7,1.1-15.3,3.3-22.5,6.3c-3.1,1.4-6,3.1-8.7,5.2
		V65.3C49.6,56.7,56.6,49.7,65.2,49.7z M80.8,135.1c0,8.6-7,15.6-15.6,15.6s-15.6-7-15.6-15.6v-7c0-6.2,4.9-12,13.1-15.7
		c5.8-2.5,11.9-4.3,18.1-5.3V135.1z M134.8,150.6c-8.6,0-15.6-7-15.6-15.6v-30.9c7.7-1.1,15.3-3.3,22.5-6.4c3.1-1.4,6-3.1,8.7-5.2
		v42.5C150.4,143.7,143.4,150.6,134.8,150.6z M137.3,87.9c-5.8,2.5-11.9,4.3-18.1,5.3V65.3c0-8.6,7-15.6,15.6-15.6s15.6,7,15.6,15.6
		v7C150.4,78.4,145.5,84.3,137.3,87.9z"/>
</g>
</svg>
