<?xml version="1.0" encoding="UTF-8"?>
<svg xmlns="http://www.w3.org/2000/svg" xmlns:xlink="http://www.w3.org/1999/xlink" width="200px" height="200px" viewBox="0 0 200 200" version="1.1">
<defs>
<linearGradient id="linear0" gradientUnits="userSpaceOnUse" x1="202.93" y1="544.7" x2="203.8" y2="545.57" gradientTransform="matrix(200,0,0,-199.455556,-40573.333333,108828.305556)">
<stop offset="0" style="stop-color:rgb(0%,68.235294%,91.372549%);stop-opacity:1;"/>
<stop offset="1" style="stop-color:rgb(41.176471%,98.039216%,74.117647%);stop-opacity:1;"/>
</linearGradient>
</defs>
<g id="surface1">
<path style=" stroke:none;fill-rule:nonzero;fill:url(#linear0);" d="M 156.855469 0.273438 C 133.070312 0.253906 113.761719 19.496094 113.699219 43.285156 L 113.699219 90.972656 C 109.253906 91.273438 104.710938 91.460938 100 91.460938 C 95.289062 91.460938 90.765625 91.648438 86.300781 91.917969 L 86.300781 43.285156 C 85.921875 19.722656 66.714844 0.820312 43.148438 0.820312 C 19.585938 0.820312 0.378906 19.722656 0 43.285156 L 0 157.261719 C 0.378906 180.820312 19.585938 199.722656 43.148438 199.722656 C 66.714844 199.722656 85.921875 180.820312 86.300781 157.261719 L 86.300781 109.570312 C 90.746094 109.273438 95.289062 109.082031 100 109.082031 C 104.710938 109.082031 109.234375 108.894531 113.699219 108.628906 L 113.699219 157.261719 C 114.078125 180.820312 133.285156 199.722656 156.851562 199.722656 C 180.414062 199.722656 199.621094 180.820312 200 157.261719 L 200 43.285156 C 199.9375 19.503906 180.636719 0.261719 156.855469 0.273438 Z M 43.144531 17.894531 C 57.179688 17.886719 68.574219 29.246094 68.609375 43.285156 L 68.609375 93.785156 C 55.988281 95.613281 43.65625 99.097656 31.945312 104.148438 C 26.871094 106.378906 22.089844 109.230469 17.722656 112.640625 L 17.722656 43.285156 C 17.757812 29.261719 29.125 17.914062 43.144531 17.894531 Z M 68.609375 157.261719 C 68.609375 171.324219 57.210938 182.726562 43.144531 182.726562 C 29.078125 182.726562 17.679688 171.324219 17.679688 157.261719 L 17.679688 145.828125 C 17.679688 135.726562 25.679688 126.160156 39.089844 120.207031 C 48.539062 116.128906 58.453125 113.230469 68.609375 111.570312 Z M 156.855469 182.648438 C 142.820312 182.65625 131.425781 171.296875 131.390625 157.261719 L 131.390625 106.761719 C 144.011719 104.933594 156.34375 101.445312 168.054688 96.394531 C 173.128906 94.167969 177.910156 91.316406 182.277344 87.90625 L 182.277344 157.261719 C 182.242188 171.28125 170.875 182.632812 156.855469 182.648438 Z M 160.910156 80.273438 C 151.460938 84.347656 141.546875 87.25 131.390625 88.90625 L 131.390625 43.285156 C 131.390625 29.21875 142.789062 17.816406 156.855469 17.816406 C 170.921875 17.816406 182.320312 29.21875 182.320312 43.285156 L 182.320312 54.714844 C 182.320312 64.773438 174.320312 74.339844 160.910156 80.273438 Z M 160.910156 80.273438 "/>
</g>
</svg>
