<?xml version="1.0" encoding="UTF-8"?>
<svg id="Layer_1" data-name="Layer 1" xmlns="http://www.w3.org/2000/svg" version="1.1" viewBox="0 0 500 500">
  <defs>
    <style>
      .cls-1 {
        fill: none;
      }

      .cls-1, .cls-2, .cls-3 {
        stroke-width: 0px;
      }

      .cls-2 {
        fill: #313a59;
      }

      .cls-3 {
        fill: #c14646;
      }
    </style>
  </defs>
  <path class="cls-1" d="M239.4,201.2"/>
  <path class="cls-2" d="M278.1,276.9c30.7-31.2,30.6-81.4-.4-112.4-31.2-31.2-81.7-31.2-112.9,0l58.2,58.2c-30.7,31.2-30.6,81.4.4,112.4,31.2,31.2,81.7,31.2,112.9,0l-58.2-58.2Z"/>
  <g>
    <path class="cls-3" d="M108.3,49.5c-3.2.8,142.6-84.8,246.4,48.7,99.4,128-18.4,236.6-18.4,236.6l81.8,87.2s91.4-85.8,69.1-215.7c-10-58.2-42.5-110-89.3-146.2-60-46.4-163.2-92.4-289.5-10.6Z"/>
    <path class="cls-3" d="M391.7,450.2c3.2-.8-142.6,84.8-246.4-48.7-99.4-128,18.4-236.6,18.4-236.6l-81.8-87.2S-9.5,163.6,12.9,293.4c10,58.2,40.1,110.9,86.8,147.1,60,46.4,165.7,91.5,292,9.7Z"/>
  </g>
</svg>