<svg xmlns="http://www.w3.org/2000/svg" xmlns:xlink="http://www.w3.org/1999/xlink" version="1.1" width="256" height="256" viewBox="0 0 256 256" xml:space="preserve">

<defs>
</defs>
<g style="stroke: none; stroke-width: 0; stroke-dasharray: none; stroke-linecap: butt; stroke-linejoin: miter; stroke-miterlimit: 10; fill: none; fill-rule: nonzero; opacity: 1;" transform="translate(1.4065934065934016 1.4065934065934016) scale(2.81 2.81)" >
	<circle cx="45" cy="45" r="45" style="stroke: none; stroke-width: 1; stroke-dasharray: none; stroke-linecap: butt; stroke-linejoin: miter; stroke-miterlimit: 10; fill: rgb(32,196,203); fill-rule: nonzero; opacity: 1;" transform="  matrix(1 0 0 1 0 0) "/>
	<path d="M 58.106 54.446 c -3.518 0 -6.396 -2.878 -6.396 -6.396 c 0 -3.518 2.878 -6.396 6.396 -6.396 H 70.4 V 31.641 c 0 -2.086 -1.691 -3.778 -3.778 -3.778 H 17.278 c -2.086 0 -3.778 1.691 -3.778 3.778 v 32.818 c 0 2.086 1.691 3.778 3.778 3.778 h 49.345 c 2.086 0 3.778 -1.691 3.778 -3.778 V 54.446 H 58.106 z" style="stroke: none; stroke-width: 1; stroke-dasharray: none; stroke-linecap: butt; stroke-linejoin: miter; stroke-miterlimit: 10; fill: rgb(27,167,173); fill-rule: nonzero; opacity: 1;" transform=" matrix(1 0 0 1 0 0) " stroke-linecap="round" />
	<path d="M 58.949 44.95 c -1.705 0 -3.1 1.395 -3.1 3.1 c 0 1.705 1.395 3.1 3.1 3.1 H 70.4 V 44.95 H 58.949 z M 58.746 49.307 c -0.649 0 -1.175 -0.526 -1.175 -1.175 s 0.526 -1.175 1.175 -1.175 s 1.175 0.526 1.175 1.175 S 59.394 49.307 58.746 49.307 z" style="stroke: none; stroke-width: 1; stroke-dasharray: none; stroke-linecap: butt; stroke-linejoin: miter; stroke-miterlimit: 10; fill: rgb(27,167,173); fill-rule: nonzero; opacity: 1;" transform=" matrix(1 0 0 1 0 0) " stroke-linecap="round" />
	<path d="M 61.207 51.346 c -3.518 0 -6.396 -2.878 -6.396 -6.396 c 0 -3.518 2.878 -6.396 6.396 -6.396 H 73.5 V 28.541 c 0 -2.086 -1.691 -3.778 -3.778 -3.778 H 20.378 c -2.086 0 -3.778 1.691 -3.778 3.778 v 32.818 c 0 2.086 1.691 3.778 3.778 3.778 h 49.345 c 2.086 0 3.778 -1.691 3.778 -3.778 V 51.346 H 61.207 z" style="stroke: none; stroke-width: 1; stroke-dasharray: none; stroke-linecap: butt; stroke-linejoin: miter; stroke-miterlimit: 10; fill: rgb(255,255,255); fill-rule: nonzero; opacity: 1;" transform=" matrix(1 0 0 1 0 0) " stroke-linecap="round" />
	<path d="M 62.05 41.85 c -1.705 0 -3.1 1.395 -3.1 3.1 c 0 1.705 1.395 3.1 3.1 3.1 H 73.5 V 41.85 H 62.05 z M 61.846 46.207 c -0.649 0 -1.175 -0.526 -1.175 -1.175 s 0.526 -1.175 1.175 -1.175 s 1.175 0.526 1.175 1.175 S 62.495 46.207 61.846 46.207 z" style="stroke: none; stroke-width: 1; stroke-dasharray: none; stroke-linecap: butt; stroke-linejoin: miter; stroke-miterlimit: 10; fill: rgb(255,255,255); fill-rule: nonzero; opacity: 1;" transform=" matrix(1 0 0 1 0 0) " stroke-linecap="round" />
</g>
</svg>