<?xml version="1.0" encoding="UTF-8"?>
<svg xmlns="http://www.w3.org/2000/svg" xmlns:xlink="http://www.w3.org/1999/xlink" width="200px" height="200px" viewBox="0 0 200 200" version="1.1">
<defs>
<linearGradient id="linear0" gradientUnits="userSpaceOnUse" x1="16" y1="0" x2="16" y2="32" gradientTransform="matrix(6.25,0,0,6.25,0,0)">
<stop offset="0" style="stop-color:rgb(100%,34.901961%,66.27451%);stop-opacity:1;"/>
<stop offset="1" style="stop-color:rgb(91.372549%,6.666667%,47.45098%);stop-opacity:1;"/>
</linearGradient>
</defs>
<g id="surface1">
<path style=" stroke:none;fill-rule:nonzero;fill:url(#linear0);" d="M 200 100 C 200 155.226562 155.226562 200 100 200 C 44.773438 200 0 155.226562 0 100 C 0 44.773438 44.773438 0 100 0 C 155.226562 0 200 44.773438 200 100 Z M 200 100 "/>
<path style="fill:none;stroke-width:0.5;stroke-linecap:butt;stroke-linejoin:miter;stroke:rgb(100%,100%,100%);stroke-opacity:1;stroke-miterlimit:4;" d="M 31.75 16 C 31.75 24.69875 24.69875 31.75 16 31.75 C 7.30125 31.75 0.25 24.69875 0.25 16 C 0.25 7.30125 7.30125 0.25 16 0.25 C 24.69875 0.25 31.75 7.30125 31.75 16 Z M 31.75 16 " transform="matrix(6.25,0,0,6.25,0,0)"/>
<path style=" stroke:none;fill-rule:nonzero;fill:rgb(100%,100%,100%);fill-opacity:1;" d="M 102.375 156.25 C 89.511719 156.25 78.96875 153.242188 70.746094 147.230469 C 63.195312 141.710938 58.382812 134.015625 56.3125 124.148438 C 55.996094 122.640625 56.890625 121.171875 58.277344 120.785156 L 76.074219 115.816406 C 77.609375 115.390625 79.152344 116.445312 79.578125 118.09375 C 80.507812 121.671875 81.808594 124.585938 83.476562 126.835938 C 85.730469 129.699219 88.449219 131.773438 91.632812 133.0625 C 94.949219 134.207031 98.527344 134.78125 102.375 134.78125 C 108.210938 134.78125 112.519531 133.707031 115.304688 131.558594 C 118.089844 129.269531 119.480469 126.480469 119.480469 123.1875 C 119.480469 119.894531 118.15625 117.390625 115.503906 115.671875 C 112.851562 113.8125 108.609375 112.308594 102.773438 111.164062 L 97.203125 110.089844 C 90.308594 108.660156 84.007812 106.726562 78.304688 104.292969 C 72.601562 101.71875 68.027344 98.210938 64.578125 93.773438 C 61.132812 89.335938 59.40625 83.613281 59.40625 76.597656 C 59.40625 66.007812 62.988281 57.921875 70.148438 52.335938 C 77.3125 46.613281 86.726562 43.75 98.394531 43.75 C 109.402344 43.75 118.554688 46.398438 125.847656 51.695312 C 132.339844 56.40625 136.835938 62.425781 139.335938 69.746094 C 139.855469 71.265625 139.023438 72.898438 137.585938 73.375 L 119.789062 79.289062 C 118.234375 79.804688 116.628906 78.757812 116.101562 77.097656 C 114.890625 73.289062 112.964844 70.472656 110.332031 68.65625 C 107.148438 66.363281 103.171875 65.21875 98.394531 65.21875 C 93.621094 65.21875 89.976562 66.148438 87.457031 68.011719 C 84.9375 69.726562 83.675781 72.160156 83.675781 75.308594 C 83.675781 78.746094 85 81.320312 87.65625 83.039062 C 90.308594 84.613281 93.886719 85.832031 98.394531 86.6875 L 103.964844 87.761719 C 111.390625 89.191406 118.089844 91.125 124.058594 93.558594 C 130.15625 95.847656 134.929688 99.214844 138.378906 103.648438 C 141.960938 107.941406 143.75 113.8125 143.75 121.253906 C 143.75 132.417969 139.96875 141.078125 132.410156 147.230469 C 124.984375 153.242188 114.972656 156.25 102.375 156.25 Z M 102.375 156.25 "/>
</g>
</svg>
