<?xml version="1.0" encoding="utf-8"?>
<!-- Generator: Adobe Illustrator 26.4.1, SVG Export Plug-In . SVG Version: 6.00 Build 0)  -->
<svg version="1.1" id="Layer_1" xmlns="http://www.w3.org/2000/svg" xmlns:xlink="http://www.w3.org/1999/xlink" x="0px" y="0px"
	 viewBox="0 0 200 200" style="enable-background:new 0 0 200 200;" xml:space="preserve">
<style type="text/css">
	.st0{fill:url(#SVGID_1_);}
	.st1{fill-rule:evenodd;clip-rule:evenodd;fill:#FBD52E;}
	.st2{fill:none;stroke:#FFFFFF;stroke-width:3.125;stroke-miterlimit:25;}
	.st3{fill:#FFFFFF;}
</style>
<g id="surface1">
	
		<linearGradient id="SVGID_1_" gradientUnits="userSpaceOnUse" x1="7.064" y1="100" x2="192.936" y2="100" gradientTransform="matrix(0.7071 0.7071 -0.7071 0.7071 100 -41.4214)">
		<stop  offset="0" style="stop-color:#FF59A9"/>
		<stop  offset="1" style="stop-color:#E91179"/>
	</linearGradient>
	<path class="st0" d="M34.3,165.7c36.3,36.3,95.1,36.3,131.4,0c36.3-36.3,36.3-95.1,0-131.4C129.4-2,70.6-2,34.3,34.3
		C-2,70.6-2,129.4,34.3,165.7z"/>
</g>
<path class="st1" d="M263.4-7.6"/>
<g id="surface1_00000081644540385229597530000018436379931887614902_">
	<path class="st2" d="M192.9,100c0,51.3-41.6,92.9-92.9,92.9S7.1,151.3,7.1,100S48.7,7.1,100,7.1S192.9,48.7,192.9,100z"/>
	<path class="st3" d="M102.4,156.2c-12.9,0-23.4-3-31.6-9c-7.6-5.5-12.4-13.2-14.4-23.1c-0.3-1.5,0.6-3,2-3.4l17.8-5
		c1.5-0.4,3.1,0.6,3.5,2.3c0.9,3.6,2.2,6.5,3.9,8.7c2.3,2.9,5,4.9,8.2,6.2c3.3,1.1,6.9,1.7,10.7,1.7c5.8,0,10.1-1.1,12.9-3.2
		c2.8-2.3,4.2-5.1,4.2-8.4s-1.3-5.8-4-7.5c-2.7-1.9-6.9-3.4-12.7-4.5l-5.6-1.1c-6.9-1.4-13.2-3.4-18.9-5.8
		c-5.7-2.6-10.3-6.1-13.7-10.5c-3.4-4.4-5.2-10.2-5.2-17.2c0-10.6,3.6-18.7,10.7-24.3c7.2-5.7,16.6-8.6,28.2-8.6
		c11,0,20.2,2.6,27.5,7.9c6.5,4.7,11,10.7,13.5,18.1c0.5,1.5-0.3,3.2-1.8,3.6l-17.8,5.9c-1.6,0.5-3.2-0.5-3.7-2.2
		c-1.2-3.8-3.1-6.6-5.8-8.4c-3.2-2.3-7.2-3.4-11.9-3.4c-4.8,0-8.4,0.9-10.9,2.8c-2.5,1.7-3.8,4.1-3.8,7.3c0,3.4,1.3,6,4,7.7
		c2.7,1.6,6.2,2.8,10.7,3.6l5.6,1.1c7.4,1.4,14.1,3.4,20.1,5.8c6.1,2.3,10.9,5.7,14.3,10.1c3.6,4.3,5.4,10.2,5.4,17.6
		c0,11.2-3.8,19.8-11.3,26C125,153.2,115,156.2,102.4,156.2z"/>
</g>
</svg>
