<?xml version="1.0" encoding="utf-8"?>
<!-- Generator: Adobe Illustrator 26.4.1, SVG Export Plug-In . SVG Version: 6.00 Build 0)  -->
<svg version="1.1" id="Layer_1" xmlns="http://www.w3.org/2000/svg" xmlns:xlink="http://www.w3.org/1999/xlink" x="0px" y="0px"
	 viewBox="0 0 200 200" style="enable-background:new 0 0 200 200;" xml:space="preserve">
<style type="text/css">
	.st0{fill:url(#SVGID_1_);}
	.st1{fill-rule:evenodd;clip-rule:evenodd;fill:#FBD52E;}
	.st2{fill:#FFFFFF;}
</style>
<g id="surface1">
	
		<linearGradient id="SVGID_1_" gradientUnits="userSpaceOnUse" x1="169.2969" y1="333.2069" x2="369.2748" y2="333.2069" gradientTransform="matrix(0.7071 0.7071 0.7071 -0.7071 -326.0226 145.1986)">
		<stop  offset="0" style="stop-color:#FF59A9"/>
		<stop  offset="1" style="stop-color:#E91179"/>
	</linearGradient>
	<path class="st0" d="M29.3,170.7c39.1,39.1,102.3,39.1,141.4,0s39.1-102.3,0-141.4S68.4-9.8,29.3,29.3S-9.8,131.6,29.3,170.7z"/>
</g>
<path class="st1" d="M263.4-7.6"/>
<g id="surface1_00000081644540385229597530000018436379931887614902_">
	<path class="st2" d="M102.6,160.5c-13.9,0-25.2-3.2-34-9.7c-8.2-5.9-13.3-14.2-15.5-24.9c-0.3-1.6,0.6-3.2,2.2-3.7l19.2-5.4
		c1.6-0.4,3.3,0.6,3.8,2.5c1,3.9,2.4,7,4.2,9.4c2.5,3.1,5.4,5.3,8.8,6.7c3.6,1.2,7.4,1.8,11.5,1.8c6.2,0,10.9-1.2,13.9-3.4
		c3-2.5,4.5-5.5,4.5-9c0-3.6-1.4-6.2-4.3-8.1c-2.9-2-7.4-3.7-13.7-4.8l-6-1.2c-7.4-1.5-14.2-3.7-20.3-6.2
		c-6.1-2.8-11.1-6.6-14.7-11.3c-3.7-4.7-5.6-11-5.6-18.5c0-11.4,3.9-20.1,11.5-26.2c7.7-6.1,17.9-9.3,30.3-9.3
		c11.8,0,21.7,2.8,29.6,8.5c7,5.1,11.8,11.5,14.5,19.5c0.5,1.6-0.3,3.4-1.9,3.9l-19.2,6.3c-1.7,0.5-3.4-0.5-4-2.4
		c-1.3-4.1-3.3-7.1-6.2-9c-3.4-2.5-7.7-3.7-12.8-3.7c-5.2,0-9,1-11.7,3c-2.7,1.8-4.1,4.4-4.1,7.9c0,3.7,1.4,6.5,4.3,8.3
		c2.9,1.7,6.7,3,11.5,3.9l6,1.2c8,1.5,15.2,3.7,21.6,6.2c6.6,2.5,11.7,6.1,15.4,10.9c3.9,4.6,5.8,11,5.8,18.9
		c0,12.1-4.1,21.3-12.2,28C126.9,157.3,116.1,160.5,102.6,160.5z"/>
</g>
</svg>
