<?xml version="1.0" encoding="utf-8"?>
<!-- Generator: Adobe Illustrator 26.4.1, SVG Export Plug-In . SVG Version: 6.00 Build 0)  -->
<svg version="1.1" id="Layer_1" xmlns="http://www.w3.org/2000/svg" xmlns:xlink="http://www.w3.org/1999/xlink" x="0px" y="0px"
	 viewBox="0 0 200 200" style="enable-background:new 0 0 200 200;" xml:space="preserve">
<style type="text/css">
	.st0{fill:#2F344C;}
	.st1{fill:#1B1E36;}
	.st2{fill:#6F7390;}
	.st3{fill:#B7B9C8;}
	.st4{fill-rule:evenodd;clip-rule:evenodd;fill:#FBD52E;}
</style>
<g id="surface1_00000047760332553263231660000008125235514068969881_">
	<path class="st0" d="M200,100c0,55.2-44.8,100-100,100S0,155.2,0,100S44.8,0,100,0S200,44.8,200,100z"/>
	<path class="st1" d="M158.1,100c0,32-25.9,58.1-58.1,58.1S41.9,132,41.9,100S68,41.9,100,41.9S158.1,68,158.1,100z"/>
	<path class="st2" d="M100.2,12.8c-10.8,0-19.6,39.1-19.6,87.4s8.8,87.4,19.6,87.4c10.8,0,19.6-39.1,19.6-87.4S111,12.8,100.2,12.8z
		 M101.6,182.7c-1.3,1.7-2.5,0.4-2.5,0.4c-5-5.8-7.4-16.4-7.4-16.4c-8.7-28-6.6-88.1-6.6-88.1c4.1-47.7,11.5-59,14-61.5
		c0.5-0.5,1.4-0.6,2-0.2c3.7,2.6,6.8,13.5,6.8,13.5c9.1,33.8,8.3,65.5,8.3,65.5c0.8,27.6-4.6,58.5-4.6,58.5
		C107.3,177.8,101.6,182.7,101.6,182.7z"/>
	<path class="st2" d="M176,56.7c-5.3-9.4-43.7,2.5-85.7,26.6s-71.5,51.2-66.1,60.5c5.3,9.4,43.7-2.5,85.7-26.6S181.5,66,176,56.7z
		 M29.3,142.5c-2.1-0.3-1.6-2-1.6-2c2.5-7.2,10.6-14.6,10.6-14.6c20-21.4,73.1-49.6,73.1-49.6c43.4-20.2,56.9-19.4,60.4-18.4
		c0.7,0.2,1.2,0.9,1.2,1.7c-0.4,4.5-8.4,12.6-8.4,12.6c-24.7,24.7-52.6,39.7-52.6,39.7C88.4,126.3,59,136.9,59,136.9
		C36.4,145,29.3,142.5,29.3,142.5z"/>
	<path class="st2" d="M175.9,144c5.4-9.3-24.1-36.5-65.9-60.8S29.9,47,24.5,56.4c-5.4,9.3,24.1,36.5,65.9,60.8
		S170.5,153.5,175.9,144z M28.1,59.9c-0.8-1.9,0.8-2.4,0.8-2.4c7.5-1.4,18,1.8,18,1.8c28.6,6.6,79.6,38.6,79.6,38.6
		c39.2,27.5,45.3,39.5,46.1,43c0.2,0.7-0.2,1.5-0.8,1.8c-4.1,1.9-15.1-0.9-15.1-0.9C123,132.6,96,116.1,96,116.1
		C71.8,103,47.7,82.8,47.7,82.8C29.5,67.5,28.1,60,28.1,59.9L28.1,59.9z"/>
	<path class="st3" d="M110.3,100c0,5.6-4.6,10.3-10.3,10.3s-10.3-4.6-10.3-10.3s4.6-10.3,10.3-10.3S110.3,94.4,110.3,100z"/>
	<path class="st3" d="M148.1,60.5c0-3.5-2.7-6.2-6-6.2c-3.2,0-6,2.7-6,6.2c0,3.5,2.7,6.2,6,6.2C145.5,66.6,148.1,63.9,148.1,60.5z"
		/>
	<path class="st3" d="M50.2,81.5c0-3.5-2.7-6.2-6-6.2s-6,2.7-6,6.2c0,3.5,2.7,6.2,6,6.2S50.2,84.8,50.2,81.5z"/>
	<path class="st3" d="M93.8,157.2c0-3.5-2.7-6.2-6-6.2c-3.3,0-6,2.7-6,6.2c0,3.5,2.7,6.2,6,6.2C91.1,163.4,93.8,160.7,93.8,157.2z"
		/>
</g>
<path class="st4" d="M263.4-7.6"/>
</svg>
