<?xml version="1.0" encoding="utf-8"?>
<!-- Generator: Adobe Illustrator 26.4.1, SVG Export Plug-In . SVG Version: 6.00 Build 0)  -->
<svg version="1.1" id="Layer_1" xmlns="http://www.w3.org/2000/svg" xmlns:xlink="http://www.w3.org/1999/xlink" x="0px" y="0px"
	 viewBox="0 0 200 200" style="enable-background:new 0 0 200 200;" xml:space="preserve">
<style type="text/css">
	.st0{fill:#2E3148;}
	.st1{fill:#1B1E36;}
	.st2{fill:#6F7390;}
	.st3{fill:#B7B9C8;}
	.st4{fill-rule:evenodd;clip-rule:evenodd;fill:#FBD52E;}
</style>
<g id="surface1_00000047760332553263231660000008125235514068969881_">
	<path class="st0" d="M195.6,100c0,52.8-42.8,95.6-95.6,95.6S4.4,152.8,4.4,100S47.2,4.4,100,4.4S195.6,47.2,195.6,100z"/>
	<path class="st1" d="M155.5,100c0,30.6-24.8,55.5-55.5,55.5S44.5,130.6,44.5,100S69.4,44.5,100,44.5S155.5,69.4,155.5,100z"/>
	<path class="st2" d="M100.2,16.6c-10.3,0-18.7,37.4-18.7,83.6s8.4,83.6,18.7,83.6c10.3,0,18.7-37.4,18.7-83.6
		S110.5,16.6,100.2,16.6z M101.5,179.1c-1.2,1.6-2.4,0.4-2.4,0.4c-4.8-5.5-7.1-15.7-7.1-15.7c-8.3-26.8-6.3-84.2-6.3-84.2
		c3.9-45.6,11-56.4,13.4-58.8c0.5-0.5,1.3-0.6,1.9-0.2c3.5,2.5,6.5,12.9,6.5,12.9c8.7,32.3,7.9,62.6,7.9,62.6
		c0.8,26.4-4.4,55.9-4.4,55.9C107,174.4,101.5,179.1,101.5,179.1z"/>
	<path class="st2" d="M172.7,58.6c-5.1-9-41.8,2.4-81.9,25.4c-40.1,23-68.4,48.9-63.2,57.8c5.1,9,41.8-2.4,81.9-25.4
		C149.6,93.4,177.9,67.5,172.7,58.6z M32.4,140.6c-2-0.3-1.5-1.9-1.5-1.9c2.4-6.9,10.1-14,10.1-14c19.1-20.5,69.9-47.4,69.9-47.4
		c41.5-19.3,54.4-18.5,57.7-17.6c0.7,0.2,1.1,0.9,1.1,1.6c-0.4,4.3-8,12-8,12c-23.6,23.6-50.3,38-50.3,38
		c-22.5,13.8-50.6,24-50.6,24C39.2,143,32.4,140.6,32.4,140.6z"/>
	<path class="st2" d="M172.6,142.1c5.2-8.9-23-34.9-63-58.1C69.6,60.8,33,49.3,27.8,58.3c-5.2,8.9,23,34.9,63,58.1
		S167.4,151.1,172.6,142.1z M31.3,61.7c-0.8-1.8,0.8-2.3,0.8-2.3c7.2-1.3,17.2,1.7,17.2,1.7C76.6,67.4,125.4,98,125.4,98
		c37.5,26.3,43.3,37.8,44.1,41.1c0.2,0.7-0.2,1.4-0.8,1.7c-3.9,1.8-14.4-0.9-14.4-0.9c-32.3-8.7-58.1-24.5-58.1-24.5
		C73,102.9,50,83.6,50,83.6C32.6,68.9,31.3,61.8,31.3,61.7L31.3,61.7z"/>
	<path class="st3" d="M109.8,100c0,5.4-4.4,9.8-9.8,9.8s-9.8-4.4-9.8-9.8s4.4-9.8,9.8-9.8S109.8,94.6,109.8,100z"/>
	<path class="st3" d="M146,62.2c0-3.3-2.6-5.9-5.7-5.9c-3.1,0-5.7,2.6-5.7,5.9c0,3.3,2.6,5.9,5.7,5.9C143.5,68.1,146,65.5,146,62.2z
		"/>
	<path class="st3" d="M52.4,82.3c0-3.3-2.6-5.9-5.7-5.9S41,79,41,82.3c0,3.3,2.6,5.9,5.7,5.9S52.4,85.5,52.4,82.3z"/>
	<path class="st3" d="M94.1,154.7c0-3.3-2.6-5.9-5.7-5.9c-3.2,0-5.7,2.6-5.7,5.9c0,3.3,2.6,5.9,5.7,5.9
		C91.5,160.6,94.1,158,94.1,154.7z"/>
</g>
<path class="st4" d="M263.4-7.6"/>
</svg>
