<?xml version="1.0" encoding="UTF-8"?>
<svg xmlns="http://www.w3.org/2000/svg" xmlns:xlink="http://www.w3.org/1999/xlink" width="200px" height="200px" viewBox="0 0 200 200" version="1.1">
<g id="surface1">
<path style=" stroke:none;fill-rule:nonzero;fill:rgb(86.666667%,45.882353%,32.54902%);fill-opacity:1;" d="M 96.5625 4.5 C 95.15625 5.03125 80.3125 11.53125 79.6875 11.90625 C 79.40625 12.0625 83.3125 12.1875 89.15625 12.1875 L 99.0625 12.1875 L 99.0625 8.125 C 99.0625 4.125 99.0625 4.0625 98.375 4.0625 C 97.96875 4.09375 97.15625 4.28125 96.5625 4.5 Z M 96.5625 4.5 "/>
<path style=" stroke:none;fill-rule:nonzero;fill:rgb(86.666667%,45.882353%,32.54902%);fill-opacity:1;" d="M 100.9375 8.09375 L 100.9375 12.1875 L 110.875 12.1875 C 116.59375 12.1875 120.59375 12.0625 120.3125 11.90625 C 118.875 11.0625 102.8125 4.28125 101.96875 4.15625 L 100.9375 3.96875 Z M 100.9375 8.09375 "/>
<path style=" stroke:none;fill-rule:nonzero;fill:rgb(86.666667%,45.882353%,32.54902%);fill-opacity:1;" d="M 85.3125 6.09375 C 84.03125 6.34375 80.59375 6.875 77.65625 7.34375 C 74.75 7.8125 72.3125 8.21875 72.25 8.28125 C 72.1875 8.34375 72.6875 9.125 73.3125 10.0625 C 73.96875 10.96875 74.5 11.75 74.53125 11.78125 C 74.5625 11.875 88.21875 5.9375 88.40625 5.75 C 88.59375 5.5625 87.96875 5.65625 85.3125 6.09375 Z M 85.3125 6.09375 "/>
<path style=" stroke:none;fill-rule:nonzero;fill:rgb(86.666667%,45.882353%,32.54902%);fill-opacity:1;" d="M 112.5625 6.09375 C 112.65625 6.1875 115.5625 7.5 119 9.03125 L 125.3125 11.78125 L 126.59375 10.09375 C 127.28125 9.15625 127.8125 8.34375 127.75 8.28125 C 127.625 8.1875 113.4375 5.9375 112.84375 5.9375 C 112.59375 5.9375 112.46875 6 112.5625 6.09375 Z M 112.5625 6.09375 "/>
<path style=" stroke:none;fill-rule:nonzero;fill:rgb(86.666667%,45.882353%,32.54902%);fill-opacity:1;" d="M 62.28125 12.59375 C 58.125 14.6875 54.78125 16.4375 54.8125 16.5 C 54.90625 16.59375 66.46875 13.9375 71.15625 12.75 L 72.46875 12.4375 L 71.21875 10.59375 C 70.53125 9.59375 69.9375 8.75 69.90625 8.75 C 69.875 8.78125 66.4375 10.5 62.28125 12.59375 Z M 62.28125 12.59375 "/>
<path style=" stroke:none;fill-rule:nonzero;fill:rgb(86.666667%,45.882353%,32.54902%);fill-opacity:1;" d="M 128.8125 10.59375 L 127.53125 12.4375 L 131.8125 13.4375 C 134.15625 14 138.0625 14.90625 140.46875 15.46875 C 142.875 16.0625 144.875 16.46875 144.9375 16.4375 C 144.96875 16.375 141.65625 14.625 137.5625 12.5625 L 130.09375 8.78125 Z M 128.8125 10.59375 "/>
<path style=" stroke:none;fill-rule:nonzero;fill:rgb(86.666667%,45.882353%,32.54902%);fill-opacity:1;" d="M 77.5 15.84375 C 78.21875 16.84375 80 19.375 81.5 21.46875 C 82.96875 23.59375 84.25 25.3125 84.375 25.3125 C 84.46875 25.3125 85.46875 24.5 86.59375 23.5 C 87.71875 22.53125 89.59375 20.875 90.78125 19.84375 C 91.9375 18.8125 93.5625 17.375 94.34375 16.6875 C 95.125 15.96875 96.125 15.09375 96.5625 14.71875 L 97.34375 14.09375 L 86.78125 14.0625 L 76.21875 14.0625 Z M 77.5 15.84375 "/>
<path style=" stroke:none;fill-rule:nonzero;fill:rgb(86.666667%,45.882353%,32.54902%);fill-opacity:1;" d="M 103.75 15.03125 C 104.34375 15.5625 105.6875 16.71875 106.6875 17.59375 C 107.71875 18.5 109.1875 19.8125 109.96875 20.5 C 112.8125 23.0625 115.46875 25.3125 115.625 25.3125 C 115.71875 25.3125 117.5625 22.78125 119.75 19.6875 L 123.71875 14.0625 L 102.65625 14.0625 Z M 103.75 15.03125 "/>
<path style=" stroke:none;fill-rule:nonzero;fill:rgb(86.666667%,45.882353%,32.54902%);fill-opacity:1;" d="M 72.3125 16.1875 C 71.4375 17 69.96875 18.34375 69 19.21875 C 58.125 28.96875 55.46875 31.40625 55.65625 31.5 C 55.96875 31.625 81.65625 26.53125 81.96875 26.28125 C 82.15625 26.09375 74.71875 15.25 74.125 14.875 C 74 14.8125 73.1875 15.40625 72.3125 16.1875 Z M 72.3125 16.1875 "/>
<path style=" stroke:none;fill-rule:nonzero;fill:rgb(86.666667%,45.882353%,32.54902%);fill-opacity:1;" d="M 95.3125 18.53125 C 92.96875 20.625 90.15625 23.15625 89.0625 24.125 L 87.03125 25.90625 L 112.96875 25.90625 L 112 25.0625 C 111.46875 24.59375 110.5625 23.8125 109.96875 23.28125 C 107.40625 21.0625 103.5 17.53125 102.03125 16.1875 C 101.1875 15.375 100.25 14.71875 100 14.71875 C 99.75 14.71875 97.625 16.4375 95.3125 18.53125 Z M 95.3125 18.53125 "/>
<path style=" stroke:none;fill-rule:nonzero;fill:rgb(86.666667%,45.882353%,32.54902%);fill-opacity:1;" d="M 125.21875 15.6875 C 121.875 20.15625 117.84375 26.09375 118.03125 26.25 C 118.34375 26.53125 144 31.625 144.375 31.5 C 144.5 31.4375 143.125 30.09375 141.28125 28.46875 C 137.09375 24.75 133.625 21.625 129.34375 17.71875 L 125.96875 14.65625 Z M 125.21875 15.6875 "/>
<path style=" stroke:none;fill-rule:nonzero;fill:rgb(86.666667%,45.882353%,32.54902%);fill-opacity:1;" d="M 58.4375 17.8125 C 52 19.34375 46.1875 20.84375 45.53125 21.15625 L 44.375 21.71875 L 47.5625 26.09375 C 49.34375 28.53125 51 30.84375 51.28125 31.25 L 51.78125 32 L 55.03125 29.0625 C 56.84375 27.4375 61 23.65625 64.3125 20.65625 C 69.5 16 70.625 14.90625 70.25 15.03125 C 70.1875 15.03125 64.875 16.3125 58.4375 17.8125 Z M 58.4375 17.8125 "/>
<path style=" stroke:none;fill-rule:nonzero;fill:rgb(86.666667%,45.882353%,32.54902%);fill-opacity:1;" d="M 131.28125 16.65625 C 132.9375 18.1875 139.75 24.375 141.96875 26.34375 C 142.53125 26.84375 144.0625 28.25 145.4375 29.46875 C 146.78125 30.71875 148 31.71875 148.125 31.71875 C 148.28125 31.71875 150.03125 29.46875 152 26.71875 L 155.625 21.75 L 154.59375 21.21875 C 154.03125 20.90625 148.65625 19.53125 142.65625 18.125 C 136.625 16.75 131.21875 15.46875 130.625 15.3125 L 129.53125 15.03125 Z M 131.28125 16.65625 "/>
<path style=" stroke:none;fill-rule:nonzero;fill:rgb(86.666667%,45.882353%,32.54902%);fill-opacity:1;" d="M 153.65625 27.8125 C 151.65625 30.59375 150 32.9375 150 33.0625 C 150 33.1875 151.875 34.375 154.15625 35.6875 C 156.40625 36.96875 161.34375 39.84375 165.125 42 C 169.78125 44.6875 171.8125 45.71875 171.5 45.25 C 171.25 44.84375 169.1875 41.4375 166.875 37.65625 C 160.09375 26.46875 158.4375 23.84375 157.875 23.3125 C 157.34375 22.84375 157.09375 23.125 153.65625 27.8125 Z M 153.65625 27.8125 "/>
<path style=" stroke:none;fill-rule:nonzero;fill:rgb(86.666667%,45.882353%,32.54902%);fill-opacity:1;" d="M 41.9375 23.65625 C 41.28125 24.21875 40.375 25.625 34.84375 34.84375 C 33.09375 37.75 30.90625 41.34375 30.03125 42.78125 C 29.15625 44.21875 28.46875 45.4375 28.5 45.46875 C 28.5625 45.53125 33.40625 42.8125 39.28125 39.4375 C 46.375 35.34375 49.9375 33.15625 49.84375 32.875 C 49.625 32.25 43 23.15625 42.78125 23.125 C 42.65625 23.125 42.28125 23.375 41.9375 23.65625 Z M 41.9375 23.65625 "/>
<path style=" stroke:none;fill-rule:nonzero;fill:rgb(86.666667%,45.882353%,32.54902%);fill-opacity:1;" d="M 88.1875 30.84375 C 89.21875 32.375 90.625 34.28125 91.25 35.15625 C 91.875 36 94.0625 39.0625 96.09375 41.96875 C 98.125 44.84375 99.90625 47.15625 100.03125 47.125 C 100.1875 47.0625 102.21875 44.28125 104.625 40.9375 C 107 37.59375 110.03125 33.34375 111.34375 31.46875 L 113.75 28.125 L 86.25 28.125 Z M 88.1875 30.84375 "/>
<path style=" stroke:none;fill-rule:nonzero;fill:rgb(86.666667%,45.882353%,32.54902%);fill-opacity:1;" d="M 119.75 30.625 C 120.59375 31.75 123.9375 36.3125 127.1875 40.78125 C 130.46875 45.25 133.46875 49.3125 133.84375 49.8125 L 134.59375 50.71875 L 140.5625 42.46875 C 143.875 37.9375 146.4375 34.1875 146.3125 34.125 C 146.1875 34.09375 139.8125 32.8125 132.15625 31.3125 L 118.21875 28.5625 Z M 119.75 30.625 "/>
<path style=" stroke:none;fill-rule:nonzero;fill:rgb(86.666667%,45.882353%,32.54902%);fill-opacity:1;" d="M 67.09375 31.4375 C 59.875 32.84375 53.875 34.0625 53.71875 34.125 C 53.5 34.1875 64.09375 49.09375 65.3125 50.40625 C 65.4375 50.53125 67.3125 48.21875 69.46875 45.25 C 75.34375 37.21875 80.25 30.53125 80.71875 30 C 81.59375 28.96875 81.625 28.75 80.875 28.78125 C 80.46875 28.8125 74.28125 30 67.09375 31.4375 Z M 67.09375 31.4375 "/>
<path style=" stroke:none;fill-rule:nonzero;fill:rgb(86.666667%,45.882353%,32.54902%);fill-opacity:1;" d="M 82.28125 31.34375 C 81.25 32.75 77.5625 37.75 74.125 42.46875 C 70.65625 47.1875 67.84375 51.09375 67.90625 51.125 C 67.96875 51.21875 97.09375 48.5 97.6875 48.375 C 97.875 48.3125 94.90625 43.90625 91.09375 38.53125 L 84.15625 28.78125 Z M 82.28125 31.34375 "/>
<path style=" stroke:none;fill-rule:nonzero;fill:rgb(86.666667%,45.882353%,32.54902%);fill-opacity:1;" d="M 114.40625 30.84375 C 113.71875 31.84375 112.4375 33.625 111.5625 34.84375 C 107.9375 39.84375 101.96875 48.28125 102 48.34375 C 102.03125 48.375 108.21875 48.96875 115.78125 49.6875 C 123.34375 50.375 130.125 51.03125 130.875 51.125 C 131.59375 51.21875 132.1875 51.1875 132.1875 51.09375 C 132.1875 50.96875 131.4375 49.875 130.53125 48.625 C 127.15625 44.125 118.84375 32.90625 117.5 31.03125 C 116.71875 29.96875 116 29.0625 115.875 29.0625 C 115.78125 29.0625 115.09375 29.875 114.40625 30.84375 Z M 114.40625 30.84375 "/>
<path style=" stroke:none;fill-rule:nonzero;fill:rgb(86.666667%,45.882353%,32.54902%);fill-opacity:1;" d="M 28.65625 36.90625 C 24.46875 41.125 22.5625 43.28125 22.75 43.53125 C 24.15625 45.4375 25.09375 46.5625 25.25 46.5625 C 25.375 46.5625 25.8125 45.96875 26.21875 45.21875 C 26.625 44.5 28.125 42 29.5625 39.65625 C 32.65625 34.625 35.03125 30.625 34.90625 30.625 C 34.875 30.65625 32.0625 33.46875 28.65625 36.90625 Z M 28.65625 36.90625 "/>
<path style=" stroke:none;fill-rule:nonzero;fill:rgb(86.666667%,45.882353%,32.54902%);fill-opacity:1;" d="M 165.0625 30.78125 C 165.375 31.40625 174.4375 46.40625 174.65625 46.65625 C 174.78125 46.78125 175.46875 46 176.21875 44.96875 L 177.5625 43.0625 L 171.25 36.75 C 167.78125 33.3125 165 30.59375 165.0625 30.78125 Z M 165.0625 30.78125 "/>
<path style=" stroke:none;fill-rule:nonzero;fill:rgb(86.666667%,45.882353%,32.54902%);fill-opacity:1;" d="M 142.3125 43.4375 C 139.0625 47.90625 136.375 51.65625 136.34375 51.78125 C 136.25 52.03125 161.9375 60.65625 162.15625 60.46875 C 162.25 60.34375 156.5 49.90625 150.375 39.125 L 148.1875 35.3125 Z M 142.3125 43.4375 "/>
<path style=" stroke:none;fill-rule:nonzero;fill:rgb(86.666667%,45.882353%,32.54902%);fill-opacity:1;" d="M 50.53125 37.5625 C 49.9375 38.65625 49.125 40.09375 48.75 40.78125 C 48.34375 41.46875 47.375 43.21875 46.5625 44.6875 C 45.75 46.15625 44.8125 47.84375 44.46875 48.4375 C 44.125 49.03125 42.78125 51.4375 41.5 53.75 C 40.1875 56.0625 38.84375 58.5 38.46875 59.15625 C 38.125 59.8125 37.8125 60.375 37.8125 60.46875 C 37.8125 60.53125 43.59375 58.65625 50.65625 56.28125 C 57.71875 53.9375 63.5 51.90625 63.5 51.78125 C 63.5 51.4375 52.09375 35.65625 51.8125 35.625 C 51.71875 35.625 51.125 36.5 50.53125 37.5625 Z M 50.53125 37.5625 "/>
<path style=" stroke:none;fill-rule:nonzero;fill:rgb(86.666667%,45.882353%,32.54902%);fill-opacity:1;" d="M 151.25 36.4375 C 151.25 36.625 151.5 37.09375 155.46875 44.21875 C 158.03125 48.8125 158.1875 49.09375 162.125 56.1875 L 164.59375 60.65625 L 168.90625 54.84375 C 171.25 51.65625 173.15625 48.96875 173.09375 48.90625 C 172.96875 48.8125 169.0625 46.53125 157.28125 39.75 C 153.96875 37.84375 151.25 36.34375 151.25 36.4375 Z M 151.25 36.4375 "/>
<path style=" stroke:none;fill-rule:nonzero;fill:rgb(86.666667%,45.882353%,32.54902%);fill-opacity:1;" d="M 45.9375 37.90625 C 33.375 45.15625 27 48.8125 26.9375 48.90625 C 26.8125 49.03125 35.09375 60.28125 35.3125 60.28125 C 35.40625 60.3125 36.03125 59.28125 36.71875 58.0625 C 37.40625 56.8125 38.5 54.8125 39.1875 53.59375 C 39.84375 52.40625 41.59375 49.28125 43.03125 46.71875 C 44.5 44.125 46.125 41.25 46.65625 40.3125 C 47.15625 39.375 47.875 38.125 48.1875 37.5625 C 48.53125 37.03125 48.6875 36.5625 48.53125 36.5625 C 48.40625 36.5625 47.21875 37.1875 45.9375 37.90625 Z M 45.9375 37.90625 "/>
<path style=" stroke:none;fill-rule:nonzero;fill:rgb(86.666667%,45.882353%,32.54902%);fill-opacity:1;" d="M 17.5625 52.625 C 15.46875 56.75 14.0625 59.78125 14.4375 59.34375 C 14.84375 58.875 17.125 56.28125 19.5625 53.5625 L 23.96875 48.59375 L 22.6875 46.84375 L 21.40625 45.0625 Z M 17.5625 52.625 "/>
<path style=" stroke:none;fill-rule:nonzero;fill:rgb(86.666667%,45.882353%,32.54902%);fill-opacity:1;" d="M 177.25 46.8125 L 175.96875 48.625 L 180.5 53.78125 C 183 56.59375 185.34375 59.21875 185.75 59.625 C 186.15625 60.03125 184.78125 57 182.6875 52.84375 C 180.59375 48.71875 178.8125 45.25 178.71875 45.15625 C 178.625 45.0625 177.96875 45.8125 177.25 46.8125 Z M 177.25 46.8125 "/>
<path style=" stroke:none;fill-rule:nonzero;fill:rgb(86.666667%,45.882353%,32.54902%);fill-opacity:1;" d="M 94.53125 50.78125 C 94.375 50.84375 88.3125 51.40625 81.09375 52.0625 C 73.875 52.6875 67.875 53.3125 67.75 53.40625 C 67.65625 53.5 70.375 57.46875 73.8125 62.1875 C 77.25 66.90625 80.84375 71.875 81.78125 73.1875 C 82.71875 74.53125 83.59375 75.625 83.75 75.625 C 83.875 75.625 84.875 74 85.96875 72.03125 C 87.0625 70.03125 88.75 67.0625 89.71875 65.375 C 92.78125 60.0625 97.8125 51 97.8125 50.8125 C 97.8125 50.625 95.0625 50.59375 94.53125 50.78125 Z M 94.53125 50.78125 "/>
<path style=" stroke:none;fill-rule:nonzero;fill:rgb(86.666667%,45.882353%,32.54902%);fill-opacity:1;" d="M 102.1875 50.84375 C 102.1875 51 105.34375 56.6875 109.1875 63.53125 L 116.1875 76 L 117.40625 74.3125 C 121.84375 68.3125 132.28125 53.875 132.375 53.59375 C 132.46875 53.375 127.6875 52.8125 117.90625 51.9375 C 102.15625 50.5 102.1875 50.5 102.1875 50.84375 Z M 102.1875 50.84375 "/>
<path style=" stroke:none;fill-rule:nonzero;fill:rgb(86.666667%,45.882353%,32.54902%);fill-opacity:1;" d="M 25.5 51.28125 C 25.125 52.4375 20.875 65.5 20.0625 68 L 19.15625 70.84375 L 24.03125 67.96875 C 26.71875 66.375 29.9375 64.46875 31.21875 63.71875 C 32.5 62.96875 33.59375 62.1875 33.625 62.03125 C 33.78125 61.53125 25.65625 50.78125 25.5 51.28125 Z M 25.5 51.28125 "/>
<path style=" stroke:none;fill-rule:nonzero;fill:rgb(86.666667%,45.882353%,32.54902%);fill-opacity:1;" d="M 170.1875 56.375 C 167.96875 59.375 166.1875 61.90625 166.1875 62.03125 C 166.21875 62.28125 180.6875 71 180.8125 70.84375 C 180.9375 70.71875 174.65625 51.4375 174.40625 51.15625 C 174.28125 51.03125 172.375 53.375 170.1875 56.375 Z M 170.1875 56.375 "/>
<path style=" stroke:none;fill-rule:nonzero;fill:rgb(86.666667%,45.882353%,32.54902%);fill-opacity:1;" d="M 98.84375 53.34375 C 98.34375 54.34375 96.375 57.8125 94.53125 61.09375 C 92.6875 64.34375 90.75 67.8125 90.21875 68.75 C 89.71875 69.6875 89.09375 70.78125 88.875 71.15625 C 88.625 71.53125 88.0625 72.53125 87.625 73.34375 C 87.15625 74.15625 86.53125 75.3125 86.1875 75.84375 L 85.5625 76.875 L 114.40625 76.875 L 113.21875 74.75 C 107.4375 64.375 100.125 51.5625 100 51.5625 C 99.90625 51.5625 99.375 52.375 98.84375 53.34375 Z M 98.84375 53.34375 "/>
<path style=" stroke:none;fill-rule:nonzero;fill:rgb(86.666667%,45.882353%,32.54902%);fill-opacity:1;" d="M 21.0625 54.90625 C 20.21875 55.90625 19.40625 56.875 19.21875 57.0625 C 19.0625 57.25 16.875 59.6875 14.375 62.46875 C 9.875 67.5 8.65625 69.25 9.4375 69.5 C 10.5625 69.875 16.15625 71.65625 16.4375 71.78125 C 16.625 71.84375 16.90625 71.53125 17 71.03125 C 17.25 70 22.53125 53.6875 22.71875 53.34375 C 23.09375 52.65625 22.40625 53.34375 21.0625 54.90625 Z M 21.0625 54.90625 "/>
<path style=" stroke:none;fill-rule:nonzero;fill:rgb(86.666667%,45.882353%,32.54902%);fill-opacity:1;" d="M 177.28125 53.5 C 177.34375 53.71875 178.71875 57.90625 180.3125 62.8125 C 181.875 67.71875 183.25 71.78125 183.28125 71.84375 C 183.4375 71.96875 190.40625 69.6875 190.71875 69.375 C 190.875 69.25 190.8125 68.78125 190.5625 68.34375 C 190.15625 67.5625 177.53125 53.125 177.28125 53.125 C 177.1875 53.125 177.1875 53.3125 177.28125 53.5 Z M 177.28125 53.5 "/>
<path style=" stroke:none;fill-rule:nonzero;fill:rgb(86.666667%,45.882353%,32.54902%);fill-opacity:1;" d="M 139.1875 60.84375 C 145.0625 74.59375 148.1875 81.71875 148.40625 81.96875 C 148.53125 82.09375 151.75 78.03125 155.53125 72.90625 C 163.375 62.25 162.96875 62.84375 162.4375 62.6875 C 161.28125 62.3125 136.96875 54.28125 136.65625 54.15625 C 136.46875 54.0625 137.59375 57.09375 139.1875 60.84375 Z M 139.1875 60.84375 "/>
<path style=" stroke:none;fill-rule:nonzero;fill:rgb(86.666667%,45.882353%,32.54902%);fill-opacity:1;" d="M 49.9375 58.65625 L 37.1875 62.875 L 37.875 63.875 C 39.4375 66.09375 51.5625 82.28125 51.5625 82.15625 C 51.5625 82.0625 52.40625 80.03125 53.46875 77.65625 C 55.96875 71.875 62.8125 55.96875 63.15625 55.0625 C 63.34375 54.59375 63.3125 54.375 63.03125 54.40625 C 62.84375 54.4375 56.9375 56.34375 49.9375 58.65625 Z M 49.9375 58.65625 "/>
<path style=" stroke:none;fill-rule:nonzero;fill:rgb(86.666667%,45.882353%,32.54902%);fill-opacity:1;" d="M 65.21875 55.65625 C 64.96875 56.25 62.96875 60.875 60.78125 65.9375 C 54.6875 80.0625 53.65625 82.5 53.8125 82.65625 C 53.96875 82.84375 81.5 77.34375 81.75 77.09375 C 81.90625 76.96875 66.9375 55.96875 65.9375 54.875 C 65.78125 54.71875 65.46875 55.09375 65.21875 55.65625 Z M 65.21875 55.65625 "/>
<path style=" stroke:none;fill-rule:nonzero;fill:rgb(86.666667%,45.882353%,32.54902%);fill-opacity:1;" d="M 126 65.84375 C 121.53125 72 117.90625 77.09375 117.96875 77.15625 C 118.125 77.28125 146.5625 83.0625 146.5625 82.9375 C 146.5625 82.84375 136.5625 59.625 135.1875 56.46875 C 134.75 55.5 134.3125 54.6875 134.25 54.6875 C 134.1875 54.6875 130.46875 59.71875 126 65.84375 Z M 126 65.84375 "/>
<path style=" stroke:none;fill-rule:nonzero;fill:rgb(86.666667%,45.882353%,32.54902%);fill-opacity:1;" d="M 157.0625 74.03125 C 153.28125 79.125 150.15625 83.4375 150.09375 83.59375 C 150.0625 83.78125 152.84375 84.78125 156.34375 85.875 C 159.8125 86.96875 164.875 88.5625 167.59375 89.4375 C 170.3125 90.28125 172.59375 90.9375 172.65625 90.875 C 172.71875 90.84375 171.84375 88.03125 170.75 84.6875 C 169.65625 81.34375 167.75 75.46875 166.5 71.625 C 165.28125 67.8125 164.1875 64.6875 164.09375 64.71875 C 164 64.71875 160.8125 68.90625 157.0625 74.03125 Z M 157.0625 74.03125 "/>
<path style=" stroke:none;fill-rule:nonzero;fill:rgb(86.666667%,45.882353%,32.54902%);fill-opacity:1;" d="M 166.375 65.1875 C 166.5 65.53125 168.28125 70.96875 170.375 77.34375 C 173.53125 87.0625 174.6875 90.3125 174.6875 89.34375 C 174.6875 89.25 176.21875 85.65625 178.09375 81.34375 L 181.46875 73.5 L 174.125 69.1875 C 170.0625 66.78125 166.625 64.78125 166.46875 64.71875 C 166.28125 64.65625 166.25 64.84375 166.375 65.1875 Z M 166.375 65.1875 "/>
<path style=" stroke:none;fill-rule:nonzero;fill:rgb(86.666667%,45.882353%,32.54902%);fill-opacity:1;" d="M 26.03125 69.15625 C 22.21875 71.4375 19 73.375 18.90625 73.5 C 18.71875 73.65625 25.0625 88.875 25.46875 89.3125 C 25.59375 89.4375 33.4375 65.625 33.4375 65.21875 C 33.4375 64.78125 32.84375 65.09375 26.03125 69.15625 Z M 26.03125 69.15625 "/>
<path style=" stroke:none;fill-rule:nonzero;fill:rgb(86.666667%,45.882353%,32.54902%);fill-opacity:1;" d="M 35.25 66.46875 C 34.96875 67.3125 33.28125 72.40625 31.5625 77.8125 C 29.8125 83.21875 28.1875 88.25 27.9375 89 C 27.6875 89.71875 27.5 90.4375 27.5 90.59375 C 27.5 90.75 29.9375 90.09375 32.90625 89.125 C 38.09375 87.46875 39.46875 87.03125 46.03125 85.03125 C 47.6875 84.5 49.25 83.96875 49.5 83.84375 C 49.8125 83.65625 48.90625 82.21875 45.8125 78.0625 C 43.5625 75.03125 40.46875 70.875 38.9375 68.78125 C 37.4375 66.6875 36.09375 65 35.96875 65 C 35.84375 65 35.53125 65.65625 35.25 66.46875 Z M 35.25 66.46875 "/>
<path style=" stroke:none;fill-rule:nonzero;fill:rgb(86.666667%,45.882353%,32.54902%);fill-opacity:1;" d="M 8.21875 72.125 C 8 73.03125 9.625 91.25 9.96875 91.625 C 10.09375 91.75 11.46875 87.84375 13.0625 82.9375 C 14.6875 78.03125 15.90625 73.9375 15.84375 73.875 C 15.78125 73.8125 14.09375 73.1875 12.0625 72.53125 L 8.4375 71.28125 Z M 8.21875 72.125 "/>
<path style=" stroke:none;fill-rule:nonzero;fill:rgb(86.666667%,45.882353%,32.54902%);fill-opacity:1;" d="M 187.84375 72.4375 C 185.875 73.09375 184.21875 73.78125 184.15625 73.96875 C 184.03125 74.34375 189.59375 91.84375 189.96875 92.25 C 190.21875 92.53125 191.90625 75.4375 191.875 72.875 C 191.875 72 191.78125 71.25 191.65625 71.25 C 191.5 71.28125 189.8125 71.8125 187.84375 72.4375 Z M 187.84375 72.4375 "/>
<path style=" stroke:none;fill-rule:nonzero;fill:rgb(86.666667%,45.882353%,32.54902%);fill-opacity:1;" d="M 181 79.28125 C 180.3125 80.96875 178.8125 84.4375 177.6875 87 C 176.53125 89.59375 175.71875 91.78125 175.84375 91.90625 C 176.34375 92.375 189.09375 96.1875 189 95.84375 C 188.9375 95.625 187.46875 91.15625 185.78125 85.84375 C 184.0625 80.5625 182.5625 76.25 182.46875 76.25 C 182.34375 76.25 181.6875 77.625 181 79.28125 Z M 181 79.28125 "/>
<path style=" stroke:none;fill-rule:nonzero;fill:rgb(86.666667%,45.882353%,32.54902%);fill-opacity:1;" d="M 14.1875 86.15625 C 12.4375 91.46875 11.0625 95.8125 11.09375 95.84375 C 11.15625 95.96875 13.59375 95.25 19.4375 93.40625 L 24.3125 91.84375 L 21 84.21875 C 19.1875 80 17.59375 76.5625 17.5 76.5625 C 17.40625 76.5625 15.90625 80.875 14.1875 86.15625 Z M 14.1875 86.15625 "/>
<path style=" stroke:none;fill-rule:nonzero;fill:rgb(86.666667%,45.882353%,32.54902%);fill-opacity:1;" d="M 85.9375 78.84375 C 85.9375 79.15625 99.78125 97.96875 100 97.96875 C 100.21875 97.96875 112 82.03125 113.65625 79.46875 L 114.125 78.75 L 100.03125 78.75 C 92.28125 78.75 85.9375 78.78125 85.9375 78.84375 Z M 85.9375 78.84375 "/>
<path style=" stroke:none;fill-rule:nonzero;fill:rgb(86.666667%,45.882353%,32.54902%);fill-opacity:1;" d="M 117.65625 79.59375 C 117.78125 79.9375 125.59375 104.03125 126.34375 106.375 C 126.4375 106.6875 146 85.5 145.96875 85.09375 C 145.96875 84.96875 139.5625 83.5625 131.71875 82 C 120.78125 79.8125 117.5 79.25 117.65625 79.59375 Z M 117.65625 79.59375 "/>
<path style=" stroke:none;fill-rule:nonzero;fill:rgb(86.666667%,45.882353%,32.54902%);fill-opacity:1;" d="M 67.59375 82.15625 C 60.34375 83.625 54.34375 84.9375 54.21875 85.03125 C 54.0625 85.21875 57.8125 89.5 62.9375 95 C 63.8125 95.9375 66.5 98.875 68.875 101.46875 C 71.25 104.09375 73.3125 106.25 73.40625 106.25 C 73.53125 106.25 74.40625 103.8125 75.375 100.84375 C 78.53125 91.25 82.1875 79.78125 82.1875 79.59375 C 82.1875 79.1875 80.78125 79.4375 67.59375 82.15625 Z M 67.59375 82.15625 "/>
<path style=" stroke:none;fill-rule:nonzero;fill:rgb(86.666667%,45.882353%,32.54902%);fill-opacity:1;" d="M 80 93.0625 C 77.6875 100.15625 75.75 106.1875 75.6875 106.40625 C 75.5625 106.9375 75.15625 107.0625 88.5 102.71875 L 98.4375 99.46875 L 91.9375 90.5625 C 88.375 85.6875 85.15625 81.3125 84.84375 80.90625 L 84.21875 80.125 Z M 80 93.0625 "/>
<path style=" stroke:none;fill-rule:nonzero;fill:rgb(86.666667%,45.882353%,32.54902%);fill-opacity:1;" d="M 108.75 89.59375 C 102.5625 98.09375 101.5 99.6875 102 99.6875 C 102.125 99.6875 107.15625 101.3125 113.1875 103.28125 C 119.25 105.25 124.25 106.8125 124.3125 106.71875 C 124.375 106.65625 122.875 101.78125 120.9375 95.875 C 116.15625 81.15625 115.875 80.3125 115.65625 80.3125 C 115.5625 80.3125 112.4375 84.5 108.75 89.59375 Z M 108.75 89.59375 "/>
<path style=" stroke:none;fill-rule:nonzero;fill:rgb(86.666667%,45.882353%,32.54902%);fill-opacity:1;" d="M 193.15625 81.71875 C 193.125 82.0625 192.78125 85.5625 192.375 89.53125 C 191.96875 93.46875 191.6875 96.8125 191.75 96.90625 C 191.90625 97.1875 195.59375 98.25 195.78125 98.0625 C 195.875 97.96875 195.375 94.34375 194.6875 89.96875 C 193.3125 81.28125 193.21875 80.78125 193.15625 81.71875 Z M 193.15625 81.71875 "/>
<path style=" stroke:none;fill-rule:nonzero;fill:rgb(86.666667%,45.882353%,32.54902%);fill-opacity:1;" d="M 5.40625 89.9375 C 4.71875 94.34375 4.1875 98 4.21875 98.0625 C 4.4375 98.3125 7.90625 97 8.03125 96.625 C 8.1875 96.25 6.9375 82.15625 6.75 81.96875 C 6.71875 81.9375 6.09375 85.5 5.40625 89.9375 Z M 5.40625 89.9375 "/>
<path style=" stroke:none;fill-rule:nonzero;fill:rgb(86.666667%,45.882353%,32.54902%);fill-opacity:1;" d="M 38.75 89.4375 C 32.65625 91.375 27.625 92.96875 27.5625 93 C 27.5 93.03125 31.0625 98.15625 35.46875 104.375 C 39.90625 110.5625 43.5625 115.59375 43.59375 115.5625 C 43.65625 115.5 44.96875 109.6875 46.5625 102.65625 C 48.125 95.59375 49.53125 89.34375 49.65625 88.75 C 50.25 86.40625 50.3125 85.9375 50.09375 85.96875 C 49.9375 85.96875 44.84375 87.53125 38.75 89.4375 Z M 38.75 89.4375 "/>
<path style=" stroke:none;fill-rule:nonzero;fill:rgb(86.666667%,45.882353%,32.54902%);fill-opacity:1;" d="M 149.84375 86.9375 C 150.71875 91.1875 156.25 115.4375 156.375 115.53125 C 156.5 115.6875 172.0625 94.09375 172.34375 93.375 C 172.46875 93.03125 169.9375 92.125 161.34375 89.4375 C 155.1875 87.5 150.03125 85.9375 149.90625 85.9375 C 149.75 85.9375 149.71875 86.40625 149.84375 86.9375 Z M 149.84375 86.9375 "/>
<path style=" stroke:none;fill-rule:nonzero;fill:rgb(86.666667%,45.882353%,32.54902%);fill-opacity:1;" d="M 144.53125 89.78125 C 142.8125 91.65625 138.34375 96.5 134.59375 100.5625 L 127.8125 107.96875 L 129.4375 108.53125 C 136.6875 111.03125 154.15625 116.5625 154.3125 116.4375 C 154.4375 116.28125 148.5625 89.5 147.84375 87.09375 C 147.6875 86.46875 147.3125 86.75 144.53125 89.78125 Z M 144.53125 89.78125 "/>
<path style=" stroke:none;fill-rule:nonzero;fill:rgb(86.666667%,45.882353%,32.54902%);fill-opacity:1;" d="M 52.1875 86.75 C 52.1875 86.90625 51.1875 91.40625 50 96.75 C 45.84375 115.0625 45.5625 116.3125 45.6875 116.40625 C 45.75 116.46875 49.65625 115.28125 54.375 113.75 C 59.09375 112.21875 65.03125 110.28125 67.5625 109.46875 L 72.15625 108 L 71.03125 106.75 C 70.40625 106.03125 68.3125 103.78125 66.40625 101.71875 C 64.46875 99.65625 62.15625 97.125 61.21875 96.09375 C 60.28125 95.0625 58.46875 93.09375 57.15625 91.71875 C 55.875 90.34375 54.21875 88.59375 53.5 87.8125 C 52.78125 87.03125 52.1875 86.5625 52.1875 86.75 Z M 52.1875 86.75 "/>
<path style=" stroke:none;fill-rule:nonzero;fill:rgb(86.666667%,45.882353%,32.54902%);fill-opacity:1;" d="M 17.5 96.125 C 14 97.25 11.0625 98.21875 11 98.28125 C 10.90625 98.34375 11.9375 100.84375 13.28125 103.8125 C 14.59375 106.78125 16.90625 111.96875 18.40625 115.3125 C 21.0625 121.375 21.09375 121.40625 21.3125 120.15625 C 21.5625 118.84375 24.375 95.125 24.375 94.4375 C 24.375 94.25 24.28125 94.0625 24.15625 94.0625 C 24 94.09375 21.03125 95 17.5 96.125 Z M 17.5 96.125 "/>
<path style=" stroke:none;fill-rule:nonzero;fill:rgb(86.666667%,45.882353%,32.54902%);fill-opacity:1;" d="M 175.5 94.75 C 175.5625 95.15625 176.25 100.9375 177.03125 107.65625 C 177.8125 114.34375 178.5625 120.25 178.6875 120.71875 C 178.875 121.5 179.59375 120.09375 184.125 109.9375 L 189.3125 98.28125 L 186.625 97.40625 C 181.4375 95.6875 176.09375 94.0625 175.75 94.0625 C 175.5625 94.0625 175.4375 94.375 175.5 94.75 Z M 175.5 94.75 "/>
<path style=" stroke:none;fill-rule:nonzero;fill:rgb(86.666667%,45.882353%,32.54902%);fill-opacity:1;" d="M 24.71875 109.40625 C 23.8125 117.15625 23.125 123.53125 23.21875 123.625 C 23.3125 123.75 27.6875 122.40625 32.96875 120.6875 L 42.53125 117.59375 L 41.5 116.21875 C 40.9375 115.46875 39.90625 114.0625 39.25 113.125 C 34.78125 106.875 26.78125 95.75 26.59375 95.5625 C 26.5 95.4375 25.65625 101.6875 24.71875 109.40625 Z M 24.71875 109.40625 "/>
<path style=" stroke:none;fill-rule:nonzero;fill:rgb(86.666667%,45.882353%,32.54902%);fill-opacity:1;" d="M 172.78125 96.25 C 170.15625 99.71875 157.46875 117.5625 157.5625 117.65625 C 157.71875 117.8125 177 124.0625 177.0625 123.96875 C 177.09375 123.90625 174 98 173.71875 95.9375 C 173.59375 95.15625 173.59375 95.15625 172.78125 96.25 Z M 172.78125 96.25 "/>
<path style=" stroke:none;fill-rule:nonzero;fill:rgb(86.666667%,45.882353%,32.54902%);fill-opacity:1;" d="M 6.03125 99.71875 C 4.625 100.15625 4.0625 100.5 4.0625 100.875 C 4.0625 101.78125 6.25 115.75 6.5 116.34375 C 6.625 116.6875 7.0625 113 7.46875 108.125 C 7.84375 103.28125 8.125 99.28125 8.0625 99.21875 C 8 99.15625 7.09375 99.40625 6.03125 99.71875 Z M 6.03125 99.71875 "/>
<path style=" stroke:none;fill-rule:nonzero;fill:rgb(86.666667%,45.882353%,32.54902%);fill-opacity:1;" d="M 191.6875 99.75 C 191.78125 100.15625 192.15625 104.4375 192.53125 109.28125 C 192.9375 114.15625 193.28125 118.0625 193.34375 118.03125 C 193.375 117.96875 194 114.34375 194.6875 109.96875 C 195.375 105.59375 196 101.65625 196.0625 101.1875 C 196.21875 100.40625 196.125 100.34375 194.09375 99.71875 C 191.4375 98.90625 191.53125 98.90625 191.6875 99.75 Z M 191.6875 99.75 "/>
<path style=" stroke:none;fill-rule:nonzero;fill:rgb(86.666667%,45.882353%,32.54902%);fill-opacity:1;" d="M 88.21875 104.84375 C 82.34375 106.75 77.25 108.46875 76.875 108.625 C 76.3125 108.875 77.65625 109.9375 87.53125 117.125 C 93.75 121.65625 98.875 125.28125 98.9375 125.21875 C 99 125.15625 99.03125 119.75 99 113.21875 L 98.90625 101.375 Z M 88.21875 104.84375 "/>
<path style=" stroke:none;fill-rule:nonzero;fill:rgb(86.666667%,45.882353%,32.54902%);fill-opacity:1;" d="M 100.9375 113.34375 C 100.9375 119.96875 101.0625 125.3125 101.1875 125.25 C 102.125 124.875 123.71875 108.90625 123.53125 108.71875 C 123.375 108.59375 120.34375 107.5625 116.71875 106.40625 C 113.125 105.25 108.09375 103.625 105.5625 102.8125 L 100.9375 101.3125 Z M 100.9375 113.34375 "/>
<path style=" stroke:none;fill-rule:nonzero;fill:rgb(86.666667%,45.882353%,32.54902%);fill-opacity:1;" d="M 184.875 112.75 C 182.15625 118.84375 179.84375 124.09375 179.78125 124.375 C 179.65625 124.8125 180.71875 125.25 185.625 126.84375 C 188.9375 127.90625 191.6875 128.71875 191.78125 128.625 C 192.09375 128.3125 191.875 123.75 190.96875 113 C 190.4375 106.8125 189.96875 101.75 189.9375 101.6875 C 189.875 101.65625 187.59375 106.625 184.875 112.75 Z M 184.875 112.75 "/>
<path style=" stroke:none;fill-rule:nonzero;fill:rgb(86.666667%,45.882353%,32.54902%);fill-opacity:1;" d="M 10 102.375 C 10 102.6875 9.5625 107.96875 9.0625 114.0625 C 8.09375 125.375 8 127.4375 8.3125 128.21875 C 8.4375 128.5625 9.59375 128.3125 14.3125 126.78125 C 17.53125 125.75 20.21875 124.875 20.25 124.8125 C 20.3125 124.78125 19.78125 123.4375 19.0625 121.8125 C 18.34375 120.21875 16.0625 115.09375 14 110.46875 C 11.9375 105.8125 10.1875 101.96875 10.125 101.90625 C 10.0625 101.84375 10 102.03125 10 102.375 Z M 10 102.375 "/>
<path style=" stroke:none;fill-rule:nonzero;fill:rgb(86.666667%,45.882353%,32.54902%);fill-opacity:1;" d="M 59.25 114.25 C 52.1875 116.5625 46.375 118.5 46.3125 118.5625 C 46.25 118.625 51.375 123.25 57.71875 128.84375 C 68.75 138.5625 69.21875 138.9375 69.4375 138.15625 C 69.5625 137.71875 70.3125 131.65625 71.09375 124.6875 C 71.875 117.71875 72.59375 111.5625 72.6875 111 C 72.78125 110.3125 72.71875 110 72.4375 110.03125 C 72.21875 110.03125 66.28125 111.9375 59.25 114.25 Z M 59.25 114.25 "/>
<path style=" stroke:none;fill-rule:nonzero;fill:rgb(86.666667%,45.882353%,32.54902%);fill-opacity:1;" d="M 127.34375 111.3125 C 127.4375 112.0625 128.15625 118.28125 128.9375 125.15625 C 129.71875 132.03125 130.4375 137.9375 130.5625 138.3125 C 130.75 138.875 132.15625 137.75 142.375 128.78125 L 153.96875 118.59375 L 147.6875 116.5 C 138.03125 113.28125 127.8125 110 127.46875 110 C 127.28125 110 127.21875 110.53125 127.34375 111.3125 Z M 127.34375 111.3125 "/>
<path style=" stroke:none;fill-rule:nonzero;fill:rgb(86.666667%,45.882353%,32.54902%);fill-opacity:1;" d="M 74.6875 110.6875 C 74.65625 110.90625 73.90625 117.40625 73 125.15625 C 72.0625 132.875 71.34375 139.25 71.40625 139.3125 C 71.53125 139.4375 97.8125 127.34375 97.8125 127.15625 C 97.8125 127 76.4375 111.34375 75.09375 110.53125 C 74.84375 110.375 74.6875 110.4375 74.6875 110.6875 Z M 74.6875 110.6875 "/>
<path style=" stroke:none;fill-rule:nonzero;fill:rgb(86.666667%,45.882353%,32.54902%);fill-opacity:1;" d="M 113.65625 118.625 C 107.34375 123.1875 102.1875 127.03125 102.1875 127.15625 C 102.1875 127.28125 104.46875 128.4375 107.28125 129.6875 C 110.0625 130.9375 113.625 132.5625 115.15625 133.28125 C 122.28125 136.625 128.5 139.40625 128.59375 139.3125 C 128.6875 139.21875 125.40625 111.0625 125.25 110.59375 C 125.1875 110.4375 119.96875 114.03125 113.65625 118.625 Z M 113.65625 118.625 "/>
<path style=" stroke:none;fill-rule:nonzero;fill:rgb(86.666667%,45.882353%,32.54902%);fill-opacity:1;" d="M 156.71875 133.1875 C 156.59375 140.71875 156.5625 146.96875 156.625 147.03125 C 156.78125 147.1875 176 126.5 176.1875 126 C 176.21875 125.84375 175.96875 125.625 175.5625 125.5 C 175.15625 125.40625 170.8125 124 165.90625 122.40625 L 156.9375 119.46875 Z M 156.71875 133.1875 "/>
<path style=" stroke:none;fill-rule:nonzero;fill:rgb(86.666667%,45.882353%,32.54902%);fill-opacity:1;" d="M 33.28125 122.71875 C 28.3125 124.34375 24.125 125.78125 24 125.90625 C 23.8125 126.0625 38.375 142.15625 42.65625 146.5625 L 43.40625 147.3125 L 43.3125 144.375 C 43.25 142.75 43.1875 136.53125 43.15625 130.53125 C 43.125 122.0625 43.03125 119.6875 42.75 119.71875 C 42.53125 119.71875 38.28125 121.0625 33.28125 122.71875 Z M 33.28125 122.71875 "/>
<path style=" stroke:none;fill-rule:nonzero;fill:rgb(86.666667%,45.882353%,32.54902%);fill-opacity:1;" d="M 143.375 130.40625 C 137.0625 135.9375 132.03125 140.5625 132.15625 140.71875 C 132.28125 140.84375 137.375 142.625 143.5 144.65625 L 154.59375 148.375 L 154.84375 134.46875 C 154.96875 126.84375 155 120.53125 154.9375 120.46875 C 154.875 120.40625 149.65625 124.875 143.375 130.40625 Z M 143.375 130.40625 "/>
<path style=" stroke:none;fill-rule:nonzero;fill:rgb(86.666667%,45.882353%,32.54902%);fill-opacity:1;" d="M 45.15625 125.375 C 45.21875 128 45.28125 134.28125 45.3125 139.28125 L 45.3125 148.40625 L 56.59375 144.59375 C 62.78125 142.46875 67.875 140.6875 67.90625 140.59375 C 67.96875 140.375 45.5625 120.625 45.25 120.625 C 45.15625 120.625 45.09375 122.78125 45.15625 125.375 Z M 45.15625 125.375 "/>
<path style=" stroke:none;fill-rule:nonzero;fill:rgb(86.666667%,45.882353%,32.54902%);fill-opacity:1;" d="M 178.90625 126.96875 C 178.5625 127.875 173.75 151.03125 173.875 151.15625 C 174.0625 151.34375 190 132.8125 190.53125 131.75 C 190.78125 131.28125 190.875 130.75 190.71875 130.625 C 190.59375 130.5 187.90625 129.53125 184.75 128.5 C 180.8125 127.1875 179 126.71875 178.90625 126.96875 Z M 178.90625 126.96875 "/>
<path style=" stroke:none;fill-rule:nonzero;fill:rgb(86.666667%,45.882353%,32.54902%);fill-opacity:1;" d="M 14.6875 128.78125 C 11.6875 129.78125 9.1875 130.625 9.125 130.625 C 9.09375 130.625 9.3125 131.15625 9.65625 131.78125 C 10.25 132.9375 25.90625 151.375 26.09375 151.1875 C 26.15625 151.125 25.0625 145.65625 23.65625 139.0625 C 21.71875 130.03125 20.96875 127.03125 20.625 126.96875 C 20.375 126.9375 17.6875 127.75 14.6875 128.78125 Z M 14.6875 128.78125 "/>
<path style=" stroke:none;fill-rule:nonzero;fill:rgb(86.666667%,45.882353%,32.54902%);fill-opacity:1;" d="M 166.90625 139 L 157.46875 149.21875 L 158.65625 149.71875 C 160.875 150.65625 170.9375 153.875 171.09375 153.6875 C 171.28125 153.5 176.5625 128.96875 176.4375 128.84375 C 176.40625 128.78125 172.125 133.375 166.90625 139 Z M 166.90625 139 "/>
<path style=" stroke:none;fill-rule:nonzero;fill:rgb(86.666667%,45.882353%,32.54902%);fill-opacity:1;" d="M 23.75 129.5 C 23.75 130.125 28.6875 153.5 28.875 153.65625 C 28.96875 153.75 32.0625 152.8125 35.78125 151.5625 L 42.5625 149.3125 L 41.65625 148.3125 C 41.15625 147.78125 37.9375 144.3125 34.53125 140.625 C 25.3125 130.65625 23.75 129.03125 23.75 129.5 Z M 23.75 129.5 "/>
<path style=" stroke:none;fill-rule:nonzero;fill:rgb(86.666667%,45.882353%,32.54902%);fill-opacity:1;" d="M 85.25 135.125 L 72.25 141.125 L 75.09375 142.875 C 76.6875 143.8125 80.78125 146.25 84.21875 148.28125 C 87.65625 150.3125 92.15625 153 94.21875 154.25 C 96.28125 155.5 98.21875 156.625 98.53125 156.71875 C 99.03125 156.9375 99.0625 156.15625 99.0625 143 C 99.0625 132.03125 98.96875 129.0625 98.6875 129.09375 C 98.46875 129.09375 92.40625 131.8125 85.25 135.125 Z M 85.25 135.125 "/>
<path style=" stroke:none;fill-rule:nonzero;fill:rgb(86.666667%,45.882353%,32.54902%);fill-opacity:1;" d="M 100.9375 143 C 100.9375 152.21875 101.03125 156.90625 101.25 156.8125 C 101.90625 156.59375 127.46875 141.40625 127.5 141.21875 C 127.5 141.03125 126.34375 140.46875 114.53125 135.09375 C 110.59375 133.28125 106.03125 131.1875 104.40625 130.4375 C 102.8125 129.6875 101.375 129.0625 101.21875 129.0625 C 101.0625 129.0625 100.9375 135.09375 100.9375 143 Z M 100.9375 143 "/>
<path style=" stroke:none;fill-rule:nonzero;fill:rgb(86.666667%,45.882353%,32.54902%);fill-opacity:1;" d="M 179.875 147.40625 C 176.5 151.3125 173.75 154.59375 173.75 154.6875 C 173.75 154.8125 174.5625 155.125 175.5625 155.4375 C 176.53125 155.75 177.5 156.09375 177.71875 156.15625 C 177.90625 156.25 179.625 153.1875 181.875 148.6875 C 183.96875 144.5 185.84375 140.90625 186 140.6875 C 186.1875 140.5 186.25 140.3125 186.15625 140.3125 C 186.0625 140.3125 183.21875 143.5 179.875 147.40625 Z M 179.875 147.40625 "/>
<path style=" stroke:none;fill-rule:nonzero;fill:rgb(86.666667%,45.882353%,32.54902%);fill-opacity:1;" d="M 17.96875 148.34375 L 21.9375 156.1875 L 23.84375 155.5625 C 24.90625 155.21875 25.875 154.8125 26 154.71875 C 26.1875 154.5625 16.09375 142.53125 14.3125 140.78125 C 14.125 140.59375 15.78125 144 17.96875 148.34375 Z M 17.96875 148.34375 "/>
<path style=" stroke:none;fill-rule:nonzero;fill:rgb(86.666667%,45.882353%,32.54902%);fill-opacity:1;" d="M 57.71875 146.21875 C 51.71875 148.21875 46.875 150 46.90625 150.15625 C 46.96875 150.5 68.4375 166.25 68.84375 166.25 C 68.96875 166.25 69.0625 160.90625 69.0625 154.375 C 69.0625 147.84375 68.96875 142.5 68.84375 142.53125 C 68.6875 142.53125 63.6875 144.1875 57.71875 146.21875 Z M 57.71875 146.21875 "/>
<path style=" stroke:none;fill-rule:nonzero;fill:rgb(86.666667%,45.882353%,32.54902%);fill-opacity:1;" d="M 130.90625 142.71875 C 130.84375 142.84375 130.84375 148.28125 130.9375 154.78125 L 131.09375 166.5625 L 132.1875 165.6875 C 133.15625 164.90625 149.65625 152.90625 152.4375 150.96875 C 153.03125 150.5625 153.375 150.125 153.21875 150 C 153.09375 149.875 148.1875 148.1875 142.34375 146.25 C 136.5 144.3125 131.5625 142.65625 131.375 142.59375 C 131.15625 142.53125 130.9375 142.5625 130.90625 142.71875 Z M 130.90625 142.71875 "/>
<path style=" stroke:none;fill-rule:nonzero;fill:rgb(86.666667%,45.882353%,32.54902%);fill-opacity:1;" d="M 71.15625 143.03125 C 71.0625 143.15625 70.96875 148.59375 70.96875 155.09375 C 70.90625 165.53125 70.96875 166.90625 71.375 166.8125 C 72.6875 166.53125 97.5 158.5625 97.5 158.4375 C 97.5 158.34375 96.125 157.5 94.4375 156.53125 C 91.875 155.0625 75.4375 145.3125 72.28125 143.40625 C 71.75 143.0625 71.21875 142.90625 71.15625 143.03125 Z M 71.15625 143.03125 "/>
<path style=" stroke:none;fill-rule:nonzero;fill:rgb(86.666667%,45.882353%,32.54902%);fill-opacity:1;" d="M 115.5625 150.5625 C 108.40625 154.8125 102.53125 158.34375 102.53125 158.4375 C 102.5 158.59375 128.375 166.875 128.84375 166.875 C 129.125 166.875 129.09375 144.125 128.8125 143.375 C 128.625 142.96875 126.28125 144.25 115.5625 150.5625 Z M 115.5625 150.5625 "/>
<path style=" stroke:none;fill-rule:nonzero;fill:rgb(86.666667%,45.882353%,32.54902%);fill-opacity:1;" d="M 36.75 153.25 L 30.21875 155.53125 L 38.625 161.65625 C 43.25 165.03125 47.0625 167.71875 47.15625 167.625 C 47.34375 167.46875 43.65625 150.9375 43.4375 150.96875 C 43.34375 150.96875 40.34375 152 36.75 153.25 Z M 36.75 153.25 "/>
<path style=" stroke:none;fill-rule:nonzero;fill:rgb(86.666667%,45.882353%,32.54902%);fill-opacity:1;" d="M 154.46875 159.375 C 153.4375 164 152.65625 167.8125 152.71875 167.8125 C 152.9375 167.8125 169.375 155.875 169.53125 155.625 C 169.625 155.5 166.84375 154.4375 163.34375 153.28125 C 159.875 152.125 156.875 151.09375 156.6875 151.03125 C 156.5 150.96875 155.625 154.15625 154.46875 159.375 Z M 154.46875 159.375 "/>
<path style=" stroke:none;fill-rule:nonzero;fill:rgb(86.666667%,45.882353%,32.54902%);fill-opacity:1;" d="M 45.9375 152.4375 C 45.9375 152.90625 49.59375 169.0625 49.71875 169.15625 C 49.9375 169.34375 66.875 167.6875 66.875 167.5 C 66.875 167.375 62.96875 164.46875 58.21875 161 C 46.125 152.25 45.9375 152.125 45.9375 152.4375 Z M 45.9375 152.4375 "/>
<path style=" stroke:none;fill-rule:nonzero;fill:rgb(86.666667%,45.882353%,32.54902%);fill-opacity:1;" d="M 143.28125 159.90625 C 133.15625 167.3125 132.71875 167.65625 133.75 167.75 C 134.34375 167.8125 138.28125 168.1875 142.5 168.5625 C 146.71875 168.96875 150.1875 169.25 150.25 169.21875 C 150.4375 169.0625 154.0625 152.65625 153.96875 152.40625 C 153.9375 152.28125 149.125 155.65625 143.28125 159.90625 Z M 143.28125 159.90625 "/>
<path style=" stroke:none;fill-rule:nonzero;fill:rgb(86.666667%,45.882353%,32.54902%);fill-opacity:1;" d="M 171.40625 157.9375 C 170.90625 158.8125 169.28125 161.5625 167.8125 164.0625 C 166.3125 166.5625 164.9375 168.9375 164.71875 169.375 C 164.5 169.8125 167.0625 167.40625 170.4375 164.0625 C 173.78125 160.71875 176.4375 157.90625 176.3125 157.78125 C 176.1875 157.6875 175.25 157.3125 174.1875 156.96875 L 172.3125 156.34375 Z M 171.40625 157.9375 "/>
<path style=" stroke:none;fill-rule:nonzero;fill:rgb(86.666667%,45.882353%,32.54902%);fill-opacity:1;" d="M 25.25 157.125 C 24.4375 157.40625 23.71875 157.71875 23.625 157.8125 C 23.53125 157.90625 26.21875 160.71875 29.59375 164.0625 C 33.125 167.59375 35.4375 169.6875 35.09375 169.0625 C 30.3125 160.75 27.6875 156.5625 27.21875 156.59375 C 26.9375 156.59375 26.0625 156.84375 25.25 157.125 Z M 25.25 157.125 "/>
<path style=" stroke:none;fill-rule:nonzero;fill:rgb(86.666667%,45.882353%,32.54902%);fill-opacity:1;" d="M 31.96875 159.875 C 33.46875 162.71875 41.40625 175.90625 42 176.5 L 42.71875 177.21875 L 45.125 173.875 C 46.46875 172.0625 47.4375 170.4375 47.28125 170.3125 C 46.96875 170.03125 32.5 159.59375 31.9375 159.25 C 31.59375 159.0625 31.625 159.1875 31.96875 159.875 Z M 31.96875 159.875 "/>
<path style=" stroke:none;fill-rule:nonzero;fill:rgb(86.666667%,45.882353%,32.54902%);fill-opacity:1;" d="M 160.5625 164.5625 C 156.40625 167.59375 152.84375 170.1875 152.6875 170.3125 C 152.53125 170.46875 153.53125 172.0625 154.84375 173.90625 L 157.28125 177.25 L 158 176.5 C 158.40625 176.09375 159.875 173.8125 161.28125 171.40625 C 162.6875 169 164.5625 165.84375 165.40625 164.375 C 168 160 168.5 159.0625 168.34375 159.0625 C 168.25 159.0625 164.75 161.53125 160.5625 164.5625 Z M 160.5625 164.5625 "/>
<path style=" stroke:none;fill-rule:nonzero;fill:rgb(86.666667%,45.882353%,32.54902%);fill-opacity:1;" d="M 95.78125 161.09375 C 94.0625 161.625 88.3125 163.46875 82.96875 165.15625 C 77.65625 166.84375 73.1875 168.3125 73.03125 168.4375 C 72.90625 168.53125 78.65625 171.34375 85.8125 174.65625 C 92.9375 177.96875 98.875 180.625 98.9375 180.53125 C 99 180.46875 99.03125 175.84375 99 170.25 L 98.90625 160.09375 Z M 95.78125 161.09375 "/>
<path style=" stroke:none;fill-rule:nonzero;fill:rgb(86.666667%,45.882353%,32.54902%);fill-opacity:1;" d="M 100.9375 170.375 C 100.9375 179.8125 100.96875 180.6875 101.4375 180.5 C 104.1875 179.4375 127.125 168.59375 126.96875 168.40625 C 126.75 168.25 114.625 164.34375 103.21875 160.75 L 100.9375 160.0625 Z M 100.9375 170.375 "/>
<path style=" stroke:none;fill-rule:nonzero;fill:rgb(86.666667%,45.882353%,32.54902%);fill-opacity:1;" d="M 61.5625 170.03125 C 58.375 170.34375 54.84375 170.71875 53.6875 170.84375 L 51.59375 171.09375 L 60.09375 177.25 C 64.75 180.625 68.59375 183.375 68.625 183.34375 C 68.65625 183.3125 68.75 180.15625 68.84375 176.3125 L 69.0625 169.375 L 68.1875 169.40625 C 67.71875 169.4375 64.75 169.71875 61.5625 170.03125 Z M 61.5625 170.03125 "/>
<path style=" stroke:none;fill-rule:nonzero;fill:rgb(86.666667%,45.882353%,32.54902%);fill-opacity:1;" d="M 130.96875 172.25 C 131 173.84375 131.09375 177.03125 131.21875 179.3125 L 131.40625 183.4375 L 139.90625 177.28125 C 144.5625 173.875 148.21875 171.0625 148.03125 171.03125 C 147.6875 170.9375 131.46875 169.375 131.09375 169.375 C 131 169.375 130.96875 170.6875 130.96875 172.25 Z M 130.96875 172.25 "/>
<path style=" stroke:none;fill-rule:nonzero;fill:rgb(86.666667%,45.882353%,32.54902%);fill-opacity:1;" d="M 70.8125 172.875 C 70.71875 174.4375 70.625 177.6875 70.625 180.09375 L 70.625 184.46875 L 71.8125 184.28125 C 72.4375 184.1875 78.125 183.5625 84.46875 182.9375 C 90.78125 182.28125 95.9375 181.65625 95.9375 181.5625 C 95.9375 181.40625 90.03125 178.625 73.5 171.03125 C 72.28125 170.46875 71.1875 170 71.125 170 C 71.09375 170 70.9375 171.28125 70.8125 172.875 Z M 70.8125 172.875 "/>
<path style=" stroke:none;fill-rule:nonzero;fill:rgb(86.666667%,45.882353%,32.54902%);fill-opacity:1;" d="M 116.34375 175.71875 C 109.59375 178.84375 104.0625 181.46875 104.0625 181.5625 C 104.0625 181.65625 109.15625 182.28125 115.40625 182.9375 C 121.625 183.5625 127.3125 184.1875 128.0625 184.28125 L 129.375 184.46875 L 129.375 181.96875 C 129.375 177.90625 128.96875 170 128.78125 170.03125 C 128.6875 170.03125 123.0625 172.59375 116.34375 175.71875 Z M 116.34375 175.71875 "/>
<path style=" stroke:none;fill-rule:nonzero;fill:rgb(86.666667%,45.882353%,32.54902%);fill-opacity:1;" d="M 46.75 174.84375 C 45.4375 176.6875 44.375 178.21875 44.375 178.28125 C 44.375 178.71875 47.59375 179.5625 55.8125 181.40625 C 60.875 182.53125 65.09375 183.4375 65.1875 183.4375 C 65.28125 183.4375 61.96875 180.96875 57.78125 177.9375 C 53.59375 174.90625 49.9375 172.21875 49.65625 172 C 49.21875 171.59375 48.90625 171.90625 46.75 174.84375 Z M 46.75 174.84375 "/>
<path style=" stroke:none;fill-rule:nonzero;fill:rgb(86.666667%,45.882353%,32.54902%);fill-opacity:1;" d="M 142.71875 177.5625 C 138.28125 180.78125 134.71875 183.4375 134.8125 183.4375 C 135.75 183.4375 153.8125 179.1875 154.625 178.78125 L 155.65625 178.25 L 153.40625 175.15625 C 152.1875 173.4375 151.09375 171.9375 150.96875 171.84375 C 150.875 171.75 147.15625 174.3125 142.71875 177.5625 Z M 142.71875 177.5625 "/>
<path style=" stroke:none;fill-rule:nonzero;fill:rgb(86.666667%,45.882353%,32.54902%);fill-opacity:1;" d="M 56.25 184.40625 C 60 186.40625 68.375 190.625 68.59375 190.625 C 68.6875 190.625 68.75 189.625 68.6875 188.375 L 68.59375 186.125 L 61.09375 184.46875 C 56.96875 183.5625 53.53125 182.84375 53.4375 182.84375 C 53.34375 182.8125 54.625 183.53125 56.25 184.40625 Z M 56.25 184.40625 "/>
<path style=" stroke:none;fill-rule:nonzero;fill:rgb(86.666667%,45.882353%,32.54902%);fill-opacity:1;" d="M 139.53125 184.34375 C 135.9375 185.15625 132.59375 185.9375 132.125 186.03125 C 131.28125 186.25 131.25 186.3125 131.25 188.4375 C 131.25 189.65625 131.34375 190.625 131.5 190.625 C 131.625 190.625 135.09375 188.875 139.21875 186.71875 C 143.34375 184.59375 146.59375 182.84375 146.40625 182.84375 C 146.25 182.875 143.15625 183.53125 139.53125 184.34375 Z M 139.53125 184.34375 "/>
<path style=" stroke:none;fill-rule:nonzero;fill:rgb(86.666667%,45.882353%,32.54902%);fill-opacity:1;" d="M 85.375 184.6875 C 79.3125 185.34375 74.21875 185.9375 74.03125 186 C 73.84375 186.0625 75.09375 186.6875 76.78125 187.40625 C 78.46875 188.09375 83.75 190.3125 88.5 192.3125 C 93.25 194.3125 97.5625 195.9375 98.09375 195.9375 L 99.0625 195.9375 L 99.0625 183.4375 L 97.75 183.46875 C 97 183.5 91.4375 184.03125 85.375 184.6875 Z M 85.375 184.6875 "/>
<path style=" stroke:none;fill-rule:nonzero;fill:rgb(86.666667%,45.882353%,32.54902%);fill-opacity:1;" d="M 100.9375 189.6875 L 100.9375 195.9375 L 101.875 195.9375 C 102.65625 195.9375 126.375 186.25 126.15625 186.03125 C 126.03125 185.9375 102.5625 183.4375 101.6875 183.4375 L 100.9375 183.4375 Z M 100.9375 189.6875 "/>
<path style=" stroke:none;fill-rule:nonzero;fill:rgb(86.666667%,45.882353%,32.54902%);fill-opacity:1;" d="M 70.625 189.1875 C 70.625 191.84375 70.28125 191.5625 74.0625 192.15625 C 78.03125 192.8125 86.125 194.0625 87.34375 194.21875 L 88.59375 194.375 L 87.1875 193.78125 C 86.40625 193.46875 82.5625 191.84375 78.59375 190.15625 C 74.65625 188.5 71.21875 187.0625 71.03125 186.96875 C 70.71875 186.84375 70.625 187.40625 70.625 189.1875 Z M 70.625 189.1875 "/>
<path style=" stroke:none;fill-rule:nonzero;fill:rgb(86.666667%,45.882353%,32.54902%);fill-opacity:1;" d="M 120.5625 190.5625 C 115.78125 192.53125 111.9375 194.21875 111.96875 194.28125 C 112.125 194.40625 129.0625 191.6875 129.25 191.5 C 129.34375 191.40625 129.375 190.34375 129.3125 189.125 L 129.21875 186.90625 Z M 120.5625 190.5625 "/>
</g>
</svg>
