<?xml version="1.0" encoding="utf-8"?>
<!-- Generator: Adobe Illustrator 26.4.1, SVG Export Plug-In . SVG Version: 6.00 Build 0)  -->
<svg version="1.1" id="Layer_1" xmlns="http://www.w3.org/2000/svg" xmlns:xlink="http://www.w3.org/1999/xlink" x="0px" y="0px"
	 viewBox="0 0 200 200" style="enable-background:new 0 0 200 200;" xml:space="preserve">
<style type="text/css">
	.st0{fill:#DD7553;}
	.st1{fill-rule:evenodd;clip-rule:evenodd;fill:#FBD52E;}
</style>
<g id="surface1_00000103952586526197117280000014580147660692068490_">
	<path class="st0" d="M96.5,10.5c-1.3,0.5-15.2,6.6-15.8,6.9c-0.3,0.1,3.4,0.3,8.9,0.3h9.3v-3.8c0-3.7,0-3.8-0.6-3.8
		C97.9,10.2,97.1,10.3,96.5,10.5z"/>
	<path class="st0" d="M100.6,13.9v3.8h9.3c5.4,0,9.1-0.1,8.8-0.3c-1.3-0.8-16.4-7.1-17.2-7.3l-1-0.2V13.9z"/>
	<path class="st0" d="M86,12c-1.2,0.2-4.4,0.7-7.2,1.2c-2.7,0.4-5,0.8-5.1,0.9c-0.1,0.1,0.4,0.8,1,1.7c0.6,0.8,1.1,1.6,1.1,1.6
		c0,0.1,12.8-5.5,13-5.7C89.1,11.5,88.5,11.6,86,12z"/>
	<path class="st0" d="M111.5,12c0.1,0.1,2.8,1.3,6,2.8l5.9,2.6l1.2-1.6c0.6-0.9,1.1-1.6,1.1-1.7c-0.1-0.1-13.4-2.2-14-2.2
		C111.6,11.9,111.5,11.9,111.5,12z"/>
	<path class="st0" d="M64.4,18.1c-3.9,2-7,3.6-7,3.7c0.1,0.1,10.9-2.4,15.3-3.5L74,18l-1.2-1.7c-0.6-0.9-1.2-1.7-1.2-1.7
		C71.5,14.5,68.3,16.2,64.4,18.1z"/>
	<path class="st0" d="M126.8,16.2l-1.2,1.7l4,0.9c2.2,0.5,5.9,1.4,8.1,1.9c2.3,0.6,4.1,0.9,4.2,0.9c0-0.1-3.1-1.7-6.9-3.6l-7-3.5
		L126.8,16.2z"/>
	<path class="st0" d="M78.7,21.2c0.7,0.9,2.3,3.3,3.7,5.3c1.4,2,2.6,3.6,2.7,3.6c0.1,0,1-0.8,2.1-1.7c1.1-0.9,2.8-2.5,3.9-3.4
		c1.1-1,2.6-2.3,3.3-3c0.7-0.7,1.7-1.5,2.1-1.8l0.7-0.6l-9.9,0h-9.9L78.7,21.2z"/>
	<path class="st0" d="M103.3,20.4c0.6,0.5,1.8,1.6,2.8,2.4c1,0.8,2.3,2.1,3.1,2.7c2.7,2.4,5.2,4.5,5.3,4.5c0.1,0,1.8-2.4,3.9-5.3
		l3.7-5.3h-19.7L103.3,20.4z"/>
	<path class="st0" d="M73.8,21.5c-0.8,0.8-2.2,2-3.1,2.8C60.5,33.5,58,35.8,58.2,35.8c0.3,0.1,24.4-4.7,24.7-4.9
		c0.2-0.2-6.8-10.3-7.4-10.7C75.4,20.2,74.6,20.8,73.8,21.5z"/>
	<path class="st0" d="M95.4,23.7c-2.2,2-4.8,4.3-5.9,5.2l-1.9,1.7h24.3l-0.9-0.8c-0.5-0.4-1.3-1.2-1.9-1.7c-2.4-2.1-6.1-5.4-7.4-6.6
		c-0.8-0.8-1.7-1.4-1.9-1.4C99.5,20.1,97.5,21.7,95.4,23.7z"/>
	<path class="st0" d="M123.4,21c-3.1,4.2-6.9,9.8-6.7,9.9c0.3,0.3,24.3,5,24.7,4.9c0.1-0.1-1.2-1.3-2.9-2.8
		c-3.9-3.5-7.2-6.4-11.2-10.1l-3.2-2.9L123.4,21z"/>
	<path class="st0" d="M60.8,23c-6,1.4-11.5,2.8-12.1,3.1l-1.1,0.5l3,4.1c1.7,2.3,3.2,4.5,3.5,4.8l0.5,0.7l3-2.8
		c1.7-1.5,5.6-5.1,8.7-7.9c4.9-4.4,5.9-5.4,5.6-5.3C71.8,20.4,66.8,21.6,60.8,23z"/>
	<path class="st0" d="M129.1,21.9c1.6,1.4,7.9,7.2,10,9.1c0.5,0.5,2,1.8,3.3,2.9c1.3,1.2,2.4,2.1,2.5,2.1c0.1,0,1.8-2.1,3.6-4.7
		l3.4-4.7l-1-0.5c-0.5-0.3-5.6-1.6-11.2-2.9c-5.7-1.3-10.7-2.5-11.3-2.6l-1-0.3L129.1,21.9z"/>
	<path class="st0" d="M150.1,32.4c-1.9,2.6-3.4,4.8-3.4,4.9s1.8,1.2,3.9,2.5c2.1,1.2,6.7,3.9,10.3,5.9c4.4,2.5,6.3,3.5,6,3
		c-0.2-0.4-2.2-3.6-4.3-7.1c-6.4-10.5-7.9-12.9-8.4-13.4C153.5,27.7,153.3,28,150.1,32.4z"/>
	<path class="st0" d="M45.3,28.5c-0.6,0.5-1.5,1.8-6.6,10.5c-1.6,2.7-3.7,6.1-4.5,7.4c-0.8,1.3-1.5,2.5-1.4,2.5
		c0.1,0.1,4.6-2.5,10.1-5.7c6.6-3.8,10-5.9,9.9-6.2c-0.2-0.6-6.4-9.1-6.6-9.1C46,28,45.7,28.2,45.3,28.5z"/>
	<path class="st0" d="M88.7,35.2c1,1.4,2.3,3.2,2.9,4c0.6,0.8,2.6,3.7,4.5,6.4c1.9,2.7,3.6,4.9,3.7,4.8c0.1-0.1,2.1-2.7,4.3-5.8
		c2.2-3.1,5.1-7.1,6.3-8.9l2.3-3.1H86.9L88.7,35.2z"/>
	<path class="st0" d="M118.3,35c0.8,1.1,3.9,5.3,7,9.5c3.1,4.2,5.9,8,6.2,8.5l0.7,0.8l5.6-7.7c3.1-4.2,5.5-7.8,5.4-7.8
		c-0.1,0-6.1-1.2-13.3-2.6l-13.1-2.6L118.3,35z"/>
	<path class="st0" d="M68.9,35.8c-6.8,1.3-12.4,2.5-12.5,2.5c-0.2,0.1,9.7,14,10.9,15.3c0.1,0.1,1.9-2.1,3.9-4.8
		c5.5-7.5,10.1-13.8,10.5-14.3c0.8-1,0.8-1.2,0.1-1.1C81.5,33.3,75.7,34.4,68.9,35.8z"/>
	<path class="st0" d="M83.2,35.7c-1,1.3-4.4,6-7.6,10.4c-3.3,4.4-5.9,8.1-5.8,8.1c0.1,0.1,27.4-2.5,27.9-2.6
		c0.2-0.1-2.6-4.2-6.2-9.2l-6.5-9.1L83.2,35.7z"/>
	<path class="st0" d="M113.3,35.2c-0.6,0.9-1.8,2.6-2.7,3.7c-3.4,4.7-9,12.6-9,12.7c0,0,5.8,0.6,12.9,1.3c7.1,0.6,13.4,1.3,14.1,1.3
		c0.7,0.1,1.2,0.1,1.2,0c0-0.1-0.7-1.1-1.6-2.3c-3.2-4.2-11-14.7-12.2-16.5c-0.7-1-1.4-1.8-1.5-1.8
		C114.6,33.6,113.9,34.3,113.3,35.2z"/>
	<path class="st0" d="M32.9,40.9c-3.9,4-5.7,6-5.5,6.2c1.3,1.8,2.2,2.8,2.3,2.8c0.1,0,0.5-0.6,0.9-1.3c0.4-0.7,1.8-3,3.1-5.2
		c2.9-4.7,5.1-8.5,5-8.5C38.7,35,36.1,37.7,32.9,40.9z"/>
	<path class="st0" d="M160.7,35.2c0.3,0.6,8.8,14.6,9,14.9c0.1,0.1,0.8-0.6,1.5-1.6l1.3-1.8l-5.9-5.9
		C163.3,37.5,160.7,35,160.7,35.2z"/>
	<path class="st0" d="M139.4,47c-3,4.2-5.6,7.7-5.6,7.8c-0.1,0.2,24,8.3,24.2,8.1c0.1-0.1-5.3-9.9-11-20l-2.1-3.6L139.4,47z"/>
	<path class="st0" d="M53.4,41.5c-0.6,1-1.3,2.4-1.7,3c-0.4,0.6-1.3,2.3-2.1,3.7c-0.8,1.4-1.6,3-2,3.5c-0.3,0.6-1.6,2.8-2.8,5
		c-1.2,2.2-2.5,4.5-2.8,5.1c-0.3,0.6-0.6,1.1-0.6,1.2c0,0.1,5.4-1.7,12-3.9c6.6-2.2,12-4.1,12-4.2c0-0.3-10.7-15.1-11-15.1
		C54.5,39.7,54,40.5,53.4,41.5z"/>
	<path class="st0" d="M147.8,40.5c0,0.2,0.2,0.6,4,7.3c2.4,4.3,2.5,4.6,6.2,11.2l2.3,4.2l4-5.4c2.2-3,4-5.5,3.9-5.6
		c-0.1-0.1-3.8-2.2-14.8-8.6C150.3,41.8,147.8,40.4,147.8,40.5z"/>
	<path class="st0" d="M49.1,41.8c-11.8,6.8-17.7,10.2-17.8,10.3c-0.1,0.1,7.6,10.7,7.8,10.7c0.1,0,0.7-0.9,1.3-2.1
		c0.6-1.2,1.7-3,2.3-4.2c0.6-1.1,2.3-4,3.6-6.4c1.4-2.4,2.9-5.1,3.4-6c0.5-0.9,1.1-2.1,1.4-2.6c0.3-0.5,0.5-0.9,0.3-0.9
		C51.4,40.6,50.3,41.2,49.1,41.8z"/>
	<path class="st0" d="M22.5,55.6c-2,3.9-3.3,6.7-2.9,6.3c0.4-0.4,2.5-2.9,4.8-5.4l4.1-4.7l-1.2-1.6l-1.2-1.7L22.5,55.6z"/>
	<path class="st0" d="M172.2,50.2l-1.2,1.7l4.2,4.8c2.3,2.6,4.5,5.1,4.9,5.5c0.4,0.4-0.9-2.5-2.9-6.4c-2-3.9-3.6-7.1-3.7-7.2
		C173.5,48.6,172.8,49.3,172.2,50.2z"/>
	<path class="st0" d="M94.6,53.9c-0.1,0.1-5.8,0.6-12.6,1.2c-6.8,0.6-12.4,1.2-12.5,1.3c-0.1,0.1,2.5,3.8,5.7,8.2
		c3.2,4.4,6.6,9.1,7.5,10.3c0.9,1.3,1.7,2.3,1.8,2.3c0.1,0,1.1-1.5,2.1-3.4c1-1.9,2.6-4.7,3.5-6.2c2.9-5,7.6-13.5,7.6-13.6
		S95.1,53.7,94.6,53.9z"/>
	<path class="st0" d="M101.8,54c0,0.1,3,5.5,6.6,11.9l6.6,11.7l1.1-1.6c4.2-5.6,13.9-19.2,14-19.4c0.1-0.2-4.4-0.7-13.6-1.6
		C101.8,53.6,101.8,53.6,101.8,54z"/>
	<path class="st0" d="M29.9,54.4c-0.4,1.1-4.3,13.3-5.1,15.7L24,72.7l4.6-2.7c2.5-1.5,5.5-3.3,6.7-4c1.2-0.7,2.2-1.4,2.3-1.6
		C37.7,64,30.1,53.9,29.9,54.4z"/>
	<path class="st0" d="M165.6,59.2c-2.1,2.8-3.7,5.2-3.7,5.3c0,0.2,13.6,8.4,13.7,8.3c0.1-0.1-5.8-18.2-6-18.5
		C169.4,54.1,167.6,56.3,165.6,59.2z"/>
	<path class="st0" d="M98.7,56.3c-0.5,0.9-2.3,4.2-4,7.3c-1.7,3-3.5,6.3-4,7.2c-0.5,0.9-1.1,1.9-1.3,2.3c-0.2,0.4-0.8,1.3-1.2,2.1
		c-0.4,0.8-1,1.8-1.3,2.3l-0.6,1h27l-1.1-2c-5.4-9.7-12.3-21.7-12.4-21.7C99.7,54.6,99.2,55.4,98.7,56.3z"/>
	<path class="st0" d="M25.8,57.8c-0.8,0.9-1.6,1.8-1.7,2c-0.1,0.2-2.2,2.5-4.5,5.1c-4.2,4.7-5.4,6.4-4.6,6.6c1.1,0.4,6.3,2,6.6,2.1
		c0.2,0.1,0.4-0.2,0.5-0.7c0.2-1,5.2-16.3,5.4-16.6C27.7,55.7,27,56.3,25.8,57.8z"/>
	<path class="st0" d="M172.2,56.5c0.1,0.2,1.3,4.1,2.8,8.7c1.5,4.6,2.8,8.4,2.8,8.5c0.1,0.1,6.7-2,7-2.3c0.1-0.1,0.1-0.6-0.1-1
		c-0.4-0.7-12.2-14.3-12.4-14.3C172.1,56.1,172.1,56.3,172.2,56.5z"/>
	<path class="st0" d="M136.5,63.3c5.5,12.9,8.4,19.6,8.6,19.8c0.1,0.1,3.1-3.7,6.7-8.5c7.4-10,7-9.4,6.5-9.6
		c-1.1-0.4-23.9-7.9-24.2-8C133.9,57,135,59.8,136.5,63.3z"/>
	<path class="st0" d="M52.8,61.3l-12,4l0.6,0.9c1.5,2.1,12.8,17.3,12.8,17.1c0-0.1,0.8-2,1.8-4.2c2.3-5.4,8.8-20.3,9.1-21.2
		c0.2-0.4,0.1-0.6-0.1-0.6C64.9,57.3,59.4,59.1,52.8,61.3z"/>
	<path class="st0" d="M67.2,58.5c-0.2,0.6-2.1,4.9-4.2,9.6c-5.7,13.2-6.7,15.5-6.5,15.7c0.1,0.2,26-5,26.2-5.2
		c0.1-0.1-13.9-19.8-14.8-20.8C67.7,57.6,67.4,58,67.2,58.5z"/>
	<path class="st0" d="M124.1,68c-4.2,5.8-7.6,10.5-7.5,10.6c0.1,0.1,26.8,5.5,26.8,5.4c0-0.1-9.4-21.9-10.7-24.8
		c-0.4-0.9-0.8-1.7-0.9-1.7S128.3,62.3,124.1,68z"/>
	<path class="st0" d="M153.2,75.7c-3.5,4.8-6.5,8.8-6.5,9c0,0.2,2.6,1.1,5.9,2.1c3.3,1,8,2.5,10.5,3.3c2.5,0.8,4.7,1.4,4.7,1.3
		c0.1,0-0.8-2.7-1.8-5.8s-2.8-8.6-4-12.2c-1.1-3.6-2.2-6.5-2.3-6.5C159.8,67,156.8,70.9,153.2,75.7z"/>
	<path class="st0" d="M162,67.4c0.1,0.3,1.8,5.4,3.7,11.4c3,9.1,4,12.2,4,11.2c0-0.1,1.4-3.5,3.2-7.5l3.2-7.4l-6.9-4
		c-3.8-2.3-7-4.1-7.2-4.2C161.9,66.9,161.9,67.1,162,67.4z"/>
	<path class="st0" d="M30.4,71.1c-3.6,2.1-6.6,4-6.7,4.1c-0.2,0.1,5.8,14.4,6.2,14.8c0.1,0.1,7.5-22.2,7.5-22.6
		C37.4,67,36.8,67.3,30.4,71.1z"/>
	<path class="st0" d="M39.1,68.6c-0.3,0.8-1.8,5.6-3.5,10.6c-1.6,5.1-3.2,9.8-3.4,10.5c-0.2,0.7-0.4,1.3-0.4,1.5
		c0,0.1,2.3-0.5,5.1-1.4c4.9-1.6,6.2-2,12.3-3.8c1.6-0.5,3-1,3.3-1.1c0.3-0.2-0.6-1.5-3.5-5.4c-2.1-2.8-5-6.7-6.4-8.7
		c-1.4-2-2.7-3.5-2.8-3.5C39.6,67.2,39.3,67.9,39.1,68.6z"/>
	<path class="st0" d="M13.7,73.9c-0.2,0.8,1.3,17.9,1.6,18.3c0.1,0.1,1.4-3.5,2.9-8.1c1.5-4.6,2.7-8.4,2.6-8.5
		c-0.1-0.1-1.6-0.6-3.5-1.3l-3.4-1.2L13.7,73.9z"/>
	<path class="st0" d="M182.1,74.2c-1.8,0.6-3.4,1.3-3.5,1.4c-0.1,0.4,5.1,16.8,5.4,17.1c0.2,0.3,1.8-15.8,1.8-18.2
		c0-0.8-0.1-1.5-0.2-1.5C185.5,73.1,183.9,73.6,182.1,74.2z"/>
	<path class="st0" d="M175.7,80.6c-0.6,1.6-2.1,4.8-3.1,7.2c-1.1,2.4-1.8,4.5-1.7,4.6c0.5,0.4,12.4,4,12.3,3.7
		c-0.1-0.2-1.4-4.4-3-9.4c-1.6-5-3-9-3.1-9C176.9,77.8,176.3,79.1,175.7,80.6z"/>
	<path class="st0" d="M19.3,87.1c-1.6,5-2.9,9.1-2.9,9.1c0.1,0.1,2.3-0.6,7.8-2.3l4.6-1.5l-3.1-7.1c-1.7-4-3.2-7.2-3.3-7.2
		C22.3,78.1,20.9,82.1,19.3,87.1z"/>
	<path class="st0" d="M86.6,80.2c0,0.3,13,17.9,13.2,17.9c0.2,0,11.2-14.9,12.8-17.3l0.4-0.7H99.8C92.5,80.1,86.6,80.2,86.6,80.2z"
		/>
	<path class="st0" d="M116.3,80.9c0.1,0.3,7.4,22.9,8.1,25.1c0.1,0.3,18.4-19.6,18.4-19.9c0-0.1-6-1.4-13.4-2.9
		C119.2,81.1,116.2,80.6,116.3,80.9z"/>
	<path class="st0" d="M69.4,83.3C62.6,84.7,57,85.9,56.9,86c-0.1,0.2,3.4,4.2,8.2,9.3c0.8,0.9,3.3,3.6,5.6,6.1
		c2.2,2.5,4.2,4.5,4.2,4.5c0.1,0,0.9-2.3,1.8-5.1c3-9,6.4-19.7,6.4-19.9C83.1,80.5,81.8,80.8,69.4,83.3z"/>
	<path class="st0" d="M81,93.5c-2.2,6.6-4,12.3-4,12.5c-0.1,0.5-0.5,0.6,12-3.5l9.3-3l-6.1-8.3c-3.3-4.6-6.4-8.7-6.6-9.1L85,81.4
		L81,93.5z"/>
	<path class="st0" d="M108,90.3c-5.8,8-6.8,9.5-6.3,9.5c0.1,0,4.8,1.5,10.5,3.4c5.7,1.8,10.4,3.3,10.4,3.2c0.1-0.1-1.3-4.6-3.2-10.2
		c-4.5-13.8-4.7-14.6-5-14.6C114.4,81.6,111.4,85.5,108,90.3z"/>
	<path class="st0" d="M187.1,82.9c0,0.3-0.4,3.6-0.7,7.3c-0.4,3.7-0.6,6.8-0.6,6.9c0.1,0.3,3.6,1.3,3.8,1.1c0.1-0.1-0.4-3.5-1-7.6
		C187.2,82.5,187.1,82,187.1,82.9z"/>
	<path class="st0" d="M11.1,90.6c-0.6,4.1-1.1,7.6-1.1,7.6c0.2,0.2,3.5-1,3.6-1.3c0.1-0.4-1-13.6-1.2-13.7
		C12.3,83.1,11.7,86.5,11.1,90.6z"/>
	<path class="st0" d="M42.4,90.1c-5.7,1.8-10.4,3.3-10.5,3.3s3.3,4.8,7.4,10.7c4.2,5.8,7.6,10.5,7.6,10.5c0.1-0.1,1.3-5.5,2.8-12.1
		c1.5-6.6,2.8-12.5,2.9-13c0.6-2.2,0.6-2.6,0.4-2.6C52.8,86.9,48.1,88.4,42.4,90.1z"/>
	<path class="st0" d="M146.5,87.8c0.8,4,6,26.7,6.1,26.8c0.1,0.1,14.7-20.1,15-20.8c0.1-0.3-2.3-1.2-10.3-3.7
		c-5.8-1.8-10.6-3.3-10.7-3.3C146.4,86.9,146.4,87.3,146.5,87.8z"/>
	<path class="st0" d="M141.5,90.5c-1.6,1.8-5.8,6.3-9.3,10.1l-6.4,6.9l1.5,0.5c6.8,2.3,23.2,7.5,23.3,7.4c0.1-0.1-5.4-25.2-6.1-27.5
		C144.5,87.4,144.1,87.6,141.5,90.5z"/>
	<path class="st0" d="M54.9,87.6c0,0.1-0.9,4.4-2.1,9.4c-3.9,17.2-4.2,18.3-4,18.4c0.1,0.1,3.7-1.1,8.1-2.5s10-3.3,12.4-4l4.3-1.4
		l-1.1-1.2c-0.6-0.7-2.5-2.8-4.3-4.7c-1.8-1.9-4-4.3-4.9-5.3s-2.6-2.8-3.8-4.1c-1.2-1.3-2.8-2.9-3.4-3.7
		C55.5,87.9,54.9,87.4,54.9,87.6z"/>
	<path class="st0" d="M22.4,96.4c-3.3,1.1-6,2-6.1,2c-0.1,0.1,0.9,2.4,2.1,5.2c1.2,2.8,3.4,7.6,4.8,10.8c2.5,5.7,2.5,5.7,2.7,4.5
		c0.2-1.2,2.9-23.5,2.9-24.1c0-0.2-0.1-0.4-0.2-0.4C28.5,94.5,25.7,95.4,22.4,96.4z"/>
	<path class="st0" d="M170.5,95.1c0.1,0.4,0.7,5.8,1.4,12.1c0.7,6.3,1.4,11.8,1.6,12.2c0.2,0.7,0.8-0.6,5.1-10.1l4.9-10.9l-2.5-0.8
		c-4.9-1.6-9.9-3.1-10.2-3.1C170.6,94.5,170.5,94.8,170.5,95.1z"/>
	<path class="st0" d="M29.2,108.9c-0.8,7.3-1.5,13.2-1.4,13.3c0.1,0.1,4.2-1.1,9.1-2.8l9-2.9l-1-1.3c-0.5-0.7-1.5-2-2.1-2.9
		c-4.2-5.9-11.7-16.3-11.9-16.5C30.9,95.8,30.1,101.6,29.2,108.9z"/>
	<path class="st0" d="M168,96.5c-2.5,3.3-14.4,20-14.3,20.1c0.1,0.1,18.2,6,18.3,5.9c0-0.1-2.9-24.3-3.1-26.3
		C168.7,95.5,168.7,95.5,168,96.5z"/>
	<path class="st0" d="M11.7,99.8c-1.3,0.4-1.8,0.7-1.8,1.1c0,0.8,2.1,13.9,2.3,14.5c0.1,0.3,0.5-3.1,0.9-7.7
		c0.4-4.5,0.6-8.3,0.6-8.3C13.5,99.3,12.7,99.5,11.7,99.8z"/>
	<path class="st0" d="M185.7,99.8c0.1,0.4,0.4,4.4,0.8,8.9c0.4,4.6,0.7,8.2,0.8,8.2c0-0.1,0.6-3.5,1.3-7.6s1.2-7.8,1.3-8.2
		c0.1-0.7,0.1-0.8-1.8-1.4C185.5,99,185.6,99,185.7,99.8z"/>
	<path class="st0" d="M88.7,104.6c-5.5,1.8-10.3,3.4-10.6,3.5c-0.5,0.2,0.7,1.2,10,8c5.8,4.2,10.6,7.6,10.7,7.6
		c0.1-0.1,0.1-5.1,0.1-11.2l-0.1-11.1L88.7,104.6z"/>
	<path class="st0" d="M100.6,112.6c0,6.2,0.1,11.2,0.2,11.2c0.9-0.4,21.1-15.3,20.9-15.5c-0.1-0.1-3-1.1-6.4-2.2
		c-3.4-1.1-8.1-2.6-10.5-3.4l-4.3-1.4V112.6z"/>
	<path class="st0" d="M179.3,112c-2.5,5.7-4.7,10.6-4.8,10.9c-0.1,0.4,0.9,0.8,5.5,2.3c3.1,1,5.7,1.8,5.8,1.7
		c0.3-0.3,0.1-4.6-0.8-14.6c-0.5-5.8-0.9-10.5-1-10.6C184,101.6,181.9,106.3,179.3,112z"/>
	<path class="st0" d="M15.4,102.3c0,0.3-0.4,5.2-0.9,11c-0.9,10.6-1,12.5-0.7,13.3c0.1,0.3,1.2,0.1,5.6-1.3c3-1,5.5-1.8,5.6-1.8
		c0.1,0-0.4-1.3-1.1-2.8c-0.7-1.5-2.8-6.3-4.7-10.6c-1.9-4.4-3.6-8-3.6-8C15.5,101.8,15.4,101.9,15.4,102.3z"/>
	<path class="st0" d="M61.6,113.4c-6.6,2.2-12.1,4-12.1,4c-0.1,0.1,4.7,4.4,10.7,9.6c10.3,9.1,10.8,9.5,11,8.7
		c0.1-0.4,0.8-6.1,1.6-12.6c0.7-6.5,1.4-12.3,1.5-12.8c0.1-0.6,0-0.9-0.2-0.9C73.7,109.4,68.2,111.2,61.6,113.4z"/>
	<path class="st0" d="M125.4,110.6c0.1,0.7,0.8,6.5,1.5,13s1.4,12,1.5,12.3c0.2,0.5,1.5-0.5,11.1-8.9l10.9-9.5l-5.9-2
		c-9.1-3-18.6-6.1-19-6.1C125.3,109.4,125.3,109.9,125.4,110.6z"/>
	<path class="st0" d="M76,110.1c0,0.2-0.7,6.3-1.6,13.6c-0.9,7.2-1.6,13.2-1.5,13.3c0.1,0.1,24.8-11.2,24.8-11.4
		c0-0.1-20-14.8-21.3-15.6C76.2,109.8,76,109.8,76,110.1z"/>
	<path class="st0" d="M112.6,117.5c-5.9,4.3-10.7,7.9-10.7,8c0,0.1,2.1,1.2,4.8,2.4c2.6,1.2,5.9,2.7,7.4,3.4
		c6.7,3.1,12.5,5.7,12.6,5.7c0.1-0.1-3-26.5-3.1-26.9C123.4,109.8,118.5,113.2,112.6,117.5z"/>
	<path class="st0" d="M152.9,131.2c-0.1,7.1-0.1,12.9-0.1,13c0.1,0.1,18.2-19.2,18.3-19.7c0-0.1-0.2-0.4-0.6-0.5
		c-0.4-0.1-4.5-1.4-9.1-2.9l-8.4-2.8L152.9,131.2z"/>
	<path class="st0" d="M37.2,121.3c-4.7,1.5-8.6,2.9-8.7,3c-0.2,0.1,13.5,15.2,17.5,19.4l0.7,0.7l-0.1-2.8c-0.1-1.5-0.1-7.4-0.1-13
		c0-7.9-0.1-10.2-0.4-10.1C45.9,118.5,41.9,119.8,37.2,121.3z"/>
	<path class="st0" d="M140.4,128.5c-5.9,5.2-10.6,9.5-10.5,9.7c0.1,0.1,4.9,1.8,10.6,3.7l10.4,3.5l0.2-13c0.1-7.1,0.1-13.1,0.1-13.1
		C151.2,119.2,146.3,123.4,140.4,128.5z"/>
	<path class="st0" d="M48.4,123.8c0.1,2.5,0.1,8.3,0.1,13v8.6l10.6-3.6c5.8-2,10.6-3.7,10.6-3.7c0.1-0.2-20.9-18.7-21.2-18.7
		C48.4,119.4,48.3,121.4,48.4,123.8z"/>
	<path class="st0" d="M173.7,125.3c-0.3,0.8-4.8,22.6-4.7,22.7c0.2,0.2,15.1-17.2,15.6-18.2c0.2-0.4,0.3-0.9,0.2-1.1
		c-0.1-0.1-2.6-1-5.6-2C175.5,125.5,173.8,125.1,173.7,125.3z"/>
	<path class="st0" d="M19.8,127c-2.8,0.9-5.2,1.7-5.2,1.7c0,0,0.2,0.5,0.5,1.1c0.6,1.1,15.2,18.4,15.4,18.2c0.1-0.1-1-5.2-2.3-11.4
		c-1.8-8.5-2.5-11.3-2.8-11.3C25.1,125.3,22.6,126.1,19.8,127z"/>
	<path class="st0" d="M162.5,136.6l-8.8,9.6l1.1,0.5c2.1,0.9,11.5,3.9,11.7,3.7c0.2-0.2,5.1-23.2,5-23.3
		C171.4,127,167.4,131.3,162.5,136.6z"/>
	<path class="st0" d="M28.3,127.7c0,0.6,4.6,22.5,4.8,22.6c0.1,0.1,3-0.8,6.5-2l6.4-2.1l-0.8-0.9c-0.5-0.5-3.5-3.7-6.7-7.2
		C29.8,128.8,28.3,127.3,28.3,127.7z"/>
	<path class="st0" d="M85.9,133l-12.2,5.6l2.7,1.6c1.5,0.9,5.3,3.2,8.6,5.1c3.2,1.9,7.4,4.4,9.4,5.6s3.7,2.2,4,2.3
		c0.5,0.2,0.5-0.5,0.5-12.9c0-10.3-0.1-13.1-0.4-13C98.3,127.3,92.6,129.9,85.9,133z"/>
	<path class="st0" d="M100.6,140.3c0,8.6,0.1,13,0.3,12.9c0.6-0.2,24.6-14.4,24.6-14.6c0-0.2-1.1-0.7-12.2-5.7
		c-3.7-1.7-8-3.7-9.5-4.4c-1.5-0.7-2.8-1.3-3-1.3C100.8,127.3,100.6,132.9,100.6,140.3z"/>
	<path class="st0" d="M174.6,144.5c-3.2,3.7-5.7,6.7-5.7,6.8c0,0.1,0.8,0.4,1.7,0.7c0.9,0.3,1.8,0.6,2,0.7c0.2,0.1,1.8-2.8,3.9-7
		c2-3.9,3.7-7.3,3.9-7.5c0.2-0.2,0.2-0.4,0.1-0.4S177.8,140.8,174.6,144.5z"/>
	<path class="st0" d="M22.9,145.4l3.7,7.4l1.8-0.6c1-0.3,1.9-0.7,2-0.8c0.2-0.1-9.3-11.4-11-13.1C19.3,138.1,20.8,141.3,22.9,145.4z
		"/>
	<path class="st0" d="M60.1,143.4c-5.6,1.9-10.2,3.5-10.1,3.7c0.1,0.3,20.2,15.1,20.6,15.1c0.1,0,0.2-5,0.2-11.1
		c0-6.1-0.1-11.1-0.2-11.1C70.4,139.9,65.7,141.5,60.1,143.4z"/>
	<path class="st0" d="M128.7,140.1c-0.1,0.1-0.1,5.2,0,11.3l0.1,11l1-0.8c0.9-0.7,16.4-12,19-13.8c0.6-0.4,0.9-0.8,0.7-0.9
		c-0.1-0.1-4.7-1.7-10.2-3.5c-5.5-1.8-10.1-3.4-10.3-3.4C129,139.9,128.8,139.9,128.7,140.1z"/>
	<path class="st0" d="M72.7,140.4c-0.1,0.1-0.2,5.2-0.2,11.3c-0.1,9.8,0,11.1,0.4,11c1.2-0.3,24.5-7.7,24.5-7.8
		c0-0.1-1.3-0.9-2.9-1.8c-2.4-1.4-17.8-10.5-20.8-12.3C73.3,140.4,72.8,140.3,72.7,140.4z"/>
	<path class="st0" d="M114.4,147.4c-6.7,4-12.2,7.3-12.2,7.4c0,0.1,24.2,7.9,24.7,7.9c0.3,0,0.2-21.3,0-22
		C126.6,140.3,124.4,141.5,114.4,147.4z"/>
	<path class="st0" d="M40.5,150l-6.1,2.1l7.9,5.7c4.3,3.2,7.9,5.7,8,5.6c0.2-0.1-3.3-15.6-3.5-15.6C46.7,147.8,43.8,148.8,40.5,150z
		"/>
	<path class="st0" d="M150.8,155.7c-1,4.3-1.7,7.9-1.6,7.9c0.2,0,15.6-11.2,15.8-11.4c0.1-0.1-2.5-1.1-5.8-2.2
		c-3.3-1.1-6.1-2.1-6.2-2.1C152.7,147.8,151.9,150.8,150.8,155.7z"/>
	<path class="st0" d="M49.1,149.2c0,0.4,3.4,15.6,3.5,15.7c0.2,0.2,16.1-1.4,16.1-1.6c0-0.1-3.7-2.8-8.1-6.1
		C49.3,149,49.1,148.9,49.1,149.2z"/>
	<path class="st0" d="M140.3,156.2c-9.5,6.9-9.9,7.3-8.9,7.4c0.6,0.1,4.2,0.4,8.2,0.8c4,0.4,7.2,0.6,7.3,0.6
		c0.2-0.1,3.6-15.5,3.5-15.8C150.3,149,145.8,152.2,140.3,156.2z"/>
	<path class="st0" d="M166.7,154.3c-0.5,0.8-2,3.4-3.4,5.7c-1.4,2.3-2.7,4.6-2.9,5s2.2-1.8,5.4-5c3.1-3.1,5.6-5.8,5.5-5.9
		c-0.1-0.1-1-0.4-2-0.8l-1.8-0.6L166.7,154.3z"/>
	<path class="st0" d="M29.7,153.6c-0.8,0.3-1.4,0.6-1.5,0.6c-0.1,0.1,2.4,2.7,5.6,5.9c3.3,3.3,5.5,5.3,5.2,4.7
		c-4.5-7.8-6.9-11.7-7.4-11.7C31.3,153.1,30.5,153.3,29.7,153.6z"/>
	<path class="st0" d="M36,156.2c1.4,2.7,8.8,15,9.4,15.6l0.7,0.7l2.3-3.1c1.3-1.7,2.2-3.2,2-3.3c-0.3-0.3-13.9-10-14.4-10.4
		C35.6,155.4,35.7,155.5,36,156.2z"/>
	<path class="st0" d="M156.5,160.6c-3.9,2.8-7.2,5.3-7.4,5.4c-0.1,0.1,0.8,1.6,2,3.4l2.3,3.1l0.7-0.7c0.4-0.4,1.8-2.5,3.1-4.8
		s3.1-5.2,3.9-6.6c2.4-4.1,2.9-5,2.8-5C163.7,155.4,160.5,157.7,156.5,160.6z"/>
	<path class="st0" d="M95.8,157.3c-1.6,0.5-7,2.2-12,3.8c-5,1.6-9.2,3-9.3,3.1c-0.1,0.1,5.3,2.7,12,5.8c6.7,3.1,12.2,5.6,12.3,5.5
		c0.1-0.1,0.1-4.4,0.1-9.6l-0.1-9.5L95.8,157.3z"/>
	<path class="st0" d="M100.6,166c0,8.8,0,9.7,0.5,9.5c2.6-1,24.1-11.2,23.9-11.3c-0.2-0.1-11.6-3.8-22.3-7.2l-2.1-0.6V166z"/>
	<path class="st0" d="M63.7,165.7c-3,0.3-6.3,0.6-7.4,0.8l-2,0.2l8,5.8c4.4,3.2,8,5.7,8,5.7c0,0,0.1-3,0.2-6.6l0.2-6.5l-0.8,0
		C69.5,165.1,66.7,165.4,63.7,165.7z"/>
	<path class="st0" d="M128.8,167.8c0,1.5,0.1,4.5,0.2,6.6l0.2,3.9l8-5.8c4.4-3.2,7.8-5.8,7.6-5.9c-0.3-0.1-15.5-1.6-15.9-1.6
		C128.8,165.1,128.8,166.3,128.8,167.8z"/>
	<path class="st0" d="M72.4,168.3c-0.1,1.5-0.2,4.5-0.2,6.8v4.1l1.1-0.2c0.6-0.1,5.9-0.7,11.9-1.3c5.9-0.6,10.7-1.2,10.7-1.3
		c0-0.1-5.5-2.8-21-9.9c-1.1-0.5-2.2-1-2.2-1C72.7,165.7,72.5,166.9,72.4,168.3z"/>
	<path class="st0" d="M115.1,171c-6.3,2.9-11.5,5.4-11.5,5.5s4.8,0.7,10.6,1.3c5.8,0.6,11.2,1.2,11.9,1.3l1.2,0.2v-2.3
		c0-3.8-0.4-11.2-0.6-11.2C126.7,165.7,121.4,168.1,115.1,171z"/>
	<path class="st0" d="M49.9,170.2c-1.2,1.7-2.2,3.2-2.2,3.2c0,0.4,3,1.2,10.7,2.9c4.7,1.1,8.7,1.9,8.8,1.9c0.1,0-3-2.3-6.9-5.2
		s-7.4-5.4-7.6-5.6C52.2,167.1,51.9,167.4,49.9,170.2z"/>
	<path class="st0" d="M139.8,172.7c-4.2,3-7.5,5.5-7.4,5.5c0.9,0,17.8-4,18.6-4.4l1-0.5l-2.1-2.9c-1.1-1.6-2.2-3-2.3-3.1
		C147.4,167.3,144,169.7,139.8,172.7z"/>
	<path class="st0" d="M58.8,179.2c3.5,1.9,11.4,5.8,11.6,5.8c0.1,0,0.1-0.9,0.1-2.1l-0.1-2.1l-7-1.6c-3.9-0.8-7.1-1.5-7.2-1.5
		C56,177.7,57.2,178.3,58.8,179.2z"/>
	<path class="st0" d="M136.8,179.1c-3.4,0.8-6.5,1.5-6.9,1.6c-0.8,0.2-0.8,0.3-0.8,2.3c0,1.1,0.1,2.1,0.2,2.1c0.1,0,3.4-1.6,7.2-3.7
		c3.9-2,6.9-3.6,6.7-3.6C143.1,177.7,140.2,178.3,136.8,179.1z"/>
	<path class="st0" d="M86.1,179.4c-5.7,0.6-10.5,1.2-10.6,1.2s1,0.6,2.6,1.3c1.6,0.6,6.5,2.7,11,4.6s8.5,3.4,9,3.4h0.9v-11.7l-1.2,0
		C97,178.3,91.7,178.8,86.1,179.4z"/>
	<path class="st0" d="M100.6,184.1v5.9h0.9c0.7,0,23-9.1,22.8-9.3c-0.1-0.1-22.1-2.4-22.9-2.4h-0.7V184.1z"/>
	<path class="st0" d="M72.2,183.6c0,2.5-0.3,2.2,3.2,2.8c3.7,0.6,11.3,1.8,12.4,1.9l1.2,0.1l-1.3-0.6c-0.7-0.3-4.3-1.8-8.1-3.4
		c-3.7-1.6-6.9-2.9-7.1-3C72.3,181.4,72.2,182,72.2,183.6z"/>
	<path class="st0" d="M119,184.9c-4.5,1.8-8.1,3.4-8.1,3.5c0.1,0.1,16-2.4,16.2-2.6c0.1-0.1,0.1-1.1,0.1-2.2l-0.1-2.1L119,184.9z"/>
</g>
<path class="st1" d="M263.4-7.6"/>
</svg>
