<?xml version="1.0" encoding="utf-8"?>
<!-- Generator: Adobe Illustrator 26.4.1, SVG Export Plug-In . SVG Version: 6.00 Build 0)  -->
<svg version="1.1" id="Layer_1" xmlns="http://www.w3.org/2000/svg" xmlns:xlink="http://www.w3.org/1999/xlink" x="0px" y="0px"
	 viewBox="0 0 200 200" style="enable-background:new 0 0 200 200;" xml:space="preserve">
<style type="text/css">
	.st0{fill:#DD7553;}
	.st1{fill-rule:evenodd;clip-rule:evenodd;fill:#FBD52E;}
</style>
<g id="surface1_00000103952586526197117280000014580147660692068490_">
	<path class="st0" d="M96.1,0.5c-1.4,0.6-16.9,7.3-17.6,7.7c-0.3,0.1,3.8,0.3,9.9,0.3h10.3V4.3c0-4.1,0-4.2-0.7-4.2
		C97.7,0.2,96.8,0.3,96.1,0.5z"/>
	<path class="st0" d="M100.7,4.3v4.2H111c6,0,10.1-0.1,9.8-0.3c-1.4-0.9-18.2-7.9-19.1-8.1l-1.1-0.2v4.4H100.7z"/>
	<path class="st0" d="M84.4,2.2c-1.3,0.2-4.9,0.8-8,1.3c-3,0.4-5.6,0.9-5.7,1c-0.1,0.1,0.4,0.9,1.1,1.9c0.7,0.9,1.2,1.8,1.2,1.8
		c0,0.1,14.2-6.1,14.5-6.3C87.9,1.6,87.2,1.7,84.4,2.2z"/>
	<path class="st0" d="M112.8,2.2c0.1,0.1,3.1,1.4,6.7,3.1l6.6,2.9l1.3-1.8c0.7-1,1.2-1.8,1.2-1.9c-0.1-0.1-14.9-2.4-15.6-2.4
		C112.9,2.1,112.8,2.1,112.8,2.2z"/>
	<path class="st0" d="M60.4,8.9c-4.3,2.2-7.8,4-7.8,4.1c0.1,0.1,12.1-2.7,17-3.9l1.4-0.3l-1.3-1.9c-0.7-1-1.3-1.9-1.3-1.9
		C68.3,4.9,64.8,6.8,60.4,8.9z"/>
	<path class="st0" d="M129.8,6.8l-1.3,1.9l4.4,1c2.4,0.6,6.6,1.6,9,2.1c2.6,0.7,4.6,1,4.7,1c0-0.1-3.4-1.9-7.7-4l-7.8-3.9L129.8,6.8
		z"/>
	<path class="st0" d="M76.3,12.4c0.8,1,2.6,3.7,4.1,5.9c1.6,2.2,2.9,4,3,4s1.1-0.9,2.3-1.9c1.2-1,3.1-2.8,4.3-3.8
		c1.2-1.1,2.9-2.6,3.7-3.3c0.8-0.8,1.9-1.7,2.3-2l0.8-0.7h-11h-11L76.3,12.4z"/>
	<path class="st0" d="M103.7,11.5c0.7,0.6,2,1.8,3.1,2.7c1.1,0.9,2.6,2.3,3.4,3c3,2.7,5.8,5,5.9,5c0.1,0,2-2.7,4.3-5.9l4.1-5.9
		h-21.9L103.7,11.5z"/>
	<path class="st0" d="M70.9,12.7c-0.9,0.9-2.4,2.2-3.4,3.1C56.1,26.1,53.3,28.6,53.5,28.6c0.3,0.1,27.1-5.2,27.5-5.4
		c0.2-0.2-7.6-11.5-8.2-11.9C72.7,11.3,71.8,11.9,70.9,12.7z"/>
	<path class="st0" d="M94.9,15.2c-2.4,2.2-5.3,4.8-6.6,5.8l-2.1,1.9h27l-1-0.9c-0.6-0.4-1.4-1.3-2.1-1.9c-2.7-2.3-6.8-6-8.2-7.3
		c-0.9-0.9-1.9-1.6-2.1-1.6C99.5,11.2,97.2,12.9,94.9,15.2z"/>
	<path class="st0" d="M126,12.2c-3.4,4.7-7.7,10.9-7.4,11c0.3,0.3,27,5.6,27.5,5.4c0.1-0.1-1.3-1.4-3.2-3.1
		c-4.3-3.9-8-7.1-12.5-11.2l-3.6-3.2L126,12.2z"/>
	<path class="st0" d="M56.4,14.4C49.8,16,43.6,17.5,43,17.8l-1.2,0.6l3.3,4.6c1.9,2.6,3.6,5,3.9,5.3l0.6,0.8l3.3-3.1
		c1.9-1.7,6.2-5.7,9.7-8.8c5.4-4.9,6.6-6,6.2-5.9C68.7,11.5,63.1,12.8,56.4,14.4z"/>
	<path class="st0" d="M132.4,13.2c1.8,1.6,8.8,8,11.1,10.1c0.6,0.6,2.2,2,3.7,3.2c1.4,1.3,2.7,2.3,2.8,2.3c0.1,0,2-2.3,4-5.2
		l3.8-5.2l-1.1-0.6c-0.6-0.3-6.2-1.8-12.5-3.2c-6.3-1.4-11.9-2.8-12.6-2.9l-1.1-0.3L132.4,13.2z"/>
	<path class="st0" d="M155.7,24.8c-2.1,2.9-3.8,5.3-3.8,5.4s2,1.3,4.3,2.8c2.3,1.3,7.4,4.3,11.5,6.6c4.9,2.8,7,3.9,6.7,3.3
		c-0.2-0.4-2.4-4-4.8-7.9c-7.1-11.7-8.8-14.3-9.3-14.9C159.5,19.6,159.3,20,155.7,24.8z"/>
	<path class="st0" d="M39.2,20.5c-0.7,0.6-1.7,2-7.3,11.7c-1.8,3-4.1,6.8-5,8.2c-0.9,1.4-1.7,2.8-1.6,2.8c0.1,0.1,5.1-2.8,11.2-6.3
		c7.3-4.2,11.1-6.6,11-6.9c-0.2-0.7-7.1-10.1-7.3-10.1C40,20,39.6,20.2,39.2,20.5z"/>
	<path class="st0" d="M87.4,28c1.1,1.6,2.6,3.6,3.2,4.4c0.7,0.9,2.9,4.1,5,7.1c2.1,3,4,5.4,4.1,5.3c0.1-0.1,2.3-3,4.8-6.4
		c2.4-3.4,5.7-7.9,7-9.9l2.6-3.4H85.4L87.4,28z"/>
	<path class="st0" d="M120.4,27.7c0.9,1.2,4.3,5.9,7.8,10.6c3.4,4.7,6.6,8.9,6.9,9.5l0.8,0.9l6.2-8.6c3.4-4.7,6.1-8.7,6-8.7
		s-6.8-1.3-14.8-2.9l-14.6-2.9L120.4,27.7z"/>
	<path class="st0" d="M65.4,28.6c-7.6,1.4-13.8,2.8-13.9,2.8c-0.2,0.1,10.8,15.6,12.1,17c0.1,0.1,2.1-2.3,4.3-5.3
		c6.1-8.3,11.2-15.3,11.7-15.9c0.9-1.1,0.9-1.3,0.1-1.2C79.4,25.8,73,27.1,65.4,28.6z"/>
	<path class="st0" d="M81.3,28.5c-1.1,1.4-4.9,6.7-8.4,11.6c-3.7,4.9-6.6,9-6.4,9c0.1,0.1,30.5-2.8,31-2.9c0.2-0.1-2.9-4.7-6.9-10.2
		l-7.2-10.1L81.3,28.5z"/>
	<path class="st0" d="M114.8,28c-0.7,1-2,2.9-3,4.1c-3.8,5.2-10,14-10,14.1c0,0,6.4,0.7,14.3,1.4c7.9,0.7,14.9,1.4,15.7,1.4
		c0.8,0.1,1.3,0.1,1.3,0c0-0.1-0.8-1.2-1.8-2.6c-3.6-4.7-12.2-16.3-13.6-18.3c-0.8-1.1-1.6-2-1.7-2C116.2,26.2,115.5,27,114.8,28z"
		/>
	<path class="st0" d="M25.4,34.3c-4.3,4.4-6.3,6.7-6.1,6.9c1.4,2,2.4,3.1,2.6,3.1c0.1,0,0.6-0.7,1-1.4c0.4-0.8,2-3.3,3.4-5.8
		c3.2-5.2,5.7-9.5,5.6-9.5C31.9,27.7,29,30.7,25.4,34.3z"/>
	<path class="st0" d="M167.5,28c0.3,0.7,9.8,16.2,10,16.6c0.1,0.1,0.9-0.7,1.7-1.8l1.4-2l-6.6-6.6C170.4,30.5,167.5,27.7,167.5,28z"
		/>
	<path class="st0" d="M143.8,41.1c-3.3,4.7-6.2,8.6-6.2,8.7c-0.1,0.2,26.7,9.2,26.9,9c0.1-0.1-5.9-11-12.2-22.2l-2.3-4L143.8,41.1z"
		/>
	<path class="st0" d="M48.2,35c-0.7,1.1-1.4,2.7-1.9,3.3c-0.4,0.7-1.4,2.6-2.3,4.1s-1.8,3.3-2.2,3.9c-0.3,0.7-1.8,3.1-3.1,5.6
		c-1.3,2.4-2.8,5-3.1,5.7c-0.3,0.7-0.7,1.2-0.7,1.3c0,0.1,6-1.9,13.3-4.3c7.3-2.4,13.3-4.6,13.3-4.7c0-0.3-11.9-16.8-12.2-16.8
		C49.4,33,48.9,33.9,48.2,35z"/>
	<path class="st0" d="M153.2,33.9c0,0.2,0.2,0.7,4.4,8.1c2.7,4.8,2.8,5.1,6.9,12.5l2.6,4.7l4.4-6c2.4-3.3,4.4-6.1,4.3-6.2
		c-0.1-0.1-4.2-2.4-16.5-9.6C155.9,35.3,153.2,33.7,153.2,33.9z"/>
	<path class="st0" d="M43.4,35.3c-13.1,7.6-19.7,11.3-19.8,11.5c-0.1,0.1,8.4,11.9,8.7,11.9c0.1,0,0.8-1,1.4-2.3
		c0.7-1.3,1.9-3.3,2.6-4.7c0.7-1.2,2.6-4.4,4-7.1c1.6-2.7,3.2-5.7,3.8-6.7s1.2-2.3,1.6-2.9s0.6-1,0.3-1C46,34,44.8,34.6,43.4,35.3z"
		/>
	<path class="st0" d="M13.8,50.6c-2.2,4.3-3.7,7.4-3.2,7c0.4-0.4,2.8-3.2,5.3-6l4.6-5.2l-1.3-1.8l-1.3-1.9L13.8,50.6z"/>
	<path class="st0" d="M180.3,44.6l-1.3,1.9l4.7,5.3c2.6,2.9,5,5.7,5.4,6.1c0.4,0.4-1-2.8-3.2-7.1s-4-7.9-4.1-8
		C181.7,42.9,181,43.6,180.3,44.6z"/>
	<path class="st0" d="M94,48.8c-0.1,0.1-6.4,0.7-14,1.3s-13.8,1.3-13.9,1.4c-0.1,0.1,2.8,4.2,6.3,9.1c3.6,4.9,7.3,10.1,8.3,11.5
		c1,1.4,1.9,2.6,2,2.6c0.1,0,1.2-1.7,2.3-3.8S88,65.7,89,64c3.2-5.6,8.4-15,8.4-15.1C97.5,48.8,94.6,48.5,94,48.8z"/>
	<path class="st0" d="M102,48.9c0,0.1,3.3,6.1,7.3,13.2l7.3,13l1.2-1.8c4.7-6.2,15.5-21.3,15.6-21.6c0.1-0.2-4.9-0.8-15.1-1.8
		C102,48.4,102,48.4,102,48.9z"/>
	<path class="st0" d="M22.1,49.3c-0.4,1.2-4.8,14.8-5.7,17.5l-0.9,2.9l5.1-3c2.8-1.7,6.1-3.7,7.4-4.4c1.3-0.8,2.4-1.6,2.6-1.8
		C30.7,60,22.3,48.8,22.1,49.3z"/>
	<path class="st0" d="M172.9,54.6c-2.3,3.1-4.1,5.8-4.1,5.9c0,0.2,15.1,9.3,15.2,9.2s-6.4-20.2-6.7-20.6
		C177.2,49,175.2,51.4,172.9,54.6z"/>
	<path class="st0" d="M98.6,51.4c-0.6,1-2.6,4.7-4.4,8.1c-1.9,3.3-3.9,7-4.4,8c-0.6,1-1.2,2.1-1.4,2.6c-0.2,0.4-0.9,1.4-1.3,2.3
		c-0.4,0.9-1.1,2-1.4,2.6l-0.7,1.1h30l-1.2-2.2c-6-10.8-13.7-24.1-13.8-24.1C99.7,49.5,99.1,50.4,98.6,51.4z"/>
	<path class="st0" d="M17.5,53.1c-0.9,1-1.8,2-1.9,2.2s-2.4,2.8-5,5.7c-4.7,5.2-6,7.1-5.1,7.3c1.2,0.4,7,2.2,7.3,2.3
		c0.2,0.1,0.4-0.2,0.6-0.8c0.2-1.1,5.8-18.1,6-18.5C19.6,50.8,18.8,51.4,17.5,53.1z"/>
	<path class="st0" d="M180.3,51.6c0.1,0.2,1.4,4.6,3.1,9.7c1.7,5.1,3.1,9.3,3.1,9.5c0.1,0.1,7.4-2.2,7.8-2.6
		c0.1-0.1,0.1-0.7-0.1-1.1c-0.4-0.8-13.6-15.9-13.8-15.9C180.2,51.2,180.2,51.4,180.3,51.6z"/>
	<path class="st0" d="M140.6,59.2c6.1,14.3,9.3,21.8,9.6,22c0.1,0.1,3.4-4.1,7.4-9.5c8.2-11.1,7.8-10.5,7.2-10.7
		c-1.2-0.4-26.6-8.8-26.9-8.9C137.7,52.2,138.9,55.3,140.6,59.2z"/>
	<path class="st0" d="M47.5,57l-13.3,4.4l0.7,1c1.7,2.3,14.2,19.2,14.2,19c0-0.1,0.9-2.2,2-4.7c2.6-6,9.8-22.6,10.1-23.6
		c0.2-0.4,0.1-0.7-0.1-0.7C61,52.5,54.9,54.5,47.5,57z"/>
	<path class="st0" d="M63.5,53.9c-0.2,0.7-2.3,5.4-4.7,10.7c-6.3,14.7-7.4,17.2-7.2,17.5c0.1,0.2,28.9-5.6,29.1-5.8
		c0.1-0.1-15.5-22-16.5-23.1C64.1,52.9,63.8,53.3,63.5,53.9z"/>
	<path class="st0" d="M126.8,64.4c-4.7,6.4-8.4,11.7-8.3,11.8c0.1,0.1,29.8,6.1,29.8,6c0-0.1-10.5-24.3-11.9-27.6
		c-0.4-1-0.9-1.9-1-1.9C135.3,52.8,131.5,58.1,126.8,64.4z"/>
	<path class="st0" d="M159.2,73c-3.9,5.3-7.2,9.8-7.2,10c0,0.2,2.9,1.2,6.6,2.3c3.7,1.1,8.9,2.8,11.7,3.7c2.8,0.9,5.2,1.6,5.2,1.4
		c0.1,0-0.9-3-2-6.4c-1.1-3.4-3.1-9.6-4.4-13.6c-1.2-4-2.4-7.2-2.6-7.2C166.5,63.3,163.2,67.7,159.2,73z"/>
	<path class="st0" d="M168.9,63.8c0.1,0.3,2,6,4.1,12.7c3.3,10.1,4.4,13.6,4.4,12.5c0-0.1,1.6-3.9,3.6-8.3l3.6-8.2l-7.7-4.4
		c-4.2-2.6-7.8-4.6-8-4.7C168.8,63.2,168.8,63.4,168.9,63.8z"/>
	<path class="st0" d="M22.6,67.9c-4,2.3-7.3,4.4-7.4,4.6c-0.2,0.1,6.4,16,6.9,16.5c0.1,0.1,8.3-24.7,8.3-25.1
		C30.4,63.3,29.7,63.6,22.6,67.9z"/>
	<path class="st0" d="M32.3,65.1c-0.3,0.9-2,6.2-3.9,11.8c-1.8,5.7-3.6,10.9-3.8,11.7s-0.4,1.4-0.4,1.7c0,0.1,2.6-0.6,5.7-1.6
		c5.4-1.8,6.9-2.2,13.7-4.2c1.8-0.6,3.3-1.1,3.7-1.2c0.3-0.2-0.7-1.7-3.9-6c-2.3-3.1-5.6-7.4-7.1-9.7c-1.6-2.2-3-3.9-3.1-3.9
		C32.9,63.5,32.5,64.3,32.3,65.1z"/>
	<path class="st0" d="M4.1,71c-0.2,0.9,1.4,19.9,1.8,20.3c0.1,0.1,1.6-3.9,3.2-9c1.7-5.1,3-9.3,2.9-9.5c-0.1-0.1-1.8-0.7-3.9-1.4
		l-3.8-1.3L4.1,71z"/>
	<path class="st0" d="M191.3,71.3c-2,0.7-3.8,1.4-3.9,1.6c-0.1,0.4,5.7,18.7,6,19c0.2,0.3,2-17.6,2-20.2c0-0.9-0.1-1.7-0.2-1.7
		C195.1,70.1,193.3,70.7,191.3,71.3z"/>
	<path class="st0" d="M184.2,78.4c-0.7,1.8-2.3,5.3-3.4,8c-1.2,2.7-2,5-1.9,5.1c0.6,0.4,13.8,4.4,13.7,4.1
		c-0.1-0.2-1.6-4.9-3.3-10.5s-3.3-10-3.4-10C185.5,75.3,184.8,76.8,184.2,78.4z"/>
	<path class="st0" d="M10.3,85.7c-1.8,5.6-3.2,10.1-3.2,10.1c0.1,0.1,2.6-0.7,8.7-2.6l5.1-1.7l-3.4-7.9c-1.9-4.4-3.6-8-3.7-8
		C13.6,75.7,12.1,80.1,10.3,85.7z"/>
	<path class="st0" d="M85.1,78c0,0.3,14.5,19.9,14.7,19.9c0.2,0,12.5-16.6,14.2-19.2l0.4-0.8H99.8C91.7,77.9,85.1,78,85.1,78z"/>
	<path class="st0" d="M118.1,78.8c0.1,0.3,8.2,25.5,9,27.9c0.1,0.3,20.5-21.8,20.5-22.1c0-0.1-6.7-1.6-14.9-3.2
		C121.4,79,118,78.4,118.1,78.8z"/>
	<path class="st0" d="M66,81.4c-7.6,1.6-13.8,2.9-13.9,3c-0.1,0.2,3.8,4.7,9.1,10.3c0.9,1,3.7,4,6.2,6.8c2.4,2.8,4.7,5,4.7,5
		c0.1,0,1-2.6,2-5.7c3.3-10,7.1-21.9,7.1-22.1C81.2,78.3,79.8,78.7,66,81.4z"/>
	<path class="st0" d="M78.9,92.8c-2.4,7.3-4.4,13.7-4.4,13.9c-0.1,0.6-0.6,0.7,13.3-3.9l10.3-3.3l-6.8-9.2
		c-3.7-5.1-7.1-9.7-7.3-10.1l-0.7-0.8L78.9,92.8z"/>
	<path class="st0" d="M108.9,89.2c-6.4,8.9-7.6,10.6-7,10.6c0.1,0,5.3,1.7,11.7,3.8c6.3,2,11.6,3.7,11.6,3.6
		c0.1-0.1-1.4-5.1-3.6-11.3c-5-15.3-5.2-16.2-5.6-16.2C116,79.5,112.7,83.9,108.9,89.2z"/>
	<path class="st0" d="M196.8,81c0,0.3-0.4,4-0.8,8.1c-0.4,4.1-0.7,7.6-0.7,7.7c0.1,0.3,4,1.4,4.2,1.2c0.1-0.1-0.4-3.9-1.1-8.4
		C197,80.5,196.8,80,196.8,81z"/>
	<path class="st0" d="M1.2,89.6C0.5,94.1-0.1,98-0.1,98c0.2,0.2,3.9-1.1,4-1.4c0.1-0.4-1.1-15.1-1.3-15.2C2.5,81.2,1.8,85,1.2,89.6z
		"/>
	<path class="st0" d="M36,89c-6.3,2-11.6,3.7-11.7,3.7s3.7,5.3,8.2,11.9c4.7,6.4,8.4,11.7,8.4,11.7c0.1-0.1,1.4-6.1,3.1-13.5
		c1.7-7.3,3.1-13.9,3.2-14.5c0.7-2.4,0.7-2.9,0.4-2.9C47.5,85.4,42.3,87.1,36,89z"/>
	<path class="st0" d="M151.7,86.4c0.9,4.4,6.7,29.7,6.8,29.8c0.1,0.1,16.3-22.3,16.7-23.1c0.1-0.3-2.6-1.3-11.5-4.1
		c-6.4-2-11.8-3.7-11.9-3.7C151.6,85.4,151.6,85.9,151.7,86.4z"/>
	<path class="st0" d="M146.2,89.4c-1.8,2-6.4,7-10.3,11.2l-7.1,7.7l1.7,0.6c7.6,2.6,25.8,8.3,25.9,8.2c0.1-0.1-6-28-6.8-30.6
		C149.5,86,149,86.2,146.2,89.4z"/>
	<path class="st0" d="M49.9,86.2c0,0.1-1,4.9-2.3,10.5c-4.3,19.1-4.7,20.3-4.4,20.5c0.1,0.1,4.1-1.2,9-2.8s11.1-3.7,13.8-4.4
		l4.8-1.6l-1.2-1.3c-0.7-0.8-2.8-3.1-4.8-5.2s-4.4-4.8-5.4-5.9c-1-1.1-2.9-3.1-4.2-4.6c-1.3-1.4-3.1-3.2-3.8-4.1
		C50.5,86.6,49.9,86,49.9,86.2z"/>
	<path class="st0" d="M13.7,96c-3.7,1.2-6.7,2.2-6.8,2.2c-0.1,0.1,1,2.7,2.3,5.8c1.3,3.1,3.8,8.4,5.3,12c2.8,6.3,2.8,6.3,3,5
		c0.2-1.3,3.2-26.1,3.2-26.8c0-0.2-0.1-0.4-0.2-0.4C20.5,93.9,17.4,94.9,13.7,96z"/>
	<path class="st0" d="M178.4,94.6c0.1,0.4,0.8,6.4,1.6,13.5c0.8,7,1.6,13.1,1.8,13.6c0.2,0.8,0.9-0.7,5.7-11.2l5.4-12.1l-2.8-0.9
		c-5.4-1.8-11-3.4-11.3-3.4C178.5,93.9,178.4,94.2,178.4,94.6z"/>
	<path class="st0" d="M21.3,109.9c-0.9,8.1-1.7,14.7-1.6,14.8s4.7-1.2,10.1-3.1l10-3.2l-1.1-1.4c-0.6-0.8-1.7-2.2-2.3-3.2
		c-4.7-6.6-13-18.1-13.2-18.3C23.2,95.3,22.3,101.8,21.3,109.9z"/>
	<path class="st0" d="M175.6,96.1c-2.8,3.7-16,22.2-15.9,22.3c0.1,0.1,20.2,6.7,20.3,6.6c0-0.1-3.2-27-3.4-29.2
		C176.4,95,176.4,95,175.6,96.1z"/>
	<path class="st0" d="M1.8,99.8c-1.4,0.4-2,0.8-2,1.2c0,0.9,2.3,15.5,2.6,16.1c0.1,0.3,0.6-3.4,1-8.6c0.4-5,0.7-9.2,0.7-9.2
		C3.8,99.2,2.9,99.4,1.8,99.8z"/>
	<path class="st0" d="M195.3,99.8c0.1,0.4,0.4,4.9,0.9,9.9c0.4,5.1,0.8,9.1,0.9,9.1c0-0.1,0.7-3.9,1.4-8.4c0.8-4.6,1.3-8.7,1.4-9.1
		c0.1-0.8,0.1-0.9-2-1.6C195.1,98.9,195.2,98.9,195.3,99.8z"/>
	<path class="st0" d="M87.4,105.1c-6.1,2-11.5,3.8-11.8,3.9c-0.6,0.2,0.8,1.3,11.1,8.9c6.4,4.7,11.8,8.4,11.9,8.4
		c0.1-0.1,0.1-5.7,0.1-12.5l-0.1-12.3L87.4,105.1z"/>
	<path class="st0" d="M100.7,114c0,6.9,0.1,12.5,0.2,12.5c1-0.4,23.5-17,23.2-17.2c-0.1-0.1-3.3-1.2-7.1-2.4
		c-3.8-1.2-9-2.9-11.7-3.8l-4.8-1.6V114H100.7z"/>
	<path class="st0" d="M188.2,113.3c-2.8,6.3-5.2,11.8-5.3,12.1c-0.1,0.4,1,0.9,6.1,2.6c3.4,1.1,6.3,2,6.4,1.9
		c0.3-0.3,0.1-5.1-0.9-16.2c-0.6-6.4-1-11.7-1.1-11.8C193.4,101.8,191.1,107,188.2,113.3z"/>
	<path class="st0" d="M5.9,102.6c0,0.3-0.4,5.8-1,12.2c-1,11.8-1.1,13.9-0.8,14.8c0.1,0.3,1.3,0.1,6.2-1.4c3.3-1.1,6.1-2,6.2-2
		s-0.4-1.4-1.2-3.1c-0.8-1.7-3.1-7-5.2-11.8c-2.1-4.9-4-8.9-4-8.9C6.1,102,5.9,102.1,5.9,102.6z"/>
	<path class="st0" d="M57.3,114.9c-7.3,2.4-13.5,4.4-13.5,4.4c-0.1,0.1,5.2,4.9,11.9,10.7c11.5,10.1,12,10.6,12.2,9.7
		c0.1-0.4,0.9-6.8,1.8-14c0.8-7.2,1.6-13.7,1.7-14.2c0.1-0.7,0-1-0.2-1C70.8,110.5,64.7,112.5,57.3,114.9z"/>
	<path class="st0" d="M128.2,111.8c0.1,0.8,0.9,7.2,1.7,14.5c0.8,7.2,1.6,13.3,1.7,13.7c0.2,0.6,1.7-0.6,12.3-9.9l12.1-10.6
		l-6.6-2.2c-10.1-3.3-20.7-6.8-21.1-6.8C128.1,110.5,128.1,111,128.2,111.8z"/>
	<path class="st0" d="M73.3,111.2c0,0.2-0.8,7-1.8,15.1c-1,8-1.8,14.7-1.7,14.8c0.1,0.1,27.6-12.5,27.6-12.7
		c0-0.1-22.2-16.5-23.7-17.3C73.5,110.9,73.3,110.9,73.3,111.2z"/>
	<path class="st0" d="M114,119.5c-6.6,4.8-11.9,8.8-11.9,8.9s2.3,1.3,5.3,2.7c2.9,1.3,6.6,3,8.2,3.8c7.4,3.4,13.9,6.3,14,6.3
		c0.1-0.1-3.3-29.5-3.4-29.9C126,110.9,120.6,114.7,114,119.5z"/>
	<path class="st0" d="M158.8,134.7c-0.1,7.9-0.1,14.3-0.1,14.5c0.1,0.1,20.2-21.3,20.3-21.9c0-0.1-0.2-0.4-0.7-0.6
		c-0.4-0.1-5-1.6-10.1-3.2l-9.3-3.1L158.8,134.7z"/>
	<path class="st0" d="M30.2,123.7c-5.2,1.7-9.6,3.2-9.7,3.3c-0.2,0.1,15,16.9,19.5,21.6l0.8,0.8l-0.1-3.1c-0.1-1.7-0.1-8.2-0.1-14.5
		c0-8.8-0.1-11.3-0.4-11.2C39.9,120.6,35.4,122,30.2,123.7z"/>
	<path class="st0" d="M144.9,131.7c-6.6,5.8-11.8,10.6-11.7,10.8c0.1,0.1,5.4,2,11.8,4.1l11.6,3.9l0.2-14.5
		c0.1-7.9,0.1-14.6,0.1-14.6C156.9,121.4,151.5,126,144.9,131.7z"/>
	<path class="st0" d="M42.6,126.5c0.1,2.8,0.1,9.2,0.1,14.5v9.6l11.8-4c6.4-2.2,11.8-4.1,11.8-4.1c0.1-0.2-23.2-20.8-23.6-20.8
		C42.6,121.6,42.5,123.8,42.6,126.5z"/>
	<path class="st0" d="M182,128.1c-0.3,0.9-5.3,25.1-5.2,25.2c0.2,0.2,16.8-19.1,17.3-20.2c0.2-0.4,0.3-1,0.2-1.2
		c-0.1-0.1-2.9-1.1-6.2-2.2C184,128.4,182.1,127.9,182,128.1z"/>
	<path class="st0" d="M10.8,130c-3.1,1-5.8,1.9-5.8,1.9s0.2,0.6,0.6,1.2c0.7,1.2,16.9,20.5,17.1,20.2c0.1-0.1-1.1-5.8-2.6-12.7
		c-2-9.5-2.8-12.6-3.1-12.6S14,129,10.8,130z"/>
	<path class="st0" d="M169.5,140.7l-9.8,10.7l1.2,0.6c2.3,1,12.8,4.3,13,4.1c0.2-0.2,5.7-25.8,5.6-25.9
		C179.4,130,174.9,134.8,169.5,140.7z"/>
	<path class="st0" d="M20.3,130.8c0,0.7,5.1,25,5.3,25.1c0.1,0.1,3.3-0.9,7.2-2.2l7.1-2.3l-0.9-1c-0.6-0.6-3.9-4.1-7.4-8
		C22,132,20.3,130.4,20.3,130.8z"/>
	<path class="st0" d="M84.3,136.7l-13.6,6.2l3,1.8c1.7,1,5.9,3.6,9.6,5.7c3.6,2.1,8.2,4.9,10.5,6.2c2.2,1.3,4.1,2.4,4.4,2.6
		c0.6,0.2,0.6-0.6,0.6-14.3c0-11.5-0.1-14.6-0.4-14.5C98.1,130.4,91.8,133.2,84.3,136.7z"/>
	<path class="st0" d="M100.7,144.8c0,9.6,0.1,14.5,0.3,14.3c0.7-0.2,27.4-16,27.4-16.2c0-0.2-1.2-0.8-13.6-6.3
		c-4.1-1.9-8.9-4.1-10.6-4.9s-3.1-1.4-3.3-1.4C100.9,130.4,100.7,136.6,100.7,144.8z"/>
	<path class="st0" d="M183,149.5c-3.6,4.1-6.3,7.4-6.3,7.6s0.9,0.4,1.9,0.8c1,0.3,2,0.7,2.2,0.8c0.2,0.1,2-3.1,4.3-7.8
		c2.2-4.3,4.1-8.1,4.3-8.3c0.2-0.2,0.2-0.4,0.1-0.4C189.4,142,186.5,145.4,183,149.5z"/>
	<path class="st0" d="M14.3,150.5l4.1,8.2l2-0.7c1.1-0.3,2.1-0.8,2.2-0.9c0.2-0.1-10.3-12.7-12.2-14.6
		C10.3,142.4,12,145.9,14.3,150.5z"/>
	<path class="st0" d="M55.6,148.3c-6.2,2.1-11.3,3.9-11.2,4.1c0.1,0.3,22.5,16.8,22.9,16.8c0.1,0,0.2-5.6,0.2-12.3
		c0-6.8-0.1-12.3-0.2-12.3C67.1,144.4,61.9,146.1,55.6,148.3z"/>
	<path class="st0" d="M131.9,144.6c-0.1,0.1-0.1,5.8,0,12.6l0.1,12.2l1.1-0.9c1-0.8,18.2-13.3,21.1-15.3c0.7-0.4,1-0.9,0.8-1
		c-0.1-0.1-5.2-1.9-11.3-3.9c-6.1-2-11.2-3.8-11.5-3.8C132.3,144.4,132,144.4,131.9,144.6z"/>
	<path class="st0" d="M69.7,144.9c-0.1,0.1-0.2,5.8-0.2,12.6c-0.1,10.9,0,12.3,0.4,12.2c1.3-0.3,27.2-8.6,27.2-8.7s-1.4-1-3.2-2
		c-2.7-1.6-19.8-11.7-23.1-13.7C70.3,144.9,69.8,144.8,69.7,144.9z"/>
	<path class="st0" d="M116,152.7c-7.4,4.4-13.6,8.1-13.6,8.2c0,0.1,26.9,8.8,27.5,8.8c0.3,0,0.2-23.7,0-24.5
		C129.6,144.8,127.1,146.1,116,152.7z"/>
	<path class="st0" d="M33.9,155.6l-6.8,2.3l8.8,6.3c4.8,3.6,8.8,6.3,8.9,6.2c0.2-0.1-3.7-17.3-3.9-17.3
		C40.7,153.2,37.5,154.3,33.9,155.6z"/>
	<path class="st0" d="M156.5,161.9c-1.1,4.8-1.9,8.8-1.8,8.8c0.2,0,17.3-12.5,17.6-12.7c0.1-0.1-2.8-1.2-6.4-2.4
		c-3.7-1.2-6.8-2.3-6.9-2.3C158.6,153.2,157.7,156.5,156.5,161.9z"/>
	<path class="st0" d="M43.4,154.7c0,0.4,3.8,17.3,3.9,17.5c0.2,0.2,17.9-1.6,17.9-1.8c0-0.1-4.1-3.1-9-6.8
		C43.6,154.5,43.4,154.4,43.4,154.7z"/>
	<path class="st0" d="M144.8,162.5c-10.6,7.7-11,8.1-9.9,8.2c0.7,0.1,4.7,0.4,9.1,0.9s8,0.7,8.1,0.7c0.2-0.1,4-17.2,3.9-17.6
		C155.9,154.5,150.9,158,144.8,162.5z"/>
	<path class="st0" d="M174.2,160.4c-0.6,0.9-2.2,3.8-3.8,6.3c-1.6,2.6-3,5.1-3.2,5.6c-0.2,0.4,2.4-2,6-5.6c3.4-3.4,6.2-6.4,6.1-6.6
		c-0.1-0.1-1.1-0.4-2.2-0.9l-2-0.7L174.2,160.4z"/>
	<path class="st0" d="M21.8,159.6c-0.9,0.3-1.6,0.7-1.7,0.7c-0.1,0.1,2.7,3,6.2,6.6c3.7,3.7,6.1,5.9,5.8,5.2c-5-8.7-7.7-13-8.2-13
		C23.6,159,22.7,159.3,21.8,159.6z"/>
	<path class="st0" d="M28.9,162.5c1.6,3,9.8,16.7,10.5,17.3l0.8,0.8l2.6-3.4c1.4-1.9,2.4-3.6,2.2-3.7c-0.3-0.3-15.5-11.1-16-11.6
		C28.4,161.6,28.5,161.7,28.9,162.5z"/>
	<path class="st0" d="M162.8,167.4c-4.3,3.1-8,5.9-8.2,6c-0.1,0.1,0.9,1.8,2.2,3.8l2.6,3.4l0.8-0.8c0.4-0.4,2-2.8,3.4-5.3
		c1.4-2.6,3.4-5.8,4.3-7.3c2.7-4.6,3.2-5.6,3.1-5.6C170.8,161.6,167.3,164.2,162.8,167.4z"/>
	<path class="st0" d="M95.3,163.7c-1.8,0.6-7.8,2.4-13.3,4.2s-10.2,3.3-10.3,3.4s5.9,3,13.3,6.4c7.4,3.4,13.6,6.2,13.7,6.1
		c0.1-0.1,0.1-4.9,0.1-10.7l-0.1-10.6L95.3,163.7z"/>
	<path class="st0" d="M100.7,173.4c0,9.8,0,10.8,0.6,10.6c2.9-1.1,26.8-12.5,26.6-12.6c-0.2-0.1-12.9-4.2-24.8-8l-2.3-0.7V173.4z"/>
	<path class="st0" d="M59.7,173.1c-3.3,0.3-7,0.7-8.2,0.9l-2.2,0.2l8.9,6.4C63,184.2,67,187,67,187s0.1-3.3,0.2-7.3l0.2-7.2h-0.9
		C66.1,172.4,63,172.7,59.7,173.1z"/>
	<path class="st0" d="M132,175.4c0,1.7,0.1,5,0.2,7.3l0.2,4.3l8.9-6.4c4.9-3.6,8.7-6.4,8.4-6.6c-0.3-0.1-17.2-1.8-17.7-1.8
		C132,172.4,132,173.7,132,175.4z"/>
	<path class="st0" d="M69.3,175.9c-0.1,1.7-0.2,5-0.2,7.6v4.6l1.2-0.2c0.7-0.1,6.6-0.8,13.2-1.4c6.6-0.7,11.9-1.3,11.9-1.4
		s-6.1-3.1-23.3-11c-1.2-0.6-2.4-1.1-2.4-1.1C69.7,173.1,69.4,174.4,69.3,175.9z"/>
	<path class="st0" d="M116.8,178.9c-7,3.2-12.8,6-12.8,6.1s5.3,0.8,11.8,1.4c6.4,0.7,12.5,1.3,13.2,1.4l1.3,0.2v-2.6
		c0-4.2-0.4-12.5-0.7-12.5C129.7,173.1,123.8,175.7,116.8,178.9z"/>
	<path class="st0" d="M44.3,178.1c-1.3,1.9-2.4,3.6-2.4,3.6c0,0.4,3.3,1.3,11.9,3.2c5.2,1.2,9.7,2.1,9.8,2.1c0.1,0-3.3-2.6-7.7-5.8
		s-8.2-6-8.4-6.2C46.9,174.6,46.5,174.9,44.3,178.1z"/>
	<path class="st0" d="M144.3,180.8c-4.7,3.3-8.3,6.1-8.2,6.1c1,0,19.8-4.4,20.7-4.9l1.1-0.6l-2.3-3.2c-1.2-1.8-2.4-3.3-2.6-3.4
		C152.7,174.8,148.9,177.5,144.3,180.8z"/>
	<path class="st0" d="M54.2,188.1c3.9,2.1,12.7,6.4,12.9,6.4c0.1,0,0.1-1,0.1-2.3l-0.1-2.3l-7.8-1.8c-4.3-0.9-7.9-1.7-8-1.7
		C51.1,186.4,52.4,187.1,54.2,188.1z"/>
	<path class="st0" d="M140.9,188c-3.8,0.9-7.2,1.7-7.7,1.8c-0.9,0.2-0.9,0.3-0.9,2.6c0,1.2,0.1,2.3,0.2,2.3c0.1,0,3.8-1.8,8-4.1
		c4.3-2.2,7.7-4,7.4-4C147.9,186.4,144.7,187.1,140.9,188z"/>
	<path class="st0" d="M84.6,188.3c-6.3,0.7-11.7,1.3-11.8,1.3s1.1,0.7,2.9,1.4c1.8,0.7,7.2,3,12.2,5.1c5,2.1,9.5,3.8,10,3.8h1v-13
		h-1.3C96.7,187.1,90.8,187.6,84.6,188.3z"/>
	<path class="st0" d="M100.7,193.5v6.6h1c0.8,0,25.6-10.1,25.3-10.3c-0.1-0.1-24.6-2.7-25.5-2.7h-0.8v6.4H100.7z"/>
	<path class="st0" d="M69.1,193c0,2.8-0.3,2.4,3.6,3.1c4.1,0.7,12.6,2,13.8,2.1l1.3,0.1l-1.4-0.7c-0.8-0.3-4.8-2-9-3.8
		c-4.1-1.8-7.7-3.2-7.9-3.3C69.2,190.5,69.1,191.2,69.1,193z"/>
	<path class="st0" d="M121.1,194.4c-5,2-9,3.8-9,3.9c0.1,0.1,17.8-2.7,18-2.9c0.1-0.1,0.1-1.2,0.1-2.4l-0.1-2.3L121.1,194.4z"/>
</g>
<path class="st1" d="M263.4-7.6"/>
</svg>
