<?xml version="1.0" encoding="UTF-8"?>
<svg id="Layer_1" data-name="Layer 1" xmlns="http://www.w3.org/2000/svg" version="1.1" viewBox="0 0 500 500">
  <defs>
    <style>
      .cls-1 {
        fill: #030304;
      }

      .cls-1, .cls-2 {
        stroke-width: 0px;
      }

      .cls-2 {
        fill: #01c75b;
      }
    </style>
  </defs>
  <path class="cls-1" d="M498.3,249.7c0,138.3-110.8,249.5-248.6,249.4C112.4,499.1,1.6,387.8,1.6,249.9,1.7,111.9,112.7.8,250.6.9c136.8.1,247.7,111.4,247.7,248.8Z"/>
  <g>
    <path class="cls-2" d="M212.1,313.2c-7.7-7.7-16.1-15-21.2-24.9-9.2-17.7-12.3-35.8-7.5-55.7,5-21.3,18.5-35.2,35.6-46.8,2.1-1.4,5-2.3,6.6-.5,2.5,2.7-1,4.2-2.5,5.5-4.8,4.4-6.9,10.9-11.9,15.2-1.3,1.1-1.4,4.1.3,5.3,1.8,1.4,3.2-.8,4.2-2,7.1-9.4,16.5-16.3,26.4-22.3,6.3-3.8,13.1-6,20.7-6.3,11.2-.4,22.4-1.6,33.4,2.2-.4,2.4-2.3,2.3-3.9,2.4-16.4,1-30.9,7.1-43.2,17.4-12.1,10.2-18.1,23.3-17.2,39.7.9,16.9,9,29.5,21.5,39.5,7.7,6.1,16.6,10.6,27,11.3,16,1.1,31.7.9,46.1-7.4,3.2-1.8,6.2-3.9,9.4-5.8,1.1-.6,2.5-1.4,3.5,0,.5.7.4,2.1.1,3-5.4,18.2-14.6,34.1-28.9,46.7-14.2,12.6-30.6,21.5-49.3,24.8-20.9,3.7-41.6,3.3-61.9-4.8-22.8-9.2-39.7-24.8-52.1-45.6-1.3-2.2-3.2-4-6-7.5,0,8.1,1.6,14.3,3.6,20.1,6.6,19.4,17.4,36.2,33.1,49.5,5.2,4.4,9.5,10.1,16.6,12,1.5.4,2.5,2.3,3.7,3.5.8.8,1.7,1.7.6,2.7-.5.4-1.7.6-2.4.3-11-4.4-22.1-8.5-32.2-14.7-18.7-11.7-35.2-26-47.8-44.1-8-11.5-14-24-18.1-37.6-3.4-11.3-4.8-22.9-5.8-34.3-1.2-13.1,2.1-26.2,5-39,3.2-14,8.4-27.1,16.3-39.1,16.7-25.6,39.2-44.3,66.8-57.3,11.5-5.4,23.4-9.1,35.8-12.1,20.9-5.1,41.9-3.8,62.6-1.6,20.2,2.1,39.1,10.8,57,20.7,1.2.7,2.3,1.5,1.6,3-1,1.9-3,2.1-4.6,1.3-4.7-2.2-9.7-3.3-14.6-4.8-18.6-5.7-37.2-9.2-56.5-4.5-7.7,1.9-15.6,2.5-23.4,4.7-12.8,3.7-24.6,9-35.5,16.4-19.7,13.3-34.9,30.5-42.8,53.1-10,28.5-9.2,56.2,7.5,82.7,10.2,16.1,24.5,27.2,40.8,36.2,1.2.6,2.4,1.1,3.8-.5Z"/>
    <path class="cls-2" d="M407.6,257.2c1,29.6-9,54.9-25.3,78.4-14.9,21.6-35.1,36.4-58.9,46.9-21.3,9.4-43.3,15.5-66.8,14.7-1.5,0-3,0-4.5-.2-1.3-.1-2.9-.2-3.1-1.8-.1-1.6,1.5-1.8,2.7-2.4,6.7-3.1,14-4.8,20.9-6.4,8.3-1.9,14.9-6.5,22.2-9.7,22.3-9.8,40-25.9,53.5-45.9,13.1-19.2,19.5-40.9,19.8-64.5.3-32.5-9-60.8-33.8-82.8-8.4-7.4-17.7-13.3-28.5-17.3-24.4-9-49.2-10.3-74.5-5.1-1.4.3-3.2,1.4-3.9-.7-.7-1.9.4-3.5,2.2-4.1,4.1-1.4,8.2-2.7,12.3-3.8,20.9-5.4,42-5.5,62.9-.1,19.1,4.9,36.8,12.8,51.2,26.7,1.5,1.5,3.5,3,5,1.6,2.6-2.2-1-3.2-1.9-4.4-11.4-14.6-25.8-25.1-43-32.1-2.2-.9-4.3-2.1-6.4-3.1-1.6-.8-4.9,0-4.7-2.4.2-2.8,3.4-2,5.4-1.9,9.9.3,18.8,4.6,27.5,8.3,13.6,5.7,26.1,13.7,36.2,24.6,11.9,12.8,21.4,27.1,26.8,44.3,4.5,14.4,6.9,28.8,6.6,43.2Z"/>
  </g>
</svg>