<?xml version="1.0" encoding="utf-8"?>
<!-- Generator: Adobe Illustrator 26.4.1, SVG Export Plug-In . SVG Version: 6.00 Build 0)  -->
<svg version="1.1" id="Layer_1" xmlns="http://www.w3.org/2000/svg" xmlns:xlink="http://www.w3.org/1999/xlink" x="0px" y="0px"
	 viewBox="0 0 200 200" style="enable-background:new 0 0 200 200;" xml:space="preserve">
<style type="text/css">
	.st0{fill-rule:evenodd;clip-rule:evenodd;fill:#29233B;}
	.st1{fill:url(#SVGID_1_);}
	.st2{fill:url(#SVGID_00000072981774282827269940000001077248276499998086_);}
</style>
<circle class="st0" cx="100" cy="100" r="100"/>
<g>
	
		<linearGradient id="SVGID_1_" gradientUnits="userSpaceOnUse" x1="74.5088" y1="23.0041" x2="176.2604" y2="124.7556" gradientTransform="matrix(1 0 0 -1 0 199.89)">
		<stop  offset="0" style="stop-color:#B090F5"/>
		<stop  offset="1" style="stop-color:#5FBFFF"/>
	</linearGradient>
	<path class="st1" d="M162.8,64.2l-3.1-5.5c-0.2-0.4-0.6-0.8-1-1.1c-0.4-0.3-0.9-0.5-1.4-0.5c-0.5-0.1-1,0-1.5,0.1
		c-0.5,0.2-0.9,0.4-1.2,0.8l-7.2,7.2c-0.5,0.5-0.9,1.2-0.9,2c-0.1,0.7,0.1,1.5,0.5,2.1c2.6,4,4.7,8.3,6.2,12.8
		c2.8,8.5,3.6,17.5,2.3,26.3c-1.3,8.8-4.7,17.2-9.9,24.4c-5.2,7.2-12.1,13.1-20,17.2c-7.9,4.1-16.7,6.2-25.6,6.2
		c-9.2,0-18.2-2.2-26.4-6.5l12.1-12.1c6.1,2.3,12.6,3.1,19.1,2.3c6.5-0.8,12.6-3.1,18-6.8c5.3-3.7,9.7-8.6,12.7-14.4
		c3-5.8,4.6-12.2,4.6-18.7c0-1.4-0.1-2.8-0.2-4.2c-0.5-4.6-1.8-9.1-3.8-13.3c-0.2-0.5-0.6-0.9-1-1.2c-0.4-0.3-0.9-0.5-1.4-0.6
		c-0.5-0.1-1,0-1.5,0.1c-0.5,0.2-0.9,0.4-1.3,0.8l-7.3,7.3c-0.4,0.4-0.7,0.9-0.8,1.4c-0.2,0.5-0.2,1.1,0,1.6l0.6,2.6
		c1.1,4.6,0.8,9.3-0.8,13.8c-1.6,4.4-4.5,8.2-8.2,11.1c-3.8,2.8-8.3,4.5-12.9,4.7c-4.7,0.3-9.3-0.8-13.4-3.1l-3.2-1.8
		c-0.6-0.4-1.3-0.5-2-0.4c-0.7,0.1-1.3,0.4-1.8,0.9l-29.6,29.6c-0.3,0.3-0.6,0.7-0.7,1.1c-0.2,0.4-0.2,0.9-0.2,1.3
		c0,0.5,0.2,0.9,0.4,1.3c0.2,0.4,0.5,0.8,0.9,1l4.4,3.3c12.6,9.7,28,14.9,43.9,14.9c39.9,0,72.3-32.4,72.3-72.3
		C172.3,87.4,169,75.1,162.8,64.2z"/>
	
		<linearGradient id="SVGID_00000012455092548456836280000012463816497452823227_" gradientUnits="userSpaceOnUse" x1="27.7185" y1="114.5508" x2="149.5514" y2="114.5508" gradientTransform="matrix(1 0 0 -1 0 199.89)">
		<stop  offset="0" style="stop-color:#68D7FA"/>
		<stop  offset="1" style="stop-color:#7EF1B3"/>
	</linearGradient>
	<path style="fill:url(#SVGID_00000012455092548456836280000012463816497452823227_);" d="M143.9,42.6c-12.6-9.7-28-14.9-43.9-14.9
		c-39.9,0-72.3,32.4-72.3,72.3c0,12.6,3.3,24.9,9.5,35.9l3.1,5.5c0.2,0.4,0.6,0.8,1,1.1c0.4,0.3,0.9,0.5,1.4,0.5
		c0.5,0.1,1,0,1.5-0.1c0.5-0.2,0.9-0.4,1.2-0.8l7.2-7.2c0.5-0.5,0.9-1.2,0.9-2c0.1-0.7-0.1-1.5-0.5-2.1c-2.6-4-4.7-8.3-6.2-12.8
		c-2.8-8.5-3.6-17.5-2.3-26.3c1.3-8.8,4.7-17.2,9.9-24.4s12.1-13.1,20-17.2c7.9-4.1,16.7-6.2,25.6-6.2c9.2,0,18.2,2.2,26.3,6.5
		l-12.1,12.1c-6.1-2.3-12.6-3.1-19.1-2.3c-6.5,0.8-12.6,3.1-18,6.8c-5.3,3.7-9.7,8.6-12.7,14.4c-3,5.8-4.6,12.2-4.6,18.7
		c0,0.7,0.2,3.7,0.2,4.2c0.5,4.6,1.8,9.1,3.8,13.3c0.2,0.5,0.6,0.9,1,1.2c0.4,0.3,0.9,0.5,1.4,0.6c0.5,0.1,1,0.1,1.5-0.1
		c0.5-0.2,0.9-0.4,1.3-0.8l7.3-7.3c0.4-0.4,0.7-0.9,0.8-1.4c0.2-0.5,0.2-1.1,0-1.6l-0.6-2.6c-0.4-1.8-0.6-3.7-0.6-5.5
		c0-4.2,1.1-8.4,3.2-12c2.1-3.7,5.1-6.7,8.8-8.8c3.6-2.1,7.8-3.2,12-3.3c4.2,0,8.4,1.1,12,3.2l3.2,1.8c0.6,0.4,1.3,0.5,2,0.4
		c0.7-0.1,1.3-0.4,1.8-0.9l29.6-29.6c0.3-0.3,0.6-0.7,0.7-1.1c0.2-0.4,0.2-0.9,0.2-1.3c0-0.5-0.2-0.9-0.4-1.3
		c-0.2-0.4-0.5-0.8-0.9-1L143.9,42.6z"/>
</g>
</svg>
