<?xml version="1.0" encoding="UTF-8"?>
<svg id="Layer_1" data-name="Layer 1" xmlns="http://www.w3.org/2000/svg" version="1.1" viewBox="0 0 500 500">
  <defs>
    <style>
      .cls-1 {
        fill: #f2b720;
      }

      .cls-1, .cls-2 {
        stroke-width: 0px;
      }

      .cls-2 {
        fill: #fffffe;
      }
    </style>
  </defs>
  <path class="cls-1" d="M261.7,500h-25.9c-.4-.6-1-.4-1.5-.5-11.9-.6-23.7-2.2-35.3-4.6-35.2-7.3-67.7-21.1-96.6-42.6C41.3,407,6.9,346.3-.4,270.3c-.2-2.5.2-5-.8-7.4v-26.4c.7-.5.4-1.2.5-1.8.6-11.9,2.2-23.7,4.6-35.3,9.7-46.6,30.8-87.4,63.7-121.9C108.3,34.8,158.2,9.5,216.8,1.5c26.4-3.6,52.8-2.7,79,2.3,46.5,8.9,87.3,29.2,122.1,61.3,45.3,41.8,71.9,93.4,79.6,154.7,3.4,26.9,2.3,53.7-3.2,80.2-11.4,54.4-37.8,100.3-79.5,137.2-41.4,36.6-89.8,57.1-144.9,62-2.7.2-5.5,0-8.1.9ZM230.8,310.9c.9-1.2,1.4-1.9,1.9-2.6,33.1-43.8,66.3-87.7,99.4-131.5.9-1.2,1.3-2.3,1.3-3.8,0-10.4,0-20.9,0-31.3,0-2.1-.7-2.5-2.6-2.5-20.1,0-40.2,0-60.4,0-3.7,0-3.3.5-3.3-3.2,0-11.3,0-22.6,0-34,0-1.8-.3-2.5-2.4-2.5-12,.1-23.9,0-35.9,0-1.9,0-2.5.4-2.5,2.4,0,11.5,0,23,0,34.5,0,2.1-.4,2.9-2.8,2.9-20.3-.1-40.6,0-60.8-.1-2,0-2.6.4-2.6,2.5,0,14.2.1,28.3,0,42.5,0,2.3.7,2.8,2.8,2.8,32.1,0,64.2,0,96.3,0,1,0,2-.2,3.2.3-.6.8-1,1.5-1.5,2.1-33.1,43.8-66.3,87.7-99.5,131.5-.9,1.2-1.3,2.5-1.3,4,0,10.3,0,20.7,0,31,0,2.3.6,2.8,2.8,2.8,20.3,0,40.6,0,60.8-.1,2.1,0,2.5.6,2.5,2.6,0,11.5,0,23,0,34.5,0,1.8.4,2.3,2.3,2.3,12.1,0,24.1,0,36.2,0,1.9,0,2.3-.6,2.3-2.4,0-11.4,0-22.8,0-34.2,0-2.3.7-2.8,2.9-2.8,20.2,0,40.4,0,60.6,0,2.1,0,2.9-.4,2.9-2.7-.1-14.2-.1-28.3,0-42.5,0-2.2-.7-2.6-2.8-2.6-32.3,0-64.5,0-96.8,0-.9,0-1.8,0-3.1,0Z"/>
  <path class="cls-2" d="M230.8,310.9c1.4,0,2.3,0,3.1,0,32.3,0,64.5,0,96.8,0,2.1,0,2.8.4,2.8,2.6-.1,14.2-.1,28.3,0,42.5,0,2.4-.8,2.8-2.9,2.7-20.2,0-40.4,0-60.6,0-2.2,0-2.9.5-2.9,2.8.1,11.4,0,22.8,0,34.2,0,1.7-.3,2.4-2.3,2.4-12.1,0-24.1,0-36.2,0-1.9,0-2.3-.5-2.3-2.3,0-11.5,0-23,0-34.5,0-2-.4-2.6-2.5-2.6-20.3,0-40.6,0-60.8.1-2.2,0-2.8-.5-2.8-2.8.1-10.3,0-20.7,0-31,0-1.5.4-2.8,1.3-4,33.2-43.8,66.3-87.7,99.5-131.5.5-.6.9-1.3,1.5-2.1-1.1-.5-2.2-.3-3.2-.3-32.1,0-64.2,0-96.3,0-2.2,0-2.9-.5-2.8-2.8.1-14.2.1-28.3,0-42.5,0-2.1.6-2.5,2.6-2.5,20.3,0,40.6,0,60.8.1,2.3,0,2.8-.7,2.8-2.9,0-11.5,0-23,0-34.5,0-2,.6-2.4,2.5-2.4,12,0,23.9,0,35.9,0,2,0,2.4.7,2.4,2.5,0,11.3,0,22.6,0,34,0,3.7-.4,3.2,3.3,3.2,20.1,0,40.2,0,60.4,0,2,0,2.6.4,2.6,2.5-.1,10.4,0,20.9,0,31.3,0,1.5-.4,2.6-1.3,3.8-33.2,43.8-66.3,87.7-99.4,131.5-.5.7-1,1.4-1.9,2.6Z"/>
</svg>