<?xml version="1.0" encoding="UTF-8"?>
<svg xmlns="http://www.w3.org/2000/svg" xmlns:xlink="http://www.w3.org/1999/xlink" width="400px" height="400px" viewBox="0 0 400 400" version="1.1">
<g id="surface1">
<path style=" stroke:none;fill-rule:nonzero;fill:rgb(13.72549%,29.803922%,81.960784%);fill-opacity:1;" d="M 33.640625 94.582031 C 47.066406 65.667969 75.167969 51.355469 96.964844 62.421875 L 98.085938 63.015625 L 147.539062 90.84375 C 158.480469 87.402344 170.171875 88.28125 180.585938 93.320312 L 182.132812 94.105469 L 215.871094 112.730469 L 315.347656 168.070312 C 333.121094 178.03125 342.585938 199.375 342.449219 223.1875 L 342.421875 224.585938 L 360.199219 233.984375 L 329.527344 300.421875 L 311.5625 290.433594 C 294.640625 305.261719 273.339844 309.933594 255.40625 300.675781 L 254.0625 299.953125 L 121.425781 226.304688 C 121.242188 226.394531 121.03125 226.394531 120.847656 226.304688 C 110.707031 220.660156 102.761719 211.191406 98.460938 199.640625 L 97.898438 198.050781 L 49.261719 170.753906 C 49.101562 170.542969 48.890625 170.386719 48.652344 170.308594 L 48.496094 170.277344 C 26.546875 158.125 19.980469 123.988281 33.644531 94.582031 Z M 33.640625 94.582031 "/>
<path style=" stroke:none;fill-rule:nonzero;fill:rgb(32.941176%,57.647059%,96.862745%);fill-opacity:1;" d="M 57.601562 284.589844 L 142.363281 334.300781 L 88.40625 394.847656 C 87.703125 395.800781 86.511719 396.121094 85.484375 395.640625 L 85.246094 395.640625 L 4.21875 350.128906 C 3.488281 349.699219 2.96875 348.941406 2.792969 348.050781 C 2.617188 347.164062 2.804688 346.234375 3.308594 345.511719 L 57.601562 284.585938 Z M 128.699219 206.851562 L 129.09375 206.996094 L 210.257812 252.5 C 211.515625 253.140625 212.105469 254.746094 211.605469 256.164062 L 211.40625 256.601562 C 211.328125 256.816406 211.214844 257.011719 211.074219 257.183594 L 211.074219 257.5 L 148.300781 327.988281 L 63.296875 278.226562 L 126.167969 207.78125 C 126.773438 206.957031 127.761719 206.59375 128.699219 206.847656 Z M 360.582031 234.722656 C 371.410156 240.71875 373.085938 260.390625 364.605469 278.804688 C 356.121094 297.214844 340.644531 307.261719 329.816406 301.265625 C 318.984375 295.265625 317.3125 275.59375 325.789062 257.179688 C 334.273438 238.820312 349.75 228.722656 360.578125 234.722656 Z M 132.871094 87.320312 C 137.800781 87.261719 142.691406 88.300781 147.246094 90.375 C 143.289062 91.589844 139.453125 93.246094 135.792969 95.316406 L 134.550781 96 L 132.777344 96 C 117.15625 96 100.957031 108.835938 92.285156 127.246094 C 82.988281 147.449219 84.140625 169.804688 94.25 183.0625 C 94.976562 188.089844 96.167969 193.023438 97.796875 197.792969 C 77.914062 184.535156 72.398438 151.972656 85.675781 123.355469 C 95.734375 101 114.710938 87.320312 132.871094 87.320312 Z M 250.316406 73.851562 L 335.136719 123.566406 L 302.117188 160.703125 L 215.871094 112.730469 L 250.324219 73.851562 Z M 315.144531 2.851562 L 315.539062 2.996094 L 397.140625 48.5 C 398.535156 49.230469 399.148438 51.046875 398.527344 52.601562 C 398.453125 52.785156 398.359375 52.960938 398.242188 53.117188 L 341.03125 117.042969 L 256.070312 67.382812 L 312.613281 3.78125 C 313.132812 3.085938 313.929688 2.710938 314.75 2.78125 Z M 315.144531 2.851562 "/>
</g>
</svg>
