<?xml version="1.0" encoding="UTF-8"?>
<svg id="Layer_1" data-name="Layer 1" xmlns="http://www.w3.org/2000/svg" version="1.1" viewBox="0 0 500 500">
  <defs>
    <style>
      .cls-1 {
        fill: #4f5d67;
      }

      .cls-1, .cls-2, .cls-3, .cls-4 {
        stroke-width: 0px;
      }

      .cls-2 {
        fill: #031826;
      }

      .cls-3 {
        fill: #848e95;
      }

      .cls-4 {
        fill: #fff;
      }
    </style>
  </defs>
  <circle class="cls-2" cx="250" cy="250" r="249.1"/>
  <g>
    <path class="cls-1" d="M236.1,233.8s-89.2,19.8-91.1,101.6h-69.4s17.8-132.6,160.5-101.6Z"/>
    <g>
      <polygon class="cls-1" points="357.5 164.7 307 335.3 268 335.3 318.5 164.7 357.5 164.7"/>
      <polygon class="cls-1" points="268 201.6 226.9 335.3 187.8 335.3 226.9 201.6 268 201.6"/>
      <polygon class="cls-4" points="268 201.6 226.9 201.6 268 335.3 307 335.3 268 201.6"/>
      <polygon class="cls-4" points="178.5 164.7 226.9 335.3 187.8 335.3 138.4 164.7 178.5 164.7"/>
    </g>
    <path class="cls-4" d="M263.9,233.8s89.2,19.8,91.1,101.6h69.4s-17.8-132.6-160.5-101.6Z"/>
    <path class="cls-3" d="M236.1,233.8s-14.3-3-17.7-3.1l-3,10.2s11.3-4.8,20.7-7.1Z"/>
  </g>
</svg>