<?xml version="1.0" encoding="UTF-8"?>
<svg id="Layer_1" data-name="Layer 1" xmlns="http://www.w3.org/2000/svg" version="1.1" viewBox="0 0 500 500">
  <defs>
    <style>
      .cls-1 {
        fill: #101631;
      }

      .cls-1, .cls-2 {
        stroke-width: 0px;
      }

      .cls-2 {
        fill: #f4f620;
      }
    </style>
  </defs>
  <circle class="cls-1" cx="250" cy="250" r="250"/>
  <path class="cls-2" d="M103.7,386.4c6.5-21.4,12.8-42.5,19.1-63.5,7-23.2,14.1-46.4,21.2-69.5.9-2.9.2-3.4-2.6-3.4-12.4.1-24.7,0-37.7,0,2.6-8.8,5.1-17.3,7.6-25.7,12.6-41.6,25.2-83.3,37.9-124.9,1.8-5.8,3.7-11.6,5.3-17.5.6-2.1,1.4-2.9,3.6-2.9,21,0,42,.1,63,0,3.8,0,3.2,2,3.2,4.2,0,36.2,0,72.4,0,108.6v5.6c2.8-2.3,3.5-5,4.8-7.3,10.5-18,20.8-36.1,31.2-54.2,10.4-18,21-36,31.4-54.1,1-1.8,2-2.9,4.4-2.9,21.5.1,42.9,0,64.4,0,.4,0,.9.1,1.7.3-2.4,7.9-4.7,15.7-7,23.4-13.4,44.4-26.9,88.7-40.3,133.1-.5,1.6-.9,3.1-1.4,4.7q-3,9.4-13,9.4h-39.2c0,1.2.8,1.4,1.4,1.7,43.9,21.8,87.8,43.6,131.8,65.3,3.4,1.7,1.7,2.9.5,4.6-14.6,21.7-29.2,43.4-43.7,65.2-7.1,10.7-14.3,21.3-21.2,32.1-1.9,2.9-2.8,2.3-4.6.2-16-18.6-32-37.2-48-55.8-17.3-20.1-34.5-40.1-51.8-60.2-.2-.2-.5-.2-.8-.4-.9,1.3-.4,2.8-.4,4.2,0,25.3,0,50.7,0,76,0,2.3,0,3.7-3.2,3.7-38.6-.1-77.2,0-115.8-.1-.4,0-.9-.1-1.7-.3Z"/>
</svg>