<?xml version="1.0" encoding="utf-8"?>
<!-- Generator: Adobe Illustrator 26.4.1, SVG Export Plug-In . SVG Version: 6.00 Build 0)  -->
<svg version="1.1" id="Layer_1" xmlns="http://www.w3.org/2000/svg" xmlns:xlink="http://www.w3.org/1999/xlink" x="0px" y="0px"
	 viewBox="0 0 200 200" style="enable-background:new 0 0 200 200;" xml:space="preserve">
<style type="text/css">
	.st0{fill:#101D3F;}
	.st1{fill-rule:evenodd;clip-rule:evenodd;fill:#FBD52E;}
	.st2{fill:url(#SVGID_1_);}
</style>
<circle class="st0" cx="100" cy="100" r="89.4"/>
<path class="st1" d="M263.4-7.6"/>
<linearGradient id="SVGID_1_" gradientUnits="userSpaceOnUse" x1="31.2355" y1="100" x2="168.7645" y2="100">
	<stop  offset="2.998925e-02" style="stop-color:#53C6D9"/>
	<stop  offset="1" style="stop-color:#71C389"/>
</linearGradient>
<path class="st2" d="M58.2,103.6c0,7.1,0,13.9,0,20.9c-9.1,0-17.9,0-26.9,0c0-8.8,0-17.7,0-26.8c7,0,14,0,21.3,0c0-1.1,0-2,0-2.8
	c0-7.2,0-14.4,0-21.7c0-3.5,0.9-4.4,4.4-4.3c16.9,0.3,30.9,6.8,42.3,19.3c0.2,0.2,0.3,0.5,0.5,0.8c2.8-2.6,5.3-5.2,8-7.4
	c10.3-8.4,22.2-12.4,35.5-12.7c3.3-0.1,4.3,0.9,4.3,4.3c0,7.3,0,14.6,0,21.9c0,0.8,0.1,1.6,0.1,2.5c7.1,0,14.1,0,21.2,0
	c0,9.1,0,17.9,0,26.9c-8.9,0-17.7,0-26.8,0c0-6.9,0-13.8,0-21c-4.3,0.1-7.9,1.6-10.9,4.2c-2.2,1.9-4.3,4.2-6.1,6.5
	c-4,5-8.2,9.7-13.6,13.2c-7.1,4.7-14.3,4.9-21.6,0.6c-5.8-3.5-10.6-8.1-14.7-13.6c-3.7-5-7.9-9.2-14.2-10.6
	C60.1,103.7,59.3,103.7,58.2,103.6z M121.8,109.1c-10.4-1.7-18.6-6.8-24.9-14.9C87.5,82.2,75,75.7,59.7,74.5
	c-1.1-0.1-1.6,0.2-1.6,1.4c0,6.8,0,13.5,0,20.3c0,1.2,0.5,1.6,1.6,1.8c4.8,0.6,9.2,2.3,12.8,5.6c2.9,2.6,5.4,5.7,7.9,8.7
	c3.5,4.2,7.4,8.1,12.1,10.9c4.6,2.8,9.2,3.3,14.1,0.6C112.9,120.3,117.4,115,121.8,109.1z M141.9,74.4c-15.8,0.8-28.4,7.2-38.4,19
	c4.8,4.9,10,8.6,16.5,9.7c3.6,0.6,7.2,0.6,10.6-1.7c2.7-1.8,6.1-2.5,9.4-3.3c1.5-0.4,1.9-0.8,1.9-2.2c-0.1-3.6,0-7.3,0-10.9
	C141.9,81.5,141.9,78.1,141.9,74.4z M36.5,103.4c0,5,0,9.8,0.1,14.6c0,0.4,0.9,1,1.4,1.1c2.3,0.1,4.5,0.1,6.8,0.1c2.5,0,5,0,7.6,0
	c0-5.4,0-10.5,0-15.7C47.2,103.4,42,103.4,36.5,103.4z M147.6,103.3c0,5.4,0,10.5,0,15.6c5.3,0,10.4,0,15.6,0c0-5.3,0-10.4,0-15.6
	C157.9,103.3,152.9,103.3,147.6,103.3z"/>
</svg>
