<?xml version="1.0" encoding="utf-8"?>
<!-- Generator: Adobe Illustrator 26.4.1, SVG Export Plug-In . SVG Version: 6.00 Build 0)  -->
<svg version="1.1" id="Layer_1" xmlns="http://www.w3.org/2000/svg" xmlns:xlink="http://www.w3.org/1999/xlink" x="0px" y="0px"
	 viewBox="0 0 200 200" style="enable-background:new 0 0 200 200;" xml:space="preserve">
<style type="text/css">
	.st0{fill:#101D3F;}
	.st1{fill-rule:evenodd;clip-rule:evenodd;fill:#FBD52E;}
	.st2{fill:url(#SVGID_1_);}
</style>
<circle class="st0" cx="100" cy="100" r="100"/>
<path class="st1" d="M263.4-7.6"/>
<linearGradient id="SVGID_1_" gradientUnits="userSpaceOnUse" x1="20.2" y1="99.9028" x2="180" y2="99.9028" gradientTransform="matrix(1 0 0 -1 0 199.89)">
	<stop  offset="2.998925e-02" style="stop-color:#53C6D9"/>
	<stop  offset="1" style="stop-color:#71C389"/>
</linearGradient>
<path class="st2" d="M51.4,104.2c0,8.2,0,16.1,0,24.3c-10.6,0-20.8,0-31.2,0c0-10.2,0-20.6,0-31.1c8.1,0,16.3,0,24.7,0
	c0-1.3,0-2.3,0-3.3c0-8.4,0-16.7,0-25.2c0-4.1,1-5.1,5.1-5c19.6,0.3,35.9,7.9,49.1,22.4c0.2,0.2,0.3,0.6,0.6,0.9
	c3.3-3,6.2-6,9.3-8.6c12-9.8,25.8-14.4,41.2-14.7c3.8-0.1,5,1,5,5c0,8.5,0,17,0,25.4c0,0.9,0.1,1.9,0.1,2.9c8.2,0,16.4,0,24.6,0
	c0,10.6,0,20.8,0,31.2c-10.3,0-20.6,0-31.1,0c0-8,0-16,0-24.4c-5,0.1-9.2,1.9-12.7,4.9c-2.6,2.2-5,4.9-7.1,7.5
	c-4.6,5.8-9.5,11.3-15.8,15.3c-8.2,5.5-16.6,5.7-25.1,0.7c-6.7-4.1-12.3-9.4-17.1-15.8c-4.3-5.8-9.2-10.7-16.5-12.3
	C53.6,104.3,52.7,104.3,51.4,104.2z M125.3,110.6c-12.1-2-21.6-7.9-28.9-17.3C85.5,79.3,71,71.8,53.2,70.4c-1.3-0.1-1.9,0.2-1.9,1.6
	c0,7.9,0,15.7,0,23.6c0,1.4,0.6,1.9,1.9,2.1c5.6,0.7,10.7,2.7,14.9,6.5c3.4,3,6.3,6.6,9.2,10.1c4.1,4.9,8.6,9.4,14.1,12.7
	c5.3,3.3,10.7,3.8,16.4,0.7C115,123.6,120.2,117.4,125.3,110.6z M148.6,70.3c-18.3,0.9-33,8.4-44.6,22.1c5.6,5.7,11.6,10,19.2,11.3
	c4.2,0.7,8.4,0.7,12.3-2c3.1-2.1,7.1-2.9,10.9-3.8c1.7-0.5,2.2-0.9,2.2-2.6c-0.1-4.2,0-8.5,0-12.7C148.6,78.5,148.6,74.6,148.6,70.3
	z M26.2,104c0,5.8,0,11.4,0.1,17c0,0.5,1,1.2,1.6,1.3c2.7,0.1,5.2,0.1,7.9,0.1c2.9,0,5.8,0,8.8,0c0-6.3,0-12.2,0-18.2
	C38.7,104,32.6,104,26.2,104z M155.3,103.8c0,6.3,0,12.2,0,18.1c6.2,0,12.1,0,18.1,0c0-6.2,0-12.1,0-18.1
	C167.2,103.8,161.4,103.8,155.3,103.8z"/>
</svg>
