<?xml version="1.0" encoding="UTF-8"?>
<svg xmlns="http://www.w3.org/2000/svg" xmlns:xlink="http://www.w3.org/1999/xlink" width="400px" height="400px" viewBox="0 0 400 400" version="1.1">
<defs>
<clipPath id="clip1">
  <path d="M 52 83 L 354 83 L 354 264.945312 L 52 264.945312 Z M 52 83 "/>
</clipPath>
<clipPath id="clip2">
  <path d="M 72 0 L 328 0 C 367.765625 0 400 32.234375 400 72 L 400 328 C 400 367.765625 367.765625 400 328 400 L 72 400 C 32.234375 400 0 367.765625 0 328 L 0 72 C 0 32.234375 32.234375 0 72 0 Z M 72 0 "/>
</clipPath>
<clipPath id="clip3">
  <path d="M 68 9 L 339 9 L 339 214 L 68 214 Z M 68 9 "/>
</clipPath>
<clipPath id="clip4">
  <path d="M 72 0 L 328 0 C 367.765625 0 400 32.234375 400 72 L 400 328 C 400 367.765625 367.765625 400 328 400 L 72 400 C 32.234375 400 0 367.765625 0 328 L 0 72 C 0 32.234375 32.234375 0 72 0 Z M 72 0 "/>
</clipPath>
<clipPath id="clip5">
  <path d="M 84 27 L 149 27 L 149 93 L 84 93 Z M 84 27 "/>
</clipPath>
<clipPath id="clip6">
  <path d="M 72 0 L 328 0 C 367.765625 0 400 32.234375 400 72 L 400 328 C 400 367.765625 367.765625 400 328 400 L 72 400 C 32.234375 400 0 367.765625 0 328 L 0 72 C 0 32.234375 32.234375 0 72 0 Z M 72 0 "/>
</clipPath>
<clipPath id="clip7">
  <path d="M 256 27 L 321 27 L 321 93 L 256 93 Z M 256 27 "/>
</clipPath>
<clipPath id="clip8">
  <path d="M 72 0 L 328 0 C 367.765625 0 400 32.234375 400 72 L 400 328 C 400 367.765625 367.765625 400 328 400 L 72 400 C 32.234375 400 0 367.765625 0 328 L 0 72 C 0 32.234375 32.234375 0 72 0 Z M 72 0 "/>
</clipPath>
<clipPath id="clip9">
  <path d="M 7.949219 129 L 112 129 L 112 262 L 7.949219 262 Z M 7.949219 129 "/>
</clipPath>
<clipPath id="clip10">
  <path d="M 72 0 L 328 0 C 367.765625 0 400 32.234375 400 72 L 400 328 C 400 367.765625 367.765625 400 328 400 L 72 400 C 32.234375 400 0 367.765625 0 328 L 0 72 C 0 32.234375 32.234375 0 72 0 Z M 72 0 "/>
</clipPath>
<clipPath id="clip11">
  <path d="M 298 129 L 391.949219 129 L 391.949219 262 L 298 262 Z M 298 129 "/>
</clipPath>
<clipPath id="clip12">
  <path d="M 72 0 L 328 0 C 367.765625 0 400 32.234375 400 72 L 400 328 C 400 367.765625 367.765625 400 328 400 L 72 400 C 32.234375 400 0 367.765625 0 328 L 0 72 C 0 32.234375 32.234375 0 72 0 Z M 72 0 "/>
</clipPath>
<clipPath id="clip13">
  <path d="M 110 53 L 123 53 L 123 66 L 110 66 Z M 110 53 "/>
</clipPath>
<clipPath id="clip14">
  <path d="M 72 0 L 328 0 C 367.765625 0 400 32.234375 400 72 L 400 328 C 400 367.765625 367.765625 400 328 400 L 72 400 C 32.234375 400 0 367.765625 0 328 L 0 72 C 0 32.234375 32.234375 0 72 0 Z M 72 0 "/>
</clipPath>
<clipPath id="clip15">
  <path d="M 282 53 L 295 53 L 295 66 L 282 66 Z M 282 53 "/>
</clipPath>
<clipPath id="clip16">
  <path d="M 72 0 L 328 0 C 367.765625 0 400 32.234375 400 72 L 400 328 C 400 367.765625 367.765625 400 328 400 L 72 400 C 32.234375 400 0 367.765625 0 328 L 0 72 C 0 32.234375 32.234375 0 72 0 Z M 72 0 "/>
</clipPath>
<clipPath id="clip17">
  <path d="M 0 291 L 400 291 L 400 400 L 0 400 Z M 0 291 "/>
</clipPath>
<clipPath id="clip18">
  <path d="M 72 0 L 328 0 C 367.765625 0 400 32.234375 400 72 L 400 328 C 400 367.765625 367.765625 400 328 400 L 72 400 C 32.234375 400 0 367.765625 0 328 L 0 72 C 0 32.234375 32.234375 0 72 0 Z M 72 0 "/>
</clipPath>
</defs>
<g id="surface1">
<g clip-path="url(#clip1)" clip-rule="nonzero">
<g clip-path="url(#clip2)" clip-rule="nonzero">
<path style=" stroke:none;fill-rule:nonzero;fill:rgb(29.411765%,68.627451%,45.490196%);fill-opacity:1;" d="M 353.941406 185.628906 C 353.941406 242.007812 286.882812 264.917969 203.621094 264.917969 C 120.359375 264.917969 52.328125 242.007812 52.328125 185.628906 C 52.328125 129.246094 119.871094 83.625 203.132812 83.625 C 286.398438 83.625 353.941406 129.347656 353.941406 185.628906 Z M 353.941406 185.628906 "/>
</g>
</g>
<g clip-path="url(#clip3)" clip-rule="nonzero">
<g clip-path="url(#clip4)" clip-rule="nonzero">
<path style=" stroke:none;fill-rule:nonzero;fill:rgb(19.607843%,85.490196%,42.745098%);fill-opacity:1;" d="M 338.640625 62.878906 C 338.640625 33.195312 315.019531 9.089844 285.929688 9.089844 C 269.53125 9.089844 254.890625 16.757812 245.226562 28.710938 C 232.050781 25.722656 217.992188 24.03125 203.449219 24.03125 C 188.90625 24.03125 174.851562 25.625 161.671875 28.710938 C 151.910156 16.757812 137.269531 9.089844 120.96875 9.089844 C 91.878906 9.089844 68.257812 33.195312 68.257812 62.878906 C 68.257812 72.640625 70.796875 81.707031 75.1875 89.574219 C 70.992188 98.738281 68.746094 108.5 68.746094 118.660156 C 68.746094 170.957031 129.070312 213.292969 203.449219 213.292969 C 277.828125 213.292969 338.152344 170.957031 338.152344 118.660156 C 338.152344 108.5 335.90625 98.738281 331.710938 89.574219 C 336.101562 81.707031 338.640625 72.640625 338.640625 62.878906 Z M 338.640625 62.878906 "/>
</g>
</g>
<g clip-path="url(#clip5)" clip-rule="nonzero">
<g clip-path="url(#clip6)" clip-rule="nonzero">
<path style=" stroke:none;fill-rule:nonzero;fill:rgb(100%,100%,100%);fill-opacity:1;" d="M 116.71875 92.804688 C 134.511719 92.804688 148.933594 78.085938 148.933594 59.929688 C 148.933594 41.777344 134.511719 27.058594 116.71875 27.058594 C 98.929688 27.058594 84.507812 41.777344 84.507812 59.929688 C 84.507812 78.085938 98.929688 92.804688 116.71875 92.804688 Z M 116.71875 92.804688 "/>
</g>
</g>
<g clip-path="url(#clip7)" clip-rule="nonzero">
<g clip-path="url(#clip8)" clip-rule="nonzero">
<path style=" stroke:none;fill-rule:nonzero;fill:rgb(100%,100%,100%);fill-opacity:1;" d="M 288.59375 92.804688 C 306.386719 92.804688 320.808594 78.085938 320.808594 59.929688 C 320.808594 41.777344 306.386719 27.058594 288.59375 27.058594 C 270.804688 27.058594 256.382812 41.777344 256.382812 59.929688 C 256.382812 78.085938 270.804688 92.804688 288.59375 92.804688 Z M 288.59375 92.804688 "/>
</g>
</g>
<g clip-path="url(#clip9)" clip-rule="nonzero">
<g clip-path="url(#clip10)" clip-rule="nonzero">
<path style=" stroke:none;fill-rule:nonzero;fill:rgb(19.607843%,85.490196%,42.745098%);fill-opacity:1;" d="M 99.523438 261.042969 C 106.453125 261.042969 111.917969 254.867188 111.136719 247.894531 C 108.304688 223.191406 96.300781 169.699219 43.492188 137.527344 C -26.785156 94.695312 28.851562 242.117188 28.851562 242.117188 L 14.308594 250.683594 C 9.425781 253.574219 11.476562 261.042969 17.039062 261.042969 Z M 99.523438 261.042969 "/>
</g>
</g>
<g clip-path="url(#clip11)" clip-rule="nonzero">
<g clip-path="url(#clip12)" clip-rule="nonzero">
<path style=" stroke:none;fill-rule:nonzero;fill:rgb(19.607843%,85.490196%,42.745098%);fill-opacity:1;" d="M 309.238281 261.042969 C 302.992188 261.042969 298.109375 254.867188 298.792969 247.894531 C 301.234375 223.292969 312.167969 169.699219 359.800781 137.527344 C 423.34375 94.695312 373.078125 242.117188 373.078125 242.117188 L 386.253906 250.683594 C 390.644531 253.574219 388.792969 261.042969 383.8125 261.042969 Z M 309.238281 261.042969 "/>
</g>
</g>
<g clip-path="url(#clip13)" clip-rule="nonzero">
<g clip-path="url(#clip14)" clip-rule="nonzero">
<path style=" stroke:none;fill-rule:nonzero;fill:rgb(5.098039%,5.098039%,5.098039%);fill-opacity:1;" d="M 116.777344 65.734375 C 120.011719 65.734375 122.636719 63.058594 122.636719 59.757812 C 122.636719 56.457031 120.011719 53.78125 116.777344 53.78125 C 113.542969 53.78125 110.921875 56.457031 110.921875 59.757812 C 110.921875 63.058594 113.542969 65.734375 116.777344 65.734375 Z M 116.777344 65.734375 "/>
</g>
</g>
<g clip-path="url(#clip15)" clip-rule="nonzero">
<g clip-path="url(#clip16)" clip-rule="nonzero">
<path style=" stroke:none;fill-rule:nonzero;fill:rgb(5.098039%,5.098039%,5.098039%);fill-opacity:1;" d="M 288.492188 65.734375 C 291.726562 65.734375 294.347656 63.058594 294.347656 59.757812 C 294.347656 56.457031 291.726562 53.78125 288.492188 53.78125 C 285.257812 53.78125 282.636719 56.457031 282.636719 59.757812 C 282.636719 63.058594 285.257812 65.734375 288.492188 65.734375 Z M 288.492188 65.734375 "/>
</g>
</g>
<g clip-path="url(#clip17)" clip-rule="nonzero">
<g clip-path="url(#clip18)" clip-rule="nonzero">
<path style=" stroke:none;fill-rule:nonzero;fill:rgb(67.45098%,29.411765%,100%);fill-opacity:1;" d="M 0 291.179688 L 400 291.179688 L 400 445.21875 L 0 445.21875 Z M 0 291.179688 "/>
</g>
</g>
</g>
</svg>
