<?xml version="1.0" encoding="UTF-8"?>
<svg id="Layer_1" data-name="Layer 1" xmlns="http://www.w3.org/2000/svg" version="1.1" viewBox="0 0 500 500">
  <defs>
    <style>
      .cls-1 {
        fill: #4da2ff;
      }

      .cls-1, .cls-2 {
        stroke-width: 0px;
      }

      .cls-2 {
        fill: #fff;
      }
    </style>
  </defs>
  <path class="cls-1" d="M249.9,499.5c137.8,0,249.6-111.7,249.6-249.6S387.7.3,249.9.3.3,112,.3,249.9s111.7,249.6,249.6,249.6h0Z"/>
  <path class="cls-2" d="M255.1,445.5h-13.5c-.4-.3-.9-.2-1.3-.3-4-.2-7.9-.7-11.8-1.2-14.9-2.1-29.1-6.3-42.8-12.7-37.9-17.6-67.1-50.2-80.5-89.8-4.3-12.8-6.9-25.9-7.7-39.3,0-1.2,0-2.4-.5-3.6v-11.9c.3-.3.3-.8.3-1.2.2-2.2.4-4.4.6-6.6.7-8.7,2.3-17.3,4.5-25.7,5.8-21.6,15.9-40.9,30.1-58.2,34.9-42.6,69.8-85.3,104.7-127.9,2.8-3.5,5.7-6.9,8.5-10.4,1.4-1.8,3.3-2.6,5.5-2.2,1.6.3,2.7,1.3,3.7,2.5,27.9,34.1,55.8,68.2,83.6,102.3,10.5,12.9,21.2,25.6,31.5,38.7,12.2,15.4,21.2,32.6,26.8,51.5,2.7,9.1,4.5,18.4,5.5,27.9.3,3.4.5,6.8.6,10.2,0,.6,0,1.2,0,1.8.3,12.2-.7,24.2-3.4,36.1-10.3,47.2-43,87.2-87.1,106.8-11.8,5.2-24,9-36.8,11.1-6.8,1.1-13.6,1.8-20.5,2ZM340,365.6c.5-.2.7-.6,1-.9,15.9-19.7,24.7-42.2,26.3-67.4.6-9.4,0-18.7-1.7-28-3.6-19.4-11.6-36.9-24-52.2-15-18.5-30.2-36.9-45.3-55.4-13.3-16.3-26.7-32.5-39.9-48.8-3.4-4.3-9.5-4.3-12.6,0-1.3,1.8-2.8,3.4-4.1,5.1-4.6,5.6-9.5,11-13.7,16.9-12.8,17.9-19.4,38-18.9,60.2.2,8.6,2,16.8,5.5,24.6,4.8,11.1,12.3,20.3,21.2,28.3,7.5,6.8,15.7,12.5,24.5,17.5,9,5.2,17.8,10.7,26.2,16.9,12.1,9,23.1,19.1,32.3,31,11.8,15.2,19.8,32,22.9,51.1,0,.4,0,.9.4,1.2ZM168.8,204.8c-1.4,1.7-2.5,3.1-3.7,4.6-4.2,5.2-8.6,10.3-12.4,16-15.3,23.1-21.7,48.4-19.3,76,.7,8.5,2.4,16.9,5.1,25,9.5,28.6,27.2,50.6,53.2,65.7,17.6,10.3,36.7,15.3,57,15.6,6.6.1,13.2-.4,19.8-1.4,11.4-1.8,22.2-5.2,32.6-10.1.8-.4,1.1-.9,1.2-1.7.6-6.4.5-12.8-.3-19.2-1.5-12.8-6-24.5-13.4-35.1-6.5-9.3-14.4-17.2-23.2-24.2-8.1-6.5-16.9-12.2-25.9-17.3-7.8-4.4-15.3-9.3-22.4-14.8-11.2-8.6-21.2-18.4-29.4-30.1-9.6-13.7-15.8-28.8-18.3-45.4-.2-1,0-2.1-.6-3.4Z"/>
</svg>