<?xml version="1.0" encoding="UTF-8"?>
<svg xmlns="http://www.w3.org/2000/svg" xmlns:xlink="http://www.w3.org/1999/xlink" width="200px" height="px" viewBox="0 0 200 200" version="1.1">
<g id="surface1">
<path style=" stroke:none;fill-rule:evenodd;fill:rgb(60.784314%,79.215686%,85.490196%);fill-opacity:1;" d="M 120.546875 12.136719 C 120.546875 15.371094 117.921875 17.996094 114.6875 17.996094 C 111.449219 17.996094 108.828125 15.371094 108.828125 12.136719 C 108.828125 8.898438 111.449219 6.277344 114.6875 6.277344 C 117.921875 6.277344 120.546875 8.898438 120.546875 12.136719 Z M 120.546875 12.136719 "/>
<path style=" stroke:none;fill-rule:evenodd;fill:rgb(77.647059%,87.843137%,91.764706%);fill-opacity:1;" d="M 193.722656 24.6875 C 193.722656 27.921875 191.101562 30.546875 187.863281 30.546875 C 184.628906 30.546875 182.003906 27.921875 182.003906 24.6875 C 182.003906 21.453125 184.628906 18.828125 187.863281 18.828125 C 191.101562 18.828125 193.722656 21.453125 193.722656 24.6875 Z M 193.722656 24.6875 "/>
<path style=" stroke:none;fill-rule:evenodd;fill:rgb(94.117647%,96.078431%,98.039216%);fill-opacity:1;" d="M 174.894531 143.933594 C 174.894531 147.167969 172.273438 149.792969 169.035156 149.792969 C 165.800781 149.792969 163.175781 147.167969 163.175781 143.933594 C 163.175781 140.695312 165.800781 138.074219 169.035156 138.074219 C 172.273438 138.074219 174.894531 140.695312 174.894531 143.933594 Z M 174.894531 143.933594 "/>
<path style=" stroke:none;fill-rule:evenodd;fill:rgb(60.784314%,79.215686%,85.490196%);fill-opacity:1;" d="M 137.238281 175.3125 C 137.238281 178.546875 134.617188 181.171875 131.378906 181.171875 C 128.144531 181.171875 125.519531 178.546875 125.519531 175.3125 C 125.519531 172.078125 128.144531 169.453125 131.378906 169.453125 C 134.617188 169.453125 137.238281 172.078125 137.238281 175.3125 Z M 137.238281 175.3125 "/>
<path style=" stroke:none;fill-rule:evenodd;fill:rgb(94.117647%,96.078431%,98.039216%);fill-opacity:1;" d="M 24.269531 74.894531 C 24.269531 78.132812 21.648438 80.753906 18.410156 80.753906 C 15.175781 80.753906 12.550781 78.132812 12.550781 74.894531 C 12.550781 71.660156 15.175781 69.035156 18.410156 69.035156 C 21.648438 69.035156 24.269531 71.660156 24.269531 74.894531 Z M 24.269531 74.894531 "/>
<path style=" stroke:none;fill-rule:nonzero;fill:rgb(77.647059%,87.843137%,91.764706%);fill-opacity:1;" d="M 194.140625 178.867188 L 190.585938 178.867188 L 190.585938 175.3125 C 190.585938 172.078125 187.960938 169.453125 184.726562 169.453125 C 181.492188 169.453125 178.867188 172.078125 178.867188 175.3125 L 178.867188 178.867188 L 175.3125 178.867188 C 172.078125 178.867188 169.453125 181.492188 169.453125 184.726562 C 169.453125 187.960938 172.078125 190.585938 175.3125 190.585938 L 178.867188 190.585938 L 178.867188 194.140625 C 178.867188 197.375 181.492188 200 184.726562 200 C 187.960938 200 190.585938 197.375 190.585938 194.140625 L 190.585938 190.585938 L 194.140625 190.585938 C 197.375 190.585938 200 187.960938 200 184.726562 C 200 181.492188 197.375 178.867188 194.140625 178.867188 Z M 194.140625 178.867188 "/>
<path style=" stroke:none;fill-rule:nonzero;fill:rgb(0%,95.686275%,100%);fill-opacity:1;" d="M 95.6875 104.28125 C 73.792969 82.390625 38.300781 82.390625 16.40625 104.285156 C -5.484375 126.175781 -5.484375 161.671875 16.40625 183.5625 C 38.300781 205.457031 73.792969 205.457031 95.6875 183.5625 C 117.578125 161.671875 117.578125 126.175781 95.6875 104.28125 Z M 95.6875 104.28125 "/>
<path style=" stroke:none;fill-rule:nonzero;fill:rgb(100%,38.823529%,47.058824%);fill-opacity:1;" d="M 200 81.171875 C 200 105.203125 180.515625 124.6875 156.484375 124.6875 C 132.453125 124.6875 112.96875 105.203125 112.96875 81.171875 C 112.96875 57.140625 132.453125 37.65625 156.484375 37.65625 C 180.515625 37.65625 200 57.140625 200 81.171875 Z M 200 81.171875 "/>
<path style=" stroke:none;fill-rule:nonzero;fill:rgb(100%,70.588235%,15.686275%);fill-opacity:1;" d="M 84.933594 17.152344 C 79.046875 2.953125 62.765625 -3.785156 48.5625 2.097656 C 34.363281 7.984375 27.625 24.265625 33.511719 38.46875 C 39.398438 52.667969 55.679688 59.40625 69.878906 53.519531 C 84.078125 47.632812 90.816406 31.351562 84.933594 17.152344 Z M 84.933594 17.152344 "/>
<path style=" stroke:none;fill-rule:nonzero;fill:rgb(0%,70.588235%,98.823529%);fill-opacity:1;" d="M 56.066406 87.863281 L 56.066406 200 C 86.984375 200 112.136719 174.847656 112.136719 143.933594 C 112.136719 113.015625 86.984375 87.863281 56.066406 87.863281 Z M 56.066406 87.863281 "/>
<path style=" stroke:none;fill-rule:nonzero;fill:rgb(0%,70.588235%,98.823529%);fill-opacity:1;" d="M 112.136719 143.933594 C 112.136719 113.015625 86.984375 87.863281 56.066406 87.863281 C 31.910156 87.863281 11.273438 103.222656 3.402344 124.6875 L 62.34375 124.6875 C 66.035156 124.6875 69.035156 127.691406 69.035156 131.378906 C 69.035156 135.128906 66 138.074219 62.34375 138.074219 L 49.792969 138.074219 C 39.835938 138.074219 31.378906 146.101562 31.378906 156.484375 C 31.378906 166.636719 39.640625 174.894531 49.792969 174.894531 L 102.785156 174.894531 C 108.691406 166.015625 112.136719 155.371094 112.136719 143.933594 Z M 112.136719 143.933594 "/>
<path style=" stroke:none;fill-rule:nonzero;fill:rgb(0%,45.098039%,97.647059%);fill-opacity:1;" d="M 112.136719 143.933594 C 112.136719 113.015625 86.984375 87.863281 56.066406 87.863281 L 56.066406 124.6875 L 62.34375 124.6875 C 66.035156 124.6875 69.035156 127.691406 69.035156 131.378906 C 69.035156 135.128906 66 138.074219 62.34375 138.074219 L 56.066406 138.074219 L 56.066406 174.894531 L 102.785156 174.894531 C 108.691406 166.015625 112.136719 155.371094 112.136719 143.933594 Z M 112.136719 143.933594 "/>
<path style=" stroke:none;fill-rule:nonzero;fill:rgb(81.568627%,0%,69.411765%);fill-opacity:1;" d="M 156.484375 124.6875 L 156.484375 37.65625 C 180.480469 37.65625 200 57.175781 200 81.171875 C 200 105.167969 180.480469 124.6875 156.484375 124.6875 Z M 156.484375 124.6875 "/>
<path style=" stroke:none;fill-rule:nonzero;fill:rgb(81.568627%,0%,69.411765%);fill-opacity:1;" d="M 162.761719 87.863281 L 113.484375 87.863281 C 114.125 91.988281 115.347656 95.921875 117.0625 99.582031 L 162.761719 99.582031 C 165.996094 99.582031 168.621094 96.960938 168.621094 93.722656 C 168.621094 90.488281 165.996094 87.863281 162.761719 87.863281 Z M 162.761719 87.863281 "/>
<path style=" stroke:none;fill-rule:nonzero;fill:rgb(81.568627%,0%,69.411765%);fill-opacity:1;" d="M 195.90625 62.761719 L 150.207031 62.761719 C 146.972656 62.761719 144.347656 65.382812 144.347656 68.621094 C 144.347656 71.855469 146.972656 74.480469 150.207031 74.480469 L 199.484375 74.480469 C 198.84375 70.355469 197.621094 66.417969 195.90625 62.761719 Z M 195.90625 62.761719 "/>
<path style=" stroke:none;fill-rule:nonzero;fill:rgb(57.647059%,18.823529%,62.745098%);fill-opacity:1;" d="M 168.621094 93.722656 C 168.621094 90.488281 165.996094 87.863281 162.761719 87.863281 L 156.484375 87.863281 L 156.484375 99.582031 L 162.761719 99.582031 C 165.996094 99.582031 168.621094 96.960938 168.621094 93.722656 Z M 168.621094 93.722656 "/>
<path style=" stroke:none;fill-rule:nonzero;fill:rgb(57.647059%,18.823529%,62.745098%);fill-opacity:1;" d="M 199.242188 73.074219 C 199.226562 72.988281 199.207031 72.898438 199.191406 72.8125 C 199.003906 71.859375 198.789062 70.921875 198.542969 69.992188 C 198.527344 69.9375 198.511719 69.882812 198.496094 69.824219 C 198.371094 69.363281 198.242188 68.90625 198.101562 68.453125 C 198.101562 68.449219 198.101562 68.445312 198.097656 68.441406 C 197.800781 67.464844 197.464844 66.503906 197.101562 65.558594 C 197.101562 65.554688 197.101562 65.554688 197.101562 65.554688 C 196.734375 64.605469 196.335938 63.675781 195.90625 62.761719 L 156.484375 62.761719 L 156.484375 74.480469 L 199.484375 74.480469 C 199.410156 74.007812 199.328125 73.539062 199.242188 73.074219 Z M 199.242188 73.074219 "/>
<path style=" stroke:none;fill-rule:nonzero;fill:rgb(100%,54.901961%,0%);fill-opacity:1;" d="M 87.03125 27.824219 C 87.03125 12.484375 74.550781 0 59.207031 0 L 59.207031 55.652344 C 74.550781 55.652344 87.03125 43.167969 87.03125 27.824219 Z M 87.03125 27.824219 "/>
</g>
</svg>
