<?xml version="1.0" encoding="UTF-8"?>
<svg id="Layer_1" data-name="Layer 1" xmlns="http://www.w3.org/2000/svg" version="1.1" viewBox="0 0 500 500">
  <defs>
    <style>
      .cls-1 {
        fill: #154618;
      }

      .cls-1, .cls-2 {
        stroke-width: 0px;
      }

      .cls-2 {
        fill: #fff;
      }
    </style>
  </defs>
  <path class="cls-1" d="M498.3,249.7c0,138.3-110.8,249.5-248.6,249.4-137.3,0-248.1-111.3-248.1-249.2C1.7,111.9,112.7.8,250.6.9c136.8.1,247.7,111.4,247.7,248.8Z"/>
  <g>
    <path class="cls-2" d="M171.7,159.8h68.7v104.5c.1,5.2,4.3,9.4,9.5,9.4,0,0,0,0,0,0h0c5.2,0,9.4-4.2,9.4-9.4h0v-113.9c-.1-5.2-4.4-9.4-9.5-9.4h-78.1c-5.2,0-9.4,4.2-9.4,9.4s4.2,9.4,9.4,9.4Z"/>
    <path class="cls-2" d="M154.4,202.5h43.4v61.8c.1,0,.1,42.6.1,42.6,0,5.2,4.2,9.4,9.4,9.4h85.3c5.2,0,9.4-4.2,9.4-9.4h0v-42.7h0V107.8c-.1-5.2-4.3-9.4-9.5-9.4h-102.8c-5.2,0-9.4,4.2-9.4,9.4s4.2,9.4,9.4,9.4h93.4v147.1c.1,0,.1,33.2.1,33.2h-66.5v-33.2h0v-71.2c-.1-5.2-4.4-9.4-9.5-9.4h-52.9c-5.2,0-9.4,4.2-9.4,9.4s4.2,9.4,9.4,9.4h0Z"/>
    <path class="cls-2" d="M377.9,309.5c-5.2,0-9.4,4.2-9.4,9.4h0v63.9h-237.1v-63.9c0-5.2-4.2-9.4-9.4-9.4s-9.4,4.2-9.4,9.4v73.3c0,5.2,4.2,9.4,9.4,9.4h255.9c5.2,0,9.4-4.2,9.4-9.4h0v-73.3c0-5.2-4.2-9.4-9.4-9.4h0Z"/>
    <path class="cls-2" d="M174.1,340.2v-45.2c0-5.2-4.2-9.4-9.4-9.4s-9.4,4.2-9.4,9.4v54.6c0,5.2,4.2,9.4,9.4,9.4h170.6c5.2,0,9.4-4.2,9.4-9.4v-54.6c0-5.2-4.2-9.4-9.4-9.4s-9.4,4.2-9.4,9.4v45.2h-151.7Z"/>
  </g>
</svg>