<?xml version="1.0" encoding="utf-8"?>
<svg version="1.1" id="Layer_1" xmlns="http://www.w3.org/2000/svg" xmlns:xlink="http://www.w3.org/1999/xlink" x="0px" y="0px"
	 viewBox="0 0 200 200" style="enable-background:new 0 0 200 200;" xml:space="preserve">
<style type="text/css">
	.st0{fill-rule:evenodd;clip-rule:evenodd;fill:#FBD52E;}
	.st1{fill:url(#SVGID_1_);}
	.st2{fill:url(#SVGID_00000170986368975660758200000001173212912946501814_);}
</style>
<path class="st0" d="M100,99.1"/>
<circle cx="100" cy="99.9" r="99.9"/>
<g>
	
		<linearGradient id="SVGID_1_" gradientUnits="userSpaceOnUse" x1="109.2599" y1="678.875" x2="102.4559" y2="807.1174" gradientTransform="matrix(1 0 0 1 0 -642)">
		<stop  offset="0" style="stop-color:#48EF8A"/>
		<stop  offset="0.5458" style="stop-color:#43B4A6"/>
		<stop  offset="0.6918" style="stop-color:#2D796F"/>
		<stop  offset="0.9662" style="stop-color:#000000"/>
	</linearGradient>
	<path class="st1" d="M159.3,41.9v50.5c0,9-2.8,17.7-8,24.8c-1.6,2.2-3.4,4.3-5.4,6.2l-0.1,0.1h-23.7V76.7h-22H78h-2H54.1l0.3-0.3
		L73,58.9l6.9-6.4c7.8-7.3,17.3-10.7,27.9-10.7h51.5V41.9z"/>
	
		<linearGradient id="SVGID_00000169529686934308619600000007854777468076199810_" gradientUnits="userSpaceOnUse" x1="96.4701" y1="806.4911" x2="78.6088" y2="675.0824" gradientTransform="matrix(1 0 0 1 0 -642)">
		<stop  offset="0" style="stop-color:#FF5F96"/>
		<stop  offset="0.6103" style="stop-color:#FF33AF"/>
		<stop  offset="1" style="stop-color:#000000"/>
	</linearGradient>
	<path style="fill:url(#SVGID_00000169529686934308619600000007854777468076199810_);" d="M145.8,123.5L145.8,123.5l-0.1,0.1
		l-1.2,1.2l-4.7,4.5l-17.1,16.1l-1.7,1.5c-7.8,7.2-18,11.2-28.4,11.2H40.7v-22.6l0.1-12.1l0.1-16.1c0.1-11.7,4.9-22.8,13.3-30.8
		h21.9h0.1v46.9L145.8,123.5L145.8,123.5z"/>
</g>
</svg>
