<?xml version="1.0" encoding="UTF-8"?>
<svg xmlns="http://www.w3.org/2000/svg" xmlns:xlink="http://www.w3.org/1999/xlink" width="200px" height="200px" viewBox="0 0 200 200" version="1.1">
<g id="surface1">
<path style=" stroke:none;fill-rule:nonzero;fill:rgb(76.078431%,65.098039%,20%);fill-opacity:1;" d="M 102.398438 65.898438 L 88.113281 65.898438 L 88.113281 94.070312 L 110.589844 94.070312 L 110.589844 105.863281 L 88.113281 105.863281 L 88.113281 134.03125 L 103.101562 134.03125 C 106.949219 134.03125 134.714844 134.464844 134.671875 101.257812 C 134.628906 68.050781 107.742188 65.898438 102.398438 65.898438 Z M 102.398438 65.898438 "/>
<path style=" stroke:none;fill-rule:nonzero;fill:rgb(76.078431%,65.098039%,20%);fill-opacity:1;" d="M 100 0 C 44.769531 0 0 44.769531 0 100 C 0 155.230469 44.769531 200 100 200 C 155.230469 200 200 155.230469 200 100 C 200 44.769531 155.230469 0 100 0 Z M 103.929688 154.011719 L 67.714844 154.011719 L 67.714844 105.863281 L 54.949219 105.863281 L 54.949219 94.070312 L 67.714844 94.070312 L 67.714844 45.921875 L 98.796875 45.921875 C 106.148438 45.921875 154.851562 44.394531 154.851562 100.867188 C 154.851562 158.277344 103.929688 154.011719 103.929688 154.011719 Z M 103.929688 154.011719 "/>
</g>
</svg>
