<?xml version="1.0" encoding="utf-8"?>
<!-- Generator: Adobe Illustrator 26.4.1, SVG Export Plug-In . SVG Version: 6.00 Build 0)  -->
<svg version="1.1" id="Layer_1" xmlns="http://www.w3.org/2000/svg" xmlns:xlink="http://www.w3.org/1999/xlink" x="0px" y="0px"
	 viewBox="0 0 200 200" style="enable-background:new 0 0 200 200;" xml:space="preserve">
<style type="text/css">
	.st0{stroke:#FFFFFF;stroke-width:5;stroke-miterlimit:10;}
	.st1{fill:#7B47E1;}
	.st2{fill-rule:evenodd;clip-rule:evenodd;fill:#FBD52E;}
</style>
<g id="surface1_00000103955597701102914250000005251003009576502202_">
	<g>
		<path class="st0" d="M196.4,100c0,53.3-43.1,96.4-96.4,96.4S3.6,153.3,3.6,100S46.7,3.6,100,3.6S196.4,46.7,196.4,100z"/>
		<g>
			<g>
				<g>
					<path class="st1" d="M31,99.9c0-9.1,0-18.2,0-27.3c0-8.1,3.7-14.3,10.5-18.5c15.7-9.3,31.5-18.3,47.4-27.3
						c7.4-4.2,15-4.1,22.4,0c15.6,9,31.2,17.9,46.8,27.1C165.3,58.1,169,64.6,169,73c0,18,0,36.1,0,54.1c0,8.6-3.9,15-11.2,19.3
						c-15.4,9-30.8,17.9-46.3,26.8c-7.8,4.4-15.6,4.3-23.4-0.2c-15-8.8-30-17.4-45-25.9c-8.1-4.6-12.2-11.4-12.1-20.9
						C31.2,117.3,31,108.5,31,99.9z M41.6,100c0.6-0.2,1.2-0.3,1.5-0.5c5.5-3.6,11.6-4.6,18-4.5c26.4,0.1,52.7,0,79.1,0
						c11.4,0,17.8-5.7,18.8-17c0.5-5.7,0.3-11.6-5.4-15c-15.9-9.4-32.1-18.6-48.1-27.7c-3.6-2-7.4-2-10.9,0
						c-16.1,9.2-32.1,18.3-48,27.6c-3.2,1.9-5.3,4.7-5.3,8.5c-0.2,9-0.2,18-0.3,27C41,98.9,41.4,99.4,41.6,100z M158.4,100
						c-0.7,0.3-1.3,0.5-1.8,0.7c-5.2,3.3-10.9,4.4-16.9,4.4c-26.7-0.1-53.3,0-79.9,0c-11.4,0-17.7,5.7-18.7,17
						c-0.5,5.7-0.2,11.6,5.5,14.9c15.9,9.4,32.1,18.6,48.1,27.7c3.6,2,7.4,1.9,10.9-0.1c15.9-9.1,31.7-18.2,47.6-27.5
						c3.2-1.9,5.4-4.6,5.5-8.4c0.2-9,0.2-18,0.3-27C159,101.3,158.6,100.7,158.4,100z"/>
				</g>
			</g>
			<g>
				<path class="st1" d="M85.2,69.8c-3.9,0-7.4,0-11.4,0c0,3.9,0,7.7,0,11.6c0,4.1,0,4.1-4.2,4.1c-7.1,0-6,0.6-6.1-6.1
					c0-3.2,0-6.4,0-9.6C63.6,64,68,59.6,73.7,59.4c3.7-0.1,7.4-0.1,11.1,0c6,0.1,10.4,4.5,10.5,10.4c0.1,4.3,0,8.6,0,13
					c0,1.9-0.6,2.7-2.6,2.7c-9.5-0.1-7.5,1.1-7.7-7.2C85.2,75.6,85.2,72.9,85.2,69.8z"/>
			</g>
			<g>
				<path class="st1" d="M107.5,76.1c0-2.1,0-4.2,0-6.3c0.1-5.8,4.5-10.2,10.3-10.3c3.7-0.1,7.4-0.1,11.2,0
					c5.8,0.1,10.3,4.5,10.4,10.2c0.1,4.4,0,8.9,0.1,13.2c0,2-0.7,2.6-2.6,2.6c-9.3-0.1-7.5,1.1-7.6-7.3c-0.1-8.6,0-8.5-8.5-8.6
					c-2.6,0-3.4,0.9-3.3,3.4c0.1,3.3,0,6.6,0,9.9c0,1.9-0.8,2.6-2.7,2.6c-8.8-0.1-7.1,0.8-7.2-6.7C107.5,77.9,107.5,76.9,107.5,76.1
					L107.5,76.1z"/>
			</g>
			<g>
				<path class="st1" d="M73.8,130.2c3.9,0,7.5,0,11.4,0c0-4.2,0.1-8.3,0-12.3c-0.1-2.5,0.7-3.4,3.3-3.3c8.4,0.2,6.9-0.9,7.1,7
					c0,3,0,5.8,0,8.8c-0.1,5.9-4.6,10.3-10.5,10.4c-3.6,0-7.2,0.1-10.9,0c-6.1-0.1-10.5-4.5-10.5-10.8c0-4.1,0.1-8.2,0-12.3
					c-0.1-2.1,0.5-3.2,2.8-3.1c9.1,0.2,7.3-0.9,7.5,7.2C74,124.5,73.8,127.2,73.8,130.2z"/>
			</g>
			<g>
				<path class="st1" d="M129.2,130.4c0-4.7,0.1-9,0-13.2c0-2,0.7-2.6,2.6-2.6c9.4,0.1,7.5-1.1,7.6,7.3c0.1,2.7,0,5.4,0,8.1
					c-0.1,6.1-4.5,10.7-10.7,10.8c-3.6,0.1-7.2,0.1-10.9,0c-6-0.1-10.4-4.5-10.5-10.4c-0.1-4.2,0.1-8.4-0.1-12.7
					c-0.1-2.4,0.9-3.1,3.2-3.1c7.8,0.1,6.6-0.7,6.7,6.7c0,2.3-0.1,4.6,0.1,6.9c0.1,0.8,1.1,2.1,1.7,2.1
					C122.4,130.5,125.6,130.4,129.2,130.4z"/>
			</g>
		</g>
	</g>
</g>
<path class="st2" d="M263.4-7.6"/>
</svg>
