<?xml version="1.0" encoding="utf-8"?>
<!-- Generator: Adobe Illustrator 26.4.1, SVG Export Plug-In . SVG Version: 6.00 Build 0)  -->
<svg version="1.1" id="Layer_1" xmlns="http://www.w3.org/2000/svg" xmlns:xlink="http://www.w3.org/1999/xlink" x="0px" y="0px"
	 viewBox="0 0 200 200" style="enable-background:new 0 0 200 200;" xml:space="preserve">
<style type="text/css">
	.st0{fill:#7B47E1;}
	.st1{fill-rule:evenodd;clip-rule:evenodd;fill:#FBD52E;}
</style>
<g id="surface1_00000103955597701102914250000005251003009576502202_">
	<g>
		<path d="M191.4,100c0,50.5-40.9,91.4-91.4,91.4S8.6,150.5,8.6,100S49.5,8.6,100,8.6S191.4,49.5,191.4,100z"/>
		<g>
			<g>
				<g>
					<path class="st0" d="M34.6,99.9c0-8.6,0-17.3,0-25.9c0-7.7,3.5-13.6,10-17.5c14.9-8.8,29.9-17.4,44.9-25.9c7-4,14.2-3.9,21.2,0
						c14.8,8.5,29.6,17,44.4,25.7c6.8,4,10.3,10.1,10.3,18.1c0,17.1,0,34.2,0,51.3c0,8.2-3.7,14.2-10.6,18.3
						c-14.6,8.5-29.2,17-43.9,25.4c-7.4,4.2-14.8,4.1-22.2-0.2c-14.2-8.3-28.4-16.5-42.7-24.6c-7.7-4.4-11.6-10.8-11.5-19.8
						C34.8,116.4,34.6,108.1,34.6,99.9z M44.6,100c0.6-0.2,1.1-0.3,1.4-0.5c5.2-3.4,11-4.4,17.1-4.3c25,0.1,50,0,75,0
						c10.8,0,16.9-5.4,17.8-16.1c0.5-5.4,0.3-11-5.1-14.2c-15.1-8.9-30.4-17.6-45.6-26.3c-3.4-1.9-7-1.9-10.3,0
						C79.6,47.3,64.5,56,49.4,64.8c-3,1.8-5,4.5-5,8.1c-0.2,8.5-0.2,17.1-0.3,25.6C44.1,99,44.4,99.4,44.6,100z M155.4,100
						c-0.7,0.3-1.2,0.5-1.7,0.7c-4.9,3.1-10.3,4.2-16,4.2c-25.3-0.1-50.5,0-75.8,0c-10.8,0-16.8,5.4-17.7,16.1
						c-0.5,5.4-0.2,11,5.2,14.1c15.1,8.9,30.4,17.6,45.6,26.3c3.4,1.9,7,1.8,10.3-0.1c15.1-8.6,30.1-17.3,45.1-26.1
						c3-1.8,5.1-4.4,5.2-8c0.2-8.5,0.2-17.1,0.3-25.6C155.9,101.2,155.6,100.7,155.4,100z"/>
				</g>
			</g>
			<g>
				<path class="st0" d="M86,71.4c-3.7,0-7,0-10.8,0c0,3.7,0,7.3,0,11c0,3.9,0,3.9-4,3.9c-6.7,0-5.7,0.6-5.8-5.8c0-3,0-6.1,0-9.1
					c0.1-5.5,4.3-9.7,9.7-9.9c3.5-0.1,7-0.1,10.5,0c5.7,0.1,9.9,4.3,10,9.9c0.1,4.1,0,8.2,0,12.3c0,1.8-0.6,2.6-2.5,2.6
					c-9-0.1-7.1,1-7.3-6.8C86,76.9,86,74.3,86,71.4z"/>
			</g>
			<g>
				<path class="st0" d="M107.1,77.3c0-2,0-4,0-6c0.1-5.5,4.3-9.7,9.8-9.8c3.5-0.1,7-0.1,10.6,0c5.5,0.1,9.8,4.3,9.9,9.7
					c0.1,4.2,0,8.4,0.1,12.5c0,1.9-0.7,2.5-2.5,2.5c-8.8-0.1-7.1,1-7.2-6.9c-0.1-8.2,0-8.1-8.1-8.2c-2.5,0-3.2,0.9-3.1,3.2
					c0.1,3.1,0,6.3,0,9.4c0,1.8-0.8,2.5-2.6,2.5c-8.3-0.1-6.7,0.8-6.8-6.4C107.1,79,107.1,78.1,107.1,77.3
					C107.1,77.3,107.1,77.3,107.1,77.3z"/>
			</g>
			<g>
				<path class="st0" d="M75.2,128.6c3.7,0,7.1,0,10.8,0c0-4,0.1-7.9,0-11.7c-0.1-2.4,0.7-3.2,3.1-3.1c8,0.2,6.5-0.9,6.7,6.6
					c0,2.8,0,5.5,0,8.3c-0.1,5.6-4.4,9.8-10,9.9c-3.4,0-6.8,0.1-10.3,0c-5.8-0.1-10-4.3-10-10.2c0-3.9,0.1-7.8,0-11.7
					c-0.1-2,0.5-3,2.7-2.9c8.6,0.2,6.9-0.9,7.1,6.8C75.3,123.2,75.2,125.8,75.2,128.6z"/>
			</g>
			<g>
				<path class="st0" d="M127.7,128.8c0-4.5,0.1-8.5,0-12.5c0-1.9,0.7-2.5,2.5-2.5c8.9,0.1,7.1-1,7.2,6.9c0.1,2.6,0,5.1,0,7.7
					c-0.1,5.8-4.3,10.1-10.1,10.2c-3.4,0.1-6.8,0.1-10.3,0c-5.7-0.1-9.9-4.3-10-9.9c-0.1-4,0.1-8-0.1-12c-0.1-2.3,0.9-2.9,3-2.9
					c7.4,0.1,6.3-0.7,6.4,6.4c0,2.2-0.1,4.4,0.1,6.5c0.1,0.8,1,2,1.6,2C121.2,128.9,124.3,128.8,127.7,128.8z"/>
			</g>
		</g>
	</g>
</g>
<path class="st1" d="M263.4-7.6"/>
</svg>
