<?xml version="1.0" encoding="utf-8"?>
<!-- Generator: Adobe Illustrator 26.4.1, SVG Export Plug-In . SVG Version: 6.00 Build 0)  -->
<svg version="1.1" id="Layer_1" xmlns="http://www.w3.org/2000/svg" xmlns:xlink="http://www.w3.org/1999/xlink" x="0px" y="0px"
	 viewBox="0 0 200 200" style="enable-background:new 0 0 200 200;" xml:space="preserve">
<style type="text/css">
	.st0{fill:#7B47E1;}
	.st1{fill-rule:evenodd;clip-rule:evenodd;fill:#FBD52E;}
</style>
<g id="surface1_00000103955597701102914250000005251003009576502202_">
	<g>
		<path d="M200,100c0,55.3-44.7,100-100,100S0,155.3,0,100S44.7,0,100,0S200,44.7,200,100z"/>
		<g>
			<g>
				<g>
					<path class="st0" d="M30.5,99.9c0-9.2,0-18.3,0-27.5c0-8.2,3.7-14.4,10.6-18.6c15.8-9.4,31.7-18.4,47.8-27.5
						c7.5-4.2,15.1-4.1,22.6,0c15.7,9.1,31.4,18,47.1,27.3c7.3,4.2,11,10.8,11,19.2c0,18.1,0,36.4,0,54.5c0,8.7-3.9,15.1-11.3,19.4
						c-15.5,9.1-31,18-46.6,27c-7.9,4.4-15.7,4.3-23.6-0.2C73,164.6,57.9,156,42.8,147.4c-8.2-4.6-12.3-11.5-12.2-21.1
						C30.7,117.4,30.5,108.6,30.5,99.9z M41.2,100c0.6-0.2,1.2-0.3,1.5-0.5c5.5-3.6,11.7-4.6,18.1-4.5c26.6,0.1,53.1,0,79.7,0
						c11.5,0,17.9-5.7,18.9-17.1c0.5-5.7,0.3-11.7-5.4-15.1c-16-9.5-32.3-18.7-48.5-27.9c-3.6-2-7.5-2-11,0
						c-16.2,9.3-32.3,18.4-48.4,27.8c-3.2,1.9-5.3,4.7-5.3,8.6c-0.2,9.1-0.2,18.1-0.3,27.2C40.6,98.9,41,99.4,41.2,100z M158.8,100
						c-0.7,0.3-1.3,0.5-1.8,0.7c-5.2,3.3-11,4.4-17,4.4c-26.9-0.1-53.7,0-80.5,0c-11.5,0-17.8,5.7-18.8,17.1
						c-0.5,5.7-0.2,11.7,5.5,15c16,9.5,32.3,18.7,48.5,27.9c3.6,2,7.5,1.9,11-0.1c16-9.2,31.9-18.3,48-27.7c3.2-1.9,5.4-4.6,5.5-8.5
						c0.2-9.1,0.2-18.1,0.3-27.2C159.4,101.3,159,100.7,158.8,100z"/>
				</g>
			</g>
			<g>
				<path class="st0" d="M85.1,69.6c-3.9,0-7.5,0-11.5,0c0,3.9,0,7.8,0,11.7c0,4.1,0,4.1-4.2,4.1c-7.2,0-6,0.6-6.1-6.1
					c0-3.2,0-6.4,0-9.7c0.1-5.8,4.5-10.3,10.3-10.5c3.7-0.1,7.5-0.1,11.2,0c6,0.1,10.5,4.5,10.6,10.5c0.1,4.3,0,8.7,0,13.1
					c0,1.9-0.6,2.7-2.6,2.7c-9.6-0.1-7.6,1.1-7.8-7.3C85.1,75.4,85.1,72.7,85.1,69.6z"/>
			</g>
			<g>
				<path class="st0" d="M107.6,75.9c0-2.1,0-4.2,0-6.3c0.1-5.8,4.5-10.3,10.4-10.4c3.7-0.1,7.5-0.1,11.3,0
					c5.8,0.1,10.4,4.5,10.5,10.3c0.1,4.4,0,9,0.1,13.3c0,2-0.7,2.6-2.6,2.6c-9.4-0.1-7.6,1.1-7.7-7.4c-0.1-8.7,0-8.6-8.6-8.7
					c-2.6,0-3.4,0.9-3.3,3.4c0.1,3.3,0,6.6,0,10c0,1.9-0.8,2.6-2.7,2.6c-8.9-0.1-7.2,0.8-7.3-6.7C107.6,77.7,107.6,76.7,107.6,75.9
					L107.6,75.9z"/>
			</g>
			<g>
				<path class="st0" d="M73.6,130.4c3.9,0,7.6,0,11.5,0c0-4.2,0.1-8.4,0-12.4c-0.1-2.5,0.7-3.4,3.3-3.3c8.5,0.2,7-0.9,7.2,7.1
					c0,3,0,5.8,0,8.9c-0.1,5.9-4.6,10.4-10.6,10.5c-3.6,0-7.3,0.1-11,0c-6.1-0.1-10.6-4.5-10.6-10.9c0-4.1,0.1-8.3,0-12.4
					c-0.1-2.1,0.5-3.2,2.8-3.1c9.2,0.2,7.4-0.9,7.6,7.3C73.8,124.7,73.6,127.4,73.6,130.4z"/>
			</g>
			<g>
				<path class="st0" d="M129.4,130.6c0-4.7,0.1-9.1,0-13.3c0-2,0.7-2.6,2.6-2.6c9.5,0.1,7.6-1.1,7.7,7.4c0.1,2.7,0,5.4,0,8.2
					c-0.1,6.1-4.5,10.8-10.8,10.9c-3.6,0.1-7.3,0.1-11,0c-6-0.1-10.5-4.5-10.6-10.5c-0.1-4.2,0.1-8.5-0.1-12.8
					c-0.1-2.4,0.9-3.1,3.2-3.1c7.9,0.1,6.6-0.7,6.7,6.7c0,2.3-0.1,4.6,0.1,7c0.1,0.8,1.1,2.1,1.7,2.1
					C122.6,130.7,125.8,130.6,129.4,130.6z"/>
			</g>
		</g>
	</g>
</g>
<path class="st1" d="M263.4-7.6"/>
</svg>
