<?xml version="1.0" encoding="utf-8"?>
<!-- Generator: Adobe Illustrator 26.4.1, SVG Export Plug-In . SVG Version: 6.00 Build 0)  -->
<svg version="1.1" id="Layer_1" xmlns="http://www.w3.org/2000/svg" xmlns:xlink="http://www.w3.org/1999/xlink" x="0px" y="0px"
	 viewBox="0 0 200 200" style="enable-background:new 0 0 200 200;" xml:space="preserve">
<style type="text/css">
	.st0{fill:url(#SVGID_1_);}
	.st1{fill-rule:evenodd;clip-rule:evenodd;fill:#FBD52E;}
	.st2{fill:#FFFFFF;}
</style>
<g id="surface1_00000103955597701102914250000005251003009576502202_">
	<linearGradient id="SVGID_1_" gradientUnits="userSpaceOnUse" x1="8.6378" y1="100" x2="191.3622" y2="100">
		<stop  offset="0" style="stop-color:#43AD6B"/>
		<stop  offset="1" style="stop-color:#2B9151"/>
	</linearGradient>
	<path class="st0" d="M191.4,100c0,50.5-40.9,91.4-91.4,91.4S8.6,150.5,8.6,100S49.5,8.6,100,8.6S191.4,49.5,191.4,100z"/>
</g>
<path class="st1" d="M263.4-7.6"/>
<g>
	<path class="st2" d="M93.4,76.2L93.4,76.2l-8-42L78.8,32l-4.2,5.6L93.4,76.2z"/>
	<path class="st2" d="M97.7,58.6l3.4,16.3l3.6-16.5l-3.6-2.4L97.7,58.6z"/>
	<path class="st2" d="M122.9,61.5l-4.3,0.4L113.5,78l11.2-12.6L122.9,61.5z"/>
	<path class="st2" d="M159.9,64.9V58l-6.7-2.1l-31.4,29.4L159.9,64.9z"/>
	<path class="st2" d="M83.2,82.3l-9.3-14l0.2,0.3l-0.2-0.3l-4.2,0.7L69,73.2L83.2,82.3z"/>
	<path class="st2" d="M143.3,96.5l-16.7,3.3l16.7,3.6l2.5-3.5L143.3,96.5z"/>
	<path class="st2" d="M75.8,99.9l-42.9-5.4l-4.2,5.6l4.2,5.6L75.8,99.9z"/>
	<path class="st2" d="M59.9,109.2l-1.3,4l3.5,2.5l14.8-8.3L59.9,109.2z"/>
	<path class="st2" d="M64.8,121l-0.2,4.2l4.1,1.4l11.9-12.5L64.8,121z"/>
	<path class="st2" d="M86.2,120l-12.6,11.1l1.1,4.1l4.3,0.2L86.2,120z"/>
	<path class="st2" d="M101.2,124.9l-3.4,16.5l3.5,2.5l3.5-2.5L101.2,124.9z"/>
	<path class="st2" d="M160,134.9l-38.2-20.3l31.5,29.3l6.6-2.1V134.9z"/>
	<path class="st2" d="M117.9,138.1l-8.6-14.3l1.9,16.5l4.1,1.3L117.9,138.1z"/>
	<path class="st2" d="M93.5,123.8l-18.6,38.6l4.2,5.6l6.6-2.1L93.5,123.8z"/>
</g>
</svg>
