<?xml version="1.0" encoding="utf-8"?>
<!-- Generator: Adobe Illustrator 26.4.1, SVG Export Plug-In . SVG Version: 6.00 Build 0)  -->
<svg version="1.1" id="Layer_1" xmlns="http://www.w3.org/2000/svg" xmlns:xlink="http://www.w3.org/1999/xlink" x="0px" y="0px"
	 viewBox="0 0 200 200" style="enable-background:new 0 0 200 200;" xml:space="preserve">
<style type="text/css">
	.st0{fill:url(#SVGID_1_);}
	.st1{fill-rule:evenodd;clip-rule:evenodd;fill:#FBD52E;}
	.st2{fill:#FFFFFF;}
</style>
<g id="surface1_00000103955597701102914250000005251003009576502202_">
	
		<linearGradient id="SVGID_1_" gradientUnits="userSpaceOnUse" x1="0.1084" y1="742" x2="199.8916" y2="742" gradientTransform="matrix(1 0 0 1 0 -642)">
		<stop  offset="0" style="stop-color:#43AD6B"/>
		<stop  offset="1" style="stop-color:#2B9151"/>
	</linearGradient>
	<path class="st0" d="M199.9,100c0,55.2-44.7,99.9-99.9,99.9S0.1,155.2,0.1,100S44.8,0.1,100,0.1S199.9,44.8,199.9,100z"/>
</g>
<path class="st1" d="M263.4-7.6"/>
<g>
	<path class="st2" d="M89.8,69.9L89.8,69.9L79.7,16.7l-8.4-2.8L66,21L89.8,69.9z"/>
	<path class="st2" d="M95.2,47.6l4.3,20.6l4.6-20.9l-4.6-3L95.2,47.6z"/>
	<path class="st2" d="M127.1,51.3l-5.4,0.5l-6.5,20.4l14.2-15.9L127.1,51.3z"/>
	<path class="st2" d="M174,55.6v-8.7l-8.5-2.7l-39.7,37.2L174,55.6z"/>
	<path class="st2" d="M76.9,77.6L65.1,59.9l0.3,0.4l-0.3-0.4l-5.3,0.9l-0.9,5.3L76.9,77.6z"/>
	<path class="st2" d="M153,95.6l-21.1,4.2l21.1,4.6l3.2-4.4L153,95.6z"/>
	<path class="st2" d="M67.5,99.9L13.2,93l-5.3,7.1l5.3,7.1L67.5,99.9z"/>
	<path class="st2" d="M47.4,111.6l-1.6,5.1l4.4,3.2l18.7-10.5L47.4,111.6z"/>
	<path class="st2" d="M53.6,126.6l-0.3,5.3l5.2,1.8l15.1-15.8L53.6,126.6z"/>
	<path class="st2" d="M80.7,125.3l-15.9,14.1l1.4,5.2l5.4,0.3L80.7,125.3z"/>
	<path class="st2" d="M99.7,131.5l-4.3,20.9l4.4,3.2l4.4-3.2L99.7,131.5z"/>
	<path class="st2" d="M174.1,144.2l-48.4-25.7l39.9,37.1l8.4-2.7v-8.7L174.1,144.2L174.1,144.2z"/>
	<path class="st2" d="M120.8,148.2l-10.9-18.1l2.4,20.9l5.2,1.6L120.8,148.2z"/>
	<path class="st2" d="M89.9,130.1L66.4,179l5.3,7.1l8.4-2.7L89.9,130.1z"/>
</g>
</svg>
