<?xml version="1.0" encoding="UTF-8"?>
<svg xmlns="http://www.w3.org/2000/svg" xmlns:xlink="http://www.w3.org/1999/xlink" width="200px" height="200px" viewBox="0 0 200 200" version="1.1">
<g id="surface1">
<path style=" stroke:none;fill-rule:evenodd;fill:rgb(0%,18.431373%,20.392157%);fill-opacity:1;" d="M 150.46875 90.328125 L 146.355469 102.804688 L 79.859375 102.804688 C 81.636719 114.4375 89.578125 121.496094 101.167969 121.496094 C 109.253906 121.496094 116.636719 117.945312 120 112.382812 L 133.085938 120.746094 C 127.804688 130.46875 115.746094 136.308594 100.886719 136.308594 C 81.542969 136.308594 65.792969 122.148438 63.785156 102.804688 L 48.832031 102.804688 L 48.832031 90.328125 L 64.4375 90.328125 C 68.085938 73.550781 82.664062 61.496094 100.609375 61.496094 C 118.128906 61.496094 132.195312 73.738281 134.71875 90.328125 Z M 99.71875 75.046875 Z M 99.71875 75.046875 C 89.90625 75.046875 82.992188 80.886719 80.46875 90.328125 L 117.945312 90.328125 C 117.101562 81.355469 109.578125 75.046875 99.71875 75.046875 Z M 99.71875 75.046875 "/>
<path style=" stroke:none;fill-rule:nonzero;fill:rgb(0%,18.431373%,20.392157%);fill-opacity:1;" d="M 99.765625 199.578125 C 44.765625 199.578125 0 154.8125 0 99.765625 L 17.195312 99.765625 C 17.195312 145.328125 54.253906 182.382812 99.765625 182.382812 Z M 99.765625 199.578125 "/>
<path style=" stroke:none;fill-rule:nonzero;fill:rgb(0%,18.431373%,20.392157%);fill-opacity:1;" d="M 199.578125 99.765625 L 182.382812 99.765625 C 182.382812 54.253906 145.328125 17.195312 99.765625 17.195312 L 99.765625 0 C 154.8125 0 199.578125 44.765625 199.578125 99.765625 Z M 199.578125 99.765625 "/>
</g>
</svg>
