<?xml version="1.0" encoding="utf-8"?>
<!-- Generator: Adobe Illustrator 26.4.1, SVG Export Plug-In . SVG Version: 6.00 Build 0)  -->
<svg version="1.1" id="Layer_1" xmlns="http://www.w3.org/2000/svg" xmlns:xlink="http://www.w3.org/1999/xlink" x="0px" y="0px"
	 viewBox="0 0 200 200" style="enable-background:new 0 0 200 200;" xml:space="preserve">
<style type="text/css">
	.st0{fill:#002F34;}
	.st1{fill-rule:evenodd;clip-rule:evenodd;fill:#FBD52E;}
	.st2{fill-rule:evenodd;clip-rule:evenodd;fill:#FFFFFF;}
	.st3{fill:#FFFFFF;}
</style>
<circle class="st0" cx="100.9" cy="100" r="95.6"/>
<path class="st1" d="M263.4-7.6"/>
<g id="surface1">
	<path class="st2" d="M138.8,92.8l-3.2,9.6H84.7c1.4,8.9,7.4,14.3,16.3,14.3c6.2,0,11.8-2.7,14.4-7l10,6.4
		c-4,7.4-13.3,11.9-24.7,11.9C86,128,74,117.1,72.4,102.3H61v-9.6h12c2.8-12.8,14-22.1,27.7-22.1c13.4,0,24.2,9.4,26.1,22.1H138.8z
		 M99.9,81.1c-7.5,0-12.8,4.5-14.7,11.7h28.7C113.3,85.9,107.5,81.1,99.9,81.1z"/>
	<path class="st3" d="M100,176.4c-42.1,0-76.4-34.3-76.4-76.4h13.2c0,34.9,28.4,63.3,63.2,63.3V176.4z"/>
	<path class="st3" d="M176.4,100h-13.2c0-34.9-28.4-63.2-63.3-63.2V23.6C142.1,23.6,176.4,57.9,176.4,100z"/>
</g>
</svg>
