<?xml version="1.0" encoding="utf-8"?>
<!-- Generator: Adobe Illustrator 26.4.1, SVG Export Plug-In . SVG Version: 6.00 Build 0)  -->
<svg version="1.1" id="Layer_1" xmlns="http://www.w3.org/2000/svg" xmlns:xlink="http://www.w3.org/1999/xlink" x="0px" y="0px"
	 viewBox="0 0 200 200" style="enable-background:new 0 0 200 200;" xml:space="preserve">
<style type="text/css">
	.st0{fill:#202637;}
	.st1{fill-rule:evenodd;clip-rule:evenodd;fill:#40E3AD;}
	.st2{fill-rule:evenodd;clip-rule:evenodd;fill:#3ABE96;}
	.st3{fill-rule:evenodd;clip-rule:evenodd;fill:#40DFAB;}
	.st4{fill-rule:evenodd;clip-rule:evenodd;fill:#40E0AB;}
	.st5{fill-rule:evenodd;clip-rule:evenodd;fill:#40E2AC;}
	.st6{fill-rule:evenodd;clip-rule:evenodd;fill:#2B655E;}
	.st7{fill-rule:evenodd;clip-rule:evenodd;fill:#FBD52E;}
</style>
<g id="surface1_00000066475094778492874230000000461473635953375419_">
	<path class="st0" d="M200,100c0,55.3-44.8,100.1-100,100.1S0,155.3,0,100S44.7-0.1,100-0.1S200,44.7,200,100z"/>
</g>
<g id="surface1">
	<path class="st1" d="M107.2,51.9c0.4,0,0.6-0.3,0.7-0.7c-9.2-0.7-18.3-1-27.5-0.7c-1.9-3.8-3.9-7.7-5.8-11.6c15.9-1,31.8-1,47.8,0
		c1.4,2.1,2.6,4.2,3.6,6.5c-9.6,16.4-19.3,32.8-28.9,49.2c-19.5,0.8-39.1,1-58.6,0.4c-1.1-2.1-2.3-4.2-3.6-6.2
		C42.7,75.2,50.4,61.6,58,47.9c3.3,3.1,6,7,8,11.6c-4,7.7-8.4,15.1-13,22.4c12.3,0.6,24.6,0.5,36.9-0.4
		C95.5,71.5,101.3,61.6,107.2,51.9z"/>
	<path class="st1" d="M149.9,109c5-0.2,9.8,0,14.5,0.7c-7.5,13.4-15.2,26.6-23.2,39.8c-2.6,0.8-5.3,1-8,0.4
		c-9.6-16.6-19.2-33.1-28.9-49.6c9.2-16.8,18.6-33.4,28.2-49.9c2.8-0.9,5.6-0.9,8.3,0c8.1,13.4,16.2,26.8,24.2,40.2
		c-5.1,0.5-10.1,0.5-15.2,0c-4.1-7.3-8.4-14.4-13-21.3c-5.9,10.2-11.7,20.5-17.4,30.7c5.6,10.6,11.6,20.8,18.1,30.7
		C141.7,123.5,145.8,116.3,149.9,109z"/>
	<path class="st2" d="M80.5,50.4c9.2-0.2,18.3,0,27.5,0.7c-0.1,0.4-0.3,0.7-0.7,0.7C98.3,51.4,89.4,50.9,80.5,50.4z"/>
	<path class="st3" d="M78.3,56.2c2.9-0.4,5.4,0.3,7.6,2.2c0,6-3,9.8-9,11.2c-8.5,0.7-10.2-2.5-5.1-9.4C74,58.8,76.2,57.5,78.3,56.2z
		"/>
	<path class="st4" d="M88.4,62.7c1.7,2.4,3.4,4.8,5.1,7.2c-1.8,3.3-3.8,6.6-5.8,9.8c-3.6,0.5-7.2,0.5-10.9,0
		c-1.5-2.5-3.2-4.9-5.1-7.2C79.4,72.6,84.9,69.3,88.4,62.7z"/>
	<path class="st5" d="M127.5,90.2c3.2-0.2,6.3,0,9.4,0.7c-4.1,6.4-3.8,12.5,0.7,18.5c-3.4,0.6-6.8,0.5-10.1-0.4
		c-1.7-2.9-3.4-5.8-5.1-8.7C124.2,97,125.9,93.6,127.5,90.2z"/>
	<path class="st3" d="M139.8,90.2c4.3-0.4,6.8,1.5,7.6,5.8c0.8,4.4,0.1,8.5-2.2,12.3c-2.2,1.9-4.4,1.9-6.5,0
		C135,102,135.4,95.9,139.8,90.2z"/>
	<path class="st1" d="M38.5,104.7c19.5-0.2,39.1,0,58.6,0.7c9.6,16.4,19.3,32.8,28.9,49.2c-1,2.3-2.2,4.5-3.6,6.5
		c-16.2,0.8-32.3,1-48.5,0.4c2.4-3.8,4.6-7.8,6.5-11.9c8.9-0.5,17.8-1,26.8-1.4c-6-9.8-11.8-19.7-17.4-29.7
		c-12.3-0.8-24.6-1-36.9-0.4c4.7,7.3,9,14.7,13,22.4c-2,4.3-4.4,8.2-7.2,11.9c-8.1-13.6-16.1-27.4-23.9-41.2
		C35.9,108.9,37.1,106.7,38.5,104.7z"/>
	<path class="st6" d="M149.9,109c5-1,10-1,15.2,0c-0.1,0.4-0.3,0.7-0.7,0.7C159.7,109,154.9,108.8,149.9,109z"/>
	<path class="st4" d="M76.8,119.9c3.6-0.1,7.2,0,10.9,0.4c2.4,3,4.3,6.2,5.8,9.8c-1.7,2.3-3.3,4.7-4.7,7.2c-3.7-6.5-9.4-9.8-17-9.8
		C73.7,125.1,75.4,122.6,76.8,119.9z"/>
	<path class="st4" d="M71.1,130c6.7-0.5,11.7,2.1,14.8,8c0.7,3.8-0.9,5.7-4.7,5.8c-6.2-0.7-10.3-4-12.3-9.8
		C69.1,132.4,69.9,131.1,71.1,130z"/>
</g>
<path class="st7" d="M263.4-7.6"/>
</svg>
