<svg width="400" height="400" viewBox="0 0 400 400" fill="none" xmlns="http://www.w3.org/2000/svg">
<path d="M388 200C388 303.83 303.83 388 200 388C96.1705 388 12 303.83 12 200C12 96.1705 96.1705 12 200 12C303.83 12 388 96.1705 388 200Z" fill="black"/>
<g clip-path="url(#paint0_angular_92_282_clip_path)" data-figma-skip-parse="true"><g transform="matrix(0 0.1363 -0.1363 0 195.3 197.18)"><foreignObject x="-1014.08" y="-1014.08" width="2028.16" height="2028.16"><div xmlns="http://www.w3.org/1999/xhtml" style="background:conic-gradient(from 90deg,rgba(106, 106, 106, 1) 0deg,rgba(77, 77, 77, 1) 31.9131deg,rgba(217, 217, 217, 1) 237.883deg,rgba(106, 106, 106, 1) 360deg);height:100%;width:100%;opacity:1"></div></foreignObject></g></g><path d="M331.6 197.18C331.6 121.903 270.576 60.8799 195.3 60.8799C120.024 60.8799 59 121.903 59 197.18C59 272.456 120.024 333.48 195.3 333.48L197 333.5C184.153 332.678 155.444 324.892 131.38 300.718C105.507 276.75 89.08 240.945 89.08 200.94C89.08 128.778 142.528 70.2799 208.46 70.2799C274.392 70.2799 327.84 128.778 327.84 200.94C327.84 230.953 318.591 258.6 303.048 280.66C320.943 257.595 331.6 228.633 331.6 197.18Z" data-figma-gradient-fill="{&#34;type&#34;:&#34;GRADIENT_ANGULAR&#34;,&#34;stops&#34;:[{&#34;color&#34;:{&#34;r&#34;:0.30406776070594788,&#34;g&#34;:0.30406776070594788,&#34;b&#34;:0.30406776070594788,&#34;a&#34;:1.0},&#34;position&#34;:0.088647484779357910},{&#34;color&#34;:{&#34;r&#34;:0.85098040103912354,&#34;g&#34;:0.85098040103912354,&#34;b&#34;:0.85098040103912354,&#34;a&#34;:1.0},&#34;position&#34;:0.66078573465347290}],&#34;stopsVar&#34;:[{&#34;color&#34;:{&#34;r&#34;:0.30406776070594788,&#34;g&#34;:0.30406776070594788,&#34;b&#34;:0.30406776070594788,&#34;a&#34;:1.0},&#34;position&#34;:0.088647484779357910},{&#34;color&#34;:{&#34;r&#34;:0.85098040103912354,&#34;g&#34;:0.85098040103912354,&#34;b&#34;:0.85098040103912354,&#34;a&#34;:1.0},&#34;position&#34;:0.66078573465347290}],&#34;transform&#34;:{&#34;m00&#34;:1.6691937884520149e-14,&#34;m01&#34;:-272.60000610351562,&#34;m02&#34;:331.60000610351562,&#34;m10&#34;:272.60000610351562,&#34;m11&#34;:1.6691937884520149e-14,&#34;m12&#34;:60.87988281250},&#34;opacity&#34;:1.0,&#34;blendMode&#34;:&#34;NORMAL&#34;,&#34;visible&#34;:true}"/>
<g clip-path="url(#paint1_angular_92_282_clip_path)" data-figma-skip-parse="true"><g transform="matrix(0 0.1363 -0.1363 0 195.3 197.18)"><foreignObject x="-1020.69" y="-1020.69" width="2041.38" height="2041.38"><div xmlns="http://www.w3.org/1999/xhtml" style="background:conic-gradient(from 90deg,rgba(45, 45, 45, 1) 0deg,rgba(212, 212, 212, 1) 119.423deg,rgba(45, 45, 45, 1) 360deg);height:100%;width:100%;opacity:1"></div></foreignObject></g></g><path d="M330.66 197.18C330.66 122.423 270.057 61.8204 195.3 61.8204C120.543 61.8204 59.9401 122.423 59.9401 197.18C59.9401 271.504 119.841 331.837 194 332.534C194.433 332.538 194.566 333 195 333H197V333.5L195.3 333.733C194.532 333.733 193.765 334.414 193 334.402C118.265 333.173 58.0601 272.208 58.0601 197.18C58.0601 121.385 119.505 59.9404 195.3 59.9404C271.096 59.9404 332.54 121.385 332.54 197.18C332.54 228.849 321.81 258.014 303.791 281.237L302.304 280.084C320.076 257.178 330.66 228.417 330.66 197.18Z" data-figma-gradient-fill="{&#34;type&#34;:&#34;GRADIENT_ANGULAR&#34;,&#34;stops&#34;:[{&#34;color&#34;:{&#34;r&#34;:0.83137255907058716,&#34;g&#34;:0.83137255907058716,&#34;b&#34;:0.83137255907058716,&#34;a&#34;:1.0},&#34;position&#34;:0.33173078298568726},{&#34;color&#34;:{&#34;r&#34;:0.17647059261798859,&#34;g&#34;:0.17647059261798859,&#34;b&#34;:0.17647059261798859,&#34;a&#34;:1.0},&#34;position&#34;:1.0}],&#34;stopsVar&#34;:[{&#34;color&#34;:{&#34;r&#34;:0.83137255907058716,&#34;g&#34;:0.83137255907058716,&#34;b&#34;:0.83137255907058716,&#34;a&#34;:1.0},&#34;position&#34;:0.33173078298568726},{&#34;color&#34;:{&#34;r&#34;:0.17647059261798859,&#34;g&#34;:0.17647059261798859,&#34;b&#34;:0.17647059261798859,&#34;a&#34;:1.0},&#34;position&#34;:1.0}],&#34;transform&#34;:{&#34;m00&#34;:1.6691939578586043e-14,&#34;m01&#34;:-272.60003662109375,&#34;m02&#34;:331.60006713867188,&#34;m10&#34;:272.60003662109375,&#34;m11&#34;:1.6691939578586043e-14,&#34;m12&#34;:60.880428314208984},&#34;opacity&#34;:1.0,&#34;blendMode&#34;:&#34;NORMAL&#34;,&#34;visible&#34;:true}"/>
<g clip-path="url(#paint2_angular_92_282_clip_path)" data-figma-skip-parse="true"><g transform="matrix(0 0.13156 -0.11938 0 208.46 201.84)"><foreignObject x="-1023.62" y="-1023.62" width="2047.24" height="2047.24"><div xmlns="http://www.w3.org/1999/xhtml" style="background:conic-gradient(from 90deg,rgba(45, 45, 45, 1) 0deg,rgba(212, 212, 212, 1) 115.962deg,rgba(45, 45, 45, 1) 360deg);height:100%;width:100%;opacity:1"></div></foreignObject></g></g><path d="M326.9 200.94C326.9 129.216 273.795 71.2198 208.46 71.2198C143.125 71.2198 90.02 129.216 90.02 200.94C90.02 240.066 105.835 275.128 130.822 298.904L132.019 300.027L132.046 300.055C154.179 322.289 180.223 330.46 194 332.175C195.078 332.309 195.959 333.069 196.879 333.128V333.5C195.991 333.443 195.029 334.193 194 334.069C179.95 332.372 153.346 324.099 130.741 301.408L129.526 300.266C104.16 276.131 88.14 240.573 88.14 200.94C88.14 128.341 141.931 69.3398 208.46 69.3398C274.989 69.3398 328.78 128.341 328.78 200.94C328.78 231.146 319.472 258.983 303.817 281.202L302.278 280.118C317.711 258.216 326.9 230.759 326.9 200.94Z" data-figma-gradient-fill="{&#34;type&#34;:&#34;GRADIENT_ANGULAR&#34;,&#34;stops&#34;:[{&#34;color&#34;:{&#34;r&#34;:0.83137255907058716,&#34;g&#34;:0.83137255907058716,&#34;b&#34;:0.83137255907058716,&#34;a&#34;:1.0},&#34;position&#34;:0.32211539149284363},{&#34;color&#34;:{&#34;r&#34;:0.17647059261798859,&#34;g&#34;:0.17647059261798859,&#34;b&#34;:0.17647059261798859,&#34;a&#34;:1.0},&#34;position&#34;:1.0}],&#34;stopsVar&#34;:[{&#34;color&#34;:{&#34;r&#34;:0.83137255907058716,&#34;g&#34;:0.83137255907058716,&#34;b&#34;:0.83137255907058716,&#34;a&#34;:1.0},&#34;position&#34;:0.32211539149284363},{&#34;color&#34;:{&#34;r&#34;:0.17647059261798859,&#34;g&#34;:0.17647059261798859,&#34;b&#34;:0.17647059261798859,&#34;a&#34;:1.0},&#34;position&#34;:1.0}],&#34;transform&#34;:{&#34;m00&#34;:1.4619832715322481e-14,&#34;m01&#34;:-238.75999450683594,&#34;m02&#34;:327.84002685546875,&#34;m10&#34;:263.12030029296875,&#34;m11&#34;:1.6111472982030355e-14,&#34;m12&#34;:70.279846191406250},&#34;opacity&#34;:1.0,&#34;blendMode&#34;:&#34;NORMAL&#34;,&#34;visible&#34;:true}"/>
<g filter="url(#filter0_ddf_92_282)">
<circle cx="297.76" cy="109.76" r="9.4" fill="#DCFFF0"/>
</g>
<path d="M200 102.24V334.42C240.608 334.42 276.453 309.354 289.3 296.82C226.132 345.7 204.7 242.927 201.88 180.26V102.24H200Z" fill="url(#paint3_linear_92_282)"/>
<path d="M201.88 102.24V334.42H198.12V102.24H201.88Z" fill="#858585"/>
<defs>
<clipPath id="paint0_angular_92_282_clip_path"><path d="M331.6 197.18C331.6 121.903 270.576 60.8799 195.3 60.8799C120.024 60.8799 59 121.903 59 197.18C59 272.456 120.024 333.48 195.3 333.48L197 333.5C184.153 332.678 155.444 324.892 131.38 300.718C105.507 276.75 89.08 240.945 89.08 200.94C89.08 128.778 142.528 70.2799 208.46 70.2799C274.392 70.2799 327.84 128.778 327.84 200.94C327.84 230.953 318.591 258.6 303.048 280.66C320.943 257.595 331.6 228.633 331.6 197.18Z"/></clipPath><clipPath id="paint1_angular_92_282_clip_path"><path d="M330.66 197.18C330.66 122.423 270.057 61.8204 195.3 61.8204C120.543 61.8204 59.9401 122.423 59.9401 197.18C59.9401 271.504 119.841 331.837 194 332.534C194.433 332.538 194.566 333 195 333H197V333.5L195.3 333.733C194.532 333.733 193.765 334.414 193 334.402C118.265 333.173 58.0601 272.208 58.0601 197.18C58.0601 121.385 119.505 59.9404 195.3 59.9404C271.096 59.9404 332.54 121.385 332.54 197.18C332.54 228.849 321.81 258.014 303.791 281.237L302.304 280.084C320.076 257.178 330.66 228.417 330.66 197.18Z"/></clipPath><clipPath id="paint2_angular_92_282_clip_path"><path d="M326.9 200.94C326.9 129.216 273.795 71.2198 208.46 71.2198C143.125 71.2198 90.02 129.216 90.02 200.94C90.02 240.066 105.835 275.128 130.822 298.904L132.019 300.027L132.046 300.055C154.179 322.289 180.223 330.46 194 332.175C195.078 332.309 195.959 333.069 196.879 333.128V333.5C195.991 333.443 195.029 334.193 194 334.069C179.95 332.372 153.346 324.099 130.741 301.408L129.526 300.266C104.16 276.131 88.14 240.573 88.14 200.94C88.14 128.341 141.931 69.3398 208.46 69.3398C274.989 69.3398 328.78 128.341 328.78 200.94C328.78 231.146 319.472 258.983 303.817 281.202L302.278 280.118C317.711 258.216 326.9 230.759 326.9 200.94Z"/></clipPath><filter id="filter0_ddf_92_282" x="222.56" y="34.5604" width="150.4" height="150.4" filterUnits="userSpaceOnUse" color-interpolation-filters="sRGB">
<feFlood flood-opacity="0" result="BackgroundImageFix"/>
<feColorMatrix in="SourceAlpha" type="matrix" values="0 0 0 0 0 0 0 0 0 0 0 0 0 0 0 0 0 0 127 0" result="hardAlpha"/>
<feMorphology radius="28.2" operator="dilate" in="SourceAlpha" result="effect1_dropShadow_92_282"/>
<feOffset/>
<feGaussianBlur stdDeviation="18.8"/>
<feComposite in2="hardAlpha" operator="out"/>
<feColorMatrix type="matrix" values="0 0 0 0 0.109653 0 0 0 0 0.417086 0 0 0 0 0.310777 0 0 0 0.8 0"/>
<feBlend mode="normal" in2="BackgroundImageFix" result="effect1_dropShadow_92_282"/>
<feColorMatrix in="SourceAlpha" type="matrix" values="0 0 0 0 0 0 0 0 0 0 0 0 0 0 0 0 0 0 127 0" result="hardAlpha"/>
<feMorphology radius="9.4" operator="dilate" in="SourceAlpha" result="effect2_dropShadow_92_282"/>
<feOffset/>
<feGaussianBlur stdDeviation="10.34"/>
<feComposite in2="hardAlpha" operator="out"/>
<feColorMatrix type="matrix" values="0 0 0 0 0.109966 0 0 0 0 0.540771 0 0 0 0 0.394381 0 0 0 1 0"/>
<feBlend mode="normal" in2="effect1_dropShadow_92_282" result="effect2_dropShadow_92_282"/>
<feBlend mode="normal" in="SourceGraphic" in2="effect2_dropShadow_92_282" result="shape"/>
<feGaussianBlur stdDeviation="2.82" result="effect3_foregroundBlur_92_282"/>
</filter>
<linearGradient id="paint3_linear_92_282" x1="244.576" y1="102.24" x2="244.576" y2="334.42" gradientUnits="userSpaceOnUse">
<stop stop-color="#D9D9D9"/>
<stop offset="1" stop-color="#313131"/>
</linearGradient>
</defs>
</svg>
