<?xml version="1.0" encoding="UTF-8"?>
<svg xmlns="http://www.w3.org/2000/svg" xmlns:xlink="http://www.w3.org/1999/xlink" width="200px" height="px" viewBox="0 0 200 200" version="1.1">
<defs>
<linearGradient id="linear0" gradientUnits="userSpaceOnUse" x1="81" y1="13" x2="15" y2="99" gradientTransform="matrix(2,0,0,2,0,0)">
<stop offset="0" style="stop-color:rgb(97.647059%,64.313725%,22.745098%);stop-opacity:1;"/>
<stop offset="0.25" style="stop-color:rgb(100%,76.862745%,36.862745%);stop-opacity:1;"/>
<stop offset="0.53125" style="stop-color:rgb(57.647059%,93.333333%,93.72549%);stop-opacity:1;"/>
<stop offset="0.760417" style="stop-color:rgb(50.588235%,95.686275%,99.607843%);stop-opacity:1;"/>
<stop offset="1" style="stop-color:rgb(23.137255%,85.882353%,98.431373%);stop-opacity:1;"/>
</linearGradient>
<linearGradient id="linear1" gradientUnits="userSpaceOnUse" x1="81" y1="13" x2="15" y2="99" gradientTransform="matrix(2,0,0,2,0,0)">
<stop offset="0" style="stop-color:rgb(97.647059%,64.313725%,22.745098%);stop-opacity:1;"/>
<stop offset="0.25" style="stop-color:rgb(100%,76.862745%,36.862745%);stop-opacity:1;"/>
<stop offset="0.53125" style="stop-color:rgb(57.647059%,93.333333%,93.72549%);stop-opacity:1;"/>
<stop offset="0.760417" style="stop-color:rgb(50.588235%,95.686275%,99.607843%);stop-opacity:1;"/>
<stop offset="1" style="stop-color:rgb(23.137255%,85.882353%,98.431373%);stop-opacity:1;"/>
</linearGradient>
<linearGradient id="linear2" gradientUnits="userSpaceOnUse" x1="81" y1="13" x2="15" y2="99" gradientTransform="matrix(2,0,0,2,0,0)">
<stop offset="0" style="stop-color:rgb(97.647059%,64.313725%,22.745098%);stop-opacity:1;"/>
<stop offset="0.25" style="stop-color:rgb(100%,76.862745%,36.862745%);stop-opacity:1;"/>
<stop offset="0.53125" style="stop-color:rgb(57.647059%,93.333333%,93.72549%);stop-opacity:1;"/>
<stop offset="0.760417" style="stop-color:rgb(50.588235%,95.686275%,99.607843%);stop-opacity:1;"/>
<stop offset="1" style="stop-color:rgb(23.137255%,85.882353%,98.431373%);stop-opacity:1;"/>
</linearGradient>
<linearGradient id="linear3" gradientUnits="userSpaceOnUse" x1="81" y1="13" x2="15" y2="99" gradientTransform="matrix(2,0,0,2,0,0)">
<stop offset="0" style="stop-color:rgb(97.647059%,64.313725%,22.745098%);stop-opacity:1;"/>
<stop offset="0.25" style="stop-color:rgb(100%,76.862745%,36.862745%);stop-opacity:1;"/>
<stop offset="0.53125" style="stop-color:rgb(57.647059%,93.333333%,93.72549%);stop-opacity:1;"/>
<stop offset="0.760417" style="stop-color:rgb(50.588235%,95.686275%,99.607843%);stop-opacity:1;"/>
<stop offset="1" style="stop-color:rgb(23.137255%,85.882353%,98.431373%);stop-opacity:1;"/>
</linearGradient>
<linearGradient id="linear4" gradientUnits="userSpaceOnUse" x1="81" y1="13" x2="15" y2="99" gradientTransform="matrix(2,0,0,2,0,0)">
<stop offset="0" style="stop-color:rgb(97.647059%,64.313725%,22.745098%);stop-opacity:1;"/>
<stop offset="0.25" style="stop-color:rgb(100%,76.862745%,36.862745%);stop-opacity:1;"/>
<stop offset="0.53125" style="stop-color:rgb(57.647059%,93.333333%,93.72549%);stop-opacity:1;"/>
<stop offset="0.760417" style="stop-color:rgb(50.588235%,95.686275%,99.607843%);stop-opacity:1;"/>
<stop offset="1" style="stop-color:rgb(23.137255%,85.882353%,98.431373%);stop-opacity:1;"/>
</linearGradient>
<linearGradient id="linear5" gradientUnits="userSpaceOnUse" x1="81" y1="13" x2="15" y2="99" gradientTransform="matrix(2,0,0,2,0,0)">
<stop offset="0" style="stop-color:rgb(97.647059%,64.313725%,22.745098%);stop-opacity:1;"/>
<stop offset="0.25" style="stop-color:rgb(100%,76.862745%,36.862745%);stop-opacity:1;"/>
<stop offset="0.53125" style="stop-color:rgb(57.647059%,93.333333%,93.72549%);stop-opacity:1;"/>
<stop offset="0.760417" style="stop-color:rgb(50.588235%,95.686275%,99.607843%);stop-opacity:1;"/>
<stop offset="1" style="stop-color:rgb(23.137255%,85.882353%,98.431373%);stop-opacity:1;"/>
</linearGradient>
</defs>
<g id="surface1">
<path style=" stroke:none;fill-rule:nonzero;fill:url(#linear0);" d="M 19.144531 155.902344 C 27.519531 167.550781 38.265625 177.296875 50.671875 184.503906 C 63.078125 191.710938 76.867188 196.210938 91.132812 197.714844 C 83.792969 186.667969 73.121094 176.507812 59.800781 168.769531 C 46.480469 161.03125 32.375 156.804688 19.144531 155.902344 Z M 19.144531 155.902344 "/>
<path style=" stroke:none;fill-rule:nonzero;fill:url(#linear1);" d="M 77.703125 137.960938 C 52.035156 123.050781 24.257812 119.25 4.382812 125.964844 C 6.300781 132.304688 8.832031 138.445312 11.941406 144.296875 C 29.207031 143.898438 48.0625 148.585938 65.605469 158.777344 C 83.152344 168.96875 96.570312 183.03125 104.78125 198.234375 C 111.40625 198.03125 117.996094 197.1875 124.460938 195.714844 C 120.441406 175.125 103.359375 152.875 77.703125 137.960938 Z M 77.703125 137.960938 "/>
<path style=" stroke:none;fill-rule:nonzero;fill:url(#linear2);" d="M 200 77.441406 C 196.738281 64.167969 190.832031 51.6875 182.640625 40.75 C 174.449219 29.808594 164.132812 20.632812 152.316406 13.765625 C 140.5 6.902344 127.417969 2.488281 113.855469 0.789062 C 100.296875 -0.910156 86.53125 0.140625 73.386719 3.878906 C 95.347656 6.570312 119.722656 14.8125 143.632812 28.703125 C 167.539062 42.589844 186.792969 59.679688 200 77.441406 Z M 200 77.441406 "/>
<path style=" stroke:none;fill-rule:nonzero;fill:url(#linear3);" d="M 168.046875 126.117188 C 156.804688 107.445312 137.546875 89.570312 113.824219 75.789062 C 90.101562 62.007812 65.039062 54.136719 43.273438 53.613281 C 24.121094 53.160156 9.75 58.726562 3.851562 68.882812 C 3.816406 68.945312 3.769531 69 3.734375 69.0625 C 3.203125 70.96875 2.746094 72.875 2.328125 74.789062 C 10.566406 71.539062 20.109375 69.726562 30.722656 69.527344 C 54.324219 69.082031 80.738281 76.632812 105.113281 90.792969 C 129.488281 104.953125 149.144531 124.167969 160.445312 144.882812 C 165.511719 154.214844 168.675781 163.402344 169.929688 172.183594 C 171.386719 170.878906 172.816406 169.53125 174.203125 168.132812 C 174.242188 168.066406 174.265625 168 174.300781 167.933594 C 180.203125 157.765625 177.921875 142.527344 168.046875 126.117188 Z M 168.046875 126.117188 "/>
<path style=" stroke:none;fill-rule:nonzero;fill:url(#linear4);" d="M 95.777344 106.851562 C 59.449219 85.746094 19.304688 82.441406 0 97.167969 C 0.0390625 101.777344 0.390625 106.378906 1.054688 110.941406 C 6.734375 109.222656 12.585938 108.136719 18.503906 107.710938 C 40.078125 106.089844 63.859375 112.097656 85.441406 124.644531 C 107.023438 137.1875 124.039062 154.878906 133.316406 174.410156 C 135.882812 179.761719 137.839844 185.382812 139.148438 191.167969 C 143.441406 189.484375 147.617188 187.511719 151.644531 185.265625 C 154.875 161.195312 132.113281 127.960938 95.777344 106.851562 Z M 95.777344 106.851562 "/>
<path style=" stroke:none;fill-rule:nonzero;fill:url(#linear5);" d="M 186.730469 94.867188 C 175.363281 76.21875 155.9375 58.289062 132.046875 44.417969 C 108.15625 30.546875 82.996094 22.550781 61.160156 21.910156 C 44.511719 21.429688 31.617188 25.464844 24.929688 33.085938 C 52.691406 28.382812 89.308594 36.289062 124.800781 56.90625 C 160.292969 77.523438 185.308594 105.421875 194.964844 131.867188 C 198.273438 122.289062 195.394531 109.089844 186.730469 94.867188 Z M 186.730469 94.867188 "/>
</g>
</svg>
