<?xml version="1.0" encoding="utf-8"?>
<!-- Generator: Adobe Illustrator 26.4.1, SVG Export Plug-In . SVG Version: 6.00 Build 0)  -->
<svg version="1.1" id="Layer_1" xmlns="http://www.w3.org/2000/svg" xmlns:xlink="http://www.w3.org/1999/xlink" x="0px" y="0px"
	 viewBox="0 0 200 200" style="enable-background:new 0 0 200 200;" xml:space="preserve">
<style type="text/css">
	.st0{fill-rule:evenodd;clip-rule:evenodd;fill:#FFFFFF;}
</style>
<circle class="st0" cx="100" cy="100" r="100"/>
<g>
	<path d="M100.2,129.2c-9.9,10.2-19.6,20-29,29.7c-4.8-4.9-9.2-9.5-13.8-14.2c2.8-2.8,6-6,9.2-9.1c8.8-8.7,17.6-17.6,26.4-26.3
		c4-3.9,9.7-4.1,13.6-0.2c11.9,11.7,23.6,23.4,35.4,35.1c0.3,0.3,0.4,0.5,0.5,0.7c-4.5,4.6-9,9-13.7,13.8
		C119.6,149.1,109.9,139.3,100.2,129.2z"/>
	<path d="M57,55.5c4.8-4.9,9.3-9.5,14-14.3c9.4,9.6,18.9,19.4,28.7,29.3c9.8-10,19.4-19.7,28.9-29.5c4.8,4.9,9.2,9.5,13.8,14.3
		c-1.6,1.6-3.4,3.4-5.3,5.3c-9.8,9.8-19.6,19.6-29.5,29.4c-4.8,4.8-10.4,4.8-15.3,0C81.2,79,70.1,67.9,59,56.8
		C58.4,56.2,57.4,55.8,57,55.5z"/>
	<path d="M145,56.8c4.8,5,9.3,9.5,13.6,13.8c-9.5,9.6-19,19.3-28.5,28.9c9.7,9.8,19.4,19.6,28.9,29.2c-4.7,4.7-9.2,9.2-14,14
		c-2.9-3-5.9-6.3-9-9.4c-8.7-8.7-17.3-17.2-26-25.8c-4.7-4.7-4.7-10.3,0-15c11.3-11.2,22.7-22.5,33.8-33.7
		C144.3,58.3,144.5,57.6,145,56.8z"/>
	<path d="M54.5,142.7c-4.6-4.7-9-9.2-13.3-13.6c9.5-9.5,19-19.1,28.6-28.8c-9.7-9.8-19.3-19.4-28.8-29c4.7-4.7,9.1-9.3,13.8-14
		c4.7,4.7,9.1,9.3,13.8,13.9c7.1,7.1,14.2,14.1,21.4,21.2c4.8,4.8,4.8,10.3,0.1,15.2c-11.5,11.5-23,22.8-34.4,34.3
		C55.3,142,55,142.3,54.5,142.7z"/>
</g>
</svg>
