<?xml version="1.0" encoding="UTF-8"?>
<svg id="Layer_1" data-name="Layer 1" xmlns="http://www.w3.org/2000/svg" version="1.1" viewBox="0 0 500 500">
  <defs>
    <style>
      .cls-1 {
        fill: #d3f624;
      }

      .cls-1, .cls-2 {
        stroke-width: 0px;
      }

      .cls-2 {
        fill: #000;
      }
    </style>
  </defs>
  <path class="cls-1" d="M249.6-1.5C111.1-1.5-1,110.6-1,249s112.1,250.5,250.6,250.5,250.4-112.1,250.4-250.5S387.9-1.5,249.6-1.5Z"/>
  <path class="cls-2" d="M262.2,192.6c53.6,0,107.2,0,160.8,0,10.4,0,12.2,2.4,9.2,12.6-3.6,12.4-13.8,20.3-26.7,20.6-8.9.2-17.8.4-26.7,0-5.8-.3-7.3,2.1-7.7,7.4-2,30.8-16.7,54.1-44.2,67.6-38.7,19-85-4.6-94.3-46.9-1.3-5.9-2.4-11.8-4-17.7-1.3-5-4.4-8.5-10.2-8.1-5.2.4-8,3.3-9.3,8.4-2.6,10.7-4.1,21.7-8.8,31.8-16.7,36-61.6,49.8-94.3,29.9-25.5-15.5-38.5-38.6-39.6-67.9-.8-21.4,15.3-36.9,33.6-37.2,34.7-.5,69.4-.4,104.1-.5,19.3,0,38.6,0,57.9,0Z"/>
</svg>