<?xml version="1.0" encoding="UTF-8"?>
<svg id="Layer_1" data-name="Layer 1" xmlns="http://www.w3.org/2000/svg"
	xmlns:xlink="http://www.w3.org/1999/xlink" version="1.1" viewBox="0 0 500 500">
	<defs>
		<style>
			.cls-1 {
			fill: #ffef46;
			stroke: #eeda0f;
			stroke-width: 2px;
			}

			.cls-2 {
			clip-path: url(#clippath);
			}

			.cls-3 {
			fill: none;
			}

			.cls-3, .cls-4 {
			stroke-width: 0px;
			}

			.cls-4 {
			fill: #02050a;
			}
		</style>
		<clipPath id="clippath">
			<rect class="cls-3" x="46" y="45.9" width="408" height="408" />
		</clipPath>
	</defs>
	<path class="cls-1"
		d="M249.9,499.5c137.8,0,249.6-111.7,249.6-249.6S387.7.3,249.9.3.3,112,.3,249.9s111.7,249.6,249.6,249.6h0Z" />
	<g class="cls-2">
		<path class="cls-4"
			d="M243.7,261.5l20.1-19.4,37.5,12.3c24.5,8.2,36.8,23.2,36.8,44.3s-6.1,26.6-18.4,40.2l-3.7,4.1,1.4-9.5c5.4-34.7-4.8-49.7-38.5-60.6l-35.1-11.2ZM193.3,142.6l102.2,34.1-22.1,21.1-53.1-17.7c-18.4-6.1-24.5-16-26.9-36.8v-.7ZM187.2,315.6l23.2-22.1,43.6,14.3c22.8,7.5,30.7,17.4,28.3,42.2l-95-34.4ZM157.9,216.9c0-6.5,3.4-12.6,9.2-17.7,6.1,8.9,16.7,16.7,33.4,22.1l36.1,11.9-20.1,19.4-35.4-11.6c-16.3-5.4-23.2-13.6-23.2-24.2ZM264.9,395.7c74.9-49.7,115.1-83.4,115.1-125s-16.3-42.9-52.5-54.8l-27.2-9.2,74.6-71.5-15-16-22.1,19.4-104.6-34.4c-32.4,10.6-73.2,41.6-73.2,72.5s.3,6.8,1.4,10.6c-26.9,15.3-37.8,29.6-37.8,47.3s8.9,33.4,37.1,42.6l22.5,7.5-77.7,74.6,15,16,24.2-22.1,120.2,42.6Z" />
	</g>
</svg>