<?xml version="1.0" encoding="utf-8"?>
<!-- Generator: Adobe Illustrator 28.4.1, SVG Export Plug-In . SVG Version: 6.00 Build 0)  -->
<svg version="1.1" id="logo" xmlns="http://www.w3.org/2000/svg" xmlns:xlink="http://www.w3.org/1999/xlink" x="0px" y="0px"
	 viewBox="0 0 1000 1000" style="enable-background:new 0 0 1000 1000;" xml:space="preserve">
<style type="text/css">
	.st0{fill:#232323;}
	.st1{fill:url(#SVGID_1_);}
	.st2{fill:url(#SVGID_00000142868573644315844580000009739698224503539615_);}
</style>
<g>
	<circle class="st0" cx="500" cy="500" r="500"/>
</g>
<g>
	
		<linearGradient id="SVGID_1_" gradientUnits="userSpaceOnUse" x1="254.1178" y1="722.9391" x2="633.6816" y2="379.3269" gradientTransform="matrix(1 0 0 -1 0 997.8898)">
		<stop  offset="0" style="stop-color:#FFC10B"/>
		<stop  offset="1" style="stop-color:#FB3F2E"/>
	</linearGradient>
	<path class="st1" d="M505.1,807.2c7,0,12.7,5.6,12.7,12.6c0,6.9-5.7,12.6-12.7,12.6c-7,0-12.7-5.6-12.7-12.6
		C492.4,812.9,498.1,807.2,505.1,807.2z M491.3,207.6c6.2,0.5,11.2,5.2,12.1,11.3l15.1,109.7c5.1,36.2,48.8,51.9,75.8,27.3
		l151.2-137.7c3.6-3.3,9.3-3.1,12.7,0.5c3.1,3.3,3.2,8.4,0.2,11.8L626.4,382.7c-24.3,28-6.4,71.6,30.6,74.7l116.4,11.2
		c5.8,0.6,10,5.7,9.5,11.4c-0.5,4.7-4.1,8.5-8.8,9.3l-122.3,19.1c-35.5,4.8-51.6,46.9-28.5,74.2l43,50.7c3.5,4.1,2.9,10.2-1.2,13.6
		c-3.5,2.9-8.6,3-12.2,0.3l-53-40c-28.6-21.5-69.8-3.2-72.8,32.4l-11.7,138.8c-0.5,5.7-5.6,10-11.4,9.5c-4.9-0.4-8.9-4.1-9.6-9
		l-18.5-134.1c-5-36.2-48.7-51.9-75.8-27.3L239.3,763.9c-3.3,3-8.5,2.8-11.6-0.5c-2.8-3-2.9-7.6-0.2-10.8l140.4-162
		c24.3-28,6.5-71.6-30.5-74.7L221,504.7c-5.8-0.6-10-5.7-9.5-11.4c0.5-4.7,4.1-8.5,8.8-9.3L342.5,465c35.5-4.8,51.7-46.9,28.6-74.2
		l-29.3-34.5c-4.3-5.1-3.6-12.6,1.5-16.8c4.3-3.6,10.6-3.7,15.1-0.3l35.9,27.2c28.6,21.5,69.8,3.2,72.8-32.4l9.7-114.3
		C477.6,212.4,484,207,491.3,207.6z M181.7,480.5c7,0,12.7,5.6,12.7,12.6s-5.7,12.6-12.7,12.6c-7,0-12.7-5.6-12.7-12.6
		S174.7,480.5,181.7,480.5z M818.3,467.8c7,0,12.7,5.6,12.7,12.6s-5.7,12.6-12.7,12.6s-12.7-5.6-12.7-12.6S811.2,467.8,818.3,467.8z
		 M489.5,167.7c7,0,12.7,5.6,12.7,12.6c0,6.9-5.7,12.6-12.7,12.6c-7,0-12.7-5.6-12.7-12.6C476.8,173.3,482.4,167.7,489.5,167.7z"/>
	
		<radialGradient id="SVGID_00000050660763855648578730000008958411795424475021_" cx="233.5461" cy="927.0884" r="13.3497" gradientTransform="matrix(4.9922 12.0639 12.1811 -5.0407 -11989.2061 2298.6133)" gradientUnits="userSpaceOnUse">
		<stop  offset="0" style="stop-color:#FFC10B"/>
		<stop  offset="1" style="stop-color:#FB3F2E"/>
	</radialGradient>
	<path style="fill:url(#SVGID_00000050660763855648578730000008958411795424475021_);" d="M497.1,605.2
		c66.2,0,119.9-53.1,119.9-118.6c0-65.5-53.7-118.6-119.9-118.6s-119.9,53.1-119.9,118.6C377.2,552.2,430.9,605.2,497.1,605.2z"/>
</g>
</svg>
