<?xml version="1.0" encoding="utf-8"?>
<svg version="1.1" id="Layer_1" xmlns="http://www.w3.org/2000/svg" xmlns:xlink="http://www.w3.org/1999/xlink" x="0px" y="0px"
	 viewBox="0 0 200 200" style="enable-background:new 0 0 200 200;" xml:space="preserve">
<style type="text/css">
	.st0{fill:#084EFC;}
	.st1{fill-rule:evenodd;clip-rule:evenodd;fill:#FBD52E;}
	.st2{fill:#FFFFFF;}
</style>
<g id="surface1">
	<path class="st0" d="M200,100c0,55.3-44.8,100-100,100S0,155.3,0,100S44.7,0,100,0S200,44.7,200,100z"/>
</g>
<path class="st1" d="M263.4-7.6"/>
<g>
	<path class="st2" d="M75.2,92.9c0.1,13.3,5.9,24,15.3,32.9c1.4,1.3,2.9,2.5,4.3,3.7c3.2,2.8,2.8,6.5-1,8.5
		c-10.5,5.5-21.8,8.8-33.4,10.9c-4.4,0.8-8.9,1.3-13.4,1.9c-5.6,0.7-10.1-1.4-13.2-6.1c-3.1-4.7-3.2-9.7-0.4-14.6
		c5.6-9.8,11.3-19.5,16.9-29.2C62.7,79.7,75,58.4,87.3,37.2c4.2-7.2,11.1-9.9,18.2-7c3.1,1.2,5.2,3.5,6.9,6.3
		c15.9,27.5,31.8,54.9,47.8,82.4c2.1,3.7,4.3,7.3,6.4,11c5.3,9.4-0.2,20.4-11,21.1c-3.6,0.3-7.4-0.6-11-1.1
		c-12-1.9-23.8-4.9-34.9-10.1c-1.1-0.5-2.2-1-3.3-1.6c-4-2.1-4.3-5.9-0.8-8.8c4.9-3.9,9.2-8.3,12.5-13.6c5.6-8.8,8.1-18.3,6.4-28.7
		c-1.2-7.5-5.7-12.4-12.8-14.7c-7.5-2.5-15.2-2.5-22.7-0.1c-8.6,2.7-13.5,9.5-13.7,18.5C75.2,91.4,75.2,92.2,75.2,92.9z"/>
	<path class="st2" d="M103.5,112.3c0.4-6.5,4.9-11.1,11.2-12.2c4.8-0.8,5.4-0.1,4,4.6c-1.7,5.4-8.3,9.9-13.7,9.1
		C104.3,113.7,103.8,112.6,103.5,112.3z"/>
	<path class="st2" d="M96.6,112.6c-0.4,0.3-1,1.1-1.7,1.2c-6.8,0.3-12.3-4-13.9-10.6c-0.7-3,0-3.6,3-3.2c6.4,0.9,10.9,3.9,12.3,10.5
		c0.1,0.3,0.1,0.6,0.2,0.9C96.6,111.5,96.6,111.8,96.6,112.6z"/>
</g>
</svg>
