<?xml version="1.0" encoding="utf-8"?>
<!-- Generator: Adobe Illustrator 26.4.1, SVG Export Plug-In . SVG Version: 6.00 Build 0)  -->
<svg version="1.1" id="Layer_1" xmlns="http://www.w3.org/2000/svg" xmlns:xlink="http://www.w3.org/1999/xlink" x="0px" y="0px"
	 viewBox="0 0 200 200" style="enable-background:new 0 0 200 200;" xml:space="preserve">
<style type="text/css">
	.st0{fill:#232323;}
	.st1{fill-rule:evenodd;clip-rule:evenodd;fill:#FBD52E;}
	.st2{fill-rule:evenodd;clip-rule:evenodd;fill:#A9F6AE;}
	.st3{fill-rule:evenodd;clip-rule:evenodd;fill:#ADF5B5;}
	.st4{fill-rule:evenodd;clip-rule:evenodd;fill:#90C297;}
	.st5{fill-rule:evenodd;clip-rule:evenodd;fill:#A2E2AB;}
</style>
<g id="surface1">
	<path class="st0" d="M200,100c0,55.3-44.8,100-100,100S0,155.3,0,100S44.7,0,100,0S200,44.7,200,100z"/>
</g>
<path class="st1" d="M263.4-7.6"/>
<g>
	<path class="st2" d="M148,97c-2.1,0.7-4.3,1.3-6.5,1.8c-1,0.5-1.5,1.2-1.5,2.2c-1.1,0.4-2.2,0.9-3.2,1.5c-0.8-0.8-1.3-0.7-1.5,0.5
		c-0.5-0.4-0.8-0.9-1-1.5c0.1-7.4-0.3-14.5-1.2-21.5c-19-10.4-37.8-21.2-56.3-32.5c-0.4-1.4,0-2.5,1.2-3.2c6.9-3.9,13.8-7.9,20.5-12
		c1-0.3,2-0.3,3,0c19.1,11.1,38.2,22.2,57.3,33.2c0.3,8.5,0.3,17,0,25.5C155.2,93.1,151.6,95.1,148,97z"/>
	<path class="st2" d="M67.5,80c-0.5,0-1,0-1.5,0c0,22.2,0,44.3,0,66.5c-0.8,1-1.8,1.2-3,0.8c-5.8-3.3-11.4-6.7-17-10.2
		c-0.7-2-2.1-3.1-4.2-3.5C41.4,111.4,41.4,89.2,42,67c0.5,0,1,0,1.5,0c-0.6,11-0.9,22-1,33c0,9.6,0.3,19.1,1,28.5
		c-0.6,1.4-0.5,2.7,0.2,4c0.5-0.7,0.8-1.6,0.8-2.5C44,110.7,43.8,91.3,44,72c0.6,0.1,1.1-0.1,1.5-0.5c1-1.2,1.8-2.4,2.5-3.8
		c-1.2,0.2-2.2,0.7-3,1.8c-0.5-0.5-0.9-1.1-1-1.8c0.7-1.2,1-2.4,1-3.8c1.7-0.8,3.5-1.1,5.5-1c-0.1-1.2,0.2-2.2,1-3
		c3.1-2,6.2-3.9,9.5-5.8c0.8-0.3,1.7-0.3,2.5,0c7.5,4.2,14.9,8.4,22.2,12.8c0.4,1,0.3,1.9-0.2,2.8C79.6,73.3,73.6,76.7,67.5,80z"/>
	<path class="st3" d="M51.5,60c-0.8,0.8-1.1,1.8-1,3c-2-0.1-3.8,0.2-5.5,1c0,1.3-0.3,2.6-1,3.8c0.1,0.7,0.5,1.3,1,1.8
		c0.8-1,1.8-1.6,3-1.8c-0.7,1.3-1.5,2.6-2.5,3.8c-0.4,0.4-0.9,0.6-1.5,0.5c-0.2,19.3,0,38.7,0.5,58c0,0.9-0.2,1.8-0.8,2.5
		c-0.8-1.3-0.8-2.6-0.2-4c-0.7-9.4-1-18.9-1-28.5c0.1-11,0.4-22,1-33c-0.5,0-1,0-1.5,0c-0.6,22.2-0.6,44.3-0.2,66.5
		c2.1,0.4,3.5,1.5,4.2,3.5c-1.6-0.7-3.2-1.5-4.8-2.5c-0.3-22.8-0.3-45.7,0-68.5C44.6,63.8,48,61.8,51.5,60z"/>
	<path class="st4" d="M67.5,80c-0.1,0.4-0.4,0.7-0.8,1c-0.1,21.9-0.3,43.8-0.8,65.5c0-22.2,0-44.3,0-66.5C66.5,80,67,80,67.5,80z"/>
	<path class="st5" d="M133,80c0.9,7,1.3,14.1,1.2,21.5c0.2,0.6,0.5,1.1,1,1.5c0.2-1.2,0.7-1.3,1.5-0.5c1-0.6,2.1-1.1,3.2-1.5
		c0-1,0.5-1.8,1.5-2.2c2.2-0.4,4.4-1,6.5-1.8c-3.8,2.3-7.6,4.6-11.5,6.8c-1.1,0.4-2,0.2-2.8-0.8C133.7,95.3,133.4,87.7,133,80z"/>
	<path class="st2" d="M156.5,106c0.9-0.1,1.7,0.2,2.2,1c0.4,9.3,0.3,18.5-0.2,27.8c-19,11-38,22-57,33c-1.6,0.4-3.1,0-4.5-1
		c-6.1-3.5-12.2-7.1-18.2-10.8c-0.4-9.3-0.3-18.5,0.2-27.8c1-0.3,2-0.3,3,0c5.7,3.3,11.3,6.7,17,10c0.7,0.3,1.3,0.3,2,0
		C119.5,127.5,138,116.8,156.5,106z"/>
</g>
</svg>
