<?xml version="1.0" encoding="UTF-8"?>
<svg xmlns="http://www.w3.org/2000/svg" xmlns:xlink="http://www.w3.org/1999/xlink" width="200px" height="200px" viewBox="0 0 200 200" version="1.1">
<g id="surface1">
<path style=" stroke:none;fill-rule:evenodd;fill:rgb(0.392157%,0.392157%,0.392157%);fill-opacity:1;" d="M -0.25 -0.25 C 66.417969 -0.25 133.082031 -0.25 199.75 -0.25 C 199.75 66.417969 199.75 133.082031 199.75 199.75 C 133.082031 199.75 66.417969 199.75 -0.25 199.75 C -0.25 133.082031 -0.25 66.417969 -0.25 -0.25 Z M -0.25 -0.25 "/>
<path style=" stroke:none;fill-rule:evenodd;fill:rgb(66.27451%,96.470588%,68.235294%);fill-opacity:1;" d="M 147.75 96.75 C 145.636719 97.480469 143.472656 98.0625 141.25 98.5 C 140.28125 98.953125 139.78125 99.703125 139.75 100.75 C 138.625 101.117188 137.542969 101.617188 136.5 102.25 C 135.675781 101.429688 135.175781 101.597656 135 102.75 C 134.542969 102.335938 134.210938 101.835938 134 101.25 C 134.078125 93.898438 133.660156 86.734375 132.75 79.75 C 113.742188 69.371094 94.992188 58.535156 76.5 47.25 C 76.078125 45.839844 76.496094 44.757812 77.75 44 C 84.664062 40.125 91.5 36.125 98.25 32 C 99.25 31.667969 100.25 31.667969 101.25 32 C 120.332031 43.082031 139.417969 54.167969 158.5 65.25 C 158.832031 73.75 158.832031 82.25 158.5 90.75 C 154.945312 92.820312 151.359375 94.820312 147.75 96.75 Z M 147.75 96.75 "/>
<path style=" stroke:none;fill-rule:evenodd;fill:rgb(66.27451%,96.470588%,68.235294%);fill-opacity:1;" d="M 67.25 79.75 C 66.75 79.75 66.25 79.75 65.75 79.75 C 65.75 101.917969 65.75 124.082031 65.75 146.25 C 64.996094 147.21875 63.996094 147.46875 62.75 147 C 56.96875 143.695312 51.300781 140.28125 45.75 136.75 C 45.019531 134.769531 43.601562 133.605469 41.5 133.25 C 41.109375 111.078125 41.191406 88.910156 41.75 66.75 C 42.25 66.75 42.75 66.75 43.25 66.75 C 42.644531 77.730469 42.308594 88.730469 42.25 99.75 C 42.257812 109.324219 42.589844 118.824219 43.25 128.25 C 42.667969 129.601562 42.75 130.933594 43.5 132.25 C 44.03125 131.527344 44.28125 130.695312 44.25 129.75 C 43.761719 110.421875 43.59375 91.089844 43.75 71.75 C 44.335938 71.859375 44.835938 71.691406 45.25 71.25 C 46.21875 70.082031 47.054688 68.832031 47.75 67.5 C 46.597656 67.664062 45.597656 68.246094 44.75 69.25 C 44.222656 68.78125 43.890625 68.199219 43.75 67.5 C 44.4375 66.339844 44.769531 65.089844 44.75 63.75 C 46.460938 62.957031 48.292969 62.625 50.25 62.75 C 50.125 61.570312 50.460938 60.570312 51.25 59.75 C 54.332031 57.765625 57.496094 55.847656 60.75 54 C 61.582031 53.667969 62.417969 53.667969 63.25 54 C 70.707031 58.1875 78.125 62.4375 85.5 66.75 C 85.871094 67.71875 85.789062 68.636719 85.25 69.5 C 79.304688 73.054688 73.304688 76.472656 67.25 79.75 Z M 67.25 79.75 "/>
<path style=" stroke:none;fill-rule:evenodd;fill:rgb(67.843137%,96.078431%,70.980392%);fill-opacity:1;" d="M 51.25 59.75 C 50.460938 60.570312 50.125 61.570312 50.25 62.75 C 48.292969 62.625 46.460938 62.957031 44.75 63.75 C 44.769531 65.089844 44.4375 66.339844 43.75 67.5 C 43.890625 68.199219 44.222656 68.78125 44.75 69.25 C 45.597656 68.246094 46.597656 67.664062 47.75 67.5 C 47.054688 68.832031 46.21875 70.082031 45.25 71.25 C 44.835938 71.691406 44.335938 71.859375 43.75 71.75 C 43.59375 91.089844 43.761719 110.421875 44.25 129.75 C 44.28125 130.695312 44.03125 131.527344 43.5 132.25 C 42.75 130.933594 42.667969 129.601562 43.25 128.25 C 42.589844 118.824219 42.257812 109.324219 42.25 99.75 C 42.308594 88.730469 42.644531 77.730469 43.25 66.75 C 42.75 66.75 42.25 66.75 41.75 66.75 C 41.191406 88.910156 41.109375 111.078125 41.5 133.25 C 43.601562 133.605469 45.019531 134.769531 45.75 136.75 C 44.121094 136.046875 42.539062 135.214844 41 134.25 C 40.667969 111.417969 40.667969 88.582031 41 65.75 C 44.320312 63.550781 47.738281 61.550781 51.25 59.75 Z M 51.25 59.75 "/>
<path style=" stroke:none;fill-rule:evenodd;fill:rgb(56.470588%,76.078431%,59.215686%);fill-opacity:1;" d="M 67.25 79.75 C 67.109375 80.144531 66.859375 80.476562 66.5 80.75 C 66.417969 102.667969 66.167969 124.5 65.75 146.25 C 65.75 124.082031 65.75 101.917969 65.75 79.75 C 66.25 79.75 66.75 79.75 67.25 79.75 Z M 67.25 79.75 "/>
<path style=" stroke:none;fill-rule:evenodd;fill:rgb(63.529412%,88.627451%,67.058824%);fill-opacity:1;" d="M 132.75 79.75 C 133.660156 86.734375 134.078125 93.898438 134 101.25 C 134.210938 101.835938 134.542969 102.335938 135 102.75 C 135.175781 101.597656 135.675781 101.429688 136.5 102.25 C 137.542969 101.617188 138.625 101.117188 139.75 100.75 C 139.78125 99.703125 140.28125 98.953125 141.25 98.5 C 143.472656 98.0625 145.636719 97.480469 147.75 96.75 C 144 99.070312 140.167969 101.320312 136.25 103.5 C 135.148438 103.914062 134.234375 103.664062 133.5 102.75 C 133.410156 95.046875 133.160156 87.378906 132.75 79.75 Z M 132.75 79.75 "/>
<path style=" stroke:none;fill-rule:evenodd;fill:rgb(66.27451%,96.470588%,68.235294%);fill-opacity:1;" d="M 156.25 105.75 C 157.195312 105.648438 157.945312 105.980469 158.5 106.75 C 158.914062 116.035156 158.828125 125.285156 158.25 134.5 C 139.25 145.5 120.25 156.5 101.25 167.5 C 99.609375 167.871094 98.109375 167.539062 96.75 166.5 C 90.625 162.980469 84.542969 159.398438 78.5 155.75 C 78.085938 146.464844 78.171875 137.214844 78.75 128 C 79.75 127.667969 80.75 127.667969 81.75 128 C 87.417969 131.332031 93.082031 134.667969 98.75 138 C 99.417969 138.332031 100.082031 138.332031 100.75 138 C 119.265625 127.242188 137.765625 116.492188 156.25 105.75 Z M 156.25 105.75 "/>
</g>
</svg>
