<?xml version="1.0" encoding="UTF-8"?>
<svg xmlns="http://www.w3.org/2000/svg" xmlns:xlink="http://www.w3.org/1999/xlink" width="200px" height="px" viewBox="0 0 199 194" version="1.1">
<g id="surface1">
<path style=" stroke:none;fill-rule:nonzero;fill:rgb(0%,100%,0%);fill-opacity:1;" d="M 86.230469 99.089844 L 89.714844 95.574219 L 89.714844 83.191406 L 86.230469 79.675781 L 81.425781 79.675781 L 78.105469 83.191406 L 78.105469 95.574219 L 81.425781 99.089844 Z M 86.230469 99.089844 "/>
<path style=" stroke:none;fill-rule:nonzero;fill:rgb(0%,100%,0%);fill-opacity:1;" d="M 117.578125 98.925781 L 120.894531 95.410156 L 120.894531 83.191406 L 117.578125 79.675781 L 112.769531 79.675781 L 109.285156 83.191406 L 109.285156 95.410156 L 112.769531 98.925781 Z M 117.578125 98.925781 "/>
<path style=" stroke:none;fill-rule:nonzero;fill:rgb(0%,100%,0%);fill-opacity:1;" d="M 196.019531 71.140625 L 191.207031 70.472656 L 173.960938 83.859375 L 173.296875 88.714844 L 172.523438 89.382812 L 167.828125 89.382812 L 164.34375 92.898438 L 164.34375 97.585938 L 167.496094 100.765625 L 167.496094 102.441406 L 164.175781 105.957031 L 164.34375 127.882812 L 167.828125 131.230469 L 167.992188 132.90625 L 168.082031 132.980469 L 164.839844 136.25 L 164.839844 141.105469 L 163.347656 142.613281 L 138.96875 142.613281 L 137.476562 141.105469 L 137.476562 116.5 L 136.8125 115.832031 L 133.992188 112.988281 L 133.992188 111.3125 L 133.746094 111.058594 L 137.144531 107.625 L 137.144531 102.941406 L 136.890625 102.683594 L 137.476562 102.605469 L 138.472656 101.4375 L 143.28125 100.933594 L 154.890625 85.867188 L 154.40625 81.164062 L 155.554688 80.011719 L 155.519531 79.554688 L 155.554688 79.507812 L 155.410156 78.148438 L 155.386719 77.832031 L 158.867188 74.320312 L 158.535156 46.195312 L 155.054688 42.851562 L 155.054688 42.515625 L 155.222656 41.011719 L 153.894531 39.335938 L 154.390625 34.480469 L 142.617188 19.417969 L 137.808594 18.914062 L 137.097656 17.957031 L 137.144531 17.914062 L 137.144531 13.222656 L 133.828125 9.707031 L 129.1875 9.707031 L 127.527344 8.371094 L 127.527344 3.515625 L 123.875 0 L 75.125 0 L 71.472656 3.515625 L 71.472656 8.371094 L 69.816406 9.707031 L 65.171875 9.707031 L 61.855469 13.222656 L 61.855469 17.914062 L 61.902344 17.957031 L 61.191406 18.914062 L 56.382812 19.417969 L 44.609375 34.480469 L 45.105469 39.335938 L 43.78125 41.011719 L 43.945312 42.515625 L 43.945312 42.851562 L 40.464844 46.195312 L 40.132812 74.320312 L 43.613281 77.832031 L 43.449219 80.011719 L 44.746094 81.316406 L 44.277344 85.867188 L 55.886719 100.933594 L 60.695312 101.4375 L 61.691406 102.605469 L 62.121094 102.664062 L 61.855469 102.941406 L 61.855469 107.625 L 65.171875 111.140625 L 65.007812 111.3125 L 65.007812 112.988281 L 62.1875 115.832031 L 61.523438 116.5 L 61.523438 141.105469 L 60.03125 142.613281 L 35.652344 142.613281 L 34.160156 141.105469 L 34.160156 136.25 L 30.847656 132.90625 L 31.011719 131.230469 L 34.492188 127.882812 L 34.660156 105.957031 L 31.339844 102.441406 L 31.492188 100.785156 L 34.660156 97.585938 L 34.660156 92.898438 L 31.179688 89.382812 L 26.476562 89.382812 L 25.703125 88.714844 L 25.039062 83.859375 L 7.792969 70.472656 L 2.984375 71.140625 L 0 74.988281 L 0.664062 79.84375 L 17.910156 93.234375 L 22.722656 92.5625 L 23.085938 92.863281 L 23.054688 92.898438 L 23.054688 97.585938 L 26.367188 101.101562 L 26.535156 101.101562 L 26.535156 102.105469 L 23.054688 105.621094 L 22.722656 127.550781 L 26.035156 131.066406 L 26.035156 132.734375 L 25.871094 132.734375 L 22.550781 136.25 L 22.550781 141.105469 L 25.871094 144.453125 L 30.679688 144.453125 L 32.175781 145.960938 L 32.175781 150.8125 L 35.488281 154.164062 L 59.863281 154.164062 L 63.347656 150.8125 L 63.347656 145.960938 L 64.84375 144.453125 L 69.816406 144.453125 L 73.132812 141.105469 L 73.132812 116.5 L 70.148438 112.988281 L 69.980469 111.140625 L 73.464844 107.625 L 73.464844 102.941406 L 69.980469 99.425781 L 65.308594 99.425781 L 64.511719 98.421875 L 65.007812 93.570312 L 53.230469 78.503906 L 48.425781 78.003906 L 48.410156 77.984375 L 48.425781 77.832031 L 51.90625 74.488281 L 52.070312 46.53125 L 48.757812 43.015625 L 48.800781 42.488281 L 48.921875 42.347656 L 53.730469 41.847656 L 65.339844 26.785156 L 64.84375 21.929688 L 65.230469 21.421875 L 69.980469 21.421875 L 73.464844 17.914062 L 73.464844 13.222656 L 75.125 11.886719 L 123.875 11.886719 L 125.535156 13.222656 L 125.535156 17.914062 L 129.019531 21.421875 L 133.773438 21.421875 L 134.160156 21.929688 L 133.660156 26.785156 L 145.269531 41.847656 L 150.078125 42.347656 L 150.199219 42.488281 L 150.246094 43.015625 L 146.929688 46.53125 L 147.097656 74.488281 L 150.574219 77.832031 L 150.59375 78.015625 L 145.933594 78.503906 L 134.160156 93.570312 L 134.65625 98.421875 L 133.773438 99.539062 L 133.660156 99.425781 L 128.855469 99.425781 L 125.535156 102.941406 L 125.535156 107.625 L 128.855469 111.140625 L 129.019531 111.140625 L 128.855469 112.988281 L 126.035156 116.5 L 126.035156 141.105469 L 129.351562 144.453125 L 134.160156 144.453125 L 135.652344 145.960938 L 135.652344 150.8125 L 139.136719 154.164062 L 163.511719 154.164062 L 166.832031 150.8125 L 166.832031 145.960938 L 168.324219 144.453125 L 173.132812 144.453125 L 176.445312 141.105469 L 176.445312 136.25 L 173.132812 132.734375 L 172.800781 132.734375 L 172.800781 131.066406 L 176.113281 127.550781 L 175.785156 105.621094 L 172.300781 102.105469 L 172.300781 101.101562 L 172.632812 101.101562 L 175.953125 97.585938 L 175.953125 92.898438 L 175.914062 92.863281 L 176.285156 92.5625 L 181.089844 93.234375 L 198.335938 79.84375 L 199 74.988281 Z M 196.019531 71.140625 "/>
<path style=" stroke:none;fill-rule:nonzero;fill:rgb(0%,100%,0%);fill-opacity:1;" d="M 84.410156 143.449219 L 80.925781 146.960938 L 80.925781 151.816406 L 79.433594 153.324219 L 74.625 153.324219 L 51.40625 176.257812 L 51.40625 180.941406 L 49.914062 182.449219 L 25.539062 182.449219 L 24.042969 180.941406 L 24.042969 176.085938 L 20.5625 172.574219 L 15.753906 172.574219 L 12.4375 176.085938 L 12.4375 180.941406 L 15.753906 184.292969 L 20.5625 184.292969 L 22.058594 185.796875 L 22.058594 190.652344 L 25.371094 194 L 49.753906 194 L 53.230469 190.652344 L 53.230469 185.796875 L 54.722656 184.292969 L 54.890625 184.460938 L 59.699219 184.460938 L 82.917969 161.523438 L 82.917969 156.671875 L 84.246094 155.164062 L 88.886719 155.164062 L 92.703125 151.816406 L 92.703125 146.960938 L 89.21875 143.449219 Z M 84.410156 143.449219 "/>
<path style=" stroke:none;fill-rule:nonzero;fill:rgb(0%,100%,0%);fill-opacity:1;" d="M 178.769531 172.574219 L 175.289062 176.085938 L 175.289062 180.941406 L 173.796875 182.449219 L 149.414062 182.449219 L 147.925781 180.941406 L 147.925781 176.257812 L 124.707031 153.324219 L 119.898438 153.324219 L 118.40625 151.816406 L 118.40625 146.960938 L 114.921875 143.449219 L 110.113281 143.449219 L 106.628906 146.960938 L 106.628906 151.816406 L 110.445312 155.164062 L 115.089844 155.164062 L 116.414062 156.671875 L 116.414062 161.523438 L 139.632812 184.460938 L 144.441406 184.460938 L 144.609375 184.292969 L 146.101562 185.796875 L 146.101562 190.652344 L 149.585938 194 L 173.960938 194 L 177.273438 190.652344 L 177.273438 185.796875 L 178.769531 184.292969 L 183.578125 184.292969 L 186.894531 180.941406 L 186.894531 176.085938 L 183.578125 172.574219 Z M 178.769531 172.574219 "/>
</g>
</svg>
