<?xml version="1.0" encoding="utf-8"?>
<!-- Generator: Adobe Illustrator 26.4.1, SVG Export Plug-In . SVG Version: 6.00 Build 0)  -->
<svg version="1.1" id="Layer_1" xmlns="http://www.w3.org/2000/svg" xmlns:xlink="http://www.w3.org/1999/xlink" x="0px" y="0px"
	 viewBox="0 0 200 200" style="enable-background:new 0 0 200 200;" xml:space="preserve">
<style type="text/css">
	.st0{fill:#75FB6E;}
	.st1{fill-rule:evenodd;clip-rule:evenodd;fill:#FBD52E;}
</style>
<g id="Layer_x0020_1">
	<g id="_2090755387392">
		<path class="st0" d="M100,0.4L100,0.4c55,0,99.6,44.6,99.6,99.6l0,0c0,55-44.6,99.6-99.6,99.6l0,0C45,199.6,0.4,155,0.4,100l0,0
			C0.4,45,45,0.4,100,0.4z"/>
	</g>
</g>
<path class="st1" d="M99,100.7"/>
<g>
	<polygon points="90.8,101.4 93.2,99 93.2,90.5 90.8,88.1 87.4,88.1 85.1,90.5 85.1,99 87.4,101.4 	"/>
	<polygon points="112.6,101.3 114.9,98.9 114.9,90.5 112.6,88.1 109.2,88.1 106.8,90.5 106.8,98.9 109.2,101.3 	"/>
	<polygon points="167.1,82.2 163.8,81.7 151.8,90.9 151.3,94.3 150.8,94.8 147.5,94.8 145.1,97.2 145.1,100.4 147.3,102.6 
		147.3,103.7 145,106.2 145.1,121.3 147.5,123.6 147.6,124.7 147.7,124.8 145.4,127 145.4,130.4 144.4,131.4 127.4,131.4 
		126.4,130.4 126.4,128.7 126.4,113.4 125.9,113 124,111 124,109.9 123.8,109.7 126.2,107.3 126.2,104.1 126,103.9 126.4,103.9 
		127.1,103.1 130.4,102.7 138.5,92.3 138.2,89.1 139,88.3 138.9,88 139,88 138.9,87 138.9,86.8 141.3,84.4 141,65 138.6,62.7 
		138.6,62.5 138.7,61.4 137.8,60.3 138.2,56.9 130,46.6 126.6,46.2 126.1,45.6 126.2,45.5 126.2,42.3 123.9,39.9 120.9,39.9 
		120.6,39.9 119.5,38.9 119.5,35.6 116.9,33.2 100.2,33.2 99.8,33.2 83.1,33.2 80.5,35.6 80.5,38.9 79.4,39.9 79.1,39.9 76.1,39.9 
		73.8,42.3 73.8,45.5 73.9,45.6 73.4,46.2 70,46.6 61.8,56.9 62.2,60.3 61.3,61.4 61.4,62.5 61.4,62.7 59,65 58.7,84.4 61.1,86.8 
		61,88.3 61.9,89.2 61.6,92.3 69.7,102.7 73,103.1 73.7,103.9 74,103.9 73.8,104.1 73.8,107.3 76.1,109.7 76,109.9 76,111 74.1,113 
		73.6,113.4 73.6,128.7 73.6,130.4 72.6,131.4 55.6,131.4 54.6,130.4 54.6,127 52.3,124.7 52.4,123.6 54.8,121.3 54.9,106.2 
		52.6,103.7 52.7,102.6 54.9,100.4 54.9,97.2 52.5,94.8 49.2,94.8 48.7,94.3 48.2,90.9 36.2,81.7 32.9,82.2 30.8,84.8 31.3,88.2 
		43.3,97.4 46.6,96.9 46.9,97.1 46.8,97.2 46.8,100.4 49.2,102.8 49.3,102.8 49.3,103.5 46.8,105.9 46.6,121 48.9,123.5 48.9,124.6 
		48.8,124.6 46.5,127 46.5,130.4 48.8,132.7 52.1,132.7 53.2,133.7 53.2,137.1 55.5,139.4 72.4,139.4 74.9,137.1 74.9,133.7 
		75.9,132.7 79.4,132.7 81.7,130.4 81.7,129.2 81.7,113.4 79.6,111 79.5,109.7 81.9,107.3 81.9,104.1 79.5,101.7 76.2,101.7 
		75.7,101 76,97.6 67.8,87.3 64.5,86.9 64.5,86.9 64.5,86.8 66.9,84.5 67,65.2 64.7,62.8 64.8,62.5 64.8,62.4 68.2,62 76.2,51.6 
		75.9,48.3 76.2,47.9 79.5,47.9 81.9,45.5 81.9,42.5 81.9,42.5 81.9,42.3 83.1,41.4 99.8,41.4 100.2,41.4 116.9,41.4 118.1,42.3 
		118.1,42.5 118.1,42.5 118.1,45.5 120.5,47.9 123.8,47.9 124.1,48.3 123.8,51.6 131.8,62 135.2,62.4 135.2,62.5 135.3,62.8 
		133,65.2 133.1,84.5 135.5,86.8 135.5,86.9 132.3,87.3 124.1,97.6 124.4,101 123.8,101.7 123.8,101.7 120.4,101.7 118.1,104.1 
		118.1,107.3 120.4,109.7 120.5,109.7 120.4,111 118.5,113.4 118.5,129.2 118.5,130.4 120.8,132.7 124.1,132.7 125.1,133.7 
		125.1,137.1 127.6,139.4 144.5,139.4 146.8,137.1 146.8,133.7 147.9,132.7 151.2,132.7 153.5,130.4 153.5,127 151.2,124.6 
		151,124.6 151,123.5 153.3,121 153,105.9 150.6,103.5 150.6,102.8 150.8,102.8 153.2,100.4 153.2,97.2 153.1,97.1 153.4,96.9 
		156.7,97.4 168.7,88.2 169.2,84.8 	"/>
	<polygon points="89.5,132 87.1,134.4 87.1,137.8 86,138.8 82.7,138.8 66.6,154.6 66.6,157.8 65.5,158.9 48.6,158.9 47.5,157.8 
		47.5,154.5 45.1,152.1 41.8,152.1 39.5,154.5 39.5,157.8 41.8,160.1 45.1,160.1 46.2,161.2 46.2,164.5 48.5,166.8 65.4,166.8 
		67.8,164.5 67.8,161.2 68.9,160.1 69,160.2 72.3,160.2 88.5,144.4 88.5,141.1 89.4,140.1 92.6,140.1 95.3,137.8 95.3,134.4 
		92.9,132 	"/>
	<polygon points="155.1,152.1 152.7,154.5 152.7,157.8 151.7,158.9 134.7,158.9 133.7,157.8 133.7,154.6 117.5,138.8 114.2,138.8 
		113.1,137.8 113.1,134.4 110.7,132 107.4,132 105,134.4 105,137.8 107.6,140.1 110.8,140.1 111.8,141.1 111.8,144.4 127.9,160.2 
		131.2,160.2 131.4,160.1 132.4,161.2 132.4,164.5 134.8,166.8 151.8,166.8 154.1,164.5 154.1,161.2 155.1,160.1 158.5,160.1 
		160.8,157.8 160.8,154.5 158.5,152.1 	"/>
</g>
</svg>
