<?xml version="1.0" encoding="UTF-8"?>
<svg id="Layer_1" data-name="Layer 1" xmlns="http://www.w3.org/2000/svg" version="1.1" viewBox="0 0 500 500">
  <defs>
    <style>
      .cls-1 {
        fill: #00527a;
      }

      .cls-1, .cls-2, .cls-3, .cls-4, .cls-5, .cls-6, .cls-7 {
        stroke-width: 0px;
      }

      .cls-2 {
        fill: #007dbd;
      }

      .cls-3 {
        fill: #008bd1;
      }

      .cls-4 {
        fill: #0081c2;
      }

      .cls-5 {
        fill: #006394;
      }

      .cls-6 {
        fill: #fff;
      }

      .cls-7 {
        fill: #003957;
      }
    </style>
  </defs>
  <path class="cls-6" d="M335.1,139.6h-170.4c-31.3,0-51.2,33.8-35.4,61.1l105.2,182.3c6.9,11.9,24.1,11.9,30.9,0l105.2-182.3c15.7-27.3-4.1-61.1-35.4-61.1h0ZM234.3,328.4l-22.9-44.3-55.3-98.9c-3.6-6.3.9-14.4,8.5-14.4h69.7v157.7h0ZM343.6,185.2l-55.3,98.9-22.9,44.3v-157.7h69.7c7.6,0,12.1,8.1,8.5,14.4Z"/>
  <g>
    <path class="cls-4" d="M361.3,303.2v-106.7c0-3.9-2.3-7.9-5.7-9.8l-99.4-57.4c-3.4-1.9-8-1.9-11.4,0l-100,57.4c-3.4,2-6.3,5.9-6.3,9.8v106.7c0,3.9,2.9,7.9,6.3,9.8l99.7,57.4c1.7,1,3.8,1.5,5.8,1.5s4.1-.5,5.8-1.5l99.5-57.4c3.4-2,5.8-5.9,5.8-9.8Z"/>
    <path class="cls-5" d="M99.6,304.1v-107c0-4-1.9-8-5.5-9.9l-66.7-36.2c-1.4-.8-3-1.2-4.6-1.2-5.2,0-9.3,4.2-9.3,9.5v182.7c0,5.3,4.2,9.5,9.4,9.5s3.3-.4,4.7-1.2l66.5-36.2c3.5-1.9,5.5-5.9,5.5-9.9Z"/>
    <path class="cls-3" d="M275.8,95.4l99.8,57.6c1.7,1,3.7,1.5,5.7,1.5s3.8-.5,5.4-1.3l66.5-36c3.1-1.7,5-4.7,5-8.1,0-3.4-1.8-6.5-4.8-8.3L284.2,3c-1.5-.9-3.1-1.3-4.8-1.3-5.2,0-9.2,4.2-9.2,9.5v74.4c0,3.9,2.2,7.9,5.6,9.8Z"/>
    <path class="cls-1" d="M47.6,117.1l66.6,36c1.6.9,3.5,1.3,5.4,1.3s4.1-.5,5.7-1.5l99.2-57.6c3.4-2,5.1-5.9,5.1-9.8V11.1c0-5.3-3.4-9.5-8.6-9.5s-3.1.5-4.6,1.3L47.2,100.7c-3.1,1.8-4.8,4.9-4.7,8.3,0,3.4,2,6.4,5.1,8.1Z"/>
    <path class="cls-2" d="M477.4,149.7c-1.6,0-3,.4-4.4,1.2l-67,36.2c-3.5,1.9-5.9,5.9-5.9,9.9v107c0,4,2.5,8,6,9.9l67,36.1c1.4.8,3.2,1.1,4.7,1.1,2.8,0,4.9-1.1,6.6-3.2,1.4-1.7,1.7-3.8,1.7-6v-182.7c0-5.3-3.6-9.5-8.8-9.5Z"/>
    <path class="cls-7" d="M224.5,404.4l-98.3-56.9c-3.3-1.9-7.7-2-11-.2l-66.5,36c-3.1,1.7-5,4.7-5,8.1,0,3.4,1.8,6.5,4.8,8.3l168.1,97.1c1.5.9,3.2,1.3,4.9,1.3,2.8,0,4.8-1.2,6.6-3.4,1.4-1.7,1.5-3.8,1.5-6v-74.4c0-3.9-1.7-7.9-5.1-9.8Z"/>
    <path class="cls-1" d="M452.1,383.3l-66.6-36c-3.3-1.8-7.9-1.7-11.2.2l-98.6,56.9c-3.4,2-5.6,5.9-5.6,9.8v74.4c0,5.3,4,9.5,9.2,9.5s3.3-.5,4.8-1.3l168.1-97.1c3.1-1.8,4.9-4.9,4.8-8.3,0-3.4-1.9-6.4-5.1-8.1Z"/>
  </g>
</svg>