<?xml version="1.0" encoding="UTF-8"?>
<svg id="Layer_1" data-name="Layer 1" xmlns="http://www.w3.org/2000/svg" version="1.1" viewBox="0 0 500 500">
  <defs>
    <style>
      .cls-1 {
        fill: #000;
      }

      .cls-1, .cls-2 {
        stroke-width: 0px;
      }

      .cls-2 {
        fill: #fff;
      }
    </style>
  </defs>
  <circle class="cls-1" cx="250" cy="250" r="249.9"/>
  <g>
    <path class="cls-2" d="M168.5,150.6h5.4v-13.9h-5.4c-5.7,0-11.4,1.1-16.8,3.3-5.3,2.2-10.1,5.4-14.2,9.5-4.1,4.1-7.3,8.9-9.5,14.2-2.2,5.3-3.3,11-3.3,16.8v31.8c0,6.7-2.5,13.2-7.2,18.1-4.6,4.9-10.9,7.8-17.6,8.2l.4,7-.4,7c6.7.4,13,3.3,17.6,8.2,4.6,4.9,7.2,11.4,7.2,18.1v36.6c0,12.1,4.8,23.8,13.3,32.4,8.6,8.6,20.2,13.5,32.3,13.5v-13.9c-8.4,0-16.5-3.4-22.4-9.3-6-6-9.3-14-9.3-22.4v-36.8c0-6.6-1.6-13-4.7-18.8-3.1-5.8-7.5-10.8-13-14.5,5.4-3.7,9.9-8.7,12.9-14.5,3.1-5.8,4.7-12.3,4.7-18.8v-31.8c0-7.9,3.2-15.5,8.8-21,5.6-5.6,13.1-8.7,21-8.8h0Z"/>
    <path class="cls-2" d="M329.6,150.6h-5.4v-13.9h5.4c11.6,0,22.7,4.7,30.8,12.9,8.2,8.2,12.7,19.3,12.7,30.9v31.8c0,6.7,2.6,13.2,7.2,18.1,4.6,4.9,10.9,7.8,17.6,8.2l-.4,7,.4,7c-6.7.4-13,3.3-17.6,8.2-4.6,4.9-7.2,11.4-7.2,18.1v36.6c0,12.1-4.8,23.8-13.4,32.4-8.6,8.6-20.2,13.5-32.3,13.5v-13.9c8.4,0,16.5-3.4,22.4-9.3,6-6,9.3-14,9.3-22.4v-36.8c0-6.6,1.6-13,4.7-18.8,3.1-5.8,7.5-10.8,13-14.5-5.4-3.7-9.9-8.7-12.9-14.5-3.1-5.8-4.7-12.3-4.7-18.8v-31.8c0-3.9-.7-7.8-2.2-11.4-1.5-3.6-3.7-6.9-6.4-9.7-2.8-2.8-6-5-9.6-6.5-3.6-1.5-7.5-2.3-11.4-2.3h0Z"/>
    <path class="cls-2" d="M299.8,192.8h20.7l-43.2,40.5c-7.7,7-17.8,10.9-28.3,10.9s-20.5-3.9-28.3-10.9l-43.2-40.5h20.7l32.7,30.6c4.9,4.5,11.3,7,17.9,7s13-2.5,17.9-7l32.9-30.6Z"/>
    <path class="cls-2" d="M198.2,305.2h-20.7l43.4-40.7c7.7-7.1,17.8-11,28.3-11s20.6,3.9,28.3,11l43.4,40.7h-20.7l-32.9-31c-4.9-4.5-11.3-7-17.9-7s-13,2.5-17.9,7l-33.1,31Z"/>
  </g>
</svg>