<?xml version="1.0" encoding="utf-8"?>
<!-- Generator: Adobe Illustrator 26.4.1, SVG Export Plug-In . SVG Version: 6.00 Build 0)  -->
<svg version="1.1" id="Layer_1" xmlns="http://www.w3.org/2000/svg" xmlns:xlink="http://www.w3.org/1999/xlink" x="0px" y="0px"
	 viewBox="0 0 200 200" style="enable-background:new 0 0 200 200;" xml:space="preserve">
<style type="text/css">
	.st0{fill-rule:evenodd;clip-rule:evenodd;}
	.st1{fill:#FFFFFF;}
</style>
<circle class="st0" cx="100" cy="100" r="96.1"/>
<g>
	<path class="st1" d="M100.2,133.8c-11.5,11.8-22.6,23.1-33.5,34.3c-5.5-5.7-10.6-11-15.9-16.4c3.2-3.2,6.9-6.9,10.6-10.5
		c10.2-10.1,20.4-20.3,30.5-30.4c4.6-4.5,11.2-4.7,15.7-0.2c13.7,13.5,27.3,27.1,40.9,40.6c0.3,0.3,0.5,0.6,0.6,0.8
		c-5.2,5.3-10.4,10.4-15.8,16C122.6,156.7,111.5,145.4,100.2,133.8z"/>
	<path class="st1" d="M50.3,48.6c5.6-5.7,10.8-11,16.2-16.5c10.9,11.1,21.9,22.4,33.2,33.9c11.3-11.6,22.4-22.8,33.4-34.1
		c5.5,5.7,10.6,11,16,16.5c-1.8,1.8-3.9,3.9-6.1,6.1c-11.3,11.3-22.7,22.6-34.1,34c-5.6,5.6-12,5.6-17.7,0
		C78.3,75.7,65.4,62.9,52.6,50.1C51.9,49.4,50.8,48.9,50.3,48.6z"/>
	<path class="st1" d="M152,50.1c5.6,5.8,10.8,11,15.7,16c-11,11.1-22,22.3-32.9,33.4c11.2,11.3,22.4,22.6,33.4,33.7
		c-5.4,5.4-10.6,10.6-16.2,16.2c-3.4-3.5-6.8-7.3-10.4-10.9c-10-10-20-19.9-30-29.8c-5.4-5.4-5.4-11.9,0-17.3
		c13.1-13,26.2-26,39.1-39C151.2,51.8,151.4,51,152,50.1z"/>
	<path class="st1" d="M47.4,149.3c-5.3-5.4-10.4-10.6-15.4-15.7c11-11,22-22.1,33.1-33.3C53.9,89,42.8,77.9,31.8,66.8
		c5.4-5.4,10.5-10.7,16-16.2c5.4,5.4,10.5,10.8,15.9,16.1c8.2,8.2,16.4,16.3,24.7,24.5c5.6,5.5,5.6,11.9,0.1,17.6
		c-13.3,13.3-26.6,26.4-39.8,39.7C48.3,148.6,48,148.9,47.4,149.3z"/>
</g>
</svg>
