<?xml version="1.0" encoding="UTF-8"?>
<svg id="Layer_1" data-name="Layer 1" xmlns="http://www.w3.org/2000/svg" version="1.1" viewBox="0 0 500 500">
  <defs>
    <style>
      .cls-1 {
        fill: #29a8fd;
      }

      .cls-1, .cls-2, .cls-3 {
        stroke-width: 0px;
      }

      .cls-2 {
        fill: #28a8fd;
      }

      .cls-3 {
        fill: #fff;
      }
    </style>
  </defs>
  <path class="cls-3" d="M249.9,499.5c137.8,0,249.6-111.7,249.6-249.6S387.7.3,249.9.3.3,112,.3,249.9s111.7,249.6,249.6,249.6h0Z"/>
  <g>
    <path class="cls-1" d="M289.2,310.2c-14,23.6-25.8,47.1-41,68.1-16.9,23.3-52,22.3-67.5-2.2-23-36.2-44.4-73.5-64.3-111.5-14.1-26.9,5.2-59.4,35.5-60.5,42.2-1.5,84.6-1.1,126.9,0,19.1.4,32.2,11.7,37.9,30.3,6.7,21.7,1.1,27.9-22.4,25.6,2.9-27.5-1.6-32.6-29.9-32.6-34-.1-67.9-.3-101.9,0-26.2.2-33.7,13.1-20.8,36.1,17.3,30.8,35,61.4,53,91.7,13.3,22.3,28.4,21.9,42.1-.6,6.1-10.1,12.5-20.1,17.4-30.7,6.5-14.2,16.1-19.8,35.1-13.6Z"/>
    <path class="cls-2" d="M211.2,189.1c13.3-22.8,24.6-45,38.5-65.4,17.1-25.2,54.1-25.2,70.4.6,22.5,35.7,43.7,72.3,63.2,109.8,15.1,29-5.3,60.8-38.4,61.4-40.2.8-80.4.6-120.6,0-25.7-.4-43.6-19.9-42.6-43.8.4-9.3,3.6-13.5,13.7-13.6,10,0,10.5,3.5,9.6,12.4-1.5,14.3,7.3,22.2,21.2,22.4,38.8.4,77.7.8,116.5-.1,20.2-.5,27.7-15.1,17.7-33.2-18.2-32.7-36.9-65.1-56.2-97.1-12-19.9-27.2-19.1-39.8,1.1-6.2,10-12.9,19.9-17.6,30.6-6.6,15.1-16.2,21.7-35.6,15Z"/>
  </g>
</svg>