<?xml version="1.0" encoding="UTF-8"?>
<svg xmlns="http://www.w3.org/2000/svg" xmlns:xlink="http://www.w3.org/1999/xlink" width="200px" height="px" viewBox="0 0 200 200" version="1.1">
<defs>
<filter id="alpha" filterUnits="objectBoundingBox" x="0%" y="0%" width="100%" height="100%">
  <feColorMatrix type="matrix" in="SourceGraphic" values="0 0 0 0 1 0 0 0 0 1 0 0 0 0 1 0 0 0 1 0"/>
</filter>
<mask id="mask0">
  <g filter="url(#alpha)">
<rect x="0" y="0" width="200" height="200" style="fill:rgb(0%,0%,0%);fill-opacity:0.992157;stroke:none;"/>
  </g>
</mask>
<clipPath id="clip1">
  <rect x="0" y="0" width="200" height="200"/>
</clipPath>
<g id="surface5" clip-path="url(#clip1)">
<path style=" stroke:none;fill-rule:evenodd;fill:rgb(41.960784%,96.862745%,83.921569%);fill-opacity:1;" d="M 82.144531 -0.714844 C 93.570312 -0.714844 105 -0.714844 116.429688 -0.714844 C 160.726562 10.25 188.347656 37.871094 199.285156 82.144531 C 199.285156 93.570312 199.285156 105 199.285156 116.429688 C 188.320312 160.726562 160.703125 188.347656 116.429688 199.285156 C 105 199.285156 93.570312 199.285156 82.144531 199.285156 C 37.84375 188.320312 10.226562 160.703125 -0.714844 116.429688 C -0.714844 105 -0.714844 93.570312 -0.714844 82.144531 C 10.25 37.84375 37.871094 10.226562 82.144531 -0.714844 Z M 82.144531 -0.714844 "/>
</g>
</defs>
<g id="surface1">
<use xlink:href="#surface5" mask="url(#mask0)"/>
<path style=" stroke:none;fill-rule:evenodd;fill:rgb(17.647059%,18.039216%,20%);fill-opacity:1;" d="M 52.144531 43.570312 C 65.589844 54.867188 78.445312 67.011719 90.714844 80 C 87.117188 83.355469 83.785156 86.925781 80.714844 90.714844 C 68.355469 79.066406 56.210938 67.164062 44.285156 55 C 43.332031 54.046875 43.332031 53.09375 44.285156 52.144531 C 47.199219 49.472656 49.820312 46.613281 52.144531 43.570312 Z M 52.144531 43.570312 "/>
<path style=" stroke:none;fill-rule:evenodd;fill:rgb(17.647059%,18.039216%,20%);fill-opacity:1;" d="M 143.570312 43.570312 C 149.003906 45.902344 152.578125 49.710938 154.285156 55 C 142.359375 67.164062 130.21875 79.066406 117.855469 90.714844 C 114.785156 86.925781 111.453125 83.355469 107.855469 80 C 120.050781 68.046875 131.957031 55.902344 143.570312 43.570312 Z M 143.570312 43.570312 "/>
<path style=" stroke:none;fill-rule:evenodd;fill:rgb(17.647059%,18.039216%,20%);fill-opacity:1;" d="M 79.285156 107.855469 C 83.820312 111.1875 87.390625 114.996094 90 119.285156 C 78.332031 130.953125 66.667969 142.617188 55 154.285156 C 50.804688 153.011719 47.234375 150.390625 44.285156 146.429688 C 43.332031 145.476562 43.332031 144.523438 44.285156 143.570312 C 56.242188 131.855469 67.90625 119.949219 79.285156 107.855469 Z M 79.285156 107.855469 "/>
<path style=" stroke:none;fill-rule:evenodd;fill:rgb(17.647059%,18.039216%,20%);fill-opacity:1;" d="M 116.429688 107.855469 C 129.636719 118.914062 142.253906 130.820312 154.285156 143.570312 C 153.011719 147.765625 150.390625 151.335938 146.429688 154.285156 C 145.476562 155.238281 144.523438 155.238281 143.570312 154.285156 C 131.90625 142.617188 120.238281 130.953125 108.570312 119.285156 C 111.253906 115.824219 113.871094 112.015625 116.429688 107.855469 Z M 116.429688 107.855469 "/>
</g>
</svg>
