<?xml version="1.0" encoding="utf-8"?>
<!-- Generator: Adobe Illustrator 26.4.1, SVG Export Plug-In . SVG Version: 6.00 Build 0)  -->
<svg version="1.1" id="Layer_1" xmlns="http://www.w3.org/2000/svg" xmlns:xlink="http://www.w3.org/1999/xlink" x="0px" y="0px"
	 viewBox="0 0 200 200" style="enable-background:new 0 0 200 200;" xml:space="preserve">
<style type="text/css">
	.st0{fill-rule:evenodd;clip-rule:evenodd;fill:#FBD52E;}
	.st1{fill:#6BF5D5;}
	.st2{fill:#0F0F0F;}
</style>
<path class="st0" d="M99,100.7"/>
<g>
	<g id="surface1_00000074437268022976588240000015529609924507856316_">
		<g>
			<path class="st1" d="M199.5,100c0,54.9-44.6,99.6-99.6,99.6S0.5,154.9,0.5,100S45.1,0.4,100,0.4S199.5,45.1,199.5,100z"/>
		</g>
	</g>
</g>
<g>
	<path class="st2" d="M122.8,90.2c-2.6-5.9-7.2-10.3-13.2-13c15.8-15.7,31.3-31.3,46.7-46.6c4.2,4.3,8.8,8.9,13,13.2
		C154.3,58.8,138.6,74.5,122.8,90.2z"/>
	<path class="st2" d="M43.8,30.3C59.1,45.6,74.7,61.2,90.5,77c-6,2.9-10.7,7.3-13.3,13.4C61.4,74.7,45.8,59.1,30.4,43.6
		C34.7,39.3,39.2,34.8,43.8,30.3z"/>
	<path class="st2" d="M77.2,109.9c2.7,5.7,7.1,10.4,13.1,12.9c-15.7,15.7-31.3,31.4-46.8,46.8c-4.2-4.2-8.7-8.7-13-13
		C45.9,141.2,61.5,125.6,77.2,109.9z"/>
	<path class="st2" d="M169.6,156.7c-4.2,4.2-8.7,8.7-12.9,13c-15.5-15.5-31.1-31.2-46.8-46.8c5.8-2.5,10.3-7.1,13-12.9
		C138.5,125.6,154.2,141.2,169.6,156.7z"/>
</g>
</svg>
