<?xml version="1.0" encoding="UTF-8"?>
<svg id="Layer_1" data-name="Layer 1" xmlns="http://www.w3.org/2000/svg" version="1.1" viewBox="0 0 200 200">
  <defs>
    <style>
      .cls-1 {
        fill: #010101;
      }

      .cls-1, .cls-2 {
        stroke-width: 0px;
      }

      .cls-2 {
        fill: #00eb96;
      }
    </style>
  </defs>
  <circle class="cls-2" cx="100.5" cy="99.9" r="99.9"/>
  <path class="cls-1" d="M143.4,137.1V62.6c-8.1,7.1-15.7,13.7-23.3,20.2-2.1,1.8-4.5,5.3-7.4,2.2-2.2-2.3.5-4.9,2-7,8-11.7,16.1-23.4,24.1-35.2,3.5-5.2,8.4-8.2,14.4-6.3,6.3,2,10.8,6.5,10.8,13.9,0,33,0,65.9,0,98.9,0,7-3.9,11.4-9.7,13.8-6,2.5-11.9,1.4-16.3-3.8-16.3-19.2-32.6-38.5-48.9-57.8-10.4-12.3-20.8-24.7-32.3-38.4v74.4c8.3-7.3,15.9-14,23.5-20.7,1.9-1.7,4.2-4.5,6.7-2.1,2.6,2.4-.1,4.8-1.6,6.9-8,11.7-16.2,23.4-24.1,35.2-3.8,5.6-8.9,8.8-15.1,6.6-6.1-2.2-10.3-6.8-10.2-14.3.1-32.6.2-65.3,0-97.9,0-7.1,3.6-11.7,9.2-14.1,6.1-2.6,12.4-1.8,17.2,3.9,16.3,19.3,32.5,38.6,48.8,57.8,10.4,12.3,20.7,24.6,32.3,38.3Z"/>
</svg>