<?xml version="1.0" encoding="utf-8"?>
<!-- Generator: Adobe Illustrator 26.4.1, SVG Export Plug-In . SVG Version: 6.00 Build 0)  -->
<svg version="1.1" id="Layer_1" xmlns="http://www.w3.org/2000/svg" xmlns:xlink="http://www.w3.org/1999/xlink" x="0px" y="0px"
	 viewBox="0 0 200 200" style="enable-background:new 0 0 200 200;" xml:space="preserve">
<style type="text/css">
	.st0{fill:url(#SVGID_1_);}
	.st1{fill:url(#SVGID_00000031902616042715635860000002277189003244320955_);}
	.st2{fill-rule:evenodd;clip-rule:evenodd;fill:url(#SVGID_00000039126015173212838140000018380096796173689766_);}
	.st3{fill:none;stroke:#FFFFFF;stroke-width:3.125;stroke-miterlimit:25;}
	.st4{fill-rule:evenodd;clip-rule:evenodd;fill:#FBD52E;}
</style>
<g id="surface1">
	
		<linearGradient id="SVGID_1_" gradientUnits="userSpaceOnUse" x1="-314.96" y1="97.226" x2="-314.96" y2="65.334" gradientTransform="matrix(6.25 0 0 -6.25 2068.5 608)">
		<stop  offset="0" style="stop-color:#3E3E3E"/>
		<stop  offset="1" style="stop-color:#000000"/>
	</linearGradient>
	<path class="st0" d="M100,199.7c55,0,99.7-44.6,99.7-99.7S155,0.3,100,0.3S0.3,45,0.3,100S45,199.7,100,199.7z"/>
	
		<linearGradient id="SVGID_00000152240370556659219920000006742788949272336287_" gradientUnits="userSpaceOnUse" x1="-319.3466" y1="88.9154" x2="-309.9521" y2="70.9561" gradientTransform="matrix(6.25 0 0 -6.25 2068.5 608)">
		<stop  offset="0" style="stop-color:#CD7176"/>
		<stop  offset="0.2292" style="stop-color:#D9AE29"/>
		<stop  offset="0.4948" style="stop-color:#AFE38F"/>
		<stop  offset="0.724" style="stop-color:#65C7D1"/>
		<stop  offset="1" style="stop-color:#187DD0"/>
	</linearGradient>
	<path style="fill:url(#SVGID_00000152240370556659219920000006742788949272336287_);" d="M112.3,40.8c1.9-2.9,6.5-1.7,6.7,1.8
		l1.9,37.7c0.1,1.6,1.2,2.9,2.6,3.3l36.4,9.7c3.3,0.8,3.6,5.6,0.3,6.9L125,113.9c-1.5,0.5-2.3,2-2.2,3.5l1.9,37.7
		c0.2,3.4-4.1,5.2-6.5,2.4l-23.7-29.3c-1-1.2-2.6-1.6-4-1.1l-35.3,13.6c-3.2,1.3-6.2-2.3-4.2-5.4l20.5-31.8c0.8-1.3,0.7-3-0.2-4.1
		L47.5,70.1c-2.1-2.6,0.3-6.7,3.7-5.8L87.7,74c1.5,0.4,3.1-0.2,3.9-1.5L112.3,40.8z"/>
	
		<linearGradient id="SVGID_00000046313135675455017900000002649762576619833482_" gradientUnits="userSpaceOnUse" x1="-322.0692" y1="93.0369" x2="-307.5456" y2="69.0266" gradientTransform="matrix(6.25 0 0 -6.25 2068.5 608)">
		<stop  offset="0" style="stop-color:#A63C00"/>
		<stop  offset="0.1679" style="stop-color:#775AA8"/>
		<stop  offset="0.3369" style="stop-color:#DFC136"/>
		<stop  offset="0.5885" style="stop-color:#AADFBD"/>
		<stop  offset="0.8594" style="stop-color:#3596DD"/>
		<stop  offset="0.974" style="stop-color:#003390"/>
	</linearGradient>
	<path style="fill-rule:evenodd;clip-rule:evenodd;fill:url(#SVGID_00000046313135675455017900000002649762576619833482_);" d="
		M80.5,173.1c40.3,10.8,81.8-13.1,92.6-53.4C183.9,79.4,160,37.9,119.6,27S37.8,40.2,26.9,80.5S40.2,162.2,80.5,173.1z M79.1,178.2
		c43.2,11.5,87.6-14.1,99.2-57.3c11.5-43.2-14.1-87.6-57.3-99.2C77.7,10.4,33.2,36,21.8,79.2S35.9,166.6,79.1,178.2z"/>
	<path class="st3" d="M198.1,100c0,54.1-44,98.1-98.1,98.1S1.9,154.1,1.9,100S45.9,1.9,100,1.9S198.1,45.9,198.1,100z"/>
</g>
<path class="st4" d="M263.4-7.6"/>
</svg>
