<?xml version="1.0" encoding="utf-8"?>
<!-- Generator: Adobe Illustrator 26.4.1, SVG Export Plug-In . SVG Version: 6.00 Build 0)  -->
<svg version="1.1" id="Layer_1" xmlns="http://www.w3.org/2000/svg" xmlns:xlink="http://www.w3.org/1999/xlink" x="0px" y="0px"
	 viewBox="0 0 200 200" style="enable-background:new 0 0 200 200;" xml:space="preserve">
<style type="text/css">
	.st0{fill:url(#SVGID_1_);}
	.st1{fill:url(#SVGID_00000026142069758646188290000015711889043849603732_);}
	.st2{fill-rule:evenodd;clip-rule:evenodd;fill:url(#SVGID_00000098913548561411192870000012245081487737400508_);}
	.st3{fill:none;stroke:#FFFFFF;stroke-width:3.125;stroke-miterlimit:25;}
	.st4{fill-rule:evenodd;clip-rule:evenodd;fill:#FBD52E;}
</style>
<g id="surface1">
	
		<linearGradient id="SVGID_1_" gradientUnits="userSpaceOnUse" x1="16" y1="198.8698" x2="16" y2="169.1302" gradientTransform="matrix(6.25 0 0 -6.25 0 1250)">
		<stop  offset="0" style="stop-color:#3E3E3E"/>
		<stop  offset="1" style="stop-color:#000000"/>
	</linearGradient>
	<path class="st0" d="M100,192.9c51.3,0,92.9-41.6,92.9-92.9c0-51.3-41.6-92.9-92.9-92.9C48.7,7.1,7.1,48.7,7.1,100
		C7.1,151.3,48.7,192.9,100,192.9z"/>
	
		<linearGradient id="SVGID_00000106122376708433022400000001384126402009603730_" gradientUnits="userSpaceOnUse" x1="11.9184" y1="191.1252" x2="20.6793" y2="174.3772" gradientTransform="matrix(6.25 0 0 -6.25 0 1250)">
		<stop  offset="0" style="stop-color:#CD7176"/>
		<stop  offset="0.2292" style="stop-color:#D9AE29"/>
		<stop  offset="0.4948" style="stop-color:#AFE38F"/>
		<stop  offset="0.724" style="stop-color:#65C7D1"/>
		<stop  offset="1" style="stop-color:#187DD0"/>
	</linearGradient>
	<path style="fill:url(#SVGID_00000106122376708433022400000001384126402009603730_);" d="M111.5,44.8c1.8-2.7,6-1.6,6.2,1.7
		l1.8,35.2c0.1,1.5,1.1,2.7,2.5,3.1l34,9.1c3.1,0.8,3.4,5.2,0.3,6.4l-32.9,12.6c-1.4,0.5-2.2,1.9-2.1,3.3l1.8,35.2
		c0.2,3.2-3.9,4.8-6,2.3L95,126.3c-0.9-1.1-2.5-1.5-3.8-1l-32.9,12.6c-3,1.2-5.8-2.2-4-5l19.2-29.6c0.8-1.2,0.7-2.8-0.2-3.9L51.1,72
		c-2-2.5,0.3-6.2,3.5-5.4l34,9.1c1.4,0.4,2.9-0.2,3.7-1.4L111.5,44.8z"/>
	
		<linearGradient id="SVGID_00000013158894589337262630000016341780759233365682_" gradientUnits="userSpaceOnUse" x1="9.3681" y1="194.9626" x2="22.912" y2="172.5717" gradientTransform="matrix(6.25 0 0 -6.25 0 1250)">
		<stop  offset="0" style="stop-color:#A63C00"/>
		<stop  offset="0.1679" style="stop-color:#775AA8"/>
		<stop  offset="0.3369" style="stop-color:#DFC136"/>
		<stop  offset="0.5885" style="stop-color:#AADFBD"/>
		<stop  offset="0.8594" style="stop-color:#3596DD"/>
		<stop  offset="0.974" style="stop-color:#003390"/>
	</linearGradient>
	<path style="fill-rule:evenodd;clip-rule:evenodd;fill:url(#SVGID_00000013158894589337262630000016341780759233365682_);" d="
		M81.8,168.1c37.6,10.1,76.2-12.2,86.3-49.8c10.1-37.6-12.2-76.2-49.8-86.3S42,44.2,31.9,81.8C21.8,119.4,44.2,158,81.8,168.1z
		 M80.5,172.9c40.3,10.8,81.7-13.1,92.5-53.4c10.8-40.3-13.1-81.7-53.4-92.5C79.3,16.3,37.8,40.2,27.1,80.5S40.2,162.1,80.5,172.9z"
		/>
	<path class="st3" d="M191.5,100c0,50.5-41,91.5-91.5,91.5S8.5,150.5,8.5,100S49.5,8.5,100,8.5S191.5,49.5,191.5,100z"/>
</g>
<path class="st4" d="M263.4-7.6"/>
</svg>
