<?xml version="1.0" encoding="utf-8"?>
<!-- Generator: Adobe Illustrator 26.4.1, SVG Export Plug-In . SVG Version: 6.00 Build 0)  -->
<svg version="1.1" id="Layer_1" xmlns="http://www.w3.org/2000/svg" xmlns:xlink="http://www.w3.org/1999/xlink" x="0px" y="0px"
	 viewBox="0 0 200 200" style="enable-background:new 0 0 200 200;" xml:space="preserve">
<style type="text/css">
	.st0{fill-rule:evenodd;clip-rule:evenodd;fill:#FBD52E;}
	.st1{fill:#FFFFFF;}
</style>
<path class="st0" d="M263.4-7.6"/>
<g>
	<g id="Capa_2">
		<g id="Capa_1-2">
			<path d="M200,100C200,44.8,155.2,0,100,0S0,44.8,0,100s44.8,100,100,100S200,155.2,200,100"/>
		</g>
	</g>
	<path class="st1" d="M83.2,80.7c-9.6-11.3-19.2-22.6-29-34.2c33.3,0,66.1,0,99.1,0c0,32.9,0,65.7,0,99.2
		c-11.6-10.1-22.8-19.7-34-29.4c9.8-13,6.2-27-1.5-34.5C110.6,74.8,96.9,70.5,83.2,80.7z"/>
	<path class="st1" d="M113.6,121.3c8.9,10.5,17.8,20.9,27.1,31.8c-1.4,0.1-2.4,0.1-3.3,0.1c-29.3,0-58.7,0-88.1,0
		c-2,0-2.7-0.4-2.7-2.6c0.1-29.7,0-59.4,0.1-89.1c0-0.7,0.1-1.4,0.2-2.7c3.6,3.1,7.1,6.1,10.4,9c6.6,5.7,13.1,11.3,19.7,17
		c1.2,1.1,1.5,1.8,0.7,3.3c-5,10.2-3.2,21.6,4.4,29.4c7.8,7.8,19.3,9.5,29.7,4.5C112.4,121.9,112.8,121.7,113.6,121.3z"/>
</g>
</svg>
