<?xml version="1.0" encoding="utf-8"?>
<!-- Generator: Adobe Illustrator 26.4.1, SVG Export Plug-In . SVG Version: 6.00 Build 0)  -->
<svg version="1.1" id="Layer_1" xmlns="http://www.w3.org/2000/svg" xmlns:xlink="http://www.w3.org/1999/xlink" x="0px" y="0px"
	 viewBox="0 0 200 200" style="enable-background:new 0 0 200 200;" xml:space="preserve">
<style type="text/css">
	.st0{fill-rule:evenodd;clip-rule:evenodd;fill:#FBD52E;}
	.st1{stroke:#FFFFFF;stroke-width:5;stroke-miterlimit:10;}
	.st2{fill:#FFFFFF;}
</style>
<path class="st0" d="M263.4-7.6"/>
<g>
	<g id="Capa_2">
		<g id="Capa_1-2">
			<path class="st1" d="M196.4,100c0-53.2-43.2-96.4-96.4-96.4S3.6,46.8,3.6,100s43.2,96.4,96.4,96.4S196.4,153.2,196.4,100"/>
		</g>
	</g>
	<path class="st2" d="M83.4,80.9c-9.5-11.2-19-22.4-28.7-33.9c33,0,65.5,0,98.1,0c0,32.6,0,65.1,0,98.2
		c-11.5-10-22.6-19.5-33.7-29.1c9.7-12.9,6.1-26.7-1.5-34.2C110.5,75,96.9,70.8,83.4,80.9z"/>
	<path class="st2" d="M113.5,121.1c8.8,10.4,17.6,20.7,26.8,31.5c-1.4,0.1-2.4,0.1-3.3,0.1c-29,0-58.1,0-87.2,0
		c-2,0-2.7-0.4-2.7-2.6c0.1-29.4,0-58.8,0.1-88.2c0-0.7,0.1-1.4,0.2-2.7c3.6,3.1,7,6,10.3,8.9c6.5,5.6,13,11.2,19.5,16.8
		c1.2,1.1,1.5,1.8,0.7,3.3c-5,10.1-3.2,21.4,4.4,29.1c7.7,7.7,19.1,9.4,29.4,4.5C112.3,121.7,112.7,121.5,113.5,121.1z"/>
</g>
</svg>
