<?xml version="1.0" encoding="utf-8"?>
<!-- Generator: Adobe Illustrator 26.4.1, SVG Export Plug-In . SVG Version: 6.00 Build 0)  -->
<svg version="1.1" id="Layer_1" xmlns="http://www.w3.org/2000/svg" xmlns:xlink="http://www.w3.org/1999/xlink" x="0px" y="0px"
	 viewBox="0 0 200 200" style="enable-background:new 0 0 200 200;" xml:space="preserve">
<style type="text/css">
	.st0{fill-rule:evenodd;clip-rule:evenodd;fill:#FBD52E;}
	.st1{fill:none;}
	.st2{fill:#FFFFFF;}
</style>
<g id="Capa_2">
	<g id="Capa_1-2">
		<path d="M190,100c0-49.7-40.3-90-90-90s-90,40.3-90,90s40.3,90,90,90S190,149.7,190,100"/>
	</g>
</g>
<path class="st0" d="M263.4-7.6"/>
<rect y="-5.1" class="st1" width="200" height="200"/>
<path class="st2" d="M84.5,82.2c-8.9-10.5-17.7-20.9-26.8-31.6c30.8,0,61.1,0,91.6,0c0,30.4,0,60.8,0,91.7
	c-10.7-9.3-21.1-18.2-31.5-27.2c9.1-12,5.7-24.9-1.4-31.9C109.8,76.7,97.1,72.7,84.5,82.2z"/>
<path class="st2" d="M112.6,119.7c8.2,9.7,16.4,19.3,25,29.4c-1.3,0.1-2.2,0.1-3.1,0.1c-27.1,0-54.2,0-81.4,0
	c-1.9,0-2.5-0.4-2.5-2.4c0.1-27.4,0-54.9,0.1-82.3c0-0.7,0.1-1.3,0.2-2.5c3.4,2.9,6.5,5.6,9.6,8.3c6.1,5.2,12.1,10.5,18.2,15.7
	c1.1,1,1.4,1.7,0.7,3.1c-4.7,9.4-3,20,4.1,27.2c7.2,7.2,17.8,8.8,27.4,4.2C111.5,120.3,111.9,120.1,112.6,119.7z"/>
</svg>
