<?xml version="1.0" encoding="UTF-8"?>
<svg xmlns="http://www.w3.org/2000/svg" xmlns:xlink="http://www.w3.org/1999/xlink" width="200px" height="px" viewBox="0 0 200 200" version="1.1">
<g id="surface1">
<path style=" stroke:none;fill-rule:nonzero;fill:rgb(100%,1.568627%,12.54902%);fill-opacity:1;" d="M 200 100 C 200 155.226562 155.226562 200 100 200 C 44.773438 200 0 155.226562 0 100 C 0 44.773438 44.773438 0 100 0 C 155.226562 0 200 44.773438 200 100 Z M 200 100 "/>
<path style=" stroke:none;fill-rule:nonzero;fill:rgb(100%,100%,100%);fill-opacity:1;" d="M 73.210938 126.5625 C 69.667969 126.488281 66.539062 125.65625 63.828125 124.070312 C 61.140625 122.457031 59.003906 120.148438 57.414062 117.140625 C 55.851562 114.113281 54.949219 110.644531 54.703125 106.734375 C 54.433594 102.726562 54.863281 98.453125 55.984375 93.90625 C 57.109375 89.363281 58.917969 85.367188 61.410156 81.921875 C 63.902344 78.480469 66.820312 75.902344 70.167969 74.191406 C 73.539062 72.480469 77.179688 71.660156 81.089844 71.734375 C 84.679688 71.808594 87.820312 72.664062 90.507812 74.300781 C 93.195312 75.914062 95.308594 78.246094 96.847656 81.300781 C 98.386719 84.328125 99.265625 87.773438 99.488281 91.636719 C 99.730469 95.933594 99.265625 100.359375 98.09375 104.902344 C 96.921875 109.445312 95.101562 113.378906 92.632812 116.703125 C 90.164062 120.023438 87.269531 122.515625 83.949219 124.179688 C 80.648438 125.839844 77.070312 126.632812 73.210938 126.5625 Z M 88.417969 97.683594 L 88.710938 94.199219 C 88.957031 89.851562 88.371094 86.554688 86.953125 84.304688 C 85.5625 82.058594 83.433594 80.886719 80.578125 80.789062 C 76.105469 80.640625 72.550781 82.621094 69.914062 86.722656 C 67.296875 90.828125 65.820312 96.570312 65.476562 103.949219 C 65.234375 108.273438 65.808594 111.609375 67.199219 113.953125 C 68.59375 116.273438 70.753906 117.484375 73.6875 117.582031 C 77.523438 117.753906 80.699219 116.261719 83.214844 113.109375 C 85.730469 109.933594 87.382812 105.453125 88.164062 99.660156 Z M 116.457031 107.027344 L 113.15625 125.828125 L 102.417969 125.828125 L 111.691406 72.46875 L 130.382812 72.503906 C 136.148438 72.503906 140.679688 74.105469 143.976562 77.304688 C 147.277344 80.507812 148.71875 84.683594 148.300781 89.839844 C 147.910156 95.066406 145.722656 99.246094 141.742188 102.375 C 137.785156 105.5 132.726562 107.0625 126.570312 107.0625 Z M 117.957031 98.121094 L 126.898438 98.195312 C 129.78125 98.195312 132.175781 97.449219 134.082031 95.960938 C 135.988281 94.46875 137.125 92.453125 137.492188 89.914062 C 137.855469 87.371094 137.441406 85.34375 136.246094 83.828125 C 135.070312 82.3125 133.324219 81.507812 131.003906 81.410156 L 120.890625 81.375 Z M 117.957031 98.121094 "/>
</g>
</svg>
