<?xml version="1.0" encoding="utf-8"?>
<svg version="1.1" id="Layer_1" xmlns="http://www.w3.org/2000/svg" xmlns:xlink="http://www.w3.org/1999/xlink" x="0px" y="0px"
	 viewBox="0 0 200 200" style="enable-background:new 0 0 200 200;" xml:space="preserve">
<style type="text/css">
	.st0{fill:#E2DEF2;}
	.st1{fill-rule:evenodd;clip-rule:evenodd;fill:#FBD52E;}
	.st2{fill:#8778C2;}
	.st3{fill:#6D619A;}
	.st4{fill:#8878C2;}
	.st5{fill:#6D619B;}
	.st6{fill:#BEB6DD;}
</style>
<g id="surface1">
	<path class="st0" d="M200,100c0,55.3-44.8,100-100,100S0,155.3,0,100S44.7,0,100,0S200,44.7,200,100z"/>
</g>
<path class="st1" d="M263.4-7.6"/>
<g>
	<path class="st2" d="M77.3,82.5c4.3-4.7,9.4-8.4,14.5-12.2c15.4-11.5,32.7-18.8,51.1-23.9c1.9-0.5,3.9-0.8,5.9-0.9
		c3.7-0.2,5.6,1.6,5.7,5.3c0.1,4.2-0.8,8.3-2,12.3c-4.2,14.1-11,27-18.1,39.7c-3.9,7-7.6,14-12.5,20.4c-0.7,0.9-1.2,1.8-2.3,2.3
		c-0.6-0.8-0.2-1.6,0.1-2.3c4.6-8.7,3.8-17.2-1.1-25.3c-6.8-11.3-16.5-18-30.2-17.8c-3,0-5.7,0.9-8.4,2
		C79.2,82.4,78.3,83.2,77.3,82.5z"/>
	<path class="st3" d="M77.3,82.5c11.8-6.9,25.9-2.4,34.7,5.7c5.2,4.8,9.1,10.4,10.7,17.3c1.6,6.5,1.2,12.9-2.7,18.8
		c-0.2,0.4-0.3,0.8-0.5,1.2c-1.9,2.6-4.6,4.3-7.5,5.2c-3.2,1-4.4,2.6-4,5.7c-0.5,2.6-2.1,4.2-4.3,5.6c-5.7,3.7-12.2,5.1-18.7,5.8
		c-9.6,1-19.1,0.7-28.4-2.7c-2.3-0.8-4.5-1.9-6.6-3.2c-2.5-1.5-4.2-3.6-4.5-6.7c-0.2-4.7,2.8-7.3,6.4-9.3c6.7-3.8,14.1-4.8,21.7-5.3
		c1-0.1,2,0,3.3,0c-2.1-3-4-5.7-5.4-8.7c-2.4-5.1-3.3-10.5-2.5-16.1C69.9,90.3,72.9,85.9,77.3,82.5z"/>
	<path class="st4" d="M45.7,135.3c1.8,4.7,5.7,7,10,8.5c14.3,5.1,28.7,4.8,43-0.1c3.9-1.3,7.3-3.7,9.4-7.4
		c0.5,8.8-1.3,11.8-9.6,14.5c-14.9,4.9-29.8,4.9-44.5-1c-1.2-0.5-2.3-1.1-3.4-1.8c-3.4-2-5.4-4.7-5.1-8.8
		C45.7,138,45.7,136.7,45.7,135.3z"/>
	<path class="st3" d="M135.2,77.4c-2-0.4-2.4-2.2-3.5-3.3c-2.7-2.8-5.2-5.7-7.8-8.7c-0.6-0.7-1.5-1.7-0.8-2.6c0.8-1,1.9-0.3,2.7,0.1
		c4.6,2,6.3,6.5,8.4,10.5C134.8,74.6,135.4,75.9,135.2,77.4z"/>
	<path class="st5" d="M129.5,98.2c-1.4-2.9-2.8-5.8-4.1-8.8c-0.3-0.7-0.6-1.8,0.1-2.3c1-0.7,1.7,0.3,2.2,1
		C129.7,91.2,130.1,94.6,129.5,98.2z"/>
	<path class="st6" d="M121.3,112.2c0,8.4-4.6,15-11.9,17.3c-1,0.3-2.1,0.7-3-0.2c-5.3-5.4-12.2-7.5-19.2-7.8
		c-6.9-0.3-10.2-3.9-12.9-9.1c-3.1-5.9-4.2-12.2-2.3-18.7c2.2-7.5,7.7-11.3,15.1-12.2C103.7,79.4,121.4,95.3,121.3,112.2z"/>
	<path class="st0" d="M77.6,145.2c-7.6,0.1-14.3-0.9-20.7-3.3c-2.5-0.9-4.8-2.1-6.7-4c-2.9-2.8-2.8-5.4,0.2-8.1
		c2.6-2.3,5.8-3.7,9.1-4.6c12.5-3.5,25-3.5,37.4,0.7c2.3,0.8,4.5,1.9,6.5,3.4c3.9,3,3.8,6.5,0,9.3c-4.7,3.5-10.3,4.8-15.9,5.8
		C83.8,145,80.3,145.3,77.6,145.2z"/>
</g>
</svg>
