<?xml version="1.0" encoding="UTF-8"?>
<svg id="Layer_1" data-name="Layer 1" xmlns="http://www.w3.org/2000/svg" version="1.1" viewBox="0 0 200 200">
  <defs>
    <style>
      .cls-1 {
        fill: #846ff8;
      }

      .cls-1, .cls-2 {
        stroke-width: 0px;
      }

      .cls-2 {
        fill: #fff;
      }
    </style>
  </defs>
  <circle class="cls-2" cx="100.5" cy="99.9" r="99.9"/>
  <path class="cls-1" d="M98.8,180.4c-7.3-.6-14.4-4.6-21-9.2-21.3-14.7-39.2-32.8-52.9-54.9-6.8-11-7-21.7-.1-32.7,15-24.1,34.6-43.6,58.7-58.7,10.7-6.7,21.3-7.2,32.3-.4,24.8,15.4,44.9,35.3,60,60.3,6,10,6.2,19.8.2,29.9-15.4,25.5-35.7,46-61.3,61.2-5.4,3.2-11,4.7-15.7,4.6ZM111,53.5c-1.7.2-2.5.1-3.1.3-19.5,6.2-37.1,15.8-51.9,30.1-2.5,2.4-2.9,5.5-1.9,8.4,6.1,19,15.6,36,29.2,50.7,2.4,2.6,5.3,3.7,8.7,2.7,19.5-5.9,36.7-15.7,51.6-29.6,2.6-2.5,3.2-5.5,2.1-8.8-5.9-19.1-15.5-36-29.1-50.7-1.7-1.9-3.8-3.4-5.6-3.1Z"/>
</svg>