<?xml version="1.0" encoding="UTF-8"?>
<svg xmlns="http://www.w3.org/2000/svg" xmlns:xlink="http://www.w3.org/1999/xlink" width="200px" height="px" viewBox="0 0 200 200" version="1.1">
<g id="surface1">
<path style=" stroke:none;fill-rule:nonzero;fill:rgb(100%,100%,100%);fill-opacity:1;" d="M 200 100 C 200 155.226562 155.226562 200 100 200 C 44.773438 200 0 155.226562 0 100 C 0 44.773438 44.773438 0 100 0 C 155.226562 0 200 44.773438 200 100 Z M 200 100 "/>
<path style=" stroke:none;fill-rule:nonzero;fill:rgb(0%,100%,100%);fill-opacity:1;" d="M 140.832031 102.480469 C 140.824219 102.652344 140.820312 102.824219 140.8125 102.988281 C 140.675781 103.484375 140.253906 103.851562 139.722656 103.867188 C 139.535156 103.828125 139.351562 103.789062 139.164062 103.746094 C 137.898438 103.46875 136.609375 103.164062 135.265625 102.808594 C 116.253906 97.789062 105.253906 100.738281 101.519531 102.167969 C 101.492188 102.179688 101.457031 102.1875 101.429688 102.203125 C 100.730469 102.511719 100.203125 103.140625 100.050781 103.90625 L 100.050781 115.644531 C 100.269531 116.734375 101.234375 117.554688 102.386719 117.554688 C 102.542969 117.554688 102.699219 117.535156 102.847656 117.507812 C 102.878906 117.5 102.902344 117.492188 102.933594 117.484375 C 108.550781 116.011719 121.617188 113.617188 135.265625 118.347656 L 135.785156 118.527344 L 135.875 118.554688 C 135.898438 118.5625 135.925781 118.570312 135.949219 118.578125 C 136.351562 118.773438 136.632812 119.175781 136.632812 119.648438 C 136.632812 119.722656 136.605469 119.789062 136.59375 119.859375 C 136.5 120.0625 136.402344 120.261719 136.304688 120.460938 C 128.644531 136.5625 112.25 147.703125 93.234375 147.703125 C 66.886719 147.703125 45.527344 126.347656 45.527344 100 C 45.527344 73.652344 66.886719 52.296875 93.234375 52.296875 C 111.859375 52.296875 127.972656 62.980469 135.832031 78.546875 C 135.921875 78.667969 135.984375 78.804688 136.027344 78.957031 C 136.050781 79.054688 136.085938 79.144531 136.085938 79.25 C 136.085938 79.910156 135.550781 80.445312 134.890625 80.445312 C 134.78125 80.445312 134.683594 80.40625 134.582031 80.378906 C 134.527344 80.363281 134.464844 80.363281 134.410156 80.335938 C 116.414062 75.753906 105.742188 78.359375 101.804688 79.796875 C 101.613281 79.867188 101.453125 79.925781 101.296875 79.992188 C 100.664062 80.320312 100.191406 80.910156 100.050781 81.625 L 100.050781 93.441406 C 100.269531 94.53125 101.234375 95.351562 102.386719 95.351562 C 102.421875 95.351562 102.453125 95.34375 102.488281 95.339844 C 102.785156 95.261719 103.105469 95.175781 103.449219 95.089844 C 109.320312 93.617188 122.015625 91.492188 135.265625 96.085938 L 135.875 96.292969 C 137.292969 96.761719 138.699219 97.144531 140.09375 97.46875 C 140.136719 97.480469 140.179688 97.484375 140.222656 97.5 C 140.585938 97.660156 140.832031 98 140.898438 98.402344 C 140.90625 98.515625 140.90625 98.628906 140.910156 98.742188 C 140.921875 99.160156 140.9375 99.578125 140.9375 100 C 140.9375 100.835938 140.875 101.65625 140.832031 102.480469 M 167.984375 81.628906 C 167.824219 81.628906 167.667969 81.644531 167.515625 81.675781 C 167.363281 81.722656 167.214844 81.773438 167.046875 81.820312 C 164.617188 82.535156 160.816406 83.289062 155.613281 83.34375 C 155.546875 83.347656 155.484375 83.347656 155.417969 83.347656 C 154.984375 83.3125 154.621094 83.058594 154.441406 82.683594 C 154.40625 82.609375 154.390625 82.527344 154.375 82.441406 C 146.367188 54.523438 119.773438 34.464844 88.839844 36.542969 C 57.457031 38.648438 32.027344 63.96875 29.792969 95.339844 C 27.140625 132.578125 56.5625 163.605469 93.234375 163.605469 C 120.644531 163.605469 143.996094 146.261719 152.9375 121.953125 C 152.960938 121.878906 152.984375 121.808594 153.019531 121.738281 C 153.203125 121.386719 153.550781 121.144531 153.96875 121.109375 C 154.023438 121.109375 154.078125 121.105469 154.132812 121.101562 C 160.539062 120.914062 165.695312 119.734375 168.363281 118.980469 C 168.589844 118.914062 168.789062 118.855469 168.976562 118.800781 C 169.765625 118.445312 170.320312 117.675781 170.375 116.765625 L 170.375 105.886719 C 170.175781 104.753906 169.195312 103.886719 168.003906 103.886719 C 167.84375 103.886719 167.691406 103.90625 167.542969 103.933594 C 167.40625 103.976562 167.253906 104.019531 167.109375 104.0625 C 165.066406 104.671875 162.046875 105.3125 158.007812 105.535156 C 157.929688 105.539062 157.847656 105.542969 157.765625 105.546875 C 157.164062 105.496094 156.695312 105.015625 156.675781 104.410156 C 156.675781 104.375 156.679688 104.339844 156.683594 104.304688 C 156.777344 102.878906 156.839844 101.449219 156.839844 100 C 156.839844 99.957031 156.839844 99.914062 156.839844 99.871094 C 156.839844 99.800781 156.835938 99.738281 156.835938 99.667969 C 156.878906 99.167969 157.222656 98.769531 157.691406 98.636719 C 157.839844 98.625 157.988281 98.609375 158.132812 98.597656 C 162.617188 98.164062 166.199219 97.328125 168.296875 96.734375 C 168.570312 96.65625 168.816406 96.585938 169.039062 96.519531 C 169.777344 96.160156 170.296875 95.441406 170.375 94.585938 L 170.375 83.964844 C 170.34375 82.671875 169.289062 81.628906 167.984375 81.628906 "/>
</g>
</svg>
