<?xml version="1.0" encoding="utf-8"?>
<!-- Generator: Adobe Illustrator 26.4.1, SVG Export Plug-In . SVG Version: 6.00 Build 0)  -->
<svg version="1.1" id="Layer_1" xmlns="http://www.w3.org/2000/svg" xmlns:xlink="http://www.w3.org/1999/xlink" x="0px" y="0px"
	 viewBox="0 0 200 200" style="enable-background:new 0 0 200 200;" xml:space="preserve">
<style type="text/css">
	.st0{fill-rule:evenodd;clip-rule:evenodd;fill:#FBD52E;}
	.st1{fill:url(#SVGID_1_);}
</style>
<ellipse cx="100" cy="100" rx="100" ry="99.9"/>
<path class="st0" d="M100,99.1"/>
<linearGradient id="SVGID_1_" gradientUnits="userSpaceOnUse" x1="20.8075" y1="175.4326" x2="179.1925" y2="175.4326" gradientTransform="matrix(1 0 0 1 0 -75.4326)">
	<stop  offset="0" style="stop-color:#A000D6"/>
	<stop  offset="1" style="stop-color:#5379FE"/>
</linearGradient>
<path class="st1" d="M168.3,73.7c-2-2-4.3-3.8-6.7-5.3c-2.6-1.6-5.4-2.9-8.3-3.8c-3.6-1.2-7.5-1.8-11.4-1.8
	c-9.9,0-19.3,3.9-26.3,10.9l-11.9,11.9l10.6,10.6l11.9-11.9c4.2-4.2,9.8-6.5,15.7-6.5c5.9,0,11.5,2.3,15.7,6.5
	c3.7,3.7,5.8,8.4,6.3,13.2c0,0.8,0.1,1.6,0.1,2.5c0,0.8,0,1.6-0.1,2.5c-0.5,4.8-2.6,9.5-6.3,13.2c-4.2,4.2-9.8,6.5-15.7,6.5
	c-5.9,0-11.5-2.3-15.7-6.5l-13.2-13.2l-2.5-2.5l0,0L84.3,73.7c-7-7-16.4-10.9-26.3-10.9c-3.9,0-7.7,0.6-11.4,1.8
	c-2.9,0.9-5.7,2.2-8.3,3.9c-2.4,1.5-4.6,3.3-6.7,5.3c-14.5,14.5-14.5,38.1,0,52.6c2,2,4.3,3.8,6.7,5.3c2.6,1.6,5.4,2.9,8.3,3.8
	c3.6,1.2,7.5,1.8,11.4,1.8c9.9,0,19.3-3.9,26.3-10.9l0.6-0.6l6,6v-11.9v-4.5v-6.2h-6.2h-4.4h-12l6,6l-0.6,0.6
	c-4.2,4.2-9.8,6.5-15.7,6.5s-11.5-2.3-15.7-6.5c-3.7-3.7-5.8-8.4-6.3-13.2c0-0.8-0.1-1.7-0.1-2.5c0-0.8,0-1.7,0.1-2.5
	c0.5-4.8,2.6-9.5,6.3-13.2c4.2-4.2,9.8-6.5,15.7-6.5s11.5,2.3,15.7,6.5l13.2,13.2l2.5,2.5l0,0l26.3,26.3c7,7,16.4,10.9,26.3,10.9
	c3.9,0,7.7-0.6,11.4-1.8c2.9-0.9,5.7-2.2,8.3-3.8c2.4-1.5,4.6-3.3,6.7-5.3C182.8,111.8,182.8,88.2,168.3,73.7z"/>
</svg>
