<?xml version="1.0" encoding="utf-8"?>
<!-- Generator: Adobe Illustrator 26.4.1, SVG Export Plug-In . SVG Version: 6.00 Build 0)  -->
<svg version="1.1" id="Layer_1" xmlns="http://www.w3.org/2000/svg" xmlns:xlink="http://www.w3.org/1999/xlink" x="0px" y="0px"
	 viewBox="0 0 200 200" style="enable-background:new 0 0 200 200;" xml:space="preserve">
<style type="text/css">
	.st0{fill:#1D444F;}
	.st1{fill-rule:evenodd;clip-rule:evenodd;fill:#FBD52E;}
	.st2{fill:url(#SVGID_1_);}
</style>
<circle class="st0" cx="100" cy="100" r="99.9"/>
<path class="st1" d="M99,100.7"/>
<linearGradient id="SVGID_1_" gradientUnits="userSpaceOnUse" x1="25.1598" y1="85.3156" x2="157.3328" y2="108.6212" gradientTransform="matrix(1 0 0 -1 0 199.89)">
	<stop  offset="0" style="stop-color:#0076A0"/>
	<stop  offset="9.877685e-02" style="stop-color:#05759E"/>
	<stop  offset="0.2094" style="stop-color:#12729A"/>
	<stop  offset="0.3258" style="stop-color:#296E93"/>
	<stop  offset="0.4462" style="stop-color:#486888"/>
	<stop  offset="0.5684" style="stop-color:#705F7B"/>
	<stop  offset="0.6653" style="stop-color:#95586F"/>
	<stop  offset="0.9322" style="stop-color:#E54E18"/>
	<stop  offset="1" style="stop-color:#FA4C01"/>
</linearGradient>
<path class="st2" d="M107.7,39.2H92.5c-1.2,0-2.2,0.7-2.8,1.7L32.2,152l-0.3,0.8h13.4c3.9,0,7.7-1.3,10.7-3.8l42.8-35
	c0.7-0.5,1.6-0.5,2.3,0l42.4,35c3,2.5,6.8,3.9,10.8,3.9h13.9l-57.8-112C109.9,39.9,108.8,39.2,107.7,39.2L107.7,39.2L107.7,39.2z"/>
</svg>
