<?xml version="1.0" encoding="UTF-8"?>
<svg xmlns="http://www.w3.org/2000/svg" xmlns:xlink="http://www.w3.org/1999/xlink" width="200px" height="200px" viewBox="0 0 200 200" version="1.1">
<g id="surface1">
<path style=" stroke:none;fill-rule:nonzero;fill:rgb(11.764706%,11.764706%,11.764706%);fill-opacity:1;" d="M 199.988281 100.265625 C 199.988281 155.394531 155.316406 200.082031 100.210938 200.082031 C 45.105469 200.082031 0.4375 155.394531 0.4375 100.265625 C 0.4375 45.140625 45.105469 0.449219 100.210938 0.449219 C 155.316406 0.449219 199.988281 45.140625 199.988281 100.265625 Z M 199.988281 100.265625 "/>
<path style=" stroke:none;fill-rule:evenodd;fill:rgb(100%,48.235294%,48.627451%);fill-opacity:1;" d="M 100.300781 18.214844 C 55.050781 18.214844 18.355469 54.980469 18.355469 100.355469 C 18.355469 145.730469 55.050781 182.492188 100.300781 182.492188 C 145.550781 182.492188 182.242188 145.730469 182.242188 100.355469 C 182.242188 54.996094 145.550781 18.214844 100.300781 18.214844 Z M 10.046875 100.355469 C 10.046875 50.378906 50.460938 9.882812 100.300781 9.882812 C 150.136719 9.882812 190.550781 50.394531 190.550781 100.355469 C 190.550781 150.328125 150.136719 190.824219 100.300781 190.824219 C 50.460938 190.824219 10.046875 150.328125 10.046875 100.355469 Z M 10.046875 100.355469 "/>
<path style=" stroke:none;fill-rule:evenodd;fill:rgb(100%,48.235294%,48.627451%);fill-opacity:1;" d="M 135.929688 78.796875 L 113.160156 77.847656 L 128.632812 61.058594 L 122.402344 54.828125 L 105.632812 70.285156 L 104.71875 47.464844 L 95.929688 47.464844 L 94.980469 70.285156 L 78.230469 54.777344 L 72.015625 61.023438 L 87.453125 77.832031 L 64.671875 78.730469 L 64.671875 87.5625 L 87.4375 88.511719 L 71.964844 105.300781 L 78.199219 111.53125 L 94.699219 96.304688 L 95.429688 133.285156 L 82.253906 134.253906 L 82.253906 142.464844 L 95.628906 143.480469 L 95.878906 156.324219 L 104.671875 156.324219 L 104.9375 143.5 L 118.445312 142.464844 L 118.445312 134.253906 L 105.136719 133.285156 L 105.882812 96.324219 L 122.367188 111.566406 L 128.582031 105.335938 L 113.160156 88.527344 L 135.929688 87.609375 Z M 135.929688 78.796875 "/>
</g>
</svg>
