<?xml version="1.0" encoding="utf-8"?>
<!-- Generator: Adobe Illustrator 26.4.1, SVG Export Plug-In . SVG Version: 6.00 Build 0)  -->
<svg version="1.1" id="Layer_1" xmlns="http://www.w3.org/2000/svg" xmlns:xlink="http://www.w3.org/1999/xlink" x="0px" y="0px"
	 viewBox="0 0 200 200" style="enable-background:new 0 0 200 200;" xml:space="preserve">
<style type="text/css">
	.st0{fill:#1E1E1E;}
	.st1{fill-rule:evenodd;clip-rule:evenodd;fill:#FF7B7C;}
	.st2{fill-rule:evenodd;clip-rule:evenodd;fill:#FBD52E;}
</style>
<g id="surface1_00000066475094778492874230000000461473635953375419_">
	<path class="st0" d="M200,100c0,55.3-44.8,100.1-100,100.1S0,155.3,0,100S44.7-0.1,100-0.1S200,44.7,200,100z"/>
	<path class="st1" d="M100.1,17.7c-45.4,0-82.2,36.8-82.2,82.4s36.8,82.4,82.2,82.4s82.2-36.8,82.2-82.4
		C182.3,54.6,145.5,17.7,100.1,17.7z M9.6,100.1C9.6,50,50.1,9.4,100.1,9.4s90.5,40.6,90.5,90.7s-40.5,90.7-90.5,90.7
		S9.6,150.2,9.6,100.1z"/>
	<path class="st1" d="M135.9,78.5l-22.8-0.9l15.5-16.9l-6.2-6.2l-16.8,15.5L104.6,47h-8.9l-1.1,22.9L78,54.4l-6.2,6.2l15.5,16.9
		l-22.9,0.9v8.9l22.8,0.9l-15.5,16.9l6.2,6.2l16.6-15.3l0.7,37.1L82,134.2v8.2l13.4,1.1l0.2,12.9h8.9l0.3-12.9l13.5-1.1v-8.2
		l-13.4-0.9l0.7-37l16.6,15.3l6.2-6.2l-15.5-16.9l23-1.1V78.5z"/>
</g>
<path class="st2" d="M263.4-7.6"/>
</svg>
