<?xml version="1.0" encoding="utf-8"?>
<!-- Generator: Adobe Illustrator 26.4.1, SVG Export Plug-In . SVG Version: 6.00 Build 0)  -->
<svg version="1.1" id="Layer_1" xmlns="http://www.w3.org/2000/svg" xmlns:xlink="http://www.w3.org/1999/xlink" x="0px" y="0px"
	 viewBox="0 0 200 200" style="enable-background:new 0 0 200 200;" xml:space="preserve">
<style type="text/css">
	.st0{fill:#1E1E1E;}
	.st1{fill-rule:evenodd;clip-rule:evenodd;fill:#FF7B7C;}
	.st2{fill-rule:evenodd;clip-rule:evenodd;fill:#FBD52E;}
</style>
<g id="surface1_00000066475094778492874230000000461473635953375419_">
	<path class="st0" d="M194.8,100c0,52.4-42.5,94.9-94.8,94.9S5.2,152.4,5.2,100C5.2,47.6,47.6,5.1,100,5.1S194.8,47.6,194.8,100z"/>
	<path class="st1" d="M100.1,22c-43,0-77.9,34.9-77.9,78.1s34.9,78.1,77.9,78.1s77.9-34.9,77.9-78.1C178,57,143.1,22,100.1,22z
		 M14.3,100.1c0-47.5,38.4-86,85.8-86c47.4,0,85.8,38.5,85.8,86c0,47.5-38.4,86-85.8,86C52.7,186.1,14.3,147.6,14.3,100.1z"/>
	<path class="st1" d="M134,79.6l-21.6-0.9l14.7-16l-5.9-5.9l-15.9,14.7l-0.9-21.7h-8.4L95,71.5L79.1,56.8l-5.9,5.9l14.7,16
		l-21.7,0.9v8.4l21.6,0.9l-14.7,16l5.9,5.9l15.7-14.5l0.7,35.2l-12.5,0.9v7.8l12.7,1l0.2,12.2h8.4l0.3-12.2l12.8-1v-7.8l-12.7-0.9
		l0.7-35.1l15.7,14.5l5.9-5.9l-14.7-16L134,88V79.6z"/>
</g>
<path class="st2" d="M263.4-7.6"/>
</svg>
