<?xml version="1.0" encoding="UTF-8"?>
<svg id="Layer_1" data-name="Layer 1" xmlns="http://www.w3.org/2000/svg" version="1.1" viewBox="0 0 500 500">
  <defs>
    <style>
      .cls-1 {
        fill: #e81899;
      }

      .cls-1, .cls-2 {
        stroke-width: 0px;
      }

      .cls-2 {
        fill: #fafafa;
      }
    </style>
  </defs>
  <path class="cls-1" d="M249.9,499.5c137.8,0,249.6-111.7,249.6-249.6S387.7.3,249.9.3.3,112,.3,249.9s111.7,249.6,249.6,249.6h0Z"/>
  <path class="cls-2" d="M386.5,326.9l-48.8-65c-5.3-7.1-13.2-11.3-21.5-12.2-1.9-.2-3.6-1.3-4.6-2.9-1-1.6-1.1-3.6-.3-5.3,3.3-7.6,3.6-16.3,0-24.4l-33-74c-4.9-11-16-18.1-28.2-18.1s-23.3,7.1-28.2,18.1l-33,74c-3.6,8-3.4,16.8,0,24.4.8,1.7.6,3.7-.3,5.3-1,1.6-2.7,2.7-4.6,2.9-8.4.9-16.2,5.2-21.5,12.2l-48.8,65c-7.2,9.6-8,22.6-1.9,33,6.1,10.4,17.9,16.2,30.1,14.9l81.9-8.9c8.9-1,16.6-5.5,21.6-12.1,1.1-1.5,3-2.4,4.9-2.4s3.7.9,4.9,2.4c5,6.6,12.7,11.2,21.6,12.1l81.9,8.9c12.1,1.3,23.9-4.5,30.1-14.9,6.1-10.4,5.4-23.3-1.9-33ZM210.1,226.3l33.1-74c1.2-2.7,3.9-4.4,6.8-4.4s5.6,1.7,6.8,4.4l33.1,74c1,2.3.8,5-.6,7.2-1.4,2.1-3.8,3.4-6.5,3.4h-65.7c-2.6,0-5-1.3-6.5-3.4-1.4-2.1-1.6-4.8-.6-7.2h0ZM227.1,339c-1.2,2.3-3.5,3.8-6,4.1l-82,8.9c-2.9.3-5.8-1.1-7.3-3.6-1.5-2.5-1.3-5.6.5-8l48.9-65.1c1.5-2,4-3.2,6.6-3.1,2.6.1,4.9,1.5,6.3,3.8h0c0,0,32.7,55.6,32.7,55.6h0c1.3,2.3,1.4,5,.2,7.3h0ZM256.7,313.9c-1.4,2.3-3.9,3.8-6.7,3.8s-5.3-1.5-6.7-3.8l-25.1-42.7c-1.4-2.3-1.4-5.3,0-7.6,1.4-2.4,3.9-3.8,6.7-3.8h50.3c2.8,0,5.3,1.4,6.7,3.8,1.4,2.4,1.4,5.3,0,7.6l-25.1,42.7ZM368.2,348.5c-1.5,2.5-4.3,3.9-7.3,3.6l-82-8.9c-2.6-.3-4.9-1.8-6-4.1-1.2-2.3-1.1-5,.2-7.2h0c0,0,32.7-55.6,32.7-55.6h0c1.3-2.3,3.7-3.7,6.3-3.9,2.6-.1,5.1,1,6.6,3.1l48.9,65.1c1.8,2.3,1.9,5.4.5,8h0Z"/>
</svg>