<?xml version="1.0" encoding="utf-8"?>
<!-- Generator: Adobe Illustrator 26.4.1, SVG Export Plug-In . SVG Version: 6.00 Build 0)  -->
<svg version="1.1" id="Layer_1" xmlns="http://www.w3.org/2000/svg" xmlns:xlink="http://www.w3.org/1999/xlink" x="0px" y="0px"
	 viewBox="0 0 200 200" style="enable-background:new 0 0 200 200;" xml:space="preserve">
<style type="text/css">
	.st0{fill:#0AC18E;}
	.st1{fill:#FFFFFF;}
</style>
<g id="surface1">
	<g id="surface1_00000173847803863573781930000016485764193588679045_">
		<path class="st0" d="M194.9,99.6c0,51.9-42,93.9-93.9,93.9s-93.9-42-93.9-93.9S49.1,5.7,101,5.7S194.9,47.7,194.9,99.6z"/>
		<path class="st1" d="M130.3,68.1c-4.7-10.7-15.6-13-28.8-10.8l-4.3-16.5l-10.1,2.6l4.2,16.5c-2.6,0.7-5.4,1.2-8.1,2l-4.2-16.4
			L69,48l4.3,16.5C71.1,65.2,53,69.8,53,69.8l2.8,10.8c0,0,7.4-2.1,7.3-1.9c4.1-1.1,6,1,6.9,2.9l11.7,45.3c0.1,1.3-0.1,3.6-2.9,4.3
			c0.2,0.1-7.3,1.9-7.3,1.9l1.1,12.6c0,0,18-4.6,20.3-5.2l4.3,16.7l10.1-2.6l-4.3-16.9c2.8-0.6,5.5-1.3,8.1-2l4.3,16.8l10.1-2.6
			l-4.3-16.7c15.5-3.8,26.4-13.5,24.2-28.5c-1.4-9-11.3-16.4-19.5-17.2C130.9,83.1,133.4,76.6,130.3,68.1z M125.5,107.5
			c2,14.8-18.6,16.6-25.4,18.4l-5.9-22.1C101,102,122.1,94.5,125.5,107.5z M113.1,77.3c2.1,13.2-15.5,14.7-21.1,16.1l-5.4-20.1
			C92.2,72,108.7,65.2,113.1,77.3z"/>
	</g>
</g>
</svg>
