<?xml version="1.0" encoding="utf-8"?>
<!-- Generator: Adobe Illustrator 26.4.1, SVG Export Plug-In . SVG Version: 6.00 Build 0)  -->
<svg version="1.1" id="Layer_1" xmlns="http://www.w3.org/2000/svg" xmlns:xlink="http://www.w3.org/1999/xlink" x="0px" y="0px"
	 viewBox="0 0 200 200" style="enable-background:new 0 0 200 200;" xml:space="preserve">
<style type="text/css">
	.st0{fill:#0AC18E;}
	.st1{fill:#FFFFFF;}
</style>
<g id="surface1">
	<g id="surface1_00000173847803863573781930000016485764193588679045_">
		<path class="st0" d="M199.8,100c0,55.1-44.6,99.8-99.8,99.8S0.2,155.1,0.2,100S44.9,0.2,100,0.2S199.8,44.9,199.8,100z"/>
		<path class="st1" d="M138.7,58.9c-6.1-14-20.5-17-37.7-14.1l-5.6-21.6l-13.2,3.4l5.5,21.6c-3.4,0.9-7.1,1.6-10.6,2.6l-5.5-21.5
			l-13.1,3.2l5.6,21.6c-2.9,0.9-26.6,7-26.6,7l3.6,14.1c0,0,9.7-2.7,9.6-2.5c5.3-1.4,7.9,1.3,9.1,3.8l15.3,59.2
			c0.1,1.7-0.1,4.7-3.8,5.6c0.3,0.1-9.6,2.5-9.6,2.5l1.4,16.5c0,0,23.6-6,26.6-6.9l5.6,21.9l13.2-3.4l-5.6-22.1
			c3.6-0.8,7.2-1.7,10.6-2.6l5.6,22l13.2-3.4l-5.6-21.9c20.3-4.9,34.6-17.6,31.6-37.3c-1.8-11.8-14.8-21.5-25.5-22.5
			C139.5,78.5,142.8,70.1,138.7,58.9z M132.4,110.5c2.6,19.3-24.4,21.8-33.2,24.1l-7.8-28.9C100.4,103.3,128,93.5,132.4,110.5z
			 M116.2,71C118.9,88.2,96,90.2,88.6,92l-7.1-26.3C88.9,64,110.5,55.2,116.2,71z"/>
	</g>
</g>
</svg>
