<?xml version="1.0" encoding="utf-8"?>
<!-- Generator: Adobe Illustrator 26.4.1, SVG Export Plug-In . SVG Version: 6.00 Build 0)  -->
<svg version="1.1" id="Layer_1" xmlns="http://www.w3.org/2000/svg" xmlns:xlink="http://www.w3.org/1999/xlink" x="0px" y="0px"
	 viewBox="0 0 200 200" style="enable-background:new 0 0 200 200;" xml:space="preserve">
<style type="text/css">
	.st0{fill:url(#SVGID_1_);}
	.st1{fill-rule:evenodd;clip-rule:evenodd;fill:#FBD52E;}
	.st2{fill:url(#SVGID_00000114759944416637902530000005432946544762495632_);}
</style>
<linearGradient id="SVGID_1_" gradientUnits="userSpaceOnUse" x1="24.4158" y1="36.5773" x2="175.5842" y2="163.4227">
	<stop  offset="0" style="stop-color:#2D1A43"/>
	<stop  offset="1" style="stop-color:#171034"/>
</linearGradient>
<circle class="st0" cx="100" cy="100" r="98.7"/>
<path class="st1" d="M99,100.7"/>
<radialGradient id="SVGID_00000150786203972171316080000015348305337294410133_" cx="-196.5323" cy="519.7361" r="0.4563" gradientTransform="matrix(178.839 0 0 -178.839 35247.6367 93047.7969)" gradientUnits="userSpaceOnUse">
	<stop  offset="0.2254" style="stop-color:#FFFFFF"/>
	<stop  offset="0.5444" style="stop-color:#FFFFFF;stop-opacity:0.44"/>
	<stop  offset="0.6859" style="stop-color:#FFFFFF;stop-opacity:0.23"/>
	<stop  offset="0.8568" style="stop-color:#FFFFFF;stop-opacity:7.000000e-02"/>
	<stop  offset="1" style="stop-color:#FFFFFF;stop-opacity:0"/>
</radialGradient>
<path style="fill:url(#SVGID_00000150786203972171316080000015348305337294410133_);" d="M100,1.3C46.2,1.3,2.6,44.9,2.6,98.7
	c0,53.8,43.6,97.4,97.4,97.4c53.8,0,97.4-43.6,97.4-97.4C197.4,44.9,153.8,1.3,100,1.3z M100,140.6c-23.2,0-41.9-18.8-41.9-41.9
	c0-23.2,18.8-41.9,41.9-41.9c23.2,0,41.9,18.8,41.9,41.9C141.9,121.9,123.2,140.6,100,140.6z"/>
</svg>
