<?xml version="1.0" encoding="utf-8"?>
<!-- Generator: Adobe Illustrator 26.4.1, SVG Export Plug-In . SVG Version: 6.00 Build 0)  -->
<svg version="1.1" id="Layer_1" xmlns="http://www.w3.org/2000/svg" xmlns:xlink="http://www.w3.org/1999/xlink" x="0px" y="0px"
	 viewBox="0 0 200 200" style="enable-background:new 0 0 200 200;" xml:space="preserve">
<style type="text/css">
	.st0{fill:#0E3CA5;}
	.st1{fill:#5493F7;}
	.st2{fill-rule:evenodd;clip-rule:evenodd;fill:#FBD52E;}
</style>
<g id="surface1_00000047776739283644716110000017580787079907746973_">
	<path class="st0" d="M89.3,157.4c4.9,19.8,22.3,34.9,31.1,34.3c0.3,0,33.5-6.8,51.6-40.1c14.1-25.9,9.3-51-9.9-51.5
		C155.3,100.5,80.1,119.7,89.3,157.4 M106.1,8.3C94,8.3,82,11,70.9,16.3c-1.9,0.8-3.7,1.8-5.5,2.9c-1.2,0.7-2.4,1.4-3.6,2.1l0.3,0.1
		c-3.5,2.6-6.6,5.7-9.2,9.3c-24.9,35.1,58.4,60.6,102.9,60.7c20.5,15.7,26.2-44.3,6.2-60.9C146.5,16.1,126.6,8.3,106.1,8.3
		L106.1,8.3z"/>
	<path class="st1" d="M74.7,28.9C63.5,46.5,26,58.9,19.8,57v-0.1l0.8-1.6c6.5-12.9,15.6-24,26.8-32.5c2.3-1.8,4.7-3.4,7.2-4.9
		c3.8-2.2,8.1-3.4,12.5-3.4c16.7,0.3,8,14.3,7.9,14.5"/>
	<path class="st1" d="M65.3,161c0.8,5.8,0,28.7-1.1,30.6c-1,0.1-3,0.2-8.8-3.3c-11.4-6.8-21.3-16.1-29.1-27.2
		C7.9,134.8,3.3,100.3,14,69.4c6.7,9.4,14.5,17.9,21,27.4c6.4,9,15,23.7,16.7,26.9C62.7,143.2,64.5,155.3,65.3,161"/>
	<path class="st1" d="M191.7,104.4c0,12.1-2.1,24.2-6.3,35.5c-10.6,12.2-82.3-17.9-83-18.2c-9.8-4.6-39.6-18.6-42.3-40.6
		c-3.8-31.6,56.1-53.6,82.4-54.5c3.2,0,12.8,0.2,18.4,5C180.5,50,191.7,76.5,191.7,104.4 M129,182.6c4.3-16.2,41.8-32.8,50-33.7
		c1-0.1,1.5,0.7,1,1.5c-8.5,16.6-21.3,30.3-36.9,39.4C135.4,193.9,126.8,191,129,182.6z"/>
</g>
<path class="st2" d="M263.4-7.6"/>
</svg>
