<?xml version="1.0" encoding="UTF-8"?>
<svg xmlns="http://www.w3.org/2000/svg" xmlns:xlink="http://www.w3.org/1999/xlink" width="200px" height="200px" viewBox="0 0 200 200" version="1.1">
<g id="surface1">
<path style=" stroke:none;fill-rule:nonzero;fill:rgb(5.490196%,23.529412%,64.705882%);fill-opacity:1;" d="M 88.371094 162.574219 C 93.675781 184.164062 112.726562 200.644531 122.339844 199.964844 C 122.671875 199.964844 158.832031 192.539062 178.640625 156.179688 C 194.042969 127.898438 188.796875 100.574219 167.859375 99.996094 C 160.324219 100.59375 78.296875 121.4375 88.410156 162.574219 M 106.605469 0 C 93.410156 -0.00390625 80.359375 2.957031 68.308594 8.695312 C 66.257812 9.613281 64.257812 10.65625 62.324219 11.824219 C 61 12.578125 59.675781 13.347656 58.394531 14.148438 L 58.695312 14.246094 C 54.875 17.027344 51.5 20.445312 48.695312 24.367188 C 21.585938 62.625 112.402344 90.429688 160.9375 90.53125 C 183.28125 107.65625 189.546875 42.261719 167.726562 24.113281 C 150.703125 8.519531 129 -0.0351562 106.5625 0 Z M 106.605469 0 "/>
<path style=" stroke:none;fill-rule:nonzero;fill:rgb(32.941176%,57.647059%,96.862745%);fill-opacity:1;" d="M 72.4375 22.433594 C 60.164062 41.660156 19.261719 55.21875 12.515625 53.105469 L 12.515625 53.027344 L 13.351562 51.292969 C 20.394531 37.230469 30.386719 25.089844 42.542969 15.816406 C 45.066406 13.886719 47.675781 12.089844 50.363281 10.421875 C 54.542969 8.023438 59.203125 6.738281 63.949219 6.671875 C 82.15625 7.027344 72.644531 22.242188 72.550781 22.433594 "/>
<path style=" stroke:none;fill-rule:nonzero;fill:rgb(32.941176%,57.647059%,96.862745%);fill-opacity:1;" d="M 62.179688 166.570312 C 63.09375 172.886719 62.179688 197.863281 60.925781 199.933594 C 59.882812 200 57.664062 200.144531 51.28125 196.375 C 38.890625 188.960938 28.09375 178.859375 19.585938 166.722656 C -0.46875 137.9375 -5.484375 100.269531 6.261719 66.664062 C 13.558594 76.90625 22.046875 86.171875 29.199219 96.511719 C 36.152344 106.355469 45.535156 122.394531 47.464844 125.828125 C 59.375 147.117188 61.269531 160.308594 62.21875 166.570312 "/>
<path style=" stroke:none;fill-rule:nonzero;fill:rgb(32.941176%,57.647059%,96.862745%);fill-opacity:1;" d="M 199.996094 104.789062 C 200.011719 118.027344 197.6875 131.148438 193.144531 143.46875 C 181.550781 156.816406 103.394531 123.984375 102.621094 123.628906 C 91.925781 118.613281 59.4375 103.363281 56.453125 79.398438 C 52.28125 44.921875 117.585938 20.910156 146.308594 19.996094 C 149.75 19.996094 160.230469 20.175781 166.339844 25.492188 C 187.765625 45.496094 200.035156 74.402344 199.996094 104.777344 M 131.648438 190.078125 C 136.320312 172.429688 177.183594 154.347656 186.203125 153.378906 C 187.316406 153.253906 187.785156 154.089844 187.304688 155.058594 C 178.046875 173.207031 164.097656 188.136719 147.113281 198.074219 C 138.582031 202.414062 129.210938 199.222656 131.648438 190.078125 Z M 131.648438 190.078125 "/>
</g>
</svg>
