<?xml version="1.0" encoding="utf-8"?>
<!-- Generator: Adobe Illustrator 26.4.1, SVG Export Plug-In . SVG Version: 6.00 Build 0)  -->
<svg version="1.1" id="Layer_1" xmlns="http://www.w3.org/2000/svg" xmlns:xlink="http://www.w3.org/1999/xlink" x="0px" y="0px"
	 viewBox="0 0 200 200" style="enable-background:new 0 0 200 200;" xml:space="preserve">
<style type="text/css">
	.st0{fill:#0E3CA5;}
	.st1{fill:#5493F7;}
	.st2{fill-rule:evenodd;clip-rule:evenodd;fill:#FBD52E;}
</style>
<g id="surface1_00000047776739283644716110000017580787079907746973_">
	<path class="st0" d="M88.3,162.6c5.3,21.6,24.3,38,33.9,37.4c0.3,0,36.5-7.4,56.3-43.7c15.4-28.2,10.1-55.6-10.8-56.1
		C160.3,100.5,78.3,121.5,88.3,162.6 M106.6,0C93.4,0,80.4,3,68.3,8.7c-2.1,0.9-4,2-6,3.2c-1.3,0.8-2.6,1.5-3.9,2.3l0.3,0.1
		c-3.8,2.8-7.2,6.2-10,10.1c-27.1,38.3,63.7,66.1,112.2,66.2c22.3,17.1,28.6-48.3,6.8-66.4C150.7,8.5,129,0,106.6,0L106.6,0z"/>
	<path class="st1" d="M72.4,22.5C60.2,41.7,19.3,55.2,12.6,53.1V53l0.9-1.7c7.1-14.1,17-26.2,29.2-35.4c2.5-2,5.1-3.7,7.8-5.3
		c4.1-2.4,8.8-3.7,13.6-3.7c18.2,0.3,8.7,15.6,8.6,15.8"/>
	<path class="st1" d="M62.2,166.5c0.9,6.3,0,31.3-1.2,33.4c-1.1,0.1-3.3,0.2-9.6-3.6c-12.4-7.4-23.2-17.6-31.7-29.7
		c-20.1-28.7-25.1-66.3-13.4-100C13.5,76.9,22,86.1,29.1,96.5c7,9.8,16.4,25.8,18.2,29.3C59.3,147.1,61.3,160.3,62.2,166.5"/>
	<path class="st1" d="M200,104.8c0,13.2-2.3,26.4-6.9,38.7c-11.6,13.3-89.7-19.5-90.5-19.8c-10.7-5-43.2-20.3-46.1-44.3
		C52.3,44.9,117.6,21,146.3,20c3.5,0,14,0.2,20.1,5.5C187.7,45.5,200,74.4,200,104.8 M131.6,190c4.7-17.7,45.6-35.8,54.5-36.7
		c1.1-0.1,1.6,0.8,1.1,1.6c-9.3,18.1-23.2,33-40.2,43C138.6,202.4,129.2,199.2,131.6,190z"/>
</g>
<path class="st2" d="M263.4-7.6"/>
</svg>
