<?xml version="1.0" encoding="utf-8"?>
<!-- Generator: Adobe Illustrator 26.4.1, SVG Export Plug-In . SVG Version: 6.00 Build 0)  -->
<svg version="1.1" id="Layer_1" xmlns="http://www.w3.org/2000/svg" xmlns:xlink="http://www.w3.org/1999/xlink" x="0px" y="0px"
	 viewBox="0 0 200 200" style="enable-background:new 0 0 200 200;" xml:space="preserve">
<style type="text/css">
	.st0{fill:#F0D1BC;}
	.st1{fill-rule:evenodd;clip-rule:evenodd;fill:#FBD52E;}
	.st2{fill:#F5841F;}
	.st3{fill:#E27625;}
	.st4{fill:#D7C1B3;}
	.st5{fill:#2F343B;}
	.st6{fill:#CC6228;}
	.st7{fill:#C0AD9E;}
	.st8{fill:#763E1A;}
	.st9{fill:#262626;}
	.st10{clip-path:url(#SVGID_00000110435734331486300650000000333549205199432124_);}
	.st11{fill:url(#SVGID_00000096022883730064617930000002645958624139723934_);}
	.st12{clip-path:url(#SVGID_00000135666701696291752090000003682213068446457735_);}
	.st13{fill:url(#SVGID_00000103262980712157242750000001324483349422841503_);}
	.st14{clip-path:url(#SVGID_00000121983092075481381040000012245298876406127495_);}
	.st15{fill:url(#SVGID_00000139296162095720381850000016583847278684725634_);}
</style>
<circle class="st0" cx="100" cy="100" r="100"/>
<path class="st1" d="M263.4-7.6"/>
<g>
	<g id="MM_Head_background__x28_Do_not_edit_x29_">
		<path class="st2" d="M159.1,35.8l-41.6,15.4l0,0l0,0H82.7l0,0L41.1,35.8l0.3,0.2l-0.3-0.2l-6.5,19.2l4.3,20.7l-2.8,2.1l4.1,3.1
			L37,83.2l4.1,3.7l-2.6,1.8l6,7l-8.9,27.4l0,0l0,0l8.3,28.1l29.1-7.9l0,0l0,0l0,0l0,0l0,0l0,0l0,0l0,0l0,0l0,0l5.7,4.6l11.5,7.8
			h19.7l11.6-7.8l5.7-4.6l0,0l0,0l0,0l0,0l0,0l0,0l0,0l0,0l0,0l0,0l29.1,7.9l8.3-28.1l0,0l0,0l-9-27.4 M155.5,95.5l6-6.9l-2.6-1.8
			l4.1-3.7l-3.2-2.4l4.1-3.1l-2.7-2.1l4.3-20.7L159,35.8 M127,143L127,143 M73.1,143L73.1,143"/>
	</g>
	<g>
		<polygon class="st3" points="159.1,35.8 107.9,73.2 117.4,51 		"/>
		<polygon class="st3" points="41,35.8 91.8,73.5 82.6,51 		"/>
		<polygon class="st3" points="140.6,122.5 127,143 156.2,151 164.5,122.9 		"/>
		<polygon class="st3" points="35.6,122.9 43.9,151 73.1,143 59.5,122.5 		"/>
		<polygon class="st3" points="71.5,87.8 63.4,99.8 92.2,101.2 91.2,70.4 		"/>
		<polygon class="st3" points="128.5,87.8 108.5,70.1 107.9,101.2 136.7,99.8 		"/>
		<polygon class="st3" points="73.1,143 90.4,134.8 75.5,123.1 		"/>
		<polygon class="st3" points="109.6,134.8 127,143 124.5,123.1 		"/>
		<polygon class="st4" points="127,143 109.6,134.8 111.1,145.8 110.9,150.6 		"/>
		<polygon class="st4" points="73.1,143 89.2,150.6 89.1,145.8 90.4,134.8 		"/>
		<polygon class="st5" points="89.5,115.7 75.1,111.5 85.2,106.9 		"/>
		<polygon class="st5" points="110.6,115.7 114.9,106.9 125.1,111.5 		"/>
		<polygon class="st6" points="73.1,143 75.6,122.5 59.5,122.9 		"/>
		<polygon class="st6" points="124.4,122.5 127,143 140.6,122.9 		"/>
		<polygon class="st6" points="136.7,99.8 107.9,101.2 110.6,115.7 114.9,106.9 125.1,111.5 		"/>
		<polygon class="st6" points="75.1,111.5 85.2,106.9 89.5,115.7 92.2,101.2 63.4,99.8 		"/>
		<polygon class="st3" points="63.4,99.8 75.5,123.1 75.1,111.5 		"/>
		<polygon class="st3" points="125.1,111.5 124.5,123.1 136.7,99.8 		"/>
		<polygon class="st3" points="92.2,101.2 89.5,115.7 92.9,133.1 93.6,110.3 		"/>
		<polygon class="st3" points="107.9,101.2 106.5,110.2 107.2,133.1 110.6,115.7 		"/>
		<polygon class="st2" points="110.6,115.7 107.2,133.1 109.6,134.8 124.5,123.1 125.1,111.5 		"/>
		<polygon class="st2" points="75.1,111.5 75.5,123.1 90.4,134.8 92.9,133.1 89.5,115.7 		"/>
		<polygon class="st7" points="110.9,150.6 111.1,145.8 109.7,144.8 90.3,144.8 89.1,145.8 89.2,150.6 73.1,143 78.6,147.6 
			90.1,155.5 109.8,155.5 121.5,147.6 127,143 		"/>
		<polygon class="st5" points="109.6,134.8 107.2,133.1 92.9,133.1 90.4,134.8 89.1,145.8 90.3,144.8 109.7,144.8 111.1,145.8 		"/>
		<polygon class="st8" points="161.2,75.6 165.5,54.9 159.1,35.8 109.6,71.9 128.5,87.8 155.5,95.5 161.4,88.7 158.9,86.9 163,83.2 
			159.8,80.8 163.9,77.6 		"/>
		<polygon class="st8" points="34.5,54.9 38.8,75.6 36.1,77.6 40.3,80.8 37.1,83.2 41.2,86.9 38.6,88.7 44.6,95.5 71.5,87.8 
			90.4,71.9 41,35.8 		"/>
		<polygon class="st2" points="155.5,95.5 128.5,87.8 136.7,99.8 124.5,123.1 140.6,122.9 164.5,122.9 		"/>
		<polygon class="st2" points="71.5,87.8 44.6,95.5 35.6,122.9 59.5,122.9 75.5,123.1 63.4,99.8 		"/>
		<polygon class="st2" points="107.9,101.2 109.6,71.9 117.4,51 82.6,51 90.4,71.9 92.2,101.2 92.8,110.3 92.9,133.1 107.2,133.1 
			107.3,110.3 		"/>
	</g>
</g>
<g>
	<g id="surface1_00000103955597701102914250000005251003009576502202_">
		<path class="st9" d="M144.6,170.2c-13.9,0-25.2-11.3-25.2-25.2c0-13.9,11.3-25.1,25.2-25.1s25.2,11.3,25.2,25.2
			S158.5,170.2,144.6,170.2z"/>
	</g>
	<g id="surface1">
		<g>
			<g>
				<g>
					<g>
						<g>
							<g>
								<defs>
									<rect id="SVGID_1_" x="129.9" y="150.8" width="29.4" height="5.8"/>
								</defs>
								<clipPath id="SVGID_00000062166695644022713530000008051623910983209862_">
									<use xlink:href="#SVGID_1_"  style="overflow:visible;"/>
								</clipPath>
								<g style="clip-path:url(#SVGID_00000062166695644022713530000008051623910983209862_);">
									
										<linearGradient id="SVGID_00000132061401846862606110000008451140523657175195_" gradientUnits="userSpaceOnUse" x1="-848.0062" y1="529.1832" x2="-849.9554" y2="532.9168" gradientTransform="matrix(8.3333 0 0 8.3333 7223.3003 -4279.0659)">
										<stop  offset="0" style="stop-color:#00FFA3"/>
										<stop  offset="1" style="stop-color:#DC1FFF"/>
									</linearGradient>
									<path style="fill:url(#SVGID_00000132061401846862606110000008451140523657175195_);" d="M134.7,151.1
										c0.2-0.2,0.4-0.3,0.7-0.3h23.5c0.5,0,0.6,0.5,0.4,0.8l-4.7,4.6c-0.2,0.2-0.4,0.3-0.7,0.3h-23.4c-0.5,0-0.6-0.5-0.4-0.8
										L134.7,151.1z"/>
								</g>
							</g>
						</g>
					</g>
				</g>
			</g>
		</g>
		<g>
			<g>
				<g>
					<g>
						<g>
							<g>
								<defs>
									<rect id="SVGID_00000052786894904754120180000008762547767022647450_" x="129.9" y="133.5" width="29.4" height="5.8"/>
								</defs>
								<clipPath id="SVGID_00000163056334005955009130000006339286615579186848_">
									<use xlink:href="#SVGID_00000052786894904754120180000008762547767022647450_"  style="overflow:visible;"/>
								</clipPath>
								<g style="clip-path:url(#SVGID_00000163056334005955009130000006339286615579186848_);">
									
										<linearGradient id="SVGID_00000039815203733307868650000015489412468439090564_" gradientUnits="userSpaceOnUse" x1="-848.8585" y1="528.7382" x2="-850.8078" y2="532.4719" gradientTransform="matrix(8.3333 0 0 8.3333 7223.3003 -4279.0659)">
										<stop  offset="0" style="stop-color:#00FFA3"/>
										<stop  offset="1" style="stop-color:#DC1FFF"/>
									</linearGradient>
									<path style="fill:url(#SVGID_00000039815203733307868650000015489412468439090564_);" d="M134.7,133.8
										c0.2-0.2,0.5-0.3,0.7-0.3h23.5c0.5,0,0.6,0.5,0.4,0.8l-4.7,4.6c-0.2,0.2-0.4,0.3-0.7,0.3h-23.4c-0.5,0-0.6-0.5-0.4-0.8
										L134.7,133.8z"/>
								</g>
							</g>
						</g>
					</g>
				</g>
			</g>
		</g>
		<g>
			<g>
				<g>
					<g>
						<g>
							<g>
								<defs>
									<rect id="SVGID_00000123413611128894106610000016406761139688538752_" x="129.9" y="142" width="29.4" height="6.1"/>
								</defs>
								<clipPath id="SVGID_00000042017894804246031490000015231043686397274517_">
									<use xlink:href="#SVGID_00000123413611128894106610000016406761139688538752_"  style="overflow:visible;"/>
								</clipPath>
								<g style="clip-path:url(#SVGID_00000042017894804246031490000015231043686397274517_);">
									
										<linearGradient id="SVGID_00000176016393487836883400000018379901352536534935_" gradientUnits="userSpaceOnUse" x1="-848.4363" y1="528.9586" x2="-850.3856" y2="532.6923" gradientTransform="matrix(8.3333 0 0 8.3333 7223.3003 -4279.0659)">
										<stop  offset="0" style="stop-color:#00FFA3"/>
										<stop  offset="1" style="stop-color:#DC1FFF"/>
									</linearGradient>
									<path style="fill:url(#SVGID_00000176016393487836883400000018379901352536534935_);" d="M154.5,142.4
										c-0.2-0.2-0.4-0.3-0.7-0.3h-23.4c-0.5,0-0.6,0.5-0.4,0.8l4.6,4.6c0.2,0.2,0.4,0.3,0.7,0.3h23.5c0.5,0,0.6-0.5,0.4-0.8
										L154.5,142.4z"/>
								</g>
							</g>
						</g>
					</g>
				</g>
			</g>
		</g>
	</g>
</g>
</svg>
