<?xml version="1.0" encoding="utf-8"?>
<!-- Generator: Adobe Illustrator 26.4.1, SVG Export Plug-In . SVG Version: 6.00 Build 0)  -->
<svg version="1.1" id="Layer_1" xmlns="http://www.w3.org/2000/svg" xmlns:xlink="http://www.w3.org/1999/xlink" x="0px" y="0px"
	 viewBox="0 0 200 200" style="enable-background:new 0 0 200 200;" xml:space="preserve">
<style type="text/css">
	.st0{fill:#008DE4;}
	.st1{fill:#FFFFFF;}
</style>
<circle class="st0" cx="100" cy="98.7" r="95.9"/>
<g id="Layer_2_00000101061315463822652490000004896377738259231916_">
	<g id="Layer_1-2">
		<path class="st1" d="M114.7,41.8H63.7l-4.2,23.7l46.1,0.1c22.7,0,29.4,8.3,29.2,21.9c-0.1,7-3.1,18.9-4.5,22.7
			c-3.5,10.2-10.7,21.9-37.6,21.9l-44.8,0l-4.2,23.7h51c18,0,25.6-2.1,33.7-5.8c18-8.3,28.6-26,32.9-49.2
			C167.6,66.2,159.6,41.8,114.7,41.8"/>
		<path class="st1" d="M41.6,86.8c-13.4,0-15.3,8.7-16.6,14c-1.7,6.9-2.2,9.7-2.2,9.7h52.3c13.4,0,15.3-8.7,16.6-14
			c1.7-6.9,2.2-9.7,2.2-9.7H41.6z"/>
	</g>
</g>
</svg>
