<?xml version="1.0" encoding="utf-8"?>
<!-- Generator: Adobe Illustrator 26.4.1, SVG Export Plug-In . SVG Version: 6.00 Build 0)  -->
<svg version="1.1" id="Layer_1" xmlns="http://www.w3.org/2000/svg" xmlns:xlink="http://www.w3.org/1999/xlink" x="0px" y="0px"
	 viewBox="0 0 200 200" style="enable-background:new 0 0 200 200;" xml:space="preserve">
<style type="text/css">
	.st0{fill:#008DE4;}
	.st1{fill-rule:evenodd;clip-rule:evenodd;fill:#FBD52E;}
	.st2{fill:#FFFFFF;}
</style>
<g id="surface1_00000011007793470014314500000003444383827224021933_">
	<g>
		<path class="st0" d="M200,100c0,55.3-44.7,100-100,100S0,155.3,0,100S44.7,0,100,0S200,44.7,200,100z"/>
	</g>
</g>
<path class="st1" d="M263.4-7.6"/>
<g id="Layer_2_00000180354212598260592690000013065915766244330149_">
	<g id="Layer_1-2">
		<path class="st2" d="M125.8,32.4H65.2l-5,28.1l54.7,0.1c27,0,34.9,9.8,34.7,26c-0.1,8.3-3.7,22.4-5.3,27
			c-4.2,12.2-12.7,26-44.7,26H46.4l-5,28.1h60.5c21.4,0,30.4-2.5,40-6.9c21.3-9.9,34-30.9,39.1-58.4
			C188.6,61.5,179.2,32.4,125.8,32.4"/>
		<path class="st2" d="M39,85.9c-15.9,0-18.2,10.4-19.7,16.6c-2,8.2-2.6,11.5-2.6,11.5h62.1c15.9,0,18.2-10.4,19.7-16.6
			c2-8.2,2.6-11.5,2.6-11.5H39z"/>
	</g>
</g>
</svg>
