<?xml version="1.0" encoding="utf-8"?>
<!-- Generator: Adobe Illustrator 23.0.6, SVG Export Plug-In . SVG Version: 6.00 Build 0)  -->
<svg version="1.1" id="Layer_1" xmlns="http://www.w3.org/2000/svg" xmlns:xlink="http://www.w3.org/1999/xlink" x="0px" y="0px"
	 viewBox="0 0 200 200" style="enable-background:new 0 0 200 200;" xml:space="preserve">
<style type="text/css">
	.st0{fill:#00E0CA;}
	.st1{fill-rule:evenodd;clip-rule:evenodd;fill:#FBD52E;}
	.st2{opacity:0.9;}
	.st3{fill:#00121F;}
</style>
<g>
	<circle class="st0" cx="100" cy="100" r="100"/>
</g>
<path class="st1" d="M263.4-7.6"/>
<g class="st2">
	<path class="st3" d="M151.9,50.5c-23.3-24.7-61.6-25.3-85.5-1.2c-23.9,24.1-24.5,63.7-1.2,88.4l15.3-15.4
		c-15-16.1-14.7-41.7,0.8-57.3c15.5-15.6,40.3-15.3,55.4,0.7L151.9,50.5z"/>
	<path class="st3" d="M48.1,152.9c23.3,24.7,61.6,25.3,85.5,1.2c23.9-24.1,24.5-63.7,1.2-88.4l-15.3,15.4
		c15,16.1,14.7,41.7-0.8,57.3c-15.5,15.6-40.3,15.3-55.4-0.7L48.1,152.9z"/>
</g>
</svg>
