<?xml version="1.0" encoding="utf-8"?>
<!-- Generator: Adobe Illustrator 26.4.1, SVG Export Plug-In . SVG Version: 6.00 Build 0)  -->
<svg version="1.1" id="Layer_1" xmlns="http://www.w3.org/2000/svg" xmlns:xlink="http://www.w3.org/1999/xlink" x="0px" y="0px"
	 viewBox="0 0 200 200" style="enable-background:new 0 0 200 200;" xml:space="preserve">
<style type="text/css">
	.st0{fill-rule:evenodd;clip-rule:evenodd;fill:url(#SVGID_1_);}
	.st1{fill:#FFFFFF;}
</style>
<linearGradient id="SVGID_1_" gradientUnits="userSpaceOnUse" x1="35.7197" y1="23.3938" x2="164.2803" y2="176.6062">
	<stop  offset="0.15" style="stop-color:#B32EFF"/>
	<stop  offset="0.42" style="stop-color:#CE60D3"/>
	<stop  offset="0.65" style="stop-color:#E185B3"/>
	<stop  offset="0.84" style="stop-color:#EE9C9F"/>
	<stop  offset="0.96" style="stop-color:#F2A498"/>
</linearGradient>
<circle class="st0" cx="100" cy="100" r="100"/>
<g>
	<path class="st1" d="M160.5,79l-26.2-38.1c-4.1-6-13.4-2.8-13.1,4.5c0.3,6.6,2.8,13.6,8.7,22.2c0,0,0,0,0,0c0,0,0,0,0,0
		c-2.4-1.8-38.9-29.2-82.3-14.6h0c-4.8,1.8-7.2,5.7-6,10.3c1.1,4.3,5.5,6.8,9.8,6.1c9.2-1.5,18.4-2.3,27.4-1.5
		c9,0.8,17.8,3.1,26,7.1s15.6,9.7,22.4,16.2c7.7,7.3,17.2,23,17.2,23c1.2,2,3.6,3,5.8,2.2c2.6-0.9,3.8-3.9,2.8-6.4
		c-2-5.3-4.5-10.5-7.4-15.4c0,0,0,0,0,0c0,0,0,0,0,0c3.2,1.2,6.2,2.7,9.7,1.9c2.9-0.7,5.4-2.6,6.5-5.4
		C163.4,87.1,162.9,82.5,160.5,79z"/>
	<path class="st1" d="M39.5,120.8l26.4,38.3c4.1,6,13.3,2.7,13-4.6c-0.3-6.6-2.7-13.7-8.7-22.3c0,0,0-0.1,0,0
		c2.4,1.8,38.9,29.2,82.3,14.6c0,0,0,0,0.1,0c4.8-1.8,7.2-5.7,6-10.3c-1.1-4.3-5.5-6.8-9.8-6.1c-9.2,1.5-18.4,2.3-27.4,1.5
		c-9-0.8-17.8-3.1-26-7.1c-8.2-4-15.6-9.7-22.4-16.2c-7.7-7.3-17.2-23-17.2-23c-1.2-2.1-3.8-3-6.1-2.1c-2.5,1-3.5,3.9-2.6,6.4
		c2,5.3,4.5,10.4,7.4,15.3c0,0,0,0,0,0c0,0,0,0,0,0c-3.2-1.2-6.2-2.7-9.7-1.9c-2.9,0.7-5.4,2.6-6.5,5.3
		C36.6,112.7,37.1,117.3,39.5,120.8z"/>
</g>
</svg>
