<?xml version="1.0" encoding="UTF-8"?>
<svg xmlns="http://www.w3.org/2000/svg" xmlns:xlink="http://www.w3.org/1999/xlink" width="200px" height="px" viewBox="0 0 200 199" version="1.1">
<defs>
<linearGradient id="linear0" gradientUnits="userSpaceOnUse" x1="511.34" y1="446.08" x2="-84.47" y2="-287.71" gradientTransform="matrix(0.411218,0,0,0.411703,-0.00822436,0.0757077)">
<stop offset="0.15" style="stop-color:rgb(70.196078%,18.039216%,100%);stop-opacity:1;"/>
<stop offset="0.42" style="stop-color:rgb(80.784314%,37.647059%,82.745098%);stop-opacity:1;"/>
<stop offset="0.65" style="stop-color:rgb(88.235294%,52.156863%,70.196078%);stop-opacity:1;"/>
<stop offset="0.84" style="stop-color:rgb(93.333333%,61.176471%,62.352941%);stop-opacity:1;"/>
<stop offset="0.96" style="stop-color:rgb(94.901961%,64.313725%,59.607843%);stop-opacity:1;"/>
</linearGradient>
<linearGradient id="linear1" gradientUnits="userSpaceOnUse" x1="622.53" y1="5315.63" x2="26.7" y2="4581.82" gradientTransform="matrix(-0.411218,0.00000000000000005,-0.00000000000000005,-0.411703,245.698659,2203.433632)">
<stop offset="0.15" style="stop-color:rgb(70.196078%,18.039216%,100%);stop-opacity:1;"/>
<stop offset="0.42" style="stop-color:rgb(80.784314%,37.647059%,82.745098%);stop-opacity:1;"/>
<stop offset="0.65" style="stop-color:rgb(88.235294%,52.156863%,70.196078%);stop-opacity:1;"/>
<stop offset="0.84" style="stop-color:rgb(93.333333%,61.176471%,62.352941%);stop-opacity:1;"/>
<stop offset="0.96" style="stop-color:rgb(94.901961%,64.313725%,59.607843%);stop-opacity:1;"/>
</linearGradient>
</defs>
<g id="surface1">
<path style=" stroke:none;fill-rule:nonzero;fill:url(#linear0);" d="M 196.417969 65.949219 L 154.628906 5.085938 C 148.066406 -4.453125 133.226562 0.609375 133.710938 12.199219 C 134.15625 22.765625 138.097656 33.945312 147.535156 47.667969 C 147.546875 47.683594 147.542969 47.703125 147.53125 47.71875 C 147.519531 47.730469 147.5 47.734375 147.484375 47.726562 C 143.621094 44.84375 85.414062 1.082031 16.222656 24.382812 L 16.144531 24.382812 C 8.507812 27.25 4.609375 33.5 6.542969 40.835938 C 8.332031 47.625 15.285156 51.699219 22.199219 50.550781 C 36.894531 48.101562 51.480469 46.9375 65.824219 48.195312 C 80.167969 49.457031 94.199219 53.136719 107.261719 59.5625 C 120.328125 65.988281 132.160156 75.082031 143.039062 85.5 C 155.273438 97.203125 170.449219 122.167969 170.449219 122.167969 C 172.285156 125.433594 176.203125 126.902344 179.730469 125.644531 C 183.84375 124.171875 185.757812 119.425781 184.214844 115.351562 C 180.988281 106.839844 177.042969 98.621094 172.414062 90.785156 C 172.402344 90.769531 172.402344 90.746094 172.414062 90.730469 C 172.429688 90.714844 172.453125 90.714844 172.46875 90.722656 C 177.585938 92.652344 182.316406 95.050781 187.917969 93.738281 C 192.488281 92.664062 196.496094 89.550781 198.359375 85.195312 C 201.101562 78.878906 200.367188 71.589844 196.417969 65.949219 Z M 196.417969 65.949219 "/>
<path style=" stroke:none;fill-rule:nonzero;fill:url(#linear1);" d="M 3.5625 132.742188 L 45.582031 193.945312 C 52.164062 203.515625 66.726562 198.269531 66.28125 186.667969 C 65.867188 176.054688 61.933594 164.828125 52.449219 151.035156 C 52.421875 150.992188 52.449219 150.941406 52.5 150.96875 C 56.371094 153.851562 114.59375 197.609375 183.757812 174.3125 C 183.785156 174.316406 183.8125 174.316406 183.839844 174.3125 C 191.476562 171.457031 195.351562 165.214844 193.4375 157.875 C 191.652344 151.089844 184.699219 147.011719 177.789062 148.164062 C 163.089844 150.636719 148.507812 151.777344 134.160156 150.515625 C 119.8125 149.257812 105.785156 145.574219 92.726562 139.152344 C 79.664062 132.730469 67.828125 123.628906 56.949219 113.214844 C 44.71875 101.511719 29.539062 76.550781 29.539062 76.550781 C 27.632812 73.148438 23.484375 71.710938 19.886719 73.207031 C 15.972656 74.851562 14.296875 79.484375 15.800781 83.453125 C 19.019531 91.9375 22.957031 100.128906 27.566406 107.941406 C 27.578125 107.957031 27.574219 107.980469 27.5625 107.992188 C 27.550781 108.007812 27.53125 108.015625 27.515625 108.007812 C 22.398438 106.082031 17.644531 103.679688 12.066406 104.996094 C 7.496094 106.046875 3.484375 109.175781 1.636719 113.519531 C -1.101562 119.828125 -0.371094 127.105469 3.5625 132.742188 Z M 3.5625 132.742188 "/>
</g>
</svg>
