<?xml version="1.0" encoding="UTF-8"?>
<svg xmlns="http://www.w3.org/2000/svg" xmlns:xlink="http://www.w3.org/1999/xlink" width="200px" height="px" viewBox="0 0 200 200" version="1.1">
<defs>
<filter id="alpha" filterUnits="objectBoundingBox" x="0%" y="0%" width="100%" height="100%">
  <feColorMatrix type="matrix" in="SourceGraphic" values="0 0 0 0 1 0 0 0 0 1 0 0 0 0 1 0 0 0 1 0"/>
</filter>
<mask id="mask0">
  <g filter="url(#alpha)">
<rect x="0" y="0" width="200" height="200" style="fill:rgb(0%,0%,0%);fill-opacity:0.956863;stroke:none;"/>
  </g>
</mask>
<clipPath id="clip1">
  <rect x="0" y="0" width="200" height="200"/>
</clipPath>
<g id="surface5" clip-path="url(#clip1)">
<path style=" stroke:none;fill-rule:evenodd;fill:rgb(60.784314%,66.666667%,85.882353%);fill-opacity:1;" d="M 114 54 C 114 54.535156 114 55.066406 114 55.601562 C 113.734375 55.601562 113.464844 55.601562 113.199219 55.601562 C 110.015625 55.792969 107.082031 56.59375 104.398438 58 C 95.464844 61.867188 88.53125 68 83.601562 76.398438 C 82.476562 76.777344 81.941406 77.578125 82 78.800781 C 80.367188 81.8125 79.035156 85.011719 78 88.398438 C 76.367188 93.679688 76.097656 99.015625 77.199219 104.398438 C 79.109375 117.828125 85.507812 128.496094 96.398438 136.398438 C 96.777344 137.523438 97.578125 138.058594 98.800781 138 C 100.871094 139.671875 103.269531 140.738281 106 141.199219 C 108.007812 142.84375 110.40625 143.644531 113.199219 143.601562 C 113.464844 143.601562 113.734375 143.601562 114 143.601562 C 114 144.132812 114 144.667969 114 145.199219 C 86.535156 145.199219 59.066406 145.199219 31.601562 145.199219 C 31.601562 114.800781 31.601562 84.398438 31.601562 54 C 59.066406 54 86.535156 54 114 54 Z M 114 54 "/>
</g>
<mask id="mask1">
  <g filter="url(#alpha)">
<rect x="0" y="0" width="200" height="200" style="fill:rgb(0%,0%,0%);fill-opacity:0.996078;stroke:none;"/>
  </g>
</mask>
<clipPath id="clip2">
  <rect x="0" y="0" width="200" height="200"/>
</clipPath>
<g id="surface8" clip-path="url(#clip2)">
<path style=" stroke:none;fill-rule:evenodd;fill:rgb(1.568627%,13.72549%,72.941176%);fill-opacity:1;" d="M 117.199219 54 C 118.800781 54 120.398438 54 122 54 C 122 84.398438 122 114.800781 122 145.199219 C 120.398438 145.199219 118.800781 145.199219 117.199219 145.199219 C 116.652344 143.859375 115.585938 143.324219 114 143.601562 C 113.734375 143.601562 113.464844 143.601562 113.199219 143.601562 C 111.046875 142.304688 108.648438 141.507812 106 141.199219 C 103.269531 140.738281 100.871094 139.671875 98.800781 138 C 98.421875 136.875 97.621094 136.339844 96.398438 136.398438 C 85.507812 128.496094 79.109375 117.828125 77.199219 104.398438 C 77.289062 99.054688 77.554688 93.722656 78 88.398438 C 79.035156 85.011719 80.367188 81.8125 82 78.800781 C 83.125 78.421875 83.660156 77.621094 83.601562 76.398438 C 88.53125 68 95.464844 61.867188 104.398438 58 C 107.621094 57.894531 110.554688 57.097656 113.199219 55.601562 C 113.464844 55.601562 113.734375 55.601562 114 55.601562 C 115.585938 55.875 116.652344 55.339844 117.199219 54 Z M 117.199219 54 "/>
</g>
<mask id="mask2">
  <g filter="url(#alpha)">
<rect x="0" y="0" width="200" height="200" style="fill:rgb(0%,0%,0%);fill-opacity:0.94902;stroke:none;"/>
  </g>
</mask>
<clipPath id="clip3">
  <rect x="0" y="0" width="200" height="200"/>
</clipPath>
<g id="surface11" clip-path="url(#clip3)">
<path style=" stroke:none;fill-rule:evenodd;fill:rgb(31.764706%,42.352941%,76.470588%);fill-opacity:1;" d="M 122 54 C 146.277344 55 161.34375 67.265625 167.199219 90.800781 C 169.820312 110.113281 163.554688 125.710938 148.398438 137.601562 C 144.765625 139.613281 141.03125 141.480469 137.199219 143.199219 C 132.25 144.707031 127.179688 145.375 122 145.199219 C 122 114.800781 122 84.398438 122 54 Z M 122 54 "/>
</g>
<mask id="mask3">
  <g filter="url(#alpha)">
<rect x="0" y="0" width="200" height="200" style="fill:rgb(0%,0%,0%);fill-opacity:0.768627;stroke:none;"/>
  </g>
</mask>
<clipPath id="clip4">
  <rect x="0" y="0" width="200" height="200"/>
</clipPath>
<g id="surface14" clip-path="url(#clip4)">
<path style=" stroke:none;fill-rule:evenodd;fill:rgb(27.058824%,35.686275%,78.039216%);fill-opacity:1;" d="M 114 54 C 115.066406 54 116.132812 54 117.199219 54 C 116.652344 55.339844 115.585938 55.875 114 55.601562 C 114 55.066406 114 54.535156 114 54 Z M 114 54 "/>
</g>
<mask id="mask4">
  <g filter="url(#alpha)">
<rect x="0" y="0" width="200" height="200" style="fill:rgb(0%,0%,0%);fill-opacity:0.211765;stroke:none;"/>
  </g>
</mask>
<clipPath id="clip5">
  <rect x="0" y="0" width="200" height="200"/>
</clipPath>
<g id="surface17" clip-path="url(#clip5)">
<path style=" stroke:none;fill-rule:evenodd;fill:rgb(28.235294%,36.470588%,78.431373%);fill-opacity:1;" d="M 114 143.601562 C 115.585938 143.324219 116.652344 143.859375 117.199219 145.199219 C 116.132812 145.199219 115.066406 145.199219 114 145.199219 C 114 144.667969 114 144.132812 114 143.601562 Z M 114 143.601562 "/>
</g>
</defs>
<g id="surface1">
<use xlink:href="#surface5" mask="url(#mask0)"/>
<use xlink:href="#surface8" mask="url(#mask1)"/>
<use xlink:href="#surface11" mask="url(#mask2)"/>
<use xlink:href="#surface14" mask="url(#mask3)"/>
<path style=" stroke:none;fill-rule:evenodd;fill:rgb(21.568627%,29.411765%,76.862745%);fill-opacity:1;" d="M 113.199219 55.601562 C 110.554688 57.097656 107.621094 57.894531 104.398438 58 C 107.082031 56.59375 110.015625 55.792969 113.199219 55.601562 Z M 113.199219 55.601562 "/>
<path style=" stroke:none;fill-rule:evenodd;fill:rgb(28.235294%,36.078431%,78.431373%);fill-opacity:1;" d="M 83.601562 76.398438 C 83.660156 77.621094 83.125 78.421875 82 78.800781 C 81.941406 77.578125 82.476562 76.777344 83.601562 76.398438 Z M 83.601562 76.398438 "/>
<path style=" stroke:none;fill-rule:evenodd;fill:rgb(39.215686%,47.058824%,81.176471%);fill-opacity:1;" d="M 78 88.398438 C 77.554688 93.722656 77.289062 99.054688 77.199219 104.398438 C 76.097656 99.015625 76.367188 93.679688 78 88.398438 Z M 78 88.398438 "/>
<path style=" stroke:none;fill-rule:evenodd;fill:rgb(24.705882%,32.941176%,77.647059%);fill-opacity:1;" d="M 96.398438 136.398438 C 97.621094 136.339844 98.421875 136.875 98.800781 138 C 97.578125 138.058594 96.777344 137.523438 96.398438 136.398438 Z M 96.398438 136.398438 "/>
<path style=" stroke:none;fill-rule:evenodd;fill:rgb(21.568627%,29.019608%,76.862745%);fill-opacity:1;" d="M 106 141.199219 C 108.648438 141.507812 111.046875 142.304688 113.199219 143.601562 C 110.40625 143.644531 108.007812 142.84375 106 141.199219 Z M 106 141.199219 "/>
<use xlink:href="#surface17" mask="url(#mask4)"/>
</g>
</svg>
