<?xml version="1.0" encoding="UTF-8"?>
<svg id="Layer_1" data-name="Layer 1" xmlns="http://www.w3.org/2000/svg" version="1.1" viewBox="0 0 500 500">
  <defs>
    <style>
      .cls-1 {
        fill: #000;
      }

      .cls-1, .cls-2 {
        stroke-width: 0px;
      }

      .cls-2 {
        fill: #fff;
      }
    </style>
  </defs>
  <circle class="cls-1" cx="250" cy="250" r="250.3"/>
  <g>
    <path class="cls-2" d="M253.6,306.4c-11,.3-21.7.2-26.2-12.8v40.7c3.7-11.4,12.9-12.1,22.1-12.2,10.2,0,19.9,1.4,23.4,13.4v-43.6c-2.5,10.5-9.6,14.2-19.2,14.5Z"/>
    <path class="cls-2" d="M302.4,220.5c-25.9-20.3-54.4-36.7-81.4-55.4-8-5.5-15.8-11.1-21.7-18.8-9.4-12.4-6.6-27.4,6.9-34.8,10.7-5.9,22.1-8.1,34.5-6.4,13.2,1.8,23.5,8.4,33,17,7.6,6.9,14.3,14.9,23,20.5,9,5.8,20.3,4.5,26.2-2.8,5.4-6.7,4.4-18-2.6-25.5-3.4-3.7-7.3-6.7-11.9-8.9-18-8.9-37.2-11.4-57.2-12.2-19.5.8-39,2.4-55.6,14.6-13.6,10-17.4,24.1-11,39.6,2.7,6.5,6.8,12.1,11.8,17.1,13.6,13.7,29.2,25,43.6,37.8,4.1,3.6,11.3,7.4,10.2,12.5-1.2,5.9-9.5,4.3-14.7,5.7-38.1,9.9-78.3,39.8-81.3,87-2.5,38.6,10.7,71.1,45.9,88.7,56.8,28.5,118.1-3.7,139.3-58,16.3-41.8.9-88-37.1-117.7ZM297.9,360.9c-7.6,17.4-19.8,30.7-40.2,33.2-21.5,2.6-37-7.3-48.6-24.4-10.3-15.2-15.1-34.2-15-58.8.1-20.3,3.8-39.6,15.8-56.5,11.8-16.6,28.8-24.8,48.3-28.5,4.1-.8,6.9,1.2,9.7,3.7,35,30.9,48.6,88.8,29.9,131.4Z"/>
  </g>
</svg>