<?xml version="1.0" encoding="utf-8"?>
<!-- Generator: Adobe Illustrator 26.4.1, SVG Export Plug-In . SVG Version: 6.00 Build 0)  -->
<svg version="1.1" id="Layer_1" xmlns="http://www.w3.org/2000/svg" xmlns:xlink="http://www.w3.org/1999/xlink" x="0px" y="0px"
	 viewBox="0 0 200 200" style="enable-background:new 0 0 200 200;" xml:space="preserve">
<style type="text/css">
	.st0{fill:url(#SVGID_1_);}
	.st1{fill-rule:evenodd;clip-rule:evenodd;fill:#FBD52E;}
	.st2{fill:#FFFFFF;}
</style>
<g id="surface1">
	<linearGradient id="SVGID_1_" gradientUnits="userSpaceOnUse" x1="7.064" y1="100" x2="192.936" y2="100">
		<stop  offset="0" style="stop-color:#6E7FEF"/>
		<stop  offset="1" style="stop-color:#5C67B0"/>
	</linearGradient>
	<path class="st0" d="M100,192.9c51.3,0,92.9-41.6,92.9-92.9c0-51.3-41.6-92.9-92.9-92.9C48.7,7.1,7.1,48.7,7.1,100
		C7.1,151.3,48.7,192.9,100,192.9z"/>
</g>
<path class="st1" d="M263.4-7.6"/>
<g>
	<path class="st2" d="M105.1,106H94.8l0.1,0.3l-20.8,52.8l8.7,3.4l17.1-43.4l17.1,43.4l8.7-3.4L105,106.3L105.1,106z"/>
	<path class="st2" d="M162.5,82.9l-3.4-8.7L106.3,95l-0.9-0.4l-0.4-0.9l20.8-52.8l-8.7-3.4L100,80.9L82.9,37.5l-8.7,3.4L95,93.7
		l-0.4,0.9L93.7,95L40.9,74.2l-3.4,8.7L80.9,100l-43.4,17.1l3.4,8.7L93.7,105l0.9,0.3V95.1H95l-0.1-0.1l0.3,0.1h9.5l0.3-0.1
		l-0.1,0.1h0.5v10.3l0.9-0.3l52.8,20.8l3.4-8.7L119.1,100L162.5,82.9L162.5,82.9z"/>
</g>
</svg>
