<?xml version="1.0" encoding="utf-8"?>
<!-- Generator: Adobe Illustrator 26.4.1, SVG Export Plug-In . SVG Version: 6.00 Build 0)  -->
<svg version="1.1" id="Layer_1" xmlns="http://www.w3.org/2000/svg" xmlns:xlink="http://www.w3.org/1999/xlink" x="0px" y="0px"
	 viewBox="0 0 200 200" style="enable-background:new 0 0 200 200;" xml:space="preserve">
<style type="text/css">
	.st0{fill:url(#SVGID_1_);}
	.st1{fill-rule:evenodd;clip-rule:evenodd;fill:#FBD52E;}
	.st2{fill:#FFFFFF;}
</style>
<g id="surface1">
	
		<linearGradient id="SVGID_1_" gradientUnits="userSpaceOnUse" x1="-6.198883e-06" y1="99.89" x2="200" y2="99.89" gradientTransform="matrix(1 0 0 -1 0 199.89)">
		<stop  offset="0" style="stop-color:#6E7FEF"/>
		<stop  offset="1" style="stop-color:#5C67B0"/>
	</linearGradient>
	<path class="st0" d="M100,200c55.2,0,100-44.8,100-100S155.2,0,100,0C44.8,0,0,44.8,0,100S44.8,200,100,200z"/>
</g>
<path class="st1" d="M263.4-7.6"/>
<g>
	<path class="st2" d="M105.5,106.5H94.4l0.1,0.3l-22.4,56.8l9.4,3.7l18.4-46.7l18.4,46.7l9.4-3.7l-22.3-56.8L105.5,106.5z"/>
	<path class="st2" d="M167.3,81.6l-3.7-9.4l-56.8,22.4l-1-0.4l-0.4-1l22.4-56.8l-9.4-3.7L100,79.4L81.6,32.7l-9.4,3.7l22.4,56.8
		l-0.4,1l-1,0.4L36.4,72.2l-3.7,9.4L79.4,100l-46.7,18.4l3.7,9.4l56.8-22.4l1,0.3v-11h0.4l-0.1-0.1l0.3,0.1h10.2l0.3-0.1l-0.1,0.1
		h0.5v11.1l1-0.3l56.8,22.4l3.7-9.4L120.6,100L167.3,81.6L167.3,81.6z"/>
</g>
</svg>
