<?xml version="1.0" encoding="utf-8"?>
<!-- Generator: Adobe Illustrator 26.4.1, SVG Export Plug-In . SVG Version: 6.00 Build 0)  -->
<svg version="1.1" id="Layer_1" xmlns="http://www.w3.org/2000/svg"
  xmlns:xlink="http://www.w3.org/1999/xlink" x="0px" y="0px"
  viewBox="0 0 200 200" style="enable-background:new 0 0 200 200;" xml:space="preserve">
<style type="text/css">
	.st0{fill:#7A7CFF;}
	.st1{fill-rule:evenodd;clip-rule:evenodd;fill:#FBD52E;}
	.st2{fill:url(#SVGID_1_);}
	.st3{fill-rule:evenodd;clip-rule:evenodd;fill:url(#SVGID_00000085213641869878367960000004219510700044669824_);}
	.st4{fill-rule:evenodd;clip-rule:evenodd;fill:url(#SVGID_00000156560130371117200480000003427262481767639437_);}
	.st5{fill:url(#SVGID_00000106844791645043715420000006465844169684838566_);}
</style>
<g id="surface1">
	<g>
		<path class="st0" d="M200,100c0,55.3-44.8,100-100,100S0,155.3,0,100S44.7,0,100,0S200,44.7,200,100z"/>
	</g>
</g>
<path class="st1" d="M263.4-7.6"/>
<g>
	
		<linearGradient id="SVGID_1_" gradientUnits="userSpaceOnUse" x1="72.5119" y1="102.3225" x2="166.2651" y2="77.2891" gradientTransform="matrix(1 0 0 -1 0 199.8898)">
		<stop  offset="0" style="stop-color:#FFFFFF"/>
		<stop  offset="1" style="stop-color:#FFFFFF"/>
	</linearGradient>
	<path class="st2" d="M166.5,108.9c5.3-12.5-20.8-47.5-45.8-62.1C105.1,35.5,88.7,37,85.4,42c-7.3,10.9,24.1,20.1,45.1,30.9
		c-4.5,2.1-8.8,5.8-11.3,10.6c-7.8-9.1-25-16.9-45.2-10.6c-13.6,4.2-24.9,14.2-29.2,29.3c-1.1-0.5-2.2-0.8-3.5-0.8
		c-4.7,0-8.6,4.1-8.6,9.1c0,5,3.8,9.1,8.6,9.1c0.9,0,3.6-0.6,3.6-0.6l43.7,0.3c-17.5,29.5-31.3,33.8-31.3,38.9
		c0,5.1,13.2,3.7,18.2,1.8c23.8-9.1,49.3-37.5,53.7-45.7C147.6,116.8,163.1,117.1,166.5,108.9z"/>
	
		<linearGradient id="SVGID_00000151542330227280734500000012249649934010627984_" gradientUnits="userSpaceOnUse" x1="148.8811" y1="103.0255" x2="77.762" y2="170.1533" gradientTransform="matrix(1 0 0 -1 0 199.8898)">
		<stop  offset="0" style="stop-color:#8697FF"/>
		<stop  offset="1" style="stop-color:#8697FF;stop-opacity:0"/>
	</linearGradient>
	<path style="fill-rule:evenodd;clip-rule:evenodd;fill:url(#SVGID_00000151542330227280734500000012249649934010627984_);" d="
		M130.5,72.9C130.5,72.9,130.5,72.9,130.5,72.9c1-0.4,0.8-1.9,0.6-3.1c-0.6-2.8-11.2-13.9-21.2-18.8c-13.6-6.8-23.5-6.4-25-3.3
		c2.8,6,15.6,11.7,28.9,17.6C119.5,67.7,125.3,70.2,130.5,72.9C130.5,72.9,130.5,72.9,130.5,72.9z"/>
	
		<linearGradient id="SVGID_00000173143044988580426080000000660736741626195584_" gradientUnits="userSpaceOnUse" x1="115.9212" y1="65.4979" x2="49.6194" y2="101.3899" gradientTransform="matrix(1 0 0 -1 0 199.8898)">
		<stop  offset="0" style="stop-color:#8697FF"/>
		<stop  offset="1" style="stop-color:#8697FF;stop-opacity:0"/>
	</linearGradient>
	<path style="fill-rule:evenodd;clip-rule:evenodd;fill:url(#SVGID_00000173143044988580426080000000660736741626195584_);" d="
		M113.2,133.4c-2.7-1.1-5.8-2.1-9.4-3.1c3.8-7.1,4.5-17.7,1-24.4c-5-9.4-11.2-14.4-25.7-14.4c-8,0-29.5,2.9-29.9,21.9
		c0,2,0,3.8,0.1,5.5l39.3,0.3c-5.3,8.9-10.2,15.5-14.6,20.6c5.2,1.4,9.5,2.6,13.5,3.7c3.7,1,7.2,2,10.8,3
		C103.7,142.4,108.8,137.8,113.2,133.4z"/>
	
		<linearGradient id="SVGID_00000051385894061896207510000003341435291484166839_" gradientUnits="userSpaceOnUse" x1="66.748" y1="93.4063" x2="113.5808" y2="37.3768" gradientTransform="matrix(1 0 0 -1 0 199.8898)">
		<stop  offset="0" style="stop-color:#FFFFFF"/>
		<stop  offset="0.9839" style="stop-color:#D1D8FF"/>
	</linearGradient>
	<path style="fill:url(#SVGID_00000051385894061896207510000003341435291484166839_);" d="M44.3,117.1c1.6,14.5,9.4,20.2,25.2,21.8
		c15.8,1.7,24.9,0.6,37,1.7c10.1,1,19.1,6.4,22.5,4.6c3-1.7,1.3-7.8-2.7-11.8c-5.2-5.1-12.4-8.7-25.2-9.9c2.5-7.4,1.8-17.7-2.1-23.3
		C93.2,92,82.7,88.4,69.4,90C55.6,91.6,42.3,98.9,44.3,117.1z"/>
</g>
</svg>