<?xml version="1.0" encoding="utf-8"?>
<!-- Generator: Adobe Illustrator 26.4.1, SVG Export Plug-In . SVG Version: 6.00 Build 0)  -->
<svg version="1.1" id="Layer_1" xmlns="http://www.w3.org/2000/svg" xmlns:xlink="http://www.w3.org/1999/xlink" x="0px" y="0px"
	 viewBox="0 0 547.05 839.6" style="enable-background:new 0 0 547.05 839.6;" xml:space="preserve">
<style type="text/css">
	.st0{fill:#181B30;}
	.st1{fill:#FFFFFF;}
	.st2{fill:url(#SVGID_1_);}
	.st3{fill:url(#SVGID_00000183236690252936625730000013337411851962873277_);}
	.st4{fill:url(#SVGID_00000150816142687601366080000011949074826198284202_);}
	.st5{opacity:0.1;fill:#4D4D4D;}
	.st6{opacity:0.3;fill:#4D4D4D;}
</style>
<g>
	<path class="st0" d="M102.74,622.83H92.2v31.89H70.02v-97.06h38.83c18.44,0,33.28,14.84,33.28,33.28
		c0,11.92-7.21,22.74-17.89,28.15l20.66,35.64h-23.85L102.74,622.83z M92.2,603.42h16.64c6.1,0,11.09-5.41,11.09-12.48
		c0-7.07-4.99-12.48-11.09-12.48H92.2V603.42z"/>
	<path class="st0" d="M222.27,585.4v69.33h-20.8v-6.52c-4.58,5.27-11.37,8.46-20.66,8.46c-18.16,0-33.14-15.95-33.14-36.61
		s14.98-36.61,33.14-36.61c9.29,0,16.08,3.19,20.66,8.46v-6.52H222.27z M201.47,620.06c0-10.4-6.93-16.92-16.5-16.92
		s-16.5,6.52-16.5,16.92s6.93,16.92,16.5,16.92S201.47,630.46,201.47,620.06z"/>
	<path class="st0" d="M304.09,612.16v42.57h-20.8v-39.52c0-8.6-5.41-12.62-12.06-12.62c-7.63,0-12.9,4.44-12.9,14.28v37.85h-20.8
		V585.4h20.8v6.52c3.74-5.13,10.68-8.46,19.83-8.46C292.16,583.46,304.09,593.44,304.09,612.16z"/>
	<path class="st0" d="M389.51,585.4v65.86c0,23.3-18.17,33.14-36.61,33.14c-14.42,0-26.49-5.41-32.86-16.78l17.75-10.26
		c2.64,4.85,6.66,8.73,15.81,8.73c9.71,0,15.67-4.99,15.67-14.84v-6.38c-4.58,5.68-11.23,9.01-20.25,9.01
		c-19.69,0-34.11-16.08-34.11-35.22s14.42-35.22,34.11-35.22c9.01,0,15.67,3.33,20.25,9.01v-7.07H389.51z M369.27,618.67
		c0-9.57-6.93-16.08-16.78-16.08s-16.78,6.52-16.78,16.08s6.93,16.08,16.78,16.08S369.27,628.24,369.27,618.67z"/>
	<path class="st0" d="M401.3,620.06c0-20.66,16.36-36.61,36.74-36.61c20.38,0,36.75,15.94,36.75,36.61s-16.36,36.61-36.75,36.61
		C417.67,656.67,401.3,640.72,401.3,620.06z M453.99,620.06c0-9.84-6.93-16.36-15.95-16.36s-15.94,6.52-15.94,16.36
		s6.93,16.36,15.94,16.36S453.99,629.9,453.99,620.06z"/>
</g>
<g>
	<g>
		<path class="st0" d="M73.9,745.33h30.28v4.33H69.31v-60.57h34.44v4.33H73.9v23.54h27.69v4.33H73.9V745.33z"/>
		<path class="st0" d="M151.77,749.65h-5.28l-14.62-18.86l-14.62,18.86h-5.28l17.3-22.24l-16.27-21.03h5.28l13.59,17.56l13.67-17.56
			h5.19l-16.18,20.94L151.77,749.65z"/>
		<path class="st0" d="M179.72,750.61c-6.52,0-11.94-2.16-16.27-6.49c-4.33-4.33-6.49-9.69-6.49-16.09c0-6.4,2.16-11.77,6.49-16.09
			c4.33-4.33,9.75-6.49,16.27-6.49c4.21,0,8.02,0.99,11.42,2.98c3.4,1.99,5.88,4.69,7.44,8.09l-3.55,2.08
			c-1.27-2.77-3.27-4.96-6.01-6.58c-2.74-1.61-5.84-2.42-9.3-2.42c-5.19,0-9.55,1.77-13.07,5.32c-3.52,3.55-5.28,7.92-5.28,13.11
			s1.76,9.56,5.28,13.11c3.52,3.55,7.87,5.32,13.07,5.32c3.46,0,6.56-0.81,9.3-2.42c2.74-1.61,4.83-3.81,6.27-6.58l3.63,2.16
			c-1.73,3.35-4.31,6.01-7.74,8C187.75,749.61,183.93,750.61,179.72,750.61z"/>
		<path class="st0" d="M230.33,705.44c5.13,0,9.22,1.57,12.24,4.72c3.03,3.14,4.54,7.34,4.54,12.59v26.91h-4.41v-26.91
			c0-4.04-1.11-7.24-3.33-9.6c-2.22-2.36-5.35-3.55-9.39-3.55c-4.44,0-8.08,1.47-10.9,4.41c-2.83,2.94-4.24,7.21-4.24,12.81v22.84
			h-4.33v-60.57h4.33v25.53C217.96,708.5,223.12,705.44,230.33,705.44z"/>
		<path class="st0" d="M299.47,706.39h4.41v43.26h-4.41v-9.78c-1.85,3.35-4.38,5.97-7.62,7.87c-3.23,1.9-6.89,2.86-10.99,2.86
			c-6.17,0-11.45-2.18-15.83-6.53c-4.38-4.36-6.58-9.71-6.58-16.05s2.19-11.69,6.58-16.05c4.38-4.35,9.66-6.53,15.83-6.53
			c4.09,0,7.76,0.95,10.99,2.86c3.23,1.9,5.77,4.53,7.62,7.87V706.39z M268.19,741.09c3.55,3.58,7.89,5.37,13.02,5.37
			c5.13,0,9.46-1.79,12.98-5.37c3.52-3.57,5.28-7.93,5.28-13.06c0-5.13-1.76-9.49-5.28-13.06c-3.52-3.58-7.84-5.37-12.98-5.37
			c-5.13,0-9.47,1.79-13.02,5.37c-3.55,3.58-5.32,7.93-5.32,13.06C262.87,733.16,264.64,737.51,268.19,741.09z"/>
		<path class="st0" d="M339.1,705.44c5.13,0,9.21,1.57,12.24,4.72c3.03,3.14,4.54,7.34,4.54,12.59v26.91h-4.41v-26.91
			c0-4.04-1.11-7.24-3.33-9.6c-2.22-2.36-5.35-3.55-9.39-3.55c-4.44,0-8.08,1.47-10.9,4.41c-2.83,2.94-4.24,7.21-4.24,12.81v22.84
			h-4.33v-43.26h4.33v8.22C326.72,708.5,331.88,705.44,339.1,705.44z"/>
		<path class="st0" d="M408.57,706.39h4.33v41.19c0,6.29-2.05,11.25-6.14,14.88c-4.1,3.63-9.23,5.45-15.4,5.45
			c-4.96,0-9.2-0.92-12.72-2.77c-3.52-1.85-6.09-4.38-7.7-7.61l3.81-2.16c2.77,5.59,8.31,8.39,16.61,8.39
			c5.36,0,9.57-1.46,12.63-4.37c3.06-2.91,4.59-6.85,4.59-11.81v-7.96c-1.79,3.4-4.31,6.09-7.57,8.05
			c-3.26,1.96-6.94,2.94-11.03,2.94c-6.23,0-11.52-2.18-15.88-6.53c-4.36-4.36-6.53-9.71-6.53-16.05s2.18-11.69,6.53-16.05
			c4.35-4.35,9.65-6.53,15.88-6.53c4.09,0,7.77,0.98,11.03,2.94c3.26,1.96,5.78,4.64,7.57,8.05V706.39z M377.21,741.09
			c3.55,3.58,7.89,5.37,13.02,5.37c5.13,0,9.47-1.79,13.02-5.37c3.55-3.57,5.32-7.93,5.32-13.06c0-5.13-1.77-9.49-5.32-13.06
			c-3.55-3.58-7.89-5.37-13.02-5.37c-5.13,0-9.47,1.79-13.02,5.37c-3.55,3.58-5.32,7.93-5.32,13.06
			C371.89,733.16,373.66,737.51,377.21,741.09z"/>
		<path class="st0" d="M447.77,705.44c6.35,0,11.49,2.25,15.44,6.75c3.95,4.5,5.93,9.84,5.93,16.01c0,0.23-0.02,0.58-0.04,1.04
			c-0.03,0.46-0.04,0.81-0.04,1.04h-39.2c0.52,4.85,2.47,8.76,5.84,11.72c3.38,2.97,7.54,4.46,12.5,4.46c3.46,0,6.49-0.72,9.08-2.16
			c2.6-1.44,4.56-3.35,5.88-5.71l3.81,2.25c-1.79,3-4.33,5.38-7.61,7.14c-3.29,1.76-7.04,2.64-11.25,2.64
			c-6.64,0-12.08-2.12-16.35-6.36c-4.27-4.24-6.4-9.65-6.4-16.22c0-6.46,2.09-11.84,6.27-16.14
			C435.81,707.59,441.19,705.44,447.77,705.44z M447.77,709.59c-4.9,0-9,1.53-12.29,4.59c-3.29,3.06-5.16,7.01-5.62,11.85h34.78
			c-0.46-5.13-2.29-9.16-5.49-12.07C455.95,711.05,452.15,709.59,447.77,709.59z"/>
	</g>
</g>
<g>
	<circle class="st1" cx="272.58" cy="273.81" r="203.16"/>
	<g>
		<linearGradient id="SVGID_1_" gradientUnits="userSpaceOnUse" x1="236.934" y1="175.0565" x2="434.7535" y2="175.0565">
			<stop  offset="0" style="stop-color:#469BF5"/>
			<stop  offset="0.0911" style="stop-color:#3B81F4"/>
			<stop  offset="0.2081" style="stop-color:#3068F3"/>
			<stop  offset="0.3386" style="stop-color:#2754F2"/>
			<stop  offset="0.4881" style="stop-color:#2147F1"/>
			<stop  offset="0.673" style="stop-color:#1D3EF1"/>
			<stop  offset="1" style="stop-color:#1C3CF1"/>
		</linearGradient>
		<path class="st2" d="M244.87,209.44c0,0,8.52,4.73,21.44,11.88l168.44-69.87c-6.08-8.05-12.76-15.61-19.94-22.66
			c-1.18,0.66-2.17,1.06-2.17,1.06l-175.71,73.88C238.92,205.75,241.52,207.68,244.87,209.44z"/>
		
			<linearGradient id="SVGID_00000124148544679154182110000005895597271090709150_" gradientUnits="userSpaceOnUse" x1="69.4225" y1="273.8079" x2="475.7417" y2="273.8079">
			<stop  offset="0.0754" style="stop-color:#469BF5"/>
			<stop  offset="0.7046" style="stop-color:#2857F2"/>
			<stop  offset="1" style="stop-color:#1C3CF1"/>
		</linearGradient>
		<path style="fill:url(#SVGID_00000124148544679154182110000005895597271090709150_);" d="M452.64,179.74l-31.03,12.02
			c-24.84,9.09-122.59,47.63-122.59,47.63c15.98,8.81,33.24,18.3,48.45,26.61c38.87,21.23,14.26,67.84,9.13,76.68
			c-0.07,0.12-0.14,0.24-0.21,0.36c-0.42,0.71-0.68,1.12-0.68,1.12s3.65-34.83-20.89-47.7c-24.74-12.85-81.47-43.07-105.31-55.79
			c-11.23-5.99-19.38-16.86-20.92-29.49c-1.15-9.45,1.22-20.32,12.57-29.85c6.62-6.12,13.73-9.43,13.73-9.43l126.74-52
			c0,0,0.8-0.32,1.97-0.92l26.36-10.94c-33.15-23.51-73.62-37.38-117.36-37.38c-112.2,0-203.16,90.96-203.16,203.16
			c0,36.12,9.47,70.01,25.99,99.4l49.03-21.37h0l97.61-40.96c-16.82-9.23-32.38-17.82-39.76-21.75c-3.69-1.97-8.29-5.06-11.98-7.02
			c-19.77-10.46-32.73-39.95-2.72-74.97c0,0-3.12,33.22,15.47,44.52c17.71,10.76,86.42,45.95,106.82,56.89
			c5.23,2.8,10.05,6.39,13.89,10.92c7.95,9.4,10.96,21.01,7.63,33.27c-0.16,0.62-0.36,1.19-0.55,1.79
			c-0.12,0.38-0.24,0.77-0.38,1.15c-0.21,0.59-0.42,1.17-0.65,1.73c-0.07,0.18-0.13,0.36-0.21,0.54
			c-6.99,16.9-25.6,21.98-25.6,21.98l-2.26,0.75l-118.62,48.67l-26.16,11.49c32.82,22.76,72.64,36.13,115.61,36.13
			c112.2,0,203.16-90.96,203.16-203.16C475.74,239.85,467.37,207.87,452.64,179.74z"/>
		
			<linearGradient id="SVGID_00000067923609604366860380000015748342046547119787_" gradientUnits="userSpaceOnUse" x1="111.8223" y1="374.3814" x2="306.6089" y2="374.3814">
			<stop  offset="0.0754" style="stop-color:#469BF5"/>
			<stop  offset="0.2387" style="stop-color:#4292F5"/>
			<stop  offset="0.5078" style="stop-color:#3779F4"/>
			<stop  offset="0.8475" style="stop-color:#2550F2"/>
			<stop  offset="1" style="stop-color:#1C3CF1"/>
		</linearGradient>
		<path style="fill:url(#SVGID_00000067923609604366860380000015748342046547119787_);" d="M274.9,328.75l-130.14,55.28
			l-32.94,13.92c6.05,7.83,12.67,15.2,19.78,22.06l4.52-2.27l170.49-71.08L274.9,328.75z"/>
	</g>
	<polygon class="st5" points="242.06,310.88 274.9,328.75 258.48,335.72 224.09,318.42 	"/>
	<path class="st5" d="M304.01,379.92c0,0,27.28-19.31,2.6-33.25l-15.5,6.46C291.11,353.13,316.96,360.06,304.01,379.92z"/>
	<polygon class="st5" points="242.06,310.88 274.9,328.75 258.48,335.72 224.09,318.42 	"/>
	<path class="st5" d="M304.01,379.92c0,0,27.28-19.31,2.6-33.25l-15.5,6.46C291.11,353.13,316.96,360.06,304.01,379.92z"/>
	<path class="st6" d="M253.78,196.33l-17.36,7.3c0,0-25.13-21.96,5.58-34.56C242,169.07,232.03,185.96,253.78,196.33z"/>
	<polygon class="st6" points="299.01,239.59 266.04,221.37 281.9,214.79 314.27,233.44 	"/>
</g>
</svg>
