<?xml version="1.0" encoding="UTF-8"?>
<svg xmlns="http://www.w3.org/2000/svg" xmlns:xlink="http://www.w3.org/1999/xlink" width="200px" height="px" viewBox="0 0 200 200" version="1.1">
<defs>
<linearGradient id="linear0" gradientUnits="userSpaceOnUse" x1="35" y1="1249.2756" x2="2492" y2="1249.2756" gradientTransform="matrix(0.08,0,0,-0.08,0,199.942048)">
<stop offset="0" style="stop-color:rgb(45.098039%,29.803922%,88.627451%);stop-opacity:1;"/>
<stop offset="0.6196" style="stop-color:rgb(37.647059%,30.196078%,94.509804%);stop-opacity:1;"/>
<stop offset="1" style="stop-color:rgb(32.156863%,30.196078%,98.431373%);stop-opacity:1;"/>
</linearGradient>
</defs>
<g id="surface1">
<path style=" stroke:none;fill-rule:evenodd;fill:url(#linear0);" d="M 40 0 L 160 0 C 182 0 200 18 200 40 L 200 160 C 200 182 182 200 160 200 L 40 200 C 18 200 0 182 0 160 L 0 40 C 0 18 18 0 40 0 Z M 40 0 "/>
<path style=" stroke:none;fill-rule:nonzero;fill:rgb(100%,100%,100%);fill-opacity:1;" d="M 128.800781 70.640625 C 131.121094 70.640625 133.199219 71.519531 134.800781 73.199219 L 143.921875 82.320312 C 145.199219 83.601562 146.800781 84.238281 148.558594 84.238281 C 150.078125 84.238281 151.519531 83.761719 152.640625 82.71875 C 154.078125 81.519531 154.800781 79.761719 154.800781 77.921875 C 154.800781 76.238281 154.160156 74.640625 152.960938 73.359375 L 144 64.398438 C 139.921875 60.320312 134.480469 58.078125 128.800781 58.078125 C 123.039062 58.078125 117.601562 60.320312 113.601562 64.398438 L 52.960938 125.039062 C 50.238281 127.761719 46.640625 129.28125 42.800781 129.28125 C 39.28125 129.28125 35.839844 127.921875 33.28125 125.519531 C 30.480469 122.878906 28.960938 119.28125 28.960938 115.441406 C 28.960938 111.761719 30.480469 108.238281 33.039062 105.601562 L 35.761719 102.878906 L 40.960938 108.078125 L 40.960938 88.320312 L 21.121094 88.320312 L 26.71875 93.921875 L 24.238281 96.398438 C 13.761719 106.878906 13.601562 123.839844 23.921875 134.238281 C 28.960938 139.28125 35.601562 142.078125 42.800781 142.078125 C 49.921875 142.078125 56.558594 139.359375 61.601562 134.320312 L 122.71875 73.199219 C 124.238281 71.601562 126.320312 70.71875 128.640625 70.71875 Z M 128.800781 70.640625 "/>
<path style=" stroke:none;fill-rule:nonzero;fill:rgb(100%,100%,100%);fill-opacity:1;" d="M 175.601562 96.320312 L 171.039062 91.761719 L 176.640625 86.160156 L 156.878906 86.160156 L 156.878906 105.921875 L 162.078125 100.71875 L 166.878906 105.519531 C 169.441406 108.078125 170.960938 111.679688 170.960938 115.359375 C 170.960938 119.199219 169.441406 122.800781 166.640625 125.441406 C 164.078125 127.921875 160.71875 129.199219 157.121094 129.199219 C 153.28125 129.199219 149.679688 127.679688 146.960938 124.960938 L 114.558594 92.558594 L 105.601562 101.519531 L 138.238281 134.160156 C 143.28125 139.199219 149.921875 141.921875 157.039062 141.921875 C 164.160156 141.921875 170.878906 139.121094 175.921875 134.078125 C 186 123.761719 185.839844 106.800781 175.441406 96.238281 Z M 175.601562 96.320312 "/>
<path style=" stroke:none;fill-rule:nonzero;fill:rgb(100%,100%,100%);fill-opacity:1;" d="M 45.359375 84.558594 C 46.480469 85.519531 47.921875 86.078125 49.441406 86.078125 C 51.121094 86.078125 52.878906 85.359375 54.078125 84.160156 L 65.121094 73.121094 C 66.71875 71.519531 68.800781 70.558594 71.121094 70.558594 C 73.441406 70.558594 75.519531 71.441406 77.121094 73.121094 L 85.28125 81.28125 L 94.238281 72.238281 L 86.320312 64.320312 C 82.238281 60.238281 76.800781 58 71.121094 58 C 65.359375 58 59.921875 60.238281 55.921875 64.320312 L 44.960938 75.199219 C 43.761719 76.398438 43.121094 78 43.121094 79.761719 C 43.121094 81.601562 43.921875 83.28125 45.359375 84.558594 Z M 45.359375 84.558594 "/>
</g>
</svg>
