<?xml version="1.0" encoding="utf-8"?>
<!-- Generator: Adobe Illustrator 26.4.1, SVG Export Plug-In . SVG Version: 6.00 Build 0)  -->
<svg version="1.1" id="Layer_1" xmlns="http://www.w3.org/2000/svg" xmlns:xlink="http://www.w3.org/1999/xlink" x="0px" y="0px"
	 viewBox="0 0 200 200" style="enable-background:new 0 0 200 200;" xml:space="preserve">
<style type="text/css">
	.st0{fill:url(#SVGID_1_);}
	.st1{fill:#FFFFFF;}
</style>
<linearGradient id="SVGID_1_" gradientUnits="userSpaceOnUse" x1="9.094947e-13" y1="100" x2="200" y2="100">
	<stop  offset="0.6338" style="stop-color:#764AED"/>
	<stop  offset="1" style="stop-color:#554DFF"/>
</linearGradient>
<circle class="st0" cx="100" cy="100" r="100"/>
<g id="_x30_w19IT_00000032625753936434351030000007077415936826890929_">
</g>
<g>
	<path class="st1" d="M127.2,73.6c0.9,0.1,1.8,0.4,2.6,1c1.6,1,2.7,2.5,4,3.7c1.8,1.6,3.5,3.4,5.2,5.1c0.3,0.3,0.5,0.5,0.8,0.8
		c3.2,2.9,8.2,1.6,9.4-2.5c0.7-2.3,0.1-4.3-1.6-5.9c-2.7-2.7-5.3-5.3-8-8c-1.9-1.9-4-3.3-6.5-4.2c-0.4-0.1-0.7-0.3-1.1-0.4
		c-1.3-0.3-2.6-0.7-4-0.8c-3.7-0.4-7.2,0.2-10.5,1.7c-1.9,0.9-3.6,2.1-5.1,3.6c-7.4,7.3-14.7,14.8-22.2,22.1c-0.6,0.5-1,1.1-1.6,1.7
		c-8.9,8.9-17.8,17.8-26.7,26.7c-1.5,1.5-3,3.1-4.6,4.6c-4.2,4.1-10.7,4.8-15.6,1.8c-6.7-4.2-7.8-13.6-2.3-19.4
		c0.7-0.7,1.5-1.5,2.2-2.2c0.4-0.4,0.4-0.4,0.8,0c1.2,1.2,2.4,2.4,3.6,3.6c0.2,0.2,0.3,0.4,0.5,0.4c0.1-0.1,0.1-0.2,0.1-0.3
		c0-5.6,0-11.1,0-16.7c0-0.6,0-0.6-0.7-0.6c-5.5,0-11.1,0-16.6,0c-0.2,0-0.3-0.1-0.5,0.1c0.1,0.2,0.2,0.3,0.4,0.4
		c1.4,1.4,2.8,2.8,4.1,4.1c0.4,0.4,0.4,0.4,0,0.8c-0.6,0.6-1.3,1.2-1.9,1.9c-6,6.4-8.3,13.9-6.5,22.5c2.5,11.7,13.8,20.2,26.8,18.3
		c5.3-0.7,9.8-3.1,13.6-6.9c18.3-18.3,36.6-36.6,54.9-54.9C122.4,73.9,124.6,73.3,127.2,73.6z"/>
	<path class="st1" d="M175.1,110.4c-0.8-5.3-3.1-9.9-7-13.8c-1.2-1.2-2.4-2.4-3.6-3.6c-0.5-0.5-0.5-0.4,0-0.9
		c1.4-1.4,2.7-2.7,4.1-4.1c0.1-0.1,0.3-0.2,0.3-0.4c-0.1-0.1-0.2-0.1-0.3-0.1c-5.6,0-11.1,0-16.7,0c-0.6,0-0.6,0-0.6,0.6
		c0,5.5,0,11,0,16.5c0,0.1-0.1,0.3,0.2,0.5c0.2-0.2,0.3-0.3,0.5-0.5c1.2-1.2,2.4-2.4,3.6-3.6c0.4-0.4,0.4-0.4,0.9,0
		c1.3,1.3,2.6,2.6,3.9,3.9c2.7,2.8,3.9,6,3.6,9.9c-0.5,6.6-6,11.6-12.6,11.5c-3.5-0.1-6.5-1.3-8.9-3.8c-4.3-4.3-8.5-8.5-12.8-12.8
		c-0.2-0.2-0.4-0.5-0.6-0.7c-0.2-0.1-0.4-0.3-0.6-0.5c-4.9-4.9-9.7-9.7-14.6-14.6c-0.2-0.2-0.4-0.5-0.5-0.7
		c-0.4,0.2-0.5,0.4-0.7,0.6c-2.3,2.3-4.6,4.6-6.9,6.9c-0.7,0.7-0.7,0.5,0,1.2c7.8,7.8,15.5,15.5,23.3,23.3c0.2,0.2,0.5,0.3,0.5,0.6
		c1.6,1.8,3.4,3.3,5.1,5c5.9,5.7,13.1,7.9,21.1,6.5C168.9,135.1,177,123.3,175.1,110.4z"/>
	<path class="st1" d="M54.2,87.5c1.8,0.1,3.3-0.6,4.6-1.9c1.8-1.8,3.5-3.5,5.3-5.3c1.5-1.5,3-3,4.5-4.5c2-2,4.4-2.6,7.2-2
		c1.5,0.3,2.7,1.1,3.8,2.2c2.3,2.3,4.5,4.5,6.8,6.8c0.5,0.5,0.4,0.5,0.9,0c2.4-2.4,4.8-4.9,7.3-7.3c0.4-0.4,0.4-0.4,0-0.8
		c-2.3-2.3-4.6-4.6-6.9-6.9c-0.7-0.7-1.5-1.4-2.4-2c-4-2.8-8.5-3.9-13.4-3.4c-2.6,0.3-5,1.1-7.3,2.3c-1.4,0.7-2.6,1.7-3.7,2.8
		c-3.4,3.4-6.9,6.8-10.3,10.3c-1.1,1.1-1.6,2.5-1.7,4C48.7,84.8,51.1,87.3,54.2,87.5z"/>
</g>
</svg>
