<?xml version="1.0" encoding="utf-8"?>
<svg version="1.1" id="Layer_1" xmlns="http://www.w3.org/2000/svg" xmlns:xlink="http://www.w3.org/1999/xlink" x="0px" y="0px"
	 viewBox="0 0 200 200" style="enable-background:new 0 0 200 200;" xml:space="preserve">
<style type="text/css">
	.st0{fill-rule:evenodd;clip-rule:evenodd;fill:#FBD52E;}
	.st1{fill-rule:evenodd;clip-rule:evenodd;fill:url(#SVGID_1_);}
</style>
<circle cx="100" cy="100" r="100"/>
<path class="st0" d="M263.4-7.6"/>
<linearGradient id="SVGID_1_" gradientUnits="userSpaceOnUse" x1="53.2589" y1="153.7529" x2="153.8608" y2="53.1466" gradientTransform="matrix(1 0 0 -1 0 199.89)">
	<stop  offset="0" style="stop-color:#FFB0AB"/>
	<stop  offset="0.4635" style="stop-color:#FF6D63"/>
	<stop  offset="1" style="stop-color:#FF4337"/>
</linearGradient>
<path class="st1" d="M149.9,55.6l-5.9,87.2c0,0-0.1,0.1-0.1,0.1c-0.3,2.1-1,3.8-2.3,5c-5.7,5.7-20.4,0.9-37.2-11l4.2-4.2
	c4.3,3,8.3,5.4,12.1,7.3c5.1,2.5,9.3,3.9,12.4,4.3c3.2,0.4,4.2-0.4,4.4-0.6c0.2-0.2,1-1.2,0.6-4.4c-0.4-3.1-1.8-7.3-4.3-12.4
	c-4.8-9.5-13.1-21-24.2-32.4l-50.7,50.7l1-9.2l45.6-45.6C94,79.4,82.5,71.1,73,66.3c-5.1-2.5-9.3-3.9-12.4-4.3
	c-3.2-0.4-4.2,0.4-4.4,0.6c-0.2,0.2-1,1.2-0.6,4.4c0.4,3.1,1.8,7.3,4.3,12.4c1.9,3.8,4.3,7.8,7.3,12.1l-4.2,4.2
	c-11.8-16.8-16.7-31.5-11-37.2c1.3-1.3,3-2,5-2.3c0,0,0.1-0.1,0.1-0.1l87.2-5.9l5.9-0.4L149.9,55.6z M112.6,58.1l27-1.8L126.9,69
	C121.8,64.1,116.8,60.6,112.6,58.1z M101.3,58.9l-26.4,1.8c10.3,5.1,22.7,14,34.7,25.6l13.2-13.2c-5.5-5.2-10.9-8.8-15-11.1
	c-2.3-1.3-4.2-2.1-5.4-2.7C101.9,59.1,101.6,59,101.3,58.9z M126.9,77.3l-9,9l-4.1,4.1c11.7,12,20.6,24.3,25.6,34.7l1.9-27.3
	c-0.1-0.3-0.3-0.6-0.5-1c-0.6-1.2-1.6-3.1-2.9-5.3C135.4,87.8,131.9,82.7,126.9,77.3z M131,73.1c4.8,5.2,8.4,10.1,10.9,14.1
	l1.8-26.8L131,73.1z M83.4,89.1l-19.5,19.5l-1,9.2l26-26L83.4,89.1z M108.2,111.1l-26,26l9.2-1l19.9-19.9L108.2,111.1z"/>
<g id="_x30_A17TZ.tif">
	
		<image style="overflow:visible;" width="1446" height="394" id="Layer_0_00000093871597889851900240000003630135754966488252_" xlink:href="7FAC6394D5C52F2A.png"  transform="matrix(0.5 0 0 0.5 -215.7798 -530.4675)">
	</image>
</g>
</svg>
