<?xml version="1.0" encoding="utf-8"?>
<!-- Generator: Adobe Illustrator 26.4.1, SVG Export Plug-In . SVG Version: 6.00 Build 0)  -->
<svg version="1.1" id="Layer_1" xmlns="http://www.w3.org/2000/svg" xmlns:xlink="http://www.w3.org/1999/xlink" x="0px" y="0px"
	 viewBox="0 0 200 200" style="enable-background:new 0 0 200 200;" xml:space="preserve">
<style type="text/css">
	.st0{fill:url(#SVGID_1_);}
	.st1{fill:none;stroke:#FFFFFF;stroke-width:3.125;stroke-miterlimit:25;}
	.st2{fill:#FFFFFF;}
</style>
<g id="surface1">
	
		<linearGradient id="SVGID_1_" gradientUnits="userSpaceOnUse" x1="16.0563" y1="199.6321" x2="16.0563" y2="168.3564" gradientTransform="matrix(6.25 0 0 -6.25 0 1250)">
		<stop  offset="0" style="stop-color:#00CC95"/>
		<stop  offset="1" style="stop-color:#009D73"/>
	</linearGradient>
	<path class="st0" d="M100.4,197.8c54,0,97.7-43.8,97.7-97.7c0-54-43.8-97.7-97.7-97.7c-54,0-97.7,43.8-97.7,97.7
		C2.6,154,46.4,197.8,100.4,197.8z"/>
	<path class="st1" d="M100.4,196.2c53.1,0,96.2-43.1,96.2-96.2S153.5,3.8,100.4,3.8S4.1,46.9,4.1,100S47.2,196.2,100.4,196.2z"/>
	<path class="st2" d="M145.1,118.2h-0.6c-1.6,1.9-3.8,3.2-6.1,4.2h-0.3c-1.9,1-4.2,1.3-6.4,1.3c-3.2,0.3-6.4-0.6-9.6-1.9h-0.6
		c-2.9-1.6-5.1-3.8-6.7-6.4v-0.6l-6.1,6.1c0,0-1.3,6.1-1.6,9.3h0.3c6.1,6.7,15.1,10.9,24.4,10.9h1c6.1,0,11.9-1.6,17.3-4.5
		c2.9-1.6,5.5-3.2,8-5.5h0.3L145.1,118.2z"/>
	<path class="st2" d="M58.5,87.7l2.6,9.3l0.6-0.6c2.6-3.8,6.7-6.7,11.2-7.4h0.3c1.6-0.3,3.2-0.6,5.1-0.6c2.6,0.3,5.1,1,7.4,2.2
		c3.2,1.6,5.8,3.8,8,6.7l0.6,0.6l5.8-8.3l1.6-8.7l-0.6-0.6c-3.8-3.5-8.3-6.1-13.1-7.7c-2.6-1-5.5-1.3-8.3-1.6h-0.3
		c-6.4,0-12.5,1.6-18,4.8l-2.6,10.9L58.5,87.7z"/>
	<path class="st2" d="M113.4,111.8V106c0-4.2,1.3-8,3.8-11.2h0.3l1-1.3c3.5-3.5,8-5.5,13.1-5.5h2.6c3.8,0.6,7.7,2.6,10.6,5.1h-0.3
		L157,80.6h-0.6c-6.1-6.1-14.4-9.9-23.1-10.3h-2.6c-5.1,0-10.3,1-15.4,2.9c-3.2,1.3-6.1,3.5-8.3,5.8h-0.6l-2.6,2.9l-1.9,8.7l-6.7,9
		v6.4c0,7.1-4.2,13.5-10.6,16.4c-9.6,4.2-20.5-0.3-24.7-9.9c-1-1.9-1.3-4.2-1.6-6.4v-6.1L55,87.1l2.9-11.9V56.6l-18-6.1l0.6,41.4
		v14.4c0,0.6,0,1,0.3,1.6h0.3c0.6,10.3,5.5,19.6,13.5,25.7c6.7,5.1,14.8,7.7,23.1,7.7h1.6c8.3,0,16.7-3.2,22.8-8.7l2.6-2.9l1.9-10.3
		L113.4,111.8z"/>
</g>
</svg>
