<?xml version="1.0" encoding="utf-8"?>
<!-- Generator: Adobe Illustrator 26.4.1, SVG Export Plug-In . SVG Version: 6.00 Build 0)  -->
<svg version="1.1" id="Layer_1" xmlns="http://www.w3.org/2000/svg" xmlns:xlink="http://www.w3.org/1999/xlink" x="0px" y="0px"
	 viewBox="0 0 200 200" style="enable-background:new 0 0 200 200;" xml:space="preserve">
<style type="text/css">
	.st0{fill:url(#SVGID_1_);}
	.st1{fill:#FFFFFF;}
</style>
<g id="surface1">
	
		<linearGradient id="SVGID_1_" gradientUnits="userSpaceOnUse" x1="-314.96" y1="97.264" x2="-314.96" y2="65.264" gradientTransform="matrix(6.25 0 0 -6.25 2068.5 608)">
		<stop  offset="0" style="stop-color:#00CC95"/>
		<stop  offset="1" style="stop-color:#009D73"/>
	</linearGradient>
	<path class="st0" d="M100,200.1c55.3,0,100-44.8,100-100c0-55.3-44.8-100-100-100C44.7,0.1,0,44.9,0,100.1
		C-0.1,155.3,44.7,200.1,100,200.1z"/>
	<path class="st1" d="M149.9,120.7h-0.7c-1.7,2.1-4.2,3.6-6.8,4.7h-0.3c-2.1,1.1-4.7,1.4-7.2,1.4c-3.6,0.3-7.2-0.7-10.7-2.1h-0.7
		c-3.3-1.7-5.7-4.2-7.5-7.2v-0.7l-6.8,6.8c0,0-1.4,6.8-1.7,10.3h0.3c6.8,7.5,16.9,12.2,27.2,12.2h1.1c6.8,0,13.3-1.7,19.3-5
		c3.3-1.7,6.1-3.6,8.9-6.1h0.3L149.9,120.7z"/>
	<path class="st1" d="M53.3,86.7L56.2,97l0.7-0.7c2.9-4.2,7.5-7.5,12.5-8.3h0.3c1.7-0.3,3.6-0.7,5.7-0.7c2.9,0.3,5.7,1.1,8.3,2.5
		c3.6,1.7,6.4,4.2,8.9,7.5l0.7,0.7l6.4-9.2l1.7-9.7l-0.7-0.7c-4.2-3.9-9.2-6.8-14.6-8.6C83.3,68.6,80,68.3,77,68h-0.3
		c-7.2,0-13.9,1.7-20.1,5.3l-2.9,12.2L53.3,86.7z"/>
	<path class="st1" d="M114.6,113.5v-6.4c0-4.7,1.4-8.9,4.2-12.5h0.3l1.1-1.4c3.9-3.9,8.9-6.1,14.6-6.1h2.9c4.2,0.7,8.6,2.9,11.9,5.7
		h-0.3l13.9-13.9h-0.7c-6.8-6.8-16.1-11.1-25.8-11.5h-2.9c-5.7,0-11.5,1.1-17.2,3.3c-3.6,1.4-6.8,3.9-9.2,6.4h-0.7l-2.9,3.3
		l-2.1,9.7l-7.5,10v7.2c0,7.9-4.7,15-11.9,18.3c-10.7,4.7-22.8-0.3-27.5-11.1c-1.1-2.1-1.4-4.7-1.7-7.2v-6.8L49.4,86l3.3-13.3V52
		l-20.1-6.8l0.7,46.2v16.1c0,0.7,0,1.1,0.3,1.7H34c0.7,11.5,6.1,21.9,15,28.7c7.5,5.7,16.5,8.6,25.8,8.6h1.7
		c9.2,0,18.6-3.6,25.4-9.7l2.9-3.3L107,122L114.6,113.5z"/>
</g>
</svg>
