<?xml version="1.0" encoding="utf-8"?>
<!-- Generator: Adobe Illustrator 26.4.1, SVG Export Plug-In . SVG Version: 6.00 Build 0)  -->
<svg version="1.1" id="Layer_1" xmlns="http://www.w3.org/2000/svg" xmlns:xlink="http://www.w3.org/1999/xlink" x="0px" y="0px"
	 viewBox="0 0 200 200" style="enable-background:new 0 0 200 200;" xml:space="preserve">
<style type="text/css">
	.st0{fill-rule:evenodd;clip-rule:evenodd;fill:#FBD52E;}
	.st1{fill:#FE4350;}
	.st2{fill:#FFFFFF;}
</style>
<path class="st0" d="M263.4-7.6"/>
<circle class="st1" cx="100" cy="100" r="100"/>
<g id="surface1">
	<path class="st2" d="M156.7,124.6H77.4V79.3H65.2v51.5c0.1,3.5,2.8,6.3,6.1,6.2h69.5l-14.4,13.2h-77V75.4h79.3
		c1.5,0,2.9-0.6,4.1-1.6l28-25.7c1.9-1.7,2.5-4.4,1.7-6.9c-1-2.4-3.2-4-5.7-4H71.3c-3.3,0-6,2.8-6.1,6.2V59h12.2v-9.3h63.4
		l-14.4,13.2H43.3c-3.3,0-6,2.7-6.1,6.2v87.4c0.1,3.5,2.8,6.3,6.1,6.2h85.4c1.5,0,2.9-0.6,4.1-1.6l28-25.7c1.9-1.7,2.5-4.4,1.7-6.9
		C161.5,126.2,159.2,124.6,156.7,124.6z"/>
</g>
</svg>
