<?xml version="1.0" encoding="UTF-8"?>
<svg xmlns="http://www.w3.org/2000/svg" xmlns:xlink="http://www.w3.org/1999/xlink" width="400px" height="400px" viewBox="0 0 400 400" version="1.1">
<g id="surface1">
<path style=" stroke:none;fill-rule:nonzero;fill:rgb(20%,45.882353%,73.333333%);fill-opacity:1;" d="M 400 200 C 400 310.457031 310.457031 400 200 400 C 89.542969 400 0 310.457031 0 200 C 0 89.542969 89.542969 0 200 0 C 310.457031 0 400 89.542969 400 200 Z M 400 200 "/>
<path style=" stroke:none;fill-rule:evenodd;fill:rgb(100%,100%,100%);fill-opacity:1;" d="M 298.15625 100.914062 C 301.636719 100.917969 304.96875 102.316406 307.410156 104.792969 C 309.851562 107.269531 311.199219 110.625 311.15625 114.101562 C 310.53125 151.363281 309.09375 179.863281 306.40625 202.421875 C 303.785156 224.980469 299.84375 241.742188 293.90625 255.300781 C 289.90625 264.363281 284.96875 271.863281 279.164062 278.242188 C 271.347656 286.683594 262.425781 292.804688 252.664062 298.621094 C 248.496094 301.113281 244.164062 303.574219 239.625 306.15625 C 229.925781 311.664062 219.265625 317.722656 207.164062 325.816406 C 202.800781 328.753906 197.09375 328.753906 192.730469 325.816406 C 180.449219 317.636719 169.648438 311.496094 159.871094 305.957031 C 157.695312 304.726562 155.566406 303.511719 153.484375 302.316406 C 142.046875 295.699219 131.746094 289.378906 122.746094 280.257812 C 116.746094 274.257812 111.558594 266.9375 107.425781 258.257812 C 101.804688 246.636719 97.984375 232.578125 95.1875 214.378906 C 91.398438 190.039062 89.539062 158.21875 88.839844 114.101562 C 88.785156 110.632812 90.113281 107.285156 92.53125 104.800781 C 95.003906 102.332031 98.351562 100.9375 101.84375 100.925781 L 107.21875 100.925781 C 123.78125 100.984375 160.339844 99.363281 191.960938 74.742188 C 196.65625 71.121094 203.203125 71.121094 207.898438 74.742188 C 239.519531 99.363281 276.078125 101.003906 292.71875 100.925781 M 269.097656 246.984375 C 273.160156 238.609375 276.539062 227.042969 279.097656 210.425781 C 282.160156 190.542969 284.035156 163.542969 284.917969 126.804688 C 265.417969 126.238281 231.917969 122.488281 199.976562 100.984375 C 168.039062 122.421875 134.539062 126.160156 115.101562 126.800781 C 115.789062 157.179688 117.160156 180.800781 119.351562 199.359375 C 121.851562 220.480469 125.410156 234.800781 129.851562 244.859375 C 132.789062 251.546875 136.039062 256.359375 139.910156 260.621094 C 145.097656 266.308594 151.660156 270.992188 160.589844 276.378906 C 164.296875 278.601562 168.390625 280.917969 172.828125 283.441406 C 180.757812 287.925781 189.828125 293.058594 199.949219 299.5 C 209.890625 293.160156 218.828125 288.078125 226.671875 283.621094 C 229.03125 282.277344 231.289062 281 233.449219 279.746094 C 244.449219 273.433594 252.566406 268.183594 258.628906 262.066406 C 262.71875 257.859375 266.039062 253.300781 269.101562 246.980469 "/>
</g>
</svg>
