<?xml version="1.0" encoding="utf-8"?>
<!-- Generator: Adobe Illustrator 26.4.1, SVG Export Plug-In . SVG Version: 6.00 Build 0)  -->
<svg version="1.1" id="Layer_1" xmlns="http://www.w3.org/2000/svg" xmlns:xlink="http://www.w3.org/1999/xlink" x="0px" y="0px"
	 viewBox="0 0 200 200" style="enable-background:new 0 0 200 200;" xml:space="preserve">
<style type="text/css">
	.st0{fill-rule:evenodd;clip-rule:evenodd;}
	.st1{fill:#CCFF00;}
	.st2{fill-rule:evenodd;clip-rule:evenodd;fill:#1CD7D2;}
</style>
<g id="surface1">
	<path class="st0" d="M100,5.7c52,0,94.2,42.2,94.2,94.2S152,194,100,194S5.8,151.8,5.8,99.8S48,5.7,100,5.7z"/>
</g>
<g>
	<path class="st1" d="M102.2,180c-13,0-24.7-5.3-33.2-13.8c-8.5-8.5-13.8-20.3-13.8-33.2c0-10,3.2-19.3,8.6-27l3.1,18.4
		c-0.6,2.7-1,5.6-1,8.6c0,10.1,4.1,19.1,10.7,25.7c6.6,6.6,15.7,10.7,25.7,10.7c10.1,0,19.1-4.1,25.7-10.7
		c6.6-6.6,10.7-15.7,10.7-25.7c0-10-4.1-19.1-10.7-25.7c-6.6-6.6-15.7-10.7-25.7-10.7c-9.6,0-18.3,3.7-24.8,9.8l-2-12
		c7.6-5.3,16.8-8.4,26.8-8.4c13,0,24.7,5.3,33.2,13.8c8.5,8.5,13.8,20.3,13.8,33.2c0,13-5.3,24.7-13.8,33.2
		C126.9,174.8,115.1,180.1,102.2,180L102.2,180z"/>
	<path class="st2" d="M94.1,119.2c0,3.5-2.8,6.3-6.3,6.3s-6.3-2.8-6.3-6.3s2.8-6.3,6.3-6.3S94.1,115.7,94.1,119.2z"/>
	<path class="st2" d="M110.2,133.1c0,3.5-2.8,6.3-6.3,6.3c-3.5,0-6.3-2.8-6.3-6.3s2.8-6.3,6.3-6.3
		C107.4,126.9,110.2,129.7,110.2,133.1z"/>
	<path class="st2" d="M114.5,112c0,3.5-2.8,6.3-6.3,6.3s-6.3-2.8-6.3-6.3c0-3.5,2.8-6.3,6.3-6.3S114.5,108.5,114.5,112z"/>
	<path class="st2" d="M129.7,126.3c0,3.5-2.8,6.3-6.3,6.3c-3.5,0-6.3-2.8-6.3-6.3s2.8-6.3,6.3-6.3
		C126.9,120.1,129.7,122.9,129.7,126.3z"/>
	<path class="st2" d="M90,139.8c0,3.5-2.8,6.3-6.3,6.3s-6.3-2.8-6.3-6.3s2.8-6.3,6.3-6.3S90,136.4,90,139.8z"/>
	<path class="st2" d="M125.6,146.8c0,3.5-2.8,6.3-6.3,6.3s-6.3-2.8-6.3-6.3s2.8-6.3,6.3-6.3S125.6,143.3,125.6,146.8z"/>
	<path class="st2" d="M105.7,154.5c0,3.5-2.8,6.3-6.3,6.3s-6.3-2.8-6.3-6.3s2.8-6.3,6.3-6.3S105.7,151,105.7,154.5z"/>
	<path class="st1" d="M78,128.9c0.8-1.1,1.1-2.4,0.9-3.8L62.2,26.2c-0.3-1.4-1-2.6-2-3.3c-1.1-0.8-2.4-1.1-3.8-0.9
		c-1.4,0.3-2.6,1-3.3,2c-0.8,1.1-1.1,2.4-0.9,3.8l16.7,98.9c0.3,1.4,1,2.6,2,3.3c1.1,0.8,2.4,1.1,3.8,0.9
		C76.1,130.7,77.3,129.9,78,128.9z"/>
</g>
</svg>
