<?xml version="1.0" encoding="UTF-8"?>
<svg id="Layer_1" data-name="Layer 1" xmlns="http://www.w3.org/2000/svg" version="1.1" viewBox="0 0 500 500">
  <defs>
    <style>
      .cls-1 {
        fill: #000;
      }

      .cls-1, .cls-2 {
        stroke-width: 0px;
      }

      .cls-2 {
        fill: #fff;
      }
    </style>
  </defs>
  <path class="cls-1" d="M272.6,500.1h-45.3c-2.7-.8-5.4-2-8.2-2.3-99.3-11.9-183-82.5-210.4-178.2-4.2-14.7-6.9-29.9-10.2-44.8,0-16.7,0-33.4,0-50.1.8-2.7,2-5.4,2.4-8.1C16.7,97.6,113.4,9.5,238.1.5c112-8.1,221.4,69.3,253.1,179.6,4.2,14.7,6.9,29.8,10.3,44.7v50.1c-.8,2.3-1.9,4.6-2.3,6.9-14.6,105.8-90.6,188.6-194.9,212.1-10.5,2.4-21.2,4.2-31.7,6.3ZM470.2,274.3c-123.9,24.3-223.9,82.9-305.2,178,73.1,26.2,141.2,21.9,205.1-18.8,57.4-36.6,90.2-89.5,100-159.2ZM470.4,225.6c-11.7-76-48.9-131.6-113.9-167.2-60.9-33.3-124.5-35.4-191.4-10.5,81.6,94.9,181.5,153.7,305.3,177.7ZM30.3,233.1h263.8c-79.8-26-156-58-218.6-117-26.5,35.1-42,72.9-45.1,117ZM292.4,267.2H30.3c3.1,43.9,18.6,81.8,45.2,116.6,62.7-58.8,138-90.6,216.9-116.6ZM134.9,62.4c-13,10-24.9,19.2-37.7,29.1,55.1,51.8,119.7,80.6,188.6,101.5-56.9-34.8-107.1-77.2-150.9-130.7ZM135,437.4c42.7-52.2,92.3-94.4,148.4-129.4-68.4,21-132.5,49.4-186.3,100.9,13.4,10.1,25.3,19,38,28.6Z"/>
  <path class="cls-2" d="M470.2,274.3c-9.8,69.7-42.6,122.6-100,159.2-63.9,40.7-132.1,45-205.1,18.8,81.3-95.1,181.2-153.7,305.2-178Z"/>
  <path class="cls-2" d="M470.4,225.6c-123.8-24-223.7-82.8-305.3-177.7,66.9-24.9,130.4-22.8,191.4,10.5,65,35.6,102.2,91.2,113.9,167.2Z"/>
  <path class="cls-2" d="M30.3,233.1c3.1-44.1,18.6-81.9,45.1-117,62.6,58.9,138.8,91,218.6,117H30.3Z"/>
  <path class="cls-2" d="M292.4,267.2c-78.9,26-154.2,57.9-216.9,116.6-26.6-34.9-42-72.7-45.2-116.6h262.1Z"/>
  <path class="cls-2" d="M134.9,62.4c43.8,53.5,93.9,95.9,150.9,130.7-68.9-21-133.4-49.7-188.6-101.5,12.8-9.9,24.7-19.1,37.7-29.1Z"/>
  <path class="cls-2" d="M135,437.4c-12.7-9.5-24.6-18.5-38-28.6,53.8-51.4,117.9-79.9,186.3-100.9-56.1,35-105.7,77.2-148.4,129.4Z"/>
</svg>