<svg version="1.1" id="Layer_1" xmlns="http://www.w3.org/2000/svg" xmlns:xlink="http://www.w3.org/1999/xlink" x="0px" y="0px"
	 viewBox="0 0 200 200" style="enable-background:new 0 0 200 200;" xml:space="preserve">
<style type="text/css">
	.st0{fill:#FFFFFF;}
	.st1{fill-rule:evenodd;clip-rule:evenodd;fill:#FBD52E;}
</style>
<g>
	<circle cx="100" cy="100" r="100"/>
	<path class="st0" d="M53.3,110.5c0-11.5,0-23,0-34.5c0-1.7,0-1.7,1.7-1.7c3.5,0,7,0,10.5,0c1.1,0,1.5-0.3,1.4-1.4
		c-0.1-2.4,0.1-4.7,0-7.1c-0.3-5.7,1.2-11.1,3.4-16.3c1.4-3.5,3.2-6.6,5.8-9.3c3-3,6.6-4.9,10.5-6.2c5.9-1.9,12-2.4,18.1-1.9
		c4.7,0.3,9.2,1.4,13.3,3.7c4.5,2.5,7.4,6.3,9.8,10.6c2.3,4.2,4.3,8.4,4.9,13.2c0.2,2,0.4,4.1,0.4,6.1c0.1,2.3,0.1,4.6,0,6.9
		c0,1.2,0.3,1.6,1.6,1.6c3.4-0.1,6.8,0,10.2,0c1.7,0,1.8,0.1,1.8,1.8c0,14.2-0.1,28.4-0.1,42.6c0,8.1,0,16.1,0.1,24.2
		c0,2.7-1.1,4.5-3.6,5.7c-10.8,5-21.6,10.1-32.4,15.1c-3.2,1.5-6.2,3.1-9.4,4.6c-0.7,0.3-1.9,0.3-2.6,0c-3.6-1.6-7-3.4-10.5-5.1
		c-7.4-3.5-14.9-7-22.3-10.4c-3.7-1.7-7.4-3.5-11.2-5.2c-1.1-0.5-1.3-1.1-1.3-2.2C53.3,133.5,53.3,122,53.3,110.5
		C53.3,110.5,53.3,110.5,53.3,110.5z M100,91.4c-8.7,0-17.4,0-26.1,0c-1.8,0-1.8,0-1.8,1.8c0,12.5,0.1,25,0.1,37.5
		c0,2.5,1,3.9,3.1,4.9c7.3,3.4,14.5,6.8,21.8,10.2c1.9,0.9,3.8,0.9,5.7,0c7.3-3.4,14.5-6.8,21.8-10c2.2-1,3.2-2.5,3.2-4.9
		c0-11.9,0-23.9,0-35.8c0-0.7-0.1-1.3-0.1-2c0-1.3-0.6-1.7-1.9-1.7C117.2,91.4,108.6,91.4,100,91.4z M100.2,73.8c4.8,0,9.6,0,14.3,0
		c1.2,0,1.6-0.4,1.5-1.6c-0.1-2.5,0-5-0.2-7.5c-0.2-2.6-0.4-5.1-1.7-7.5c-3.7-6.7-13-9.7-20.4-6.7c-4.6,1.9-8.3,4.9-9.1,9.9
		c-0.6,3.9-0.2,8-0.3,12c0,1,0.5,1.2,1.4,1.2C90.6,73.7,95.4,73.7,100.2,73.8z"/>
</g>
<path class="st1" d="M263.4-7.6"/>
</svg>