<?xml version="1.0" encoding="UTF-8"?>
<svg xmlns="http://www.w3.org/2000/svg" xmlns:xlink="http://www.w3.org/1999/xlink" width="400px" height="400px" viewBox="0 0 400 400" version="1.1">
<defs>
<linearGradient id="linear0" gradientUnits="userSpaceOnUse" x1="0.37" y1="-2.67" x2="40.08" y2="-15.06" gradientTransform="matrix(10.523546,0,0,-10.523546,0.0526177,110.707708)">
<stop offset="0" style="stop-color:rgb(44.313725%,66.666667%,93.72549%);stop-opacity:1;"/>
<stop offset="0.34" style="stop-color:rgb(24.705882%,47.45098%,81.176471%);stop-opacity:1;"/>
<stop offset="0.71" style="stop-color:rgb(18.039216%,45.490196%,70.980392%);stop-opacity:1;"/>
<stop offset="1" style="stop-color:rgb(12.941176%,37.647059%,63.529412%);stop-opacity:1;"/>
</linearGradient>
</defs>
<g id="surface1">
<path style=" stroke:none;fill-rule:nonzero;fill:url(#linear0);" d="M 384.371094 122.390625 C 341.542969 20.625 224.308594 -27.152344 122.441406 15.679688 C 20.679688 58.511719 -27.097656 175.742188 15.734375 277.609375 C 58.5625 379.375 175.796875 427.152344 277.558594 384.320312 C 351.75 353.066406 399.949219 280.453125 399.949219 200.050781 C 399.949219 173.429688 394.6875 147.015625 384.265625 122.492188 Z M 367.429688 281.292969 L 358.589844 257.933594 L 380.375 246.25 C 377.214844 258.351562 372.902344 270.035156 367.429688 281.292969 Z M 21.203125 246.671875 L 42.777344 258.246094 L 34.042969 281.292969 C 28.675781 270.246094 24.363281 258.667969 21.203125 246.671875 Z M 15.3125 200.050781 C 15.3125 193.949219 15.628906 188.054688 16.152344 182.164062 L 32.675781 200.472656 L 16.257812 218.785156 C 15.628906 212.574219 15.3125 206.367188 15.3125 200.15625 Z M 33.9375 119.125 L 42.882812 142.699219 L 20.996094 154.378906 C 24.152344 142.171875 28.464844 130.386719 33.9375 119.125 Z M 380.585938 154.273438 L 358.589844 142.488281 L 367.535156 118.8125 C 373.113281 130.175781 377.425781 142.066406 380.585938 154.273438 Z M 272.71875 325.386719 L 255.355469 313.601562 C 260.824219 310.972656 266.085938 307.917969 271.140625 304.445312 L 272.71875 325.28125 Z M 225.886719 341.910156 L 214.207031 325.386719 C 220.101562 324.757812 225.886719 323.808594 231.570312 322.335938 Z M 175.902344 342.542969 L 170.007812 322.335938 C 176.113281 323.808594 182.320312 324.863281 188.53125 325.492188 L 175.796875 342.542969 Z M 164.640625 353.171875 L 138.542969 369.164062 L 129.492188 341.277344 L 156.011719 323.386719 Z M 128.859375 325.074219 L 130.335938 304.550781 C 135.28125 307.917969 140.542969 310.867188 145.910156 313.496094 Z M 128.859375 75.242188 L 145.59375 86.609375 C 140.332031 89.238281 135.28125 92.1875 130.4375 95.449219 C 130.4375 95.449219 128.964844 75.242188 128.964844 75.242188 Z M 175.902344 57.773438 L 188.425781 74.613281 C 182.320312 75.242188 176.214844 76.191406 170.21875 77.769531 L 175.902344 57.878906 Z M 225.78125 58.40625 L 231.359375 77.769531 C 225.78125 76.402344 220.101562 75.347656 214.3125 74.824219 L 225.78125 58.511719 Z M 236.832031 46.722656 L 262.824219 30.625 L 271.980469 58.828125 L 245.460938 76.925781 C 245.460938 76.925781 236.832031 46.828125 236.832031 46.722656 Z M 272.613281 75.03125 L 271.140625 95.449219 C 266.191406 92.082031 261.035156 89.132812 255.773438 86.503906 C 255.773438 86.503906 272.71875 74.925781 272.71875 74.925781 Z M 200.738281 312.339844 C 138.859375 312.339844 88.449219 261.929688 88.449219 200.050781 C 88.449219 167.324219 102.761719 136.28125 127.597656 114.917969 C 128.441406 114.496094 129.28125 113.863281 129.808594 113.023438 C 139.175781 105.339844 149.800781 99.238281 161.167969 94.921875 C 162.011719 94.816406 162.746094 94.5 163.378906 94.082031 C 200.527344 80.925781 241.882812 88.398438 272.191406 113.550781 C 272.402344 113.757812 272.71875 113.96875 273.035156 114.179688 C 298.394531 135.4375 313.023438 166.902344 313.023438 199.949219 C 313.023438 261.824219 262.613281 312.234375 200.738281 312.234375 Z M 75.085938 210.15625 L 54.984375 200.472656 L 74.980469 190.898438 C 74.558594 197.316406 74.558594 203.734375 74.980469 210.15625 Z M 326.492188 190.6875 L 346.488281 200.261719 L 326.386719 209.945312 C 326.597656 206.683594 326.808594 203.421875 326.808594 200.050781 C 326.808594 196.894531 326.597656 193.738281 326.386719 190.6875 Z M 316.074219 149.011719 L 335.964844 150.800781 L 321.96875 165.21875 C 320.390625 159.640625 318.390625 154.273438 316.074219 149.011719 Z M 291.238281 112.285156 L 311.445312 107.234375 L 303.128906 126.492188 C 299.554688 121.441406 295.554688 116.707031 291.238281 112.285156 Z M 201.472656 69.140625 L 182.320312 43.460938 L 200.105469 19.785156 L 219.363281 43.566406 C 219.363281 43.566406 201.367188 69.246094 201.367188 69.246094 Z M 156.011719 77.242188 L 129.492188 59.140625 L 138.542969 30.9375 L 164.640625 47.039062 C 164.640625 47.039062 156.011719 77.242188 156.011719 77.242188 Z M 98.34375 126.597656 L 90.132812 107.445312 L 110.234375 112.496094 C 105.917969 116.917969 102.027344 121.546875 98.449219 126.597656 Z M 79.503906 165.429688 L 65.613281 150.90625 L 85.398438 149.117188 C 83.082031 154.378906 81.082031 159.746094 79.609375 165.324219 Z M 50.039062 154.695312 L 71.824219 177.320312 L 42.882812 191.109375 L 23.097656 169.113281 C 23.097656 169.113281 50.144531 154.695312 50.039062 154.695312 Z M 42.882812 209.945312 L 71.71875 223.835938 L 50.039062 246.460938 L 22.992188 232.042969 C 22.992188 232.042969 42.882812 210.050781 42.882812 210.050781 Z M 79.820312 235.410156 C 81.503906 240.988281 83.503906 246.566406 85.925781 251.933594 L 65.71875 250.144531 C 65.71875 250.144531 79.925781 235.410156 79.820312 235.410156 Z M 110.867188 288.449219 L 90.132812 293.605469 L 98.660156 273.929688 C 102.339844 279.085938 106.445312 283.925781 110.972656 288.449219 Z M 201.578125 331.492188 L 219.574219 356.851562 L 200.316406 380.425781 L 182.53125 356.957031 L 201.683594 331.492188 Z M 245.566406 323.808594 L 272.085938 341.699219 L 263.035156 369.585938 L 236.9375 353.589844 L 245.566406 323.703125 Z M 303.128906 273.929688 L 311.550781 293.5 L 290.921875 288.34375 C 295.34375 283.820312 299.449219 278.980469 303.128906 273.929688 Z M 321.96875 235.304688 L 336.070312 249.933594 L 315.96875 251.722656 C 318.390625 246.355469 320.390625 240.882812 321.96875 235.304688 Z M 351.644531 246.25 L 329.964844 223.625 L 358.90625 209.734375 L 378.691406 231.726562 C 378.691406 231.726562 351.644531 246.25 351.644531 246.25 Z M 358.800781 190.898438 L 329.859375 177.007812 L 351.539062 154.484375 L 378.585938 168.902344 Z M 345.75 137.753906 L 314.496094 135.015625 L 327.125 105.550781 L 356.589844 109.128906 C 356.589844 109.128906 345.75 137.753906 345.75 137.753906 Z M 315.234375 92.082031 L 284.820312 99.65625 L 287.136719 67.667969 L 316.074219 61.457031 Z M 230.203125 34.726562 L 214.3125 15.152344 C 226.835938 16.101562 239.253906 18.207031 251.355469 21.679688 Z M 171.480469 35.042969 L 150.011719 21.785156 C 161.90625 18.417969 174.113281 16.207031 186.425781 15.257812 Z M 116.863281 99.972656 L 86.449219 92.398438 L 85.503906 61.773438 L 114.445312 68.085938 L 116.757812 100.078125 Z M 74.453125 105.867188 L 87.1875 135.332031 L 55.933594 138.070312 L 44.988281 109.445312 C 44.988281 109.445312 74.453125 105.867188 74.453125 105.867188 Z M 55.828125 263.195312 L 86.976562 265.929688 L 74.347656 295.394531 L 44.988281 291.816406 Z M 86.449219 308.867188 L 116.863281 301.289062 L 114.546875 333.28125 L 85.609375 339.488281 C 85.609375 339.488281 86.554688 308.867188 86.554688 308.867188 Z M 171.480469 365.484375 L 186.425781 385.160156 C 174.113281 384.214844 162.011719 382.003906 150.117188 378.636719 Z M 230.203125 365.796875 L 251.25 378.742188 C 239.148438 382.109375 226.730469 384.320312 214.207031 385.265625 L 230.097656 365.796875 Z M 284.820312 301.078125 L 315.234375 308.761719 L 316.179688 339.382812 L 287.238281 333.070312 L 284.925781 301.078125 Z M 327.230469 295.183594 L 314.601562 265.71875 L 345.855469 262.984375 L 356.695312 291.609375 L 327.335938 295.183594 Z M 368.796875 200.367188 L 385.425781 181.953125 C 386.582031 194.265625 386.582031 206.578125 385.425781 218.890625 C 385.425781 218.890625 368.796875 200.472656 368.796875 200.472656 Z M 353.539062 95.027344 L 328.914062 92.082031 L 329.648438 66.929688 C 338.488281 75.453125 346.488281 84.925781 353.539062 95.027344 Z M 308.390625 49.144531 L 285.03125 54.195312 L 277.664062 31.359375 C 288.503906 36.304688 298.710938 42.199219 308.390625 49.144531 Z M 124.019531 31.464844 L 116.652344 54.40625 L 93.1875 49.355469 C 102.867188 42.410156 113.285156 36.410156 124.125 31.464844 Z M 71.929688 67.140625 L 72.664062 92.292969 L 48.144531 95.238281 C 55.089844 85.136719 63.089844 75.664062 71.929688 67.140625 Z M 48.777344 306.234375 L 72.664062 309.183594 L 71.929688 333.492188 C 63.40625 325.175781 55.617188 316.128906 48.777344 306.339844 Z M 94.027344 351.90625 L 116.757812 346.960938 L 123.914062 369.164062 C 113.390625 364.324219 103.394531 358.539062 93.921875 351.90625 Z M 277.664062 369.164062 L 284.925781 346.75 L 307.867188 351.695312 C 298.394531 358.433594 288.292969 364.21875 277.664062 369.0625 Z M 329.753906 333.597656 L 329.019531 308.972656 L 353.222656 306.023438 C 346.277344 315.917969 338.488281 325.175781 329.753906 333.597656 Z M 329.753906 333.597656 "/>
</g>
</svg>
