<?xml version="1.0" encoding="UTF-8"?>
<svg id="Layer_1" data-name="Layer 1" xmlns="http://www.w3.org/2000/svg" version="1.1" viewBox="0 0 500 500">
  <defs>
    <style>
      .cls-1 {
        fill: #45adf4;
      }

      .cls-1, .cls-2, .cls-3, .cls-4, .cls-5 {
        stroke-width: 0px;
      }

      .cls-2 {
        fill: #3babee;
      }

      .cls-3 {
        fill: #1f9adf;
      }

      .cls-4 {
        fill: #58bffe;
      }

      .cls-5 {
        fill: #fff;
      }
    </style>
  </defs>
  <path class="cls-5" d="M249.9,499.5c137.8,0,249.6-111.7,249.6-249.6S387.7.3,249.9.3.3,112,.3,249.9s111.7,249.6,249.6,249.6h0Z"/>
  <g>
    <path class="cls-1" d="M398.7,166.8c-.2.1-.4.2-.5.3-1.9.2-3.4,1.2-5,2-8.1,3.6-16.2,7.3-24.3,10.9-4.6,2.1-9.2,4.2-13.8,6.3-8.2,3.7-16.4,7.4-24.7,11.1-4.7,2.1-9.3,4.3-14,6.4-7.9,3.5-15.7,7.1-23.6,10.6-5.9,2.7-11.8,5.4-17.7,8.1-8.4,3.8-16.7,7.6-25.1,11.3-2.2-1-4.4-1.9-6.6-2.9-7-3.2-14.1-6.4-21.1-9.6-10-4.5-20-9-30.1-13.5-8.2-3.7-16.3-7.5-24.5-11.2-12-5.4-24.1-10.8-36.1-16.3-8.2-3.7-16.3-7.5-24.5-11.2-1.8-.8-3.4-1.9-5.4-2.2-.2,0-.3-.2-.5-.2,0-.1,0-.2,0-.3,6.5-2.9,12.9-5.8,19.4-8.7,19-8.6,37.9-17.2,56.9-25.8,22-10,44.1-19.9,66.1-29.9,2-.9,4.1-1.6,5.9-2.9h.9c.2.5.7.5,1.1.7,9.1,4.2,18.3,8.3,27.4,12.4,17.1,7.8,34.2,15.5,51.3,23.3,17.1,7.8,34.2,15.5,51.3,23.3,5.7,2.6,11.4,5.1,17,7.7v.3Z"/>
    <path class="cls-3" d="M101.8,167.1c2,.2,3.7,1.4,5.4,2.2,8.2,3.7,16.3,7.5,24.5,11.2,12,5.4,24.1,10.8,36.1,16.3,8.2,3.7,16.3,7.5,24.5,11.2,10,4.5,20,9,30.1,13.5,7,3.2,14.1,6.4,21.1,9.6,2.2,1,4.4,1.9,6.6,2.9,0,.3,0,.6,0,.9,0,54.7,0,109.4,0,164.1,0,.5,0,.9,0,1.4-.2,0-.4,0-.6,0-4.7-7.3-9.4-14.7-14-22-44.3-70-88.7-139.9-133-209.9-.3-.4-.5-.9-.7-1.3Z"/>
    <path class="cls-4" d="M250.1,400.2c0-.5,0-.9,0-1.4,0-54.7,0-109.4,0-164.1,0-.3,0-.6,0-.9,8.4-3.8,16.7-7.5,25.1-11.3,5.9-2.7,11.8-5.4,17.7-8.1,7.9-3.6,15.7-7.1,23.6-10.6,4.7-2.1,9.3-4.2,14-6.4,8.2-3.7,16.4-7.4,24.7-11.1,4.6-2.1,9.2-4.2,13.8-6.3,8.1-3.7,16.2-7.3,24.3-10.9,1.6-.7,3.1-1.8,5-2-2.1,3.4-4.1,6.8-6.3,10.1-22.3,35.1-44.5,70.3-66.8,105.4-24.6,38.8-49.2,77.6-73.8,116.4-.3.5-.8,1.1-1.1,1.6,0-.1,0-.3,0-.4Z"/>
    <path class="cls-2" d="M250.1,400.2c0,.1,0,.3,0,.4-.5.5-.5,0-.7-.4.2,0,.4,0,.6,0Z"/>
  </g>
</svg>