<?xml version="1.0" standalone="no"?>
<!DOCTYPE svg PUBLIC "-//W3C//DTD SVG 1.0//EN" "http://www.w3.org/TR/2001/REC-SVG-20010904/DTD/svg10.dtd">
<svg xmlns="http://www.w3.org/2000/svg" xmlns:xlink="http://www.w3.org/1999/xlink" id="body_1" width="400" height="400">

<g transform="matrix(9.82801 0 0 9.82801 -0 3.4398074)">
    <path d="M33.3 0L7.4 0C 3.3 0 0 3.3 0 7.3L0 7.3L0 32.7C 0 36.7 3.3 40 7.4 40L7.4 40L33.3 40C 37.399998 40 40.7 36.7 40.7 32.7L40.7 32.7L40.7 7.3C 40.7 3.3 37.4 0 33.3 0zM27 10C 30 10 32.5 12.4 32.5 15.4C 32.5 16.3 32.3 17.199999 31.9 18C 31.199999 17.5 30.4 17 29.6 16.7C 29.800001 16.300001 29.9 15.800001 29.9 15.400001C 29.9 13.900001 28.6 12.6 27.1 12.6C 25.5 12.6 24.300001 13.900001 24.300001 15.400001C 24.300001 15.900001 24.400002 16.300001 24.6 16.7C 23.800001 17 23 17.400002 22.300001 18C 21.800001 17.2 21.7 16.3 21.7 15.4C 21.6 12.4 24 10 27 10zM13.7 30C 10.7 30 8.2 27.6 8.2 24.6L8.2 24.6L10.799999 24.6C 10.799999 26.1 12.099999 27.4 13.599999 27.4C 15.099999 27.4 16.4 26.1 16.4 24.6L16.4 24.6L19 24.6C 19.2 27.6 16.7 30 13.7 30zM13.7 22.5C 10.2 22.5 7.3999996 19.7 7.3999996 16.3C 7.3999996 12.9 10.2 9.999999 13.7 9.999999C 17.2 9.999999 20.1 12.799999 20.1 16.3C 20.1 19.7 17.2 22.5 13.7 22.5zM27 30C 23.5 30 20.6 27.2 20.6 23.8C 20.6 20.3 23.4 17.5 27 17.5C 30.5 17.5 33.3 20.3 33.3 23.8C 33.4 27.2 30.5 30 27 30zM30.8 23.7C 30.8 25.800001 29.099998 27.400002 27 27.400002C 24.900002 27.400002 23.2 25.7 23.2 23.7C 23.2 21.6 24.900002 20 27 20C 29.1 20.1 30.8 21.7 30.8 23.7zM17.4 16.3C 17.4 18.4 15.7 20 13.599999 20C 11.5 20 9.799999 18.3 9.799999 16.3C 9.799999 14.199999 11.499999 12.599999 13.599999 12.599999C 15.8 12.6 17.4 14.2 17.4 16.3z" stroke="none" fill="#D9B432" fill-rule="nonzero" />
</g>
</svg>