<?xml version="1.0" encoding="utf-8"?>
<!-- Generator: Adobe Illustrator 26.4.1, SVG Export Plug-In . SVG Version: 6.00 Build 0)  -->
<svg version="1.1" id="Layer_1" xmlns="http://www.w3.org/2000/svg" xmlns:xlink="http://www.w3.org/1999/xlink" x="0px" y="0px"
	 viewBox="0 0 200 200" style="enable-background:new 0 0 200 200;" xml:space="preserve">
<style type="text/css">
	.st0{fill:url(#SVGID_1_);stroke:#FFFFFF;stroke-width:3.125;stroke-miterlimit:25;}
	.st1{fill-rule:evenodd;clip-rule:evenodd;fill:#FBD52E;}
	.st2{fill:#FFFFFF;}
</style>
<g id="surface1_00000103955597701102914250000005251003009576502202_">
	
		<linearGradient id="SVGID_1_" gradientUnits="userSpaceOnUse" x1="8.6378" y1="100" x2="191.3622" y2="100" gradientTransform="matrix(6.123234e-17 1 -1 6.123234e-17 200 0)">
		<stop  offset="0" style="stop-color:#BF9E32"/>
		<stop  offset="1" style="stop-color:#9B7D1C"/>
	</linearGradient>
	<path class="st0" d="M100,191.4c-50.5,0-91.4-40.9-91.4-91.4S49.5,8.6,100,8.6s91.4,40.9,91.4,91.4S150.5,191.4,100,191.4z"/>
</g>
<path class="st1" d="M263.4-7.6"/>
<path class="st2" d="M66.5,122.7c-2.5-4.9-3.7-10.3-3.6-15.8c-0.1-5.2,0.9-10.3,2.8-15c1.6-3.8,3.7-7.5,6.3-10.7
	c2.3-2.7,5.2-4.9,8.4-6.5c3.3-1.6,6.9-2.5,10.5-2.5c4.6-0.2,9.1,1.4,12.5,4.4l14.3-11.9c-0.3-2.5-0.4-5-0.4-7.5c0-16,4.2-24,12.7-24
	c1,0,1.9,0.1,2.8,0.5s1.7,1,2.3,1.7c1.3,1.7,2,3.7,2.1,5.8c0,3.7-1.2,7.4-3.4,10.4c-2.9,4.2-6.2,8-10,11.4
	c1.7,10.1,2.9,20.3,3.4,30.5c0,5.3-0.7,10.5-2.1,15.6c-1.3,4.9-3.5,9.5-6.3,13.6c-2.9,4.2-6.9,7.5-11.6,9.6
	c-5.4,2.4-11.3,3.6-17.2,3.5c-4,0.3-8.1-0.5-11.8-2.1c-3.7-1.7-6.9-4.2-9.4-7.4c-1.4,5-2,10.2-2,15.5c-0.1,5.6,1.5,11,4.5,15.7
	c1.2,2.1,2.9,3.9,5,5.1c2.1,1.2,4.5,1.9,6.9,1.9c0.4,0,0.5,0.4,0.5,1.1s-0.2,1.1-0.5,1.1c-2.8,0-5.6-0.8-8.1-2.2
	c-2.5-1.4-4.5-3.4-6-5.9c-3.7-5.2-5.6-11.5-5.5-17.9C63.6,134.7,64.6,128.6,66.5,122.7z M105.3,78.7c2,2.7,3.1,6,3,9.3
	c0,3.1-0.5,6.3-1.6,9.2c-1.1,2.8-3.1,5.3-5.5,7.1c-2.6,2-5.8,3.1-9.1,3c-0.6,0-1.2-0.2-1.7-0.5c-0.4-0.5-0.7-1.1-0.8-1.7
	c1.7-0.1,3.3-0.5,4.8-1.2c1.5-0.8,2.8-1.8,3.8-3.1c3.6-3.6,5.6-8.5,5.6-13.6c0-2.1-0.4-4.1-1.2-6.1c-7.4,6.2-14.3,13-20.6,20.3
	c-5.4,6.4-9.6,13.7-12.2,21.6c2,3.3,4.9,5.9,8.3,7.7s7.3,2.6,11.1,2.3c5,0.1,9.9-1.1,14.2-3.5c4-2.1,7.4-5.3,9.7-9.2
	c4.8-8.5,7.1-18.1,6.8-27.8c0-2.7-0.7-10.8-2-24.3L105.3,78.7z M100.9,78.8c-1.2-1.2-2.7-2.2-4.4-2.8c-1.6-0.6-3.4-0.9-5.2-0.8
	c-3.9-0.1-7.7,1-11,2.9c-6.5,4.2-11.1,10.7-12.9,18.2c-1.1,3.6-1.7,7.3-1.7,11.1c0,4,0.7,8,2.1,11.8
	C75.5,103.3,86.8,89.5,100.9,78.8L100.9,78.8z M122.7,51.7c0,2.6,0.2,5.2,0.5,7.8c5.7-4.4,9.5-10.7,10.8-17.8c0-3.8-1.4-5.6-4.1-5.6
	C125.1,36.2,122.8,41.4,122.7,51.7L122.7,51.7z"/>
</svg>
