<?xml version="1.0" encoding="utf-8"?>
<!-- Generator: Adobe Illustrator 26.4.1, SVG Export Plug-In . SVG Version: 6.00 Build 0)  -->
<svg version="1.1" id="Layer_1" xmlns="http://www.w3.org/2000/svg" xmlns:xlink="http://www.w3.org/1999/xlink" x="0px" y="0px"
	 viewBox="0 0 200 200" style="enable-background:new 0 0 200 200;" xml:space="preserve">
<style type="text/css">
	.st0{fill:url(#SVGID_1_);}
	.st1{fill-rule:evenodd;clip-rule:evenodd;fill:#FBD52E;}
	.st2{fill:#FFFFFF;}
</style>
<g id="surface1_00000103955597701102914250000005251003009576502202_">
	
		<linearGradient id="SVGID_1_" gradientUnits="userSpaceOnUse" x1="248.3373" y1="-294" x2="447.6627" y2="-294" gradientTransform="matrix(6.123234e-17 1 -1 6.123234e-17 -194 -248)">
		<stop  offset="0" style="stop-color:#BF9E32"/>
		<stop  offset="1" style="stop-color:#9B7D1C"/>
	</linearGradient>
	<path class="st0" d="M100,199.7C45,199.7,0.3,155,0.3,100S45,0.3,100,0.3S199.7,45,199.7,100S155,199.7,100,199.7z"/>
</g>
<path class="st1" d="M263.4-7.6"/>
<path class="st2" d="M59.4,127.5c-3-5.9-4.5-12.5-4.4-19.2c-0.1-6.3,1.1-12.5,3.4-18.2c1.9-4.6,4.5-9.1,7.6-13
	c2.8-3.3,6.3-5.9,10.2-7.9c4-1.9,8.4-3,12.7-3c5.6-0.2,11,1.7,15.2,5.3l17.3-14.4c-0.4-3-0.5-6.1-0.5-9.1c0-19.4,5.1-29.1,15.4-29.1
	c1.2,0,2.3,0.1,3.4,0.6s2.1,1.2,2.8,2.1c1.6,2.1,2.4,4.5,2.5,7c0,4.5-1.5,9-4.1,12.6c-3.5,5.1-7.5,9.7-12.1,13.8
	c2.1,12.3,3.5,24.6,4.1,37c0,6.4-0.8,12.7-2.5,18.9c-1.6,5.9-4.2,11.5-7.6,16.5c-3.5,5.1-8.4,9.1-14.1,11.6
	c-6.6,2.9-13.7,4.4-20.9,4.2c-4.9,0.4-9.8-0.6-14.3-2.5c-4.5-2.1-8.4-5.1-11.4-9c-1.7,6.1-2.4,12.4-2.4,18.8
	c-0.1,6.8,1.8,13.3,5.5,19c1.5,2.5,3.5,4.7,6.1,6.2c2.5,1.5,5.5,2.3,8.4,2.3c0.5,0,0.6,0.5,0.6,1.3s-0.2,1.3-0.6,1.3
	c-3.4,0-6.8-1-9.8-2.7s-5.5-4.1-7.3-7.2c-4.5-6.3-6.8-14-6.7-21.7C55.8,142.1,57,134.7,59.4,127.5z M106.4,74.2
	c2.4,3.3,3.8,7.3,3.6,11.3c0,3.8-0.6,7.6-1.9,11.2c-1.3,3.4-3.8,6.4-6.7,8.6c-3.2,2.4-7,3.8-11,3.6c-0.7,0-1.5-0.2-2.1-0.6
	c-0.5-0.6-0.8-1.3-1-2.1c2.1-0.1,4-0.6,5.8-1.5c1.8-1,3.4-2.2,4.6-3.8c4.4-4.4,6.8-10.3,6.8-16.5c0-2.5-0.5-5-1.5-7.4
	c-9,7.5-17.3,15.8-25,24.6c-6.6,7.8-11.6,16.6-14.8,26.2c2.4,4,5.9,7.2,10.1,9.3c4.1,2.2,8.9,3.2,13.5,2.8c6.1,0.1,12-1.3,17.2-4.2
	c4.9-2.5,9-6.4,11.8-11.2c5.8-10.3,8.6-22,8.2-33.7c0-3.3-0.8-13.1-2.4-29.5L106.4,74.2z M101.1,74.3c-1.5-1.5-3.3-2.7-5.3-3.4
	c-1.9-0.7-4.1-1.1-6.3-1c-4.7-0.1-9.3,1.2-13.3,3.5c-7.9,5.1-13.5,13-15.6,22.1c-1.3,4.4-2.1,8.9-2.1,13.5c0,4.9,0.8,9.7,2.5,14.3
	C70.3,104,84,87.3,101.1,74.3L101.1,74.3z M127.5,41.4c0,3.2,0.2,6.3,0.6,9.5c6.9-5.3,11.5-13,13.1-21.6c0-4.6-1.7-6.8-5-6.8
	C130.4,22.6,127.6,28.9,127.5,41.4L127.5,41.4z"/>
</svg>
