<?xml version="1.0" encoding="UTF-8"?>
<svg xmlns="http://www.w3.org/2000/svg" xmlns:xlink="http://www.w3.org/1999/xlink" width="200px" height="200px" viewBox="0 0 200 200" version="1.1">
<defs>
<linearGradient id="linear0" gradientUnits="userSpaceOnUse" x1="16" y1="0" x2="16" y2="32" >
<stop offset="0" style="stop-color:rgb(74.901961%,61.960784%,19.607843%);stop-opacity:1;"/>
<stop offset="1" style="stop-color:rgb(60.784314%,49.019608%,10.980392%);stop-opacity:1;"/>
</linearGradient>
</defs>
<g id="surface1">
<path style="fill-rule:nonzero;fill:url(#linear0);stroke-width:0.5;stroke-linecap:butt;stroke-linejoin:miter;stroke:rgb(100%,100%,100%);stroke-opacity:1;stroke-miterlimit:4;" d="M 31.75 16 C 31.75 24.69875 24.69875 31.75 16 31.75 C 7.30125 31.75 0.25 24.69875 0.25 16 C 0.25 7.30125 7.30125 0.25 16 0.25 C 24.69875 0.25 31.75 7.30125 31.75 16 Z M 31.75 16 " transform="matrix(6.25,0,0,6.25,0,0)"/>
<path style=" stroke:none;fill-rule:nonzero;fill:rgb(100%,100%,100%);fill-opacity:1;" d="M 62.894531 125.351562 C 60.40625 120.460938 59.175781 115.03125 59.3125 109.550781 C 59.222656 104.394531 60.183594 99.277344 62.140625 94.503906 C 63.710938 90.65625 65.820312 87.050781 68.402344 83.796875 C 70.703125 81.066406 73.554688 78.855469 76.765625 77.304688 C 80.035156 75.660156 83.644531 74.804688 87.300781 74.8125 C 91.890625 74.585938 96.378906 76.179688 99.792969 79.25 L 114.046875 67.351562 C 113.761719 64.871094 113.613281 62.378906 113.613281 59.886719 C 113.613281 43.867188 117.847656 35.859375 126.320312 35.859375 C 127.289062 35.8125 128.257812 35.996094 129.144531 36.390625 C 130.03125 36.785156 130.816406 37.378906 131.429688 38.132812 C 132.71875 39.8125 133.441406 41.859375 133.492188 43.976562 C 133.484375 47.707031 132.308594 51.339844 130.128906 54.367188 C 127.265625 58.542969 123.90625 62.359375 120.128906 65.730469 C 121.875 75.828125 123 86.019531 123.492188 96.25 C 123.503906 101.511719 122.808594 106.753906 121.429688 111.832031 C 120.105469 116.699219 117.976562 121.308594 115.128906 125.46875 C 112.199219 129.667969 108.183594 132.996094 103.511719 135.09375 C 98.117188 137.503906 92.253906 138.6875 86.347656 138.558594 C 82.308594 138.816406 78.269531 138.085938 74.578125 136.425781 C 70.886719 134.769531 67.65625 132.234375 65.167969 129.042969 C 63.800781 134.078125 63.140625 139.277344 63.210938 144.496094 C 63.125 150.0625 64.710938 155.527344 67.757812 160.1875 C 68.960938 162.300781 70.695312 164.0625 72.789062 165.296875 C 74.886719 166.535156 77.269531 167.195312 79.703125 167.222656 C 80.066406 167.222656 80.25 167.582031 80.25 168.304688 C 80.25 169.027344 80.066406 169.386719 79.703125 169.386719 C 76.859375 169.363281 74.066406 168.609375 71.597656 167.195312 C 69.132812 165.78125 67.070312 163.757812 65.613281 161.3125 C 61.953125 156.082031 60.019531 149.84375 60.074219 143.460938 C 60 137.308594 60.953125 131.1875 62.894531 125.351562 Z M 101.667969 81.3125 C 103.675781 83.996094 104.746094 87.269531 104.710938 90.621094 C 104.757812 93.765625 104.207031 96.886719 103.085938 99.824219 C 101.9375 102.671875 100.019531 105.144531 97.546875 106.96875 C 94.949219 108.980469 91.742188 110.046875 88.457031 109.996094 C 87.832031 110.027344 87.21875 109.832031 86.71875 109.449219 C 86.300781 108.964844 86.03125 108.363281 85.957031 107.722656 C 87.617188 107.667969 89.242188 107.25 90.722656 106.503906 C 92.207031 105.753906 93.507812 104.695312 94.539062 103.394531 C 98.136719 99.765625 100.160156 94.867188 100.183594 89.757812 C 100.1875 87.679688 99.785156 85.621094 98.992188 83.695312 C 91.582031 89.902344 84.695312 96.707031 78.402344 104.042969 C 72.988281 110.410156 68.832031 117.75 66.15625 125.667969 C 68.1875 128.941406 71.066406 131.601562 74.492188 133.363281 C 77.917969 135.125 81.757812 135.921875 85.601562 135.667969 C 90.566406 135.785156 95.472656 134.589844 99.828125 132.203125 C 103.839844 130.074219 107.183594 126.878906 109.492188 122.96875 C 114.265625 114.496094 116.632812 104.878906 116.339844 95.160156 C 116.339844 92.492188 115.6875 84.378906 114.382812 70.8125 Z M 97.320312 81.421875 C 96.074219 80.179688 94.578125 79.210938 92.933594 78.582031 C 91.285156 77.957031 89.523438 77.6875 87.765625 77.785156 C 83.910156 77.730469 80.113281 78.742188 76.792969 80.703125 C 70.339844 84.910156 65.71875 91.410156 63.867188 98.886719 C 62.71875 102.472656 62.132812 106.21875 62.140625 109.984375 C 62.09375 114.019531 62.796875 118.027344 64.203125 121.804688 C 71.894531 105.914062 83.242188 92.070312 97.320312 81.414062 Z M 119.140625 54.367188 C 119.183594 56.972656 119.367188 59.574219 119.683594 62.160156 C 125.375 57.804688 129.21875 51.464844 130.449219 44.40625 C 130.449219 40.652344 129.074219 38.777344 126.320312 38.777344 C 121.546875 38.777344 119.15625 43.972656 119.15625 54.359375 Z M 119.140625 54.367188 "/>
</g>
</svg>
