<?xml version="1.0" encoding="UTF-8"?>
<svg xmlns="http://www.w3.org/2000/svg" xmlns:xlink="http://www.w3.org/1999/xlink" width="400px" height="400px" viewBox="0 0 400 400" version="1.1">
<g id="surface1">
<path style=" stroke:none;fill-rule:nonzero;fill:rgb(16.470588%,50.196078%,99.607843%);fill-opacity:1;" d="M 284 402 C 189.332031 402 95.667969 402 2 402 C 2 268.667969 2 135.332031 2 2 C 135.332031 2 268.667969 2 402 2 C 402 135.332031 402 268.667969 402 402 C 363 402 324 402 284 402 M 270.011719 259.863281 C 322.449219 261.230469 358.738281 212.074219 341.082031 163.597656 C 329.402344 131.53125 297.195312 112.023438 263.679688 116.714844 C 229.324219 121.523438 203.140625 147.746094 201.65625 182.027344 C 200.144531 216.960938 201.132812 251.996094 200.992188 286.988281 C 200.964844 293.808594 203.847656 297.730469 211.046875 297.722656 C 222.710938 297.710938 234.378906 297.714844 246.042969 297.734375 C 253.542969 297.746094 256.894531 293.996094 256.746094 286.539062 C 256.578125 277.878906 256.726562 269.210938 258.308594 260.015625 C 261.621094 259.902344 264.929688 259.792969 270.011719 259.863281 M 200.011719 141.164062 C 197.148438 124.828125 188.898438 116.402344 173.972656 116.257812 C 140.679688 115.929688 107.382812 116.175781 74.089844 116.132812 C 66.578125 116.121094 63.183594 119.785156 63.273438 127.210938 C 63.390625 136.53125 63.546875 145.863281 63.222656 155.175781 C 62.902344 164.378906 66.464844 168.765625 76.132812 168.246094 C 85.296875 167.753906 94.511719 168.140625 104.328125 168.140625 C 104.328125 173.222656 104.328125 176.851562 104.328125 180.480469 C 104.328125 215.105469 104.273438 249.730469 104.363281 284.359375 C 104.390625 295.351562 106.964844 297.804688 117.875 297.898438 C 126.53125 297.972656 135.1875 297.941406 143.84375 297.90625 C 157.015625 297.855469 158.308594 296.640625 158.324219 283.828125 C 158.355469 249.199219 158.335938 214.574219 158.335938 179.949219 C 158.335938 176.378906 158.335938 172.8125 158.335938 168.238281 C 178.824219 169.398438 196.746094 167.335938 200.011719 141.164062 Z M 200.011719 141.164062 "/>
<path style=" stroke:none;fill-rule:nonzero;fill:rgb(99.215686%,99.607843%,100%);fill-opacity:1;" d="M 256.734375 260.542969 C 256.726562 269.210938 256.578125 277.878906 256.746094 286.539062 C 256.894531 293.996094 253.542969 297.746094 246.042969 297.734375 C 234.378906 297.714844 222.710938 297.710938 211.046875 297.722656 C 203.847656 297.730469 200.964844 293.808594 200.992188 286.988281 C 201.132812 251.996094 200.144531 216.960938 201.65625 182.027344 C 203.140625 147.746094 229.324219 121.523438 263.679688 116.714844 C 297.195312 112.023438 329.402344 131.53125 341.082031 163.597656 C 358.738281 212.074219 322.449219 261.230469 269.050781 258.859375 C 268.058594 239.914062 268.03125 221.976562 268.832031 204.074219 C 270.988281 204.109375 272.328125 204.230469 273.636719 204.089844 C 283.382812 203.042969 290.070312 195.832031 289.386719 187.183594 C 288.695312 178.480469 281.304688 171.847656 272.628906 172.140625 C 263.285156 172.457031 257.066406 179.078125 256.96875 189.074219 C 256.941406 192.039062 257.472656 195.007812 257.3125 198.675781 C 256.832031 219.765625 256.785156 240.15625 256.734375 260.542969 Z M 256.734375 260.542969 "/>
<path style=" stroke:none;fill-rule:nonzero;fill:rgb(99.215686%,99.607843%,100%);fill-opacity:1;" d="M 200.011719 141.984375 C 196.746094 167.335938 178.824219 169.398438 158.335938 168.238281 C 158.335938 172.8125 158.335938 176.378906 158.335938 179.949219 C 158.335938 214.574219 158.355469 249.199219 158.324219 283.828125 C 158.308594 296.640625 157.015625 297.855469 143.84375 297.90625 C 135.1875 297.941406 126.53125 297.972656 117.875 297.898438 C 106.964844 297.804688 104.390625 295.351562 104.363281 284.359375 C 104.273438 249.730469 104.328125 215.105469 104.328125 180.480469 C 104.328125 176.851562 104.328125 173.222656 104.328125 168.140625 C 94.511719 168.140625 85.296875 167.753906 76.132812 168.246094 C 66.464844 168.765625 62.902344 164.378906 63.222656 155.175781 C 63.546875 145.863281 63.390625 136.53125 63.273438 127.210938 C 63.183594 119.785156 66.578125 116.121094 74.089844 116.132812 C 107.382812 116.175781 140.679688 115.929688 173.972656 116.257812 C 188.898438 116.402344 197.148438 124.828125 200.011719 141.984375 Z M 200.011719 141.984375 "/>
<path style=" stroke:none;fill-rule:nonzero;fill:rgb(60%,76.078431%,100%);fill-opacity:1;" d="M 268.003906 204.039062 C 268.03125 221.976562 268.058594 239.914062 268.164062 258.765625 C 264.929688 259.792969 261.621094 259.902344 257.523438 260.28125 C 256.785156 240.15625 256.832031 219.765625 257.953125 198.894531 C 262.019531 200.285156 265.011719 202.160156 268.003906 204.039062 Z M 268.003906 204.039062 "/>
<path style=" stroke:none;fill-rule:nonzero;fill:rgb(18.039216%,51.372549%,99.607843%);fill-opacity:1;" d="M 268.832031 204.074219 C 265.011719 202.160156 262.019531 200.285156 258.386719 198.191406 C 257.472656 195.007812 256.941406 192.039062 256.96875 189.074219 C 257.066406 179.078125 263.285156 172.457031 272.628906 172.140625 C 281.304688 171.847656 288.695312 178.480469 289.386719 187.183594 C 290.070312 195.832031 283.382812 203.042969 273.636719 204.089844 C 272.328125 204.230469 270.988281 204.109375 268.832031 204.074219 Z M 268.832031 204.074219 "/>
</g>
</svg>
