<?xml version="1.0" encoding="UTF-8"?>
<svg id="Layer_1" data-name="Layer 1" xmlns="http://www.w3.org/2000/svg" version="1.1" viewBox="0 0 500 500">
  <defs>
    <style>
      .cls-1 {
        fill: #f50cb4;
      }

      .cls-1, .cls-2 {
        stroke-width: 0px;
      }

      .cls-2 {
        fill: #fff;
      }
    </style>
  </defs>
  <circle class="cls-1" cx="250" cy="250" r="249.1"/>
  <path class="cls-2" d="M247.3,55.3c5.3-.8,5.7-.7,5.9,3.4.7,12.4,1.9,24.6,4.6,36.8,16.1,73.3,74.5,131.3,147.9,146.9,10.6,2.3,21.3,3.8,32.2,4.1,1,0,2,0,3,.1,4.3.4,4.5.8,3.7,6.2h-191c-.2,3.1-.5,5.5-.5,8,0,58.9,0,117.7,0,176.6,0,2.3,0,4.7,0,7.4-2,.2-3.5.3-5.1.4-.3-1.3-.6-2.2-.7-3.2-1-9.4-1.4-18.9-2.9-28.3-5.8-36.3-21.2-68.1-45.5-95.5-30.6-34.5-68.9-55.4-114.4-63-8-1.3-16.2-1.6-24.3-2.3-1.5-.1-3-.2-4.8-.3-.1-1.7-.2-3.1-.4-5.2,2.8-.2,5.3-.5,7.7-.5,58.7,0,117.4,0,176.1,0,2.6,0,5.3-.3,8.5-.5,0-32.5,0-64.3,0-96.2,0-31.7,0-63.3,0-94.8Z"/>
</svg>