<?xml version="1.0" encoding="utf-8"?>
<!-- Generator: Adobe Illustrator 26.4.1, SVG Export Plug-In . SVG Version: 6.00 Build 0)  -->
<svg version="1.1" id="Layer_1" xmlns="http://www.w3.org/2000/svg" xmlns:xlink="http://www.w3.org/1999/xlink" x="0px" y="0px"
	 viewBox="0 0 200 200" style="enable-background:new 0 0 200 200;" xml:space="preserve">
<style type="text/css">
	.st0{fill:#FF060A;}
	.st1{fill:#FFFFFF;}
	.st2{fill-rule:evenodd;clip-rule:evenodd;fill:#FBD52E;}
</style>
<g id="surface1">
	<path class="st0" d="M0,100C0,44.8,44.8,0,100,0s100,44.8,100,100s-44.8,100-100,100S0,155.2,0,100z"/>
	<g id="surface1_00000023244750854005664970000001021509082495974070_">
		<path class="st1" d="M21,115.3c7.1,6.6,16.9,16.6,24.9,23.7l0.5,0.3c0.8,0.6,1.7,1.1,2.6,1.5c19.3,3.7,109.2,20.5,111,20.3
			c0.5-0.1,0.9-0.2,1.4-0.5l0.4-0.3c0.5-0.5,0.9-1.3,1.3-2l0.1-0.3v-2C153,127.8,113,35.5,105.2,13.9c-0.5-1.5-1.4-4.3-3-4.4h-0.4
			c-0.9,0-4.7,5.1-4.7,5.1s-68.6,83.2-75.6,92.1c-0.9,1-1.7,2.3-2.4,3.5C18.8,112,19.5,114,21,115.3z M79.4,105.6L50.1,130
			l-17.2-15.9L79.4,105.6z M90.8,107.2l50.4,41.3l-81.5-15L90.8,107.2z M86.3,96.5l-51.6,8.4l59-71.2L86.3,96.5z M148.1,144.5
			l-53-45l7.7-65.9L148.1,144.5z"/>
	</g>
</g>
<path class="st2" d="M263.4-7.6"/>
</svg>
