<?xml version="1.0" encoding="utf-8"?>
<!-- Generator: Adobe Illustrator 26.4.1, SVG Export Plug-In . SVG Version: 6.00 Build 0)  -->
<svg version="1.1" id="Layer_1" xmlns="http://www.w3.org/2000/svg" xmlns:xlink="http://www.w3.org/1999/xlink" x="0px" y="0px"
	 viewBox="0 0 200 200" style="enable-background:new 0 0 200 200;" xml:space="preserve">
<style type="text/css">
	.st0{fill:#FF060A;}
	.st1{fill:#FFFFFF;}
	.st2{fill-rule:evenodd;clip-rule:evenodd;fill:#FBD52E;}
</style>
<g id="surface1">
	<path class="st0" d="M195.8,100c0,52.9-42.9,95.8-95.8,95.8c-52.9,0-95.8-42.9-95.8-95.8C4.2,47.1,47.1,4.2,100,4.2
		C152.9,4.2,195.8,47.1,195.8,100z"/>
	<g id="surface1_00000023244750854005664970000001021509082495974070_">
		<path class="st1" d="M175.7,85.3c-6.8-6.3-16.2-15.9-23.9-22.7l-0.5-0.3c-0.8-0.6-1.6-1.1-2.5-1.4C130.3,57.4,44.2,41.3,42.5,41.5
			c-0.5,0.1-0.9,0.2-1.3,0.5l-0.4,0.3c-0.5,0.5-0.9,1.2-1.2,1.9l-0.1,0.3v1.9c9.7,27,48,115.4,55.5,136.1c0.5,1.4,1.3,4.1,2.9,4.2
			h0.4c0.9,0,4.5-4.9,4.5-4.9s65.7-79.7,72.4-88.2c0.9-1,1.6-2.2,2.3-3.4C177.8,88.5,177.1,86.6,175.7,85.3z M119.7,94.6l28.1-23.3
			l16.5,15.2L119.7,94.6z M108.8,93.1L60.5,53.5l78.1,14.4L108.8,93.1z M113.1,103.4l49.4-8L106,163.6L113.1,103.4z M53.9,57.4
			l50.8,43.1l-7.4,63.1L53.9,57.4z"/>
	</g>
</g>
<path class="st2" d="M263.4-7.6"/>
</svg>
