<?xml version="1.0" encoding="utf-8"?>
<!-- Generator: Adobe Illustrator 26.4.1, SVG Export Plug-In . SVG Version: 6.00 Build 0)  -->
<svg version="1.1" id="Layer_1" xmlns="http://www.w3.org/2000/svg" xmlns:xlink="http://www.w3.org/1999/xlink" x="0px" y="0px"
	 viewBox="0 0 200 200" style="enable-background:new 0 0 200 200;" xml:space="preserve">
<style type="text/css">
	.st0{fill:#1B1B1B;}
	.st1{fill-rule:evenodd;clip-rule:evenodd;fill:#FBD52E;}
	.st2{fill-rule:evenodd;clip-rule:evenodd;fill:#FFFFFF;}
	.st3{fill:none;stroke:#FFFFFF;stroke-width:3.2787;stroke-linecap:round;stroke-miterlimit:6.5574;}
</style>
<g id="surface1_00000103955597701102914250000005251003009576502202_">
	<path class="st0" d="M200,100c0,55.3-44.7,100-100,100S0,155.3,0,100S44.7,0,100,0S200,44.7,200,100z"/>
</g>
<path class="st1" d="M263.4-7.6"/>
<path class="st2" d="M136.9,65.2c1.6,1.6,4.3,1.4,5.6-0.4c1.3-1.4,1-3.8-0.4-4.9c-13.7-13.1-26-19.8-46.4-18.8
	c-21.4,1-40.3,12.3-39.1,36c1,21.1,21.4,28.7,39.3,35.5c13.7,5.2,25.8,9.8,26.4,19.5c0.6,10.8-10.4,17.3-19.9,17.9
	c-18.1,1-28.7-5.5-40.6-16.9c-1.4-1.4-3.7-1.4-5.2-0.3c-1.6,1.4-1.6,3.9-0.3,5.6c13.3,13.3,27,19.9,47.1,18.9
	c19.9-1.4,44.5-12.7,43.3-36.4c-1-20.6-20.6-28.3-38.3-34.9c-14.6-5.6-28-10.8-28.7-22.7c-0.4-8.5,9.8-14.7,17-15.2
	C114.4,47.5,125.4,53.7,136.9,65.2z M139.1,121.6c0,9.1-4.9,17-12.4,21.6l-0.4-0.3c2.7-3.7,3.2-8.5,3.2-13.1
	c0-13.6-14.7-18.8-30.3-24.4c-17.3-6.2-35.4-12.7-35.4-31c0-8.4,3.7-17.3,11-21.4l0.3,0.4c-1.9,3.9-2.7,8.4-2.7,12.7
	c0,15,16.4,21.1,33.1,27.3C122.3,99.8,139.1,106,139.1,121.6z"/>
<path class="st3" d="M100,182.3c45.4,0,82.3-36.9,82.3-82.3c0-45.3-36.9-82.3-82.3-82.3S17.7,54.6,17.7,100S54.6,182.3,100,182.3z"
	/>
</svg>
