<?xml version="1.0" encoding="utf-8"?>
<!-- Generator: Adobe Illustrator 26.4.1, SVG Export Plug-In . SVG Version: 6.00 Build 0)  -->
<svg version="1.1" id="Layer_1" xmlns="http://www.w3.org/2000/svg" xmlns:xlink="http://www.w3.org/1999/xlink" x="0px" y="0px"
	 viewBox="0 0 200 200" style="enable-background:new 0 0 200 200;" xml:space="preserve">
<style type="text/css">
	.st0{fill:#1B1B1B;stroke:#FFFFFF;stroke-width:6.5574;stroke-miterlimit:6.5574;}
	.st1{fill-rule:evenodd;clip-rule:evenodd;fill:#FBD52E;}
	.st2{fill-rule:evenodd;clip-rule:evenodd;fill:#FFFFFF;}
	.st3{fill:none;stroke:#FFFFFF;stroke-width:3.2787;stroke-linecap:round;stroke-miterlimit:6.5574;}
</style>
<g id="surface1_00000103955597701102914250000005251003009576502202_">
	<path class="st0" d="M191.4,100c0,50.5-40.9,91.4-91.4,91.4S8.6,150.5,8.6,100S49.5,8.6,100,8.6S191.4,49.5,191.4,100z"/>
</g>
<path class="st1" d="M263.4-7.6"/>
<path class="st2" d="M129.2,72.5c1.3,1.3,3.4,1.1,4.4-0.3c1-1.1,0.8-3-0.3-3.9c-10.8-10.3-20.5-15.6-36.6-14.8
	c-16.9,0.8-31.8,9.7-30.8,28.4c0.8,16.6,16.9,22.6,31,28c10.8,4.1,20.3,7.7,20.8,15.4c0.5,8.5-8.2,13.6-15.7,14.1
	c-14.3,0.8-22.6-4.3-32-13.3c-1.1-1.1-2.9-1.1-4.1-0.2c-1.3,1.1-1.3,3.1-0.2,4.4c10.5,10.5,21.3,15.7,37.1,14.9
	c15.7-1.1,35.1-10,34.1-28.7c-0.8-16.2-16.2-22.3-30.2-27.5c-11.5-4.4-22.1-8.5-22.6-17.9c-0.3-6.7,7.7-11.6,13.4-12
	C111.5,58.5,120.2,63.4,129.2,72.5z M131,116.9c0,7.2-3.9,13.4-9.8,17l-0.3-0.2c2.1-2.9,2.5-6.7,2.5-10.3
	c0-10.7-11.6-14.8-23.9-19.2c-13.6-4.9-27.9-10-27.9-24.4c0-6.6,2.9-13.6,8.7-16.9l0.2,0.3c-1.5,3.1-2.1,6.6-2.1,10
	c0,11.8,12.9,16.6,26.1,21.5C117.7,99.7,131,104.6,131,116.9z"/>
<path class="st3" d="M100,177.9c43,0,77.9-34.9,77.9-77.9c0-42.9-34.9-77.9-77.9-77.9C57,22.1,22.1,57,22.1,100
	C22.1,143,57,177.9,100,177.9z"/>
</svg>
