<?xml version="1.0" encoding="utf-8"?>
<!-- Generator: Adobe Illustrator 26.4.1, SVG Export Plug-In . SVG Version: 6.00 Build 0)  -->
<svg version="1.1" id="Layer_1" xmlns="http://www.w3.org/2000/svg" xmlns:xlink="http://www.w3.org/1999/xlink" x="0px" y="0px"
	 viewBox="0 0 200 200" style="enable-background:new 0 0 200 200;" xml:space="preserve">
<style type="text/css">
	.st0{fill:url(#SVGID_1_);}
	.st1{opacity:0.3;fill:url(#SVGID_00000104665400160034821230000010120812163371819956_);enable-background:new    ;}
	.st2{opacity:0.5;fill:url(#SVGID_00000054961708724104285580000016297974671182003081_);enable-background:new    ;}
	.st3{opacity:0.15;fill:url(#SVGID_00000155123330766409083900000012275772373286824832_);enable-background:new    ;}
	.st4{fill:#FEFEFE;}
</style>
<linearGradient id="SVGID_1_" gradientUnits="userSpaceOnUse" x1="200" y1="-0.1359" x2="-7.389993e-06" y2="199.8641" gradientTransform="matrix(1 0 0 -1 0 199.89)">
	<stop  offset="0" style="stop-color:#A839FF"/>
	<stop  offset="0.469" style="stop-color:#FF4071"/>
	<stop  offset="1" style="stop-color:#FED648"/>
</linearGradient>
<circle class="st0" cx="100" cy="100" r="100"/>
<linearGradient id="SVGID_00000004515181644119135950000003529262286884439718_" gradientUnits="userSpaceOnUse" x1="180.1944" y1="29.3318" x2="20.8841" y2="27.9525" gradientTransform="matrix(1 0 0 -1 0 199.89)">
	<stop  offset="0" style="stop-color:#FFFFFF"/>
	<stop  offset="1" style="stop-color:#FFFFFF;stop-opacity:0"/>
</linearGradient>
<path style="opacity:0.3;fill:url(#SVGID_00000004515181644119135950000003529262286884439718_);enable-background:new    ;" d="
	M174.6,143.1l12,6.9c-17.3,29.9-49.6,50-86.6,50c-37,0-69.3-20.1-86.6-50l12-6.9c14.9,25.7,42.7,43,74.6,43
	C131.9,186.1,159.7,168.8,174.6,143.1L174.6,143.1z"/>
<linearGradient id="SVGID_00000047746897532620962730000016643174437964298115_" gradientUnits="userSpaceOnUse" x1="118.6454" y1="207.1359" x2="201.6992" y2="68.0021" gradientTransform="matrix(1 0 0 -1 0 199.89)">
	<stop  offset="0" style="stop-color:#FFFFFF"/>
	<stop  offset="1" style="stop-color:#FFFFFF;stop-opacity:0"/>
</linearGradient>
<path style="opacity:0.5;fill:url(#SVGID_00000047746897532620962730000016643174437964298115_);enable-background:new    ;" d="
	M100,0c55.2,0,100,44.8,100,100c0,18.2-4.9,35.3-13.4,50l-12-6.9c7.3-12.7,11.5-27.4,11.5-43.1c0-47.6-38.6-86.1-86.1-86.1L100,0
	L100,0z"/>
<linearGradient id="SVGID_00000005268732659348985450000014677838456338828421_" gradientUnits="userSpaceOnUse" x1="-2.8511" y1="61.1013" x2="77.7269" y2="205.6861" gradientTransform="matrix(1 0 0 -1 0 199.89)">
	<stop  offset="0" style="stop-color:#FFFFFF"/>
	<stop  offset="1" style="stop-color:#FFFFFF;stop-opacity:0"/>
</linearGradient>
<path style="opacity:0.15;fill:url(#SVGID_00000005268732659348985450000014677838456338828421_);enable-background:new    ;" d="
	M100,0v13.9l-1.4,0c-46.9,0.8-84.7,39-84.7,86.1c0,15.7,4.2,30.4,11.5,43.1l-12,6.9C4.9,135.3,0,118.2,0,100C0,44.8,44.8,0,100,0z"
	/>
<g>
	<path class="st4" d="M67.3,79.5c1.5,1.7,3.1,3.5,4.6,5.2c0.3,0.4,0.7,0.4,1,0c0.9-1,1.7-1.9,2.6-2.9c0.7-0.8,1.4-1.5,2.1-2.2
		c2-2.3,4.2-4.6,6.3-6.8c2.3-2.5,4.5-4.9,6.8-7.4c0.6-0.7,1.3-1,2.2-1c6.1,0,12.2,0,18.3,0c0.3,0,0.7,0,1,0.1
		c0.6,0.3,0.7,0.9,0.1,1.5c-1.6,1.8-3.2,3.5-4.7,5.2C99.7,79.8,92,88.3,84.2,96.8c-0.9,0.9-0.9,1,0,1.9c1.7,1.8,3.4,3.7,5.2,5.5
		c0.6,0.4,1.1,0.9,1.5,1.4c2.8,3.2,5.7,6.3,8.6,9.4c1.5,1.7,3.1,3.3,4.6,5c2,2.1,3.9,4.3,5.9,6.4c0.1,0.1,0.3,0.3,0.2,0.5
		c0.9,1,1.8,2,2.7,3c0.2,0.2,0.4,0.3,0.3,0.6c-0.1,0.3-0.4,0.2-0.7,0.2c-2.7,0-5.5,0-8.2,0c-4,0-8.1,0-12.1,0
		c-0.8,0-1.4-0.3-1.9-0.8c-5.8-6.3-11.5-12.6-17.3-18.9c-0.3-0.3-0.5-0.6-0.8-0.8c-2.9,3.2-5.9,6.4-8.8,9.7
		c-2.9,3.2-5.8,6.4-8.7,9.7c-0.8,0.8-1.6,1.3-2.7,1.2c-6.7-0.1-13.4-0.1-20.1-0.1c-0.4-0.5-0.1-0.8,0.2-1.2c2-2.2,4-4.4,6-6.5
		c7.5-8.2,15-16.4,22.5-24.5c0.7-0.8,0.7-1,0-1.8c-3.7-4.1-7.4-8.2-11.1-12.2c-5.8-6.3-11.5-12.7-17.3-19c-0.2-0.3-0.6-0.5-0.4-0.9
		c0.2-0.4,0.6-0.4,1-0.4c6.4,0,12.9,0,19.3,0c0.9,0,1.6,0.4,2.2,1c3.6,3.9,7.1,7.9,10.7,11.8C65.8,77.9,66.5,78.7,67.3,79.5z"/>
	<path class="st4" d="M167,89c-1.2-4.5-3.3-8.5-6.1-12.1c0-0.4-0.2-0.6-0.4-0.8c-3.3-3.9-7.3-7-12-9.1c-3.5-1.6-7.2-2.5-11-2.8
		c-0.6,0-1.2,0-1.7-0.1c-1.8-0.1-3.7,0-5.5,0c-0.3,0-0.6,0.1-0.8,0.2c-2.4,0-4.9,0-7.3,0c-1.4,0-2.5,0.5-3.5,1.5
		c-1.3,1.4-2.6,2.9-4,4.3c-5.4,6-10.9,12-16.3,18c-2.6,2.9-5.3,5.8-7.9,8.7c-0.8,0.8-0.7,1.1,0,1.9c0.6,0.7,1.2,1.4,1.8,2.1
		c0.2,0.7,0.7,1.1,1.1,1.6c1.1,1,2,2.1,3,3.2c2.6,2.9,5.4,5.7,8,8.7c1.5,1.7,3.1,3.3,4.6,5c1.1,1.3,2.3,2.5,3.4,3.8
		c0.3,0.3,0.5,0.7,1,0.8c1.8,1.9,3.5,3.8,5.3,5.7c0.8,0.9,1.7,1.4,3,1.4c4,0,8.1,0,12.1,0c4.1,0,8-0.5,11.9-1.8
		c6-2.1,11.1-5.6,15.1-10.6c4-5,6.3-10.7,7.1-17C168.4,97.3,168.1,93.1,167,89z M132.9,117.3c-10.9,0-19.7-8.8-19.7-19.7
		c0-10.9,8.8-19.7,19.7-19.7c10.4,0,19.7,8.4,19.7,19.7C152.7,108.5,143.8,117.4,132.9,117.3z"/>
</g>
</svg>
