<?xml version="1.0" encoding="UTF-8"?>
<svg xmlns="http://www.w3.org/2000/svg" xmlns:xlink="http://www.w3.org/1999/xlink" width="200px" height="200px" viewBox="0 0 200 200" version="1.1">
<g id="surface1">
<path style=" stroke:none;fill-rule:nonzero;fill:rgb(0%,9.803922%,23.529412%);fill-opacity:1;" d="M 58.785156 113.878906 C 64.53125 113.878906 70.140625 111.960938 74.671875 108.457031 L 38.222656 72.007812 C 29.4375 83.363281 31.542969 99.71875 42.898438 108.503906 C 47.476562 111.960938 53.039062 113.878906 58.785156 113.878906 Z M 58.785156 113.878906 "/>
<path style=" stroke:none;fill-rule:nonzero;fill:rgb(0%,9.803922%,23.529412%);fill-opacity:1;" d="M 167.195312 87.851562 C 167.195312 82.101562 165.28125 76.496094 161.777344 71.960938 L 125.328125 108.410156 C 136.683594 117.195312 152.992188 115.09375 161.777344 103.738281 C 165.28125 99.207031 167.195312 93.597656 167.195312 87.851562 Z M 167.195312 87.851562 "/>
<path style=" stroke:none;fill-rule:nonzero;fill:rgb(0%,9.803922%,23.529412%);fill-opacity:1;" d="M 185.5625 48.175781 L 169.4375 64.300781 C 182.429688 79.859375 180.375 103.039062 164.8125 116.027344 C 151.167969 127.429688 131.355469 127.429688 117.710938 116.027344 L 100 133.738281 L 82.335938 116.074219 C 66.777344 129.066406 43.597656 127.007812 30.609375 111.449219 C 19.207031 97.804688 19.207031 77.992188 30.609375 64.347656 L 22.335938 56.074219 L 14.484375 48.175781 C 5 63.785156 0 81.730469 0 100 C 0 155.234375 44.765625 200 100 200 C 155.234375 200 200 155.234375 200 100 C 200.046875 81.730469 195 63.785156 185.5625 48.175781 Z M 185.5625 48.175781 "/>
<path style=" stroke:none;fill-rule:nonzero;fill:rgb(0%,9.803922%,23.529412%);fill-opacity:1;" d="M 172.335938 30.980469 C 134.253906 -8.972656 70.980469 -10.46875 31.027344 27.617188 C 29.859375 28.738281 28.738281 29.859375 27.664062 30.980469 C 25.1875 33.597656 22.851562 36.308594 20.652344 39.160156 L 100 118.550781 L 179.347656 39.160156 C 177.195312 36.308594 174.8125 33.597656 172.335938 30.980469 Z M 100 13.085938 C 123.363281 13.085938 145.140625 22.101562 161.496094 38.550781 L 100 100.046875 L 38.503906 38.550781 C 54.859375 22.101562 76.636719 13.085938 100 13.085938 Z M 100 13.085938 "/>
</g>
</svg>
