<?xml version="1.0" encoding="utf-8"?>
<!-- Generator: Adobe Illustrator 26.4.1, SVG Export Plug-In . SVG Version: 6.00 Build 0)  -->
<svg version="1.1" id="Layer_1" xmlns="http://www.w3.org/2000/svg" xmlns:xlink="http://www.w3.org/1999/xlink" x="0px" y="0px"
	 viewBox="0 0 200 200" style="enable-background:new 0 0 200 200;" xml:space="preserve">
<style type="text/css">
	.st0{fill:#00193C;}
	.st1{fill-rule:evenodd;clip-rule:evenodd;fill:#FBD52E;}
	.st2{fill:#FFFFFF;}
</style>
<g id="surface1">
	<path class="st0" d="M194.8,100c0,52.4-42.5,94.8-94.8,94.8S5.2,152.4,5.2,100S47.6,5.2,100,5.2S194.8,47.6,194.8,100z"/>
</g>
<path class="st1" d="M263.4-7.6"/>
<g id="surface1_00000046331171410768400160000006665072378491657659_">
	<path class="st2" d="M72.3,109.3c3.9,0,7.6-1.3,10.7-3.6L58.4,81.2c-5.9,7.6-4.5,18.7,3.1,24.6C64.6,108,68.4,109.3,72.3,109.3z"/>
	<path class="st2" d="M145.2,91.8c0-3.9-1.3-7.6-3.6-10.7L117,105.7c7.6,5.9,18.6,4.5,24.5-3.1C143.9,99.5,145.2,95.7,145.2,91.8z"
		/>
	<path class="st2" d="M157.6,65.1L146.7,76c8.7,10.5,7.4,26.1-3.1,34.8c-9.2,7.7-22.5,7.7-31.7,0L100,122.7l-11.9-11.9
		c-10.5,8.7-26.1,7.4-34.8-3.1c-7.7-9.2-7.7-22.5,0-31.7l-5.6-5.6l-5.3-5.3c-6.4,10.5-9.7,22.6-9.7,34.9c0,37.2,30.1,67.3,67.3,67.3
		s67.3-30.1,67.3-67.3C167.3,87.7,163.9,75.6,157.6,65.1z"/>
	<path class="st2" d="M148.7,53.5c-25.6-26.9-68.2-27.9-95.1-2.3c-0.8,0.8-1.5,1.5-2.3,2.3c-1.7,1.8-3.2,3.6-4.7,5.5l53.4,53.4
		l53.4-53.4C152,57.1,150.4,55.3,148.7,53.5z M100,41.5c15.7,0,30.4,6.1,41.4,17.1L100,100L58.6,58.6C69.6,47.6,84.3,41.5,100,41.5z
		"/>
</g>
</svg>
