<?xml version="1.0" encoding="utf-8"?>
<!-- Generator: Adobe Illustrator 26.4.1, SVG Export Plug-In . SVG Version: 6.00 Build 0)  -->
<svg version="1.1" id="Layer_1" xmlns="http://www.w3.org/2000/svg" xmlns:xlink="http://www.w3.org/1999/xlink" x="0px" y="0px"
	 viewBox="0 0 200 200" style="enable-background:new 0 0 200 200;" xml:space="preserve">
<style type="text/css">
	.st0{fill-rule:evenodd;clip-rule:evenodd;fill:#FBD52E;}
	.st1{fill:url(#SVGID_1_);}
	.st2{fill:url(#SVGID_00000171720544439487230000000012740462478116366231_);}
</style>
<path class="st0" d="M100,99.1"/>
<g>
	<linearGradient id="SVGID_1_" gradientUnits="userSpaceOnUse" x1="53.1447" y1="210.2453" x2="239.6464" y2="23.7435">
		<stop  offset="0" style="stop-color:#006AFF"/>
		<stop  offset="4.923984e-02" style="stop-color:#1564FF"/>
		<stop  offset="0.1852" style="stop-color:#4956FF"/>
		<stop  offset="0.3232" style="stop-color:#7749FF"/>
		<stop  offset="0.4606" style="stop-color:#9C3FFF"/>
		<stop  offset="0.5972" style="stop-color:#B837FF"/>
		<stop  offset="0.7329" style="stop-color:#CD32FF"/>
		<stop  offset="0.8674" style="stop-color:#D92EFF"/>
		<stop  offset="0.9994" style="stop-color:#DD2DFF"/>
	</linearGradient>
	<path class="st1" d="M200,13.6L186.7,0.3L0,186.6l13.6,13l22.9-22.8c17.1,14.3,39.2,23,63.2,23c54.5,0,98.8-44.3,98.8-98.8
		c0-23.9-8.6-45.9-22.8-63L200,13.6z M180.5,100.9c0,44.6-36.3,80.9-80.9,80.9c-19.1,0-36.6-6.7-50.5-17.8L162.9,50.6
		C173.9,64.4,180.5,81.9,180.5,100.9z"/>
	
		<linearGradient id="SVGID_00000039853118790416497320000005943212897135702912_" gradientUnits="userSpaceOnUse" x1="-13.6202" y1="124.2711" x2="120.146" y2="-9.4951">
		<stop  offset="0" style="stop-color:#006AFF"/>
		<stop  offset="0.1201" style="stop-color:#2B5EFF"/>
		<stop  offset="0.2874" style="stop-color:#614FFF"/>
		<stop  offset="0.4512" style="stop-color:#8D43FF"/>
		<stop  offset="0.6077" style="stop-color:#B039FF"/>
		<stop  offset="0.7549" style="stop-color:#C933FF"/>
		<stop  offset="0.8894" style="stop-color:#D82EFF"/>
		<stop  offset="0.9994" style="stop-color:#DD2DFF"/>
	</linearGradient>
	<path style="fill:url(#SVGID_00000039853118790416497320000005943212897135702912_);" d="M25.9,134.2c-4.6-10.2-7.2-21.4-7.2-33.3
		C18.7,56.3,55,20,99.6,20c11.9,0,23.3,2.6,33.5,7.3l13.4-13.3C132.5,6.4,116.6,2.1,99.6,2.1c-54.5,0-98.8,44.3-98.8,98.8
		c0,16.9,4.3,32.7,11.7,46.6L25.9,134.2z"/>
</g>
</svg>
