<?xml version="1.0" encoding="UTF-8"?>
<svg id="Layer_1" data-name="Layer 1" xmlns="http://www.w3.org/2000/svg" version="1.1" viewBox="0 0 500 500">
  <defs>
    <style>
      .cls-1 {
        fill: #000;
      }

      .cls-1, .cls-2 {
        stroke-width: 0px;
      }

      .cls-2 {
        fill: #fff;
      }
    </style>
  </defs>
  <circle class="cls-1" cx="250" cy="250" r="249.8"/>
  <path class="cls-2" d="M339.9,188.1c-37.2,20.2-72,38.1-105.7,57.8-16.3,9.5-29.1,7.9-42.8-3.6-13.1-11-27-21.1-42.9-33.4-.5,7.6-1.2,12.5-1.2,17.3-.1,29.2.2,58.5-.2,87.7-.2,15.1-8.8,24.4-21.3,23.6-14.3-.9-19.8-10.1-19.8-23.3,0-48.6-.3-97.1,0-145.7.2-23.1,16.3-31.5,36.1-18.6,20.6,13.4,40.6,27.8,60,42.9,9.5,7.4,16.4,7,26.4,1.1,39.1-23.3,78.6-45.9,118.2-68.4,24.4-13.9,47.2-1.1,47.3,27.2.4,66.3,0,132.7.1,199,0,11.8-2.8,23.4-14.8,26.7-8.6,2.4-20.9,2.5-27.5-2.1-6.6-4.6-11.2-16.3-11.4-25-1.1-47.5-.5-95-.5-142.6,0-5.7,0-11.4,0-20.7Z"/>
</svg>