<?xml version="1.0" encoding="UTF-8"?>
<svg xmlns="http://www.w3.org/2000/svg" xmlns:xlink="http://www.w3.org/1999/xlink" width="400px" height="400px" viewBox="0 0 400 400" version="1.1">
<g id="surface1">
<path style=" stroke:none;fill-rule:nonzero;fill:rgb(7.45098%,36.470588%,80.392157%);fill-opacity:1;" d="M 86.015625 0 L 313.984375 0 C 361.488281 0 400 38.511719 400 86.015625 L 400 313.984375 C 400 361.488281 361.488281 400 313.984375 400 L 86.015625 400 C 38.511719 400 0 361.488281 0 313.984375 L 0 86.015625 C 0 38.511719 38.511719 0 86.015625 0 Z M 86.015625 0 "/>
<path style=" stroke:none;fill-rule:nonzero;fill:rgb(100%,100%,100%);fill-opacity:1;" d="M 210.496094 400 L 186.453125 400 L 86.625 121.121094 L 77.894531 96.730469 L 78.027344 96.175781 L 103.652344 101.679688 L 110.234375 120.085938 L 112.597656 126.714844 L 122.625 154.714844 Z M 210.496094 400 "/>
<path style=" stroke:none;fill-rule:nonzero;fill:rgb(100%,100%,100%);fill-opacity:1;" d="M 321.765625 309.589844 L 320.175781 333.199219 L 315.652344 400 L 293.035156 400 L 298.84375 313.941406 L 299.226562 308.085938 Z M 321.765625 309.589844 "/>
<path style=" stroke:none;fill-rule:nonzero;fill:rgb(100%,100%,100%);fill-opacity:1;" d="M 400 207.824219 L 400 239.738281 L 328.085938 311.652344 L 312.128906 295.695312 Z M 400 207.824219 "/>
<path style=" stroke:none;fill-rule:nonzero;fill:rgb(100%,100%,100%);fill-opacity:1;" d="M 400 290.714844 L 400 313.636719 L 307.445312 329.503906 L 303.609375 307.269531 Z M 400 290.714844 "/>
<path style=" stroke:none;fill-rule:nonzero;fill:rgb(100%,100%,100%);fill-opacity:1;" d="M 77.894531 96.730469 L 78.027344 96.175781 L 103.652344 101.679688 L 400 165.242188 L 400 188.304688 L 112.597656 126.714844 L 86.625 121.121094 Z M 77.894531 96.730469 "/>
<path style=" stroke:none;fill-rule:nonzero;fill:rgb(100%,100%,100%);fill-opacity:1;" d="M 98.589844 132.976562 L 113.730469 116.21875 L 328.1875 309.996094 L 313.046875 326.753906 Z M 98.589844 132.976562 "/>
</g>
</svg>
