<?xml version="1.0" encoding="utf-8"?>
<svg version="1.1" id="Layer_1" xmlns="http://www.w3.org/2000/svg" xmlns:xlink="http://www.w3.org/1999/xlink" x="0px" y="0px"
	 viewBox="0 0 200 200" style="enable-background:new 0 0 200 200;" xml:space="preserve">
<style type="text/css">
	.st0{fill-rule:evenodd;clip-rule:evenodd;fill:#FBD52E;}
	.st1{fill:#FFFA1D;}
</style>
<circle cx="100" cy="100" r="100"/>
<path class="st0" d="M263.4-7.6"/>
<g id="_x30_A17TZ.tif">
	
		<image style="overflow:visible;" width="1446" height="394" id="Layer_0_00000093871597889851900240000003630135754966488252_" xlink:href="99C68B6B084179E7.png"  transform="matrix(0.5 0 0 0.5 -215.7798 -530.4675)">
	</image>
</g>
<g>
	<polygon class="st1" points="22,93 53.1,93 51.6,97.6 39.1,97.6 37.6,102.4 50,102.4 48.4,107.7 31.4,107.7 34.9,97 30.2,93.8 
		23.9,113 46.9,113 53.1,109.9 55.1,103 51.4,100.4 57.1,97.6 59.1,91.5 54.8,88.2 27.8,88.2 	"/>
	<polygon class="st1" points="62.9,86.8 55.5,109.9 60,113 78,112.6 79.7,108.1 62,108.1 67.4,90.7 	"/>
	<polygon class="st1" points="80.2,113 85.9,113 91.7,96.1 87.7,93.2 110.2,93.2 105.6,107.2 98.1,101.4 90.7,101.4 104.8,113 
		109.1,113 116.2,91.5 111.9,88.2 93,88.2 86.8,93.2 	"/>
	<polygon class="st1" points="145.4,93.2 147.1,88.2 124.4,88.2 118,93 115.8,100 120,103.1 137.4,103.1 135.8,108 113,108.2 
		111.5,113.2 134.6,113 140.4,110 143.5,101.3 139.6,98 121.9,98 122.5,96.1 119.2,93.1 	"/>
	<polygon class="st1" points="149,88.2 147.6,93.1 159.5,93.1 152.8,113 158.8,113 165.2,93.2 178,93.2 172.6,88 	"/>
</g>
</svg>
