<?xml version="1.0" encoding="utf-8"?>
<svg version="1.1" id="Layer_1" xmlns="http://www.w3.org/2000/svg" xmlns:xlink="http://www.w3.org/1999/xlink" x="0px" y="0px"
	 viewBox="0 0 200 200" style="enable-background:new 0 0 200 200;" xml:space="preserve">
<style type="text/css">
	.st0{fill-rule:evenodd;clip-rule:evenodd;fill:#FBD52E;}
	.st1{fill:#FDFE03;}
</style>
<g id="surface1">
	<path d="M200,100c0,55.3-44.8,100-100,100S0,155.3,0,100S44.7,0,100,0S200,44.7,200,100z"/>
</g>
<path class="st0" d="M263.4-7.6"/>
<g>
	<path class="st1" d="M43.5,142.7c7.1-22.2,14.1-44.1,21.1-66.3c4.5,3.4,8.7,6.4,12.8,9.7c0.6,0.4,0.7,1.9,0.5,2.8
		c-3.7,11.7-7.4,23.3-11.2,34.9c-0.3,0.8-0.5,1.7-0.8,2.9c1.3,0,2.2,0,3.1,0c18.8,0,37.7,0,56.5,0c2,0,2.9-0.6,3.4-2.5
		c1.7-5.8,3.7-11.6,5.5-17.3c0.2-0.6,0.3-1.3,0.5-2.1c-14.7,0-29.1,0-44,0c1.4-4.3,2.6-8.3,4-12.3c0.2-0.5,1.5-0.7,2.3-0.7
		c13.1,0,26.2-0.1,39.2,0c2.1,0,3.1-0.5,3.7-2.6c1.5-5.2,3.3-10.2,5.1-15.8c-36.6,0-72.9,0-109.1,0c-0.1-0.2-0.1-0.4-0.2-0.6
		c3.9-2.9,8.1-5.5,11.6-8.8c5.8-5.4,12.3-6.8,20.2-6.7c26.7,0.4,53.3,0.1,80,0.2c1.5,0,3.1,0.6,4.3,1.4c3.6,2.4,7,5.1,10.5,7.6
		c1.2,0.8,1.6,1.6,1.1,3.1c-2,6-3.9,12-6,18c-0.3,1-1.3,2-2.2,2.4c-5.8,3-11.6,5.8-17.4,8.8c-0.4,0.2-0.8,0.5-1.6,1
		c3.1,2.3,6,4.5,8.9,6.6c5,3.7,5,3.7,3,9.6c-1.6,4.8-3,9.7-4.7,14.5c-0.4,1.2-1.5,2.6-2.7,3.2c-5.7,3-11.4,5.8-17.2,8.6
		c-1,0.5-2.2,0.8-3.3,0.8c-25.2,0-50.5,0-75.7,0C44.6,142.9,44.2,142.8,43.5,142.7z"/>
</g>
</svg>
