<?xml version="1.0" encoding="UTF-8"?>
<svg id="Layer_1" data-name="Layer 1" xmlns="http://www.w3.org/2000/svg" version="1.1" viewBox="0 0 200 200">
  <defs>
    <style>
      .cls-1 {
        fill: #fd3c9c;
      }

      .cls-1, .cls-2, .cls-3 {
        stroke-width: 0px;
      }

      .cls-2 {
        fill: #fd0193;
      }

      .cls-3 {
        fill: #fff;
      }
    </style>
  </defs>
  <circle class="cls-3" cx="100.5" cy="99.9" r="99.9"/>
  <g>
    <path class="cls-1" d="M135.3,144.9c11-8.7,13.9-19.4,8.2-29.8-6.7-12.3-22.5-15.1-33.7-5.7-3,2.5-6.2,4-10.2,4-4.2,0-7.3-2.3-10.4-4.7-12.4-9.6-29.3-4.5-34.4,10.3-2.4,6.9-1,13.3,2.9,19.3,1.3,2,2.8,3.9,4.2,5.9-1.2,1.6-2.9,1-4.4,1-9.7,0-19.4,0-29.1,0-3.4-1.2-3.4-3.6-2-6.2,1.1-2,2.6-3.8,4-5.6,2.9-4,2.7-5.7-.8-8.9-1.9-1.7-3.9-3.4-5.8-5.1-2.7-2.5-2.8-5.6,0-8.2,2.1-2,4.3-3.9,6.5-5.7,2.8-2.3,3.3-4.8,1.5-8-1.3-2.2-2.4-4.6-3.5-6.9-2.2-4.6-1.2-6.8,3.7-8.5,2.6-.9,5.2-1.7,7.8-2.6,2.9-.9,4.2-2.8,4-5.8-.2-3-.3-6-.5-9.1-.2-4.1,1.4-6,5.4-5.9,2.7,0,5.5.3,8.2.7,3.9.5,6.4-1.1,7.5-4.8.8-2.6,1.6-5.2,2.6-7.8,1.4-3.8,4.1-4.9,7.8-3.2.8.4,1.4,1,2,1.5,7.1,4.7,10,4.3,15.7-2,1.1-1.2,2.1-2.4,3.1-3.6,2.8-3.1,6.3-3,8.7.3,1.1,1.5,2.2,2.8,3.6,4.1,5.9,5.3,5.9,5.3,12.8,1.8,1.3-.6,2.6-1.3,3.9-1.9,4-1.8,6.6-.5,8.4,3.4,1.8,4,1.4,8.9,5.5,11.8.8.6,1.6,1.7,2.5,1.1,3.5-2.3,7.4-.8,11.1-1.2,2.9-.4,4.1,1.6,4.2,4.3,0,3.5-.2,6.9-.3,10.4,0,3.1.7,5.4,4.4,6.2,3.1.6,6.1,1.8,9,3.1,3,1.3,4,3.6,2.6,6.6-1.4,3-2.9,6-4.4,8.9-1.2,2.3-1.1,4.6,1,6.2,2.6,2,4.3,4.9,7.2,6.6,2.2,1.3,2.8,3.2,1.4,5.9-1.5,3-4.1,4.7-6.4,6.8-4.2,3.9-4.5,6.5-.7,10.9.8,1,1.7,1.9,2.4,3,2.5,3.5,2,5.5-1.8,8.1-1.4-1.2-3-.6-4.6-.6-10.4-.1-20.7-.2-31.1-.2Z"/>
    <path class="cls-1" d="M100.4,145c-5.7,0-10.1-2.9-10.1-6.6,0-4.1,4.2-7.1,10.1-7,3,0,5.8.5,8.1,3.1,2.9,3.2,2.9,6.2-.8,8.5-2.2,1.4-4.7,2.1-7.4,2Z"/>
    <path class="cls-1" d="M125.8,119c3.2,0,6.3,3,6.3,6.1,0,3.4-2.8,6.2-6.3,6.2-3.4,0-5.9-2.6-6-6,0-3.9,2.3-6.3,6-6.3Z"/>
    <path class="cls-1" d="M74.9,131.3c-3.5-.1-6.1-3-5.9-6.5.2-3.7,3-5.9,7.4-5.7,2.8.1,4.9,3.1,4.8,6.6-.1,3.3-2.9,5.8-6.3,5.7Z"/>
    <path class="cls-2" d="M28.6,145.2c9.7,0,19.4,0,29.1,0,1.5,0,3.2.6,4.4-1,1.5-.1,2.7.2,3.8,1.9-12.2,0-24,0-35.8,0-.5,0-1-.5-1.4-.8Z"/>
    <path class="cls-2" d="M135.3,144.9c10.4,0,20.7.1,31.1.2,1.5,0,3.2-.5,4.6.6-11.9,0-23.7.2-35.6.3-.3,0-.7,0-.8-.2-.6-.9.5-.6.7-.9Z"/>
  </g>
</svg>