<?xml version="1.0" encoding="utf-8"?>
<svg version="1.1" id="Layer_1" xmlns="http://www.w3.org/2000/svg" xmlns:xlink="http://www.w3.org/1999/xlink" x="0px" y="0px"
	 viewBox="0 0 250 250" style="enable-background:new 0 0 250 250;" xml:space="preserve">
<style type="text/css">
	.st0{clip-path:url(#SVGID_00000097478877065501427250000000099827776283389876_);}
	.st1{fill:#151923;}
	.st2{fill:#FFFFFF;}
	.st3{fill-rule:evenodd;clip-rule:evenodd;fill:#151923;}
</style>
<g>
	<defs>
		<path id="SVGID_1_" d="M30.8,0h188.5c17,0,30.8,13.8,30.8,30.8v188.5c0,17-13.8,30.8-30.8,30.8H30.8C13.8,250,0,236.2,0,219.2
			V30.8C0,13.8,13.8,0,30.8,0z"/>
	</defs>
	<clipPath id="SVGID_00000106140759462961004820000007079761865448205231_">
		<use xlink:href="#SVGID_1_"  style="overflow:visible;"/>
	</clipPath>
	<g style="clip-path:url(#SVGID_00000106140759462961004820000007079761865448205231_);">
		<path class="st1" d="M0,17.4C0,7.8,7.8,0,17.4,0H125h107.6c9.6,0,17.4,7.8,17.4,17.4v215.1c0,9.6-7.8,17.4-17.4,17.4H17.4
			C7.8,250,0,242.2,0,232.6V17.4z"/>
		<path class="st2" d="M103.5,70.8c-5,1.5-14.3-6.6-20.9-13.5c-1.6-1.7-4.7-0.6-5,1.7c-1.2,8-4.6,18.2-12.5,22.3
			c-7.8,4.1-17.7-0.6-24.5-5.7c-1.9-1.4-5.1,0.2-5,2.6c0.4,8.4-0.3,19.2-4.8,24c-4.6,4.9-15,3.9-23,2c-2.2-0.5-4.4,2-3.5,4.1
			c2.9,6.7,5.7,16.4,4.5,24.7c-1.2,8.1-11,11.2-19.8,12c-2.5,0.2-4,4.3-2.2,6.1c4.9,5,9.2,11.9,7.6,18.6
			c-1.7,7.1-8.7,12.2-15.1,15.3c-2.2,1.1-2.2,4.9-0.1,6c7.2,3.7,15.2,9.7,15.2,17.1c0,8.8-17,14.8-29.1,17.5
			c-2.1,0.5-2.8,3.2-1.2,4.7c6.8,6.2,15.6,16.1,15.6,23.8c0,7.6-11.6,15.1-20.8,19.6c-2.1,1-2,4.3,0.1,5.2
			c8.7,3.9,19.7,10.7,20.7,18.8c1,7.7-6.6,16.5-13.5,22.5c-1.8,1.6-0.8,5.1,1.6,5.3c11,1.2,24.9,5,26.6,14.4
			c1.3,6.9-0.8,13.1-3.7,17.8c-1.3,2.2,0.9,6.4,3.5,6.3c9.8-0.6,21.7,0.5,26.9,7.4c5.4,7.2,6.3,17.7,5.9,25.3
			c-0.1,2.2,2.6,3.9,4.5,2.9c8.1-4.3,20.2-7.9,28.3-0.8c6.4,5.6,9.4,12.8,10.6,18.6c0.5,2.4,4.5,3.8,6.3,2.1
			c7.1-6.9,17.7-13.9,26.6-9.6c9.1,4.4,15.3,13.4,18.7,20.1c1,1.9,3.9,2.1,5.1,0.3c5.3-8.4,14.6-19.5,23.8-20.4
			c9.1-0.9,19.1,6.3,25.2,12.1c1.5,1.4,4.2,0.7,4.6-1.3c2.3-9.6,7.2-23.2,14.3-25.7c6.4-2.3,17.1,1.2,24.8,4.6
			c2.1,0.9,4.8-1.4,4.5-3.7c-1.1-6.9-0.8-16.5,5.3-24.6c6.6-8.8,19.1-7.4,28.2-5c2.2,0.6,4.5-2.1,3.6-4.3c-3-7.5-5.5-18.3-2.7-25.1
			c3-7.2,15-10.3,24.4-11.3c2.3-0.3,3.4-3.5,1.7-5.1c-6.4-6-13.8-14.9-13.8-22.7c0-7.8,10-14.4,18.6-18.3c2.2-1,2.1-4.7-0.1-5.7
			c-8.6-3.8-18.5-10.5-18.5-19.5c0-9,7.3-17.7,13.7-23.2c1.7-1.5,0.9-4.8-1.3-5.3c-10.5-2.2-24-7.5-24.7-17.5
			c-0.6-8.4,5.5-14,11.6-17.2c2.2-1.2,2.3-5.2,0.1-6.3c-7.3-3.6-15.5-9-16.4-15c-1.1-6.6,6.2-15.1,12.4-20.7
			c1.6-1.5,0.8-4.5-1.4-4.9c-8.7-1.7-20.4-5.2-24.1-11.2c-3.6-5.9-0.4-15.7,3-22.6c1-1.9-0.8-4.4-2.9-4.2c-8.4,1-20.3,1-26.1-4
			c-5-4.2-4.7-12.4-2.9-19.3c0.6-2.4-2.6-5.1-4.9-4.1c-6.9,3.2-15.9,5.6-22.7,2.4c-7.3-3.4-10.4-13.3-11.5-21.5
			c-0.3-2.4-3.8-3.5-5.4-1.8c-5.6,6-13.9,12.7-21.1,12.7c-8.3,0-16-11.5-20.2-20.1c-0.9-1.8-3.6-2-4.7-0.3
			C116.8,58.3,108.8,69.2,103.5,70.8z"/>
		<path class="st3" d="M124,53.5c-2.4,3.7-5.5,8-8.5,11.7c-1.7,2-3.5,3.9-5.2,5.5c-1.7,1.5-3.6,2.9-5.7,3.5
			c-2.3,0.7-4.7,0.2-6.7-0.6c-2.1-0.8-4.2-2.1-6.2-3.5c-3.7-2.7-7.5-6.2-10.7-9.5c-0.7,4-1.9,8.5-3.9,12.6
			c-2.2,4.5-5.4,8.8-10.3,11.3c-5,2.6-10.4,2.3-15.3,0.8c-4.5-1.4-8.8-3.8-12.3-6.3c0.2,4.1,0,8.8-0.6,13.2
			c-0.7,4.5-2.2,9.3-5.1,12.5c-3.3,3.5-8.2,4.6-12.7,4.7c-4.3,0.1-8.8-0.6-12.7-1.5c2.8,6.9,5.7,16.8,4.4,25.6
			c-0.8,5.6-4.6,9.2-8.9,11.4c-4.1,2.1-9.1,3.2-13.6,3.6c0,0.1-0.1,0.1-0.1,0.2c0,0.1-0.1,0.2-0.1,0.3c0,0,0,0,0,0
			c2.5,2.6,5,5.8,6.7,9.4c1.7,3.7,2.6,7.9,1.6,12.3c-1.1,4.4-3.7,8.1-6.8,10.9c-3,2.8-6.5,5-9.8,6.6c0,0,0,0,0,0.1c0,0,0,0,0,0
			c3.7,1.9,7.7,4.5,10.9,7.6c3.2,3.2,5.9,7.4,5.9,12.5c0,3.4-1.7,6.3-3.8,8.5c-2.2,2.2-5,4.1-8.1,5.7c-5.7,2.9-12.6,5-18.4,6.4
			c3.3,3,6.8,6.8,9.8,10.8c3.1,4.3,5.9,9.5,5.9,14.5c0,5.5-4.1,10.2-8.2,13.6c-4,3.3-8.9,6.2-13.4,8.5c4.2,2,8.9,4.6,12.8,7.7
			c4.2,3.4,8.1,7.8,8.8,13.2c0.7,5.1-1.5,10.1-4.4,14.3c-2.7,4-6.2,7.6-9.6,10.6c5.4,0.7,11.6,2,16.8,4.3
			c5.4,2.4,10.7,6.4,11.8,12.8c1.5,7.9-0.9,14.9-4,20c0,0.2,0.1,0.4,0.2,0.7c0.1,0.2,0.2,0.3,0.3,0.4c5-0.3,10.6-0.1,15.7,1
			c5.2,1.1,10.5,3.4,13.8,7.8c6,7.9,6.9,19.1,6.6,26.8c4.2-2.2,9.4-4.2,14.8-4.7c5.7-0.6,11.8,0.3,16.9,4.7c7,6.2,10.3,14,11.7,20.3
			c0,0,0.1,0.1,0.1,0.1c0.1,0,0.2,0.1,0.3,0.1c0.1,0,0.2,0.1,0.3,0.1c3.7-3.6,8.3-7.2,13.4-9.5c5.2-2.3,11.2-3.3,16.9-0.5
			c9.7,4.7,16.3,13.9,19.9,20.8c2.7-4.1,6.3-8.9,10.4-12.8c4.3-4.1,9.7-7.8,15.5-8.4c5.5-0.5,11.1,1.4,15.8,4
			c4.3,2.4,8.2,5.4,11.3,8.3c1.2-4.7,3-10.2,5.3-15c1.3-2.6,2.8-5.1,4.5-7.2c1.7-2,3.9-3.9,6.4-4.8c4.2-1.5,9.2-1,13.9,0.1
			c4.5,1,9.2,2.7,13.1,4.5c-1.2-7.4-0.7-18,6-27c4.1-5.5,9.9-7.6,15.7-8.1c5.4-0.5,10.9,0.4,15.4,1.6c-1.5-3.8-2.8-8.4-3.5-13
			c-0.7-4.7-0.7-9.9,1.1-14.2c2.1-4.9,6.9-8,11.7-9.9c4.6-1.8,9.7-2.9,14.3-3.5c-3.1-3-6.3-6.6-8.9-10.5c-2.8-4.2-5.1-9.1-5.1-14
			c0-5.4,3.4-9.9,7.3-13.3c3.7-3.2,8.3-5.9,12.6-7.9c-4.3-2-9-4.7-12.7-8.1c-3.9-3.6-7.2-8.4-7.2-14.3c0-5.4,2.2-10.5,5-14.8
			c2.7-4,6-7.6,9.1-10.4c-5.2-1.2-11.2-3.1-16.2-6c-5.2-3.1-9.9-7.8-10.3-14.5c-0.7-10.4,6.7-17,13.2-20.5c0,0,0,0,0,0
			c0-0.1,0-0.1,0-0.2c0,0,0-0.1,0-0.1c-3.7-1.8-7.7-4.1-10.9-6.8c-3.3-2.7-6.4-6.3-7.1-10.5c-0.8-4.7,1.4-9.4,4-13.2
			c2.4-3.6,5.6-7,8.5-9.8c-4.2-0.9-9-2.2-13.3-3.9c-4.6-1.9-9.3-4.6-11.8-8.6c-2.5-4.1-2.4-9-1.6-13.4c0.8-4.1,2.3-8.2,3.9-11.6
			c-4.1,0.4-9,0.6-13.6,0.1c-5-0.5-10.3-1.9-14-5c-3.5-2.9-4.9-7-5.2-11c-0.4-3.8,0.2-7.9,1.1-11.5c0,0,0,0,0,0c0,0-0.1-0.1-0.1-0.1
			c0,0-0.1-0.1-0.1-0.1c0,0,0,0,0,0c-3.6,1.6-7.8,3.1-12,3.7c-4.4,0.7-9.1,0.5-13.3-1.5c-4.7-2.2-7.8-6.3-9.8-10.7
			c-1.9-4.1-3-8.7-3.6-12.8c-2.8,3-6.3,6.1-10,8.6c-3.9,2.6-8.5,4.7-13.1,4.7c-5.7,0-10.6-3.9-14.3-8C129,62.4,126.1,57.7,124,53.5z
			 M-5.9,359.4C-5.9,359.4-5.9,359.4-5.9,359.4C-5.9,359.4-5.9,359.4-5.9,359.4z M118.9,48.5c2.6-4.1,8.7-3.6,10.8,0.6
			c2,4.1,4.9,8.9,8.1,12.5c3.3,3.8,6.4,5.7,9,5.7c2.6,0,5.8-1.3,9.2-3.5c3.4-2.2,6.6-5.2,9.3-8.1l2.6,2.4l-2.6-2.4
			c2-2.1,4.9-2.2,6.9-1.6c2,0.7,4.2,2.4,4.6,5.3c0.5,3.8,1.5,8,3.1,11.5c1.6,3.5,3.8,6,6.4,7.3c2.5,1.2,5.7,1.4,9.3,0.9
			c3.5-0.5,7.2-1.8,10.5-3.3c2.8-1.3,5.6-0.1,7.2,1.3c1.6,1.3,3.3,3.9,2.5,6.9c-0.8,3.2-1.2,6.6-1,9.5c0.3,2.9,1.2,5,2.8,6.3
			l-2.3,2.7l2.3-2.7c2.1,1.8,5.7,2.9,10.2,3.4c4.4,0.5,9.2,0.2,13.2-0.2c2.6-0.3,4.7,1.1,5.9,2.7c1.2,1.7,1.7,4.1,0.6,6.5
			c-1.6,3.3-3.1,7.2-3.8,10.8c-0.7,3.7-0.4,6.6,0.7,8.4c1.2,2,4.2,4,8.5,5.8c4.2,1.7,9,3,13.2,3.8c2.6,0.5,4.3,2.5,4.8,4.6
			c0.6,2,0.2,4.6-1.8,6.4c-3,2.7-6.1,6-8.4,9.4c-2.3,3.5-3.2,6.3-2.9,8.2c0.3,1.7,1.7,3.9,4.6,6.2c2.8,2.3,6.4,4.4,9.9,6.1
			c2.8,1.4,3.6,4.3,3.6,6.4c0,2.1-1,4.8-3.6,6.2c-5.7,3-10.1,7.6-9.7,13.9c0.2,3.3,2.6,6.3,6.9,8.9c4.3,2.6,9.9,4.3,14.9,5.4
			c2.8,0.6,4.3,2.8,4.9,4.8c0.5,2,0.2,4.7-1.9,6.5c-3,2.6-6.2,5.9-8.6,9.5c-2.4,3.7-3.9,7.4-3.9,11c0,3.1,1.7,6.2,4.9,9.1
			c3.2,2.9,7.4,5.4,11.5,7.2c2.7,1.2,3.7,3.9,3.8,6c0,2.1-0.9,4.9-3.7,6.1c-4.1,1.9-8.5,4.4-11.7,7.2c-3.3,2.9-4.9,5.6-4.9,8
			c0,2.9,1.4,6.4,3.9,10.1c2.4,3.7,5.7,7.2,8.7,10.1c2.1,1.9,2.3,4.7,1.6,6.7c-0.7,2-2.5,4.1-5.3,4.4c-4.5,0.5-9.5,1.5-13.7,3.2
			c-4.3,1.7-6.9,3.8-7.9,6c-1.1,2.5-1.2,6.2-0.6,10.5c0.6,4.2,1.9,8.5,3.3,12c1,2.6,0.1,5.1-1.2,6.7c-1.3,1.6-3.7,3-6.5,2.3
			c-4.4-1.1-9.4-2-13.8-1.6c-4.4,0.4-8.1,1.9-10.6,5.3c-5.3,7-5.7,15.5-4.6,21.9c0.4,2.7-0.9,5-2.5,6.3c-1.6,1.3-4.2,2.3-6.8,1.1
			c-3.8-1.7-8.1-3.3-12.3-4.2c-4.3-1-7.7-1.1-10-0.3c-1,0.3-2.1,1.2-3.4,2.7c-1.2,1.5-2.5,3.4-3.6,5.7c-2.3,4.6-4,10.1-5.1,14.8
			c-1.2,4.7-7.1,6.3-10.5,3c-2.9-2.8-6.7-5.8-10.7-8c-4.1-2.3-8.2-3.5-11.7-3.1c-3.4,0.3-7.3,2.7-11.3,6.5
			c-3.9,3.7-7.3,8.3-9.9,12.4c-1.4,2.2-3.8,3-5.8,2.9c-2-0.1-4.3-1.2-5.4-3.5c-3.2-6.4-9-14.6-17.1-18.5c-3.2-1.5-6.9-1.2-11,0.6
			c-4.1,1.8-8.2,5-11.6,8.3c-2.2,2.2-5.3,2-7.2,1.3c-1.9-0.7-4.4-2.3-5-5.2c-1.1-5.3-3.8-11.7-9.5-16.7c-3.1-2.7-7-3.5-11.5-3
			c-4.5,0.5-9.1,2.3-12.9,4.3c-2.3,1.2-4.9,0.7-6.6-0.4c-1.7-1.1-3.3-3.2-3.1-5.8c0.4-7.3-0.5-16.8-5.2-23c-1.8-2.4-5.2-4.2-9.7-5.1
			c-4.4-1-9.5-1.1-14.2-0.8c-3.3,0.2-5.5-2.3-6.5-4.1c-1-1.8-1.8-4.9-0.2-7.5c2.5-4.2,4.3-9.6,3.2-15.4c-0.5-3-3.1-5.6-7.8-7.7
			c-4.6-2.1-10.4-3.3-15.7-3.9c-3-0.3-4.8-2.6-5.4-4.6c-0.6-2-0.4-4.9,1.8-6.9c3.3-2.9,6.7-6.3,9.1-9.9c2.5-3.6,3.6-6.9,3.2-9.5
			c-0.4-2.7-2.5-5.7-6.2-8.7c-3.6-2.9-8.3-5.5-12.5-7.4c-2.5-1.1-3.6-3.6-3.7-5.7c0-2.1,1-4.6,3.5-5.9c4.5-2.2,9.4-5,13.2-8.2
			c4-3.3,5.7-6.2,5.7-8.3c0-2.7-1.6-6.3-4.6-10.4c-2.9-3.9-6.6-7.8-9.9-10.8c-3.6-3.3-2.1-9.6,2.8-10.7c5.9-1.3,12.9-3.4,18.3-6.2
			c2.7-1.4,4.8-2.8,6.2-4.3c1.4-1.4,1.9-2.6,1.9-3.6c0-2.4-1.3-4.9-3.8-7.5c-2.5-2.5-6-4.8-9.4-6.5c-2.7-1.4-3.5-4.1-3.5-6.2
			c0-2.1,1-4.8,3.6-6.1l1.5,3.2L-22,182c3-1.4,6-3.3,8.4-5.6c2.4-2.3,4.1-4.7,4.8-7.4c0.6-2.4,0.1-5-1.1-7.7
			c-1.3-2.7-3.3-5.4-5.6-7.7c-2.2-2.2-2-5.3-1.3-7.3c0.7-2,2.5-4.5,5.7-4.8c4.2-0.4,8.3-1.3,11.5-2.9c3.1-1.6,4.8-3.6,5.2-6.1
			c1.1-7.3-1.5-16.2-4.3-22.8c-1.1-2.6-0.2-5.1,1.1-6.7c1.4-1.6,3.7-2.9,6.4-2.2c3.8,0.9,8.1,1.6,11.8,1.5c3.9-0.1,6.4-1,7.8-2.4
			c1.5-1.6,2.7-4.7,3.3-8.8c0.6-4,0.7-8.6,0.5-12.6c-0.1-2.9,1.7-5,3.6-6c1.9-1,4.6-1.3,6.9,0.4c3.2,2.4,7,4.6,10.8,5.7
			c3.8,1.1,7.2,1.1,10-0.3c3-1.6,5.4-4.5,7.2-8.1c1.8-3.7,2.9-7.8,3.4-11.6c0.4-2.7,2.4-4.4,4.4-5.1c2-0.7,4.7-0.5,6.7,1.5
			c3.2,3.4,7,7,10.5,9.5c1.8,1.3,3.3,2.2,4.6,2.7c1.4,0.5,2,0.5,2.1,0.4c0.6-0.2,1.6-0.8,3.1-2c1.4-1.2,2.9-2.8,4.5-4.7
			C113.2,57,116.4,52.4,118.9,48.5l3,1.9l0,0 M118.9,48.5l3,1.9L118.9,48.5z"/>
		<path class="st3" d="M189.1,116.8v7.2h8.2v-9.8c0-4.8-5-8-9.3-5.9l-15.7,7.5l3.5,7.4L189.1,116.8z M179.6,175
			c0.9,7-2.5,13.1-7.6,13.7c-5.1,0.6-9.9-4.5-10.7-11.4c-0.9-7,2.5-13.1,7.6-13.7C174,162.9,178.8,168.1,179.6,175z M97.3,177.4
			c0.4,7-3.3,12.9-8.4,13.2s-9.6-5.1-10-12.1c-0.4-7,3.3-12.9,8.4-13.2S96.8,170.4,97.3,177.4z M132.5,187.2
			c2.8-0.1,5.2,0.7,6.6,1.6c1.4,1,1.6,1.8,1.6,2c0,0.2-0.1,1-1.4,2.1c-1.4,1.1-3.6,2-6.4,2.1c-2.8,0.1-5.2-0.7-6.6-1.6
			c-1.4-1-1.6-1.8-1.6-2c0-0.2,0.1-1,1.4-2.1C127.4,188.2,129.6,187.3,132.5,187.2z M132.2,180.1c8.3-0.3,15.3,4.3,15.5,10.4
			c0.2,4.4-3.2,8.3-8.3,10.2c0.2,1,0.6,2.3,1.1,3.6c1,2.5,2.4,4.7,4.1,6c1.8,1.3,4.1,1.2,7.4-0.9c2.6-1.6,4.8-3.8,6.5-5.4l0,0l0,0
			l0,0c0.4-0.4,0.8-0.8,1.1-1.1c1.4-1.3,3.6-1.2,5,0.2c1.3,1.4,1.2,3.6-0.2,5c-0.2,0.2-0.5,0.5-0.8,0.8l0,0l0,0
			c-1.6,1.6-4.6,4.4-7.9,6.5c-3.9,2.4-9.9,4.6-15.3,0.5c-2.5-1.9-4.3-4.5-5.5-7.1c-0.8,2.5-2.1,5.2-4,7.6c-3.5,4.3-9.1,4.9-13.3,4.5
			c-2.2-0.2-4.4-0.8-6.2-1.4c-1.8-0.7-3.5-1.6-4.7-2.7c-1.4-1.3-1.5-3.5-0.2-5c1.3-1.4,3.5-1.5,5-0.2c0.3,0.2,1.1,0.8,2.4,1.3
			c1.3,0.5,2.9,0.9,4.5,1c3.4,0.3,5.9-0.4,7.2-1.9c1.5-1.8,2.5-4.2,3.2-6.6c0.3-1.3,0.6-2.5,0.7-3.5c-6.5-1-11.5-5.1-11.7-10.2
			C117.3,185.6,123.9,180.4,132.2,180.1z M71,128.3l-12.5-6.9v15.4h-8.2v-18.1c0-5,5.3-8.1,9.7-5.7l15,8.3L71,128.3z"/>
	</g>
</g>
</svg>
