<?xml version="1.0" encoding="utf-8"?>
<!-- Generator: Adobe Illustrator 26.4.1, SVG Export Plug-In . SVG Version: 6.00 Build 0)  -->
<svg version="1.1" id="Layer_1" xmlns="http://www.w3.org/2000/svg" xmlns:xlink="http://www.w3.org/1999/xlink" x="0px" y="0px"
	 viewBox="0 0 200 200" style="enable-background:new 0 0 200 200;" xml:space="preserve">
<style type="text/css">
	.st0{fill:url(#SVGID_1_);}
	.st1{fill:#FFFFFF;}
	.st2{fill:#221F20;}
</style>
<g>
	
		<radialGradient id="SVGID_1_" cx="-188.269" cy="508.1789" r="3.9592" gradientTransform="matrix(31.1531 0 0 -31.1531 5965.1621 15931.3467)" gradientUnits="userSpaceOnUse">
		<stop  offset="0.47" style="stop-color:#F21F7F"/>
		<stop  offset="0.6" style="stop-color:#EB3F9F"/>
		<stop  offset="0.73" style="stop-color:#E558B9"/>
		<stop  offset="0.85" style="stop-color:#E168C9"/>
		<stop  offset="0.94" style="stop-color:#E06DCE"/>
	</radialGradient>
	<path class="st0" d="M4.1,147C-3.5,121.5,3.7,94.8,17,71.7c4.7-8.1,9.2-14.2,14.9-21.6c5.4-7.1,11.3-13.8,17.6-20.1
		c3.9-3.8,7.6-7.8,11.8-11.3c3.5-2.9,10.5-9.4,15.6-6.6c3.4,1.8,4.1,5.9,3.7,9.2c-0.4,3.6-2.6,8.2,1.1,10.5c2.9,1.8,7.5-0.2,9.9-2.5
		c5.7-5.6,36.9-34.1,43.4-20.2c0.9,1.9,0.2,4.3-0.7,6.2c-2.2,4.4-5.1,10.6,0.2,14.3c4,2.8,8.6,0.3,12.5-1.2c7-2.7,14.3-5.2,21.7-5.9
		c3.8-0.3,9.4-0.4,11.1,3.9c2.2,5.7-2.6,10.1-6.1,13.9c-2,2.1-5.4,4.7-5.7,8.5c-0.6,6,8.7,7.3,13.3,8.1c2.7,0.4,5.4,0.9,8,1.6
		c3.9,1.1,9.3,3.6,9.4,8.3c0.1,5.1-5.8,7.8-9,10.1c0,0-16.3,8.3-16.7,17.7c-0.3,6.7,5.5,10.7,11.1,14c3.4,2,7.4,2.8,10.8,4.9
		c2.2,1.3,4.4,3.8,4.1,6.5c-0.3,2.9-3.5,5.2-5.9,6.4c-2.7,1.4-5.8,1.7-8.7,2.5c-3.4,1-6.7,2.3-9.9,3.9c-3,1.6-6.4,3.7-7.9,7
		c-1.8,3.9-1.2,6.4,0.5,10.2c1.7,3.8,6,7.2,7.3,11.2c2.5,7.7-5.5,11.2-11.7,12.5c-10.3,2.3-20.4,5.2-30.4,8.5
		c-11.4,3.8-22.6,9.3-34.8,11c-9.2,1.3-18.4,1.7-27.7,1c-17.7-1.3-35.7-6.7-48.8-19.1C12.9,167.5,7.1,157.8,4.1,147z"/>
	<path class="st1" d="M12.8,127.9c1-7.4,5.5-15.2,13.6-16c12.3-1.2,20.1,7.2,28.3,10.3c8,3,12.6,3.3,21.1,2.1
		c13.8-2,37.4-9.2,40.2,10.3c1.9,13.4-0.9,24.7-11.8,34.5c-12.7,11.4-32.3,14.1-53.9,9.1c-9.6-2.2-19.1-7.9-26.2-14.7
		C14.5,154.1,11,141.5,12.8,127.9z"/>
	<path class="st2" d="M33.2,146.8c3.4,0,6.1-3.7,6.1-8.2c0-4.5-2.7-8.2-6.1-8.2s-6.1,3.7-6.1,8.2C27.1,143.2,29.8,146.8,33.2,146.8z
		"/>
	<path class="st2" d="M76.3,154.7c4,0,7.3-4.4,7.3-9.8s-3.3-9.8-7.3-9.8c-4,0-7.3,4.4-7.3,9.8S72.2,154.7,76.3,154.7z"/>
	<path class="st2" d="M42.9,156.5c2.3,0,4.2-1.9,4.2-4.3c0-2.4-1.9-4.3-4.2-4.3c-2.3,0-4.2,1.9-4.2,4.3
		C38.7,154.5,40.6,156.5,42.9,156.5z"/>
	<path class="st2" d="M50.3,163.2c-1.7,0-3.4-0.3-5-0.9c-0.4-0.2-0.7-0.5-0.8-0.8c-0.2-0.4-0.2-0.8,0-1.2c0.2-0.4,0.5-0.7,0.8-0.8
		c0.4-0.2,0.8-0.2,1.2,0c0.3,0.1,8.1,3.1,12.2-4.6c0.1-0.2,0.2-0.3,0.4-0.5c0.2-0.1,0.3-0.2,0.5-0.3c0.2-0.1,0.4-0.1,0.6-0.1
		c0.2,0,0.4,0.1,0.6,0.2c0.2,0.1,0.3,0.2,0.5,0.4c0.1,0.2,0.2,0.3,0.3,0.5c0.1,0.2,0.1,0.4,0.1,0.6c0,0.2-0.1,0.4-0.2,0.6
		C58.5,161.7,54.1,163.2,50.3,163.2z"/>
</g>
</svg>
