<?xml version="1.0" encoding="utf-8"?>
<!-- Generator: Adobe Illustrator 26.4.1, SVG Export Plug-In . SVG Version: 6.00 Build 0)  -->
<svg version="1.1" id="Layer_1" xmlns="http://www.w3.org/2000/svg" xmlns:xlink="http://www.w3.org/1999/xlink" x="0px" y="0px"
	 viewBox="0 0 200 200" style="enable-background:new 0 0 200 200;" xml:space="preserve">
<style type="text/css">
	.st0{fill:#13B5EC;}
	.st1{fill-rule:evenodd;clip-rule:evenodd;fill:#FBD52E;}
	.st2{fill-rule:evenodd;clip-rule:evenodd;fill:#FFFFFF;}
</style>
<path class="st0" d="M200,100c0,55.3-44.8,100-100,100S0,155.3,0,100S44.7,0,100,0S200,44.7,200,100z"/>
<path class="st1" d="M263.4-7.6"/>
<g id="surface6">
	<path class="st2" d="M109.5,75.5L138,58.9v33.2L109.5,75.5z M138,146.8L100,169l-38-22.2v-38.8l38,22.2l38-22.2V146.8z M62,58.9
		l28.5,16.6L62,92.2V58.9z M104.8,83.5l28.5,16.6l-28.5,16.6V83.5z M95.2,116.7l-28.4-16.6l28.5-16.6v33.2H95.2z M133.2,50.9
		l-33.2,19l-33.2-19L100,31.1L133.2,50.9z M52.5,47.9v103.8l47.5,26.9l47.5-26.9V47.9l-47.5-27L52.5,47.9z"/>
</g>
</svg>
