<?xml version="1.0" encoding="utf-8"?>
<!-- Generator: Adobe Illustrator 26.4.1, SVG Export Plug-In . SVG Version: 6.00 Build 0)  -->
<svg version="1.1" id="Layer_1" xmlns="http://www.w3.org/2000/svg" xmlns:xlink="http://www.w3.org/1999/xlink" x="0px" y="0px"
	 viewBox="0 0 200 200" style="enable-background:new 0 0 200 200;" xml:space="preserve">
<style type="text/css">
	.st0{fill:#13B5EC;}
	.st1{fill-rule:evenodd;clip-rule:evenodd;fill:#FBD52E;}
	.st2{clip-path:url(#SVGID_00000147192483002400783270000007524855518563409800_);}
	.st3{fill-rule:evenodd;clip-rule:evenodd;fill:#FFFFFF;}
</style>
<g id="surface1">
	<path class="st0" d="M194.8,100c0,52.4-42.5,94.8-94.8,94.8S5.2,152.4,5.2,100S47.6,5.2,100,5.2S194.8,47.6,194.8,100z"/>
</g>
<path class="st1" d="M263.4-7.6"/>
<g>
	<g>
		<defs>
			<rect id="SVGID_1_" width="200" height="200"/>
		</defs>
		<clipPath id="SVGID_00000062192982325871023430000009328689060683231642_">
			<use xlink:href="#SVGID_1_"  style="overflow:visible;"/>
		</clipPath>
		<g id="surface6" style="clip-path:url(#SVGID_00000062192982325871023430000009328689060683231642_);">
			<path class="st3" d="M107.5,80.6L130,67.5v26.2L107.5,80.6z M130,136.9l-30,17.5l-30-17.5v-30.6l30,17.5l30-17.5V136.9z M70,67.5
				l22.5,13.1L70,93.8V67.5z M103.8,86.9l22.5,13.1l-22.5,13.1V86.9z M96.2,113.1L73.8,100l22.5-13.1V113.1z M126.2,61.2l-26.2,15
				l-26.2-15L100,45.6L126.2,61.2z M62.5,58.8v81.9l37.5,21.2l37.5-21.2V58.8L100,37.5L62.5,58.8z"/>
		</g>
	</g>
</g>
</svg>
