<?xml version="1.0" encoding="UTF-8"?>
<svg id="Layer_1" data-name="Layer 1" xmlns="http://www.w3.org/2000/svg" version="1.1" viewBox="0 0 500 500">
  <defs>
    <style>
      .cls-1 {
        fill: #ff0420;
        stroke-width: 0px;
      }
    </style>
  </defs>
  <path class="cls-1" d="M250,.2C112,.2.1,112.1.1,250.1s111.9,249.9,249.9,249.9,249.9-111.9,249.9-249.9S388,.2,250,.2ZM250,377.3v104.4c-99.1,0-179.4-80.3-179.4-179.4S150.9,122.9,250,122.9V18.5c99.1,0,179.4,80.3,179.4,179.4s-80.3,179.4-179.4,179.4ZM336,249.3v1.6c-37.9,18.9-66.3,47.3-85.2,85.2h-1.6c-18.9-37.9-47.3-66.3-85.2-85.2v-1.6c37.9-18.9,66.3-47.3,85.2-85.2h1.6c18.9,37.9,47.3,66.3,85.2,85.2Z"/>
</svg>