<?xml version="1.0" encoding="utf-8"?>
<!-- Generator: Adobe Illustrator 26.4.1, SVG Export Plug-In . SVG Version: 6.00 Build 0)  -->
<svg version="1.1" id="Layer_1" xmlns="http://www.w3.org/2000/svg" xmlns:xlink="http://www.w3.org/1999/xlink" x="0px" y="0px"
	 viewBox="0 0 200 200" style="enable-background:new 0 0 200 200;" xml:space="preserve">
<style type="text/css">
	.st0{fill:#FF0420;}
	.st1{fill:#FFFFFF;}
	.st2{fill-rule:evenodd;clip-rule:evenodd;fill:#FBD52E;}
</style>
<g id="surface1">
	<path class="st0" d="M199.5,100c0,55.1-44.5,99.5-99.5,99.5S0.5,155.1,0.5,100S44.9,0.5,100,0.5S199.5,44.9,199.5,100z"/>
	<path class="st1" d="M59.7,136.2c-8.1,0-14.7-1.9-19.8-5.8s-7.6-9.4-7.6-16.5c0-1.6,0.2-3.3,0.6-5.5c0.9-4.9,2.1-10.9,3.8-17.6
		c4.7-18.7,16.5-28.1,35.8-28.1c5.3,0,10,0.9,14.1,2.7c4.2,1.7,7.4,4.3,9.9,7.8c2.4,3.4,3.5,7.5,3.5,12.2c0,1.4-0.2,3.2-0.6,5.4
		c-1,6.1-2.2,11.9-3.7,17.6c-2.4,9.4-6.5,16.3-12.3,20.9C77.3,134,69.4,136.2,59.7,136.2z M61.1,121.6c3.9,0,7.1-1.1,9.7-3.4
		c2.8-2.2,4.7-5.8,5.9-10.3c1.6-6.4,2.8-12,3.5-16.7c0.2-1.4,0.4-2.9,0.4-4.4c0-6.2-3.2-9.3-9.7-9.3c-3.9,0-7.1,1.1-9.9,3.4
		c-2.7,2.2-4.5,5.8-5.8,10.3c-1.2,4.5-2.4,10.2-3.7,16.7c-0.3,1.3-0.4,2.8-0.4,4.3C51.3,118.5,54.6,121.6,61.1,121.6z"/>
	<path class="st1" d="M104.4,135.2c-0.8,0-1.3-0.2-1.8-0.8c-0.3-0.6-0.4-1.1-0.3-1.9l14.1-66.4c0.1-0.8,0.6-1.3,1.1-1.9
		c0.7-0.4,1.2-0.7,2-0.7h27.1c7.6,0,13.5,1.6,18.2,4.8c4.7,3.1,7,7.6,7,13.5c0,1.7-0.2,3.5-0.7,5.3c-1.7,7.9-5.2,13.5-10.4,17.3
		c-5.1,3.8-12.1,5.6-21.1,5.6h-13.7l-4.8,22.4c-0.1,0.8-0.6,1.3-1.1,1.9c-0.7,0.4-1.2,0.8-2,0.8L104.4,135.2L104.4,135.2z
		 M140.4,96.3c2.9,0,5.3-0.8,7.5-2.3c2.2-1.6,3.7-3.9,4.3-6.8c0.2-1.2,0.3-2.2,0.3-3.1c0-2-0.6-3.5-1.8-4.5c-1.2-1.1-3.1-1.7-6-1.7
		h-12.2l-3.9,18.3H140.4z"/>
</g>
<path class="st2" d="M263.4-7.6"/>
</svg>
