<?xml version="1.0" encoding="utf-8"?>
<!-- Generator: Adobe Illustrator 26.4.1, SVG Export Plug-In . SVG Version: 6.00 Build 0)  -->
<svg version="1.1" id="Layer_1" xmlns="http://www.w3.org/2000/svg" xmlns:xlink="http://www.w3.org/1999/xlink" x="0px" y="0px"
	 viewBox="0 0 200 200" style="enable-background:new 0 0 200 200;" xml:space="preserve">
<style type="text/css">
	.st0{fill:#FF0420;}
	.st1{fill:#FFFFFF;}
	.st2{fill-rule:evenodd;clip-rule:evenodd;fill:#FBD52E;}
</style>
<g id="surface1">
	<path class="st0" d="M190.3,100.3c0,49.9-40.4,90.3-90.3,90.3S9.7,150.2,9.7,100.3S50.1,10,100,10S190.3,50.4,190.3,100.3z"/>
	<path class="st1" d="M63.4,133.2c-7.3,0-13.4-1.7-18-5.2c-4.6-3.5-6.9-8.5-6.9-15c0-1.4,0.2-3,0.5-5c0.8-4.4,1.9-9.8,3.4-16
		c4.2-17,15-25.5,32.5-25.5c4.8,0,9,0.8,12.8,2.4c3.8,1.5,6.7,3.9,8.9,7c2.2,3.1,3.2,6.8,3.2,11.1c0,1.3-0.2,2.9-0.5,4.9
		c-0.9,5.5-2,10.8-3.3,16c-2.2,8.5-5.9,14.8-11.2,19C79.4,131.2,72.3,133.2,63.4,133.2z M64.7,119.9c3.5,0,6.4-1,8.8-3.1
		c2.5-2,4.2-5.2,5.3-9.3c1.4-5.8,2.5-10.9,3.2-15.2c0.2-1.3,0.4-2.6,0.4-4c0-5.6-2.9-8.4-8.8-8.4c-3.5,0-6.4,1-8.9,3.1
		c-2.4,2-4.1,5.2-5.2,9.3c-1.1,4.1-2.2,9.2-3.3,15.2c-0.3,1.2-0.4,2.5-0.4,3.9C55.8,117.1,58.8,119.9,64.7,119.9z"/>
	<path class="st1" d="M104,132.3c-0.7,0-1.2-0.2-1.6-0.7c-0.3-0.5-0.4-1-0.3-1.7l12.8-60.2c0.1-0.7,0.5-1.2,1-1.7
		c0.6-0.4,1.1-0.6,1.8-0.6h24.6c6.9,0,12.3,1.4,16.5,4.3c4.2,2.8,6.3,6.9,6.3,12.3c0,1.5-0.2,3.2-0.6,4.8
		c-1.5,7.1-4.7,12.3-9.4,15.7c-4.6,3.4-11,5.1-19.1,5.1h-12.5l-4.3,20.3c-0.1,0.7-0.5,1.2-1,1.7c-0.6,0.4-1.1,0.7-1.8,0.7H104z
		 M136.7,97c2.6,0,4.8-0.7,6.8-2.1c2-1.4,3.3-3.5,3.9-6.1c0.2-1.1,0.3-2,0.3-2.8c0-1.8-0.5-3.2-1.6-4.1c-1.1-1-2.8-1.5-5.4-1.5
		h-11.1L126.1,97H136.7z"/>
</g>
<path class="st2" d="M263.4-7.6"/>
</svg>
