<?xml version="1.0" encoding="UTF-8"?>
<svg xmlns="http://www.w3.org/2000/svg" xmlns:xlink="http://www.w3.org/1999/xlink" width="200px" height="px" viewBox="0 0 199 188" version="1.1">
<g id="surface1">
<path style=" stroke:none;fill-rule:nonzero;fill:rgb(100%,100%,100%);fill-opacity:1;" d="M 47.386719 103.582031 L 52.648438 63.871094 L 7.007812 32.050781 L 48.710938 46.238281 L 58.558594 31.058594 L 94.519531 8.648438 L 173.785156 52.511719 L 177.894531 119.4375 L 142.582031 168.726562 L 114.667969 173.019531 L 129.101562 146.484375 L 129.101562 120.933594 L 118.605469 100.980469 L 107.941406 93.886719 L 91.535156 110.871094 L 91.535156 128.847656 L 78.734375 140.886719 L 62.46875 142.867188 L 55.265625 146.964844 L 43.449219 143.175781 L 38.523438 125.371094 L 47.386719 112.851562 Z M 47.386719 103.582031 "/>
<path style=" stroke:none;fill-rule:nonzero;fill:rgb(58.039216%,65.098039%,76.470588%);fill-opacity:1;" d="M 120.265625 31.710938 C 111.570312 29.902344 102.0625 30.382812 102.0625 30.382812 C 102.0625 30.382812 98.9375 44.878906 79.578125 48.695312 C 79.71875 48.695312 105.15625 57.429688 120.265625 31.710938 Z M 120.265625 31.710938 "/>
<path style=" stroke:none;fill-rule:nonzero;fill:rgb(58.039216%,65.098039%,76.470588%);fill-opacity:1;" d="M 128.144531 163.269531 C 138.640625 155.019531 146.519531 143.65625 150.148438 130.796875 C 150.320312 130.316406 151.78125 129.46875 152.765625 128.820312 C 154.398438 127.828125 156.058594 127.011719 156.367188 125.683594 C 157.015625 121.894531 157.351562 117.9375 157.351562 113.980469 C 157.351562 112.511719 155.863281 111.015625 154.398438 109.542969 C 153.246094 108.554688 152.089844 107.394531 152.089844 106.578125 C 150.460938 91.570312 143.566406 77.550781 132.5625 67.347656 L 131.410156 68.507812 C 142.074219 78.570312 148.96875 92.246094 150.460938 106.746094 C 150.628906 108.074219 151.921875 109.375 153.246094 110.703125 C 154.398438 111.691406 155.722656 113.191406 155.722656 113.839844 C 155.722656 117.628906 155.382812 121.414062 154.734375 125.203125 C 154.566406 125.851562 153.105469 126.53125 151.949219 127.179688 C 150.320312 128 148.828125 128.820312 148.515625 130.148438 C 144.578125 144.164062 135.546875 156.375 123.558594 164.289062 C 125.695312 159.679688 132.421875 144.675781 136.023438 137.070312 L 135.375 112.679688 L 114.527344 92.417969 L 102.707031 94.054688 L 89.734375 115.167969 C 89.734375 115.167969 95.8125 122.914062 87.257812 131.984375 C 78.902344 140.886719 72.316406 142.867188 72.316406 142.867188 L 66.238281 139.558594 C 68.039062 137.242188 71.671875 133.792969 74.457031 131.476562 C 79.210938 127.519531 83.96875 127.179688 83.96875 122.914062 C 84.164062 113.980469 74.625 116.441406 74.625 116.441406 L 71.164062 119.746094 L 69.703125 131.957031 L 62.496094 141.027344 L 61.683594 140.859375 L 49.863281 138.230469 C 49.863281 138.230469 57.09375 134.441406 58.25 130.148438 C 59.402344 126.019531 55.941406 112.34375 55.773438 111.523438 C 55.941406 111.691406 59.234375 114.488281 60.695312 119.097656 C 63.3125 111.832031 66.773438 104.910156 67.757812 104.257812 C 68.746094 103.609375 82.027344 96.515625 82.027344 96.515625 L 77.609375 108.214844 L 80.898438 106.40625 L 88.777344 86.960938 C 88.777344 86.960938 96.488281 83.175781 102.230469 83.175781 C 112.554688 83.007812 127.835938 70.316406 120.941406 47.566406 C 122.910156 48.386719 157.042969 65.539062 162.953125 99.171875 C 167.371094 125.03125 152.765625 149.253906 128.144531 163.269531 Z M 128.144531 163.269531 "/>
<path style=" stroke:none;fill-rule:nonzero;fill:rgb(10.588235%,19.215686%,30.980392%);fill-opacity:1;" d="M 89.089844 35.328125 C 92.859375 30.863281 91.394531 24.277344 91.394531 24.277344 L 80.394531 40.613281 C 80.226562 40.613281 84.304688 40.78125 89.089844 35.328125 Z M 89.089844 35.328125 "/>
<path style=" stroke:none;fill-rule:nonzero;fill:rgb(10.588235%,19.215686%,30.980392%);fill-opacity:1;" d="M 52.144531 124.523438 L 53.464844 117.9375 C 53.464844 117.9375 48.035156 127.492188 47.554688 128.820312 C 47.050781 130.316406 47.894531 132.945312 50.003906 132.777344 C 52.144531 132.605469 54.757812 129.46875 54.757812 127.179688 C 54.757812 124.210938 52.144531 124.523438 52.144531 124.523438 Z M 52.144531 124.523438 "/>
<path style=" stroke:none;fill-rule:nonzero;fill:rgb(10.588235%,19.215686%,30.980392%);fill-opacity:1;" d="M 149.644531 19.671875 C 149.644531 19.671875 157.859375 20.007812 166.386719 21 C 147.167969 5.820312 128.960938 1.386719 114.1875 1.386719 C 93.84375 1.386719 80.054688 9.808594 79.210938 10.289062 L 85.628906 0.0546875 C 85.628906 0.0546875 60.023438 -2.429688 50.988281 24.785156 C 48.679688 19.019531 46.570312 10.597656 46.570312 10.597656 C 46.570312 10.597656 33.261719 22.328125 39.507812 41.773438 C 24.230469 36.175781 2.421875 28.402344 1.578125 28.261719 C 0.425781 28.09375 0.0859375 28.601562 0.0859375 28.601562 C 0.0859375 28.601562 -0.25 29.082031 0.734375 29.929688 C 2.5625 31.371094 37.03125 56.949219 44.601562 61.894531 C 42.96875 67.828125 42.96875 70.628906 44.601562 73.425781 C 46.910156 77.210938 47.050781 79.191406 46.738281 81.988281 C 46.402344 84.785156 43.449219 109.035156 42.800781 112.003906 C 42.152344 114.96875 35.257812 125.511719 35.570312 128.648438 C 35.90625 131.785156 40.15625 145.125 43.953125 146.625 C 46.738281 147.613281 53.632812 149.761719 58.21875 149.761719 C 59.851562 149.761719 61.34375 149.421875 61.992188 148.773438 C 64.777344 146.3125 65.59375 145.804688 67.5625 145.804688 C 67.730469 145.804688 67.898438 145.804688 68.039062 145.804688 C 68.855469 145.804688 69.84375 145.972656 70.996094 145.972656 C 73.613281 145.972656 77.074219 145.464844 79.523438 143.175781 C 83.125 139.558594 89.371094 134.613281 91.339844 132.296875 C 93.816406 129.15625 95.109375 124.890625 94.464844 120.59375 C 93.957031 116.636719 96.09375 113.160156 98.570312 109.714844 C 101.695312 105.585938 107.433594 98.183594 107.433594 98.183594 C 118.773438 106.71875 125.835938 119.746094 125.835938 134.246094 C 125.835938 159.964844 103.523438 180.738281 75.949219 180.738281 C 71.671875 180.738281 67.589844 180.257812 63.484375 179.265625 C 76.117188 183.703125 86.78125 185.203125 95.503906 185.203125 C 114.046875 185.203125 123.894531 178.449219 123.894531 178.449219 C 123.894531 178.449219 120.464844 182.914062 114.863281 188 C 115.03125 188 115.03125 188 115.03125 188 C 145.730469 183.703125 160.671875 158.324219 160.671875 158.324219 C 160.671875 158.324219 159.519531 166.578125 158.054688 172.171875 C 198.886719 141.339844 191.992188 102.761719 191.824219 101.460938 C 192.160156 101.941406 196.269531 106.886719 198.378906 109.542969 C 204.964844 41.601562 149.644531 19.671875 149.644531 19.671875 Z M 86.78125 128.167969 C 86.132812 128.988281 83.347656 131.476562 81.378906 133.285156 C 79.410156 135.09375 77.269531 136.902344 75.636719 138.570312 C 74.992188 139.21875 73.667969 139.558594 71.699219 139.558594 C 71.050781 139.558594 70.375 139.558594 69.898438 139.558594 C 69.558594 139.558594 69.25 139.558594 68.914062 139.558594 C 68.574219 139.558594 68.40625 139.558594 68.265625 139.558594 C 67.757812 139.558594 67.28125 139.558594 66.773438 139.558594 C 69.25 136.253906 76.453125 128.675781 78.929688 127.039062 C 81.886719 125.058594 83.375 123.082031 81.546875 119.632812 C 79.746094 116.15625 74.992188 117.003906 74.992188 117.003906 C 74.992188 117.003906 77.777344 115.847656 80.253906 115.847656 C 77.128906 115.027344 73.191406 115.847656 71.390625 117.65625 C 69.417969 119.464844 69.757812 125.90625 68.941406 130.007812 C 68.125 134.300781 65.339844 136.449219 61.0625 140.40625 C 58.753906 142.554688 57.125 143.203125 55.800781 143.203125 C 53.015625 142.722656 49.722656 141.875 47.414062 141.054688 C 45.785156 138.910156 43.308594 131.816406 42.660156 128.847656 C 43.136719 127.207031 45.109375 123.730469 46.09375 121.753906 C 48.0625 117.964844 49.214844 115.820312 49.554688 113.839844 C 50.199219 111.042969 52.339844 93.71875 53.15625 86.480469 C 55.292969 89.28125 58.25 93.914062 57.574219 96.882812 C 62.328125 90.128906 58.894531 83.515625 57.234375 80.886719 C 55.773438 78.257812 53.804688 72.972656 55.433594 67.378906 C 57.066406 61.78125 62.976562 46.265625 62.976562 46.265625 C 62.976562 46.265625 64.945312 49.742188 67.730469 49.0625 C 70.515625 48.414062 93 14.441406 93 14.441406 C 93 14.441406 99.078125 27.78125 92.664062 37.53125 C 86.105469 47.253906 79.691406 49.0625 79.691406 49.0625 C 79.691406 49.0625 88.722656 50.703125 97.078125 44.597656 C 100.511719 52.679688 103.804688 61.074219 103.972656 62.234375 C 103.46875 63.390625 96.910156 79.21875 96.265625 80.207031 C 95.925781 80.546875 93.648438 81.195312 91.988281 81.535156 C 89.203125 82.355469 87.570312 82.863281 86.894531 83.34375 C 85.738281 84.335938 80.476562 98.832031 78.03125 105.925781 C 75.074219 106.746094 72.121094 108.414062 69.984375 111.691406 C 71.136719 110.871094 74.738281 110.363281 77.382812 110.054688 C 79.691406 109.882812 86.726562 113.671875 88.554688 120.765625 C 88.554688 120.933594 88.554688 120.933594 88.554688 121.101562 C 88.917969 123.703125 88.105469 126.191406 86.78125 128.167969 Z M 71.363281 130.148438 C 72.851562 128 72.683594 124.382812 72.851562 123.222656 C 73.023438 122.0625 73.332031 119.917969 74.652344 119.605469 C 75.976562 119.265625 79.097656 119.773438 79.097656 122.0625 C 79.097656 124.210938 76.792969 124.691406 75.160156 126.191406 C 73.976562 127.320312 71.671875 129.808594 71.363281 130.148438 Z M 136.839844 98.636719 C 138.472656 90.242188 138.640625 82.976562 138.164062 77.042969 C 144.550781 85.605469 148.488281 96.007812 149.644531 106.71875 C 149.8125 108.046875 151.105469 109.347656 152.429688 110.675781 C 153.582031 111.664062 154.90625 112.992188 154.90625 113.8125 C 154.90625 117.597656 154.566406 121.386719 153.921875 125.203125 C 153.75 125.683594 152.289062 126.53125 151.132812 127.179688 C 149.503906 128 148.011719 128.820312 147.703125 130.148438 C 144.101562 142.835938 136.363281 154.058594 126.035156 161.96875 C 141.285156 145.972656 148.65625 119.578125 136.839844 98.636719 Z M 126.511719 163.441406 C 137.175781 155.1875 145.394531 143.65625 148.996094 130.628906 C 149.164062 130.148438 150.628906 129.300781 151.613281 128.648438 C 153.246094 127.828125 154.90625 126.839844 155.214844 125.511719 C 155.863281 121.726562 156.199219 117.769531 156.199219 113.8125 C 156.199219 112.34375 154.707031 110.84375 153.246094 109.375 C 152.429688 108.386719 151.105469 107.226562 151.105469 106.40625 C 149.785156 94.367188 145.027344 83.007812 137.65625 73.59375 C 134.363281 53.8125 121.25 47.707031 120.914062 47.535156 C 121.25 48.046875 129.777344 60.394531 123.867188 74.894531 C 117.789062 89.5625 102.203125 87.273438 100.878906 87.414062 C 99.554688 87.414062 94.492188 94 88.074219 106.210938 C 87.257812 105.871094 83.796875 105.050781 79.859375 105.730469 C 82.8125 97.476562 87.257812 85.777344 88.074219 84.785156 C 88.414062 84.449219 90.863281 83.796875 92.523438 83.316406 C 95.644531 82.496094 97.109375 81.988281 97.613281 81.339844 C 97.953125 80.828125 99.585938 77.042969 101.214844 73.085938 C 102.707031 73.085938 106.476562 72.746094 106.789062 72.578125 C 107.125 72.238281 110.25 64.183594 110.25 63.195312 C 110.25 62.375 103.832031 46.378906 101.386719 40.273438 C 102.539062 38.945312 103.691406 37.304688 104.816406 35.496094 C 138.472656 39.144531 164.753906 67.828125 164.753906 102.589844 C 164.753906 129.300781 149.164062 152.558594 126.511719 163.441406 Z M 126.511719 163.441406 "/>
<path style=" stroke:none;fill-rule:nonzero;fill:rgb(10.588235%,19.215686%,30.980392%);fill-opacity:1;" d="M 82.84375 74.414062 C 85.964844 70.796875 84.332031 64.042969 78.566406 62.882812 C 80.054688 59.433594 82.167969 52.511719 82.167969 52.511719 C 82.167969 52.511719 65.425781 78.878906 63.960938 79.386719 C 62.46875 79.898438 61.007812 74.101562 61.007812 74.101562 C 57.882812 86.144531 66.269531 87.78125 67.253906 83.996094 C 71.839844 82.808594 79.71875 77.863281 82.84375 74.414062 Z M 82.84375 74.414062 "/>
<path style=" stroke:none;fill-rule:nonzero;fill:rgb(100%,85.098039%,13.72549%);fill-opacity:1;" d="M 68.546875 80.828125 L 77.074219 66.160156 C 77.074219 66.160156 81.996094 68.648438 79.523438 72.605469 C 76.425781 77.210938 68.546875 80.828125 68.546875 80.828125 Z M 68.546875 80.828125 "/>
<path style=" stroke:none;fill-rule:nonzero;fill:rgb(84.705882%,12.941176%,13.333333%);fill-opacity:1;" d="M 174.09375 148.773438 C 171.621094 152.078125 168.832031 155.527344 165.570312 158.832031 C 186.730469 117.9375 166.554688 80.519531 165.738281 79.050781 C 167.230469 80.546875 168.691406 82.1875 170.015625 83.65625 C 186.25 101.773438 188.222656 128.988281 174.09375 148.773438 Z M 174.09375 148.773438 "/>
<path style=" stroke:none;fill-rule:nonzero;fill:rgb(84.705882%,12.941176%,13.333333%);fill-opacity:1;" d="M 193.792969 96.175781 C 186.390625 76.222656 175.894531 59.238281 152.765625 43.917969 C 130.453125 29.082031 106.476562 30.242188 105.15625 30.410156 C 104.988281 30.410156 104.816406 30.410156 104.816406 30.410156 C 105.632812 30.070312 106.449219 29.902344 107.265625 29.761719 C 112.359375 28.121094 118.914062 26.792969 125.5 25.972656 C 142.917969 23.457031 160.476562 29.394531 172.464844 42.109375 C 172.632812 42.28125 172.632812 42.28125 172.800781 42.449219 C 186.421875 56.949219 193.484375 75.0625 193.792969 96.175781 Z M 193.792969 96.175781 "/>
<path style=" stroke:none;fill-rule:nonzero;fill:rgb(84.705882%,12.941176%,13.333333%);fill-opacity:1;" d="M 147.503906 14.554688 C 123.050781 9.949219 107.292969 12.238281 95.953125 16.535156 C 95.617188 15.203125 94.464844 12.578125 93.476562 10.429688 C 90.074219 14.554688 86.445312 19.5 84.164062 22.636719 C 77.917969 26.933594 75.300781 31.058594 75.300781 31.058594 C 78.902344 18.679688 89.425781 9.46875 102.230469 7.148438 C 105.832031 6.5 109.769531 6.160156 114.046875 6.160156 C 125.359375 6.332031 136.671875 9.128906 147.503906 14.554688 Z M 147.503906 14.554688 "/>
<path style=" stroke:none;fill-rule:nonzero;fill:rgb(84.705882%,12.941176%,13.333333%);fill-opacity:1;" d="M 57.066406 46.207031 C 37.875 45.558594 44.265625 23.117188 44.601562 21.820312 C 44.601562 21.988281 45.894531 39.453125 57.066406 46.207031 Z M 57.066406 46.207031 "/>
<path style=" stroke:none;fill-rule:nonzero;fill:rgb(84.705882%,12.941176%,13.333333%);fill-opacity:1;" d="M 75.949219 5.820312 C 61.175781 14.722656 64.128906 35.976562 64.128906 35.976562 C 50.003906 14.414062 74.792969 6.332031 75.949219 5.820312 Z M 75.949219 5.820312 "/>
<path style=" stroke:none;fill-rule:nonzero;fill:rgb(100%,100%,100%);fill-opacity:1;" d="M 51.664062 52.144531 C 52.648438 52.964844 53.632812 54.460938 52.480469 56.609375 C 51.832031 57.769531 50.847656 57.597656 49.355469 56.949219 C 47.386719 55.960938 35.570312 49.035156 24.90625 41.941406 C 37.058594 46.238281 49.355469 50.84375 51.328125 51.832031 C 51.328125 51.832031 51.496094 52.003906 51.664062 52.144531 Z M 51.664062 52.144531 "/>
</g>
</svg>
