<?xml version="1.0" encoding="UTF-8"?>
<svg id="Layer_1" data-name="Layer 1" xmlns="http://www.w3.org/2000/svg" version="1.1" viewBox="0 0 500 500">
  <defs>
    <style>
      .cls-1 {
        fill: #2e3847;
      }

      .cls-1, .cls-2, .cls-3, .cls-4, .cls-5, .cls-6, .cls-7, .cls-8, .cls-9, .cls-10, .cls-11, .cls-12, .cls-13, .cls-14, .cls-15, .cls-16, .cls-17, .cls-18, .cls-19, .cls-20, .cls-21, .cls-22, .cls-23, .cls-24, .cls-25, .cls-26 {
        stroke-width: 0px;
      }

      .cls-2 {
        fill: #febc1e;
      }

      .cls-3 {
        fill: #fbaf09;
      }

      .cls-4 {
        fill: #e28800;
      }

      .cls-5 {
        fill: #ca7605;
      }

      .cls-6 {
        fill: #c86e00;
      }

      .cls-7 {
        fill: #d07d00;
      }

      .cls-8 {
        fill: #fee55e;
      }

      .cls-9 {
        fill: #dd7e00;
      }

      .cls-10 {
        fill: #e58900;
      }

      .cls-11 {
        fill: #c87900;
      }

      .cls-12 {
        fill: #faa507;
      }

      .cls-13 {
        fill: #fea900;
      }

      .cls-14 {
        fill: #d77f05;
      }

      .cls-15 {
        fill: #feb204;
      }

      .cls-16 {
        fill: #cb7400;
      }

      .cls-17 {
        fill: #fb9700;
      }

      .cls-18 {
        fill: #da7d00;
      }

      .cls-19 {
        fill: #feda2e;
      }

      .cls-20 {
        fill: #fee829;
      }

      .cls-21 {
        fill: #c37000;
      }

      .cls-22 {
        fill: #fee26a;
      }

      .cls-23 {
        fill: #d08100;
      }

      .cls-24 {
        fill: #d58000;
      }

      .cls-25 {
        fill: #cb7300;
      }

      .cls-26 {
        fill: #d07200;
      }
    </style>
  </defs>
  <circle class="cls-1" cx="250" cy="250" r="249.8"/>
  <g>
    <path class="cls-13" d="M250.7,413c-7.5-1.9-13.3-6.9-19.9-10.5-5.3-2.9-10.3-6.2-15.4-9.3-3.1-2.9-4.3-6.6-4.2-10.8.3-10-.7-20.1.7-30.1,1.2-5.1,1.6-10.2,1.7-15.4.2-21.4-.6-42.8.4-64.2,1.2-3,3.8-3.6,6.1-2.4,11.6,5.9,24.1,10.7,32.9,21.1,1.6,13.1.4,26.3.5,39.4.4,13.5.3,27-.1,40.5.7,11.2.2,22.4.3,33.7,0,3.1-1.2,5.7-2.9,8Z"/>
    <path class="cls-13" d="M144,351.9l-1.4-.9c-2.6-2.6-2.9-5.9-2.9-9.4,0-7.9,0-15.7,0-23.6,0-4.3-1.7-7.1-5.5-9.2-6.3-3.5-12.4-7.3-18.7-10.6-5.2-2.7-7.6-6.3-7.4-12.3.3-11.7,0-23.3.1-35,2.4-4.3,5.4-1.4,7.7-.2,8.3,4.3,16.4,9.1,24.4,14,1.3.8,2.6,1.7,4.2,2.1,9.2,5.4,18.2,11.1,27.6,16.1,3.5,1.9,6.8,4.1,8.8,7.8.1.8.2,1.5.3,2.3,1.1,11.8,1.8,23.7-.4,35.5-3.7,4.4-7.7,2.3-11.4.3-5.7-3.1-11.1-6.7-16.8-9.7-4.9-2.6-5.6-2.2-5.7,3.5-.2,7.1,0,14.3,0,21.4,0,2.9.2,5.9-2.8,7.8Z"/>
    <path class="cls-19" d="M216.8,106.1c9.6-7.4,20.6-12.6,31.1-18.5,1.6-.9,4-.5,6.2.9,8.6,5.3,17.6,10.2,26.4,15.2,1.7,1.1,3.2,2.2,3.4,4.4-.7,3.3-3.5,4.4-5.9,5.9-5.7,3.5-11.5,7-17.4,10.1-3.3,1.7-3.1,3.3,0,5.1,6.6,3.9,13.3,7.4,19.8,11.4,3,1.8,6.5,3.4,6.2,7.9-1,2.4-3.1,3.7-5.3,4.9-9.4,5.1-18.3,11.1-28,15.5-1.3.6-2.6.9-3.9.6-11-5-20.9-11.7-31.5-17.4-1.6-.8-3-1.9-3.9-3.5-.2-.6-.3-1.3-.2-1.9,1.8-3.8,5.5-5.1,8.7-7,5.2-3.1,10.5-6,15.7-9,6.7-3.9,6.7-3.9-.2-8.1-5.5-3.4-11.4-6.3-16.8-9.9-2.3-1.5-5.4-2.8-4.3-6.6Z"/>
    <path class="cls-19" d="M321.2,126.5c12.4,6.4,24.5,13.3,36.4,20.8.2,4-3.1,5.2-5.7,6.7-8.8,5-17.3,10.3-26.4,14.8-.7-.2.4,1.1.2.2,3.4.2,5.3,1.2,2.9,4.9-3.9,2.1-7.6,1.7-11-1.1-1.4-4.8-4.6-7.7-9.1-9.9-5.6-2.8-10.9-6.1-16.3-9.3-2.3-1.4-4.9-2.5-5.3-5.6-.2-2.5,1.1-4.4,3-5.6,8.4-5.6,17.4-10.1,26.1-15.1,1.6-.9,3.5-.5,5.3-.7Z"/>
    <path class="cls-6" d="M392.5,249.6c0,25.8.2,51.7.3,77.5,0,2.7-.7,4.6-3.2,6-11.2,6.2-22.3,12.6-33.4,18.9-1.2-.8-1.9-2.1-1.8-3.4.9-12-.8-24,1.1-35.9.1-.8.3-1.5.5-2.3,4.8-6.3,12.2-9,18.5-13.1,2.6-1.7,5.5-3,8.2-4.6,4.2-2.4,5.9-5.7,5.8-10.5-.2-7.4,0-14.8,0-22.3,0-3.4.1-6.7,2-9.8.6-.6,1.3-.8,2-.6Z"/>
    <path class="cls-17" d="M108.9,249.8c0,11.7.2,23.4-.1,35.1-.1,4.5,1.6,7.2,5.3,9.2,7.5,4.1,14.8,8.6,22.4,12.5,4.7,2.4,6.4,5.6,6.3,10.7-.3,11.3,0,22.5-.1,33.8-10.5-5.9-21.1-11.9-31.6-17.8-2.4-1.3-3.4-3.1-3.4-6,.2-25.9.2-51.7.3-77.6.4-.4.7-.3,1,.1Z"/>
    <path class="cls-26" d="M250.9,371.2c0-13.5,0-27,0-40.5,1.4-2.9,3.6-5,6.4-6.6,6.9-4.1,13.8-8.2,21-11.8,3.2-1.6,6.6-3.4,9.5.6,2.4,10.3.6,20.8,1.1,31.2.1,2.4-.3,4.9.8,7.2,1.2,11.2.5,22.3.5,33.5,0,2.6-1,4.8-2.8,6.6-.4.1-.8.2-1.3.3-3.1-1.8-2.8-4.9-2.9-7.7-.1-6.9-.1-13.9,0-20.8,0-4.6-1.4-5.7-5.5-3.2-6.1,3.7-12.3,7.3-18.7,10.6-2.6,1.3-5.2,3-8,.6Z"/>
    <path class="cls-8" d="M214.3,147c0,.4,0,.8,0,1.2-.4,2.5-2.2,3.8-4.1,4.9-9.7,5.4-18.7,11.9-29.2,15.9-.7.2-1.3.2-2,.2-11.9-3.7-21.8-11-32.2-17.3-1.7-1-3.3-2.4-2.7-4.9,12.1-6.9,24.2-13.9,36.3-20.8,2.5,0,4.9.4,7,1.8,7.5,4.8,15.7,8.5,23.1,13.6,1.9,1.3,4.6,2.2,3.9,5.4Z"/>
    <path class="cls-2" d="M108.9,249.8c-.3,0-.7-.1-1-.1,0-13.5,0-27.1,0-40.6,2.1-1.9,4.4-1.3,6.3-.1,10.2,6.1,21.2,10.9,30.4,18.6.8.9,1.3,2,1.4,3.2,1.8,10.9.8,21.8.7,32.7,0,2.1-.8,3.9-2.8,5-4.7.3-7.7-3.1-11.4-5.1-8-4.4-15.8-9.1-23.7-13.6Z"/>
    <path class="cls-17" d="M142.6,228c-12-5.5-22.5-13.8-34.8-19,0-13.9-1.3-27.8.7-41.7,1.6,0,3.3-.1,4.6.6,10.6,6.1,21.8,11.2,31.4,19,.8.9,1.2,2,1.4,3.2,1.8,10.8.9,21.8.7,32.6,0,2.4-.7,5-4,5.1Z"/>
    <path class="cls-20" d="M142.6,187.5c-11.6-6.3-23.3-12.4-34-20.1,11.4-7.5,23.4-14,35.4-20.4,11.3,7.5,23,14.1,35,20.3.6,3.5-2.2,4.7-4.3,6-7.6,4.7-15.4,9-23.3,13.3-2.8,1.5-5.7,2.6-8.9.8Z"/>
    <path class="cls-8" d="M329.2,172.6c-2-1.4-3.9-2.9-6.5-4.7,11.7-6.9,23.3-13.7,34.8-20.5,11,6.2,21.9,12.3,32.9,18.5,1.1.6,2.6,1,2.2,2.9-1.6,3.3-4.1,5.8-7.5,7.4-8.9,4.1-16.3,11.2-26.1,13.4-11.6-2.6-21.6-8.2-29.7-16.9Z"/>
    <path class="cls-8" d="M321.2,126.5c-8.9,6.6-19,11.2-28.5,17-2.1,1.3-4.3,2.4-5.4,4.7-.5.3-1,.3-1.5,0-7.9-7.5-18.4-11-27.3-17-2-1.3-5.6-1.5-5.5-4.3,0-2.9,3.5-3.7,5.8-5,8.1-4.8,16.2-9.5,24.3-14.3.5-1.2,1.2-2.1,2.7-1.4,12.1,6.2,23.9,12.8,35.3,20.2Z"/>
    <path class="cls-22" d="M214.3,147c-10.1-6-20.3-11.9-30.4-18-1.3-.8-2.4-1.9-3.7-2.8,12-7.1,23.5-14.9,36.5-20.1,8.3,7.3,18.4,11.6,27.8,17.2,4.8,2.8,4.8,4.4.2,6.9-10.2,5.6-20.3,11.2-30.5,16.8Z"/>
    <path class="cls-11" d="M359,187.6c11.2-6.3,22.4-12.6,33.6-18.9,0,27,0,54,0,80.9-.4,0-.8,0-1.1,0-.3-.2-.6-.4-1-.6-2.4-2.6-1.9-5.9-1.9-9-.1-8.2,0-16.5,0-25.2-8.1,3.2-14.2,8.1-21.2,11.7-9.4,4.8-11.8,3.5-11.6-6.7.2-10.1-.9-20.2.7-30.2.7-1,1.7-1.6,2.8-1.9Z"/>
    <path class="cls-15" d="M144,351.9c0-11.2,0-22.4,0-33.5,0-6.6,1.1-7.1,6.8-3.7,6.6,3.8,13,7.8,19.6,11.6,2.7,1.6,5.4,3.2,8.7,3.1,1.2.8,1.7,2,1.9,3.3,2,11.2.9,22.4.7,33.6,0,2.5-.8,5-4.1,5.1-11.2-6.5-22.4-13-33.7-19.5Z"/>
    <path class="cls-17" d="M177.7,371.4c2.7-3.7,1.3-7.8,1.4-11.8.2-9.2,0-18.4,0-27.6,1.8-1.6,3.8-1.4,5.6-.4,9.7,5.8,20.3,10.1,28.7,17.8.6.9.8,1.8.9,2.9.5,13.6-1.3,27.3,1.2,40.9-12.9-6.8-25.5-14-37.8-21.8Z"/>
    <path class="cls-9" d="M250.9,371.2c9.8-4,18.5-10,27.6-15.2,7.4-4.2,7.4-4.2,7.4,4,0,10.6,0,21.1,0,31.7-3.3,4.9-9.1,6.3-13.7,9.2-7,4.4-14.4,8-21.6,12,0-13.9,0-27.8.1-41.7Z"/>
    <path class="cls-24" d="M357.6,311.8c-.5,13.4,1.3,26.9-1.4,40.3-11.2,6.5-22.4,13.1-33.7,19.6-.7-.4-1.3-1-1.6-1.8-1-12.7-.5-25.3-.3-38,.2-1.2.6-2.2,1.4-3,8.6-6.8,18.6-11.7,28.1-17.1,1.8-1,3.7-1.7,5.8-1.1.6.3,1.2.7,1.7,1.2Z"/>
    <path class="cls-21" d="M287.3,391.4c0-13.5,0-26.9,0-40.4.3-2.4,1.9-4,3.8-5.2,7.3-4.8,14.9-9.2,22.6-13.1,6-3.1,7.9-1.6,8,5,.3,11.2-.8,22.3.6,33.5,0,0,.1.6.1.6-11.6,6.8-22.8,14.4-35.3,19.7Z"/>
    <path class="cls-19" d="M285.9,106.3c-.9.5-1.8.9-2.7,1.4-.9-1.3-1.8-2.7-2.7-4,2.4-.3,3.8,1.2,5.4,2.6Z"/>
    <path class="cls-4" d="M285.9,311.8c-12.4,5.1-23.1,13.2-35,19,0-13.5-.1-27.1-.2-40.6,0-.3.1-.7.2-1,8.4-9.3,19.8-13.7,30.6-19,2.3-1.1,4.9-.3,6.3,2.4,1.8,12.5,1.9,24.9-.2,37.3-.3.8-.9,1.4-1.6,1.9Z"/>
    <path class="cls-17" d="M250.7,290.2c-12.1-5.5-22.5-14.2-35-18.9-.7-.5-1.2-1.1-1.6-1.9-.8-12.4-.8-24.9,0-37.3,1.4-2.9,3.9-3,6.2-1.9,11.2,5.6,21.9,11.8,32.3,18.8.5.4.7,1.1,1,1.8.5,10.2,0,20.4.2,30.6,0,3.3-1.1,6-2.8,8.7h-.3Z"/>
    <path class="cls-3" d="M215.6,269.9c0,.4,0,.9,0,1.3,0,24.5,0,48.9,0,73.4,0,2.6.6,5.4-1.3,7.8-.5-.5-.9-.9-1.4-1.4-3.2-13.3-1.1-26.9-1.4-40.3.2-12.8-1-25.6.4-38.4.3-.8.8-1.5,1.4-2.1.7-.6,1.5-.7,2.3-.2Z"/>
    <path class="cls-15" d="M214.3,269.9c0,13.5,0,27,0,40.5-2,1.3-4,.9-5.8-.1-8.9-4.9-17.6-10-26.3-15.2-1.4-.8-1.9-2.5-3.1-3.5v-1.4c-2.3-3-3.1-6.4-3-10.1.4-9.6-1-19.3.9-28.8,1.8-3.3,4.7-3.3,7.5-1.8,8.9,4.7,17.8,9.5,26.2,15.1,1.9,1.3,3.2,3.1,3.5,5.5Z"/>
    <path class="cls-2" d="M179.1,291.5c9.9,3.2,18,9.6,27,14.4,2.8,1.4,5.4,3,8.2,4.5,0,11.2,0,22.3,0,33.5,0,2.4.5,5-1.3,7-11.4-6.1-21.9-13.7-33.8-18.9,0-.9,0-1.8,0-2.7,0-12.6,0-25.2,0-37.8Z"/>
    <path class="cls-17" d="M179.2,249.6c0,13.5,0,27,0,40.5-10.3-5.8-20.6-11.7-30.9-17.5-1.8-1-3.3-2.3-4.3-4.1,0-13.1,0-26.1,0-39.2,2.3-1.5,4.4-.5,6.3.6,8.3,4.5,16.5,9.2,24.6,14,2.1,1.3,4.2,2.8,4.2,5.7Z"/>
    <path class="cls-8" d="M249.4,168.4c.9-.4,1.8-.8,2.7-1.2,6.1.5,10.8,4.2,15.8,7.1,6.7,4,13.8,7.6,19.7,12.8.3.6.3,1.3.1,2-1.5,3.1-4.4,4.4-7.1,5.9-17.3,9.9-34.5,20-51.8,30-4.1,2.3-8,5-13,5.1-.6.3-1.3.5-1.9.7-2.6.3-4.9-.7-6.9-2.1-8.9-6.3-19.9-9.5-27.5-17.9-1.1-4.9,2.6-6.6,5.8-8.6,9.5-5.8,19.2-11.1,28.8-16.6,8.9-5.2,17.9-10.3,26.9-15.4,2.6-1.4,5.1-3,8.2-1.7Z"/>
    <path class="cls-22" d="M287.4,187.5c-1.3-.2-2.9,0-3.9-.8-10.2-6.9-21.7-11.6-31.3-19.5,11.1-6.6,22.1-13.4,33.7-19,.5,0,1,0,1.5,0,9.9,5.5,19.6,11.2,29.6,16.5,4.5,2.4,3.2,4.2.2,6.5-.2,2.3-1.8,3.6-3.5,4.6-6.3,3.8-12.7,7.5-19.2,11-2.2,1.2-4.5,2-7,.6Z"/>
    <path class="cls-20" d="M249.4,168.4c-11.3,6.4-22.5,12.7-33.8,19.1-2.9,1.3-5.7.9-8.3-.5-7.8-4.3-15.7-8.5-23.2-13.3-2.2-1.4-4.5-3.1-3.6-6.4,11.2-6.3,22.5-12.7,33.7-19,12.5,5.5,24.4,11.8,35.2,20.2Z"/>
    <path class="cls-19" d="M287.4,187.5c9.9-5.4,19.8-10.8,29.7-16.3,4,1.3,8,1.5,12.2,1.3,8,3,15,8.1,22.3,12.3,2.4,1.4,4.7,2.7,7.5,2.8-.5.4-1,.9-1.5,1.3-.6.8-1,1.7-1.6,2.4-10.6,8.2-21.6,15.9-34.9,19.2-10.7-3.9-19.9-10.7-29.7-16.2-2.1-1.2-4.1-2.8-4.1-5.7,0-.4,0-.9.1-1.3Z"/>
    <path class="cls-25" d="M391.4,249.7c0,11.3-.3,22.5,0,33.8.2,5.5-1.7,8.8-6.4,11.4-9.3,5.1-18.4,10.4-27.6,15.6-2.4-1.7-2-4.4-2-6.8,0-10.7-.2-21.5,0-32.2.1-1.2.5-2.3,1.2-3.2,8.9-8.4,20.2-12.9,30.6-18.8,1.2-.7,2.6-.6,3.9.2h0Z"/>
    <path class="cls-5" d="M357.6,269.9c0,13.5,0,27,0,40.5,0,.5,0,.9,0,1.4-.5,0-.9,0-1.4,0-2.3-1.9-2.9-4.4-2.9-7.2,0-10.9-.6-21.9.5-32.8.6-1.9,1.6-3,3.7-1.9Z"/>
    <path class="cls-7" d="M285.9,311.8c0-.4,0-.9,0-1.3,2.1-3.9,5.5-6.4,9.3-8.4,6.1-3.3,11.9-7.2,18.1-10.4,5.7-3,9.6-1.4,9.6,4.1.1,11.7.9,23.3-.5,35,0,13.5,0,26.9,0,40.4-2.8-8-1.1-16.3-1.2-24.5-.3-14.6,0-14.6-12.9-7.5-7,3.9-14,7.9-21,11.9-2.7-5.1-1.1-10.5-1.3-15.8-.3-7.8,0-15.6,0-23.5Z"/>
    <path class="cls-19" d="M180.5,167.2c10.7,8.5,22.7,14.8,35.1,20.2-10,5.9-20.1,11.8-30.1,17.7-2.1,1.2-4.7,1.8-4.9,4.9-2.6,2-4.7,0-6.7-1.1-8.2-4.3-15.8-9.5-24.1-13.7-2.8-1.4-4.2-4-5.9-6.4-.5-.5-.9-1-1.4-1.5,13-5.2,24.6-13,36.5-20.2.5,0,1,0,1.5,0Z"/>
    <path class="cls-13" d="M144,188.9c12.2,7.1,24.5,14.1,36.7,21.2,11.2,6.5,22.4,13,33.6,19.5,1.1,13.4,1.1,26.8,0,40.2,0,0,0,0,0,0-11.4-7.4-23.1-14.1-35.1-20.3-11.7-6.8-23.5-13.5-35.2-20.3-.4-.4-.9-.9-1.3-1.3,2.7-5,1.1-10.5,1.3-15.7.3-7.8,0-15.6,0-23.4Z"/>
    <path class="cls-10" d="M391.4,249.6c-10.8,6.3-21.6,12.6-32.4,18.9-5.6.8-5.4-3.4-5.5-6.8-.3-10.8-.4-21.5.4-32.3-1-10.5-.4-21-.5-31.4,0-3,.9-5.7,2.8-8.1.5-.3.9-.6,1.4-.9,0,11,0,22,0,33,0,4.5.5,6.3,5.5,3.5,9-5.1,17.5-11,28.3-15.5v39.7Z"/>
    <path class="cls-16" d="M322.4,330.7c-2.9-8-.6-16.3-1.4-24.5-.4-4.6,2.3-11-1.4-13.2-3.9-2.3-8,3.4-12.1,5.4-7.3,3.7-14.4,8-21.6,12,0-13.1,0-26.1,0-39.2,2.5-3.2,6.8-2.3,9.9-4.8,2.6-2.2,5.1-4.1,6.2-7.4,3.8-4.4,9-6.7,14-9.2,2.2-1.1,4.8-1.8,6.5,1.1,1.3,7.5.4,15.1.6,22.6,0,4.2,0,8.4.8,12.6,0,1.7.4,3.2,1,4.7,0,12.8,2,25.7-1.1,38.5l-1.4,1.3Z"/>
    <path class="cls-6" d="M323.8,329.4c-2.7-4.6-1.1-9.6-1.3-14.4-.3-8.3,0-16.5,0-24.8,3.1-6.6,25.6-19.7,32.4-18.9,2.7,4.6,1.1,9.6,1.3,14.4.3,8.7,0,17.4,0,26.1-10.8,5.9-21.6,11.7-32.4,17.6Z"/>
    <path class="cls-16" d="M303.5,260.4c-3.2,8-9.6,10.6-17.6,10.8-10.9,3.5-19.9,10.5-29.8,15.8-1.8.9-3.4,2-5.2,3,0-11.3,0-22.5-.2-33.8,0-2.3,0-4.5,1.3-6.5,0-.9,0-1.9.8-2.5,9.5-7.2,19-14.4,31.1-16.8,4.4,1.3,4.7,4.9,4.8,8.5.2,6.9,0,13.8,0,20.7,0,3.8,1.4,4.8,4.9,2.9,3-1.7,6-4.2,9.8-2.2Z"/>
    <path class="cls-20" d="M283.2,232.1c-10.4,5.9-20.8,11.8-31.2,17.7-9.8-2.1-17.1-9.3-25.9-13.5-3.6-1.7-7-3.8-10.5-5.6-.4-.2-.6-.4-.5-.7,0-.3.2-.4.3-.4,22.3-12.9,44.5-25.9,66.8-38.7,1.5-.9,3.3-1.4,4.9-2,11.3,6.8,22.6,13.6,33.9,20.4.2.6.2,1.3,0,1.9-11.3,9.3-23.3,17.4-37.9,20.9Z"/>
    <path class="cls-12" d="M215.5,229.5c0,.4.1.8.2,1.2,0,13.1,0,26.2,0,39.2-.4,0-.9,0-1.3,0,0-13.4,0-26.8,0-40.2.4,0,.8-.1,1.2-.1Z"/>
    <path class="cls-10" d="M321,210.3c0-.4,0-.7.1-1.1,11.7-6.4,23.3-12.9,35-19.3,0,13.1,0,26.3,0,39.4-.6.5-1.2,1-1.8,1.4-5.3,1.1-9.7,4.5-14.1,7.1-3.9,2.4-8.1,3.6-12,5.4-5.1,2.4-7.7.5-7.8-5.1-.1-8.9-.5-17.8.3-26.8,0-.4.2-.7.2-1.1Z"/>
    <path class="cls-18" d="M354.9,229.4c.4,0,.9,0,1.3,0,0,10.8,0,21.6,0,32.4,0,2.5-1,5.6,2.7,6.8-.5.5-.9.9-1.4,1.4-.9.4-1.8.9-2.7,1.3-10.8,6.3-21.6,12.6-32.4,18.9-.4-.9-.9-1.8-1.3-2.7,1.5-12,.3-24,.7-35.9-.5-2.6.1-5.1,2.7-6.2,10.5-4.7,19.9-11.3,30.4-16Z"/>
    <path class="cls-23" d="M283.2,232.1c12.6-7.2,25.2-14.5,37.8-21.7,0,0,0,.2,0,.2,1.5,8.7.6,17.5.5,26.2,0,4,2.4,7.9.1,11.8-.2.4-.5.7-.7,1.1-5.9,3.6-11.7,7.2-17.6,10.8-3.5,2-7,4-10.6,5.9-6.6,3.6-7,3.4-7-3.8,0-8.1,0-16.2,0-24.3,0-2.4.6-5.2-2.7-6.2Z"/>
    <path class="cls-14" d="M322.4,249.6c0,10.3,0,20.5,0,30.8,0,2.4.5,5-1.3,7.1,0-12.6,0-25.2,0-37.8,0,0,0,0,0,0,.4-.7.9-.6,1.3,0Z"/>
    <path class="cls-10" d="M322.4,249.6c-.4,0-.9,0-1.3,0,0-13,0-26.1,0-39.1,2.9,7.6.9,15.5,1.3,23.3.4,9.5.1,9.6,8.6,6.1,6-2.4,11.6-5.4,16.8-9.2,2.2-1.7,4.7-1.2,7.1-1.4-10.1,8-22.2,12.6-32.5,20.3Z"/>
  </g>
</svg>