<?xml version="1.0" encoding="UTF-8"?>
<svg id="Layer_1" data-name="Layer 1" xmlns="http://www.w3.org/2000/svg" version="1.1" viewBox="0 0 500 500">
  <defs>
    <style>
      .cls-1 {
        fill: #d96c92;
      }

      .cls-1, .cls-2, .cls-3, .cls-4 {
        stroke-width: 0px;
      }

      .cls-2 {
        fill: #da6a93;
      }

      .cls-3 {
        fill: #f6ceda;
      }

      .cls-4 {
        fill: #9bc8ff;
      }
    </style>
  </defs>
  <path class="cls-4" d="M498.3,249.7c0,138.3-110.8,249.5-248.6,249.4C112.4,499.1,1.6,387.8,1.6,249.9,1.7,111.9,112.7.8,250.6.9c136.8.1,247.7,111.4,247.7,248.8Z"/>
  <path class="cls-4" d="M755,322.6c0-199.1,0-398.2,0-597.3,0-3.7.8-4.6,4.6-4.6,177.9.1,355.9.1,533.8,0,3.7,0,4.6.8,4.6,4.6-.1,197.6-.1,395.2,0,592.8,0,3.7-.8,4.6-4.6,4.6-179.4-.1-358.9,0-538.3,0ZM1015,279.8c8.1.3,15.9-.7,23.8-2.1,32.4-5.8,59.7-20.6,82-45,13.7-14.9,23.1-32.2,29.8-51.1,1.3-3.7,3.1-5.7,6.9-6.8,17.5-5.5,33.3-14.4,47-26.2,23.3-19.9,39.2-44.7,46.4-74.8,4.4-18.6,5.2-37.2,2.1-56.2-4.4-27.7-16-51.9-34.2-72.8-17.1-19.6-38.6-33.1-63.4-41.1-3-1-4.7-2.5-5.6-5.6-2.9-9.7-7.1-19-12.4-27.6-13.4-21.5-30.5-39.2-53-51.9-18.7-10.4-38.4-16-59.3-17.9-12.9-1.2-25.8.3-38.5,2.8-25.9,5.1-48.4,17.1-67.8,34.6-18.6,16.8-31.5,37.4-39,61.4-.9,2.7-2.5,3.9-5,4.8-33,11.2-59,31.2-77.7,61-12.4,19.8-18.8,41.2-20.8,64-1.4,15.4.2,30.9,4.4,45.8,13.9,48.3,43.4,82.4,91.6,98.9,4.6,1.6,7.2,3.8,8.8,8.7,7.7,22.8,20.2,42.5,38,59,27.2,25.4,59.5,36.9,96.1,38Z"/>
  <path class="cls-2" d="M1081.4,26.8c8.3,2.7,15.8,5.4,21.8,11,6.9,6.4,10.9,14.4,11.7,23.5,1.4,15.1,0,29.9-9.3,42.8-7.5,10.4-18.3,15.4-30.2,18.9-9.8,2.8-19.8,3.8-29.9,4.5-3.6.3-4.2,1.8-4.2,5,.1,10.3-.2,20.6,0,30.9,0,3.5-1.1,4.7-4.6,4.5-5.3-.3-10.6-.3-16,0-3.7.2-4.4-1.3-4.3-4.7.3-10.1,0-20.3.3-30.4,0-3.6-.8-5.3-4.7-4.9-3.3.3-6.7.2-10,0-3.4-.2-4.7.9-4.6,4.5.2,10-.1,20,0,29.9,0,3.6-.8,5.1-4.7,4.9-5.3-.3-10.6-.3-16,0-3.4.1-4.3-1.3-4.1-4.4.4-10.5.4-20.9.8-31.4.2-3.6-1.1-4.5-4.5-4.5-13.4,0-26.9-.6-40.3-.7-3.4,0-4.4-1-3.7-4.4,1.4-6.7,2.7-13.3,3.7-20.1.5-3.4,1.8-5,5.4-4.7,4,.3,8,.2,12,.1,7.1,0,10.4-3.2,10.5-10.2.2-7.3,0-14.6.2-22,.8-27.2.9-54.5.9-81.8,0-8.9-4.9-13.8-13.8-13.9-4.3,0-8.7-.2-13,0-3.1.1-4.5-.7-4.4-4.1.3-5.8.3-11.6,0-17.5-.2-3.6,1.2-4.5,4.6-4.5,12.6.2,25.3.2,37.9.2,6.6,0,6.4,0,6.6-6.3.3-10-.5-19.9.6-29.9.3-3.2,1.6-3.8,4.4-3.7,5.3.2,10.6.3,16,0,3.1,0,4,1.2,3.9,4.1-.2,10.3,0,20.6-.2,30.9,0,3.8,1.2,5,4.8,4.7,3.5-.3,7-.2,10.5,0,3.1.2,4-1.1,3.9-4.1-.1-9.8.2-19.6,0-29.4,0-4,1-5.8,5.3-5.5,4.6.3,9.3.4,14,0,4.3-.3,5.9.8,5.6,5.4-.4,9.5.1,19-.4,28.4-.3,5,1.5,6.8,6.2,7.1,9,.7,17.6,3.1,26,6.3,28.9,11.1,31.5,43.9,20,62.3-3.4,5.4-8.4,9.3-14.9,12.9ZM1017.6,45c-4.8,0-9.6,0-14.5,0-2.4,0-3.7.5-3.7,3.3-.2,15.3-.5,30.6-.9,45.8-.1,3.5,1.4,4.2,4.4,4.1,4.7-.2,9.3-.1,14,0,10.7.3,21.2-.7,31.4-4,12.7-4.1,18.6-11.6,18.9-23.7.2-8.9-7-17.2-18.2-21.3-10.2-3.7-20.7-4.5-31.4-4.2ZM999.6,1.3c0,5.1,0,10.3,0,15.4,0,2.6.9,3.5,3.5,3.5,9.4,0,18.9.7,28.3-1.1,8-1.6,16.2-3.5,21.5-10.3,8.8-11.3,3-27.9-11.3-33.2-12.4-4.6-25.4-4.3-38.3-4.2-2.7,0-2.8,1.6-2.8,3.6,0,8.8-1.4,17.5-.8,26.3Z"/>
  <path class="cls-3" d="M1017.6,45c10.7-.2,21.2.6,31.4,4.2,11.2,4,18.4,12.4,18.2,21.3-.3,12.1-6.2,19.6-18.9,23.7-10.2,3.3-20.8,4.2-31.4,4-4.7-.1-9.3-.1-14,0-3,.1-4.5-.6-4.4-4.1.4-15.3.7-30.6.9-45.8,0-2.8,1.4-3.3,3.7-3.3,4.8,0,9.6,0,14.5,0Z"/>
  <path class="cls-3" d="M999.6,1.3c-.6-8.8.9-17.5.8-26.3,0-2,.2-3.6,2.8-3.6,12.9,0,25.9-.3,38.3,4.2,14.3,5.3,20,21.9,11.3,33.2-5.3,6.9-13.5,8.7-21.5,10.3-9.3,1.8-18.8,1.1-28.3,1.1-2.6,0-3.6-.9-3.5-3.5.1-5.1,0-10.3,0-15.4Z"/>
  <path class="cls-3" d="M249.8,468.6c-33.4-1-62.8-11.5-87.6-34.7-16.2-15.1-27.6-33-34.6-53.8-1.5-4.4-3.8-6.5-8-7.9-44-15.1-70.9-46.2-83.6-90.2-3.9-13.6-5.3-27.7-4.1-41.8,1.9-20.8,7.7-40.3,19-58.4,17-27.2,40.7-45.4,70.8-55.7,2.3-.8,3.8-1.9,4.6-4.4,6.8-21.8,18.7-40.7,35.6-56,17.7-16,38.2-26.9,61.9-31.6,11.6-2.3,23.4-3.6,35.2-2.6,19.1,1.8,37.1,6.8,54.1,16.3,20.6,11.5,36.1,27.7,48.4,47.3,4.9,7.8,8.7,16.3,11.4,25.2.8,2.8,2.3,4.2,5.1,5.1,22.6,7.3,42.2,19.6,57.8,37.5,16.6,19.1,27.2,41.1,31.2,66.4,2.8,17.3,2.1,34.3-2,51.2-6.5,27.4-21.1,50.1-42.3,68.2-12.6,10.8-27,18.9-42.9,23.9-3.4,1.1-5.1,2.9-6.3,6.2-6,17.3-14.6,33-27.1,46.6-20.4,22.2-45.3,35.7-74.8,41-7.2,1.3-14.3,2.2-21.7,1.9Z"/>
  <path class="cls-1" d="M307.6,241.5c4.8,2.1,8.8,3.5,12.5,5.5,14.4,8,21,22.8,18.6,41.2-3.2,24.8-14.5,37.4-38.9,43.5-7.9,1.9-15.9,3.8-24.1,3.5-4.9-.2-6.4,1.9-6.3,6.5.2,8.8-.2,17.6,0,26.4,0,4.2-1.5,6-5.6,5.5-.6,0-1.3,0-1.9,0-17.8-.6-15.7,3.8-15.3-17,0-5.1.4-10.3.6-15.4.1-3.5-1.5-5-5-5-15.9,0-12.7-1.5-13.1,12.2-.1,6.7-.1,13.3,0,20,0,3.5-1.3,5.3-4.9,5h-1.3c-11.2.3-16.8-5.1-16.8-16.2v-13.6c0-5.7-2.7-8.6-8.2-8.6-10.3,0-20.6-.4-30.9,0-5.6.1-6.7-2.2-5.6-7,.2-1,.6-2.1.8-3.1,1.1-5.2.8-11.6,3.7-15.4,3.3-4.2,10.1-1,15.3-1.6,6.3-.6,9.5-3.8,9.5-10.5.2-20.4.2-40.8.4-61.2.1-11.4.7-22.7.8-34.1,0-10.1-4-13.9-14.1-14.1-10.2-.2-15.3-5.4-15.2-15.6,0-5.9,3.1-8.9,9.2-8.8,10.5,0,21.1,0,31.6.2,4.2,0,5.7-1.4,5.6-5.6-.2-8.8.2-17.6,0-26.4,0-4.3,1.5-5.4,5.6-5.5,17.5-.3,17.5-.3,17.5,17s0,10.3,0,15.4c-.1,3.5,1.2,4.8,4.9,4.9,12.9.4,13.2.3,13.3-12.7,0-6.5.1-12.9,0-19.3,0-3.5,1.3-5.1,5-4.7,4.2.5,8.6.6,12.9.5,4-.1,5.4,1.5,5.1,5.3-.4,8.8-.6,17.6-1,26.3-.2,4,1.2,5.6,5.4,6.2,11.5,1.5,22.5,4.4,32.9,10.2,20.9,11.8,23.1,51.4.3,64-.7.4-1.3,1-3,2.3h0ZM244.3,308.9c6,.6,13-.5,20-1.5,9-1.2,18-3.4,24.5-10.2,10.3-10.6,5.3-28-9.8-33.9-14.3-5.6-29.4-5.5-44.4-5.5s-4,2.2-4.1,5.1c-.3,10.7-.8,21.5-.9,32.2,0,15.4-2.4,13.6,14.7,13.8h0ZM230.9,213h-.2v18c0,2.2,0,4.5,3.1,4.5,12.2,0,24.5,1.1,36.2-3.6,9.9-4,14.7-10.8,14.5-19.8-.3-8.4-5.8-15.2-15.4-18.6-10.9-3.8-22.2-4-33.6-4-3.3,0-4.6,1.7-4.5,4.8v18.7h0Z"/>
</svg>