<?xml version="1.0" encoding="UTF-8"?>
<svg version="1.1" xmlns="http://www.w3.org/2000/svg" width="500" height="500">
<path d="M0 0 C1.15822266 0.99 1.15822266 0.99 2.33984375 2 C15.13400015 13.24012409 26.94513979 25.24844603 37 39 C37.47356934 39.63454102 37.94713867 40.26908203 38.43505859 40.92285156 C61.92387009 72.46298107 76.96348485 108.34494979 84 147 C84.16226074 147.80953125 84.32452148 148.6190625 84.49169922 149.453125 C96.1350294 208.28258274 81.19717176 275.37383329 48.3203125 325.03759766 C42.01332331 334.41178019 35.34891001 343.4043999 28 352 C27.34 352.77214844 26.68 353.54429687 26 354.33984375 C14.75987591 367.13400015 2.75155397 378.94513979 -11 389 C-11.63454102 389.47356934 -12.26908203 389.94713867 -12.92285156 390.43505859 C-44.46298107 413.92387009 -80.34494979 428.96348485 -119 436 C-119.80953125 436.16226074 -120.6190625 436.32452148 -121.453125 436.49169922 C-180.28258274 448.1350294 -247.37383329 433.19717176 -297.03759766 400.3203125 C-306.41178019 394.01332331 -315.4043999 387.34891001 -324 380 C-324.77214844 379.34 -325.54429687 378.68 -326.33984375 378 C-339.13400015 366.75987591 -350.94513979 354.75155397 -361 341 C-361.47356934 340.36545898 -361.94713867 339.73091797 -362.43505859 339.07714844 C-385.92387009 307.53701893 -400.96348485 271.65505021 -408 233 C-408.16226074 232.19046875 -408.32452148 231.3809375 -408.49169922 230.546875 C-420.1350294 171.71741726 -405.19717176 104.62616671 -372.3203125 54.96240234 C-366.01332331 45.58821981 -359.34891001 36.5956001 -352 28 C-351.34 27.22785156 -350.68 26.45570312 -350 25.66015625 C-338.75987591 12.86599985 -326.75155397 1.05486021 -313 -9 C-312.36545898 -9.47356934 -311.73091797 -9.94713867 -311.07714844 -10.43505859 C-279.53701893 -33.92387009 -243.65505021 -48.96348485 -205 -56 C-204.19046875 -56.16226074 -203.3809375 -56.32452148 -202.546875 -56.49169922 C-131.56657173 -70.53988424 -54.24833708 -46.38025766 0 0 Z " fill="#120F1A" transform="translate(412,60)"/>
<path d="M0 0 C1.15822266 0.99 1.15822266 0.99 2.33984375 2 C15.13400015 13.24012409 26.94513979 25.24844603 37 39 C37.47356934 39.63454102 37.94713867 40.26908203 38.43505859 40.92285156 C61.92387009 72.46298107 76.96348485 108.34494979 84 147 C84.16226074 147.80953125 84.32452148 148.6190625 84.49169922 149.453125 C96.1350294 208.28258274 81.19717176 275.37383329 48.3203125 325.03759766 C42.01332331 334.41178019 35.34891001 343.4043999 28 352 C27.34 352.77214844 26.68 353.54429687 26 354.33984375 C14.75987591 367.13400015 2.75155397 378.94513979 -11 389 C-11.63454102 389.47356934 -12.26908203 389.94713867 -12.92285156 390.43505859 C-44.46298107 413.92387009 -80.34494979 428.96348485 -119 436 C-119.80953125 436.16226074 -120.6190625 436.32452148 -121.453125 436.49169922 C-180.28258274 448.1350294 -247.37383329 433.19717176 -297.03759766 400.3203125 C-306.41178019 394.01332331 -315.4043999 387.34891001 -324 380 C-324.77214844 379.34 -325.54429687 378.68 -326.33984375 378 C-339.13400015 366.75987591 -350.94513979 354.75155397 -361 341 C-361.47356934 340.36545898 -361.94713867 339.73091797 -362.43505859 339.07714844 C-385.92387009 307.53701893 -400.96348485 271.65505021 -408 233 C-408.16226074 232.19046875 -408.32452148 231.3809375 -408.49169922 230.546875 C-420.1350294 171.71741726 -405.19717176 104.62616671 -372.3203125 54.96240234 C-366.01332331 45.58821981 -359.34891001 36.5956001 -352 28 C-351.34 27.22785156 -350.68 26.45570312 -350 25.66015625 C-338.75987591 12.86599985 -326.75155397 1.05486021 -313 -9 C-312.36545898 -9.47356934 -311.73091797 -9.94713867 -311.07714844 -10.43505859 C-279.53701893 -33.92387009 -243.65505021 -48.96348485 -205 -56 C-204.19046875 -56.16226074 -203.3809375 -56.32452148 -202.546875 -56.49169922 C-131.56657173 -70.53988424 -54.24833708 -46.38025766 0 0 Z M-196 -18 C-196.65307129 -17.78037598 -197.30614258 -17.56075195 -197.97900391 -17.33447266 C-228.77317801 -6.59337959 -252.85682196 14.83056446 -267 44 C-271.74174916 54.34403797 -274.29952464 64.78282921 -276 76 C-276.969375 76.14695312 -277.93875 76.29390625 -278.9375 76.4453125 C-299.52962194 79.79257023 -318.27821413 88.12936968 -334 102 C-334.89074219 102.74765625 -335.78148437 103.4953125 -336.69921875 104.265625 C-356.15073808 121.08562777 -367.58028986 144.12492012 -373 169 C-373.26478149 170.13707397 -373.26478149 170.13707397 -373.53491211 171.29711914 C-374.41587429 176.41687364 -374.22557277 181.61497296 -374.24023438 186.79785156 C-374.24980922 188.8344214 -374.28080618 190.86992219 -374.3125 192.90625 C-374.53772043 220.78367555 -363.4117635 247.27747572 -345 268 C-344.19949219 268.90105469 -343.39898437 269.80210937 -342.57421875 270.73046875 C-326.78401081 287.39934619 -302.9420274 301.12150593 -280 304 C-278.68 304 -277.36 304 -276 304 C-275.85304688 304.969375 -275.70609375 305.93875 -275.5546875 306.9375 C-270.93673794 335.3135848 -255.8021964 361.20316379 -233 379 C-205.83862994 398.17273181 -175.74120049 406.71002615 -142.68359375 401.54638672 C-111.84663167 396.0797262 -85.27927419 379.3347389 -66.984375 353.87109375 C-66.32953125 352.92363281 -65.6746875 351.97617187 -65 351 C-64.46890625 350.24847656 -63.9378125 349.49695313 -63.390625 348.72265625 C-55.32859117 336.39121203 -48 318.88885374 -48 304 C-46.081875 303.938125 -46.081875 303.938125 -44.125 303.875 C-20.74732011 301.4645895 0.35674494 287.66761597 17 272 C17.60328125 271.46117187 18.2065625 270.92234375 18.828125 270.3671875 C39.88511242 250.78615715 49.87006376 220.30892181 51.28125 192.296875 C52.2700573 159.86330408 38.25431454 130.30004926 16.375 107 C-1.02787866 90.18296082 -23.90698434 78.73999002 -48 76 C-48.0825 74.80375 -48.165 73.6075 -48.25 72.375 C-51.60862376 43.91508286 -69.56602823 18.2150345 -91.484375 0.6015625 C-119.82045259 -21.06058081 -161.8716945 -29.48023091 -196 -18 Z " fill="#F19ECC" transform="translate(412,60)"/>
<path d="M0 0 C7.59 0 15.18 0 23 0 C23 7.92 23 15.84 23 24 C26.96 24 30.92 24 35 24 C35 16.08 35 8.16 35 0 C42.59 0 50.18 0 58 0 C58 7.92 58 15.84 58 24 C61.63 24.33 65.26 24.66 69 25 C76.56920127 27.17127945 83.10377094 30.81846537 89 36 C89.61617188 36.52335937 90.23234375 37.04671875 90.8671875 37.5859375 C97.66156139 43.79710333 101.68773433 51.78874676 102.23828125 60.9765625 C102.56179328 74.45236197 100.58603971 83.91247733 91 94 C88.96133381 95.72162226 86.89515813 97.29430156 84.69921875 98.80859375 C82.85859318 100.02605615 82.85859318 100.02605615 81 102 C82.16015625 102.52787109 82.16015625 102.52787109 83.34375 103.06640625 C96.14040021 109.13214515 104.41846941 116.81743092 109.9375 130.125 C113.4424944 142.20743411 111.40881346 155.47066936 105.875 166.5 C100.44851928 175.6521242 93.47288889 182.24110795 84 187 C83.23558594 187.38929688 82.47117187 187.77859375 81.68359375 188.1796875 C73.64928949 192.00820814 66.94210599 193 58 193 C58 201.58 58 210.16 58 219 C50.41 219 42.82 219 35 219 C35 210.42 35 201.84 35 193 C31.04 193 27.08 193 23 193 C23 201.58 23 210.16 23 219 C15.41 219 7.82 219 0 219 C0 210.42 0 201.84 0 193 C-10.56 193 -21.12 193 -32 193 C-32 183.76 -32 174.52 -32 165 C-27.38 165 -22.76 165 -18 165 C-18 127.71 -18 90.42 -18 52 C-22.62 52 -27.24 52 -32 52 C-32 42.76 -32 33.52 -32 24 C-21.44 24 -10.88 24 0 24 C0 16.08 0 8.16 0 0 Z " fill="#EF9DCA" transform="translate(217,141)"/>
<path d="M0 0 C7.074375 -0.103125 14.14875 -0.20625 21.4375 -0.3125 C24.76026001 -0.38078003 24.76026001 -0.38078003 28.15014648 -0.45043945 C29.93211357 -0.46506064 31.71409752 -0.47779744 33.49609375 -0.48828125 C34.85208679 -0.526651 34.85208679 -0.526651 36.23547363 -0.5657959 C44.30701646 -0.5712622 49.70821657 2.22027177 55.8125 7.375 C60.28962081 12.74754497 62.67946769 16.64049891 62.3203125 23.66796875 C61.40842588 30.30694815 59.32285182 36.63500345 54 41 C43.48843078 48.6617396 32.68845391 47.7011126 20.25 47.375 C13.5675 47.25125 6.885 47.1275 0 47 C0 31.49 0 15.98 0 0 Z " fill="#120F1A" transform="translate(233,259)"/>
<path d="M0 0 C5.56875 -0.061875 11.1375 -0.12375 16.875 -0.1875 C18.61120605 -0.21481201 20.34741211 -0.24212402 22.13623047 -0.27026367 C32.87628623 -0.37008931 42.26052738 -0.13774575 50.625 7.40234375 C54.54610343 11.95839859 54.36608924 16.28065043 54.24609375 22.08984375 C53.80352056 27.3234473 51.99530877 29.95613959 48.4375 33.6875 C39.32469459 40.54642405 27.64749464 39.35696059 16.875 39.1875 C8.521875 39.0946875 8.521875 39.0946875 0 39 C0 26.13 0 13.26 0 0 Z " fill="#14101B" transform="translate(233,193)"/>
</svg>
