<?xml version="1.0" encoding="utf-8"?>
<!-- Generator: Adobe Illustrator 26.4.1, SVG Export Plug-In . SVG Version: 6.00 Build 0)  -->
<svg version="1.1" id="Layer_1" xmlns="http://www.w3.org/2000/svg" xmlns:xlink="http://www.w3.org/1999/xlink" x="0px" y="0px"
	 viewBox="0 0 200 200" style="enable-background:new 0 0 200 200;" xml:space="preserve">
<style type="text/css">
	.st0{fill-rule:evenodd;clip-rule:evenodd;fill:#FFFFFF;}
</style>
<g>
	<g id="surface1">
		<g>
			<path d="M200,99.8c0,55.4-45,100.5-100.5,100.5S-0.9,155.2-0.9,99.8S44.1-0.7,99.5-0.7S200,44.4,200,99.8z"/>
		</g>
	</g>
</g>
<g id="_x30_w19IT_00000032625753936434351030000007077415936826890929_">
</g>
<g>
	<path class="st0" d="M126.4,74.5c-8.3-3.3-17.3-5-26.4-5c-19.1,0-37,7.5-50.5,21.1c-13.4,13.5-20.9,31.5-21,50.6l0,2.6l2.2,1.3
		c10.7,6.1,22.9,9.3,35.2,9.3c0.3,0,0.7,0,1,0c10.7-0.2,21.4-2.7,31-7.5c-3-1.7-5.9-3.6-8.7-5.7c-16.8,6.6-35.8,5.8-51.9-2.5
		c1.6-33.5,29.2-60.4,62.7-60.4c9.3,0,18.5,2.1,26.9,6C127,81,126.8,77.7,126.4,74.5z"/>
	<path class="st0" d="M171.5,140.6c-0.3-23.8-11.8-45.4-31.1-58.6c0,3.5-0.2,6.9-0.7,10.4c13.7,11.2,22.1,27.7,23,45.7
		c-29.6,15.2-66.4,4.6-83.2-24.5c-4.5-7.9-7.3-16.6-8.1-25.6c-2.9,1.6-5.6,3.3-8.1,5.4c1.4,8.6,4.3,17,8.7,24.7
		c9.6,16.6,24.9,28.4,43.2,33.4c6.2,1.7,12.5,2.5,18.8,2.5c12.3,0,24.4-3.2,35.3-9.4l2.2-1.3L171.5,140.6z"/>
	<path class="st0" d="M102.5,20l-2.2-1.3L98.1,20c-10.9,6.4-20,15.6-26.2,26.5c-5.4,9.5-8.6,20-9.3,30.9c3-1.8,6.1-3.3,9.3-4.7
		c2.8-17.8,13.1-33.9,28.5-43.8c28.1,18.1,37.4,55.6,20.5,84.9c-4.6,7.9-10.8,14.8-18.3,20.1c2.8,1.7,5.7,3.2,8.7,4.4
		c6.9-5.6,12.7-12.4,17.1-20.1C148.1,84,136.5,39.9,102.5,20z"/>
	<path class="st0" d="M100.3,94.7c-4,0-7.3,3.3-7.3,7.3c0,4,3.3,7.3,7.3,7.3c4,0,7.3-3.3,7.3-7.3C107.6,98,104.3,94.7,100.3,94.7z
		 M100.3,118.1c-8.9,0-16.1-7.2-16.1-16.1c0-8.9,7.2-16.1,16.1-16.1s16.1,7.2,16.1,16.1C116.3,110.9,109.1,118.1,100.3,118.1z"/>
</g>
</svg>
