<?xml version="1.0" encoding="UTF-8"?>
<svg xmlns="http://www.w3.org/2000/svg" xmlns:xlink="http://www.w3.org/1999/xlink" width="200px" height="200px" viewBox="0 0 200 200" version="1.1">
<g id="surface1">
<path style=" stroke:none;fill-rule:nonzero;fill:rgb(7.058824%,7.058824%,7.058824%);fill-opacity:1;" d="M 100 0 C 155.226562 0 200 44.773438 200 100 C 200 155.226562 155.226562 200 100 200 C 44.773438 200 0 155.226562 0 100 C 0 44.773438 44.773438 0 100 0 Z M 100 0 "/>
<path style=" stroke:none;fill-rule:nonzero;fill:rgb(100%,100%,100%);fill-opacity:1;" d="M 164.167969 52.082031 C 164.167969 62.4375 155.773438 70.832031 145.417969 70.832031 C 135.0625 70.832031 126.667969 62.4375 126.667969 52.082031 C 126.667969 41.726562 135.0625 33.332031 145.417969 33.332031 C 155.773438 33.332031 164.167969 41.726562 164.167969 52.082031 Z M 164.167969 52.082031 "/>
<path style=" stroke:none;fill-rule:nonzero;fill:rgb(100%,100%,100%);fill-opacity:1;" d="M 75 51.929688 L 55 51.929688 L 55 146.976562 L 144.976562 146.976562 L 144.976562 129.167969 L 75 129.167969 Z M 75 51.929688 "/>
</g>
</svg>
