<?xml version="1.0" encoding="utf-8"?>
<!-- Generator: Adobe Illustrator 26.4.1, SVG Export Plug-In . SVG Version: 6.00 Build 0)  -->
<svg version="1.1" id="Layer_1" xmlns="http://www.w3.org/2000/svg" xmlns:xlink="http://www.w3.org/1999/xlink" x="0px" y="0px"
	 viewBox="0 0 200 200" style="enable-background:new 0 0 200 200;" xml:space="preserve">
<style type="text/css">
	.st0{fill:#0E122F;}
	.st1{fill-rule:evenodd;clip-rule:evenodd;fill:#FBD52E;}
	.st2{fill-rule:evenodd;clip-rule:evenodd;fill:#7C6319;}
	.st3{fill-rule:evenodd;clip-rule:evenodd;fill:#201C18;}
	.st4{fill-rule:evenodd;clip-rule:evenodd;fill:#282010;}
	.st5{fill-rule:evenodd;clip-rule:evenodd;fill:#F0B607;}
	.st6{fill-rule:evenodd;clip-rule:evenodd;fill:#1C1919;}
	.st7{fill-rule:evenodd;clip-rule:evenodd;fill:#272A0D;}
	.st8{fill-rule:evenodd;clip-rule:evenodd;fill:#D4A32A;}
	.st9{fill-rule:evenodd;clip-rule:evenodd;fill:#181722;}
	.st10{fill-rule:evenodd;clip-rule:evenodd;fill:#151422;}
	.st11{fill-rule:evenodd;clip-rule:evenodd;fill:#C19B35;}
	.st12{fill-rule:evenodd;clip-rule:evenodd;fill:#1E1914;}
	.st13{fill-rule:evenodd;clip-rule:evenodd;fill:#2C2108;}
	.st14{fill-rule:evenodd;clip-rule:evenodd;fill:#9C7F29;}
	.st15{fill-rule:evenodd;clip-rule:evenodd;fill:#996F23;}
	.st16{fill-rule:evenodd;clip-rule:evenodd;fill:#201B1B;}
	.st17{fill-rule:evenodd;clip-rule:evenodd;fill:#141420;}
	.st18{fill-rule:evenodd;clip-rule:evenodd;fill:#D3A61F;}
	.st19{fill-rule:evenodd;clip-rule:evenodd;fill:#1D1B20;}
	.st20{fill-rule:evenodd;clip-rule:evenodd;fill:#1D161D;}
	.st21{fill-rule:evenodd;clip-rule:evenodd;fill:#19191E;}
	.st22{fill-rule:evenodd;clip-rule:evenodd;fill:#0F142D;}
	.st23{fill-rule:evenodd;clip-rule:evenodd;fill:#CCA527;}
	.st24{fill-rule:evenodd;clip-rule:evenodd;fill:#54C5C2;}
	.st25{fill-rule:evenodd;clip-rule:evenodd;fill:#A57F2A;}
	.st26{fill-rule:evenodd;clip-rule:evenodd;fill:#0A152E;}
	.st27{fill-rule:evenodd;clip-rule:evenodd;fill:#0E152F;}
	.st28{fill-rule:evenodd;clip-rule:evenodd;fill:#2D1C15;}
	.st29{fill-rule:evenodd;clip-rule:evenodd;fill:#16171C;}
	.st30{fill-rule:evenodd;clip-rule:evenodd;fill:#2C1F12;}
	.st31{fill-rule:evenodd;clip-rule:evenodd;fill:#50C5C1;}
	.st32{fill-rule:evenodd;clip-rule:evenodd;fill:#071D35;}
	.st33{fill-rule:evenodd;clip-rule:evenodd;fill:#101131;}
	.st34{fill-rule:evenodd;clip-rule:evenodd;fill:#0F112E;}
	.st35{fill-rule:evenodd;clip-rule:evenodd;fill:#54C8C5;}
	.st36{fill-rule:evenodd;clip-rule:evenodd;fill:#54C7C4;}
	.st37{fill-rule:evenodd;clip-rule:evenodd;fill:#55C6C4;}
	.st38{fill-rule:evenodd;clip-rule:evenodd;fill:#0B3D50;}
	.st39{fill-rule:evenodd;clip-rule:evenodd;fill:#357480;}
	.st40{fill-rule:evenodd;clip-rule:evenodd;fill:#57C5C3;}
	.st41{fill-rule:evenodd;clip-rule:evenodd;fill:#56C7C5;}
	.st42{fill-rule:evenodd;clip-rule:evenodd;fill:#419498;}
	.st43{fill-rule:evenodd;clip-rule:evenodd;fill:#488F98;}
	.st44{fill-rule:evenodd;clip-rule:evenodd;fill:#54C4C1;}
	.st45{fill-rule:evenodd;clip-rule:evenodd;fill:#52C5C2;}
	.st46{fill-rule:evenodd;clip-rule:evenodd;fill:#0C2238;}
	.st47{fill-rule:evenodd;clip-rule:evenodd;fill:#52AAAF;}
</style>
<g id="Capa_2">
	<g id="Capa_1-2">
		<path class="st0" d="M190,100c0-49.7-40.3-90-90-90s-90,40.3-90,90s40.3,90,90,90S190,149.7,190,100"/>
	</g>
</g>
<path class="st1" d="M263.4-7.6"/>
<g id="surface1_00000026137844684918968250000011430822963840896670_">
	<path class="st2" d="M92.3,26.8c3.9,0,7.7,0,11.6,0c0,0.2,0,0.3,0,0.5c-4.8,0-9.7,0.1-14.5,0.5C90.3,27.4,91.3,27.1,92.3,26.8z"/>
	<path class="st3" d="M92.3,26.8c-1,0.3-1.9,0.6-2.9,1c-3.7,1-7.4,1.9-11.1,2.9c0.4-1.1,1.2-1.6,2.4-1.5c0-0.6,0-1.3,0-1.9
		c1,0.4,2.1,0.7,3.1,1C86.5,27.2,89.4,26.7,92.3,26.8z"/>
	<path class="st4" d="M103.9,27.2c0-0.2,0-0.3,0-0.5c3.1,0,6.1,0.3,9.2,0.7c2.5,1,5.1,1.9,7.7,2.9c1.3,0.7,2.5,1.5,3.4,2.7
		C117.8,29.8,111,27.9,103.9,27.2z"/>
	<path class="st5" d="M103.9,27.2c7.2,0.7,13.9,2.6,20.3,5.8c1.3,0.6,2.6,1.3,3.9,1.9c0.8,0.9,1.8,1.5,2.9,1.9
		c1.8,1.8,3.7,3.4,5.8,4.8c4,4,7.4,8.3,10.2,13.1c1.7,2.7,2.8,5.6,3.4,8.7c0.1,2,0.8,3.8,1.9,5.3c0,0.2,0,0.3,0,0.5
		c0.7,4.5,1,9,1,13.5c0.1,3.8-0.9,7.4-2.9,10.6c-0.3,0.5-0.6,1-1,1.5c-2.4,0.9-4.7,2-6.8,3.4c-0.6,0.2-1.3,0.3-1.9,0.5
		c-2,0.2-3.9,0.6-5.8,1.2c-2.6,0.2-5.2,0.3-7.7,0.2c-4.3,0-8.5-0.8-12.6-2.4c-0.6-1.2-1.5-1.7-2.9-1.5c-1.7-0.7-3.3-1.7-4.8-2.9
		c-1.2-0.6-2.1-1.4-2.9-2.4c-0.6-1.2-1.6-1.9-2.9-2.2c-0.9-2.2-2.5-3.5-4.8-3.9c0.6-0.3,0.6-0.6,0-1c-1.2,0.1-2.5,0.1-3.9-0.2
		c-2.5-0.9-5.1-1.6-7.7-1.9c-6.5-1.8-12.9-1.8-19.3,0c-2.5,0.3-4.9,0.9-7.3,1.7c-4,2-7.8,4.5-11.1,7.5c-0.5,0-0.9,0.1-1.2,0.5
		c-1.4-9.7-0.8-19.2,1.7-28.5c1.1-1.8,1.9-3.7,2.4-5.8c1.2-1.7,2.4-3.5,3.4-5.3c1-1.5,1.9-2.9,2.9-4.4c0.5-0.5,1-1,1.5-1.5
		c1.9-1,3.4-2.4,4.4-4.4c0.8-1.3,2-2.3,3.4-2.9c1,0.1,2-0.2,2.9-0.7c1.1-1.8,2.6-3.2,4.4-4.1c0.4-0.3,0.7-0.7,1-1.2
		c1.7-0.6,3.3-1.3,4.8-2.2c3.7-1,7.4-1.9,11.1-2.9C94.2,27.4,99,27.2,103.9,27.2z"/>
	<path class="st6" d="M78.2,30.6c-1.5,0.9-3.1,1.6-4.8,2.2c-0.3,0.5-0.6,0.9-1,1.2c-1.7,0.4-3.1,1.2-4.4,2.4
		c0.2-1.2-0.3-1.9-1.5-2.2c1.3-0.2,2.6-0.3,3.9-0.2c-0.1-0.6,0.1-1.2,0.5-1.7C73.6,32.3,76,31.7,78.2,30.6z"/>
	<path class="st7" d="M128,35c1.3,0.2,2.3,0.8,2.9,1.9C129.8,36.5,128.8,35.9,128,35z"/>
	<path class="st8" d="M72.4,34c-1.8,0.9-3.2,2.3-4.4,4.1c-0.9,0.5-1.9,0.8-2.9,0.7c0-0.2,0-0.3,0-0.5c1.1-0.5,2.1-1.1,2.9-1.9
		C69.3,35.2,70.8,34.4,72.4,34z"/>
	<path class="st9" d="M136.7,41.7c-2.1-1.4-4-3-5.8-4.8c0.9,0.5,1.8,0.9,2.9,1c-0.1-0.6,0.1-1.1,0.5-1.5c2.4,0.9,4.5,2.2,6.3,4.1
		c-0.2,0.2-0.3,0.3-0.5,0.5c-1.1-0.1-2.3-0.3-3.4-0.7C136.7,40.8,136.7,41.3,136.7,41.7z"/>
	<path class="st10" d="M65.2,38.4c0,0.2,0,0.3,0,0.5c-1.4,0.6-2.5,1.6-3.4,2.9c-1.6,1.3-3.1,2.7-4.4,4.4c-0.5,0.5-1,1-1.5,1.5
		c-0.5-1.1-0.8-2.2-0.7-3.4c2.1-2,4-4.2,5.6-6.5c0.6-0.2,1.3-0.3,1.9-0.2c-0.1,0.6,0.1,1.1,0.5,1.5C63.9,38.5,64.5,38.3,65.2,38.4z"
		/>
	<path class="st11" d="M61.8,41.7c-1,1.9-2.4,3.4-4.4,4.4C58.7,44.5,60.2,43,61.8,41.7z"/>
	<path class="st12" d="M136.7,41.7c2.4,1.2,4.4,3.1,5.8,5.6c1.9,0.1,2.6,1,1.9,2.7c1.3,1.4,2.1,3,2.4,4.8
		C144.1,50.1,140.7,45.7,136.7,41.7z"/>
	<path class="st13" d="M53.1,51.9c-1,1.9-2.1,3.6-3.4,5.3C50.2,55,51.4,53.3,53.1,51.9z"/>
	<path class="st14" d="M150.3,63.5c0.3,0.1,0.5,0.2,0.7,0.5c0.5,1.6,0.9,3.2,1.2,4.8C151.1,67.3,150.4,65.5,150.3,63.5z"/>
	<path class="st15" d="M152.2,69.3c0.3,0,0.5,0.2,0.5,0.5c1,6.2,1.2,12.3,0.5,18.4c0-1.8,0-3.5,0-5.3
		C153.2,78.3,152.9,73.8,152.2,69.3z"/>
	<path class="st16" d="M84.5,81.9c-1.4-0.1-2.7,0-3.9,0.5c-5.1-0.4-10.3-0.6-15.5-0.5C71.6,80.1,78.1,80.1,84.5,81.9z"/>
	<path class="st17" d="M153.7,91.1c-0.5,2.3-2,3.6-4.4,3.9c0.3-0.5,0.6-1,1-1.5c0.8-0.1,1.5-0.4,2.2-1c0.6-1.4,0.8-2.8,0.7-4.4
		c0.7-6.1,0.5-12.2-0.5-18.4c0.9,0,1.5-0.5,1.7-1.5C156.1,76,155.9,83.6,153.7,91.1z"/>
	<path class="st18" d="M92.3,83.8c1.3,0.3,2.6,0.4,3.9,0.2c0.6,0.3,0.6,0.6,0,1c2.3,0.4,3.9,1.7,4.8,3.9c1.3,0.3,2.3,1,2.9,2.2
		c-1.8-1-3.5-1.9-5.3-2.9c-1.4-1.7-3.2-2.8-5.3-3.4C92.9,84.4,92.6,84.1,92.3,83.8z"/>
	<path class="st19" d="M47.3,63c-2.5,9.4-3.1,18.9-1.7,28.5c0.3-0.4,0.7-0.5,1.2-0.5c-0.6,1.2-1.5,1.7-2.9,1.5c0,1.1,0,2.3,0,3.4
		c-1.3,0.1-1.6-0.4-1-1.5c-0.3-0.5-0.6-1-1-1.5c0.9-1,1.7-2,2.4-3.1c0-1.3-0.6-1.9-1.9-1.7c0-2.6,0-5.2,0-7.7c0.5,0,1,0,1.5,0
		c0-3.4-0.1-6.8-0.2-10.2c0.4,0.6,0.8,0.6,1.2,0c0.3-0.5,0.4-1.1,0.5-1.7c-0.7-1.1-1-2.3-1-3.6c-1.9-0.3-1.9-0.6,0-1
		c0.2-2.2,0.9-2.4,1.9-0.5C46.7,63.3,47,63.2,47.3,63z"/>
	<path class="st20" d="M93.2,84.8c2.2,0.5,3.9,1.7,5.3,3.4c-1-0.5-2-1-3.1-1.5c-1.1,0.6-2.1,0.6-3.1,0
		C93.5,86.4,93.8,85.7,93.2,84.8z"/>
	<path class="st21" d="M65.2,81.9c0.6,0.7,1.4,1.2,2.4,1.5c-1,0.4-1.9,0.7-2.9,1c-1.7-1.3-3.3-1.2-4.8,0.2c1.5,1,3.1,1.7,4.8,2.2
		c0.6,0.5,0.6,1,0,1.5c-2.1-0.6-4.2-1.2-6.3-1.9c-0.6,0.2-1,0.5-1.2,1c-0.8-1-1.6-1.1-2.7-0.5c0.5,0.3,1,0.6,1.5,1
		c-1.6,0.2-2.9,0.9-3.9,2.2c-1.1,1-1.9,0.9-2.7-0.2c-0.7,0.8-1.6,1.3-2.7,1.5c3.4-3,7.1-5.5,11.1-7.5C60.3,82.7,62.7,82.2,65.2,81.9
		z"/>
	<path class="st22" d="M84.5,81.9c2.7,0.4,5.2,1,7.7,1.9c0.3,0.3,0.6,0.6,1,1c0.6,0.9,0.3,1.6-1,1.9c1,0.6,2.1,0.6,3.1,0
		c1.1,0.4,2.1,0.9,3.1,1.5c1.8,1,3.5,1.9,5.3,2.9c0.8,1,1.7,1.8,2.9,2.4c0,0.5,0,1,0,1.5c-0.6-0.1-1.1,0.1-1.5,0.5
		c0.9,0.5,1.9,0.6,2.9,0.5c0,0.5,0,1,0,1.5c-1.3-0.8-2.1-0.5-2.4,1c-2.6-1.3-5-2.8-7.3-4.6c-9.4-4.9-19.4-6.7-30-5.6
		c0.2-0.3,0.5-0.6,1-0.7c4.5-0.2,9-0.4,13.5-0.7c0.2-1.2-0.3-1.8-1.5-1.9c-2.8,1.1-5.6,1.2-8.5,0.5c-1.7,0.9-3.5,1.2-5.6,1
		c0-0.5,0-1,0-1.5c4.3-0.7,8.7-1,13.1-1c0-0.5,0-1,0-1.5C81.8,81.9,83.1,81.7,84.5,81.9z"/>
	<path class="st23" d="M153.2,82.8c0,1.8,0,3.5,0,5.3c0.1,1.5-0.2,3-0.7,4.4c-0.6,0.5-1.4,0.8-2.2,1
		C152.3,90.2,153.3,86.6,153.2,82.8z"/>
	<path class="st24" d="M105.8,98.3c1.3,1.5,3,2.6,4.8,3.4c7.2,5.3,15.2,7.1,24.2,5.6c6.6-1.3,12.6-4,17.9-8.2c0.8-0.3,1.6-0.3,2.4,0
		c0.6,0.5,1.2,0.9,1.9,1.2c0.1,1.3,0,2.6-0.2,3.9c-15,11.8-31.1,13.3-48.1,4.6c-2.5-1.8-5.1-3.5-7.7-5.1
		c-10.2-8.5-21.8-11.2-34.8-8.2c-3.4,0.8-6.6,2-9.7,3.6c-3,2.2-6,4.3-9.2,6.3c-3.5,0.5-4.9-1-4.1-4.6c7.2-6.7,15.7-10.9,25.4-12.6
		c10.6-1.2,20.5,0.7,30,5.6C100.8,95.5,103.2,97,105.8,98.3z"/>
	<path class="st25" d="M111.6,96.4c1.4-0.2,2.3,0.3,2.9,1.5C113.5,97.3,112.5,96.9,111.6,96.4z"/>
	<path class="st26" d="M101,103.6c-1.5-0.6-3-1.4-4.4-2.4c-0.4,0.4-0.6,0.9-0.5,1.5c1.6-0.1,1.8,0.2,0.5,1c-2.6-1.6-5.3-2.7-8.2-3.4
		c0-0.5,0-1,0-1.5c0.9,0,1.5,0.4,1.9,1.2c1.3,0.3,2.6,0.3,3.9,0c-1.4-1.2-3.1-2.1-4.8-2.7c-1.8,0.7-2.3,2-1.5,3.9
		c-0.2,0.5-0.5,1-0.7,1.5c-0.1,18.4-0.3,36.7-0.7,55.1c-0.7,4.4-0.9,8.9-0.5,13.3c-0.2,0.7-0.3,1.5-0.5,2.2
		c-0.4-1.1-0.6-2.2-0.7-3.4c-0.8,0.6-1.3,1.4-1.5,2.4c-0.3-0.7-0.9-1-1.7-1c0.1-0.7,0.3-1.3,0.7-1.9c0.4-22,0.3-43.9-0.2-65.8
		c-1.1-2.5-2.8-3.1-5.3-1.7c-0.4,0.4-0.8,0.8-1.2,1.2c-0.3,22.4-0.3,44.8,0,67.2c0.5,0.4,0.9,0.9,1.2,1.5c-1.2-0.7-2.4-1.1-3.9-1
		c0-0.5,0-1,0-1.5c0.6,0,1.3,0,1.9,0c0.2-21.9,0-43.8-0.5-65.8c-0.4,2.6-0.6,5.1-0.7,7.7c-0.2,18.1-0.3,36.1-0.5,54.2
		c-0.4-19.3-0.6-38.6-0.7-58c-0.2-2.6-0.7-5.2-1.5-7.7c-1.9-0.5-3.8-0.9-5.8-1c0-0.8,0-1.6,0-2.4c2.8,0.2,5.3,1.2,7.5,2.9
		c0.2-0.5,0.3-0.9,0.2-1.5c1.5,0.2,2.1-0.5,1.9-1.9c2.2-0.2,4.3,0.1,6.3,1c0.7-0.3,1.4-0.7,1.9-1.2c-5.6-0.2-11.3-0.3-16.9-0.2
		C79.2,92.4,90.8,95.1,101,103.6z"/>
	<path class="st27" d="M157.1,100.2c-0.7-0.3-1.4-0.7-1.9-1.2c-0.8-0.3-1.6-0.3-2.4,0c-5.3,4.2-11.3,6.9-17.9,8.2
		c-9,1.5-17-0.3-24.2-5.6c0.8-0.2,1.6-0.4,2.4-0.5c3.6,1.1,7.3,1.8,11.1,2.2c-0.4,0.1-0.7,0.4-1,0.7c1.3,0.3,2.6,0.6,3.9,1
		c-0.8,0.4-1.6,0.6-2.4,0.7c0.2,0.2,0.4,0.4,0.5,0.7c2.9,0.6,5.8,0.6,8.7,0.2c-0.5-0.5-1.2-0.8-1.9-1c1-0.4,1.9-0.8,2.9-1.2
		c-10.3-0.6-10.3-1,0-1.2c-2.4-0.1-4.7-0.4-7-0.7c-0.8,0.5-1.5,0.5-2.2,0c0.7-0.3,1.2-0.8,1.5-1.5c3.2,0,6.5-0.3,9.7-0.7
		c1.5-0.4,2.7-0.9,3.9-1.7c0.6-0.2,1.3-0.3,1.9-0.5c2.8-0.1,5.1-1.3,6.8-3.4c2.4-0.3,3.8-1.6,4.4-3.9c1.1-0.3,2.2-0.5,3.4-0.5
		c0,1.3,0.3,2.5,1,3.6c0,1.4-0.3,1.5-0.7,0.2c-0.2,0.5-0.3,0.9-0.2,1.5c-0.6,0-1.3,0-1.9,0c-0.1,0.7,0,1.4,0.5,1.9
		c0.7-0.5,1.4-1,2.2-1.5C157.5,97.6,157.2,98.9,157.1,100.2z"/>
	<path class="st28" d="M149.3,94.9c-1.7,2.1-3.9,3.3-6.8,3.4C144.7,96.9,146.9,95.8,149.3,94.9z"/>
	<path class="st29" d="M106.8,93.5c1.5,1.2,3.1,2.2,4.8,2.9c0.9,0.5,1.9,1,2.9,1.5c4,1.6,8.2,2.4,12.6,2.4c0,0.2,0,0.3,0,0.5
		c-1.9,0.7-3.8,1-5.8,0.7c-0.5-0.5-1.2-0.8-1.9-1c-1.6-0.2-3.2-0.3-4.8-0.5c0.3-0.3,0.6-0.6,1-1c-1.6,0-3.2,0-4.8,0
		c-1.2-0.1-2-0.7-2.4-1.7c0-0.5,0-1,0-1.5c-1,0.1-2,0-2.9-0.5c0.4-0.4,0.9-0.6,1.5-0.5C106.8,94.4,106.8,94,106.8,93.5z"/>
	<path class="st30" d="M140.6,98.8c-1.1,0.8-2.4,1.3-3.9,1.7c-3.2,0.5-6.4,0.7-9.7,0.7c0-0.2,0-0.3,0-0.5c0-0.2,0-0.3,0-0.5
		c2.6,0.1,5.2,0,7.7-0.2C136.7,99.4,138.6,99,140.6,98.8z"/>
	<path class="st31" d="M82.1,103.6c0.6,21.8,0.6,43.8,0.2,65.8c-0.4,0.6-0.6,1.2-0.7,1.9c-0.3,0.2-0.6,0.3-1,0.5
		c-1,0.1-1.9,0-2.9-0.2c-0.4-1.1-0.8-2.1-1.2-3.1c-0.4-21.6-0.3-43.2,0.2-64.8c0.7-1.4,1.8-1.7,3.1-1c0.6,18.4,0.9,36.7,1,55.1
		C80.8,139.6,81.2,121.5,82.1,103.6z"/>
	<path class="st32" d="M90.3,106.5c0,0.7-0.3,1.2-1,1.5c-0.6,9-0.6,18.1,0,27.1c-0.5,0-0.9-0.1-1.2-0.5c-0.4-10.3-0.3-20.6,0.2-30.9
		c0.4,0.8,0.6,1.6,0.7,2.4C89.4,106.4,89.9,106.6,90.3,106.5z"/>
	<path class="st33" d="M108.2,97.3c0.5,1,1.3,1.6,2.4,1.7c1.6,0,3.2,0,4.8,0c-0.3,0.3-0.6,0.6-1,1c1.6,0.2,3.2,0.3,4.8,0.5
		c0.7,0.1,1.4,0.5,1.9,1c2,0.2,3.9,0,5.8-0.7c0,0.2,0,0.3,0,0.5c-0.2,0.7-0.7,1.1-1.5,1.5c0.7,0.5,1.4,0.5,2.2,0
		c2.3,0.4,4.7,0.6,7,0.7c-10.3,0.2-10.3,0.6,0,1.2c-1,0.4-1.9,0.8-2.9,1.2c0.7,0.1,1.4,0.5,1.9,1c-2.9,0.4-5.8,0.3-8.7-0.2
		c-0.1-0.3-0.3-0.5-0.5-0.7c0.8-0.1,1.7-0.3,2.4-0.7c-1.3-0.3-2.6-0.6-3.9-1c0.3-0.3,0.6-0.6,1-0.7c-3.8-0.4-7.5-1.1-11.1-2.2
		c-0.8,0.1-1.6,0.3-2.4,0.5c-1.9-0.8-3.5-1.9-4.8-3.4C106.1,96.9,106.9,96.5,108.2,97.3z"/>
	<path class="st34" d="M82.1,99.8c0.9,0.6,1.8,0.6,2.7,0c0.5,1.1,0.9,2.2,1.2,3.4c0.1,14.3,0,28.7-0.5,43c0,7.5-0.6,14.9-1.9,22.2
		c-0.4-22.1-0.6-44.2-0.7-66.2C82.2,101.5,82,100.7,82.1,99.8z"/>
	<path class="st35" d="M55.5,111.8c0.1,8.2,0,16.4-0.2,24.7c-0.6,1.7-1.9,2.5-3.6,2.4c-0.9-0.1-1.6-0.6-1.9-1.5
		c-0.5-8.7-0.6-17.4-0.5-26.1c0.2-1.7,1.2-2.5,2.9-2.4C54.2,108.9,55.3,109.9,55.5,111.8z"/>
	<path class="st36" d="M67.6,140.4c-0.9,0.8-2.1,1.1-3.4,1c-0.5-1-1-2-1.7-2.9c-0.3-11.6-0.3-23.2,0-34.8c2.1-2.6,4.2-2.6,6.3,0
		c0.3,11.6,0.3,23.2,0,34.8C68.5,139.2,68.1,139.8,67.6,140.4z"/>
	<path class="st37" d="M90.3,106.5c1.9-0.2,3.5,0.3,4.8,1.5c0.5,9,0.6,18,0.5,27.1c-1.1,0.7-2.3,1.2-3.6,1.5
		c-1.1-0.2-1.9-0.7-2.7-1.5c-0.6-9-0.6-18,0-27.1C90.1,107.7,90.4,107.2,90.3,106.5z"/>
	<path class="st38" d="M95.2,108c0.3,0.1,0.5,0.2,0.7,0.5c0.4,8.9,0.3,17.8-0.2,26.6C95.8,126,95.6,117,95.2,108z"/>
	<path class="st39" d="M107.7,115.2c0.5,0.2,0.9,0.5,1.2,1c0.4,3,0.3,5.9-0.2,8.7C109,121.6,108.6,118.3,107.7,115.2z"/>
	<path class="st40" d="M107.7,115.2c0.9,3.1,1.2,6.3,1,9.7c-1.3,1.8-3.1,2.4-5.3,1.7c-0.3-0.4-0.5-0.8-0.7-1.2
		c-0.3-3.1-0.3-6.1,0-9.2C104,114.1,105.7,113.8,107.7,115.2z"/>
	<path class="st41" d="M148.8,134.6c-1.8,2.3-3.8,2.5-6,0.5c-0.4-5.4-0.3-10.7,0.2-16c0.8-0.4,1.7-0.7,2.7-1c1.3,0.4,2,1.4,1.9,2.9
		c0.2-0.2,0.4-0.4,0.7-0.5C148.8,125.2,149,129.9,148.8,134.6z"/>
	<path class="st42" d="M148.8,134.6c0.2-4.7,0-9.4-0.5-14c-0.3,0.1-0.5,0.3-0.7,0.5c0-1.5-0.6-2.5-1.9-2.9c-0.9,0.2-1.8,0.5-2.7,1
		c0.6-1.2,1.5-1.7,2.9-1.5c1.6-0.2,2.7,0.4,3.1,1.9C149.5,124.7,149.4,129.7,148.8,134.6z"/>
	<path class="st43" d="M49.2,111.4c-0.1,8.7,0,17.4,0.5,26.1c-0.3-0.2-0.6-0.5-0.7-1C48.6,128,48.7,119.7,49.2,111.4z"/>
	<path class="st44" d="M117.4,119.6c1.7-0.2,3.2,0.3,4.4,1.5c0.6,12.2,0.6,24.5,0.2,36.7c-2.5,2.2-4.6,1.9-6.3-1
		c-0.3-11.6-0.3-23.2,0-34.8C116.2,121.1,116.8,120.3,117.4,119.6z"/>
	<path class="st45" d="M130,121c2.3-0.5,4.1,0.2,5.6,1.9c0.3,10.2,0.3,20.3,0,30.5c-1.2,1.8-2.9,2.4-5.1,1.7c-0.6-0.4-1-1-1.2-1.7
		c-0.3-10.5-0.3-21,0-31.4C129.6,121.7,129.8,121.4,130,121z"/>
	<path class="st46" d="M67.6,140.4c0.5-0.6,0.9-1.2,1.2-1.9c0.3-11.6,0.3-23.2,0-34.8c-2.1-2.6-4.2-2.6-6.3,0
		c-0.3,11.6-0.3,23.2,0,34.8c0.7,0.9,1.2,1.9,1.7,2.9c-0.8-0.3-1.6-0.4-2.4-0.5c0.2-1.2-0.2-2-1.2-2.4c-0.9,1-1.9,1.9-3.1,2.7
		c-2,0.3-3.9,0.2-5.8-0.2c0-0.6,0-1.3,0-1.9c1.8,0.1,3-0.7,3.6-2.4c0.2-8.2,0.3-16.4,0.2-24.7c0.7,3.7,1.2,3.7,1.7,0
		c-0.1,5.3-0.4,10.6-0.7,16c0.1,3.6,0.4,7.1,1,10.6c-1.5-0.3-2.6,0.2-3.4,1.5c1.5,0.7,2.8,0.4,3.9-1c0.3-1.5,0.6-2.9,1-4.4
		c0.3-9.8,0.6-19.7,1-29.5c0.3,10.3,0.6,20.6,1,30.9c0.4-11,0.6-21.9,0.7-32.9c0.3-0.7,0.9-1,1.7-1c0-0.5,0-1,0-1.5
		c1.5,0,2.9,0.3,4.4,0.7c0.9,0.2,1.5,0.8,1.7,1.7c0.3,12.1,0.3,24.2,0,36.3C69,140.1,68.4,140.4,67.6,140.4z"/>
	<path class="st47" d="M82.1,103.6c-0.9,17.9-1.3,35.9-1.2,54.2c-0.1-18.4-0.4-36.8-1-55.1c-1.4-0.8-2.4-0.4-3.1,1
		c-0.6,21.6-0.6,43.2-0.2,64.8c0.4,1,0.8,2.1,1.2,3.1c1,0.2,1.9,0.3,2.9,0.2c-1.3,0.6-2.6,0.6-3.9,0c-0.3-0.5-0.7-1-1.2-1.5
		c-0.3-22.4-0.3-44.8,0-67.2c0.4-0.4,0.8-0.8,1.2-1.2C79.3,100.6,81,101.1,82.1,103.6z"/>
</g>
</svg>
