<?xml version="1.0" encoding="utf-8"?>
<!-- Generator: Adobe Illustrator 26.4.1, SVG Export Plug-In . SVG Version: 6.00 Build 0)  -->
<svg version="1.1" id="Layer_1" xmlns="http://www.w3.org/2000/svg" xmlns:xlink="http://www.w3.org/1999/xlink" x="0px" y="0px"
	 viewBox="0 0 200 200" style="enable-background:new 0 0 200 200;" xml:space="preserve">
<style type="text/css">
	.st0{fill-rule:evenodd;clip-rule:evenodd;fill:#FBD52E;}
	.st1{fill:#0E122F;}
	.st2{fill:#FEB401;}
	.st3{fill:#02CEC7;}
</style>
<path class="st0" d="M263.4-7.6"/>
<g id="Capa_2">
	<g id="Capa_1-2">
		<path class="st1" d="M200,100C200,44.8,155.2,0,100,0S0,44.8,0,100s44.8,100,100,100S200,155.2,200,100"/>
	</g>
</g>
<g>
	<path class="st2" d="M159.8,79.9c0.1,3.4-0.3,7-0.9,10.6c-0.2,1-0.7,1.6-1.5,2.2c-6.3,4.7-13.4,7.3-21.3,7.9
		c-9.2,0.7-18-0.9-25.9-5.9c-5-3.2-9.8-6.8-14.8-10c-4.5-2.9-9.5-4.6-14.8-5.5c-7.6-1.3-15.1-1-22.5,1.2c-4.2,1.2-8.2,3-11.8,5.6
		c-2,1.4-4,2.7-6,4.1c-1.1,0.8-1.5,0.7-1.7-0.7c-0.7-4.5-1-9-0.7-13.6c0.5-8,2.4-15.6,5.9-22.8c3.7-7.7,8.8-14.3,15.3-19.8
		c4.2-3.6,8.8-6.6,13.8-8.9c6.3-3,12.9-4.7,19.8-5.5c6.9-0.7,13.8-0.2,20.6,1.5c11,2.7,20.5,8.1,28.5,16
		c5.7,5.6,10.1,12.2,13.2,19.5C158.3,63.4,160,71.4,159.8,79.9z"/>
	<path class="st3" d="M133.3,116.1c-8.3,0.2-16-1.7-23.1-6c-4.4-2.6-8.5-5.7-12.8-8.6c-6.1-4.1-12.7-6.6-20.1-7.3
		c-7.5-0.8-14.7,0.3-21.6,3.1c-5.1,2.1-9.4,5.6-14,8.6c-2.2,1.4-4.5,0.8-5.5-1.3c-0.7-1.6-0.3-3.4,1.1-4.5
		c7.5-5.5,15.3-10.6,24.7-12.3c2.5-0.5,5.1-0.7,7.7-1c2.7-0.3,5.4,0,8,0.1c5.4,0.4,10.5,1.8,15.5,3.9s9.2,5.3,13.6,8.3
		c4.2,2.8,8.2,5.8,13.1,7.5c6.4,2.2,13,2.7,19.7,1.7c6.7-1.1,12.6-4,18-8c1.2-0.9,2.5-1.5,4.1-0.8c2.7,1.1,3.2,4.5,0.9,6.3
		c-6.9,5.3-14.5,9-23.3,10.1C137.4,116.1,135.3,116.1,133.3,116.1z"/>
	<path class="st3" d="M80.3,141.8c0,11.7,0,23.4,0,35.1c0,2.6-1.7,4.6-3.9,4.6c-2.3,0-4-1.9-4-4.6c0-23.5,0-47.1,0-70.6
		c0-1.5,0.3-2.9,1.6-3.9c2.1-1.8,5.3-0.9,6.1,1.8c0.2,0.8,0.3,1.7,0.3,2.5C80.3,118.5,80.3,130.1,80.3,141.8z"/>
	<path class="st3" d="M57.5,124.1c0-5.6,0-11.3,0-16.9c0-0.8,0.1-1.5,0.4-2.2c0.7-1.8,2.1-2.9,3.7-2.7c1.8,0.2,3.2,1.5,3.6,3.4
		c0.1,0.7,0.1,1.4,0.1,2.1c0,11,0,22,0,33c0,0.5,0,0.9,0,1.4c-0.3,2.8-1.7,4.3-4,4.3c-2.1-0.1-3.8-2.1-3.8-4.7c0-2.7,0-5.4,0-8.2
		C57.5,130.4,57.5,127.3,57.5,124.1z"/>
	<path class="st3" d="M125,144.5c0,5.9,0,11.8,0,17.7c0,2.8-1.4,4.3-3.9,4.4c-2.3,0-3.8-1.7-3.8-4.4c0-11.9,0-23.7,0-35.6
		c0-2.4,1.6-4.3,3.9-4.3s3.8,1.6,3.8,4.3C125,132.5,124.9,138.5,125,144.5L125,144.5z"/>
	<path class="st3" d="M139.8,143.4c0,5,0,10,0,15c0,2.6-1.5,4.2-3.7,4.2s-3.9-1.6-3.9-4.1c0-10.2,0-20.5,0-30.7c0-2.4,1.9-4.2,4-4.1
		c2.2,0.1,3.7,1.7,3.7,4.1C139.8,132.9,139.8,138.1,139.8,143.4z"/>
	<path class="st3" d="M87.5,124.4c0-4.2,0-8.4,0-12.6c0-2.5,1.5-4.2,3.6-4.2c2.2,0,4,1.9,4,4.2c0,8.3,0,16.7,0,25
		c0,1.8-0.6,3.4-2.4,4.2c-2.7,1-5.2-0.6-5.2-3.6C87.4,133.1,87.5,128.7,87.5,124.4L87.5,124.4z"/>
	<path class="st3" d="M42.6,126.8c0-4.2,0-8.4,0-12.6c0-2.4,1.6-4.2,3.6-4.2c2.3,0,4,1.9,4,4.4c0,8.3,0,16.6,0,24.8
		c0,3.4-2.6,5.3-5.5,4.1c-1.6-0.7-2.2-2-2.2-3.6C42.6,135.4,42.6,131.1,42.6,126.8z"/>
	<path class="st3" d="M154.9,130.8c0,2.2,0,4.3,0,6.5c0,2.4-1.6,4-4,4c-2,0-3.7-1.7-3.7-4c0-4.4,0-8.9,0-13.3c0-2.4,1.6-3.9,3.9-3.9
		c2.2,0,3.7,1.6,3.7,3.9C154.9,126.2,154.9,128.5,154.9,130.8L154.9,130.8z"/>
	<path class="st3" d="M110,123.7c0,1.1,0,2.2,0,3.3c-0.1,2.1-1.6,3.6-3.6,3.7c-2.2,0.1-3.9-1.3-4-3.4c-0.1-2.5-0.1-4.9,0-7.4
		c0.1-2.1,1.8-3.4,4.1-3.3c1.9,0.1,3.5,1.6,3.5,3.6C110.1,121.3,110,122.5,110,123.7z"/>
</g>
</svg>
