<?xml version="1.0" encoding="UTF-8"?>
<svg id="Layer_1" data-name="Layer 1" xmlns="http://www.w3.org/2000/svg" version="1.1" viewBox="0 0 500 500">
  <defs>
    <style>
      .cls-1 {
        fill: #fff;
      }

      .cls-1, .cls-2 {
        stroke-width: 0px;
      }

      .cls-2 {
        fill: #597efe;
      }
    </style>
  </defs>
  <circle class="cls-2" cx="250" cy="250" r="250"/>
  <g>
    <path class="cls-1" d="M376.6,308.3c0,15.5,0,31,0,46.6,0,23.2-19.3,43.6-42.6,44.4-14.2.5-28.4.2-42.5.1-4.8,0-7.7-3-7.7-7.9,0-11.8-.4-23.6.1-35.3.7-14.1,8.3-23.8,20.8-30,7.9-3.9,15.8-7.9,23.1-12.7,8-5.3,13.6-12.7,15.7-22.4,1.5-7-1.9-12.7-8.9-14.1-17.1-3.2-33.8-2-49.8,5.4-13.6,6.3-19.1,18-20.7,32.1-.8,7.2-1.6,14.3-2.4,21.5-.7,6.2-5.7,10.9-11.7,11.1-5.7.1-10.4-3.9-11.4-10.3-1.4-9.9-2.3-19.9-3.8-29.8-1.9-12.4-8.8-20.7-20.8-25.2-15-5.7-30.2-7.7-46-5.3-9.6,1.5-13.4,7.2-10.8,16.5,2.3,8.4,7.2,15.1,14.2,19.8,7.3,4.8,15.1,9.2,23,12.9,14.8,6.9,22.2,18.2,22.2,34.5,0,10,0,20.1,0,30.1,0,6.3-2.8,9.1-9,9.1-12.8,0-25.7,0-38.5,0-25.6-.2-45.6-20.5-45.7-46.1,0-30.8,0-61.5,0-92.3,0-12.5,5.6-20,17.6-23.6,34.4-10.4,68.8-20.8,103.2-31.3,3.9-1.2,7.5-1.2,11.3,0,34.8,10.6,69.6,21,104.4,31.5,11.1,3.4,16.8,11,16.8,22.5,0,16.1,0,32.1,0,48.2Z"/>
    <path class="cls-1" d="M353.8,230.9c-.7-.2-2-.5-3.2-.8-31.7-9.6-63.4-19.3-95.2-28.6-3.6-1.1-8-1-11.6,0-31.4,9.3-62.6,19-93.9,28.6-3.6,1.1-6.8,1.5-9.6-1.5-2.8-3-1.7-6.1-.5-9.3,7.8-20.3,21.6-35.5,40.4-45.6,49.7-26.9,99.1-26,147,4.5,16,10.1,27.3,24.7,34,42.5,2.1,5.6-1,10.3-7.3,10.2Z"/>
    <path class="cls-1" d="M260.3,150.9h-19.6c-.3-1.3-.6-2.7-.9-4.1-2.4-15.1-13.7-26-29-27.9-6.9-.8-7-1.2-3-6.8,21.3-29.6,66.5-28.8,86.4,1.7,1.2,1.8,3.4,3.9-1,4.7-21.2,3.7-28.4,10.8-33,32.4Z"/>
  </g>
</svg>