<?xml version="1.0" encoding="UTF-8"?>
<svg id="Layer_1" data-name="Layer 1" xmlns="http://www.w3.org/2000/svg" xmlns:xlink="http://www.w3.org/1999/xlink" version="1.1" viewBox="0 0 500 500">
  <defs>
    <style>
      .cls-1 {
        fill: #e81899;
      }

      .cls-1, .cls-2, .cls-3 {
        stroke-width: 0px;
      }

      .cls-4 {
        mask: url(#mask);
      }

      .cls-2 {
        fill: #271529;
      }

      .cls-3 {
        fill: #fff;
      }

      .cls-5 {
        mask: url(#mask-1);
      }
    </style>
    <mask id="mask" x="76.1" y="290.9" width="70.9" height="39.6" maskUnits="userSpaceOnUse">
      <g id="path-11-inside-1_2069_21622" data-name="path-11-inside-1 2069 21622">
        <path class="cls-3" d="M129.7,305l-37.1,5.8c-1.6.2-2.6,1.7-2.4,3.3.2,1.6,1.7,2.6,3.3,2.4l37.1-5.8c1.6-.2,2.6-1.7,2.4-3.3-.2-1.6-1.7-2.6-3.3-2.4Z"/>
      </g>
    </mask>
    <mask id="mask-1" x="78.1" y="263.7" width="69.8" height="44.4" maskUnits="userSpaceOnUse">
      <g id="path-13-inside-2_2069_21622" data-name="path-13-inside-2 2069 21622">
        <path class="cls-3" d="M131.8,288.4l-36-10.6c-1.5-.4-3.1.4-3.6,1.9-.4,1.5.4,3.1,1.9,3.6l36,10.6c1.5.4,3.1-.4,3.6-1.9.4-1.5-.4-3.1-1.9-3.6Z"/>
      </g>
    </mask>
  </defs>
  <path class="cls-3" d="M249.9,499.5c137.8,0,249.6-111.7,249.6-249.6S387.7.3,249.9.3.3,112,.3,249.9s111.7,249.6,249.6,249.6h0Z"/>
  <g>
    <g>
      <path class="cls-2" d="M207.3,261.8c-5.5,0-9.8,4.5-9.8,9.8s4.5,9.8,9.8,9.8,9.8-4.5,9.8-9.8-4.5-9.8-9.8-9.8Z"/>
      <path class="cls-2" d="M167.1,271.6c0-5.5-4.5-9.8-9.8-9.8s-9.8,4.5-9.8,9.8,4.5,9.8,9.8,9.8,9.8-4.5,9.8-9.8Z"/>
      <path class="cls-1" d="M332.1,142.9c-3.1-2.8-33.6-31.8-34.7-71,0,0,0-10.6-6.4-7.3-6.3,3.2-10.1,10.6-15.3,29.6-5.2,18.9,12.3,27.9,22.8,39,0,0-22-2.4-27.6-1.8-5.6.7-9.9,2.4-18.9,18.5,0,0-11.2,19.1-3.2,28.3.6.7,1.5,1,2.4,1,1.3,0,2.9-.4,4.3-1.7,0,0,35.9-32.9,74-28,30,32.8,12.5,61.6-9.7,75.8-5.4,3.5-10.5,6.6-14.7,10.5-10.9,10.2-17.4,22.1-19.9,27.2-5.9,11.2-7.8,16.4-18.1,16.7-10.2.3-13.5-12.8-14.9-16.7-1.3-3.9-7.3-38.1-9.8-45.4-2.7-7.3-5.3-11.2-13.2-7.8-7.8,3.2-17.8,22.4-17.8,22.4-30.3-8.5-50-2.7-50-2.7l-3.9-11.9c-1.3-3.9-6.6-23-17.1-11.9s-19.1,44.1-19.1,44.1c-14.4,69.1,19.1,116.4,19.1,116.4,56.6,88.1,159.9,71.7,182.8,62.5,20.7-8.3,69.4-34.3,90.2-90.9,2.2-6.2,4.2-12.6,5.7-19.6.6-2.7,1.1-5.3,1.4-8,20.6-107.6-64.2-155.7-88.7-167.2h.1ZM147.3,271.6c0-5.5,4.5-9.8,9.8-9.8s9.8,4.5,9.8,9.8-4.5,9.8-9.8,9.8-9.8-4.5-9.8-9.8ZM214,296c-5.5,9.8-11.6,12.2-16.1,12.2s-2.8-.3-3.8-.6c-4.8-1.4-8.8-5.2-11.6-9.1-2.8,4.1-6.9,7.8-11.6,9.1-1.1.3-2.4.6-3.8.6-4.6,0-10.8-2.4-16.3-12.2-1-1.7-.3-3.8,1.4-4.8s3.8-.4,4.8,1.4c3.6,6.4,7.6,9.4,11.6,8.3,5.6-1.3,10.2-8.8,10.4-10.8h0c0-2,1.7-3.5,3.5-3.5h.1c1.4,0,2.4,1.1,2.8,2.2.1.4.4.6.6,1.1h0c0,2.2,4.8,9.7,10.4,10.9,4.2,1.1,8-1.8,11.6-8.3,1-1.7,3.1-2.4,4.8-1.4s2.2,3.1,1.4,4.8h-.1ZM207.3,281.6c-5.5,0-9.8-4.5-9.8-9.8s4.5-9.8,9.8-9.8,9.8,4.5,9.8,9.8-4.5,9.8-9.8,9.8Z"/>
      <path class="cls-2" d="M268.6,274.8l-36,10.8c-1.5.5-2.4,2.1-1.9,3.6.5,1.5,2.1,2.4,3.6,1.9l36-10.8c1.5-.5,2.4-2.1,1.9-3.6-.5-1.5-2.1-2.4-3.6-1.9Z"/>
      <path class="cls-2" d="M272.3,307.8l-37.2-5.6c-1.6-.2-3,.8-3.3,2.4-.2,1.6.8,3,2.4,3.3l37.1,5.6c1.6.2,3-.8,3.3-2.4.2-1.6-.8-3-2.4-3.3Z"/>
    </g>
    <path class="cls-2" d="M129.7,305l-37.1,5.8c-1.6.2-2.6,1.7-2.4,3.3.2,1.6,1.7,2.6,3.3,2.4l37.1-5.8c1.6-.2,2.6-1.7,2.4-3.3-.2-1.6-1.7-2.6-3.3-2.4Z"/>
    <g class="cls-4">
      <path class="cls-1" d="M94.7,324.7l37.1-5.8-4.4-27.7-37.1,5.8,4.4,27.7ZM131.9,318.8c-6.1,1-11.8-3.2-12.7-9.3l27.7-4.4c-1.4-9.2-10.1-15.5-19.3-14.1l4.4,27.7ZM119.1,309.6c-1-6.1,3.2-11.8,9.3-12.7l4.4,27.7c9.2-1.4,15.5-10.1,14.1-19.3l-27.7,4.4ZM128.4,296.8l-37.1,5.8,4.4,27.7,37.1-5.8-4.4-27.7ZM91.3,302.7c6.1-1,11.8,3.2,12.7,9.3l-27.7,4.4c1.4,9.2,10.1,15.5,19.3,14.1l-4.4-27.7ZM104,311.9c1,6.1-3.2,11.8-9.3,12.7l-4.4-27.7c-9.2,1.5-15.5,10.1-14.1,19.3l27.7-4.4Z"/>
    </g>
    <path class="cls-2" d="M131.8,288.4l-36-10.6c-1.5-.4-3.1.4-3.6,1.9-.4,1.5.4,3.1,1.9,3.6l36,10.6c1.5.4,3.1-.4,3.6-1.9.4-1.5-.4-3.1-1.9-3.6Z"/>
    <g class="cls-5">
      <path class="cls-1" d="M91.8,291.3l36,10.6,7.9-26.9-36-10.6-7.9,26.9ZM127.9,301.9c-5.9-1.7-9.3-7.9-7.5-13.8l26.9,7.9c2.6-8.9-2.5-18.3-11.4-21l-7.9,26.9ZM120.4,288c1.7-5.9,7.9-9.3,13.8-7.5l-7.9,26.9c8.9,2.6,18.3-2.5,21-11.4l-26.9-7.9ZM134.2,280.5l-36-10.6-7.9,26.9,36,10.6,7.9-26.9ZM98.1,269.9c5.9,1.7,9.3,7.9,7.5,13.8l-26.9-7.9c-2.6,8.9,2.5,18.3,11.4,21l7.9-26.9ZM105.7,283.7c-1.7,5.9-7.9,9.3-13.8,7.5l7.9-26.9c-8.9-2.6-18.3,2.5-21,11.4l26.9,7.9Z"/>
    </g>
  </g>
</svg>