<?xml version="1.0" encoding="utf-8"?>
<!-- Generator: Adobe Illustrator 26.4.1, SVG Export Plug-In . SVG Version: 6.00 Build 0)  -->
<svg version="1.1" id="Layer_1" xmlns="http://www.w3.org/2000/svg" xmlns:xlink="http://www.w3.org/1999/xlink" x="0px" y="0px"
	 viewBox="0 0 200 200" style="enable-background:new 0 0 200 200;" xml:space="preserve">
<style type="text/css">
	.st0{fill:#102E5E;}
	.st1{fill-rule:evenodd;clip-rule:evenodd;fill:#FBD52E;}
	.st2{fill:#3D7BC2;}
	.st3{fill:#FFFFFF;}
</style>
<g id="surface1_00000066475094778492874230000000461473635953375419_">
	<path class="st0" d="M194.8,100c0,52.4-42.5,94.9-94.8,94.9S5.2,152.4,5.2,100C5.2,47.6,47.6,5.1,100,5.1S194.8,47.6,194.8,100z"/>
</g>
<path class="st1" d="M263.4-7.6"/>
<g id="surface1">
	<path class="st2" d="M107.3,162.9c33.3,0,60.3-25.3,60.3-56.6c0-31.3-27-56.6-60.3-56.6S47,75,47,106.2
		C47,137.5,74,162.9,107.3,162.9z"/>
	<path class="st0" d="M132.8,89.8c3.8,0,7-3,7-6.5c0-3.6-3.2-6.5-7-6.5c-3.8,0-7,3-7,6.5C125.8,86.8,129,89.8,132.8,89.8z"/>
	<path class="st0" d="M141.9,125.2c4.8,0,8.9-3.8,8.9-8.3c0-4.6-4-8.3-8.9-8.3c-4.9,0-8.9,3.8-8.9,8.3
		C132.8,121.5,136.8,125.2,141.9,125.2z"/>
	<path class="st3" d="M167.8,108.4c3.8-1,6.8-4.2,6.8-8.1s-2.7-7.1-6.8-8.1c-2.5-20.4-14.8-38-32.5-48.7l3-3
		c1.1,0.4,2.3,0.6,3.6,0.6c4.8,0,8.9-3.8,8.9-8.3c0-4.6-4-8.3-8.9-8.3c-4.9,0-8.9,3.8-8.9,8.3c0,1.6,0.4,3,1.3,4.4l-3.8,3.8
		C120.4,35.8,109,33,96.9,33c-39.4,0-71.5,30.1-71.5,67.1s32.1,67.1,71.5,67.1c12,0,23.4-2.8,33.3-7.7l3.8,3.6
		c-0.8,1.2-1.3,2.6-1.3,4.2c0,4.6,4,8.3,8.9,8.3c4.9,0,8.9-3.8,8.9-8.3c0-4.6-4-8.3-8.9-8.3c-1.3,0-2.5,0.2-3.6,0.8l-3-3
		C152.8,146.2,165.3,128.8,167.8,108.4z M162.3,92.4c-3.4,1.2-5.7,4.2-5.7,7.7c0,3.6,2.3,6.5,5.7,7.7c-2.5,19-14.3,35.2-31,44.9
		L82,104.5c0.6-1.2,1.3-2.6,1.3-4.2s-0.4-3-1.3-4.4l49.6-48.7C148.2,56.9,160,73.4,162.3,92.4z M96.9,162.1c-36.5,0-66-27.7-66-62
		s29.5-62,66-62c10.5,0,20.7,2.4,29.5,6.5L77.7,92.6c-0.2,0-0.4-0.2-0.6-0.2V66c3.6-1.2,5.9-4.2,5.9-7.9c0-4.6-4-8.3-8.9-8.3
		c-4.9,0-8.9,3.8-8.9,8.3c0,3.8,2.7,6.9,6.3,7.9v26.1c-3.6,1-6.3,4.2-6.3,7.9s2.7,6.9,6.3,7.9V134c-3.6,1-6.3,4.2-6.3,7.9
		c0,4.6,4,8.3,8.9,8.3c4.9,0,8.9-3.8,8.9-8.3c0-3.8-2.5-6.7-5.9-7.9v-25.7c0.2,0,0.4-0.2,0.6-0.2l48.5,47.7
		C117.4,159.7,107.5,162.1,96.9,162.1z"/>
</g>
</svg>
