<?xml version="1.0" encoding="utf-8"?>
<!-- Generator: Adobe Illustrator 26.4.1, SVG Export Plug-In . SVG Version: 6.00 Build 0)  -->
<svg version="1.1" id="Layer_1" xmlns="http://www.w3.org/2000/svg" xmlns:xlink="http://www.w3.org/1999/xlink" x="0px" y="0px"
	 viewBox="0 0 200 200" style="enable-background:new 0 0 200 200;" xml:space="preserve">
<style type="text/css">
	.st0{fill:#28293C;}
	.st1{fill:#FFFFFF;}
	.st2{fill:#3D3D3D;}
	.st3{fill:#DF0822;}
</style>
<circle class="st0" cx="100" cy="100" r="100"/>
<g id="_x30_w19IT_00000032625753936434351030000007077415936826890929_">
</g>
<path class="st1" d="M99.4,173.2c-4.9-2.4-4-2.1-4-6.9c0-9.6,0-19.2,0-28.8c0-1.2-0.3-1.5-1.5-1.5c-9,0-18.1-0.1-27.1-0.6
	c-1.3-0.1-1.8,0.3-2.3,1.5c-3.4,9.1-6.9,18.2-10.4,27.3c-1,2.7-3,3.8-5.9,3.2c-1.4-0.3-2.6-0.8-3.5-1.9c-1.2-1.4-1.6-2.7-0.7-4.5
	c3.5-7.9,6.9-15.9,10.4-23.9c0.9-2,0.9-1.9-1.4-2c-8.3-0.4-16.5-0.8-24.7-2.5c-4.5-0.9-4.8-1.7-2.8-5.7c2.3-4.5,5.5-8.3,8.8-12.1
	c3.3-3.9,6.7-7.7,10.4-11.2c0.6-0.6,0.8-1.2,0.6-2.1c-3.2-19.6-0.5-37.9,12-53.9c13.9-17.9,43.3-29.3,70.8-12.3
	c5.6,3.4,10.5,7.5,14.6,12.6c3.9,4.8,7,9.9,9.1,15.7c1.3,3.6,2.5,7.3,3.1,11.2c1,6.8,1.4,13.6,0.8,20.4c-0.2,2-0.2,4.1-0.9,6.1
	c-0.3,0.8,0,1.4,0.6,2.1c2.7,3,5.5,5.7,8.2,8.8c2.5,2.9,5,5.8,7.4,8.9c2,2.6,3.6,5.4,4.9,8.4c0,0.6,0,1.2,0,1.8
	c-0.7,0.6-1.6,1-2.5,1.2c-3,0.8-6,1.2-9.1,1.5c-6.1,0.6-12.3,1.1-18.4,1.3c-1.1,0-1,0.4-0.6,1.1c1.3,2.1,2,4.4,2.9,6.6
	c2.7,6.2,5.2,12.5,7.8,18.7c0.7,1.8,0,3.6-1.8,4.4c-0.6,0.3-1.3,0.5-2,0.7c-2.8,0.6-4.9-0.5-5.9-3.1c-3.5-8.9-7-17.8-10.4-26.8
	c-0.4-0.9-0.8-1.3-1.8-1.2c-8.4,0.5-16.8,0.6-25.1,0.6c-0.8,0-1.7-0.2-2.2,0.1c-0.8,0.5-0.1,1.4-0.1,2.1c-0.1,10.1-0.1,20.3,0,30.4
	c0,1.8-0.8,2.9-2.3,3.7c-0.5,0.3-1.1,0.2-1.4,0.7C101.6,173.2,100.5,173.2,99.4,173.2z"/>
<path class="st2" d="M120.7,96.1c4.1,0.9,8.3,1,12.5,1.8c3.4,0.6,6.9,0.9,10.2,2c2.8,0.9,3.3,0.7,3.9-2.1c2.8-13.9,1-27.1-6-39.5
	c-11.5-20.5-35.7-29.6-57.4-21.5c-15.4,5.8-25,17.1-29.9,32.6c-3.1,9.8-3.3,19.9-0.9,29.9c0.1,0.5-0.1,1.4,1.1,1.1
	c3.2-0.8,6.4-1.3,9.6-2c3.7-0.7,7.4-0.9,11-1.6c1.7-0.3,3.5-0.5,5.2-0.7c1.6,0.2,3.2-0.2,4.8-0.3c4.2-0.1,8.4-0.4,12.6-0.5
	c3.6-0.1,7.2-0.2,10.9,0.1C112.4,95.8,116.6,95.9,120.7,96.1z"/>
<path class="st0" d="M132.7,121.1c0,3.4,2.7,6.2,6.1,6.2c2.8,0.1,6.3-2.6,6.3-6.2c0-3.4-2.8-6.2-6.2-6.2
	C135.5,115,132.7,117.7,132.7,121.1z"/>
<path class="st0" d="M61.2,114.4c-3.4-0.2-6.4,2.4-6.2,7.2c0.1,2.3,2.8,5.2,6.3,5.2c3.4,0,6.1-2.8,6.2-6.2
	C67.4,117.1,64.6,114.4,61.2,114.4z"/>
<path class="st0" d="M106,120.9c0.4-3.3-2.7-6.2-6-6.2c-3.5,0-6.3,2.8-6.3,6.2c0,3.4,2.8,6.2,6.2,6.2
	C103.4,127.1,106,124.4,106,120.9z"/>
<path class="st0" d="M80,96.1c-1.7,0.2-3.5,0.3-5.2,0.7c-3.6,0.7-7.4,0.9-11,1.6c-3.2,0.7-6.4,1.2-9.6,2c-1.2,0.3-1-0.6-1.1-1.1
	c-2.4-10-2.2-20.1,0.9-29.9c4.9-15.5,14.5-26.8,29.9-32.6c21.7-8.1,45.9,1,57.4,21.5c7,12.4,8.7,25.6,6,39.5
	c-0.6,2.9-1.1,3.1-3.9,2.1c-3.3-1.1-6.8-1.4-10.2-2c-4.1-0.8-8.4-0.9-12.5-1.8c-0.1-2.2-0.3-4.3-0.4-6.5c-0.4-5-0.6-10.1-1.2-15
	c-0.6-4.6-2.9-8.4-6.5-11.5c0-0.3,0-0.6,0.1-0.9c1.5-5.9,5.9-9,12.1-8.7c0.7,0,1.3,0.2,1.8,0.8c0.8,0.9,1.8,0.9,2.7,0.1
	c0.8-0.7,0.9-1.7,0.3-2.6c-0.7-0.9-1.7-1.1-2.7-0.4c-0.4,0.3-0.7,0.6-1.3,0.6c-7.4-0.6-12.3,2.7-14.6,9.7c-3.1-2.4-6.8-3.1-10.5-3.3
	c-3.9-0.2-7.4,1-10.6,3.2c-2.2-6.9-6.6-10-13.8-9.7c-0.7,0-1.3,0.1-1.9-0.5c-0.9-0.8-1.9-0.6-2.7,0.3c-0.7,0.9-0.6,1.8,0.2,2.6
	c0.9,0.8,1.8,0.8,2.7-0.1c0.4-0.4,0.6-0.7,1.2-0.8c6.2-1,11.8,3.1,12.9,9.3c-3.9,3.1-6.2,7.2-6.8,12.1C80.8,82,80.5,89.1,80,96.1z"
	/>
<path class="st3" d="M80,96.1c0.5-7,0.8-14.1,1.6-21.1c0.5-4.9,2.9-9,6.8-12.1c0.4,1.5,0.8,3,0.7,4.6c0,0.5,0,1,0.7,1
	c0.8,0,0.7-0.5,0.7-1c0-2-0.3-3.9-0.8-5.8c3.2-2.2,6.8-3.4,10.6-3.2c3.8,0.2,7.4,0.8,10.5,3.3c0,1.8-0.9,3.5-0.7,5.3
	c0.1,0.5-0.3,1.4,0.6,1.4c0.9,0.1,0.9-0.7,0.9-1.4c0.1-1.4,0-2.8,0.7-4.1c3.6,3,5.9,6.8,6.5,11.5c0.6,5,0.8,10,1.2,15
	c0.2,2.2,0.3,4.3,0.4,6.5c-4.1-0.2-8.2-0.3-12.3-0.6c-3.6-0.3-7.2-0.2-10.9-0.1c-4.2,0.1-8.4,0.4-12.6,0.5
	C83.2,95.9,81.6,96.4,80,96.1z M100.5,68.3c-5,0-8.9,4-8.9,8.9c0,4.8,4,8.9,8.8,8.9c4.9,0,9-3.9,9-8.9
	C109.4,72.3,105.4,68.3,100.5,68.3z"/>
<path class="st1" d="M89.8,61.7c0.5,1.9,0.8,3.8,0.8,5.8c0,0.5,0,1.1-0.7,1c-0.7,0-0.8-0.5-0.7-1c0-1.6-0.3-3.1-0.7-4.6
	c-1-6.3-6.7-10.4-12.9-9.3c-0.6,0.1-0.9,0.4-1.2,0.8c-0.9,0.9-1.8,0.9-2.7,0.1c-0.8-0.8-0.9-1.7-0.2-2.6c0.7-0.9,1.8-1.1,2.7-0.3
	c0.6,0.6,1.2,0.5,1.9,0.5C83.2,51.7,87.6,54.8,89.8,61.7z"/>
<path class="st1" d="M112.5,63.1c-0.7,1.3-0.5,2.7-0.7,4.1c-0.1,0.7,0,1.4-0.9,1.4c-0.9-0.1-0.6-0.9-0.6-1.4
	c-0.2-1.8,0.6-3.5,0.7-5.3c2.3-7,7.1-10.4,14.6-9.7c0.6,0.1,0.9-0.3,1.3-0.6c1-0.7,2-0.5,2.7,0.4c0.7,0.9,0.6,1.8-0.3,2.6
	c-0.9,0.8-1.9,0.8-2.7-0.1c-0.5-0.6-1.1-0.8-1.8-0.8c-6.2-0.3-10.6,2.8-12.1,8.7C112.5,62.5,112.5,62.8,112.5,63.1z"/>
<path class="st0" d="M100.5,68.3c5,0,8.9,4,8.9,9c0,4.9-4.1,8.9-9,8.9c-4.8,0-8.8-4.1-8.8-8.9C91.5,72.3,95.5,68.3,100.5,68.3z
	 M95.9,76.7c-0.4,2.6,1.6,4.9,4.3,5.2c2.4,0.2,5.1-2.4,5-4.8c-0.2-2.5-2.2-4.6-4.5-4.4c0.8,1.9,0.6,3-0.5,4
	C99.1,77.7,97.5,77.7,95.9,76.7z"/>
<path class="st1" d="M95.9,76.7c1.6,1,3.2,0.9,4.3,0c1.2-1,1.3-2.1,0.5-4c2.3-0.2,4.3,1.9,4.5,4.4c0.1,2.3-2.6,5-5,4.8
	C97.5,81.6,95.5,79.4,95.9,76.7z"/>
</svg>
