<?xml version="1.0" encoding="UTF-8"?>
<svg xmlns="http://www.w3.org/2000/svg" xmlns:xlink="http://www.w3.org/1999/xlink" width="200px" height="px" viewBox="0 0 199 196" version="1.1">
<defs>
<filter id="alpha" filterUnits="objectBoundingBox" x="0%" y="0%" width="100%" height="100%">
  <feColorMatrix type="matrix" in="SourceGraphic" values="0 0 0 0 1 0 0 0 0 1 0 0 0 0 1 0 0 0 1 0"/>
</filter>
<mask id="mask0">
  <g filter="url(#alpha)">
<rect x="0" y="0" width="199" height="196" style="fill:rgb(0%,0%,0%);fill-opacity:0.996078;stroke:none;"/>
  </g>
</mask>
<clipPath id="clip1">
  <rect x="0" y="0" width="199" height="196"/>
</clipPath>
<g id="surface5" clip-path="url(#clip1)">
<path style=" stroke:none;fill-rule:evenodd;fill:rgb(51.764706%,34.509804%,29.411765%);fill-opacity:1;" d="M 97.132812 -0.125 C 98.046875 -0.125 98.960938 -0.125 99.875 -0.125 C 100.007812 0.714844 100.175781 1.550781 100.371094 2.375 C 99.867188 2.335938 99.367188 2.375 98.875 2.5 C 97.398438 3.234375 95.984375 4.066406 94.636719 5 C 85.917969 12.738281 78.476562 21.53125 72.316406 31.375 C 66.757812 40.277344 62.183594 49.695312 58.601562 59.625 C 57.578125 62.730469 56.789062 65.898438 56.234375 69.125 C 56.234375 69.292969 56.152344 69.375 55.984375 69.375 C 46.125 75.277344 40.890625 84.027344 40.273438 95.625 C 40.34375 99.769531 41.132812 103.769531 42.644531 107.625 C 44.207031 110.511719 45.703125 113.425781 47.132812 116.375 C 48.261719 119.726562 48.507812 123.144531 47.878906 126.625 C 46.390625 130.773438 45.308594 135.023438 44.636719 139.375 C 44.441406 153.941406 49.886719 165.898438 60.972656 175.25 C 63.90625 177.648438 67.0625 179.691406 70.449219 181.375 C 70.796875 181.722656 71.210938 181.972656 71.695312 182.125 C 71.664062 182.308594 71.703125 182.476562 71.820312 182.625 C 76.632812 187.246094 81.828125 191.328125 87.40625 194.875 C 66.167969 192.5 48.253906 183.582031 33.664062 168.125 C 21.070312 153.65625 16.539062 136.945312 20.074219 118 C 8.472656 112.828125 1.738281 103.953125 -0.125 91.375 C -0.125 89.125 -0.125 86.875 -0.125 84.625 C 0.558594 78.128906 3.21875 72.589844 7.855469 68 C 14.078125 63.347656 20.730469 62.636719 27.804688 65.875 C 36.261719 43.191406 51.304688 26.484375 72.941406 15.75 C 75.0625 14.820312 77.226562 13.984375 79.425781 13.25 C 83.242188 5.957031 89.144531 1.5 97.132812 -0.125 Z M 97.132812 -0.125 "/>
</g>
<mask id="mask1">
  <g filter="url(#alpha)">
<rect x="0" y="0" width="199" height="196" style="fill:rgb(0%,0%,0%);fill-opacity:0.996078;stroke:none;"/>
  </g>
</mask>
<clipPath id="clip2">
  <rect x="0" y="0" width="199" height="196"/>
</clipPath>
<g id="surface8" clip-path="url(#clip2)">
<path style=" stroke:none;fill-rule:evenodd;fill:rgb(63.137255%,39.607843%,32.156863%);fill-opacity:1;" d="M 100.371094 2.375 C 100.917969 4.894531 101.542969 7.394531 102.242188 9.875 C 103.476562 10.054688 104.726562 10.222656 105.984375 10.375 C 110.199219 7.90625 114.394531 5.40625 118.578125 2.875 C 118.957031 6.277344 119.164062 9.695312 119.199219 13.125 C 141.296875 21.527344 157.421875 36.441406 167.578125 57.875 C 168.773438 60.519531 169.894531 63.1875 170.945312 65.875 C 179.433594 62.203125 186.871094 63.703125 193.265625 70.375 C 196.390625 74.640625 198.261719 79.390625 198.875 84.625 C 198.875 86.875 198.875 89.125 198.875 91.375 C 197.011719 103.953125 190.277344 112.828125 178.675781 118 C 182.210938 136.945312 177.679688 153.65625 165.085938 168.125 C 151.769531 182.363281 135.4375 191.070312 116.082031 194.25 C 106.546875 195.800781 96.988281 196.007812 87.40625 194.875 C 81.828125 191.328125 76.632812 187.246094 71.820312 182.625 C 71.703125 182.476562 71.664062 182.308594 71.695312 182.125 C 89.011719 190.285156 106.550781 190.746094 124.3125 183.5 C 136.898438 178.132812 145.917969 169.175781 151.371094 156.625 C 154.480469 148.945312 154.980469 141.113281 152.867188 133.125 C 152.199219 130.957031 151.535156 128.792969 150.871094 126.625 C 150.242188 123.144531 150.492188 119.726562 151.617188 116.375 C 153.046875 113.425781 154.542969 110.511719 156.109375 107.625 C 161 93.609375 157.882812 81.734375 146.757812 72 C 136.78125 64.714844 125.894531 62.964844 114.089844 66.75 C 111.140625 68.019531 108.230469 69.351562 105.359375 70.75 C 101.640625 71.789062 97.898438 71.875 94.136719 71 C 91.296875 69.953125 88.554688 68.703125 85.910156 67.25 C 75.722656 63.539062 65.832031 64.164062 56.234375 69.125 C 56.789062 65.898438 57.578125 62.730469 58.601562 59.625 C 62.183594 49.695312 66.757812 40.277344 72.316406 31.375 C 78.476562 21.53125 85.917969 12.738281 94.636719 5 C 95.984375 4.066406 97.398438 3.234375 98.875 2.5 C 99.367188 2.375 99.867188 2.335938 100.371094 2.375 Z M 100.371094 2.375 "/>
</g>
</defs>
<g id="surface1">
<use xlink:href="#surface5" mask="url(#mask0)"/>
<use xlink:href="#surface8" mask="url(#mask1)"/>
<path style=" stroke:none;fill-rule:evenodd;fill:rgb(95.686275%,85.882353%,70.196078%);fill-opacity:1;" d="M 71.695312 182.125 C 71.210938 181.972656 70.796875 181.722656 70.449219 181.375 C 62.421875 173.621094 56.8125 164.371094 53.617188 153.625 C 51.59375 146.007812 50.429688 138.257812 50.125 130.375 C 49.691406 109.8125 51.644531 89.476562 55.984375 69.375 C 56.152344 69.375 56.234375 69.292969 56.234375 69.125 C 65.832031 64.164062 75.722656 63.539062 85.910156 67.25 C 88.554688 68.703125 91.296875 69.953125 94.136719 71 C 97.898438 71.875 101.640625 71.789062 105.359375 70.75 C 108.230469 69.351562 111.140625 68.019531 114.089844 66.75 C 125.894531 62.964844 136.78125 64.714844 146.757812 72 C 157.882812 81.734375 161 93.609375 156.109375 107.625 C 154.542969 110.511719 153.046875 113.425781 151.617188 116.375 C 150.492188 119.726562 150.242188 123.144531 150.871094 126.625 C 151.535156 128.792969 152.199219 130.957031 152.867188 133.125 C 154.980469 141.113281 154.480469 148.945312 151.371094 156.625 C 145.917969 169.175781 136.898438 178.132812 124.3125 183.5 C 106.550781 190.746094 89.011719 190.285156 71.695312 182.125 Z M 71.695312 182.125 "/>
<path style=" stroke:none;fill-rule:evenodd;fill:rgb(73.333333%,64.313725%,54.117647%);fill-opacity:1;" d="M 55.984375 69.375 C 51.644531 89.476562 49.691406 109.8125 50.125 130.375 C 50.429688 138.257812 51.59375 146.007812 53.617188 153.625 C 56.8125 164.371094 62.421875 173.621094 70.449219 181.375 C 67.0625 179.691406 63.90625 177.648438 60.972656 175.25 C 49.886719 165.898438 44.441406 153.941406 44.636719 139.375 C 45.308594 135.023438 46.390625 130.773438 47.878906 126.625 C 48.507812 123.144531 48.261719 119.726562 47.132812 116.375 C 45.703125 113.425781 44.207031 110.511719 42.644531 107.625 C 41.132812 103.769531 40.34375 99.769531 40.273438 95.625 C 40.890625 84.027344 46.125 75.277344 55.984375 69.375 Z M 55.984375 69.375 "/>
<path style=" stroke:none;fill-rule:evenodd;fill:rgb(72.941176%,64.313725%,54.117647%);fill-opacity:1;" d="M 20.074219 70.125 C 22.324219 69.941406 24.484375 70.273438 26.558594 71.125 C 25.546875 74.644531 24.84375 78.226562 24.4375 81.875 C 24.183594 87.707031 23.933594 93.539062 23.691406 99.375 C 23.203125 103.566406 22.578125 107.734375 21.820312 111.875 C 15.445312 109.277344 10.917969 104.777344 8.230469 98.375 C 5.226562 90.601562 5.890625 83.1875 10.222656 76.125 C 12.722656 72.8125 16.007812 70.8125 20.074219 70.125 Z M 20.074219 70.125 "/>
<path style=" stroke:none;fill-rule:evenodd;fill:rgb(95.686275%,85.882353%,70.196078%);fill-opacity:1;" d="M 174.6875 70.125 C 184.007812 69.988281 189.699219 74.488281 191.769531 83.625 C 193.589844 94.847656 189.890625 103.722656 180.671875 110.25 C 179.589844 110.792969 178.507812 111.332031 177.429688 111.875 C 177.28125 111.824219 177.160156 111.738281 177.054688 111.625 C 176.3125 108.320312 175.730469 104.988281 175.308594 101.625 C 174.851562 95.046875 174.519531 88.464844 174.3125 81.875 C 173.925781 78.222656 173.21875 74.640625 172.191406 71.125 C 173.027344 70.734375 173.859375 70.402344 174.6875 70.125 Z M 174.6875 70.125 "/>
<path style=" stroke:none;fill-rule:evenodd;fill:rgb(30.980392%,24.705882%,24.705882%);fill-opacity:1;" d="M 71.195312 87.625 C 71.261719 88.648438 71.179688 89.648438 70.945312 90.625 C 68.347656 91.105469 67.476562 92.605469 68.328125 95.125 C 69.066406 96.058594 70.019531 96.558594 71.195312 96.625 C 70.894531 100.777344 72.804688 102.738281 76.933594 102.5 C 78.511719 102.082031 79.636719 101.121094 80.296875 99.625 C 80.414062 99.773438 80.457031 99.941406 80.421875 100.125 C 79.601562 105.53125 76.441406 108.28125 70.945312 108.375 C 66.96875 108.277344 64.101562 106.445312 62.34375 102.875 C 61.4375 99.421875 61.519531 96.007812 62.59375 92.625 C 64.578125 89.425781 67.445312 87.761719 71.195312 87.625 Z M 71.195312 87.625 "/>
<path style=" stroke:none;fill-rule:evenodd;fill:rgb(36.862745%,32.54902%,37.647059%);fill-opacity:1;" d="M 71.195312 87.625 C 76.28125 87.820312 79.398438 90.402344 80.546875 95.375 C 80.753906 97.003906 80.710938 98.585938 80.421875 100.125 C 80.457031 99.941406 80.414062 99.773438 80.296875 99.625 C 79.636719 101.121094 78.511719 102.082031 76.933594 102.5 C 72.804688 102.738281 70.894531 100.777344 71.195312 96.625 C 73.757812 96.328125 74.710938 94.914062 74.0625 92.375 C 73.375 91.175781 72.335938 90.59375 70.945312 90.625 C 71.179688 89.648438 71.261719 88.648438 71.195312 87.625 Z M 71.195312 87.625 "/>
<path style=" stroke:none;fill-rule:evenodd;fill:rgb(30.980392%,25.098039%,25.098039%);fill-opacity:1;" d="M 127.554688 87.625 C 127.621094 88.648438 127.535156 89.648438 127.304688 90.625 C 124.679688 91.226562 123.886719 92.808594 124.9375 95.375 C 125.636719 96.164062 126.507812 96.578125 127.554688 96.625 C 127.136719 99.660156 128.382812 101.617188 131.296875 102.5 C 133.945312 102.757812 135.855469 101.714844 137.03125 99.375 C 136.695312 103.917969 134.367188 106.875 130.046875 108.25 C 123.828125 109.199219 119.882812 106.65625 118.203125 100.625 C 117.109375 95.574219 118.648438 91.613281 122.816406 88.75 C 124.292969 87.941406 125.871094 87.566406 127.554688 87.625 Z M 127.554688 87.625 "/>
<path style=" stroke:none;fill-rule:evenodd;fill:rgb(36.470588%,32.54902%,37.647059%);fill-opacity:1;" d="M 127.554688 87.625 C 132.320312 87.742188 135.4375 90.078125 136.90625 94.625 C 137.03125 96.207031 137.070312 97.789062 137.03125 99.375 C 135.855469 101.714844 133.945312 102.757812 131.296875 102.5 C 128.382812 101.617188 127.136719 99.660156 127.554688 96.625 C 130.304688 96.25 131.257812 94.75 130.421875 92.125 C 129.671875 91.027344 128.632812 90.527344 127.304688 90.625 C 127.535156 89.648438 127.621094 88.648438 127.554688 87.625 Z M 127.554688 87.625 "/>
<path style=" stroke:none;fill-rule:evenodd;fill:rgb(98.431373%,98.039216%,98.431373%);fill-opacity:1;" d="M 70.945312 90.625 C 72.335938 90.59375 73.375 91.175781 74.0625 92.375 C 74.710938 94.914062 73.757812 96.328125 71.195312 96.625 C 70.019531 96.558594 69.066406 96.058594 68.328125 95.125 C 67.476562 92.605469 68.347656 91.105469 70.945312 90.625 Z M 70.945312 90.625 "/>
<path style=" stroke:none;fill-rule:evenodd;fill:rgb(98.431373%,98.431373%,98.431373%);fill-opacity:1;" d="M 127.304688 90.625 C 128.632812 90.527344 129.671875 91.027344 130.421875 92.125 C 131.257812 94.75 130.304688 96.25 127.554688 96.625 C 126.507812 96.578125 125.636719 96.164062 124.9375 95.375 C 123.886719 92.808594 124.679688 91.226562 127.304688 90.625 Z M 127.304688 90.625 "/>
<path style=" stroke:none;fill-rule:evenodd;fill:rgb(31.372549%,25.098039%,25.098039%);fill-opacity:1;" d="M 86.90625 122.375 C 87.660156 122.332031 88.40625 122.375 89.152344 122.5 C 91.320312 123.503906 93.480469 124.503906 95.632812 125.5 C 97.027344 126.683594 97.234375 128.058594 96.257812 129.625 C 95.320312 130.3125 94.28125 130.519531 93.140625 130.25 C 90.980469 129.25 88.820312 128.25 86.65625 127.25 C 84.957031 125.550781 85.039062 123.925781 86.90625 122.375 Z M 86.90625 122.375 "/>
<path style=" stroke:none;fill-rule:evenodd;fill:rgb(31.372549%,25.098039%,25.098039%);fill-opacity:1;" d="M 109.601562 122.375 C 112.523438 122.261719 113.644531 123.59375 112.964844 126.375 C 112.675781 126.667969 112.382812 126.957031 112.09375 127.25 C 109.933594 128.25 107.769531 129.25 105.609375 130.25 C 102.546875 130.652344 101.425781 129.363281 102.242188 126.375 C 102.535156 126.082031 102.824219 125.792969 103.117188 125.5 C 105.332031 124.515625 107.492188 123.472656 109.601562 122.375 Z M 109.601562 122.375 "/>
<path style=" stroke:none;fill-rule:evenodd;fill:rgb(30.588235%,24.705882%,24.705882%);fill-opacity:1;" d="M 117.332031 170.625 C 117.019531 168.4375 115.9375 166.726562 114.089844 165.5 C 111.335938 164.351562 108.46875 163.894531 105.484375 164.125 C 100.042969 164.246094 94.597656 164.289062 89.152344 164.25 C 85.570312 164.4375 83.035156 166.144531 81.546875 169.375 C 81.421875 169.785156 81.378906 170.199219 81.421875 170.625 C 73.957031 165.917969 69.550781 159.167969 68.203125 150.375 C 68.316406 149.050781 68.984375 148.089844 70.199219 147.5 C 89.566406 147.332031 108.933594 147.332031 128.300781 147.5 C 129.605469 147.96875 130.351562 148.886719 130.546875 150.25 C 129.238281 159.09375 124.832031 165.882812 117.332031 170.625 Z M 117.332031 170.625 "/>
<path style=" stroke:none;fill-rule:evenodd;fill:rgb(89.411765%,38.823529%,42.745098%);fill-opacity:1;" d="M 117.332031 170.625 C 108.464844 175.78125 99.074219 176.988281 89.152344 174.25 C 86.410156 173.351562 83.835938 172.140625 81.421875 170.625 C 81.378906 170.199219 81.421875 169.785156 81.546875 169.375 C 83.035156 166.144531 85.570312 164.4375 89.152344 164.25 C 94.597656 164.289062 100.042969 164.246094 105.484375 164.125 C 108.46875 163.894531 111.335938 164.351562 114.089844 165.5 C 115.9375 166.726562 117.019531 168.4375 117.332031 170.625 Z M 117.332031 170.625 "/>
</g>
</svg>
