<?xml version="1.0" encoding="utf-8"?>
<!-- Generator: Adobe Illustrator 26.4.1, SVG Export Plug-In . SVG Version: 6.00 Build 0)  -->
<svg version="1.1" id="Layer_1" xmlns="http://www.w3.org/2000/svg" xmlns:xlink="http://www.w3.org/1999/xlink" x="0px" y="0px"
	 viewBox="0 0 200 200" style="enable-background:new 0 0 200 200;" xml:space="preserve">
<style type="text/css">
	.st0{fill-rule:evenodd;clip-rule:evenodd;fill:#FBD52E;}
	.st1{fill:#7349D5;}
</style>
<g id="surface1">
	<path d="M200,100c0,55.3-44.8,100-100,100S0,155.3,0,100S44.7,0,100,0S200,44.7,200,100z"/>
</g>
<path class="st0" d="M263.4-7.6"/>
<g>
	<path class="st1" d="M155.1,89.3c0,12.5,0.1,25.1,0,37.6c0,3.4,2.4,6.3,6.3,6.2c1.5,0,3-0.3,4.5,0.3c3.7,1.5,4.7,5.8,2,8.7
		c-1.8,2-3.7,3.8-5.5,5.7c-4.4,4.4-8.9,8.9-13.3,13.3c-0.9,0.9-1.8,1.7-3,2.2c-2.5,1-4.5,0-6.1-1.6c-6.5-6.5-13-13-19.5-19.5
		c-1.7-1.7-1.9-3.8-0.9-5.9c0.9-1.9,2.5-3,4.6-3.1c1.6-0.1,3.1,0,4.7-0.3c2.6-0.4,4.3-3.3,4.3-5.7c0-4.7,0-9.5,0-14.2
		c0-13.2,0-26.4,0-39.6c0-4.4-2.2-6.5-6.6-6.5c-3.2,0-6.4,0-9.6,0c-2.2,0-4,0.9-5.1,2.8c-0.7,1.1-0.9,2.5-1,3.8c0,3.1,0,6.3,0,9.4
		c0,3.7-1.6,5.7-5.3,5.9c-3.9,0.2-7.9,0.4-11.8-0.1c-2.7-0.4-4.6-2.2-4.6-5.1c0-11.1,0-22.2,0-33.3c0-3.8,2.6-5.4,5.8-5.5
		c5.4-0.1,10.8,0,16.2,0c12.6,0,25.1,0,37.7,0c2.2,0,4.2,0.6,5.4,2.8c0.6,1.1,0.9,2.2,0.9,3.5C155.1,63.8,155.1,76.6,155.1,89.3
		C155.1,89.3,155.1,89.3,155.1,89.3z"/>
	<path class="st1" d="M44.8,110.3c0-12.5-0.1-25.1,0.1-37.6c0-3.6-3.1-6-6-5.9c-1.6,0.1-3.2,0.2-4.8-0.4c-3-1.2-4.6-5.2-2.2-8.2
		c1.8-2.3,4-4.2,6-6.2c4.4-4.4,8.8-8.8,13.1-13.1c1-1,2-1.8,3.4-2.3c2.1-0.7,3.9,0.1,5.4,1.4c2.5,2.3,4.8,4.7,7.2,7.1
		c3.9,3.9,7.8,7.7,11.6,11.6c1.2,1.2,2.5,2.5,2.5,4.5c0,3.2-2.4,5.5-5.5,5.6c-1.6,0-3.3-0.3-4.9,0.3c-2.4,0.9-3.7,2.5-3.8,5.1
		c-0.1,1.7,0,3.4,0,5.2c0,16.5,0,32.9,0,49.4c0,4.1,2.2,6.3,6.3,6.3c3.2,0,6.5,0,9.7,0c4,0,6.2-2.5,6.3-6.3
		c0.1-3.6-0.1-7.3,0.1-10.9c0.2-2.6,2.3-4.6,4.7-4.6c4-0.1,8-0.1,11.9,0c2.3,0,4.8,2.2,4.9,5c0.2,10.9,0,21.8,0.1,32.7
		c0,0.9,0,1.9-0.4,2.8c-1.1,2.6-3.3,3.3-5.8,3.3c-4.4,0.1-8.8,0-13.2,0c-13.4,0-26.8,0-40.2,0c-2.3,0-4.3-0.7-5.5-2.8
		c-0.6-1.1-0.8-2.4-0.8-3.7C44.8,135.8,44.8,123,44.8,110.3C44.8,110.3,44.8,110.3,44.8,110.3z"/>
</g>
</svg>
