<?xml version="1.0" encoding="UTF-8"?>
<svg xmlns="http://www.w3.org/2000/svg" xmlns:xlink="http://www.w3.org/1999/xlink" width="200px" height="px" viewBox="0 0 200 200" version="1.1">
<g id="surface1">
<path style=" stroke:none;fill-rule:nonzero;fill:rgb(38.039216%,36.078431%,80.392157%);fill-opacity:1;" d="M 73.859375 113.332031 L 73.859375 126.667969 C 73.859375 130.402344 70.925781 133.332031 67.191406 133.332031 L 53.859375 133.332031 C 50.128906 133.332031 47.191406 130.402344 47.191406 126.667969 L 47.191406 60 C 47.191406 56.265625 50.128906 53.332031 53.859375 53.332031 L 57.726562 53.332031 C 63.726562 53.332031 66.660156 46.132812 62.394531 42 L 38.660156 18 C 37.417969 16.722656 35.710938 16 33.925781 16 C 32.144531 16 30.433594 16.722656 29.191406 18 L 5.324219 42 C 1.058594 46.132812 4.128906 53.332031 9.992188 53.332031 L 13.859375 53.332031 C 17.59375 53.332031 20.527344 56.265625 20.527344 60 L 20.527344 153.332031 C 20.527344 157.066406 23.460938 160 27.191406 160 L 93.859375 160 C 97.59375 160 100.527344 157.066406 100.527344 153.332031 L 100.527344 113.332031 C 100.527344 109.597656 97.59375 106.667969 93.859375 106.667969 L 80.527344 106.667969 C 76.925781 106.667969 73.859375 109.597656 73.859375 113.332031 Z M 73.859375 113.332031 "/>
<path style=" stroke:none;fill-rule:nonzero;fill:rgb(38.039216%,36.078431%,80.392157%);fill-opacity:1;" d="M 160.527344 133.332031 C 156.792969 133.332031 153.859375 130.402344 153.859375 126.667969 L 153.859375 33.332031 C 153.859375 29.597656 150.925781 26.667969 147.191406 26.667969 L 80.527344 26.667969 C 76.792969 26.667969 73.859375 29.597656 73.859375 33.332031 L 73.859375 73.332031 C 73.859375 77.066406 76.792969 80 80.527344 80 L 93.859375 80 C 97.59375 80 100.527344 77.066406 100.527344 73.332031 L 100.527344 60 C 100.527344 56.265625 103.460938 53.332031 107.191406 53.332031 L 120.527344 53.332031 C 124.261719 53.332031 127.191406 56.265625 127.191406 60 L 127.191406 126.667969 C 127.191406 130.402344 124.261719 133.332031 120.527344 133.332031 L 116.660156 133.332031 C 110.660156 133.332031 107.726562 140.535156 111.992188 144.667969 L 135.859375 168.535156 C 138.527344 171.199219 142.660156 171.199219 145.324219 168.535156 L 169.191406 144.667969 C 173.324219 140.535156 170.394531 133.332031 164.527344 133.332031 Z M 160.527344 133.332031 "/>
</g>
</svg>
