<?xml version="1.0" encoding="utf-8"?>
<!-- Generator: Adobe Illustrator 26.4.1, SVG Export Plug-In . SVG Version: 6.00 Build 0)  -->
<svg version="1.1" id="Layer_1" xmlns="http://www.w3.org/2000/svg" xmlns:xlink="http://www.w3.org/1999/xlink" x="0px" y="0px"
	 viewBox="0 0 200 200" style="enable-background:new 0 0 200 200;" xml:space="preserve">
<style type="text/css">
	.st0{fill:#191818;}
	.st1{fill:#FFFFFF;}
</style>
<circle class="st0" cx="100" cy="98.7" r="95.9"/>
<path class="st1" d="M96.7,66.3c-5.8,2.7-16.3,1.7-20.8-3.3c-5.1-5.8-5.8-14.2-1.4-20.7C78.8,36,85,32.8,92.3,31.8
	c7.2-0.9,14.4-1.3,21.6-1.9c0.6-0.1,1.3-0.1,1.9-0.2c2.2-0.5,2.4-1.1,1.1-3c-0.1-0.2-0.2-0.4-0.3-0.6c0-0.1,0-0.1,0.1-0.5
	c2.9,1.2,5.7,2.5,7.5,5.2c1.4,2.1,0.6,4.5-2.3,5.4c-3.6,1.1-7.4,1.6-11.1,2.4c-5.9,1.4-11.9,2.7-17.7,4.4c-3.4,1-6.1,3.4-7.9,6.5
	c-4.2,7.2-0.8,14.6,7.3,16.2C93.6,65.9,94.9,66.1,96.7,66.3z M78.6,46.5c-0.6,0.9-1.3,1.5-1.2,1.9c0.1,0.6,0.8,1.2,1.4,1.4
	C79,50,80,49.1,80,48.6C79.9,48,79.3,47.5,78.6,46.5z"/>
<path class="st1" d="M139.7,58.6c3.2,7.4,1.2,15.1-4.8,20.1c-4.9,4.1-10.7,6.5-16.5,8.9c-12.2,4.8-23.7,10.9-33.9,19.1
	c-0.6,0.5-1.2,1-1.8,1.6c-0.5,0.5-1,0.9-1.7,1.5c-1.2-2.2-0.5-4.3-0.1-6.3c1-4.3,3.8-7.6,6.9-10.7c4.4-4.4,9.7-7.5,15.3-10
	c8.5-3.8,17-7.6,25.4-11.5C134,68.8,139.5,66.1,139.7,58.6z"/>
<path class="st1" d="M101,64.6c-3.2,1.3-6.7,0.6-8.4-1.5c-2-2.4-2.6-6.7-0.6-9.4c1.6-2.1,3.7-4.2,6-5.1c5.8-2.2,11.8-3.6,17.7-5.3
	c2.5-0.7,5.1-1.3,7.6-2.1c3.6-1.2,4.3-2.4,4-6.2c0-0.5,0-1,0-2.1c3.2,2.7,5.3,5.5,5.5,9.3c0.2,3.2-2.2,4.9-4.7,5.9
	c-4.6,1.7-9.3,3.1-13.9,4.7c-3.1,1.1-6.4,2.1-9.3,3.5C101,58.2,100.2,60.3,101,64.6z"/>
<path class="st1" d="M135.1,44.8c5.3,6.8,4.4,13-2.7,17.1c-3.9,2.3-8.1,4.1-12.3,5.6C110.5,70.7,102.2,76,95,83
	c-0.5,0.5-1.1,1-1.7,1.5c-0.2-0.1-0.4-0.3-0.5-0.4c0.3-0.6,0.6-1.2,1-1.8c2.3-4.3,4.7-8.4,6.7-12.8c1.4-2.9,3.2-5.4,6.1-6.7
	c5.7-2.4,11.5-4.4,17.3-6.6c1.2-0.4,2.4-0.7,3.6-1.2C132.1,53.2,136.1,51,135.1,44.8z"/>
<path class="st1" d="M93.3,119.7c1.9,0,3.5,0,5.4,0c0,4,0,8,0,12.4c3.3-2.6,6.7-3.8,10.3-2.3c2,0.8,4.1,2.3,5.4,4
	c3.4,4.6,2.5,12.7-1.5,16.3c-3.9,3.5-9.4,3.5-14.1-0.3c-0.2,0.8-0.4,1.5-0.7,2.3c-1.5,0-3.1,0-4.8,0
	C93.3,141.3,93.3,130.6,93.3,119.7z M104.5,147.4c3.6,0,6.1-2.8,6-6.6c-0.1-3.7-2.5-6.3-6-6.3c-3.6,0-6.1,2.7-6.1,6.5
	C98.4,144.8,100.9,147.4,104.5,147.4z"/>
<path class="st1" d="M64.3,152c-8,0-15.8,0-24.1,0c0.5-1.5,0.7-2.8,1.3-3.8c4-6.7,8.2-13.2,12.3-19.9c0.4-0.7,0.8-1.5,1.4-2.5
	c-4.2,0-8.1-0.1-11.9,0c-2.2,0.1-2.2-1.1-2.2-2.6c0-1.6-0.3-3.1,2.3-3.1c6,0.2,11.9,0,17.9,0.1c1,0,2,0.4,3.1,0.7
	c-0.3,1.1-0.4,2.3-1,3.3c-3.9,6.4-7.8,12.7-11.8,19c-0.6,0.9-1.1,1.9-1.9,3.2c5.1,0,9.8,0,14.7,0C64.3,148.5,64.3,150.2,64.3,152z"
	/>
<path class="st1" d="M160.2,152c-1.7,0-3.3,0-4.9,0c-0.1-0.8-0.2-1.5-0.2-1.6c-2.6,0.7-5.2,1.9-7.9,2.1c-3.8,0.3-6.8-1.7-8.5-5.1
	c-2.1-4.3-2.2-8.8,0.1-13c3.1-5.7,10.1-6.7,16.1-2.1c0.1-0.8,0.2-1.5,0.4-2.4c1.6,0,3.2,0,4.9,0C160.2,137.1,160.2,144.5,160.2,152z
	 M155.1,141c0-3.9-2.4-6.6-6-6.6c-3.6,0-6,2.5-6,6.3c-0.1,4,2.2,6.6,5.8,6.7C152.5,147.4,155,144.9,155.1,141z"/>
<path class="st1" d="M88.9,142.6c-5.2,0-10.4,0-15.5,0c0.4,4.4,4.9,6.4,8.5,4c2.9-2,3.1-2,6.3-0.1c-1.1,4.5-7.6,7.4-13.5,5.6
	c-5.7-1.7-8.8-7.6-7.4-14.2c1.2-5.9,6.6-9.6,12.6-8.7C86,130.2,89.6,135.3,88.9,142.6z M82.7,138.2c-0.7-2.8-1.9-3.9-4.5-3.9
	c-2.5,0-4,1.2-4.6,3.9C76.6,138.2,79.6,138.2,82.7,138.2z"/>
<path class="st1" d="M67.6,53.2C63.8,67.5,69,73.3,83.6,71.5c-4.6,6.9-13.5,8.6-19.7,3.8c-3.3-2.6-5-7.3-3.4-11.1
	c1.8-4,4.2-7.7,6.3-11.6C67.1,52.9,67.4,53.1,67.6,53.2z"/>
<path class="st1" d="M135.1,134.9c-1,0-1.7,0-2.4,0c-3.8,0-6.1,2.2-6.1,6c-0.1,3.5-0.1,7-0.1,10.5c0,0.1-0.1,0.3-0.2,0.6
	c-1.6,0-3.3,0-5.2,0c0-7.4,0-14.8,0-22.2c1.7,0,3.3,0,4.9,0c0.2,0.8,0.4,1.6,0.5,2.1c1.8-0.8,3.5-1.9,5.4-2.4
	c2.9-0.8,3.3-0.3,3.3,2.7C135.1,133.1,135.1,133.9,135.1,134.9z"/>
<path class="st1" d="M109.9,23.2c-3.6,0-7.3-0.1-10.9,0c-3.6,0.2-6.9,1.4-9.5,3.8c-1.2,1.1-2.4,1.2-3.6,0.2
	c-1.8-1.4-3.5-2.8-5.2-4.6C90.5,18.2,100.2,19.6,109.9,23.2z"/>
</svg>
