<svg id="svg" version="1.1" xmlns="http://www.w3.org/2000/svg" xmlns:xlink="http://www.w3.org/1999/xlink" width="400" height="400" viewBox="0, 0, 400,400"><g id="svgg"><path id="path0" d="M181.400 61.072 C 173.232 61.324,161.151 64.002,159.025 66.032 C 157.582 67.410,160.679 70.715,168.200 75.828 C 172.627 78.837,173.334 78.782,177.778 75.084 C 185.738 68.459,197.260 66.319,216.700 67.854 C 220.170 68.128,221.145 67.635,218.900 66.743 C 217.319 66.114,211.281 64.374,209.400 64.005 C 208.520 63.832,206.000 63.330,203.800 62.889 C 196.866 61.501,188.774 60.844,181.400 61.072 M232.800 73.562 C 232.800 73.761,233.431 74.680,234.203 75.603 C 238.632 80.905,236.081 81.880,214.800 83.023 C 183.073 84.727,172.386 86.850,160.463 93.815 C 151.060 99.308,142.624 109.856,140.481 118.800 C 139.357 123.490,139.200 124.578,139.200 127.677 C 139.203 146.127,151.566 159.298,170.721 161.259 C 175.454 161.743,185.194 161.239,187.415 160.394 C 187.985 160.177,188.884 160.000,189.412 160.000 C 190.493 160.000,191.617 158.492,190.717 158.248 C 190.433 158.171,188.040 157.743,185.400 157.297 C 174.872 155.518,168.228 151.701,165.713 145.986 C 163.842 141.735,163.799 141.507,163.847 136.000 C 163.938 125.722,169.484 116.610,178.594 111.772 C 179.037 111.537,180.220 110.885,181.223 110.323 C 183.232 109.197,189.913 106.449,191.800 105.971 C 192.460 105.804,194.260 105.322,195.800 104.899 C 198.868 104.056,203.034 103.073,206.300 102.420 C 211.419 101.397,212.313 101.237,214.200 101.008 C 215.300 100.875,217.100 100.606,218.200 100.409 C 220.506 99.998,223.736 99.473,229.400 98.587 C 244.790 96.181,250.000 93.391,250.000 87.555 C 250.000 84.681,245.112 78.000,243.010 78.000 C 242.865 78.000,242.174 77.578,241.473 77.063 C 238.342 74.757,232.800 72.521,232.800 73.562 M255.910 89.423 C 255.787 89.546,255.765 91.841,255.862 94.523 C 256.152 102.598,253.809 104.475,238.600 108.354 C 237.720 108.578,236.010 109.022,234.800 109.340 C 233.590 109.657,230.530 110.394,228.000 110.976 C 211.403 114.797,203.780 116.825,200.200 118.374 C 184.993 124.951,179.809 130.608,179.833 140.600 C 179.859 151.029,185.340 156.344,195.642 155.931 C 200.420 155.739,201.265 155.240,200.482 153.076 C 198.912 148.735,200.398 143.874,204.392 140.283 C 208.106 136.944,219.390 132.113,228.400 130.003 C 229.640 129.713,231.030 129.335,237.400 127.554 C 257.606 121.904,266.229 116.757,267.345 109.679 C 267.635 107.841,266.955 102.943,266.359 102.574 C 266.161 102.453,266.000 102.032,266.000 101.640 C 266.000 100.971,262.324 94.486,261.679 94.016 C 261.516 93.897,260.509 92.765,259.442 91.500 C 257.705 89.440,256.564 88.769,255.910 89.423 M272.000 117.155 C 272.000 128.009,267.259 131.580,243.000 138.998 C 241.020 139.603,239.040 140.245,238.600 140.424 C 238.160 140.603,235.550 141.495,232.800 142.407 C 230.050 143.318,227.260 144.293,226.600 144.572 C 225.940 144.851,224.770 145.308,224.000 145.587 C 220.404 146.889,214.502 149.717,211.200 151.719 C 205.494 155.180,202.448 158.712,200.028 164.673 C 199.329 166.393,198.601 168.160,198.410 168.600 C 198.219 169.040,197.742 170.300,197.351 171.400 C 195.788 175.794,191.062 183.993,185.710 191.597 C 183.430 194.835,183.290 195.244,184.196 195.996 C 184.693 196.409,185.273 196.032,187.696 193.722 C 196.142 185.668,206.465 177.363,212.457 173.800 C 219.422 169.658,230.825 164.000,232.206 164.000 C 232.507 164.000,232.855 163.834,232.981 163.631 C 233.106 163.428,233.786 163.135,234.491 162.980 C 235.197 162.825,236.050 162.549,236.387 162.367 C 236.724 162.184,238.440 161.566,240.200 160.993 C 241.960 160.419,243.940 159.718,244.600 159.435 C 245.260 159.152,246.430 158.693,247.200 158.416 C 277.272 147.585,284.841 135.737,274.410 115.826 C 272.285 111.772,272.000 111.929,272.000 117.155 M155.802 118.900 C 157.300 120.189,157.298 122.213,155.798 123.504 C 152.808 126.075,148.989 121.775,151.782 118.982 C 153.005 117.759,154.441 117.729,155.802 118.900 M128.485 132.500 C 119.699 144.479,115.228 153.699,115.210 159.880 C 115.179 170.042,120.437 177.100,131.400 181.613 C 138.320 184.462,146.320 183.154,154.200 177.886 C 163.421 171.720,167.204 167.862,162.646 169.272 C 147.809 173.862,133.726 167.799,129.022 154.795 C 127.398 150.304,127.482 142.882,129.228 136.600 C 130.937 130.454,130.948 130.400,130.459 130.400 C 130.221 130.400,129.332 131.345,128.485 132.500 M281.757 142.317 C 281.517 142.472,281.205 143.873,281.064 145.430 C 280.101 156.047,273.892 161.995,255.000 170.399 C 253.900 170.888,251.740 171.873,250.200 172.588 C 248.660 173.302,246.770 174.167,246.000 174.509 C 245.230 174.851,243.520 175.610,242.200 176.195 C 238.340 177.907,237.548 178.263,234.690 179.565 C 233.199 180.244,231.905 180.800,231.814 180.800 C 231.722 180.800,230.096 181.520,228.200 182.400 C 226.304 183.280,224.686 184.000,224.606 184.000 C 224.525 184.000,223.140 184.607,221.529 185.349 C 219.918 186.091,217.700 187.104,216.600 187.602 C 215.500 188.099,213.520 188.998,212.200 189.600 C 210.880 190.202,208.900 191.098,207.800 191.592 C 195.440 197.140,186.306 202.368,180.600 207.159 C 164.709 220.502,158.373 230.219,157.724 242.241 C 157.356 249.051,158.149 250.351,160.927 247.488 C 164.521 243.783,172.600 237.447,180.008 232.525 C 186.360 228.304,189.952 226.000,190.179 226.000 C 190.292 226.000,191.333 225.393,192.492 224.652 C 197.885 221.203,219.060 210.000,220.185 210.000 C 220.291 210.000,221.418 209.528,222.689 208.952 C 226.364 207.285,227.505 206.800,227.749 206.800 C 227.874 206.800,229.017 206.340,230.288 205.777 C 231.560 205.215,232.960 204.603,233.400 204.418 C 233.840 204.233,234.857 203.793,235.660 203.441 C 236.464 203.088,237.223 202.800,237.349 202.800 C 237.560 202.800,239.707 201.871,243.917 199.960 C 244.861 199.531,246.391 198.884,247.317 198.522 C 262.659 192.523,276.278 182.160,281.120 172.800 C 282.547 170.040,283.121 168.437,284.391 163.666 C 285.889 158.036,283.787 140.998,281.757 142.317 M184.588 270.489 C 184.481 270.770,184.440 286.030,184.497 304.400 L 184.600 337.800 189.708 337.912 C 195.398 338.037,195.087 338.197,195.342 335.000 C 195.541 332.504,196.166 332.314,197.952 334.208 C 202.663 339.203,212.814 340.367,220.600 336.806 C 230.806 332.138,235.487 318.025,231.282 304.600 C 227.014 290.972,208.928 285.496,198.282 294.608 C 195.989 296.571,196.023 296.742,195.906 282.786 L 195.800 270.200 190.292 270.089 C 186.106 270.004,184.737 270.100,184.588 270.489 M76.226 271.811 C 75.306 272.269,74.769 281.132,75.585 282.400 C 75.914 282.912,78.054 283.012,90.233 283.081 C 98.077 283.126,104.574 283.240,104.669 283.336 C 104.764 283.431,104.053 284.745,103.087 286.255 C 102.122 287.765,97.319 295.480,92.415 303.400 C 87.511 311.320,81.352 321.261,78.729 325.490 L 73.960 333.181 74.080 335.490 L 74.200 337.800 99.053 337.903 L 123.905 338.006 124.147 337.103 C 124.509 335.751,124.438 327.878,124.058 327.280 C 123.566 326.505,122.631 326.458,107.300 326.428 C 98.694 326.411,93.200 326.252,93.200 326.020 C 93.200 325.731,98.539 316.882,102.383 310.800 C 102.592 310.470,103.695 308.670,104.836 306.800 C 105.976 304.930,110.570 297.528,115.045 290.351 C 119.520 283.174,123.375 276.792,123.612 276.169 C 124.196 274.634,123.733 272.096,122.816 271.805 C 121.452 271.372,77.096 271.378,76.226 271.811 M148.000 290.662 C 124.212 295.310,123.177 332.116,146.663 338.233 C 156.875 340.893,169.193 336.284,173.379 328.238 C 174.457 326.166,174.049 325.723,169.604 324.139 C 164.810 322.430,164.614 322.444,162.702 324.617 C 156.848 331.267,145.112 328.858,142.780 320.528 C 142.095 318.082,141.201 318.220,159.133 318.000 L 175.400 317.800 175.338 313.779 C 175.087 297.378,163.552 287.624,148.000 290.662 M293.600 290.638 C 292.170 290.945,290.550 291.403,290.000 291.654 C 289.450 291.906,288.377 292.402,287.616 292.756 C 277.521 297.454,273.300 315.780,279.546 327.798 C 285.633 339.510,301.734 342.718,311.509 334.167 C 313.835 332.133,313.916 332.178,314.089 335.600 L 314.200 337.800 319.453 337.911 L 324.707 338.023 324.970 336.618 C 325.280 334.969,325.227 293.189,324.914 291.992 C 324.711 291.218,324.443 291.183,319.450 291.289 L 314.200 291.400 314.089 293.600 C 313.917 297.020,313.824 297.076,311.621 295.095 C 306.820 290.778,300.374 289.184,293.600 290.638 M263.999 290.918 C 260.992 291.598,258.550 292.925,256.338 295.080 C 254.374 296.995,253.603 297.050,253.596 295.276 C 253.593 294.684,253.480 293.525,253.343 292.700 L 253.095 291.200 247.990 291.200 C 243.704 291.200,242.847 291.301,242.643 291.833 C 242.509 292.181,242.400 302.617,242.400 315.025 L 242.400 337.585 243.300 337.808 C 243.795 337.931,246.360 337.980,249.000 337.916 L 253.800 337.800 254.020 324.600 C 254.251 310.752,254.335 310.090,256.229 307.227 C 258.601 303.644,262.305 302.014,268.100 302.006 L 272.000 302.000 272.000 296.624 C 272.000 293.132,271.845 291.152,271.558 290.974 C 270.719 290.455,266.192 290.421,263.999 290.918 M157.403 301.546 C 159.888 302.675,162.800 306.507,162.800 308.649 C 162.800 309.475,143.277 309.465,142.960 308.639 C 142.392 307.159,146.080 302.611,148.800 301.436 C 150.791 300.576,155.398 300.635,157.403 301.546 M213.430 302.056 C 218.863 304.610,221.870 311.498,220.346 317.894 C 216.670 333.320,195.200 330.532,195.200 314.629 C 195.200 304.615,204.795 297.997,213.430 302.056 M305.762 301.602 C 305.981 301.821,306.413 302.000,306.722 302.000 C 308.531 302.000,312.214 306.386,313.334 309.875 C 316.992 321.271,306.723 331.711,296.265 327.228 C 285.816 322.749,286.525 304.763,297.280 301.463 C 299.562 300.763,305.012 300.852,305.762 301.602 " stroke="none" fill="#f8f8f8" fill-rule="evenodd"></path><path id="path1" d="M0.000 200.000 L 0.000 400.000 200.000 400.000 L 400.000 400.000 400.000 200.000 L 400.000 0.000 200.000 0.000 L 0.000 0.000 0.000 200.000 M195.800 61.652 C 198.000 61.892,201.600 62.449,203.800 62.889 C 206.000 63.330,208.520 63.832,209.400 64.005 C 211.281 64.374,217.319 66.114,218.900 66.743 C 221.145 67.635,220.170 68.128,216.700 67.854 C 197.260 66.319,185.738 68.459,177.778 75.084 C 172.745 79.272,171.218 78.900,162.200 71.290 C 157.381 67.224,157.387 66.108,162.234 64.470 C 171.844 61.221,183.144 60.273,195.800 61.652 M237.268 74.663 C 238.881 75.467,240.773 76.547,241.473 77.063 C 242.174 77.578,242.865 78.000,243.010 78.000 C 245.112 78.000,250.000 84.681,250.000 87.555 C 250.000 93.391,244.790 96.181,229.400 98.587 C 223.736 99.473,220.506 99.998,218.200 100.409 C 217.100 100.606,215.300 100.875,214.200 101.008 C 212.313 101.237,211.419 101.397,206.300 102.420 C 203.034 103.073,198.868 104.056,195.800 104.899 C 194.260 105.322,192.460 105.804,191.800 105.971 C 189.913 106.449,183.232 109.197,181.223 110.323 C 180.220 110.885,179.037 111.537,178.594 111.772 C 169.484 116.610,163.938 125.722,163.847 136.000 C 163.799 141.507,163.842 141.735,165.713 145.986 C 168.228 151.701,174.872 155.518,185.400 157.297 C 188.040 157.743,190.433 158.171,190.717 158.248 C 191.617 158.492,190.493 160.000,189.412 160.000 C 188.884 160.000,187.985 160.177,187.415 160.394 C 186.845 160.611,183.873 160.999,180.810 161.255 C 164.713 162.604,152.972 158.165,145.748 148.000 C 140.499 140.614,137.937 129.936,139.625 122.477 C 140.852 117.053,140.908 116.873,142.607 113.000 C 145.510 106.378,153.318 97.989,160.463 93.815 C 172.386 86.850,183.073 84.727,214.800 83.023 C 236.081 81.880,238.632 80.905,234.203 75.603 C 231.775 72.697,232.737 72.402,237.268 74.663 M259.442 91.500 C 260.509 92.765,261.516 93.897,261.679 94.016 C 262.324 94.486,266.000 100.971,266.000 101.640 C 266.000 102.032,266.161 102.453,266.359 102.574 C 266.955 102.943,267.635 107.841,267.345 109.679 C 266.229 116.757,257.606 121.904,237.400 127.554 C 231.030 129.335,229.640 129.713,228.400 130.003 C 219.390 132.113,208.106 136.944,204.392 140.283 C 200.398 143.874,198.912 148.735,200.482 153.076 C 201.265 155.240,200.420 155.739,195.642 155.931 C 185.340 156.344,179.859 151.029,179.833 140.600 C 179.809 130.608,184.993 124.951,200.200 118.374 C 203.780 116.825,211.403 114.797,228.000 110.976 C 230.530 110.394,233.590 109.657,234.800 109.340 C 236.010 109.022,237.720 108.578,238.600 108.354 C 253.809 104.475,256.152 102.598,255.862 94.523 C 255.765 91.841,255.787 89.546,255.910 89.423 C 256.564 88.769,257.705 89.440,259.442 91.500 M274.410 115.826 C 278.966 124.523,280.191 132.683,277.739 138.002 C 274.465 145.103,263.134 152.677,247.200 158.416 C 246.430 158.693,245.260 159.152,244.600 159.435 C 243.940 159.718,241.960 160.419,240.200 160.993 C 238.440 161.566,236.724 162.184,236.387 162.367 C 236.050 162.549,235.197 162.825,234.491 162.980 C 233.786 163.135,233.106 163.428,232.981 163.631 C 232.855 163.834,232.507 164.000,232.206 164.000 C 230.825 164.000,219.422 169.658,212.457 173.800 C 206.465 177.363,196.142 185.668,187.696 193.722 C 185.273 196.032,184.693 196.409,184.196 195.996 C 183.290 195.244,183.430 194.835,185.710 191.597 C 191.062 183.993,195.788 175.794,197.351 171.400 C 197.742 170.300,198.219 169.040,198.410 168.600 C 198.601 168.160,199.329 166.393,200.028 164.673 C 202.448 158.712,205.494 155.180,211.200 151.719 C 214.502 149.717,220.404 146.889,224.000 145.587 C 224.770 145.308,225.940 144.851,226.600 144.572 C 227.260 144.293,230.050 143.318,232.800 142.407 C 235.550 141.495,238.160 140.603,238.600 140.424 C 239.040 140.245,241.020 139.603,243.000 138.998 C 267.259 131.580,272.000 128.009,272.000 117.155 C 272.000 111.929,272.285 111.772,274.410 115.826 M151.782 118.982 C 148.989 121.775,152.808 126.075,155.798 123.504 C 157.298 122.213,157.300 120.189,155.802 118.900 C 154.441 117.729,153.005 117.759,151.782 118.982 M130.672 131.300 C 130.551 131.795,129.901 134.180,129.228 136.600 C 127.482 142.882,127.398 150.304,129.022 154.795 C 133.726 167.799,147.809 173.862,162.646 169.272 C 167.204 167.862,163.421 171.720,154.200 177.886 C 146.320 183.154,138.320 184.462,131.400 181.613 C 116.099 175.313,111.231 162.974,118.421 148.710 C 123.130 139.367,131.671 127.229,130.672 131.300 M283.312 144.800 C 284.877 150.401,285.416 159.816,284.391 163.666 C 282.172 172.002,280.376 175.377,275.200 180.927 C 269.877 186.635,257.105 194.695,247.317 198.522 C 246.391 198.884,244.861 199.531,243.917 199.960 C 239.707 201.871,237.560 202.800,237.349 202.800 C 237.223 202.800,236.464 203.088,235.660 203.441 C 234.857 203.793,233.840 204.233,233.400 204.418 C 232.960 204.603,231.560 205.215,230.288 205.777 C 229.017 206.340,227.874 206.800,227.749 206.800 C 227.505 206.800,226.364 207.285,222.689 208.952 C 221.418 209.528,220.291 210.000,220.185 210.000 C 219.060 210.000,197.885 221.203,192.492 224.652 C 191.333 225.393,190.292 226.000,190.179 226.000 C 189.952 226.000,186.360 228.304,180.008 232.525 C 172.600 237.447,164.521 243.783,160.927 247.488 C 158.149 250.351,157.356 249.051,157.724 242.241 C 158.373 230.219,164.709 220.502,180.600 207.159 C 186.306 202.368,195.440 197.140,207.800 191.592 C 208.900 191.098,210.880 190.202,212.200 189.600 C 213.520 188.998,215.500 188.099,216.600 187.602 C 217.700 187.104,219.918 186.091,221.529 185.349 C 223.140 184.607,224.525 184.000,224.606 184.000 C 224.686 184.000,226.304 183.280,228.200 182.400 C 230.096 181.520,231.722 180.800,231.814 180.800 C 231.905 180.800,233.199 180.244,234.690 179.565 C 237.548 178.263,238.340 177.907,242.200 176.195 C 243.520 175.610,245.230 174.851,246.000 174.509 C 246.770 174.167,248.660 173.302,250.200 172.588 C 251.740 171.873,253.900 170.888,255.000 170.399 C 273.892 161.995,280.101 156.047,281.064 145.430 C 281.445 141.236,282.253 141.010,283.312 144.800 M195.906 282.786 C 196.023 296.742,195.989 296.571,198.282 294.608 C 208.928 285.496,227.014 290.972,231.282 304.600 C 235.487 318.025,230.806 332.138,220.600 336.806 C 212.814 340.367,202.663 339.203,197.952 334.208 C 196.166 332.314,195.541 332.504,195.342 335.000 C 195.087 338.197,195.398 338.037,189.708 337.912 L 184.600 337.800 184.497 304.400 C 184.440 286.030,184.481 270.770,184.588 270.489 C 184.737 270.100,186.106 270.004,190.292 270.089 L 195.800 270.200 195.906 282.786 M122.816 271.805 C 123.733 272.096,124.196 274.634,123.612 276.169 C 123.375 276.792,119.520 283.174,115.045 290.351 C 110.570 297.528,105.976 304.930,104.836 306.800 C 103.695 308.670,102.592 310.470,102.383 310.800 C 98.539 316.882,93.200 325.731,93.200 326.020 C 93.200 326.252,98.694 326.411,107.300 326.428 C 122.631 326.458,123.566 326.505,124.058 327.280 C 124.438 327.878,124.509 335.751,124.147 337.103 L 123.905 338.006 99.053 337.903 L 74.200 337.800 74.080 335.490 L 73.960 333.181 78.729 325.490 C 81.352 321.261,87.511 311.320,92.415 303.400 C 97.319 295.480,102.122 287.765,103.087 286.255 C 104.053 284.745,104.764 283.431,104.669 283.336 C 104.574 283.240,98.077 283.126,90.233 283.081 C 78.054 283.012,75.914 282.912,75.585 282.400 C 74.769 281.132,75.306 272.269,76.226 271.811 C 77.096 271.378,121.452 271.372,122.816 271.805 M158.813 290.742 C 169.046 293.170,175.153 301.684,175.338 313.779 L 175.400 317.800 159.133 318.000 C 141.201 318.220,142.095 318.082,142.780 320.528 C 145.112 328.858,156.848 331.267,162.702 324.617 C 164.614 322.444,164.810 322.430,169.604 324.139 C 174.049 325.723,174.457 326.166,173.379 328.238 C 167.422 339.689,147.999 342.588,137.523 333.590 C 127.262 324.775,127.137 304.923,137.286 295.799 C 142.555 291.062,151.401 288.984,158.813 290.742 M302.942 290.613 C 306.310 291.453,309.272 292.983,311.621 295.095 C 313.824 297.076,313.917 297.020,314.089 293.600 L 314.200 291.400 319.450 291.289 C 324.443 291.183,324.711 291.218,324.914 291.992 C 325.227 293.189,325.280 334.969,324.970 336.618 L 324.707 338.023 319.453 337.911 L 314.200 337.800 314.089 335.600 C 313.916 332.178,313.835 332.133,311.509 334.167 C 301.734 342.718,285.633 339.510,279.546 327.798 C 273.300 315.780,277.521 297.454,287.616 292.756 C 288.377 292.402,289.450 291.906,290.000 291.654 C 293.290 290.148,299.179 289.674,302.942 290.613 M271.558 290.974 C 271.845 291.152,272.000 293.132,272.000 296.624 L 272.000 302.000 268.100 302.006 C 262.305 302.014,258.601 303.644,256.229 307.227 C 254.335 310.090,254.251 310.752,254.020 324.600 L 253.800 337.800 249.000 337.916 C 246.360 337.980,243.795 337.931,243.300 337.808 L 242.400 337.585 242.400 315.025 C 242.400 302.617,242.509 292.181,242.643 291.833 C 242.847 291.301,243.704 291.200,247.990 291.200 L 253.095 291.200 253.343 292.700 C 253.480 293.525,253.593 294.684,253.596 295.276 C 253.603 297.050,254.374 296.995,256.338 295.080 C 260.131 291.385,268.548 289.114,271.558 290.974 M148.800 301.436 C 146.080 302.611,142.392 307.159,142.960 308.639 C 143.277 309.465,162.800 309.475,162.800 308.649 C 162.800 303.295,154.453 298.994,148.800 301.436 M205.200 301.150 C 195.472 303.257,191.857 316.622,198.938 324.303 C 204.592 330.437,215.551 328.919,219.076 321.513 C 224.288 310.564,216.244 298.759,205.200 301.150 M297.280 301.463 C 286.525 304.763,285.816 322.749,296.265 327.228 C 306.723 331.711,316.992 321.271,313.334 309.875 C 312.214 306.386,308.531 302.000,306.722 302.000 C 306.413 302.000,305.981 301.821,305.762 301.602 C 305.012 300.852,299.562 300.763,297.280 301.463 " stroke="none" fill="#1b1b1b" fill-rule="evenodd"></path></g></svg>