<?xml version="1.0" encoding="utf-8"?>
<!-- Generator: Adobe Illustrator 26.4.1, SVG Export Plug-In . SVG Version: 6.00 Build 0)  -->
<svg version="1.1" id="Layer_1" xmlns="http://www.w3.org/2000/svg" xmlns:xlink="http://www.w3.org/1999/xlink" x="0px" y="0px"
	 viewBox="0 0 200 200" style="enable-background:new 0 0 200 200;" xml:space="preserve">
<style type="text/css">
	.st0{fill-rule:evenodd;clip-rule:evenodd;fill:#FBD52E;}
	.st1{fill:#44998E;}
	.st2{fill:#FFFFFF;}
</style>
<path class="st0" d="M99,100.7"/>
<g>
	<g id="surface1_00000074437268022976588240000015529609924507856316_">
		<g>
			<path class="st1" d="M199.5,100c0,54.9-44.6,99.6-99.6,99.6S0.5,154.9,0.5,100S45.1,0.4,100,0.4S199.5,45.1,199.5,100z"/>
		</g>
	</g>
</g>
<g>
	<path class="st2" d="M138.4,172.7c-4.1,0-7.4-3.3-7.4-7.4v-30.4c-8.1,7.5-18.9,12-30.8,12c-25.2,0-45.7-20.6-45.7-45.9V36.2
		c0-4.1,3.3-7.4,7.4-7.4s7.4,3.3,7.4,7.4v31c8.1-7.5,18.9-12,30.8-12c25.2,0,45.7,20.6,45.7,45.9v64.2
		C145.8,169.3,142.5,172.7,138.4,172.7z M69.3,101c0,17.1,13.8,31,30.8,31s30.8-13.9,30.8-31c0-17.1-13.8-31-30.8-31
		S69.3,84,69.3,101z"/>
</g>
<g>
	<path class="st2" d="M98.2,172.7h-3.7c-36.9,0-66.9-30-66.9-66.8V54.4c0-4.1,3.3-7.4,7.4-7.4s7.4,3.3,7.4,7.4v51.4
		c0,28.7,23.3,52,52,52h3.7c4.1,0,7.4,3.3,7.4,7.4C105.7,169.3,102.3,172.7,98.2,172.7z"/>
</g>
<g>
	<path class="st2" d="M165.1,151.6c-4.1,0-7.4-3.3-7.4-7.4V94.7c0-28.7-23.3-52-52-52h-3.7c-4.1,0-7.4-3.3-7.4-7.4s3.3-7.4,7.4-7.4
		h3.7c36.9,0,66.8,30,66.8,66.9v49.5C172.6,148.3,169.2,151.6,165.1,151.6z"/>
</g>
</svg>
