<?xml version="1.0" encoding="utf-8"?>
<!-- Generator: Adobe Illustrator 26.4.1, SVG Export Plug-In . SVG Version: 6.00 Build 0)  -->
<svg version="1.1" id="Layer_1" xmlns="http://www.w3.org/2000/svg" xmlns:xlink="http://www.w3.org/1999/xlink" x="0px" y="0px"
	 viewBox="0 0 200 200" style="enable-background:new 0 0 200 200;" xml:space="preserve">
<style type="text/css">
	.st0{fill:#FFFFFF;}
	.st1{fill-rule:evenodd;clip-rule:evenodd;fill:#E84242;}
</style>
<g id="surface1">
	<path class="st0" d="M40.5,36.8h118.8v108H40.5V36.8z"/>
	<path class="st1" d="M196.1,100c0,53.1-43,96.1-96.1,96.1S3.9,153.1,3.9,100S46.9,3.9,100,3.9S196.1,46.9,196.1,100z M72.8,138.2
		H54.1c-3.9,0-5.9,0-7-0.8c-1.3-0.8-2.1-2.2-2.1-3.7c-0.1-1.4,0.9-3.1,2.8-6.5l46.1-81.2c2-3.4,3-5.2,4.2-5.8c1.3-0.7,3-0.7,4.3,0
		c1.3,0.6,2.2,2.4,4.2,5.8l9.5,16.5l0,0.1c2.1,3.7,3.2,5.6,3.7,7.5c0.5,2.1,0.5,4.4,0,6.6c-0.5,2-1.5,3.9-3.7,7.6l-24.2,42.8
		l-0.1,0.1c-2.1,3.7-3.2,5.6-4.7,7c-1.6,1.6-3.6,2.7-5.7,3.3C79.3,138.2,77.1,138.2,72.8,138.2z M119.9,138.2h26.7
		c3.9,0,5.9,0,7.1-0.8c1.3-0.8,2.1-2.2,2.1-3.7c0.1-1.3-0.9-3-2.7-6.2c-0.1-0.1-0.1-0.2-0.2-0.3l-13.4-22.9l-0.2-0.3
		c-1.9-3.2-2.8-4.8-4.1-5.4c-1.3-0.7-2.9-0.7-4.3,0c-1.2,0.6-2.2,2.3-4.2,5.7l-13.3,22.9l0,0.1c-2,3.4-2.9,5.1-2.9,6.4
		c0.1,1.5,0.9,2.9,2.1,3.7C113.9,138.2,115.9,138.2,119.9,138.2z"/>
</g>
</svg>
