<?xml version="1.0" encoding="UTF-8"?>
<svg id="Layer_1" data-name="Layer 1" xmlns="http://www.w3.org/2000/svg" version="1.1" viewBox="0 0 500 500">
  <defs>
    <style>
      .cls-1 {
        fill: #eaf6f4;
      }

      .cls-1, .cls-2 {
        stroke-width: 0px;
      }

      .cls-2 {
        fill: #061f1e;
      }
    </style>
  </defs>
  <circle class="cls-2" cx="250" cy="250" r="250.3"/>
  <path class="cls-1" d="M249.8,263c11.7-7.1,28.4-16.9,41.6-16.9,21,0,38.6,14.9,38.6,43.2,0,45.1-53.7,86.8-129.5,68.6-.3,0-.5.1-.5.4v24.4c0,.2.1.3.3.4,10.5,3.9,21.5,6.6,33,8,88.9,10.4,165.6-63.7,158.3-152.8-2.1-25.6-10.8-49.1-24.7-69-.1-.2-.3-.2-.6-.1l-116.4,67.3c-13.2,7.5-28.4,17-41.6,17-21,0-38.6-14.9-38.6-43.2,0-45.1,53.7-86.8,129.5-68.6.3,0,.5-.1.5-.4v-24c0-.2-.1-.3-.3-.4-15.4-5.7-32.1-8.8-49.4-8.8-78.4,0-135.7,63.9-142,142-4.7,57.7,24.8,80.2,24.8,80.2.1.2.4.2.5.1l116.5-67.3h0Z"/>
</svg>