<?xml version="1.0" encoding="UTF-8"?>
<svg xmlns="http://www.w3.org/2000/svg" xmlns:xlink="http://www.w3.org/1999/xlink" width="400px" height="400px" viewBox="0 0 400 400" version="1.1">
<g id="surface1">
<path style=" stroke:none;fill-rule:evenodd;fill:rgb(0%,0%,0%);fill-opacity:1;" d="M 283.898438 180.503906 C 276.78125 173.386719 276.78125 161.851562 283.898438 154.734375 C 291.011719 147.617188 302.550781 147.617188 309.664062 154.734375 C 316.78125 161.851562 316.78125 173.386719 309.664062 180.503906 C 302.550781 187.617188 291.011719 187.617188 283.898438 180.503906 Z M 222.695312 241.703125 C 217.359375 236.367188 217.359375 227.714844 222.695312 222.375 C 228.035156 217.039062 236.6875 217.039062 242.023438 222.375 C 247.359375 227.714844 247.359375 236.367188 242.023438 241.703125 C 236.6875 247.039062 228.035156 247.039062 222.695312 241.703125 Z M 319.328125 209.492188 C 313.992188 204.15625 313.992188 195.503906 319.328125 190.167969 C 324.664062 184.828125 333.316406 184.828125 338.65625 190.167969 C 343.992188 195.503906 343.992188 204.15625 338.65625 209.492188 C 333.316406 214.828125 324.664062 214.828125 319.328125 209.492188 Z M 287.117188 241.703125 C 281.78125 236.367188 281.78125 227.714844 287.117188 222.375 C 292.453125 217.039062 301.105469 217.039062 306.445312 222.375 C 311.78125 227.714844 311.78125 236.367188 306.445312 241.703125 C 301.105469 247.039062 292.453125 247.039062 287.117188 241.703125 Z M 354.761719 238.480469 C 351.203125 234.925781 351.203125 229.15625 354.761719 225.597656 C 358.316406 222.039062 364.085938 222.039062 367.644531 225.597656 C 371.203125 229.15625 371.203125 234.925781 367.644531 238.480469 C 364.085938 242.039062 358.316406 242.039062 354.761719 238.480469 Z M 322.550781 270.691406 C 318.992188 267.132812 318.992188 261.367188 322.550781 257.808594 C 326.105469 254.25 331.875 254.25 335.433594 257.808594 C 338.992188 261.367188 338.992188 267.132812 335.433594 270.691406 C 331.875 274.25 326.105469 274.25 322.550781 270.691406 Z M 251.6875 212.714844 C 244.570312 205.597656 244.570312 194.0625 251.6875 186.945312 C 258.800781 179.828125 270.339844 179.828125 277.453125 186.945312 C 284.570312 194.0625 284.570312 205.597656 277.453125 212.714844 C 270.339844 219.828125 258.800781 219.828125 251.6875 212.714844 Z M 251.6875 148.292969 C 244.570312 141.175781 244.570312 129.640625 251.6875 122.523438 C 258.800781 115.410156 270.339844 115.410156 277.453125 122.523438 C 284.570312 129.640625 284.570312 141.175781 277.453125 148.292969 C 270.339844 155.410156 258.800781 155.410156 251.6875 148.292969 Z M 219.476562 180.503906 C 212.359375 173.386719 212.359375 161.851562 219.476562 154.734375 C 226.589844 147.617188 238.128906 147.617188 245.246094 154.734375 C 252.359375 161.851562 252.359375 173.386719 245.246094 180.503906 C 238.128906 187.617188 226.589844 187.617188 219.476562 180.503906 Z M 154.753906 180.503906 C 147.640625 173.386719 147.640625 161.851562 154.753906 154.734375 C 161.871094 147.617188 173.410156 147.617188 180.523438 154.734375 C 187.640625 161.851562 187.640625 173.386719 180.523438 180.503906 C 173.410156 187.617188 161.871094 187.617188 154.753906 180.503906 Z M 93.554688 241.703125 C 88.21875 236.367188 88.21875 227.714844 93.554688 222.375 C 98.894531 217.039062 107.546875 217.039062 112.882812 222.375 C 118.21875 227.714844 118.21875 236.367188 112.882812 241.703125 C 107.546875 247.039062 98.894531 247.039062 93.554688 241.703125 Z M 190.1875 209.492188 C 184.851562 204.15625 184.851562 195.503906 190.1875 190.167969 C 195.523438 184.828125 204.175781 184.828125 209.511719 190.167969 C 214.851562 195.503906 214.851562 204.15625 209.511719 209.492188 C 204.175781 214.828125 195.523438 214.828125 190.1875 209.492188 Z M 157.976562 241.703125 C 152.640625 236.367188 152.640625 227.714844 157.976562 222.375 C 163.3125 217.039062 171.964844 217.039062 177.304688 222.375 C 182.640625 227.714844 182.640625 236.367188 177.304688 241.703125 C 171.964844 247.039062 163.3125 247.039062 157.976562 241.703125 Z M 32.355469 238.480469 C 28.796875 234.925781 28.796875 229.15625 32.355469 225.597656 C 35.914062 222.039062 41.683594 222.039062 45.238281 225.597656 C 48.796875 229.15625 48.796875 234.925781 45.238281 238.480469 C 41.683594 242.039062 35.914062 242.039062 32.355469 238.480469 Z M 64.566406 270.691406 C 61.007812 267.132812 61.007812 261.367188 64.566406 257.808594 C 68.125 254.25 73.894531 254.25 77.449219 257.808594 C 81.007812 261.367188 81.007812 267.132812 77.449219 270.691406 C 73.894531 274.25 68.125 274.25 64.566406 270.691406 Z M 193.40625 270.691406 C 189.851562 267.132812 189.851562 261.367188 193.40625 257.808594 C 196.964844 254.25 202.734375 254.25 206.292969 257.808594 C 209.851562 261.367188 209.851562 267.132812 206.292969 270.691406 C 202.734375 274.25 196.964844 274.25 193.40625 270.691406 Z M 61.34375 209.492188 C 56.007812 204.15625 56.007812 195.503906 61.34375 190.167969 C 66.683594 184.828125 75.335938 184.828125 80.671875 190.167969 C 86.007812 195.503906 86.007812 204.15625 80.671875 209.492188 C 75.335938 214.828125 66.683594 214.828125 61.34375 209.492188 Z M 122.546875 212.714844 C 115.429688 205.597656 115.429688 194.0625 122.546875 186.945312 C 129.660156 179.828125 141.199219 179.828125 148.3125 186.945312 C 155.429688 194.0625 155.429688 205.597656 148.3125 212.714844 C 141.199219 219.828125 129.660156 219.828125 122.546875 212.714844 Z M 122.546875 148.292969 C 115.429688 141.175781 115.429688 129.640625 122.546875 122.523438 C 129.660156 115.410156 141.199219 115.410156 148.3125 122.523438 C 155.429688 129.640625 155.429688 141.175781 148.3125 148.292969 C 141.199219 155.410156 129.660156 155.410156 122.546875 148.292969 Z M 90.335938 180.503906 C 83.21875 173.386719 83.21875 161.851562 90.335938 154.734375 C 97.449219 147.617188 108.988281 147.617188 116.101562 154.734375 C 123.21875 161.851562 123.21875 173.386719 116.101562 180.503906 C 108.988281 187.617188 97.449219 187.617188 90.335938 180.503906 Z M 90.335938 180.503906 "/>
</g>
</svg>
