<?xml version="1.0" encoding="UTF-8"?>
<svg xmlns="http://www.w3.org/2000/svg" xmlns:xlink="http://www.w3.org/1999/xlink" width="400px" height="400px" viewBox="0 0 400 400" version="1.1">
<defs>
<linearGradient id="linear0" gradientUnits="userSpaceOnUse" x1="21" y1="0" x2="21" y2="42" gradientTransform="matrix(9.52381,0,0,9.52381,0,0)">
<stop offset="0" style="stop-color:rgb(12.156863%,81.960784%,100%);stop-opacity:1;"/>
<stop offset="1" style="stop-color:rgb(10.588235%,72.156863%,100%);stop-opacity:1;"/>
</linearGradient>
<radialGradient id="radial0" gradientUnits="userSpaceOnUse" cx="0" cy="0" fx="0" fy="0" r="1" gradientTransform="matrix(452.356643,-454.820299,461.624908,459.124394,19.106952,384.84381)">
<stop offset="0" style="stop-color:rgb(13.72549%,17.647059%,89.019608%);stop-opacity:1;"/>
<stop offset="1" style="stop-color:rgb(13.72549%,17.647059%,89.019608%);stop-opacity:0;"/>
</radialGradient>
<radialGradient id="radial1" gradientUnits="userSpaceOnUse" cx="0" cy="0" fx="0" fy="0" r="1" gradientTransform="matrix(-300.161262,-266.027584,405.617573,-457.661874,378.45619,397.71619)">
<stop offset="0" style="stop-color:rgb(54.509804%,30.196078%,100%);stop-opacity:1;"/>
<stop offset="1" style="stop-color:rgb(54.509804%,30.196078%,100%);stop-opacity:0;"/>
</radialGradient>
<radialGradient id="radial2" gradientUnits="userSpaceOnUse" cx="0" cy="0" fx="0" fy="0" r="1" gradientTransform="matrix(0.000000000000019311,315.366667,-765.164762,0.000000000000046853,196.667619,2.966648)">
<stop offset="0" style="stop-color:rgb(14.117647%,83.529412%,100%);stop-opacity:1;"/>
<stop offset="1" style="stop-color:rgb(10.588235%,72.156863%,100%);stop-opacity:0;"/>
</radialGradient>
</defs>
<g id="surface1">
<path style=" stroke:none;fill-rule:nonzero;fill:url(#linear0);" d="M 309.089844 0 L 90.910156 0 C 40.703125 0 0 40.703125 0 90.910156 L 0 309.089844 C 0 359.300781 40.703125 400 90.910156 400 L 309.089844 400 C 359.300781 400 400 359.300781 400 309.089844 L 400 90.910156 C 400 40.703125 359.300781 0 309.089844 0 Z M 309.089844 0 "/>
<path style=" stroke:none;fill-rule:nonzero;fill:url(#radial0);" d="M 309.089844 0 L 90.910156 0 C 40.703125 0 0 40.703125 0 90.910156 L 0 309.089844 C 0 359.300781 40.703125 400 90.910156 400 L 309.089844 400 C 359.300781 400 400 359.300781 400 309.089844 L 400 90.910156 C 400 40.703125 359.300781 0 309.089844 0 Z M 309.089844 0 "/>
<path style=" stroke:none;fill-rule:nonzero;fill:url(#radial1);" d="M 309.089844 0 L 90.910156 0 C 40.703125 0 0 40.703125 0 90.910156 L 0 309.089844 C 0 359.300781 40.703125 400 90.910156 400 L 309.089844 400 C 359.300781 400 400 359.300781 400 309.089844 L 400 90.910156 C 400 40.703125 359.300781 0 309.089844 0 Z M 309.089844 0 "/>
<path style=" stroke:none;fill-rule:nonzero;fill:url(#radial2);" d="M 309.089844 0 L 90.910156 0 C 40.703125 0 0 40.703125 0 90.910156 L 0 309.089844 C 0 359.300781 40.703125 400 90.910156 400 L 309.089844 400 C 359.300781 400 400 359.300781 400 309.089844 L 400 90.910156 C 400 40.703125 359.300781 0 309.089844 0 Z M 309.089844 0 "/>
<path style=" stroke:none;fill-rule:nonzero;fill:rgb(100%,100%,100%);fill-opacity:1;" d="M 164.308594 307.25 L 164.308594 214.46875 L 254.460938 307.25 L 304.617188 307.25 L 304.617188 304.835938 L 200.917969 199.164062 L 296.636719 98.910156 L 296.636719 97.726562 L 246.15625 97.726562 L 164.308594 186.320312 L 164.308594 97.726562 L 123.664062 97.726562 L 123.664062 307.25 Z M 164.308594 307.25 "/>
</g>
</svg>
