<?xml version="1.0" encoding="UTF-8"?>
<svg id="Layer_1" data-name="Layer 1" xmlns="http://www.w3.org/2000/svg" version="1.1" viewBox="0 0 200 200">
  <defs>
    <style>
      .cls-1 {
        fill: #14afeb;
      }

      .cls-1, .cls-2, .cls-3 {
        stroke-width: 0px;
      }

      .cls-2 {
        fill-rule: evenodd;
      }

      .cls-2, .cls-3 {
        fill: #fff;
      }
    </style>
  </defs>
  <circle class="cls-1" cx="100.5" cy="99.9" r="99.9"/>
  <path class="cls-3" d="M104.3,68.4c1,10.5,1.5,15.7,4.3,19.6,1.2,1.6,2.6,3.1,4.3,4.2,3.9,2.7,9.1,3.1,19.6,4l4.4.4v7.6l-4.4.4c-10.5.9-15.8,1.3-19.6,4-1.7,1.2-3.1,2.6-4.3,4.2-2.8,3.8-3.3,9.1-4.3,19.6h-7.5c-1-10.5-1.5-15.7-4.3-19.6-1.2-1.6-2.6-3.1-4.3-4.2-3.9-2.7-9.1-3.1-19.6-4l-4.4-.4v-7.6l4.4-.4c10.5-.9,15.8-1.3,19.6-4,1.7-1.2,3.1-2.6,4.3-4.2,2.8-3.8,3.3-9.1,4.3-19.6h7.5Z"/>
  <path class="cls-2" d="M100.5,29.7c58.2,0,70.7,12.5,70.7,70.7s-12.5,70.7-70.7,70.7-70.7-12.5-70.7-70.7S42.3,29.7,100.5,29.7ZM146.7,54.1c-17.1-17.1-51.7-10.3-77.2,15.2-25.5,25.5-32.3,60.1-15.2,77.2,17.1,17.1,51.7,10.3,77.2-15.2,25.5-25.5,32.3-60.1,15.2-77.2Z"/>
</svg>