<?xml version="1.0" encoding="utf-8"?>
<!-- Generator: Adobe Illustrator 26.4.1, SVG Export Plug-In . SVG Version: 6.00 Build 0)  -->
<svg version="1.1" id="Layer_1" xmlns="http://www.w3.org/2000/svg" xmlns:xlink="http://www.w3.org/1999/xlink" x="0px" y="0px"
	 viewBox="0 0 200 200" style="enable-background:new 0 0 200 200;" xml:space="preserve">
<style type="text/css">
	.st0{fill:url(#SVGID_1_);}
	.st1{fill:#FFFFFF;}
	.st2{fill-rule:evenodd;clip-rule:evenodd;fill:#FBD52E;}
	.st3{fill:none;}
</style>
<linearGradient id="SVGID_1_" gradientUnits="userSpaceOnUse" x1="38.403" y1="164.0609" x2="158.083" y2="39.5937" gradientTransform="matrix(1 0 0 -1 0 200)">
	<stop  offset="0" style="stop-color:#5C719A"/>
	<stop  offset="0.3229" style="stop-color:#213575"/>
	<stop  offset="1" style="stop-color:#111D40"/>
</linearGradient>
<circle class="st0" cx="100" cy="100" r="90"/>
<path class="st1" d="M140.6,43.8c-4.2,0-8.1,1.7-11.1,4.6c-2.9,2.9-4.6,6.9-4.6,11.1v8.2c-4.6-9.4-12.5-16.8-22.2-20.8
	c-9.7-4-20.5-4.2-30.4-0.7c-8.3,3-15.5,8.4-20.6,15.6c-5.1,7.2-7.8,15.8-7.9,24.7v54.1c0,4.2,1.7,8.2,4.6,11.1
	c2.9,2.9,6.9,4.6,11.1,4.6c4.2,0,8.2-1.7,11.1-4.6c2.9-2.9,4.6-6.9,4.6-11.1v-8.2c4.6,9.4,12.5,16.8,22.2,20.8
	c9.7,4,20.5,4.2,30.4,0.7c8.3-3,15.5-8.4,20.6-15.6c5.1-7.2,7.8-15.8,7.8-24.7V59.4c0-4.2-1.7-8.1-4.6-11.1
	C148.7,45.4,144.7,43.8,140.6,43.8z M113.5,151.9c-8.2,0-16.2-2.6-22.8-7.4c-6.6-4.9-11.5-11.7-13.9-19.6l-0.1-0.2
	c-1.1-3.6-1.7-7.4-1.7-11.1V86.5c0-3,1.2-5.9,3.3-8c2.1-2.1,5-3.3,8-3.3c3,0,5.9,1.2,8,3.3s3.3,5,3.3,8v27c0,4.2,1.7,8.2,4.6,11.1
	c2.2,2.2,5,3.7,8,4.3c3,0.6,6.2,0.3,9.1-0.9c2.9-1.2,5.3-3.2,7-5.8c1.7-2.6,2.6-5.6,2.7-8.7V59.4c0-1.5,0.3-3,0.9-4.3
	c0.6-1.4,1.4-2.6,2.5-3.7c1.1-1.1,2.3-1.9,3.7-2.5s2.9-0.9,4.3-0.9c1.5,0,3,0.3,4.3,0.9s2.6,1.4,3.7,2.5c1.1,1.1,1.9,2.3,2.5,3.7
	c0.6,1.4,0.9,2.9,0.9,4.3v54.1c0,5-1,10-2.9,14.7c-1.9,4.7-4.8,8.9-8.3,12.5c-3.6,3.6-7.8,6.4-12.5,8.3
	C123.6,150.9,118.6,151.9,113.5,151.9z M124.9,113.5c0,2.2-0.7,4.4-1.9,6.3c-1.2,1.9-3,3.3-5.1,4.2c-2.1,0.9-4.4,1.1-6.6,0.7
	c-2.2-0.4-4.2-1.5-5.8-3.1c-1.2-1.2-2.1-2.5-2.6-4.1c-0.1-0.3-0.2-0.6-0.3-0.9l0-0.2l0-0.1c-0.1-0.2-0.1-0.4-0.1-0.6
	c0-0.1,0-0.2,0-0.2v-0.1c0-0.2-0.1-0.4-0.1-0.6c0-0.2,0-0.2,0-0.4c0-0.2,0-0.4,0-0.6V86.5c0-2.1-0.4-4.1-1.2-6
	c-0.8-1.9-2-3.6-3.4-5.1c-1.5-1.5-3.2-2.6-5.1-3.4c-1.9-0.8-4-1.2-6-1.2c-4.2,0-8.2,1.7-11.1,4.6c-2.9,2.9-4.6,6.9-4.6,11.1v54.1
	c0,3-1.2,5.9-3.3,8s-5,3.3-8,3.3c-3,0-5.9-1.2-8-3.3c-2.1-2.1-3.3-5-3.3-8V86.5c0-9.2,3.3-18.1,9.3-25.1c6-7,14.3-11.5,23.4-12.9
	c9.1-1.3,18.4,0.6,26.2,5.5c7.8,4.9,13.5,12.5,16.2,21.3l0.2,0.5c1,3.5,1.5,7,1.5,10.6V113.5z"/>
<path class="st2" d="M263.4-7.6"/>
<rect x="0" y="-5.1" class="st3" width="200" height="200"/>
</svg>
