<?xml version="1.0" encoding="utf-8"?>
<!-- Generator: Adobe Illustrator 26.4.1, SVG Export Plug-In . SVG Version: 6.00 Build 0)  -->
<svg version="1.1" id="Layer_1" xmlns="http://www.w3.org/2000/svg" xmlns:xlink="http://www.w3.org/1999/xlink" x="0px" y="0px"
	 viewBox="0 0 200 200" style="enable-background:new 0 0 200 200;" xml:space="preserve">
<style type="text/css">
	.st0{fill:url(#SVGID_1_);}
	.st1{fill:#FFFFFF;}
	.st2{fill-rule:evenodd;clip-rule:evenodd;fill:#FBD52E;}
</style>
<linearGradient id="SVGID_1_" gradientUnits="userSpaceOnUse" x1="31.5589" y1="670.7112" x2="164.5367" y2="809.0081" gradientTransform="matrix(1 0 0 1 0 -641.89)">
	<stop  offset="0" style="stop-color:#5C719A"/>
	<stop  offset="0.3229" style="stop-color:#213575"/>
	<stop  offset="1" style="stop-color:#111D40"/>
</linearGradient>
<circle class="st0" cx="100" cy="100" r="100"/>
<path class="st1" d="M144.3,38.6c-4.6,0-8.8,1.9-12.1,5c-3.2,3.2-5,7.5-5,12.1v9c-5-10.3-13.6-18.3-24.2-22.7s-22.4-4.6-33.2-0.8
	c-9.1,3.3-16.9,9.2-22.5,17s-8.5,17.3-8.6,27v59.1c0,4.6,1.9,9,5,12.1c3.2,3.2,7.5,5,12.1,5s9-1.9,12.1-5c3.2-3.2,5-7.5,5-12.1v-9
	c5,10.3,13.6,18.3,24.2,22.7c10.6,4.4,22.4,4.6,33.2,0.8c9.1-3.3,16.9-9.2,22.5-17c5.6-7.9,8.5-17.3,8.5-27V55.7
	c0-4.6-1.9-8.8-5-12.1C153.2,40.4,148.8,38.6,144.3,38.6z M114.7,156.7c-9,0-17.7-2.8-24.9-8.1c-7.2-5.3-12.6-12.8-15.2-21.4
	l-0.1-0.2c-1.2-3.9-1.9-8.1-1.9-12.1V85.3c0-3.3,1.3-6.4,3.6-8.7c2.3-2.3,5.5-3.6,8.7-3.6s6.4,1.3,8.7,3.6c2.3,2.3,3.6,5.5,3.6,8.7
	v29.5c0,4.6,1.9,9,5,12.1c2.4,2.4,5.5,4,8.7,4.7c3.3,0.7,6.8,0.3,9.9-1c3.2-1.3,5.8-3.5,7.6-6.3c1.9-2.8,2.8-6.1,2.9-9.5V55.7
	c0-1.6,0.3-3.3,1-4.7c0.7-1.5,1.5-2.8,2.7-4c1.2-1.2,2.5-2.1,4-2.7c1.5-0.7,3.2-1,4.7-1c1.6,0,3.3,0.3,4.7,1c1.4,0.7,2.8,1.5,4,2.7
	c1.2,1.2,2.1,2.5,2.7,4s1,3.2,1,4.7v59.1c0,5.5-1.1,10.9-3.2,16c-2.1,5.1-5.2,9.7-9.1,13.6c-3.9,3.9-8.5,7-13.6,9.1
	C125.8,155.6,120.3,156.7,114.7,156.7z M127.2,114.7c0,2.4-0.8,4.8-2.1,6.9c-1.3,2.1-3.3,3.6-5.6,4.6s-4.8,1.2-7.2,0.8
	s-4.6-1.6-6.3-3.4c-1.3-1.3-2.3-2.7-2.8-4.5c-0.1-0.3-0.2-0.7-0.3-1v-0.2v-0.1c-0.1-0.2-0.1-0.4-0.1-0.7c0-0.1,0-0.2,0-0.2v-0.1
	c0-0.2-0.1-0.4-0.1-0.7s0-0.2,0-0.4c0-0.2,0-0.4,0-0.7V85.3c0-2.3-0.4-4.5-1.3-6.6c-0.9-2.1-2.2-3.9-3.7-5.6
	c-1.6-1.6-3.5-2.8-5.6-3.7c-2.1-0.9-4.4-1.3-6.6-1.3c-4.6,0-9,1.9-12.1,5s-5,7.5-5,12.1v59.1c0,3.3-1.3,6.4-3.6,8.7
	c-2.3,2.3-5.5,3.6-8.7,3.6s-6.4-1.3-8.7-3.6c-2.3-2.3-3.6-5.5-3.6-8.7V85.3c0-10,3.6-19.8,10.2-27.4s15.6-12.6,25.5-14.1
	c9.9-1.4,20.1,0.7,28.6,6s14.7,13.6,17.7,23.3l0.2,0.5c1.1,3.8,1.6,7.6,1.6,11.6v29.6H127.2z"/>
<path class="st2" d="M263.4-7.6"/>
</svg>
