<?xml version="1.0" encoding="utf-8"?>
<!-- Generator: Adobe Illustrator 26.4.1, SVG Export Plug-In . SVG Version: 6.00 Build 0)  -->
<svg version="1.1" id="Layer_1" xmlns="http://www.w3.org/2000/svg" xmlns:xlink="http://www.w3.org/1999/xlink" x="0px" y="0px"
	 viewBox="0 0 200 200" style="enable-background:new 0 0 200 200;" xml:space="preserve">
<style type="text/css">
	.st0{fill:#FFEEDA;}
	.st1{fill:#EBC28E;}
	.st2{fill:#190602;}
</style>
<circle class="st0" cx="100" cy="99.5" r="100"/>
<g>
	<path class="st0" d="M152.9,121.2l0-71.5c-0.1-6-4.9-10.8-10.8-10.8H67.5c-16.1,0.3-29.1,13.4-29.1,29.6c0,5.5,1.5,10.1,3.7,14.2
		c1.9,3.4,4.8,6.6,7.8,9c0.8,0.7,0.4,0.4,3,2c3.5,2.1,7.5,3.2,7.5,3.2l0,42.7c0.1,2,0.3,4,0.8,5.8c1.7,6,5.8,10.6,11.5,12.9
		c2.4,0.9,5.1,1.6,7.9,1.6l59.6,0.2c11.9,0,21.5-9.6,21.5-21.6C161.7,131.4,158.2,125.1,152.9,121.2L152.9,121.2z"/>
	<path class="st1" d="M154.3,139c-0.2,7.6-6.5,13.7-14.2,13.7l-41-0.2c3.3-3.8,5.3-8.7,5.3-14c0-8.4-5-14.2-5-14.2h40.8
		c7.8,0,14.2,6.4,14.2,14.2L154.3,139L154.3,139z"/>
	<path class="st2" d="M53.8,85.6c-4.7-4.5-8-10.2-8-17.1l0-0.7c0.4-11.7,10-21.1,21.7-21.5h74.6c2,0.1,3.5,1.5,3.5,3.5v63.1
		c1.7,0.3,2.5,0.5,4.2,1.1c1.3,0.5,3.1,1.5,3.1,1.5V49.7c-0.1-6-4.9-10.8-10.9-10.8H67.5c-16.1,0.3-29.1,13.4-29.1,29.6
		c0,9.4,4.3,17.4,11.3,23c0.5,0.4,0.9,0.9,2.2,0.9c2.2,0,3.7-1.7,3.7-3.6C55.5,87.2,54.8,86.6,53.8,85.6L53.8,85.6z"/>
	<path class="st2" d="M140.2,117H81.6c-3.9,0-7.1,3.2-7.1,7.2v8.4c0.1,3.9,3.4,7.2,7.3,7.2h4.4v-7.2h-4.4v-8.2h2.4
		c7.4,0,12.8,6.9,12.8,14.2c0,6.5-5.9,14.8-15.9,14.2c-8.8-0.6-13.6-8.4-13.6-14.2V67.2c0-3.2-2.6-5.8-5.8-5.8H56v7.3h4.3v69.9
		c-0.2,14.2,10.1,21.4,20.9,21.4l58.9,0.2c11.9,0,21.5-9.6,21.5-21.6S152,117,140.2,117L140.2,117z M154.3,139
		c-0.2,7.6-6.5,13.7-14.2,13.7l-41-0.2c3.3-3.8,5.3-8.7,5.3-14c0-8.4-5-14.2-5-14.2h40.8c7.8,0,14.2,6.4,14.2,14.2L154.3,139
		L154.3,139z"/>
	<path class="st2" d="M124.4,62.7H80.3V70h44.1c2,0,3.6-1.6,3.6-3.6S126.4,62.7,124.4,62.7L124.4,62.7z"/>
	<path class="st2" d="M124.4,97.1H80.3v7.3h44.1c2,0,3.6-1.6,3.6-3.6S126.4,97.1,124.4,97.1L124.4,97.1z"/>
	<path class="st2" d="M132.2,79.9H80.3v7.3h51.9c2,0,3.6-1.6,3.6-3.6S134.2,79.9,132.2,79.9z"/>
</g>
</svg>
