<?xml version="1.0" encoding="UTF-8"?>
<svg xmlns="http://www.w3.org/2000/svg" xmlns:xlink="http://www.w3.org/1999/xlink" width="400px" height="400px" viewBox="0 0 400 400" version="1.1">
<defs>
<radialGradient id="radial0" gradientUnits="userSpaceOnUse" cx="0" cy="0.5" fx="0" fy="0.5" r="1" gradientTransform="matrix(400,0,0,400,0,0)">
<stop offset="0" style="stop-color:rgb(36.470588%,61.568627%,96.470588%);stop-opacity:1;"/>
<stop offset="1" style="stop-color:rgb(0%,43.529412%,100%);stop-opacity:1;"/>
</radialGradient>
</defs>
<g id="surface1">
<path style=" stroke:none;fill-rule:evenodd;fill:url(#radial0);" d="M 200 0 C 310.457031 0 400 89.542969 400 200 C 400 310.457031 310.457031 400 200 400 C 89.542969 400 0 310.457031 0 200 C 0 89.542969 89.542969 0 200 0 Z M 200 0 "/>
<path style=" stroke:none;fill-rule:nonzero;fill:rgb(100%,100%,100%);fill-opacity:1;" d="M 127.101562 154.460938 C 167.363281 115.179688 232.636719 115.179688 272.898438 154.460938 L 277.742188 159.1875 C 279.753906 161.152344 279.753906 164.335938 277.742188 166.300781 L 261.167969 182.472656 C 260.160156 183.453125 258.53125 183.453125 257.523438 182.472656 L 250.855469 175.964844 C 222.769531 148.5625 177.230469 148.5625 149.144531 175.964844 L 142.003906 182.933594 C 141 183.914062 139.367188 183.914062 138.359375 182.933594 L 121.785156 166.761719 C 119.773438 164.796875 119.773438 161.613281 121.785156 159.648438 Z M 307.175781 187.90625 L 321.929688 202.296875 C 323.941406 204.261719 323.941406 207.445312 321.929688 209.410156 L 255.410156 274.308594 C 253.398438 276.273438 250.132812 276.273438 248.121094 274.308594 L 200.910156 228.246094 C 200.410156 227.757812 199.59375 227.757812 199.089844 228.246094 L 151.878906 274.308594 C 149.867188 276.273438 146.605469 276.273438 144.589844 274.308594 L 78.070312 209.410156 C 76.058594 207.445312 76.058594 204.261719 78.070312 202.296875 L 92.824219 187.902344 C 94.835938 185.941406 98.101562 185.941406 100.113281 187.902344 L 147.324219 233.964844 C 147.828125 234.457031 148.644531 234.457031 149.144531 233.964844 C 149.144531 233.964844 149.144531 233.964844 149.148438 233.964844 L 196.355469 187.902344 C 198.367188 185.941406 201.632812 185.941406 203.644531 187.902344 L 250.855469 233.964844 C 251.359375 234.457031 252.171875 234.457031 252.675781 233.964844 L 299.886719 187.90625 C 301.898438 185.941406 305.164062 185.941406 307.175781 187.90625 Z M 307.175781 187.90625 "/>
</g>
</svg>
