<?xml version="1.0" encoding="UTF-8"?>
<svg id="Layer_1" data-name="Layer 1" xmlns="http://www.w3.org/2000/svg" xmlns:xlink="http://www.w3.org/1999/xlink" version="1.1" viewBox="0 0 500 500">
  <defs>
    <style>
      .cls-1 {
        clip-path: url(#clippath);
      }

      .cls-2 {
        fill: none;
      }

      .cls-2, .cls-3, .cls-4, .cls-5 {
        stroke-width: 0px;
      }

      .cls-3 {
        fill: #000;
      }

      .cls-4 {
        fill: #00d39e;
      }

      .cls-5 {
        fill: #66fbd5;
      }
    </style>
    <clipPath id="clippath">
      <path class="cls-2" d="M216.8,400.7c-15.1,13.9-32.8,22.8-52.6,27.4-15,3.5-30.2,3.9-45.3.5-3-.7-2.5-2.7-2.1-4.6,3.8-16,7.8-31.9,11.6-47.9,1.8-7.6,3.3-15.2,5.3-22.7,1.4-5.2-1.8-8-4.9-10.9-18.3-17.1-30.8-37.8-39-61.3-3.3-9.5-5.2-19.3-7-29.3-2.2-12.3-2.4-24.6-1.1-36.6,3.4-30.3,14.5-57.8,33.6-82,16.8-21.3,37.8-36.9,62-48.3,11.7-5.5,24.1-9.3,36.8-12,15.7-3.4,31.5-4.6,47.3-3.5,18.2,1.3,36,4.9,53,12.2,24.5,10.5,46.4,24.6,64.2,44.6,14.2,16,25.1,34,31.9,54.5,1.8,5.5,3.9,10.9,4.7,16.7.2,1.7.7,3.5-2,3.4-17.8-.3-34.3-3.9-46.8-17.8-1.9-2.1-3.6-4.4-4.7-6.9s-.7-2.9-2.5-2.8-1.5,1.9-1.8,3c-3.3,11.5-11.5,17.8-22.3,21.6-7.4,2.6-15,3.6-22.9,3.4-3.1-.1-2.4-1.9-1.6-3.7,4.1-9.2,5.2-18.9,4.8-29-.8-18.7-9.6-33-23.9-44.3-16.3-12.8-34.6-16.7-54.9-12.6-21,4.3-36.3,16-45.9,35-6.6,13-7.4,26.6-3.9,40.8,5.2,21.3,19.1,34.8,38.6,43.1,8.9,3.8,18.6,5.1,28.2,5.3,12,.3,24,0,36,0,41.3.1,82.6.3,123.9.2,5,0,5.7,1.7,5.4,6,0,0-2.4,17.6-9.3,40.1-5.9,16.3-14.2,31.3-25.2,44.9,0,0-9.7,11.4-14,15.4-31.5,30.4-69.4,45.8-112.9,47.7-9.2.4-18.3,0-27.5-.4l-13.4,10.9Z"/>
    </clipPath>
  </defs>
  <circle class="cls-3" cx="250" cy="250" r="249.9"/>
  <path class="cls-4" d="M216.8,400.7c-15.1,13.9-32.8,22.8-52.6,27.4-15,3.5-30.2,3.9-45.3.5-3-.7-2.5-2.7-2.1-4.6,3.8-16,7.8-31.9,11.6-47.9,1.8-7.6,3.3-15.2,5.3-22.7,1.4-5.2-1.8-8-4.9-10.9-18.3-17.1-30.8-37.8-39-61.3-3.3-9.5-5.2-19.3-7-29.3-2.2-12.3-2.4-24.6-1.1-36.6,3.4-30.3,14.5-57.8,33.6-82,16.8-21.3,37.8-36.9,62-48.3,11.7-5.5,24.1-9.3,36.8-12,15.7-3.4,31.5-4.6,47.3-3.5,18.2,1.3,36,4.9,53,12.2,24.5,10.5,46.4,24.6,64.2,44.6,14.2,16,25.1,34,31.9,54.5,1.8,5.5,3.9,10.9,4.7,16.7.2,1.7.7,3.5-2,3.4-17.8-.3-34.3-3.9-46.8-17.8-1.9-2.1-3.6-4.4-4.7-6.9s-.7-2.9-2.5-2.8-1.5,1.9-1.8,3c-3.3,11.5-11.5,17.8-22.3,21.6-7.4,2.6-15,3.6-22.9,3.4-3.1-.1-2.4-1.9-1.6-3.7,4.1-9.2,5.2-18.9,4.8-29-.8-18.7-9.6-33-23.9-44.3-16.3-12.8-34.6-16.7-54.9-12.6-21,4.3-36.3,16-45.9,35-6.6,13-7.4,26.6-3.9,40.8,5.2,21.3,19.1,34.8,38.6,43.1,8.9,3.8,18.6,5.1,28.2,5.3,12,.3,24,0,36,0,41.3.1,82.6.3,123.9.2,5,0,5.7,1.7,5.4,6,0,0-2.4,17.6-9.3,40.1-5.9,16.3-14.2,31.3-25.2,44.9,0,0-9.7,11.4-14,15.4-31.5,30.4-69.4,45.8-112.9,47.7-9.2.4-18.3,0-27.5-.4"/>
  <g class="cls-1">
    <circle class="cls-5" cx="117.1" cy="141.2" r="243.9"/>
  </g>
</svg>