<?xml version="1.0" encoding="utf-8"?>
<svg version="1.1" id="Layer_1" xmlns="http://www.w3.org/2000/svg" xmlns:xlink="http://www.w3.org/1999/xlink" x="0px" y="0px"
	 viewBox="0 0 200 200" style="enable-background:new 0 0 200 200;" xml:space="preserve">
<style type="text/css">
	.st0{fill:url(#SVGID_1_);}
	.st1{fill:#FFFFFF;}
	.st2{fill-rule:evenodd;clip-rule:evenodd;fill:#FBD52E;}
</style>
<g>
	
		<linearGradient id="SVGID_1_" gradientUnits="userSpaceOnUse" x1="29.2893" y1="29.1793" x2="170.7107" y2="170.6007" gradientTransform="matrix(1 0 0 -1 0 199.89)">
		<stop  offset="0" style="stop-color:#29C1FC"/>
		<stop  offset="0.5022" style="stop-color:#AB00FF"/>
		<stop  offset="0.5082" style="stop-color:#AC03FC"/>
		<stop  offset="0.6406" style="stop-color:#C840B8"/>
		<stop  offset="0.7601" style="stop-color:#DE7082"/>
		<stop  offset="0.8629" style="stop-color:#EE935B"/>
		<stop  offset="0.9448" style="stop-color:#F7A844"/>
		<stop  offset="0.9956" style="stop-color:#FBB03B"/>
	</linearGradient>
	<circle class="st0" cx="100" cy="100" r="100"/>
	<circle cx="100" cy="100" r="93.5"/>
	<g>
		<path class="st1" d="M65.8,94.7l16.5-16.5l10.3,10.3c3.6,3.6,8.1,5,11.8,1.2s1.5-7.3-2.1-11L91,67.4l-6.8-6.8l0,0
			c-2.7-2.7-6.5-4.3-10.3-0.5c-3.3,3.3-2.2,6.9-0.3,9.4L53.3,89.6c-8.4,8.5-5.1,17.3,0.8,23.1l16.8,16.8c1.5,1.5,7.3,7.6,12,2.8
			c2.7-2.7,2.1-6.9,0.6-8.5l-19.3-19.2C60.7,101.2,62.4,98,65.8,94.7z"/>
		<path class="st1" d="M146.8,86.7L130,70.1c-1.5-1.5-7.3-7.6-12-2.8c-2.7,2.7-2.1,6.9-0.6,8.5L136.8,95c3.5,3.5,1.8,6.6-1.7,9.9
			l-16.5,16.5L108.2,111c-3.6-3.6-8.1-5-11.8-1.2s-1.5,7.3,2.1,11l11.4,11.4l6.9,6.9l0,0c2.7,2.7,6.5,4.4,10.3,0.6
			c3.3-3.3,2.2-7,0.2-9.5l20.4-20.4C156.1,101.3,152.8,92.6,146.8,86.7z"/>
	</g>
</g>
<path class="st2" d="M263.4-7.6"/>
</svg>
