<?xml version="1.0" encoding="utf-8"?>
<!-- Generator: Adobe Illustrator 26.4.1, SVG Export Plug-In . SVG Version: 6.00 Build 0)  -->
<svg version="1.1" id="Layer_1" xmlns="http://www.w3.org/2000/svg" xmlns:xlink="http://www.w3.org/1999/xlink" x="0px" y="0px"
	 viewBox="0 0 200 200" style="enable-background:new 0 0 200 200;" xml:space="preserve">
<style type="text/css">
	.st0{fill-rule:evenodd;clip-rule:evenodd;fill:#FBD52E;}
	.st1{fill:#E6007A;}
</style>
<path class="st0" d="M263.4-7.6"/>
<g id="surface1_00000122696791979412486520000011456963381805058192_">
	<path class="st1" d="M134.7,29c0-10.5-15.6-19-34.7-19s-34.7,8.5-34.7,19S80.9,48,100,48C119.1,47.8,134.7,39.4,134.7,29z"/>
	<path class="st1" d="M134.7,171.6c0-10.5-15.6-19-34.7-19s-34.7,8.5-34.7,19c0,10.5,15.6,19,34.7,19S134.7,182.1,134.7,171.6z"/>
	<path class="st1" d="M51.5,36.4c-9.7-5.2-25.2,3.2-34.8,18.7s-9.5,32.4,0.1,37.7c9.7,5.3,25.2-3.2,34.9-18.7
		C61.3,58.6,61.2,41.6,51.5,36.4z"/>
	<path class="st1" d="M183,107.7c-9.7-5.2-25.2,3.2-34.8,18.7c-9.5,15.6-9.5,32.4,0.1,37.7c9.7,5.2,25.2-3.2,34.8-18.7
		C192.8,129.9,192.7,113,183,107.7z"/>
	<path class="st1" d="M51.8,126.5c-9.5-15.6-25.1-23.9-34.8-18.7c-9.7,5.2-9.7,22.2-0.1,37.7s25.1,23.9,34.8,18.7
		C61.2,159,61.3,142,51.8,126.5z"/>
	<path class="st1" d="M183.2,55.2c-9.5-15.6-25.1-23.9-34.8-18.7s-9.7,22.2-0.1,37.7s25.1,23.9,34.8,18.7
		C192.8,87.7,192.8,70.7,183.2,55.2z"/>
</g>
</svg>
