<?xml version="1.0" encoding="utf-8"?>
<!-- Generator: Adobe Illustrator 26.4.1, SVG Export Plug-In . SVG Version: 6.00 Build 0)  -->
<svg version="1.1" id="Layer_1" xmlns="http://www.w3.org/2000/svg" xmlns:xlink="http://www.w3.org/1999/xlink" x="0px" y="0px"
	 viewBox="0 0 200 200" style="enable-background:new 0 0 200 200;" xml:space="preserve">
<style type="text/css">
	.st0{fill-rule:evenodd;clip-rule:evenodd;fill:#FBD52E;}
	.st1{fill:#E6007A;}
</style>
<path class="st0" d="M263.4-7.6"/>
<g id="surface1_00000122696791979412486520000011456963381805058192_">
	<path class="st1" d="M138.2,21.6c0-11.6-17.1-20.9-38.1-20.9S61.9,10,61.9,21.6s17.1,20.9,38.1,20.9
		C121,42.3,138.2,33.1,138.2,21.6z"/>
	<path class="st1" d="M138.2,178.4c0-11.6-17.1-20.9-38.1-20.9s-38.1,9.3-38.1,20.9c0,11.6,17.1,20.9,38.1,20.9
		S138.2,190,138.2,178.4z"/>
	<path class="st1" d="M46.7,29.7C36,24,19,33.3,8.4,50.3S-2,85.9,8.6,91.8c10.7,5.8,27.7-3.6,38.4-20.6
		C57.5,54.2,57.4,35.4,46.7,29.7z"/>
	<path class="st1" d="M191.3,108.1c-10.7-5.7-27.7,3.6-38.3,20.6c-10.5,17.1-10.5,35.6,0.1,41.5c10.7,5.7,27.7-3.6,38.3-20.6
		C202.1,132.6,202,114,191.3,108.1z"/>
	<path class="st1" d="M47.1,128.8c-10.5-17.1-27.6-26.2-38.3-20.6c-10.7,5.7-10.7,24.5-0.1,41.5s27.6,26.2,38.3,20.6
		C57.4,164.6,57.5,145.8,47.1,128.8z"/>
	<path class="st1" d="M191.5,50.4c-10.5-17.1-27.6-26.2-38.3-20.6c-10.7,5.7-10.7,24.5-0.1,41.5c10.6,17,27.6,26.2,38.3,20.6
		C202.1,86.1,202.1,67.4,191.5,50.4z"/>
</g>
</svg>
