<?xml version="1.0" encoding="UTF-8"?>
<svg id="Layer_1" data-name="Layer 1" xmlns="http://www.w3.org/2000/svg" version="1.1" viewBox="0 0 500 500">
  <defs>
    <style>
      .cls-1 {
        fill: #010101;
      }

      .cls-1, .cls-2 {
        stroke-width: 0px;
      }

      .cls-2 {
        fill: #fff;
      }
    </style>
  </defs>
  <circle class="cls-1" cx="250" cy="250" r="250"/>
  <g>
    <polygon class="cls-2" points="283.7 357.8 283.7 373.6 392.1 373.6 392.1 302.3 376.3 302.3 376.3 357.8 283.7 357.8"/>
    <polygon class="cls-2" points="286 126.4 286 141.9 376.7 141.9 376.7 196.1 392.1 196.1 392.1 126.4 286 126.4"/>
    <polygon class="cls-2" points="107.9 126.6 107.9 196 123.3 196 123.3 142 213.5 142 213.5 126.6 107.9 126.6"/>
    <polygon class="cls-2" points="109.4 302.9 109.4 373 216 373 216 357.5 124.9 357.5 124.9 302.9 109.4 302.9"/>
    <polygon class="cls-2" points="230 189.7 213.5 189.7 213.5 303.1 288 303.1 288 288.2 230 288.2 230 189.7"/>
  </g>
</svg>