<?xml version="1.0" encoding="utf-8"?>
<!-- Generator: Adobe Illustrator 26.4.1, SVG Export Plug-In . SVG Version: 6.00 Build 0)  -->
<svg version="1.1" id="Layer_1" xmlns="http://www.w3.org/2000/svg"
  xmlns:xlink="http://www.w3.org/1999/xlink" x="0px" y="0px"
  viewBox="0 0 200 200" style="enable-background:new 0 0 200 200;" xml:space="preserve">
<style type="text/css">
	.st0{fill:#FFFFFF;}
	.st1{fill-rule:evenodd;clip-rule:evenodd;fill:#FBD52E;}
</style>
<ellipse class="st0" cx="100" cy="100" rx="100" ry="99.9"/>
<path class="st1" d="M100,99.1"/>
<g>
	<path d="M142.4,41.1c0.8,0.2,1.5,0.5,2.3,0.6c8.2,2,14.2,9.7,14.2,18.2c0,17.4,0,34.7,0,52.1c0,0.6,0,1.1,0,1.9
		c-0.7,0-1.3,0.1-1.8,0.1c-23,0-46,0-69,0.1c-1.6,0-2-0.4-2-2c0.1-23.6,0.1-47.3,0.1-70.9C104.9,41.1,123.7,41.1,142.4,41.1z"/>
	<path d="M69,41.1c0,9.3,0,18.5,0,27.9c-9.3,0-18.5,0-27.9,0c0.4-5.6-0.9-11.2,1.6-16.5c2.8-6,7.4-9.7,13.9-11.1
		c0.5-0.1,0.9-0.2,1.4-0.4C61.6,41.1,65.3,41.1,69,41.1z"/>
	<path d="M41.2,113.8c0-9.3,0-18.4,0-27.6c9.2,0,18.4,0,27.7,0c0,9.2,0,18.3,0,27.6C59.7,113.8,50.5,113.8,41.2,113.8z"/>
	<path d="M113.8,158.8c-9.2,0-18.4,0-27.6,0c0-9.2,0-18.4,0-27.6c9.2,0,18.3,0,27.6,0C113.8,140.3,113.8,149.5,113.8,158.8z"/>
	<path d="M41.1,131.1c9.3,0,18.5,0,27.8,0c0,9.2,0,18.4,0,27.8c-6.6-0.3-13.3,1.1-19.2-3c-5.3-3.7-8.3-8.6-8.5-15.1
		C41,137.6,41.1,134.4,41.1,131.1z"/>
	<path d="M131,158.9c0-3.8,0-7.3,0-10.8c0-5.2,0-10.4,0-15.7c0-1,0.2-1.4,1.3-1.4c8.5,0,17.1,0,25.6,0c0.3,0,0.5,0.1,0.9,0.1
		c0,7.4,1.2,15-4.4,21.2c-3.7,4.1-8.2,6.4-13.7,6.5C137.6,158.9,134.4,158.9,131,158.9z"/>
</g>
</svg>