<?xml version="1.0" encoding="UTF-8"?>
<svg id="Layer_1" data-name="Layer 1" xmlns="http://www.w3.org/2000/svg" xmlns:xlink="http://www.w3.org/1999/xlink" version="1.1" viewBox="0 0 500 500">
  <defs>
    <style>
      .cls-1 {
        mask: url(#mask);
      }

      .cls-2 {
        fill: #ff4d00;
        fill-rule: evenodd;
      }

      .cls-2, .cls-3 {
        stroke-width: 0px;
      }

      .cls-3 {
        fill: #fff;
      }
    </style>
    <mask id="mask" x="0" y="0" width="500" height="500" maskUnits="userSpaceOnUse">
      <g id="mask0_1049_4758" data-name="mask0 1049 4758">
        <g id="Group">
          <path id="Vector" class="cls-3" d="M500,0H0v500h500V0Z"/>
        </g>
      </g>
    </mask>
  </defs>
  <g id="Clip_path_group" data-name="Clip path group">
    <g id="Symbol">
      <g id="Mask_group" data-name="Mask group">
        <g class="cls-1">
          <g id="Group_2" data-name="Group 2">
            <path id="Vector_2" data-name="Vector 2" class="cls-2" d="M500,250c0,138.1-111.9,250-250,250S0,388.1,0,250,111.9,0,250,0s250,111.9,250,250ZM175,375v-53.6h25v-17.9h25v-17.9h50v17.9h25v17.9h25v53.6h50v-71.4h-25v-17.9h-25v-17.9h-25v-35.7h25v-17.9h25v-17.9h25v-71.4h-50v53.6h-25v17.9h-25v17.9h-50v-17.9h-25v-17.9h-25v-53.6h-50v71.4h25v17.9h25v17.9h25v35.7h-25v17.9h-25v17.9h-25v71.4h50Z"/>
          </g>
        </g>
      </g>
    </g>
  </g>
</svg>