<?xml version="1.0" encoding="UTF-8"?>
<svg xmlns="http://www.w3.org/2000/svg" xmlns:xlink="http://www.w3.org/1999/xlink" width="400px" height="400px" viewBox="0 0 400 400" version="1.1">
<defs>
<radialGradient id="radial0" gradientUnits="userSpaceOnUse" cx="892.72" cy="1499.8098" fx="892.72" fy="1499.8098" r="800" gradientTransform="matrix(0.25,0,0,-0.25,-135.12,486.912464)">
<stop offset="0" style="stop-color:rgb(93.72549%,47.45098%,21.568627%);stop-opacity:1;"/>
<stop offset="0.502" style="stop-color:rgb(91.764706%,47.058824%,22.352941%);stop-opacity:1;"/>
<stop offset="0.7843" style="stop-color:rgb(87.45098%,46.666667%,23.921569%);stop-opacity:1;"/>
<stop offset="1" style="stop-color:rgb(83.529412%,46.27451%,25.490196%);stop-opacity:1;"/>
</radialGradient>
</defs>
<g id="surface1">
<path style=" stroke:none;fill-rule:evenodd;fill:url(#radial0);" d="M 81.457031 0 L 318.558594 0 C 363.359375 0 400.015625 36.65625 400.015625 81.457031 L 400.015625 318.558594 C 400.015625 363.359375 363.359375 400.015625 318.558594 400.015625 L 81.457031 400.015625 C 36.65625 400 0 363.34375 0 318.542969 L 0 81.457031 C 0 36.65625 36.65625 0 81.457031 0 Z M 81.457031 0 "/>
<path style=" stroke:none;fill-rule:evenodd;fill:rgb(100%,100%,100%);fill-opacity:1;" d="M 313.648438 68.832031 L 307.503906 85.375 L 304.367188 93.503906 C 280.574219 154.414062 262.078125 183.328125 242.414062 183.328125 C 231.089844 183.328125 224.367188 179.9375 215.695312 172 L 213.183594 169.648438 C 206.929688 163.679688 204.304688 162.207031 198.289062 162.207031 C 195.152344 162.207031 189.550781 166.367188 182.464844 176.046875 C 175.105469 186.097656 167.039062 200.945312 158.367188 220.496094 L 157.566406 222.320312 L 241.953125 222.320312 L 231.441406 244.863281 L 152.625 244.863281 L 152.625 337.441406 L 129.472656 337.441406 L 129.472656 68.800781 Z M 280.816406 91.390625 L 152.625 91.375 L 152.625 180.910156 C 167.984375 153.359375 182.574219 139.519531 198.273438 139.519531 C 210.480469 139.519531 217.664062 143.070312 226.753906 151.34375 L 229.34375 153.777344 C 235.183594 159.34375 237.425781 160.625 242.398438 160.625 C 247.902344 160.625 262.496094 136.6875 280.816406 91.390625 Z M 280.816406 91.390625 "/>
</g>
</svg>
