<?xml version="1.0" encoding="UTF-8"?>
<svg xmlns="http://www.w3.org/2000/svg" xmlns:xlink="http://www.w3.org/1999/xlink" width="200px" height="200px" viewBox="0 0 200 200" version="1.1">
<defs>
<filter id="alpha" filterUnits="objectBoundingBox" x="0%" y="0%" width="100%" height="100%">
  <feColorMatrix type="matrix" in="SourceGraphic" values="0 0 0 0 1 0 0 0 0 1 0 0 0 0 1 0 0 0 1 0"/>
</filter>
<mask id="mask0">
  <g filter="url(#alpha)">
<rect x="0" y="0" width="200" height="200" style="fill:rgb(0%,0%,0%);fill-opacity:0.862745;stroke:none;"/>
  </g>
</mask>
<clipPath id="clip1">
  <rect x="0" y="0" width="200" height="200"/>
</clipPath>
<g id="surface5" clip-path="url(#clip1)">
<path style=" stroke:none;fill-rule:evenodd;fill:rgb(23.137255%,68.235294%,88.235294%);fill-opacity:1;" d="M 7.03125 2.34375 C 67.457031 1.824219 127.875 2.34375 188.28125 3.90625 C 190.417969 42.414062 190.15625 80.957031 187.5 119.53125 C 176.164062 156.390625 152.464844 181.648438 116.40625 195.3125 C 98.425781 199.503906 81.238281 197.417969 64.84375 189.0625 C 31.492188 170.84375 12.480469 142.976562 7.8125 105.46875 C 7.03125 71.097656 6.769531 36.722656 7.03125 2.34375 Z M 7.03125 2.34375 "/>
</g>
</defs>
<g id="surface1">
<use xlink:href="#surface5" mask="url(#mask0)"/>
<path style=" stroke:none;fill-rule:evenodd;fill:rgb(7.843137%,18.431373%,32.156863%);fill-opacity:1;" d="M 16.40625 11.71875 C 71.09375 11.71875 125.78125 11.71875 180.46875 11.71875 C 180.730469 42.972656 180.46875 74.222656 179.6875 105.46875 C 174.1875 142.734375 154.132812 169.039062 119.53125 184.375 C 105.46875 189.582031 91.40625 189.582031 77.34375 184.375 C 42.261719 168.59375 22.210938 141.769531 17.1875 103.90625 C 16.40625 73.179688 16.144531 42.453125 16.40625 11.71875 Z M 16.40625 11.71875 "/>
<path style=" stroke:none;fill-rule:evenodd;fill:rgb(27.843137%,55.686275%,79.215686%);fill-opacity:1;" d="M 160.15625 32.03125 C 160.671875 52.621094 160.148438 72.933594 158.59375 92.96875 C 136.003906 76.378906 113.609375 59.453125 91.40625 42.1875 C 86.199219 41.144531 80.988281 41.144531 75.78125 42.1875 C 102.066406 62.359375 128.628906 82.152344 155.46875 101.5625 C 157.65625 103.222656 159.21875 105.304688 160.15625 107.8125 C 155.757812 131.171875 143.257812 148.878906 122.65625 160.9375 C 101.988281 171.734375 82.71875 169.652344 64.84375 154.6875 C 41.582031 135.90625 32.46875 111.6875 37.5 82.03125 C 66.667969 103.90625 95.832031 125.78125 125 147.65625 C 127.34375 145.3125 129.6875 142.96875 132.03125 140.625 C 100.078125 117.527344 68.566406 93.828125 37.5 69.53125 C 36.71875 57.042969 36.457031 44.542969 36.71875 32.03125 C 77.863281 32.03125 119.011719 32.03125 160.15625 32.03125 Z M 160.15625 32.03125 "/>
<path style=" stroke:none;fill-rule:evenodd;fill:rgb(15.294118%,32.156863%,49.803922%);fill-opacity:1;" d="M 160.15625 32.03125 C 162.226562 52.613281 162.226562 73.445312 160.15625 94.53125 C 159.207031 94.339844 158.6875 93.816406 158.59375 92.96875 C 160.148438 72.933594 160.671875 52.621094 160.15625 32.03125 Z M 160.15625 32.03125 "/>
</g>
</svg>
