<?xml version="1.0" encoding="utf-8"?>
<!-- Generator: Adobe Illustrator 26.4.1, SVG Export Plug-In . SVG Version: 6.00 Build 0)  -->
<svg version="1.1" id="Layer_1" xmlns="http://www.w3.org/2000/svg" xmlns:xlink="http://www.w3.org/1999/xlink" x="0px" y="0px"
	 viewBox="0 0 200 200" style="enable-background:new 0 0 200 200;" xml:space="preserve">
<style type="text/css">
	.st0{fill:#142F52;}
	.st1{fill-rule:evenodd;clip-rule:evenodd;fill:#FBD52E;}
	.st2{clip-path:url(#SVGID_00000025424480781878906420000011425069528902842263_);}
	.st3{fill-rule:evenodd;clip-rule:evenodd;fill:#3BAEE1;}
	.st4{fill-rule:evenodd;clip-rule:evenodd;fill:#142F52;}
	.st5{fill-rule:evenodd;clip-rule:evenodd;fill:#478ECA;}
	.st6{fill-rule:evenodd;clip-rule:evenodd;fill:#27527F;}
</style>
<g id="surface1_00000103955597701102914250000005251003009576502202_">
	<path class="st0" d="M200,100c0,55.3-44.7,100-100,100S0,155.3,0,100S44.7,0,100,0S200,44.7,200,100z"/>
</g>
<path class="st1" d="M263.4-7.6"/>
<g>
	<g>
		<g>
			<g>
				<g>
					<defs>
						<rect id="SVGID_1_" x="33.2" y="39.2" width="133.6" height="133.6"/>
					</defs>
					<clipPath id="SVGID_00000045597128201329037370000015583254603067068546_">
						<use xlink:href="#SVGID_1_"  style="overflow:visible;"/>
					</clipPath>
					<g id="surface5" style="clip-path:url(#SVGID_00000045597128201329037370000015583254603067068546_);">
						<path class="st3" d="M37.8,40.7c40.4-0.4,80.8,0,121.1,1.1c1.3,25.7,1.3,51.5-0.5,77.3c-7.6,24.6-23.4,41.6-47.5,50.7
							c-12,2.8-23.5,1.3-34.4-4.2c-22.3-12.2-35-30.7-38.1-55.8C37.8,86.7,37.7,63.7,37.8,40.7z"/>
					</g>
				</g>
			</g>
		</g>
	</g>
	<path class="st4" d="M44.2,47c36.6,0,73.1,0,109.6,0c0.2,20.8,0,41.7-0.5,62.7c-3.7,25-17,42.6-40.1,52.6c-9.4,3.4-18.7,3.4-28.1,0
		c-23.4-10.5-36.8-28.5-40.1-53.7C44.2,88.1,44,67.6,44.2,47z"/>
	<path class="st5" d="M140.1,60.6c0.4,13.7,0,27.3-1.1,40.7C124,90.2,109.1,79,94.1,67.5c-3.4-0.6-6.9-0.6-10.5,0
		c17.6,13.5,35.2,26.7,53.2,39.8c1.5,1.1,2.4,2.4,3.2,4.2c-2.9,15.7-11.4,27.4-25.1,35.5c-13.8,7.2-26.7,5.9-38.7-4.2
		C60.8,130.1,54.7,113.8,58.2,94c19.6,14.6,38.9,29.2,58.5,43.8c1.6-1.6,3.2-3.2,4.8-4.8C100,117.6,79,101.7,58.3,85.6
		c-0.5-8.3-0.6-16.8-0.5-25.1C85.2,60.6,112.7,60.6,140.1,60.6z"/>
	<path class="st6" d="M140.1,60.6c1.3,13.7,1.3,27.7,0,41.7c-0.6-0.1-1-0.5-1.1-1.1C140.1,87.9,140.6,74.4,140.1,60.6z"/>
</g>
</svg>
