<?xml version="1.0" encoding="utf-8"?>
<!-- Generator: Adobe Illustrator 26.4.1, SVG Export Plug-In . SVG Version: 6.00 Build 0)  -->
<svg version="1.1" id="Layer_1" xmlns="http://www.w3.org/2000/svg" xmlns:xlink="http://www.w3.org/1999/xlink" x="0px" y="0px"
	 viewBox="0 0 200 200" style="enable-background:new 0 0 200 200;" xml:space="preserve">
<style type="text/css">
	.st0{fill:#142F52;}
	.st1{fill-rule:evenodd;clip-rule:evenodd;fill:#FBD52E;}
	.st2{clip-path:url(#SVGID_00000161610437836846145430000011643758261738621351_);}
	.st3{fill-rule:evenodd;clip-rule:evenodd;fill:#3BAEE1;}
	.st4{fill-rule:evenodd;clip-rule:evenodd;fill:#142F52;}
	.st5{fill-rule:evenodd;clip-rule:evenodd;fill:#478ECA;}
	.st6{fill-rule:evenodd;clip-rule:evenodd;fill:#27527F;}
</style>
<g id="surface1_00000103955597701102914250000005251003009576502202_">
	<path class="st0" d="M191.4,100c0,50.5-40.9,91.4-91.4,91.4S8.6,150.5,8.6,100S49.5,8.6,100,8.6S191.4,49.5,191.4,100z"/>
</g>
<path class="st1" d="M263.4-7.6"/>
<g>
	<g>
		<g>
			<g>
				<defs>
					<rect id="SVGID_1_" x="45.4" y="51.4" width="109.2" height="109.2"/>
				</defs>
				<clipPath id="SVGID_00000042698138932091616050000004733823281673060492_">
					<use xlink:href="#SVGID_1_"  style="overflow:visible;"/>
				</clipPath>
				<g id="surface5" style="clip-path:url(#SVGID_00000042698138932091616050000004733823281673060492_);">
					<path class="st3" d="M49.2,52.6c33-0.3,66,0,99,0.9c1.1,21,1.1,42.1-0.4,63.2c-6.2,20.1-19.1,34-38.8,41.4
						c-9.8,2.3-19.2,1.1-28.1-3.4c-18.2-10-28.6-25.1-31.1-45.6C49.2,90.2,49.1,71.4,49.2,52.6z"/>
				</g>
			</g>
		</g>
	</g>
	<path class="st4" d="M54.4,57.8c29.9,0,59.7,0,89.6,0c0.2,17,0,34.1-0.4,51.2c-3,20.4-13.9,34.8-32.8,43c-7.7,2.8-15.3,2.8-23,0
		c-19.1-8.6-30.1-23.3-32.8-43.9C54.4,91.4,54.2,74.6,54.4,57.8z"/>
	<path class="st5" d="M132.8,68.9c0.3,11.2,0,22.3-0.9,33.3c-12.3-9.1-24.5-18.3-36.7-27.7c-2.8-0.5-5.6-0.5-8.6,0
		c14.4,11,28.8,21.8,43.5,32.5c1.2,0.9,2,2,2.6,3.4c-2.4,12.8-9.3,22.4-20.5,29c-11.3,5.9-21.8,4.8-31.6-3.4
		C68,125.7,63,112.4,65.8,96.2c16,11.9,31.8,23.9,47.8,35.8c1.3-1.3,2.6-2.6,3.9-3.9c-17.5-12.6-34.7-25.6-51.6-38.8
		c-0.4-6.8-0.5-13.7-0.4-20.5C87.9,68.9,110.4,68.9,132.8,68.9z"/>
	<path class="st6" d="M132.8,68.9c1.1,11.2,1.1,22.6,0,34.1c-0.5-0.1-0.8-0.4-0.9-0.9C132.8,91.2,133.2,80.2,132.8,68.9z"/>
</g>
</svg>
