<?xml version="1.0" encoding="UTF-8"?>
<svg id="Layer_1" data-name="Layer 1" xmlns="http://www.w3.org/2000/svg" xmlns:xlink="http://www.w3.org/1999/xlink" version="1.1" viewBox="0 0 500 500">
  <defs>
    <style>
      .cls-1 {
        fill: url(#linear-gradient);
        stroke-width: 0px;
      }
    </style>
    <linearGradient id="linear-gradient" x1="8.8" y1="251.2" x2="507.1" y2="251.9" gradientTransform="translate(0 499.9) scale(1 -1)" gradientUnits="userSpaceOnUse">
      <stop offset="0" stop-color="#8d29c1"/>
      <stop offset=".2" stop-color="#942bbb"/>
      <stop offset=".5" stop-color="#a92fac"/>
      <stop offset=".7" stop-color="#ca3793"/>
      <stop offset="1" stop-color="#f03f77"/>
      <stop offset="1" stop-color="#f03f77"/>
    </linearGradient>
  </defs>
  <path class="cls-1" d="M250-.6C112.6-.6.9,111.1.9,248.3s57.8,184.1,141.3,224.4v.2h.4c32.5,15.6,69,24.4,107.4,24.4,137.4,0,249.1-111.6,249.1-248.9S387.4-.6,250-.6ZM250,19.9c126,0,228.7,102.5,228.7,228.5s-8.5,70.5-23.5,100.9c-32.9-15.9-66.3-27.8-100.1-35.8V122.8c0-6.6-5.2-11.9-11.8-11.9h-189.4c-6.4,0-11.8,5.3-11.8,11.9v191.5c-32.7,8.1-65.2,19.7-97.2,35-15.1-30.5-23.6-64.8-23.6-101C21.3,122.4,124,19.9,250,19.9ZM58.1,372.3c27.1-13.4,55.2-23.7,84.1-30.8v108.3c-34.2-18.3-63.2-45-84.1-77.4ZM195.8,470.3v-255c0-29.5,24.2-53.9,53.2-53.9s52.4,23.9,52.4,53.3-.1.4-.1.6h.1v88.8c-24.6-2.9-49.4-3.8-74.1-2.5l-20.3,29.5c31.7-2.7,62.6-2.5,93,1,.3,0,.5,0,.8.1.2,0,.4,0,.7.1,5.3.6,24.6,3.1,42.3,7.5l-42.3,14.4v116.9c-16.6,3.8-33.7,5.9-51.3,5.9-18.9-.2-37-2.6-54.4-6.7ZM355,451.2v-109.2c28.8,7.3,57.3,17.9,86,31.8-21.5,32.6-51.1,59.3-86,77.4Z"/>
</svg>