<?xml version="1.0" encoding="utf-8"?>
<svg version="1.1" id="logo" xmlns="http://www.w3.org/2000/svg" xmlns:xlink="http://www.w3.org/1999/xlink" x="0px" y="0px"
	 viewBox="0 0 1000 1000" style="enable-background:new 0 0 1000 1000;" xml:space="preserve">
<style type="text/css">
	.st0{fill:#1D1D1D;}
	.st1{fill:#FFFFFF;}
	.st2{fill:#878787;}
	.st3{fill:#5E5E5E;}
</style>
<circle class="st0" cx="500" cy="500" r="500"/>
<g>
	<path class="st1" d="M211.5,424.4h133.1c7.6,0,13.8-6.2,13.8-13.8V277.4c0-7.6-6.2-13.8-13.8-13.8H211.5c-7.6,0-13.8,6.2-13.8,13.8
		v133.1C197.7,418.2,203.9,424.4,211.5,424.4z"/>
	<path class="st1" d="M522.5,424.4h133.1c7.6,0,13.8-6.2,13.8-13.8V277.4c0-7.6-6.2-13.8-13.8-13.8H522.5c-7.6,0-13.8,6.2-13.8,13.8
		v133.1C508.6,418.2,514.8,424.4,522.5,424.4z"/>
	<path class="st2" d="M739,263.6h-41.2v160.8H739c7.6,0,13.8-6.2,13.8-13.8V277.4C752.8,269.8,746.6,263.6,739,263.6z"/>
	<path class="st3" d="M788.5,263.6H779v160.8h9.5c7.6,0,13.8-6.2,13.8-13.8V277.4C802.3,269.8,796.1,263.6,788.5,263.6z"/>
	<path class="st2" d="M739,575.6h-41.2v160.8H739c7.6,0,13.8-6.2,13.8-13.8V589.4C752.8,581.8,746.6,575.6,739,575.6z"/>
	<path class="st3" d="M788.5,575.6H779v160.8h9.5c7.6,0,13.8-6.2,13.8-13.8V589.4C802.3,581.8,796.1,575.6,788.5,575.6z"/>
	<path class="st1" d="M514.5,433.7c0-7.6-6.2-13.8-13.8-13.8H367.5c-7.6,0-13.8,6.2-13.8,13.8v133.1c0,7.6,6.2,13.8,13.8,13.8h133.1
		c7.6,0,13.8-6.2,13.8-13.8V433.7z"/>
	<path class="st1" d="M659.8,575.6H526.7c-7.6,0-13.8,6.2-13.8,13.8v133.1c0,7.6,6.2,13.8,13.8,13.8h133.1c7.6,0,13.8-6.2,13.8-13.8
		V589.4C673.7,581.8,667.5,575.6,659.8,575.6z"/>
	<path class="st1" d="M344.7,575.6H211.5c-7.6,0-13.8,6.2-13.8,13.8v133.1c0,7.6,6.2,13.8,13.8,13.8h133.1c7.6,0,13.8-6.2,13.8-13.8
		V589.4C358.5,581.8,352.3,575.6,344.7,575.6z"/>
</g>
</svg>
