<?xml version="1.0" encoding="UTF-8"?>
<svg id="Layer_1" data-name="Layer 1" xmlns="http://www.w3.org/2000/svg" version="1.1" viewBox="0 0 500 500">
  <defs>
    <style>
      .cls-1 {
        fill: #00523e;
      }

      .cls-1, .cls-2 {
        stroke-width: 0px;
      }

      .cls-2 {
        fill: #fff;
      }
    </style>
  </defs>
  <path class="cls-1" d="M249.9,499.5c137.8,0,249.6-111.7,249.6-249.6S387.7.3,249.9.3.3,112,.3,249.9s111.7,249.6,249.6,249.6h0Z"/>
  <path class="cls-2" d="M171.8,150.9v38h-42.2v-80.9h240.5v161.7h-42.3v-87.3c-9.4,8-17.9,15.1-26.3,22.2-27.1,23.1-54.2,46.2-81.2,69.3-12.7,10.9-25.4,21.8-34.8,36-7.7,11.6-11.8,24.3-12.7,38.6h154.8v-37.4c13.8,0,26.9-.1,40.1.2.9,0,2.5,3.2,2.5,4.9.2,20,.1,39.9.1,59.9,0,3.9-.1,7.8,0,11.8.1,2.9-1.1,4.1-4,3.9-1.1,0-2.2,0-3.4,0-75.6,0-151.2,0-226.8,0s-4.4,0-6.3,0c0-16.5-.8-32.4.2-48.1,2.4-36.7,20.6-65.6,47.7-89.1,36.1-31.5,72.7-62.3,109.1-93.5,3.7-3.1,7.2-6.3,11.7-10.3h-126.8Z"/>
</svg>
