<?xml version="1.0" encoding="utf-8"?>
<!-- Generator: Adobe Illustrator 26.4.1, SVG Export Plug-In . SVG Version: 6.00 Build 0)  -->
<svg version="1.1" id="Layer_1" xmlns="http://www.w3.org/2000/svg" xmlns:xlink="http://www.w3.org/1999/xlink" x="0px" y="0px"
	 viewBox="0 0 200 200" style="enable-background:new 0 0 200 200;" xml:space="preserve">
<style type="text/css">
	.st0{fill-rule:evenodd;clip-rule:evenodd;fill:#FBD52E;}
	.st1{fill:url(#SVGID_1_);}
	.st2{fill:url(#SVGID_00000137810149346534228090000012668003512007179954_);}
	.st3{fill:url(#SVGID_00000089559309145752028920000009972578853386312615_);}
	.st4{fill:url(#SVGID_00000058557037506920400080000000788477129064750502_);}
	.st5{fill:url(#SVGID_00000134942945516655502910000015493968142315237300_);}
	.st6{fill:url(#SVGID_00000093857892746319930280000017943136337016366726_);}
	.st7{fill:url(#SVGID_00000004511227933162377530000000289002747359929275_);}
</style>
<path class="st0" d="M263.4-7.6"/>
<g id="surface1">
	
		<linearGradient id="SVGID_1_" gradientUnits="userSpaceOnUse" x1="2460.4011" y1="6037.9629" x2="3239.6719" y2="5258.6924" gradientTransform="matrix(0.2 0 0 0.2 -472.8 -1027.178)">
		<stop  offset="0" style="stop-color:#009DDE"/>
		<stop  offset="0.5" style="stop-color:#694D9F"/>
		<stop  offset="1" style="stop-color:#ED3554"/>
	</linearGradient>
	<path class="st1" d="M60.7,144.9l-45.9,5.2L41.7,88L14.2,50.4l67-7.6L99.5,0.9L139.4,55l45.9-5.2l-26.8,61.7l27.4,37.3l-66.6,7.6
		L100.8,199L60.7,144.9z M79.8,140.8c-1.8,0.8-3.7,1.6-5.6,2.1l-1.8,0.5l25.9,35.1l9.2-21.1l-1.7-0.2c-9.1-1.1-17.3-6-22.6-13.3
		l-2.5-3.6L79.8,140.8z M70.8,109l20.9,28.9c4.2,5.9,11.1,9.4,18.3,9.4c0.8,0,1.7,0,2.5-0.1l54.4-6.2l-21.7-29.5
		c-1-1.5-2.3-2.7-3.7-3.9l-1.2-1l-15.5,35l-27-35.7L70.8,109z M71.6,73.9c-8.1,0.8-15.1,6-18.3,13.5l-21.8,50.4l36.2-4.1
		c1.8-0.2,3.6-0.6,5.3-1.2l1.6-0.6l-22.5-31.1l44.3-5.6L107,69.9L71.6,73.9z M106,99.3l16.5,21.7l10-22.6l4.5-9.9
		c3.3-7.5,2.3-16.2-2.5-22.7l-32.5-44.3L87.2,55.1c-0.7,1.7-1.2,3.4-1.6,5.2l-0.3,1.7l37.9-4L106,99.3z M145.9,64.8l0.6,1.6
		c3.5,8.4,3.5,18-0.2,26.3l-1.8,4l0.8,0.5c1.7,1,3.2,2.4,4.7,3.8l1.2,1.2l17.4-40.1L145.9,64.8z M33.2,58.7L47,77.5l1-1.3
		c5.5-7.1,13.7-11.8,22.6-12.7l4.3-0.4l0.1-1c0.1-2.2,0.5-4.3,1-6.4l0.5-1.8L33.2,58.7z"/>
	
		<linearGradient id="SVGID_00000124878655210690724580000008342442412875580304_" gradientUnits="userSpaceOnUse" x1="2545.5999" y1="6123.1616" x2="3324.8704" y2="5343.8906" gradientTransform="matrix(0.2 0 0 0.2 -472.8 -1027.178)">
		<stop  offset="0" style="stop-color:#009DDE"/>
		<stop  offset="0.5" style="stop-color:#694D9F"/>
		<stop  offset="1" style="stop-color:#ED3554"/>
	</linearGradient>
	<path style="fill:url(#SVGID_00000124878655210690724580000008342442412875580304_);" d="M90.3,199.9
		c-28.8-2.7-54.6-17.7-71.5-41.4l11.6-1.2c1.9,2.3,4,4.7,6,6.7c12.5,12.6,28.3,21.2,45.6,24.6L90.3,199.9z"/>
	
		<linearGradient id="SVGID_00000142159489468465623910000000751228531892230332_" gradientUnits="userSpaceOnUse" x1="2767.5671" y1="6345.1289" x2="3546.8379" y2="5565.8579" gradientTransform="matrix(0.2 0 0 0.2 -472.8 -1027.178)">
		<stop  offset="0" style="stop-color:#009DDE"/>
		<stop  offset="0.5" style="stop-color:#694D9F"/>
		<stop  offset="1" style="stop-color:#ED3554"/>
	</linearGradient>
	<path style="fill:url(#SVGID_00000142159489468465623910000000751228531892230332_);" d="M114.4,189.1
		c18.6-3.1,35.6-11.8,49.1-25.3c1.1-1.2,2.4-2.5,3.7-3.9l14-1.6c-16.9,23.7-42.7,38.7-71.4,41.5L114.4,189.1z"/>
	
		<linearGradient id="SVGID_00000028320225153610162050000008617540484526020531_" gradientUnits="userSpaceOnUse" x1="2688.7844" y1="6266.3457" x2="3468.0549" y2="5487.0752" gradientTransform="matrix(0.2 0 0 0.2 -472.8 -1027.178)">
		<stop  offset="0" style="stop-color:#009DDE"/>
		<stop  offset="0.5" style="stop-color:#694D9F"/>
		<stop  offset="1" style="stop-color:#ED3554"/>
	</linearGradient>
	<path style="fill:url(#SVGID_00000028320225153610162050000008617540484526020531_);" d="M184.1,132c3.8-10.2,5.8-21,5.8-32
		c0-9.8-1.6-19.4-4.6-28.5l5.6-12.9c5.9,13,9,27,9,41.5c0,14.4-3,28.4-8.9,41.4L184.1,132z"/>
	
		<linearGradient id="SVGID_00000119808026840404524530000014632841302052071857_" gradientUnits="userSpaceOnUse" x1="2233.7983" y1="5811.3599" x2="3013.0691" y2="5032.0894" gradientTransform="matrix(0.2 0 0 0.2 -472.8 -1027.178)">
		<stop  offset="0" style="stop-color:#009DDE"/>
		<stop  offset="0.5" style="stop-color:#694D9F"/>
		<stop  offset="1" style="stop-color:#ED3554"/>
	</linearGradient>
	<path style="fill:url(#SVGID_00000119808026840404524530000014632841302052071857_);" d="M9.1,141.6c-5.9-13-9-27.1-9-41.6
		c0-14.6,3.1-28.7,9.1-41.7l6.8,9.4c-3.9,10.3-5.9,21.2-5.9,32.4c0,9.8,1.6,19.4,4.6,28.6L9.1,141.6z"/>
	
		<linearGradient id="SVGID_00000169551397379994649300000016885429730390983080_" gradientUnits="userSpaceOnUse" x1="2154.6189" y1="5732.1807" x2="2933.8894" y2="4952.9097" gradientTransform="matrix(0.2 0 0 0.2 -472.8 -1027.178)">
		<stop  offset="0" style="stop-color:#009DDE"/>
		<stop  offset="0.5" style="stop-color:#694D9F"/>
		<stop  offset="1" style="stop-color:#ED3554"/>
	</linearGradient>
	<path style="fill:url(#SVGID_00000169551397379994649300000016885429730390983080_);" d="M19.1,41C36,17.7,61.7,2.8,90.2,0.1
		l-4.7,10.8c-18.6,3-35.7,11.8-49.2,25.2c-1,1-2,2.1-3.1,3.3L19.1,41z"/>
	
		<linearGradient id="SVGID_00000070102948535109325760000006983219190039511199_" gradientUnits="userSpaceOnUse" x1="2377.1099" y1="5954.6714" x2="3156.3806" y2="5175.4014" gradientTransform="matrix(0.2 0 0 0.2 -472.8 -1027.178)">
		<stop  offset="0" style="stop-color:#009DDE"/>
		<stop  offset="0.5" style="stop-color:#694D9F"/>
		<stop  offset="1" style="stop-color:#ED3554"/>
	</linearGradient>
	<path style="fill:url(#SVGID_00000070102948535109325760000006983219190039511199_);" d="M169.7,42.9c-1.9-2.3-4-4.7-6.1-6.7
		c-12.5-12.6-28.3-21.1-45.5-24.6l-8.3-11.4c28.7,2.8,54.5,17.8,71.4,41.4L169.7,42.9z"/>
</g>
</svg>
