<?xml version="1.0" encoding="utf-8"?>
<!-- Generator: Adobe Illustrator 26.4.1, SVG Export Plug-In . SVG Version: 6.00 Build 0)  -->
<svg version="1.1" id="Layer_1" xmlns="http://www.w3.org/2000/svg" xmlns:xlink="http://www.w3.org/1999/xlink" x="0px" y="0px"
	 viewBox="0 0 200 200" style="enable-background:new 0 0 200 200;" xml:space="preserve">
<style type="text/css">
	.st0{fill-rule:evenodd;clip-rule:evenodd;fill:#FBD52E;}
	.st1{fill:url(#SVGID_1_);}
	.st2{fill:url(#SVGID_00000091009122491411444160000006313396821403591593_);}
	.st3{fill:url(#SVGID_00000122686933763765326800000018415857323671592095_);}
	.st4{fill:url(#SVGID_00000056429849135896336980000004566219911341940113_);}
	.st5{fill:url(#SVGID_00000170262074244501557640000007514760859895478169_);}
	.st6{fill:url(#SVGID_00000053524129253979723880000000001219609457594299_);}
	.st7{fill:url(#SVGID_00000125581658687645932800000005117289711242013618_);}
</style>
<path class="st0" d="M263.4-7.6"/>
<g id="surface1">
	
		<linearGradient id="SVGID_1_" gradientUnits="userSpaceOnUse" x1="905.014" y1="2804.8757" x2="1644.4351" y2="2065.4548" gradientTransform="matrix(0.2 0 0 0.2 -157.6 -385.178)">
		<stop  offset="0" style="stop-color:#009DDE"/>
		<stop  offset="0.5" style="stop-color:#694D9F"/>
		<stop  offset="1" style="stop-color:#ED3554"/>
	</linearGradient>
	<path class="st1" d="M62.7,142.1L19.2,147l25.5-58.9L18.6,52.4l63.6-7.2L99.5,5.5l37.8,51.4l43.5-4.9l-25.4,58.6l26,35.4l-63.2,7.2
		l-17.5,40.3L62.7,142.1z M80.8,138.2c-1.7,0.8-3.5,1.5-5.3,2l-1.7,0.5L98.4,174l8.7-20l-1.6-0.2c-8.6-1.1-16.4-5.7-21.4-12.6
		l-2.4-3.4L80.8,138.2z M72.3,108l19.8,27.4c4,5.6,10.5,8.9,17.4,8.9c0.8,0,1.6,0,2.4-0.1l51.6-5.9l-20.6-28c-1-1.4-2.2-2.6-3.5-3.7
		l-1.2-1l-14.7,33.2l-25.6-33.9L72.3,108z M73.1,74.7c-7.7,0.8-14.3,5.7-17.4,12.8L35,135.3l34.4-3.9c1.7-0.2,3.4-0.6,5-1.2l1.5-0.6
		l-21.3-29.4l42-5.3l10-23.9L73.1,74.7z M105.7,98.8l15.6,20.6l9.5-21.4l4.2-9.4c3.1-7.1,2.2-15.3-2.4-21.5l-30.8-42l-14,31.8
		c-0.7,1.6-1.2,3.2-1.5,4.9L86,63.4l36-3.8L105.7,98.8z M143.5,66.1l0.6,1.5c3.3,8,3.3,17.1-0.2,25l-1.7,3.8l0.8,0.5
		c1.6,1,3,2.3,4.4,3.6l1.2,1.2l16.5-38L143.5,66.1z M36.6,60.3l13.1,17.9l1-1.3c5.2-6.8,13-11.2,21.4-12.1l4.1-0.4l0.1-1
		c0.1-2.1,0.5-4.1,1-6.1l0.5-1.7L36.6,60.3z"/>
	
		<linearGradient id="SVGID_00000168813667749038107960000007018425639124475818_" gradientUnits="userSpaceOnUse" x1="985.7639" y1="2885.626" x2="1725.1851" y2="2146.2048" gradientTransform="matrix(0.2 0 0 0.2 -157.6 -385.178)">
		<stop  offset="0" style="stop-color:#009DDE"/>
		<stop  offset="0.5" style="stop-color:#694D9F"/>
		<stop  offset="1" style="stop-color:#ED3554"/>
	</linearGradient>
	<path style="fill:url(#SVGID_00000168813667749038107960000007018425639124475818_);" d="M90.8,194.3C63.5,191.7,39,177.5,22.9,155
		l11-1.2c1.8,2.2,3.8,4.4,5.7,6.4c11.9,12,26.8,20.1,43.2,23.4L90.8,194.3z"/>
	
		<linearGradient id="SVGID_00000183238673144079491490000001077776065021380027_" gradientUnits="userSpaceOnUse" x1="1196.6449" y1="3096.5066" x2="1936.0658" y2="2357.0857" gradientTransform="matrix(0.2 0 0 0.2 -157.6 -385.178)">
		<stop  offset="0" style="stop-color:#009DDE"/>
		<stop  offset="0.5" style="stop-color:#694D9F"/>
		<stop  offset="1" style="stop-color:#ED3554"/>
	</linearGradient>
	<path style="fill:url(#SVGID_00000183238673144079491490000001077776065021380027_);" d="M113.7,184.1c17.7-2.9,33.8-11.2,46.6-24
		c1.1-1.2,2.3-2.4,3.5-3.7l13.3-1.5c-16,22.5-40.5,36.7-67.8,39.4L113.7,184.1z"/>
	
		<linearGradient id="SVGID_00000054239604935982838020000013451910262643953540_" gradientUnits="userSpaceOnUse" x1="1121.7639" y1="3021.6257" x2="1861.1849" y2="2282.2048" gradientTransform="matrix(0.2 0 0 0.2 -157.6 -385.178)">
		<stop  offset="0" style="stop-color:#009DDE"/>
		<stop  offset="0.5" style="stop-color:#694D9F"/>
		<stop  offset="1" style="stop-color:#ED3554"/>
	</linearGradient>
	<path style="fill:url(#SVGID_00000054239604935982838020000013451910262643953540_);" d="M179.8,129.9c3.6-9.7,5.5-19.9,5.5-30.4
		c0-9.3-1.5-18.4-4.3-27l5.3-12.3c5.6,12.4,8.5,25.6,8.5,39.4c0,13.7-2.8,26.9-8.4,39.3L179.8,129.9z"/>
	
		<linearGradient id="SVGID_00000035525525407038123710000004348932915331800251_" gradientUnits="userSpaceOnUse" x1="690.0139" y1="2589.8757" x2="1429.4352" y2="1850.455" gradientTransform="matrix(0.2 0 0 0.2 -157.6 -385.178)">
		<stop  offset="0" style="stop-color:#009DDE"/>
		<stop  offset="0.5" style="stop-color:#694D9F"/>
		<stop  offset="1" style="stop-color:#ED3554"/>
	</linearGradient>
	<path style="fill:url(#SVGID_00000035525525407038123710000004348932915331800251_);" d="M13.7,139c-5.6-12.4-8.5-25.7-8.5-39.5
		c0-13.9,2.9-27.2,8.6-39.6l6.5,8.9c-3.7,9.8-5.6,20.1-5.6,30.7c0,9.3,1.5,18.4,4.3,27.1L13.7,139z"/>
	
		<linearGradient id="SVGID_00000098204901536333474040000007089530181580673204_" gradientUnits="userSpaceOnUse" x1="614.868" y1="2514.73" x2="1354.2889" y2="1775.3088" gradientTransform="matrix(0.2 0 0 0.2 -157.6 -385.178)">
		<stop  offset="0" style="stop-color:#009DDE"/>
		<stop  offset="0.5" style="stop-color:#694D9F"/>
		<stop  offset="1" style="stop-color:#ED3554"/>
	</linearGradient>
	<path style="fill:url(#SVGID_00000098204901536333474040000007089530181580673204_);" d="M23.3,43.5c16-22.1,40.4-36.2,67.4-38.8
		l-4.4,10.2c-17.7,2.8-33.9,11.2-46.7,24c-1,1-1.9,2-2.9,3.1L23.3,43.5z"/>
	
		<linearGradient id="SVGID_00000057829615249991050000000009748898009397590411_" gradientUnits="userSpaceOnUse" x1="825.8888" y1="2725.7507" x2="1565.3099" y2="1986.33" gradientTransform="matrix(0.2 0 0 0.2 -157.6 -385.178)">
		<stop  offset="0" style="stop-color:#009DDE"/>
		<stop  offset="0.5" style="stop-color:#694D9F"/>
		<stop  offset="1" style="stop-color:#ED3554"/>
	</linearGradient>
	<path style="fill:url(#SVGID_00000057829615249991050000000009748898009397590411_);" d="M166.1,45.3c-1.8-2.2-3.8-4.4-5.8-6.4
		c-11.9-12-26.8-20-43.1-23.4l-7.9-10.8C136.5,7.4,161,21.6,177.1,44L166.1,45.3z"/>
</g>
</svg>
