<?xml version="1.0" encoding="UTF-8"?>
<svg xmlns="http://www.w3.org/2000/svg" xmlns:xlink="http://www.w3.org/1999/xlink" width="200px" height="px" viewBox="0 0 200 200" version="1.1">
<g id="surface1">
<path style=" stroke:none;fill-rule:nonzero;fill:rgb(7.058824%,6.666667%,13.333333%);fill-opacity:1;" d="M 0 100 C 0 119.777344 5.863281 139.113281 16.851562 155.558594 C 27.839844 172 43.460938 184.820312 61.730469 192.386719 C 80.003906 199.957031 100.109375 201.9375 119.507812 198.078125 C 138.90625 194.21875 156.726562 184.695312 170.710938 170.710938 C 184.695312 156.726562 194.21875 138.90625 198.078125 119.507812 C 201.9375 100.109375 199.957031 80.003906 192.386719 61.730469 C 184.820312 43.460938 172 27.839844 155.558594 16.851562 C 139.113281 5.863281 119.777344 0 100 0 C 73.476562 0 48.042969 10.535156 29.289062 29.289062 C 10.535156 48.042969 0 73.476562 0 100 Z M 0 100 "/>
<path style=" stroke:none;fill-rule:evenodd;fill:rgb(94.901961%,95.686275%,97.254902%);fill-opacity:1;" d="M 30.171875 74.660156 C 28.949219 82.527344 30.390625 90.621094 31.882812 98.398438 C 32.460938 99.640625 33.722656 100.480469 35.277344 101.015625 C 32.085938 107.75 30.332031 115.089844 30.332031 122.777344 C 30.332031 155.328125 61.84375 181.738281 100.710938 181.738281 C 139.578125 181.738281 171.109375 155.390625 171.109375 122.777344 C 171.109375 115.011719 169.320312 107.597656 166.070312 100.808594 C 167.371094 100.269531 168.410156 99.492188 168.917969 98.398438 C 170.410156 90.621094 171.84375 82.527344 170.621094 74.660156 C 169.476562 64.105469 165.855469 60.882812 154.976562 63.589844 C 149.445312 64.875 142.152344 68.140625 136.542969 71.980469 C 126.042969 66.773438 113.792969 63.78125 100.710938 63.78125 C 87.480469 63.78125 75.097656 66.84375 64.523438 72.167969 C 58.882812 68.246094 51.441406 64.894531 45.820312 63.589844 C 34.9375 60.882812 31.320312 64.105469 30.171875 74.660156 Z M 71.148438 121.199219 C 62.898438 117.5625 48.800781 118.484375 48.800781 118.484375 C 48.800781 118.484375 49.460938 131.753906 57.554688 136.261719 C 67.15625 141.601562 85.003906 138.957031 85.003906 138.957031 C 85.003906 138.957031 83.488281 126.609375 71.148438 121.171875 Z M 116.988281 138.976562 C 116.988281 138.976562 134.839844 141.621094 144.4375 136.28125 C 152.53125 131.777344 153.195312 118.503906 153.195312 118.503906 C 153.195312 118.503906 139.09375 117.582031 130.84375 121.222656 C 118.503906 126.609375 116.988281 138.925781 116.988281 138.925781 Z M 97.1875 148.332031 C 97.1875 149.3125 99.003906 150.105469 101.242188 150.105469 C 103.484375 150.105469 105.300781 149.3125 105.300781 148.332031 C 105.300781 147.355469 103.484375 146.566406 101.242188 146.566406 C 99.003906 146.566406 97.1875 147.328125 97.1875 148.332031 Z M 97.1875 148.332031 "/>
<path style=" stroke:none;fill-rule:evenodd;fill:rgb(94.901961%,95.686275%,97.254902%);fill-opacity:1;" d="M 180.917969 140.160156 C 174.328125 137.617188 167.332031 136.300781 160.273438 136.273438 L 160.28125 136.273438 C 158.496094 136.273438 158.496094 133.496094 160.28125 133.496094 C 167.59375 133.519531 174.84375 134.875 181.667969 137.5 C 182.011719 137.605469 182.304688 137.839844 182.484375 138.152344 C 182.660156 138.46875 182.714844 138.839844 182.628906 139.1875 C 182.527344 139.542969 182.292969 139.84375 181.972656 140.027344 C 181.652344 140.207031 181.273438 140.257812 180.917969 140.160156 Z M 20.21875 137.5625 C 27.042969 134.9375 34.292969 133.578125 41.605469 133.554688 L 41.605469 133.570312 C 43.394531 133.570312 43.390625 136.351562 41.605469 136.351562 C 34.542969 136.375 27.542969 137.691406 20.957031 140.238281 C 20.601562 140.332031 20.222656 140.285156 19.902344 140.101562 C 19.585938 139.921875 19.351562 139.621094 19.25 139.265625 C 19.160156 138.914062 19.210938 138.539062 19.394531 138.21875 C 19.574219 137.902344 19.867188 137.667969 20.21875 137.5625 Z M 34.378906 145.523438 C 37.792969 144.433594 41.347656 143.839844 44.933594 143.75 C 46.710938 143.761719 46.707031 146.527344 44.921875 146.527344 C 41.652344 146.613281 38.414062 147.15625 35.292969 148.144531 C 32.394531 148.996094 29.078125 150.195312 26.960938 152.15625 C 25.648438 153.371094 23.683594 151.410156 25 150.195312 C 27.574219 147.816406 31.113281 146.503906 34.378906 145.523438 Z M 44.933594 143.75 L 44.921875 143.75 Z M 48.101562 150.6875 C 45.3125 151.882812 42.636719 153.3125 40.09375 154.960938 C 37.527344 156.542969 35.269531 158.578125 33.429688 160.964844 C 33.242188 161.285156 33.191406 161.664062 33.285156 162.019531 C 33.375 162.375 33.605469 162.679688 33.921875 162.867188 C 34.242188 163.042969 34.621094 163.09375 34.972656 163 C 35.328125 162.90625 35.632812 162.683594 35.828125 162.371094 C 37.390625 160.214844 39.628906 158.542969 41.84375 157.117188 C 44.277344 155.574219 46.832031 154.226562 49.476562 153.089844 C 49.792969 152.902344 50.023438 152.597656 50.117188 152.242188 C 50.210938 151.886719 50.160156 151.507812 49.976562 151.1875 C 49.785156 150.878906 49.480469 150.652344 49.128906 150.558594 C 48.773438 150.46875 48.398438 150.511719 48.078125 150.6875 Z M 156.945312 146.472656 C 160.214844 146.554688 163.457031 147.09375 166.574219 148.082031 C 168.183594 148.542969 169.757812 149.121094 171.277344 149.820312 C 172.589844 150.394531 173.808594 151.164062 174.894531 152.101562 C 176.207031 153.3125 178.171875 151.355469 176.863281 150.132812 C 174.304688 147.761719 170.789062 146.445312 167.5 145.460938 C 164.082031 144.375 160.53125 143.777344 156.945312 143.695312 C 155.15625 143.695312 155.152344 146.472656 156.945312 146.472656 Z M 160.011719 157.03125 C 157.609375 155.546875 155.097656 154.246094 152.496094 153.144531 L 152.496094 153.117188 C 152.179688 152.929688 151.953125 152.625 151.859375 152.269531 C 151.765625 151.914062 151.8125 151.535156 151.996094 151.21875 C 152.191406 150.90625 152.496094 150.683594 152.851562 150.59375 C 153.203125 150.5 153.578125 150.546875 153.902344 150.722656 C 159.3125 153.082031 165.007812 156.117188 168.546875 161 C 168.726562 161.316406 168.78125 161.695312 168.6875 162.050781 C 168.59375 162.40625 168.367188 162.710938 168.050781 162.898438 C 167.730469 163.078125 167.355469 163.125 167 163.03125 C 166.644531 162.9375 166.34375 162.710938 166.152344 162.398438 C 164.550781 160.195312 162.289062 158.484375 160.011719 157.03125 Z M 160.011719 157.03125 "/>
<path style=" stroke:none;fill-rule:nonzero;fill:rgb(40%,39.607843%,86.666667%);fill-opacity:1;" d="M 9.660156 105.476562 C 10.945312 103.476562 22.222656 97.460938 36.175781 93.890625 C 39.191406 85.335938 42.90625 77.046875 47.289062 69.105469 C 47.234375 69.105469 58.449219 48.972656 58.398438 48.960938 C 55.183594 47.496094 52.09375 45.765625 49.167969 43.789062 C 48.671875 43.40625 48.222656 42.96875 47.828125 42.484375 C 47.53125 41.992188 47.375 41.429688 47.382812 40.855469 C 47.382812 40.390625 48.042969 39.554688 48.339844 39.1875 C 49.089844 38.304688 49.917969 37.492188 50.816406 36.753906 C 52.957031 35.003906 55.203125 33.390625 57.542969 31.921875 C 58.65625 31.1875 59.8125 30.472656 60.949219 29.75 C 68.949219 24.65625 73.332031 20.820312 80.660156 16.609375 C 87.660156 12.601562 91.0625 10.128906 99.175781 10.542969 C 109.378906 10.542969 134.734375 42.84375 146.167969 59.488281 C 153.023438 69.488281 162.222656 87.496094 165.609375 94.265625 C 166.421875 94.472656 167.15625 94.667969 167.832031 94.867188 C 178.234375 97.988281 188.433594 102.566406 190.925781 105.476562 C 193.148438 108.066406 183.4375 109.222656 173.867188 110.890625 C 164.292969 112.554688 131.820312 113.382812 100.617188 113.59375 C 69.410156 113.804688 32.988281 112.761719 25.0625 111.511719 C 17.132812 110.261719 8.066406 107.972656 9.660156 105.476562 Z M 9.660156 105.476562 "/>
<path style=" stroke:none;fill-rule:nonzero;fill:rgb(100%,60%,64.705882%);fill-opacity:1;" d="M 156.910156 77.578125 C 156.910156 77.578125 136.355469 72.429688 100.140625 72.429688 C 61.25 72.429688 42.523438 78.429688 42.523438 78.429688 C 42.523438 78.429688 40.300781 82.648438 39.332031 85.09375 C 38.367188 87.539062 36.175781 93.890625 36.175781 93.890625 C 36.175781 93.890625 64.472656 88.824219 100.683594 88.824219 C 122.488281 88.914062 144.25 90.75 165.761719 94.324219 C 165.761719 94.324219 162.476562 86.640625 160.511719 83.359375 C 158.542969 80.082031 156.910156 77.578125 156.910156 77.578125 Z M 156.910156 77.578125 "/>
<path style=" stroke:none;fill-rule:nonzero;fill:rgb(100%,90.196078%,0%);fill-opacity:1;" d="M 34.570312 34.128906 C 36.925781 33.785156 40.128906 40.996094 40.128906 40.996094 C 40.128906 40.996094 47.539062 39 48.695312 40.996094 C 49.851562 42.988281 43.484375 47.777344 43.484375 47.777344 C 43.484375 47.777344 47.328125 54.539062 46.109375 55.945312 C 44.894531 57.351562 38.039062 53.082031 38.039062 53.082031 C 38.039062 53.082031 32.8125 58.972656 31.105469 58.082031 C 29.398438 57.195312 31.332031 49.523438 31.332031 49.523438 C 31.332031 49.523438 23.9375 46.378906 24.445312 44.511719 C 24.949219 42.644531 32.65625 42.078125 32.65625 42.078125 C 32.65625 42.078125 32.222656 34.472656 34.570312 34.128906 Z M 34.570312 34.128906 "/>
</g>
</svg>
