<?xml version="1.0" standalone="no"?>
<!DOCTYPE svg PUBLIC "-//W3C//DTD SVG 1.0//EN" "http://www.w3.org/TR/2001/REC-SVG-20010904/DTD/svg10.dtd">
<svg xmlns="http://www.w3.org/2000/svg" xmlns:xlink="http://www.w3.org/1999/xlink" id="body_1" width="400" height="400">

<g transform="matrix(0.390625 0 0 0.390625 0 0)">
    <path d="M1024 512C 1024 653.3849 974.01294 774.06445 874.0387 874.0387C 774.06445 974.01294 653.3849 1024 512 1024C 370.6151 1024 249.93558 974.01294 149.96133 874.0387C 49.987114 774.06445 0 653.3849 0 512C 0 370.6151 49.987114 249.93558 149.96133 149.96133C 249.93558 49.987114 370.6151 0 512 0C 653.3849 0 774.06445 49.987114 874.0387 149.96133C 974.01294 249.93558 1024 370.6151 1024 512C 1024 517.958 1023.89606 523.9142 1023.6881 529.8685" stroke="none" fill="#FB542B" fill-rule="nonzero" />
    <path d="M586.5 266.2C 589.5 266.2 592.4 267.5 594.3 269.80002L594.3 269.80002L632.7 314.1L634.2 313.80002C 643.4 312.2 653 311.6 662.10004 312.6C 673.80005 314 683.80005 318.1 691.2 325.6C 699 333.5 706.7 341.6 714 349.4C 716.6 352.1 718.9 354.6 721 356.9C 721.7 357.69998 722.4 358.4 722.9 359C 726.30005 362.8 727.10004 367.2 725.60004 371L725.60004 371L715.7 395.8L728.9 434.19998C 729.60004 436.19998 729.7 438.4 729.10004 440.4C 729.00006 440.8 729.00006 440.8 728.60004 442.5C 728.00006 444.9 728.00006 444.9 727.10004 448.4C 725.50006 454.69998 723.60004 461.8 721.7 469.4C 716.10004 491.19998 710.4 513 705.2 533.3C 692.2 583.5 683.7 616.6 681.7 624.89996C 670.5 669.8 661.7 685.39996 633.10004 705.89996C 608.00006 723.89996 555.7 759.89996 545.7 766.3C 544.7 766.89996 543.7 767.6 542.3 768.6C 541.8 769 539.1 770.8 538.3 771.3C 533.39996 774.7 529.89996 776.8 526.2 778.6C 521.4 780.8 516.9 782.1 512.2 782.1C 507.6 782.1 503 780.8 498.2 778.6C 494.40002 776.8 491 774.69995 486.1 771.3C 485.30002 770.8 482.7 768.89996 482.1 768.6C 480.7 767.6 479.6 766.89996 478.7 766.3C 468.6 759.89996 416.30002 723.8 391.30002 705.89996C 362.7 685.39996 353.80002 669.8 342.7 624.89996C 334.5039 592.9619 327.45703 565.6211 319.2 533.69995C 313.80002 512.99994 308.2 491.19995 302.6 469.39996C 300.6 461.79996 298.80002 454.69995 297.1 448.39996C 296.2 444.89996 296.2 444.89996 295.6 442.49997C 295.2 440.79996 295.2 440.79996 295.1 440.39996C 294.6 438.29996 294.7 436.19995 295.30002 434.19995L295.30002 434.19995L308.50003 395.79996L298.60004 370.99997C 297.10004 367.19998 297.90002 362.79996 300.60004 359.79996C 301.80005 358.49997 302.50003 357.79996 303.20004 356.99997C 305.30005 354.79996 307.60004 352.29996 310.20004 349.49997C 317.50003 341.69998 325.20004 333.59998 333.00003 325.69998C 340.40002 318.09998 350.40002 314.09998 362.10004 312.69998C 371.20004 311.59998 380.80005 312.19998 390.00003 313.9L390.00003 313.9L391.50003 314.19998L429.90002 269.9C 431.90002 267.6 434.7 266.3 437.7 266.3L437.7 266.3L586.5 266.3L586.5 266.2zM581.8 287.40002L442.2 287.40002L402.90002 332.90002C 400.30002 336.00003 396.10004 337.2 392.30002 336.10004C 392.1 336.00003 391.6 335.90002 390.80002 335.70004C 389.50003 335.40005 387.90002 335.10004 386.2 334.80005C 378.80002 333.50006 371.2 333.00006 364.30002 333.80005C 356.90002 334.70004 351.2 337.00006 347.50003 340.80005C 339.90002 348.60004 332.20004 356.50006 325.00003 364.20004C 323.30002 366.00003 321.70004 367.70004 320.20004 369.30005L320.20004 369.30005L329.10004 391.50006C 330.10004 393.90005 330.10004 396.60007 329.30005 399.00006L329.30005 399.00006L315.90005 438.10007C 316.30005 439.50006 316.40005 440.00006 317.20004 442.90005C 318.80005 449.20004 320.70004 456.30005 322.60004 463.90005C 328.20004 485.70004 333.90002 507.50006 339.10004 527.80005C 352.10004 578.2001 360.60004 611.2001 362.70004 619.50006C 372.70004 659.9001 379.10004 671.10004 403.10004 688.30005C 427.90002 706.10004 479.90002 741.9 489.60004 748.10004C 490.80005 748.9 492.10004 749.7 493.70004 750.80005C 494.30005 751.2001 496.90005 753.00006 497.60004 753.50006C 501.60004 756.30005 504.30005 757.9001 506.90002 759.10004C 509.10004 760.2 510.90002 760.60004 512 760.60004C 513.2 760.60004 514.9 760.10004 517.1 759.10004C 519.6 757.9 522.3 756.2 526.3 753.50006C 527 753.00006 529.7 751.2001 530.3 750.80005C 531.89996 749.7001 533.2 748.80005 534.39996 748.10004C 544.1 741.9 596.1 706.10004 620.89996 688.30005C 644.89996 671.10004 651.3 659.9 661.3 619.50006C 663.39996 611.2001 671.89996 578.10004 684.8 528.10004C 690.2 507.40002 695.8 485.60004 701.39996 463.80005C 703.39996 456.20004 705.19995 449.10004 706.8 442.80005C 707.6 439.90005 707.7 439.40005 708.1 438.00006L708.1 438.00006L694.69995 399.00006C 693.89996 396.60007 693.89996 393.90005 694.89996 391.50006L694.89996 391.50006L703.8 369.30005C 702.3 367.70004 700.7 366.00006 699 364.20004C 691.8 356.50003 684.1 348.60004 676.5 340.80005C 672.8 337.00006 667.1 334.70004 659.7 333.80005C 652.9 333.00006 645.2 333.50006 637.8 334.80005C 636.1 335.10004 634.6 335.40005 633.2 335.70004C 632.4 335.90005 631.9 336.00003 631.7 336.10004C 627.8 337.20004 623.7 335.90002 621.10004 332.90002L621.10004 332.90002L581.80005 287.40002zM512 584.7C 514.8 584.7 533 591.2 547.6 598.9C 562.19995 606.60004 572.8 612 576.1 614.2C 579.5 616.3 577.39996 620.4 574.3 622.60004C 571.2 624.80005 529.8 657.50006 525.8 661.10004C 521.8 664.7 515.89996 670.7 511.9 670.7C 507.90002 670.7 502 664.7 498 661.10004C 494 657.50006 452.6 624.9 449.5 622.60004C 446.4 620.4 444.4 616.30005 447.7 614.2C 451.1 612 461.7 606.60004 476.2 598.9C 491 591.2 509.2 584.7 512 584.7zM512.1 352.2C 512.8 352.2 520.89996 352.40002 532.69995 356.40002C 545.1 360.60004 558.6 365.90002 564.7999 365.90002C 570.9999 365.90002 617.0999 356.90002 617.0999 356.90002C 617.0999 356.90002 671.6999 424.10004 671.6999 438.50003C 671.6999 452.90002 664.79987 456.70004 657.8999 464.10004C 650.9999 471.60004 620.7999 504.20004 616.9999 508.40002C 613.09985 512.60004 605.09985 518.9 609.79987 530.4C 614.4999 541.80005 621.4999 556.4 613.79987 571.10004C 605.9999 585.9 592.6999 595.7 584.09985 594.10004C 575.59985 592.50006 555.4999 581.80005 548.09985 576.9C 540.6998 572 517.29987 552.4 517.29987 544.9C 517.29987 537.4 541.4999 523.9 545.89984 520.80005C 550.39984 517.7001 570.6998 505.90005 571.09985 501.20004C 571.4999 496.50003 571.39984 495.20004 565.29987 483.70004C 559.29987 472.20004 548.4999 456.80005 550.29987 446.60004C 552.09985 436.40002 569.59985 431.10004 581.9999 426.30005C 594.3999 421.50006 618.3999 412.50006 621.3999 411.10004C 624.3999 409.70004 623.5999 408.40002 614.5999 407.50003C 605.49994 406.60004 579.7999 403.10004 568.1999 406.40002C 556.5999 409.7 536.79987 414.7 535.0999 417.40002C 533.49994 420.10004 532.0999 420.10004 533.6999 429.30002C 535.3999 438.50003 543.79987 482.50003 544.6999 490.30002C 545.4999 498.1 547.0999 503.30002 538.8999 505.2C 530.5999 507.1 516.6999 510.5 511.8999 510.5C 507.0999 510.5 493.1999 507.1 484.8999 505.2C 476.5999 503.30002 478.1999 498.1 479.0999 490.30002C 479.8999 482.50003 488.3999 438.40002 490.0999 429.30002C 491.69992 420.1 490.29993 420.00003 488.69992 417.40002C 487.0999 414.7 467.29993 409.7 455.5999 406.40002C 443.9999 403.10004 418.19992 406.60004 409.19992 407.50003C 400.0999 408.40002 399.39993 409.70004 402.39993 411.10004C 405.39993 412.50003 429.39993 421.60004 441.79993 426.30005C 454.29993 431.10004 471.69992 436.40005 473.49994 446.60004C 475.29996 456.80002 464.49994 472.20004 458.49994 483.70004C 452.49994 495.20004 452.29993 496.60004 452.69995 501.20004C 453.09998 505.80005 473.49994 517.7001 477.89996 520.80005C 482.39996 523.9 506.49997 537.4 506.49997 544.9C 506.49997 552.4 483.09998 572.10004 475.69998 576.9C 468.3 581.80005 448.3 592.5 439.69998 594.10004C 431.19998 595.7 417.8 585.9 409.99997 571.10004C 402.19998 556.30005 409.19998 541.80005 413.99997 530.4C 418.79996 519 410.69998 512.60004 406.79996 508.40002C 402.89996 504.2 372.79996 471.60004 365.89996 464.10004C 358.99997 456.60004 352.09998 452.80005 352.09998 438.50003C 352.09998 424.10004 406.69998 356.90002 406.69998 356.90002C 406.69998 356.90002 452.8 365.90002 458.99997 365.90002C 465.19998 365.90002 478.69998 360.60004 491.09998 356.40002C 503.69998 352.2 511.99997 352.2 512.1 352.2z" stroke="none" fill="#FFFFFF" fill-rule="nonzero" />
</g>
</svg>