<?xml version="1.0" encoding="utf-8"?>
<!-- Generator: Adobe Illustrator 26.4.1, SVG Export Plug-In . SVG Version: 6.00 Build 0)  -->
<svg version="1.1" id="Layer_1" xmlns="http://www.w3.org/2000/svg" xmlns:xlink="http://www.w3.org/1999/xlink" x="0px" y="0px"
	 viewBox="0 0 200 200" style="enable-background:new 0 0 200 200;" xml:space="preserve">
<style type="text/css">
	.st0{fill:#345D9D;}
	.st1{fill-rule:evenodd;clip-rule:evenodd;fill:#FBD52E;}
	.st2{fill:#FFFFFF;}
</style>
<g id="surface1_00000066475094778492874230000000461473635953375419_">
	<path class="st0" d="M200,100c0,55.3-44.8,100.1-100,100.1S0,155.3,0,100S44.7-0.1,100-0.1S200,44.7,200,100z"/>
</g>
<path class="st1" d="M263.4-7.6"/>
<path class="st2" d="M99.4,104.2l-11.7,39.6h62.8c0.8,0,1.7,0.2,2.3,0.9c0.6,0.6,1,1.4,1,2.3v1l-5.4,18.8c-0.5,1.8-2.1,3-4.1,3H48.1
	l16.1-54.9l-18,5.4l4.1-12.5l18-5.4L91,25.3c0.6-1.8,2.3-3,4.1-3h24.4c0.8,0,1.7,0.2,2.3,0.9c0.6,0.6,1,1.4,1,2.3v1l-19.1,64.9
	l18-5.4L117.8,99L99.4,104.2z"/>
</svg>
