<?xml version="1.0" encoding="utf-8"?>
<!-- Generator: Adobe Illustrator 26.4.1, SVG Export Plug-In . SVG Version: 6.00 Build 0)  -->
<svg version="1.1" id="Layer_1" xmlns="http://www.w3.org/2000/svg" xmlns:xlink="http://www.w3.org/1999/xlink" x="0px" y="0px"
	 viewBox="0 0 200 200" style="enable-background:new 0 0 200 200;" xml:space="preserve">
<style type="text/css">
	.st0{fill:#345D9D;}
	.st1{fill-rule:evenodd;clip-rule:evenodd;fill:#FBD52E;}
	.st2{fill:#FFFFFF;}
</style>
<g id="surface1_00000066475094778492874230000000461473635953375419_">
	<path class="st0" d="M194.8,100c0,52.4-42.5,94.9-94.8,94.9S5.2,152.4,5.2,100C5.2,47.6,47.6,5.1,100,5.1S194.8,47.6,194.8,100z"/>
</g>
<path class="st1" d="M263.4-7.6"/>
<path class="st2" d="M99.5,107.3l-10.4,35.1h55.7c0.7,0,1.5,0.2,2,0.8c0.5,0.5,0.9,1.2,0.9,2v0.9l-4.8,16.7
	c-0.4,1.6-1.9,2.7-3.6,2.7H54l14.3-48.7l-16,4.8l3.6-11.1l16-4.8L92,37.3c0.5-1.6,2-2.7,3.6-2.7h21.6c0.7,0,1.5,0.2,2,0.8
	c0.5,0.5,0.9,1.2,0.9,2v0.9l-16.9,57.6l16-4.8l-3.4,11.6L99.5,107.3z"/>
</svg>
