<?xml version="1.0" encoding="UTF-8"?>
<svg xmlns="http://www.w3.org/2000/svg" xmlns:xlink="http://www.w3.org/1999/xlink" width="200px" height="200px" viewBox="0 0 200 200" version="1.1">
<g id="surface1">
<path style=" stroke:none;fill-rule:nonzero;fill:rgb(100%,100%,100%);fill-opacity:1;" d="M 189.175781 100 C 189.175781 149.25 149.25 189.175781 100 189.175781 C 50.75 189.175781 10.824219 149.25 10.824219 100 C 10.824219 50.75 50.75 10.824219 100 10.824219 C 149.25 10.824219 189.175781 50.75 189.175781 100 Z M 189.175781 100 "/>
<path style=" stroke:none;fill-rule:nonzero;fill:rgb(20.392157%,36.470588%,61.568627%);fill-opacity:1;" d="M 100 0 C 44.773438 0 0 44.773438 0 100 C 0 155.226562 44.773438 200 100 200 C 155.226562 200 200 155.226562 200 100 C 200.160156 44.933594 155.648438 0.160156 100.582031 0 Z M 101.695312 103.390625 L 91.285156 138.5 L 146.972656 138.5 C 147.71875 138.472656 148.441406 138.742188 148.988281 139.253906 C 149.535156 139.761719 149.855469 140.464844 149.878906 141.210938 L 149.878906 142.128906 L 145.035156 158.835938 C 144.597656 160.464844 143.089844 161.570312 141.40625 161.5 L 56.175781 161.5 L 70.460938 112.832031 L 54.480469 117.675781 L 58.113281 106.539062 L 74.09375 101.695312 L 94.1875 33.414062 C 94.644531 31.796875 96.140625 30.699219 97.820312 30.75 L 119.371094 30.75 C 120.117188 30.722656 120.839844 30.996094 121.386719 31.503906 C 121.929688 32.011719 122.25 32.71875 122.277344 33.460938 L 122.277344 34.382812 L 105.328125 92.007812 L 121.308594 87.167969 L 117.917969 98.789062 Z M 101.695312 103.390625 "/>
</g>
</svg>
