<?xml version="1.0" encoding="UTF-8"?>
<svg xmlns="http://www.w3.org/2000/svg" xmlns:xlink="http://www.w3.org/1999/xlink" width="200px" height="px" viewBox="0 0 200 200" version="1.1">
<g id="surface1">
<path style=" stroke:none;fill-rule:evenodd;fill:rgb(38.823529%,18.823529%,0.392157%);fill-opacity:1;" d="M 36.5625 31.25 C 33.4375 15 45.9375 0 62.1875 0 C 76.5625 0 88.4375 11.875 88.4375 26.25 L 88.4375 58.75 C 92.1875 58.75 95.9375 58.125 99.6875 58.125 C 103.4375 58.125 106.5625 58.125 110.3125 58.75 L 110.3125 26.25 C 110.3125 11.875 122.1875 0 136.5625 0 C 152.8125 0 165.3125 15 162.8125 31.25 L 155.9375 69.375 C 180.3125 80 199.0625 98.75 199.0625 121.875 L 199.0625 136.25 C 199.0625 155.625 186.5625 171.875 168.4375 182.5 C 150.3125 193.75 126.5625 200 99.6875 200 C 72.8125 200 49.0625 193.75 30.9375 182.5 C 13.4375 171.875 0.9375 155.625 0.9375 136.25 L 0.9375 121.875 C 0.9375 98.75 19.0625 80 43.4375 69.375 Z M 146.5625 74.375 L 154.6875 29.375 C 156.5625 18.125 148.4375 7.5 136.5625 7.5 C 126.5625 7.5 118.4375 15.625 118.4375 25.625 L 118.4375 66.875 C 115.9375 66.25 112.8125 66.25 110.3125 66.25 C 106.5625 66.25 103.4375 65.625 99.6875 65.625 C 95.9375 65.625 92.1875 65.625 88.4375 66.25 C 85.9375 66.25 82.8125 66.875 80.3125 66.875 L 80.3125 26.25 C 80.3125 16.25 72.1875 8.125 62.1875 8.125 C 50.9375 8.125 42.1875 18.75 44.6875 30 L 52.8125 75 C 26.5625 85 9.0625 102.5 9.0625 122.5 L 9.0625 136.875 C 9.0625 167.5 49.6875 192.5 99.6875 192.5 C 149.6875 192.5 190.3125 167.5 190.3125 136.875 L 190.3125 122.5 C 190.9375 101.875 173.4375 84.375 146.5625 74.375 Z M 146.5625 74.375 "/>
<path style=" stroke:none;fill-rule:nonzero;fill:rgb(99.607843%,86.27451%,56.470588%);fill-opacity:1;" d="M 190.9375 136.25 C 190.9375 166.875 150.3125 191.875 100.3125 191.875 C 50.3125 191.875 9.6875 166.875 9.6875 136.25 L 9.6875 121.875 L 191.5625 121.875 L 191.5625 136.25 Z M 190.9375 136.25 "/>
<path style=" stroke:none;fill-rule:evenodd;fill:rgb(81.960784%,53.333333%,30.980392%);fill-opacity:1;" d="M 44.6875 30 C 42.1875 18.75 50.9375 8.125 62.1875 8.125 C 72.1875 8.125 80.3125 16.25 80.3125 26.25 L 80.3125 67.5 C 86.5625 66.875 92.8125 66.25 99.6875 66.25 C 105.9375 66.25 112.1875 66.875 118.4375 67.5 L 118.4375 26.25 C 118.4375 16.25 126.5625 8.125 136.5625 8.125 C 147.8125 8.125 156.5625 18.75 154.6875 30 L 146.5625 75 C 172.8125 85 190.9375 102.5 190.9375 122.5 C 190.9375 153.125 150.3125 178.125 100.3125 178.125 C 50.3125 178.125 9.6875 153.125 9.6875 122.5 C 9.6875 102.5 27.1875 85 53.4375 75 Z M 44.6875 30 "/>
<path style=" stroke:none;fill-rule:nonzero;fill:rgb(38.823529%,18.823529%,0.392157%);fill-opacity:1;" d="M 74.6875 118.125 C 74.6875 126.25 70.3125 133.125 64.6875 133.125 C 59.0625 133.125 54.6875 126.25 54.6875 118.125 C 54.6875 110 59.0625 103.125 64.6875 103.125 C 70.3125 103.125 74.6875 110 74.6875 118.125 Z M 74.6875 118.125 "/>
<path style=" stroke:none;fill-rule:nonzero;fill:rgb(38.823529%,18.823529%,0.392157%);fill-opacity:1;" d="M 144.0625 118.125 C 144.0625 126.25 139.6875 133.125 134.0625 133.125 C 128.4375 133.125 124.0625 126.25 124.0625 118.125 C 124.0625 110 128.4375 103.125 134.0625 103.125 C 139.6875 103.125 144.0625 110 144.0625 118.125 Z M 144.0625 118.125 "/>
</g>
</svg>
