<?xml version="1.0" encoding="UTF-8"?>
<svg xmlns="http://www.w3.org/2000/svg" xmlns:xlink="http://www.w3.org/1999/xlink" width="400px" height="400px" viewBox="0 0 400 400" version="1.1">
<g id="surface1">
<path style=" stroke:none;fill-rule:nonzero;fill:rgb(94.117647%,82.352941%,73.72549%);fill-opacity:1;" d="M 199.464844 387.132812 C 95.65625 387.132812 11.796875 303.269531 11.796875 199.464844 C 11.796875 95.65625 95.65625 11.796875 199.464844 11.796875 C 303.269531 11.796875 387.132812 95.65625 387.132812 199.464844 C 387.132812 303.269531 303.269531 387.132812 199.464844 387.132812 Z M 199.464844 387.132812 "/>
<path style="fill-rule:nonzero;fill:rgb(88.627451%,46.27451%,10.588235%);fill-opacity:1;stroke-width:1;stroke-linecap:round;stroke-linejoin:round;stroke:rgb(88.627451%,46.27451%,10.588235%);stroke-opacity:1;stroke-miterlimit:4;" d="M 300.101084 68.498682 L 200.60042 142.399307 L 218.999082 98.801289 Z M 300.101084 68.498682 " transform="matrix(1.072386,0,0,1.072386,0,0)"/>
<path style="fill-rule:evenodd;fill:rgb(89.411765%,46.27451%,10.588235%);fill-opacity:1;stroke-width:1;stroke-linecap:round;stroke-linejoin:round;stroke:rgb(89.411765%,46.27451%,10.588235%);stroke-opacity:1;stroke-miterlimit:4;" d="M 151.600459 98.801289 L 169.099404 143.098682 L 70.400107 68.498682 Z M 310.799336 240.701562 L 294.498799 295.999541 L 237.798428 280.398379 L 264.298184 239.798203 Z M 106.301357 239.798203 L 132.801113 280.398379 L 76.100742 295.999541 L 59.898555 240.701562 Z M 106.301357 239.798203 " transform="matrix(1.072386,0,0,1.072386,0,0)"/>
<path style="fill-rule:evenodd;fill:rgb(89.411765%,46.27451%,10.588235%);fill-opacity:1;stroke-width:1;stroke-linecap:round;stroke-linejoin:round;stroke:rgb(89.411765%,46.27451%,10.588235%);stroke-opacity:1;stroke-miterlimit:4;" d="M 168.101338 137.099355 L 170.101113 197.598936 L 113.801426 195.100127 L 129.599287 171.201172 Z M 256.801758 195.100127 L 200.60042 197.598936 L 201.90082 136.39998 L 240.898262 171.201172 Z M 137.401689 241.098604 L 166.600596 263.901143 L 132.801113 280.398379 Z M 233.099502 241.098604 L 237.798428 280.398379 L 203.900596 263.901143 Z M 233.099502 241.098604 " transform="matrix(1.072386,0,0,1.072386,0,0)"/>
<path style="fill-rule:nonzero;fill:rgb(84.313725%,75.686275%,70.196078%);fill-opacity:1;stroke-width:1;stroke-linecap:round;stroke-linejoin:round;stroke:rgb(84.313725%,75.686275%,70.196078%);stroke-opacity:1;stroke-miterlimit:4;" d="M 206.301055 295.300166 L 206.599746 286.000664 L 203.900596 263.901143 L 237.798428 280.398379 Z M 166.600596 263.901143 L 164.101787 286.000664 L 164.298486 295.300166 L 132.801113 280.398379 Z M 166.600596 263.901143 " transform="matrix(1.072386,0,0,1.072386,0,0)"/>
<path style="fill-rule:evenodd;fill:rgb(13.72549%,20.392157%,27.843137%);fill-opacity:1;stroke-width:1;stroke-linecap:round;stroke-linejoin:round;stroke:rgb(13.72549%,20.392157%,27.843137%);stroke-opacity:1;stroke-miterlimit:4;" d="M 164.801162 226.49915 L 136.600322 218.201357 L 156.499727 209.098555 Z M 233.999219 218.201357 L 214.001465 209.098555 L 205.700029 226.49915 Z M 233.999219 218.201357 " transform="matrix(1.072386,0,0,1.072386,0,0)"/>
<path style="fill-rule:evenodd;fill:rgb(80.392157%,38.039216%,8.627451%);fill-opacity:1;stroke-width:1;stroke-linecap:round;stroke-linejoin:round;stroke:rgb(80.392157%,38.039216%,8.627451%);stroke-opacity:1;stroke-miterlimit:4;" d="M 106.301357 240.701562 L 137.598389 239.798203 L 132.801113 280.398379 Z M 233.001152 239.798203 L 237.798428 280.398379 L 264.298184 240.701562 Z M 256.801758 195.100127 L 200.60042 197.598936 L 205.798379 226.49915 L 214.099814 209.098555 L 234.101211 218.201357 Z M 136.600322 218.201357 L 156.601719 209.098555 L 164.801162 226.49915 L 170.101113 197.598936 L 113.801426 195.100127 Z M 136.600322 218.201357 " transform="matrix(1.072386,0,0,1.072386,0,0)"/>
<path style="fill-rule:evenodd;fill:rgb(89.411765%,45.882353%,12.156863%);fill-opacity:1;stroke-width:1;stroke-linecap:round;stroke-linejoin:round;stroke:rgb(89.411765%,45.882353%,12.156863%);stroke-opacity:1;stroke-miterlimit:4;" d="M 136.600322 218.201357 L 137.401689 241.098604 L 113.801426 195.100127 Z M 256.801758 195.100127 L 233.099502 241.098604 L 234.101211 218.201357 Z M 172.898613 215.698906 L 171.401514 260.600967 L 164.801162 226.49915 L 170.101113 197.598936 Z M 205.798379 226.49915 L 199.099678 260.600967 L 197.90127 215.600557 L 200.60042 197.598936 Z M 205.798379 226.49915 " transform="matrix(1.072386,0,0,1.072386,0,0)"/>
<path style="fill-rule:nonzero;fill:rgb(89.411765%,46.27451%,10.588235%);fill-opacity:1;stroke-width:1;stroke-linecap:round;stroke-linejoin:miter;stroke:rgb(96.470588%,52.156863%,10.588235%);stroke-opacity:1;stroke-miterlimit:4;" d="M 234.101211 218.201357 L 233.099502 241.098604 L 203.900596 263.901143 L 199.099678 260.600967 L 205.798379 226.49915 Z M 164.801162 226.49915 L 171.401514 260.600967 L 166.600596 263.901143 L 137.401689 241.098604 L 136.600322 218.201357 Z M 164.801162 226.49915 " transform="matrix(1.072386,0,0,1.072386,0,0)"/>
<path style="fill-rule:nonzero;fill:rgb(75.294118%,67.843137%,61.960784%);fill-opacity:1;stroke-width:1;stroke-linecap:round;stroke-linejoin:round;stroke:rgb(75.294118%,67.843137%,61.960784%);stroke-opacity:1;stroke-miterlimit:4;" d="M 237.798428 280.398379 L 226.801484 289.399189 L 204.399629 304.898359 L 166.101562 304.898359 L 143.801699 289.399189 L 132.801113 280.398379 L 164.298486 295.300166 L 164.101787 286.000664 L 166.400254 283.800547 L 204.100937 283.800547 L 206.599746 286.000664 L 206.301055 295.300166 Z M 237.798428 280.398379 " transform="matrix(1.072386,0,0,1.072386,0,0)"/>
<path style="fill-rule:nonzero;fill:rgb(8.627451%,8.627451%,8.627451%);fill-opacity:1;stroke-width:1;stroke-linecap:round;stroke-linejoin:round;stroke:rgb(8.627451%,8.627451%,8.627451%);stroke-opacity:1;stroke-miterlimit:4;" d="M 206.599746 286.000664 L 204.100937 283.800547 L 166.400254 283.800547 L 164.101787 286.000664 L 166.600596 263.901143 L 171.401514 260.600967 L 199.099678 260.600967 L 203.900596 263.901143 Z M 206.599746 286.000664 " transform="matrix(1.072386,0,0,1.072386,0,0)"/>
<path style="fill-rule:nonzero;fill:rgb(46.27451%,23.921569%,8.627451%);fill-opacity:1;stroke-width:1;stroke-linecap:round;stroke-linejoin:round;stroke:rgb(46.27451%,23.921569%,8.627451%);stroke-opacity:1;stroke-miterlimit:4;" d="M 309.600928 151.199775 L 301.598184 157.301094 L 307.801494 162.098369 L 299.79875 169.401738 L 304.80001 173.000605 L 293.198398 186.5 L 240.898262 171.201172 L 203.900596 139.900498 L 300.101084 68.498682 L 312.799111 106.399707 L 304.300977 147.200225 Z M 70.400107 68.498682 L 166.600596 139.900498 L 129.599287 171.201172 L 77.29915 186.5 L 65.799531 173.000605 L 70.800791 169.401738 L 62.801689 162.098369 L 68.899365 157.301094 L 60.900264 151.199775 L 66.298564 147.200225 L 57.80043 106.399707 Z M 70.400107 68.498682 " transform="matrix(1.072386,0,0,1.072386,0,0)"/>
<path style="fill-rule:nonzero;fill:rgb(89.411765%,46.27451%,10.588235%);fill-opacity:1;stroke-width:1;stroke-linecap:round;stroke-linejoin:miter;stroke:rgb(96.470588%,52.156863%,10.588235%);stroke-opacity:1;stroke-miterlimit:4;" d="M 310.799336 240.701562 L 264.298184 240.701562 L 233.099502 241.098604 L 256.801758 195.100127 L 240.898262 171.201172 L 293.198398 186.5 Z M 113.801426 195.100127 L 137.401689 241.098604 L 106.301357 240.701562 L 59.898555 240.701562 L 77.29915 186.5 L 129.599287 171.201172 Z M 199.30002 215.800898 L 199.099678 260.600967 L 171.401514 260.600967 L 171.299521 215.800898 L 170.101113 197.598936 L 166.600596 139.900498 L 151.600459 98.801289 L 219.101074 98.801289 L 203.900596 139.900498 L 200.60042 197.598936 Z M 199.30002 215.800898 " transform="matrix(1.072386,0,0,1.072386,0,0)"/>
</g>
</svg>
