<?xml version="1.0" standalone="no"?>
<!DOCTYPE svg PUBLIC "-//W3C//DTD SVG 1.0//EN" "http://www.w3.org/TR/2001/REC-SVG-20010904/DTD/svg10.dtd">
<svg xmlns="http://www.w3.org/2000/svg" xmlns:xlink="http://www.w3.org/1999/xlink" id="body_1" width="400" height="400">

<g transform="matrix(6.666667 0 0 6.666667 0 0)">
    <path d="M60 30C 60 38.28427 57.071068 45.35534 51.213203 51.213203C 45.35534 57.071068 38.28427 60 30 60C 21.715729 60 14.644661 57.071068 8.786797 51.213203C 2.9289322 45.35534 0 38.28427 0 30C 0 21.715729 2.9289322 14.644661 8.786797 8.786797C 14.644661 2.9289322 21.715729 0 30 0C 38.28427 0 45.35534 2.9289322 51.213203 8.786797C 57.071068 14.644661 60 21.715729 60 30C 60 30.349102 59.99391 30.698097 59.981728 31.046986" stroke="none" fill="#34363D" fill-rule="nonzero" />
    <path d="M16 25.541L16 21.8689L19.093 20.174L22.1047 21.9899L18.9709 23.6847L18.9709 27.3569L16 25.541z" stroke="none" fill="#E9B941" fill-rule="nonzero" />
    <path d="M18.9709 29.9395L16 28.2043L16 38.0101L24.4651 42.8121L24.4651 39.3821L18.9709 36.2346L18.9709 29.9395z" stroke="none" fill="#E9B941" fill-rule="nonzero" />
    <path d="M29.9593 14L21.5349 18.8424L24.5058 20.4968L29.9593 17.3897L35.4535 20.4968L38.3837 18.8424L29.9593 14z" stroke="none" fill="#E9B941" fill-rule="nonzero" />
    <path d="M21.5349 28.7289L21.5349 25.1375L24.5058 23.3619L29.9593 26.4691L35.4535 23.3619L38.5058 25.1375L38.5058 28.7289L33.093 31.7957L33.093 38.0101L29.9593 39.7856L26.8256 38.0101L26.8256 31.7957L21.5349 28.7289z" stroke="none" fill="#E9B941" fill-rule="nonzero" />
    <path d="M29.9593 20.2547L26.9477 21.9899L29.9593 23.7251L33.0523 21.9899L29.9593 20.2547z" stroke="none" fill="#E9B941" fill-rule="nonzero" />
    <path d="M40.8256 20.174L37.8547 21.9899L40.8256 23.6847L40.8256 27.3569L44 25.5813L44 21.9899L40.8256 20.174z" stroke="none" fill="#E9B941" fill-rule="nonzero" />
    <path d="M44 28.2043L40.8256 29.9395L40.8256 36.2346L35.4535 39.3821L35.4535 42.8121L44 38.0101L44 28.2043z" stroke="none" fill="#E9B941" fill-rule="nonzero" />
    <path d="M35.4535 36.6784L35.4535 33.087L38.5058 31.4729L38.5058 34.9433L35.4535 36.6784z" stroke="none" fill="#E9B941" fill-rule="nonzero" />
    <path d="M21.3314 31.4729L24.5058 33.087L24.4651 36.6784L21.3314 34.9433L21.3314 31.4729z" stroke="none" fill="#E9B941" fill-rule="nonzero" />
    <path d="M29.9593 42.5296L26.8256 40.7541L26.8256 44.1438L29.9593 46L33.093 44.1438L33.093 40.7541L29.9593 42.5296z" stroke="none" fill="#E9B941" fill-rule="nonzero" />
</g>
</svg>