<?xml version="1.0" encoding="utf-8"?>
<!-- Generator: Adobe Illustrator 26.4.1, SVG Export Plug-In . SVG Version: 6.00 Build 0)  -->
<svg version="1.1" id="Layer_1" xmlns="http://www.w3.org/2000/svg" xmlns:xlink="http://www.w3.org/1999/xlink" x="0px" y="0px"
	 viewBox="0 0 200 200" style="enable-background:new 0 0 200 200;" xml:space="preserve">
<style type="text/css">
	.st0{fill-rule:evenodd;clip-rule:evenodd;fill:#FBD52E;}
	.st1{fill-rule:evenodd;clip-rule:evenodd;fill:#363535;}
	.st2{fill-rule:evenodd;clip-rule:evenodd;fill:#F7D431;}
	.st3{fill-rule:evenodd;clip-rule:evenodd;fill:#F8D632;}
	.st4{fill-rule:evenodd;clip-rule:evenodd;fill:#EEA741;}
	.st5{fill-rule:evenodd;clip-rule:evenodd;fill:#FDFCFA;}
	.st6{fill-rule:evenodd;clip-rule:evenodd;fill:#FAFAFA;}
	.st7{fill-rule:evenodd;clip-rule:evenodd;fill:#333232;}
	.st8{fill-rule:evenodd;clip-rule:evenodd;fill:#F6F6DE;}
	.st9{fill-rule:evenodd;clip-rule:evenodd;fill:#FA805E;}
</style>
<g>
	<circle class="st0" cx="100.6" cy="99.7" r="98.2"/>
	<path class="st1" d="M192.3,63.9c10.3-28.6-1.3-44.5-1.3-44.5s-6.4-2.3-17.4-0.4c-6.1,0.7-12.1,2.3-17.9,4.8
		c-4.7,2.5-9.2,5.5-13.5,8.6c-5.2,3.6-10.8,7.9-16.7,13.2l1.3,0.6h-0.1c-19.7-7.3-39.1-6.5-58.1,2.5c-1-0.5-1.5-1.4-1.3-2.5
		L56.1,35.9c-0.5-0.5-0.9-0.9-1.5-1.5c-0.1-0.1-0.2-0.1-0.3-0.2l-0.4-0.3c-3.7-3.1-7.7-5.6-11.6-7.3c-0.1-0.1-0.2-0.1-0.3-0.2
		c-0.6-0.2-1.3-0.5-1.9-0.7c-5-2-10.1-3.3-14.7-4c-6.2-1-12.5-1.4-18.9-0.9c-0.5,0.2-0.9,0.4-1.4,0.7v-0.2c0,0-0.1,0.2-0.3,0.6
		c-0.4,0.4-0.6,0.9-0.7,1.6c-2.7,5.9-8.6,24.1,2.4,54l0,0c6.9,11.2,15.2,21.6,24.7,31.2c4.6,31.7,22.6,51.3,53.7,58.7
		c-9.2-9.4-9.9-19.5-1.9-30c6.9-4.3,12-10.2,15.2-17.5c0.4-10.5,0.7-21,1.2-31.6c0.1-2.9,1.5-5.7,3.9-7.2c2.7-1.8,5.1-0.9,7,2.4
		c1.2,2,1.8,4.3,1.8,6.6c0.3,10.4,1.6,20.8,3.8,31c4.1,6.6,9.1,12.4,15.2,17.5c5.5,6.3,6.9,13.3,4.4,21.2
		c8.9-5.2,16.6-12.2,22.8-20.6c-5.8,0.6-11.8,0.6-17.7,0c-15.7-7.8-20.1-19.6-13.2-35.6c13.4-14.6,27.3-15,41.7-1.3
		c9.2-8.9,16.2-19.3,20.9-31.2c0.5-0.9,1.5-1.4,2.5-1.3C192.2,69.3,191.8,65.4,192.3,63.9z"/>
	<path class="st0" d="M193.5,72.5c-0.2,1.3,0.2,2.1,1.3,2.5c-0.3,2,0.1,3.7,1.3,5c0,1.7,0,3.4,0,5c-0.2,1.3,0.2,2.1,1.3,2.5
		c0,1.7,0,3.4,0,5c2,23.9-4,45.5-17.7,65c-50.6,54-102.2,54.9-154.8,2.5C7.6,138.5,0.7,113.9,3.9,86.5c0-0.8,0-1.7,0-2.5
		c1-0.4,1.5-1.3,1.3-2.5c0-0.4,0-0.8,0-1.3c1-0.4,1.5-1.3,1.3-2.5c6.9,11.2,15.2,21.6,24.7,31.2c4.6,31.7,22.6,51.3,53.7,58.7
		c4,3,8.2,5.6,12.6,7.4c4.5,7.4,10.9,9.3,19,5.7c2.4-1.8,4.1-4.1,5-6.8c6.3-2.8,10.9-7.4,13.9-13.7c8.9-5.2,16.6-12.2,22.8-20.6
		c-5.8,0.6-11.8,0.6-17.7,0c-15.7-7.8-20.1-19.6-13.2-35.6c13.4-14.6,27.3-15,41.7-1.3c9.2-8.9,17.4-20.1,23.3-38.1"/>
	<circle class="st2" cx="62.3" cy="117" r="24.9"/>
	<circle class="st2" cx="148" cy="117" r="24.9"/>
	<circle class="st1" cx="147.8" cy="114.3" r="19.9"/>
	<path class="st3" d="M167,89.9c8.8-15.8,12.6-32.9,11.3-51.2c-14.3,1.4-26.9,6.4-37.9,15c-1-0.3-1.9-0.9-2.5-1.9
		c13.3-12,28.9-19.3,46.8-21.8c1.4,22.3-3.5,43.1-14.5,62.4C167.4,95.5,166.3,94.7,167,89.9z"/>
	<path class="st2" d="M58.3,53.7c-10.5-7.3-22.3-11.5-35.4-12.5C22.3,57.9,25.6,73.8,33,88.7c0.3,1.9-0.1,3.5-1.3,5
		C26,86.8,22,78.9,19.8,70c-3.4-12.7-4.8-25.6-4.4-38.7c17.5,2,32.6,8.8,45.5,20.6C60.2,52.8,59.3,53.4,58.3,53.7z"/>
	<path class="st4" d="M130.4,42.5c0,2.5-1.3,3.8-3.8,3.8c-19.7-7.3-39.1-6.5-58.1,2.5c-1-0.5-1.5-1.4-1.3-2.5
		C87.3,34.3,108.3,33,130.4,42.5z"/>
	<path class="st5" d="M167,89.9c-4.8-14.9-13.6-27-26.5-36.2c11-8.6,23.7-13.6,37.9-15C179.6,57,175.8,74.1,167,89.9z"/>
	<path class="st5" d="M58.3,53.7C46.4,63,37.9,74.6,33,88.7C25.6,73.8,22.3,58,22.9,41.2C36,42.3,47.8,46.4,58.3,53.7z"/>
	<path class="st6" d="M135.4,159.9c-2.9,6.3-7.7,10.8-13.9,13.7c-8,1-15.9,1.5-24,1.3c-4.5-1.9-8.7-4.4-12.6-7.4
		c-9.1-9.4-9.9-19.4-2-29.8c0.1-0.1,0.2-0.2,0.3-0.2c0.1,0,0.1-0.1,0.2-0.1c9.1-5.9,14.8-15.9,15.1-26.9c0.3-7.3,0.5-14.6,0.8-21.9
		c0.1-2.9,1.5-5.7,3.9-7.2c3.1-2,5.8-0.7,7.9,3.9c0.6,1.4,0.9,2.9,1,4.4c0.2,6.9,0.7,13.7,1.8,20.5c1.3,8.5,4.9,16.4,10.8,22.7
		c2,2.1,4.1,4.1,6.3,6C136.4,144.9,137.9,152,135.4,159.9z"/>
	<path class="st7" d="M98.8,143.6c6.7-0.2,13.5,0,20.3,0.6c2.9,3,2.5,6-1.3,8.7c-7.3,4.6-13.9,3.6-19.6-3.1
		C97.3,147.7,97.5,145.6,98.8,143.6z"/>
	<circle class="st1" cx="62.4" cy="117.2" r="19.9"/>
	<circle class="st8" cx="67.1" cy="109.8" r="8.4"/>
	<circle class="st8" cx="50.1" cy="129.9" r="3.9"/>
	<path class="st9" d="M121.4,173.7c-0.9,2.8-2.6,5-5,6.8c-8.1,3.7-14.4,1.8-19-5.7C105.5,175,113.6,174.6,121.4,173.7z"/>
	<circle class="st8" cx="152.4" cy="106.8" r="8.4"/>
	<circle class="st8" cx="135.5" cy="127" r="3.9"/>
</g>
<path class="st0" d="M263.4-7.6"/>
</svg>
