<?xml version="1.0" encoding="utf-8"?>
<!-- Generator: Adobe Illustrator 26.4.1, SVG Export Plug-In . SVG Version: 6.00 Build 0)  -->
<svg version="1.1" id="Layer_1" xmlns="http://www.w3.org/2000/svg" xmlns:xlink="http://www.w3.org/1999/xlink" x="0px" y="0px"
	 viewBox="0 0 200 200" style="enable-background:new 0 0 200 200;" xml:space="preserve">
<style type="text/css">
	.st0{fill-rule:evenodd;clip-rule:evenodd;fill:#FBD52E;}
	.st1{fill-rule:evenodd;clip-rule:evenodd;fill:#363535;}
	.st2{fill-rule:evenodd;clip-rule:evenodd;fill:#F7D431;}
	.st3{fill-rule:evenodd;clip-rule:evenodd;fill:#F8D632;}
	.st4{fill-rule:evenodd;clip-rule:evenodd;fill:#EEA741;}
	.st5{fill-rule:evenodd;clip-rule:evenodd;fill:#FDFCFA;}
	.st6{fill-rule:evenodd;clip-rule:evenodd;fill:#FAFAFA;}
	.st7{fill-rule:evenodd;clip-rule:evenodd;fill:#333232;}
	.st8{fill-rule:evenodd;clip-rule:evenodd;fill:#F6F6DE;}
	.st9{fill-rule:evenodd;clip-rule:evenodd;fill:#FA805E;}
</style>
<g>
	<circle class="st0" cx="101.1" cy="99.7" r="93.6"/>
	<path class="st1" d="M188.5,65.6c9.8-27.3-1.2-42.4-1.2-42.4s-6.1-2.2-16.6-0.4c-5.8,0.7-11.5,2.2-17.1,4.6
		c-4.5,2.4-8.8,5.2-12.9,8.2c-5,3.4-10.3,7.5-15.9,12.6l1.2,0.6c0,0-0.1,0-0.1,0c-18.8-7-37.3-6.2-55.4,2.4c-1-0.5-1.4-1.3-1.2-2.4
		l-10.6-9.9c-0.5-0.5-0.9-0.9-1.4-1.4c-0.1-0.1-0.2-0.1-0.3-0.2L56.6,37c-3.5-3-7.3-5.3-11.1-7c-0.1-0.1-0.2-0.1-0.3-0.2
		c-0.6-0.2-1.2-0.5-1.8-0.7c-4.8-1.9-9.6-3.1-14-3.8c-5.9-1-11.9-1.3-18-0.9c-0.5,0.2-0.9,0.4-1.3,0.7l0-0.2c0,0-0.1,0.2-0.3,0.6
		c-0.4,0.4-0.6,0.9-0.7,1.5C6.5,32.6,0.9,50,11.4,78.5c0,0,0,0,0,0c6.6,10.7,14.5,20.6,23.5,29.7c4.4,30.2,21.5,48.9,51.2,55.9
		c-8.8-9-9.4-18.6-1.8-28.6c6.6-4.1,11.4-9.7,14.5-16.7c0.4-10,0.7-20,1.1-30.1c0.1-2.8,1.4-5.4,3.7-6.9c2.6-1.7,4.9-0.9,6.7,2.3
		c1.1,1.9,1.7,4.1,1.7,6.3c0.3,9.9,1.5,19.8,3.6,29.5c3.9,6.3,8.7,11.8,14.5,16.7c5.2,6,6.6,12.7,4.2,20.2
		c8.5-5,15.8-11.6,21.7-19.6c-5.5,0.6-11.2,0.6-16.9,0c-15-7.4-19.2-18.7-12.6-33.9c12.8-13.9,26-14.3,39.7-1.2
		c8.8-8.5,15.4-18.4,19.9-29.7c0.5-0.9,1.4-1.3,2.4-1.2C188.4,70.7,188.1,67,188.5,65.6z"/>
	<path class="st0" d="M189.7,73.8c-0.2,1.2,0.2,2,1.2,2.4c-0.3,1.9,0.1,3.5,1.2,4.8c0,1.6,0,3.2,0,4.8c-0.2,1.2,0.2,2,1.2,2.4
		c0,1.6,0,3.2,0,4.8c1.9,22.8-3.8,43.4-16.9,61.9c-48.2,51.5-97.4,52.3-147.5,2.4c-16.4-20.6-23-44-19.9-70.2c0-0.8,0-1.6,0-2.4
		c1-0.4,1.4-1.2,1.2-2.4c0-0.4,0-0.8,0-1.2c1-0.4,1.4-1.2,1.2-2.4c6.6,10.7,14.5,20.6,23.5,29.7c4.4,30.2,21.5,48.9,51.2,55.9
		c3.8,2.9,7.8,5.3,12,7.1c4.3,7.1,10.4,8.9,18.1,5.4c2.3-1.7,3.9-3.9,4.8-6.5c6-2.7,10.4-7.1,13.2-13.1c8.5-5,15.8-11.6,21.7-19.6
		c-5.5,0.6-11.2,0.6-16.9,0c-15-7.4-19.2-18.7-12.6-33.9c12.8-13.9,26-14.3,39.7-1.2c8.8-8.5,16.6-19.2,22.2-36.3"/>
	<circle class="st2" cx="64.6" cy="116.2" r="23.7"/>
	<circle class="st2" cx="146.3" cy="116.2" r="23.7"/>
	<circle class="st1" cx="146.1" cy="113.6" r="19"/>
	<path class="st3" d="M164.4,90.4c8.4-15.1,12-31.4,10.8-48.8c-13.6,1.3-25.6,6.1-36.1,14.3c-1-0.3-1.8-0.9-2.4-1.8
		c12.7-11.4,27.5-18.4,44.6-20.8c1.3,21.3-3.3,41.1-13.8,59.5C164.8,95.7,163.8,95,164.4,90.4z"/>
	<path class="st2" d="M60.8,55.9c-10-7-21.3-11-33.7-11.9c-0.6,15.9,2.6,31,9.6,45.2c0.3,1.8-0.1,3.3-1.2,4.8
		c-5.5-6.6-9.3-14.1-11.4-22.6c-3.2-12.1-4.6-24.4-4.2-36.9c16.7,1.9,31.1,8.4,43.4,19.6C62.6,55,61.8,55.6,60.8,55.9z"/>
	<path class="st4" d="M129.5,45.2c0,2.4-1.2,3.6-3.6,3.6c-18.8-7-37.3-6.2-55.4,2.4c-1-0.5-1.4-1.3-1.2-2.4
		C88.5,37.4,108.5,36.2,129.5,45.2z"/>
	<path class="st5" d="M164.4,90.4c-4.6-14.2-13-25.7-25.3-34.5c10.5-8.2,22.6-13,36.1-14.3C176.4,59,172.8,75.3,164.4,90.4z"/>
	<path class="st5" d="M60.8,55.9c-11.3,8.8-19.4,19.9-24.1,33.3C29.7,75,26.5,60,27.1,44C39.6,45,50.8,48.9,60.8,55.9z"/>
	<path class="st6" d="M134.3,157.1c-2.8,6-7.3,10.3-13.2,13.1c-7.6,1-15.2,1.4-22.9,1.2c-4.3-1.8-8.3-4.2-12-7.1
		c-8.7-9-9.4-18.5-1.9-28.4c0.1-0.1,0.2-0.2,0.3-0.2c0.1,0,0.1-0.1,0.2-0.1c8.7-5.6,14.1-15.2,14.4-25.6c0.3-7,0.5-13.9,0.8-20.9
		c0.1-2.8,1.4-5.4,3.7-6.9c3-1.9,5.5-0.7,7.5,3.7c0.6,1.3,0.9,2.8,1,4.2c0.2,6.6,0.7,13.1,1.7,19.5c1.2,8.1,4.7,15.6,10.3,21.6
		c1.9,2,3.9,3.9,6,5.7C135.3,142.8,136.7,149.6,134.3,157.1z"/>
	<path class="st7" d="M99.4,141.6c6.4-0.2,12.9,0,19.3,0.6c2.8,2.9,2.4,5.7-1.2,8.3c-7,4.4-13.2,3.4-18.7-3
		C98,145.5,98.2,143.5,99.4,141.6z"/>
	<circle class="st1" cx="64.7" cy="116.4" r="19"/>
	<circle class="st8" cx="69.2" cy="109.3" r="8"/>
	<circle class="st8" cx="53" cy="128.5" r="3.7"/>
	<path class="st9" d="M121,170.2c-0.9,2.7-2.5,4.8-4.8,6.5c-7.7,3.5-13.7,1.7-18.1-5.4C105.8,171.5,113.5,171.1,121,170.2z"/>
	<circle class="st8" cx="150.5" cy="106.5" r="8"/>
	<circle class="st8" cx="134.4" cy="125.7" r="3.7"/>
</g>
<path class="st0" d="M263.4-7.6"/>
</svg>
