<?xml version="1.0" encoding="utf-8"?>
<!-- Generator: Adobe Illustrator 26.4.1, SVG Export Plug-In . SVG Version: 6.00 Build 0)  -->
<svg version="1.1" id="Layer_1" xmlns="http://www.w3.org/2000/svg" xmlns:xlink="http://www.w3.org/1999/xlink" x="0px" y="0px"
	 viewBox="0 0 200 200" style="enable-background:new 0 0 200 200;" xml:space="preserve">
<style type="text/css">
	.st0{fill:#FF005C;}
</style>
<g id="surface1_00000142854234534926562190000007126565914522890908_">
	<path class="st0" d="M99.8-0.5c-7.6-0.1-15.1,0.9-22.5,2.7V127c-0.1,2.5-2.1,4.4-4.5,4.4h-9.1c-1.8,0-3.3-1.5-3.4-3.4V7.5
		C23.9,22.9,0.1,59.3,0,99.6c0.4,56,45.1,101,99.9,100.5h0.3c54.5,0.6,99.3-44,99.8-99.8V100C199.4,44,154.6-0.8,99.8-0.5z
		 M98,141.5c0,2.5-1.9,4.4-4.3,4.4h-9.1c-2.3,0-4.3-1.9-4.3-4.4V77.8c0-2.5,1.9-4.4,4.3-4.4h9.1c2.3,0,4.3,1.9,4.3,4.4V141.5z
		 M118.2,147.6c0,2.5-1.9,4.4-4.3,4.4h-9.1c-2.3,0-4.3-1.9-4.3-4.4V71.8c0.1-2.3,2-4.2,4.3-4.2h9.1c2.2,0,4.2,1.8,4.3,4.2V147.6z
		 M138.5,136.2c0,2.5-1.9,4.4-4.3,4.4h-8.8c-2.3,0-4.3-1.9-4.3-4.4V84c0-2.5,1.9-4.4,4.3-4.4h9.1c2.3,0,4.3,1.9,4.3,4.4L138.5,136.2
		z"/>
</g>
</svg>
