<?xml version="1.0" encoding="utf-8"?>
<!-- Generator: Adobe Illustrator 26.4.1, SVG Export Plug-In . SVG Version: 6.00 Build 0)  -->
<svg version="1.1" id="Layer_1" xmlns="http://www.w3.org/2000/svg" xmlns:xlink="http://www.w3.org/1999/xlink" x="0px" y="0px"
	 viewBox="0 0 200 200" style="enable-background:new 0 0 200 200;" xml:space="preserve">
<style type="text/css">
	.st0{fill:#FF005C;}
</style>
<g id="surface1_00000142854234534926562190000007126565914522890908_">
	<path class="st0" d="M99.8,5.7c-7.1-0.1-14.2,0.8-21.1,2.5v117.1c-0.1,2.3-2,4.1-4.2,4.1H66c-1.7,0-3.1-1.4-3.2-3.2V13.2
		C28.6,27.7,6.3,61.8,6.2,99.6c0.4,52.5,42.3,94.7,93.7,94.3h0.3c51.1,0.6,93.1-41.3,93.6-93.6V100C193.2,47.5,151.2,5.4,99.8,5.7z
		 M98.1,138.9c0,2.3-1.8,4.1-4,4.1h-8.5c-2.2,0-4-1.8-4-4.1V79.2c0-2.3,1.8-4.1,4-4.1h8.5c2.2,0,4,1.8,4,4.1V138.9z M117.1,144.6
		c0,2.3-1.8,4.1-4,4.1h-8.5c-2.2,0-4-1.8-4-4.1V73.5c0.1-2.2,1.9-3.9,4-3.9h8.5c2.1,0,3.9,1.7,4,3.9V144.6z M136.1,133.9
		c0,2.3-1.8,4.1-4,4.1h-8.3c-2.2,0-4-1.8-4-4.1V85c0-2.3,1.8-4.1,4-4.1h8.5c2.2,0,4,1.8,4,4.1L136.1,133.9z"/>
</g>
</svg>
