<?xml version="1.0" encoding="UTF-8"?>
<svg xmlns="http://www.w3.org/2000/svg" xmlns:xlink="http://www.w3.org/1999/xlink" width="200px" height="200px" viewBox="0 0 200 200" version="1.1">
<g id="surface1">
<path style=" stroke:none;fill-rule:nonzero;fill:rgb(12.941176%,19.215686%,27.843137%);fill-opacity:1;" d="M 18.078125 60.800781 L 18.078125 139.199219 C 18.078125 144.238281 20.71875 148.800781 25.121094 151.359375 L 93.039062 190.558594 C 97.359375 193.039062 102.71875 193.039062 107.039062 190.558594 L 174.960938 151.359375 C 179.28125 148.878906 182 144.238281 182 139.199219 L 182 60.800781 C 182 55.761719 179.359375 51.199219 174.960938 48.640625 L 107.039062 9.441406 C 102.71875 6.960938 97.359375 6.960938 93.039062 9.441406 L 25.121094 48.640625 C 20.800781 51.121094 18.160156 55.761719 18.160156 60.800781 Z M 18.078125 60.800781 "/>
<path style=" stroke:none;fill-rule:nonzero;fill:rgb(7.058824%,66.666667%,100%);fill-opacity:1;" d="M 114.800781 115.199219 L 105.121094 141.761719 C 104.878906 142.480469 104.878906 143.28125 105.121094 144.078125 L 121.761719 189.761719 L 141.039062 178.640625 L 117.921875 115.199219 C 117.359375 113.761719 115.359375 113.761719 114.800781 115.199219 Z M 114.800781 115.199219 "/>
<path style=" stroke:none;fill-rule:nonzero;fill:rgb(7.058824%,66.666667%,100%);fill-opacity:1;" d="M 134.238281 70.558594 C 133.679688 69.121094 131.679688 69.121094 131.121094 70.558594 L 121.441406 97.121094 C 121.199219 97.839844 121.199219 98.640625 121.441406 99.441406 L 148.71875 174.238281 L 168 163.121094 L 134.238281 70.640625 Z M 134.238281 70.558594 "/>
<path style=" stroke:none;fill-rule:nonzero;fill:rgb(61.568627%,80%,92.941176%);fill-opacity:1;" d="M 100 12.398438 C 100.480469 12.398438 100.960938 12.558594 101.359375 12.800781 L 174.800781 55.199219 C 175.679688 55.679688 176.160156 56.640625 176.160156 57.601562 L 176.160156 142.398438 C 176.160156 143.359375 175.601562 144.320312 174.800781 144.800781 L 101.359375 187.199219 C 100.960938 187.441406 100.480469 187.601562 100 187.601562 C 99.519531 187.601562 99.039062 187.441406 98.640625 187.199219 L 25.199219 144.800781 C 24.320312 144.320312 23.839844 143.359375 23.839844 142.398438 L 23.839844 57.519531 C 23.839844 56.558594 24.398438 55.601562 25.199219 55.121094 L 98.640625 12.71875 C 99.039062 12.480469 99.519531 12.320312 100 12.320312 Z M 100 0 C 97.359375 0 94.800781 0.640625 92.398438 2 L 18.960938 44.398438 C 14.238281 47.121094 11.359375 52.078125 11.359375 57.519531 L 11.359375 142.320312 C 11.359375 147.761719 14.238281 152.71875 18.960938 155.441406 L 92.398438 197.839844 C 94.71875 199.199219 97.359375 199.839844 100 199.839844 C 102.640625 199.839844 105.199219 199.199219 107.601562 197.839844 L 181.039062 155.441406 C 185.761719 152.71875 188.640625 147.761719 188.640625 142.320312 L 188.640625 57.519531 C 188.640625 52.078125 185.761719 47.121094 181.039062 44.398438 L 107.519531 2 C 105.199219 0.640625 102.558594 0 99.921875 0 Z M 100 0 "/>
<path style=" stroke:none;fill-rule:nonzero;fill:rgb(12.941176%,19.215686%,27.843137%);fill-opacity:1;" d="M 51.359375 174.320312 L 58.160156 155.761719 L 71.761719 167.039062 L 59.039062 178.71875 Z M 51.359375 174.320312 "/>
<path style=" stroke:none;fill-rule:nonzero;fill:rgb(100%,100%,100%);fill-opacity:1;" d="M 93.761719 51.519531 L 75.121094 51.519531 C 73.761719 51.519531 72.480469 52.398438 72 53.679688 L 32.078125 163.121094 L 51.359375 174.238281 L 95.359375 53.679688 C 95.761719 52.558594 94.960938 51.441406 93.839844 51.441406 Z M 93.761719 51.519531 "/>
<path style=" stroke:none;fill-rule:nonzero;fill:rgb(100%,100%,100%);fill-opacity:1;" d="M 126.398438 51.519531 L 107.761719 51.519531 C 106.398438 51.519531 105.121094 52.398438 104.640625 53.679688 L 59.039062 178.640625 L 78.320312 189.761719 L 127.921875 53.679688 C 128.320312 52.558594 127.519531 51.441406 126.398438 51.441406 Z M 126.398438 51.519531 "/>
</g>
</svg>
