<?xml version="1.0" encoding="UTF-8"?>
<svg xmlns="http://www.w3.org/2000/svg" xmlns:xlink="http://www.w3.org/1999/xlink" width="200px" height="200px" viewBox="0 0 200 200" version="1.1">
<defs>
<filter id="alpha" filterUnits="objectBoundingBox" x="0%" y="0%" width="100%" height="100%">
  <feColorMatrix type="matrix" in="SourceGraphic" values="0 0 0 0 1 0 0 0 0 1 0 0 0 0 1 0 0 0 1 0"/>
</filter>
<mask id="mask0">
  <g filter="url(#alpha)">
<rect x="0" y="0" width="200" height="200" style="fill:rgb(0%,0%,0%);fill-opacity:0.952941;stroke:none;"/>
  </g>
</mask>
<clipPath id="clip1">
  <rect x="0" y="0" width="200" height="200"/>
</clipPath>
<g id="surface5" clip-path="url(#clip1)">
<path style=" stroke:none;fill-rule:evenodd;fill:rgb(0%,0%,0%);fill-opacity:1;" d="M 48.589844 -0.703125 C 49.53125 -0.703125 50.46875 -0.703125 51.410156 -0.703125 C 66.894531 15.953125 83.089844 31.917969 100 47.183594 C 116.011719 31.40625 131.738281 15.445312 147.183594 -0.703125 C 148.121094 -0.703125 149.0625 -0.703125 150 -0.703125 C 156.566406 7.039062 163.84375 14.078125 171.832031 20.421875 C 172.769531 21.832031 172.769531 23.238281 171.832031 24.648438 C 151.367188 45.582031 130.476562 66.003906 109.15625 85.914062 C 102.582031 88.730469 96.007812 88.730469 89.4375 85.914062 C 68.308594 64.789062 47.183594 43.660156 26.054688 22.535156 C 33.855469 14.972656 41.367188 7.226562 48.589844 -0.703125 Z M 48.589844 -0.703125 "/>
</g>
<mask id="mask1">
  <g filter="url(#alpha)">
<rect x="0" y="0" width="200" height="200" style="fill:rgb(0%,0%,0%);fill-opacity:0.94902;stroke:none;"/>
  </g>
</mask>
<clipPath id="clip2">
  <rect x="0" y="0" width="200" height="200"/>
</clipPath>
<g id="surface8" clip-path="url(#clip2)">
<path style=" stroke:none;fill-rule:evenodd;fill:rgb(0%,0%,0%);fill-opacity:1;" d="M -0.703125 150 C -0.703125 148.589844 -0.703125 147.183594 -0.703125 145.773438 C 16.125 131.296875 32.085938 115.804688 47.183594 99.296875 C 31.660156 82.835938 15.699219 66.871094 -0.703125 51.410156 C -0.703125 50.46875 -0.703125 49.53125 -0.703125 48.589844 C 6.992188 41.601562 14.503906 34.324219 21.832031 26.761719 C 22.769531 25.820312 23.707031 25.820312 24.648438 26.761719 C 45.070312 47.183594 65.492188 67.605469 85.914062 88.027344 C 89.96875 94.332031 90.4375 100.90625 87.324219 107.746094 C 66.433594 128.636719 45.539062 149.53125 24.648438 170.421875 C 23.238281 171.363281 21.832031 171.363281 20.421875 170.421875 C 13.566406 163.328125 6.523438 156.519531 -0.703125 150 Z M -0.703125 150 "/>
</g>
<mask id="mask2">
  <g filter="url(#alpha)">
<rect x="0" y="0" width="200" height="200" style="fill:rgb(0%,0%,0%);fill-opacity:0.945098;stroke:none;"/>
  </g>
</mask>
<clipPath id="clip3">
  <rect x="0" y="0" width="200" height="200"/>
</clipPath>
<g id="surface11" clip-path="url(#clip3)">
<path style=" stroke:none;fill-rule:evenodd;fill:rgb(0%,0%,0%);fill-opacity:1;" d="M 199.296875 47.183594 C 199.296875 48.589844 199.296875 50 199.296875 51.410156 C 183.148438 66.851562 167.1875 82.578125 151.410156 98.589844 C 167.1875 114.605469 183.148438 130.332031 199.296875 145.773438 C 199.296875 147.183594 199.296875 148.589844 199.296875 150 C 192.070312 156.519531 185.027344 163.328125 178.167969 170.421875 C 176.761719 171.363281 175.351562 171.363281 173.945312 170.421875 C 153.519531 150 133.097656 129.578125 112.675781 109.15625 C 107.933594 101.320312 108.402344 93.808594 114.085938 86.621094 C 134.078125 66.15625 154.5 46.203125 175.351562 26.761719 C 176.292969 25.820312 177.230469 25.820312 178.167969 26.761719 C 185.027344 33.855469 192.070312 40.660156 199.296875 47.183594 Z M 199.296875 47.183594 "/>
</g>
<mask id="mask3">
  <g filter="url(#alpha)">
<rect x="0" y="0" width="200" height="200" style="fill:rgb(0%,0%,0%);fill-opacity:0.945098;stroke:none;"/>
  </g>
</mask>
<clipPath id="clip4">
  <rect x="0" y="0" width="200" height="200"/>
</clipPath>
<g id="surface14" clip-path="url(#clip4)">
<path style=" stroke:none;fill-rule:evenodd;fill:rgb(0%,0%,0%);fill-opacity:1;" d="M 150 199.296875 C 149.53125 199.296875 149.0625 199.296875 148.589844 199.296875 C 132.226562 183.402344 115.792969 167.4375 99.296875 151.410156 C 82.835938 166.929688 66.871094 182.894531 51.410156 199.296875 C 50.9375 199.296875 50.46875 199.296875 50 199.296875 C 42.105469 192.109375 34.359375 184.597656 26.761719 176.761719 C 25.820312 175.820312 25.820312 174.882812 26.761719 173.945312 C 47.183594 153.519531 67.605469 133.097656 88.027344 112.675781 C 95.539062 107.980469 103.050781 107.980469 110.5625 112.675781 C 130.984375 133.097656 151.410156 153.519531 171.832031 173.945312 C 172.769531 174.882812 172.769531 175.820312 171.832031 176.761719 C 164.269531 184.085938 156.992188 191.597656 150 199.296875 Z M 150 199.296875 "/>
</g>
</defs>
<g id="surface1">
<use xlink:href="#surface5" mask="url(#mask0)"/>
<use xlink:href="#surface8" mask="url(#mask1)"/>
<use xlink:href="#surface11" mask="url(#mask2)"/>
<use xlink:href="#surface14" mask="url(#mask3)"/>
</g>
</svg>
