<?xml version="1.0" encoding="UTF-8"?>
<svg xmlns="http://www.w3.org/2000/svg" xmlns:xlink="http://www.w3.org/1999/xlink" width="200px" height="200px" viewBox="0 0 200 200" version="1.1">
<g id="surface1">
<path style=" stroke:none;fill-rule:evenodd;fill:rgb(27.058824%,12.54902%,90.196078%);fill-opacity:1;" d="M 158.519531 136.179688 C 158.519531 153.09375 144.710938 166.851562 127.730469 166.851562 L 68.703125 166.851562 L 130.046875 105.742188 C 145.925781 106.945312 158.519531 120.058594 158.519531 136.179688 Z M 60 103.148438 L 60 32.222656 L 127.867188 32.222656 C 129.027344 32.222656 130.167969 32.285156 131.296875 32.410156 Z M 170.867188 62.753906 C 170.867188 48.460938 163.796875 35.785156 152.949219 27.992188 L 182.222656 -1.109375 L 164.710938 -1.011719 L 141.453125 22.109375 C 137.148438 20.671875 132.542969 19.890625 127.757812 19.890625 L 47.695312 19.890625 L 47.695312 132.640625 L 144.085938 36.804688 C 152.769531 42.226562 158.554688 51.832031 158.554688 62.753906 C 158.554688 79.636719 144.742188 93.371094 127.757812 93.371094 L 125.207031 93.371094 L 17.964844 200 L 35.375 200 L 56.402344 179.09375 L 127.757812 179.09375 C 151.527344 179.09375 170.867188 159.867188 170.867188 136.234375 C 170.867188 120.648438 162.429688 107.019531 149.886719 99.519531 C 162.441406 92.019531 170.867188 78.347656 170.867188 62.753906 Z M 170.867188 62.753906 "/>
</g>
</svg>
