<?xml version="1.0" encoding="UTF-8"?>
<svg xmlns="http://www.w3.org/2000/svg" xmlns:xlink="http://www.w3.org/1999/xlink" width="200px" height="200px" viewBox="0 0 200 200" version="1.1">
<g id="surface1">
<path style=" stroke:none;fill-rule:nonzero;fill:rgb(3.921569%,75.686275%,55.686275%);fill-opacity:1;" d="M 200 100 C 200 155.226562 155.226562 200 100 200 C 44.773438 200 0 155.226562 0 100 C 0 44.773438 44.773438 0 100 0 C 155.226562 0 200 44.773438 200 100 Z M 200 100 "/>
<path style=" stroke:none;fill-rule:nonzero;fill:rgb(100%,100%,100%);fill-opacity:1;" d="M 131.191406 66.421875 C 126.167969 55.023438 114.621094 52.589844 100.480469 54.949219 L 95.9375 37.335938 L 85.226562 40.101562 L 89.695312 57.664062 C 86.878906 58.375 83.984375 58.984375 81.117188 59.796875 L 76.648438 42.335938 L 65.9375 45.101562 L 70.480469 62.714844 C 68.171875 63.375 48.859375 68.324219 48.859375 68.324219 L 51.800781 79.796875 C 51.800781 79.796875 59.671875 77.589844 59.59375 77.765625 C 63.960938 76.625 66.015625 78.808594 66.980469 80.863281 L 79.46875 129.136719 C 79.621094 130.53125 79.367188 132.917969 76.371094 133.730469 C 76.546875 133.832031 68.578125 135.734375 68.578125 135.734375 L 69.746094 149.113281 C 69.746094 149.113281 88.882812 144.214844 91.394531 143.578125 L 95.988281 161.394531 L 106.699219 158.628906 L 102.105469 140.683594 C 105.050781 140 107.917969 139.289062 110.710938 138.554688 L 115.277344 156.394531 L 125.988281 153.628906 L 121.394531 135.835938 C 137.894531 131.828125 149.542969 121.421875 147.15625 105.507812 C 145.632812 95.914062 135.152344 88.046875 126.445312 87.15625 C 131.800781 82.410156 134.519531 75.480469 131.191406 66.421875 Z M 126.039062 108.425781 C 128.171875 124.1875 106.269531 126.117188 99.035156 128.019531 L 92.742188 104.441406 C 100 102.539062 122.4375 94.542969 126.039062 108.425781 Z M 112.84375 76.320312 C 115.101562 90.328125 96.371094 91.953125 90.328125 93.503906 L 84.59375 72.105469 C 90.660156 70.609375 108.25 63.351562 112.84375 76.320312 Z M 112.84375 76.320312 "/>
</g>
</svg>
