<?xml version="1.0" encoding="UTF-8"?>
<svg xmlns="http://www.w3.org/2000/svg" xmlns:xlink="http://www.w3.org/1999/xlink" width="200px" height="200px" viewBox="0 0 200 200" version="1.1">
<defs>
<linearGradient id="linear0" gradientUnits="userSpaceOnUse" x1="16" y1="0" x2="16" y2="32" gradientTransform="matrix(6.25,0,0,6.25,0,0)">
<stop offset="0" style="stop-color:rgb(0%,80%,58.431373%);stop-opacity:1;"/>
<stop offset="1" style="stop-color:rgb(0%,61.568627%,45.098039%);stop-opacity:1;"/>
</linearGradient>
</defs>
<g id="surface1">
<path style=" stroke:none;fill-rule:nonzero;fill:url(#linear0);" d="M 100 200 C 155.230469 200 200 155.230469 200 100 C 200 44.773438 155.230469 0 100 0 C 44.773438 0 0 44.773438 0 100 C 0 155.230469 44.773438 200 100 200 Z M 100 200 "/>
<path style="fill:none;stroke-width:0.5;stroke-linecap:butt;stroke-linejoin:miter;stroke:rgb(100%,100%,100%);stroke-opacity:1;stroke-miterlimit:4;" d="M 16 31.75 C 24.69875 31.75 31.75 24.69875 31.75 16 C 31.75 7.30125 24.69875 0.25 16 0.25 C 7.30125 0.25 0.25 7.30125 0.25 16 C 0.25 24.69875 7.30125 31.75 16 31.75 Z M 16 31.75 " transform="matrix(6.25,0,0,6.25,0,0)"/>
<path style=" stroke:none;fill-rule:nonzero;fill:rgb(100%,100%,100%);fill-opacity:1;" d="M 145.808594 118.550781 L 145.152344 118.550781 C 143.511719 120.519531 141.214844 121.832031 138.917969 122.816406 L 138.589844 122.816406 C 136.621094 123.800781 134.324219 124.128906 132.027344 124.128906 C 128.746094 124.457031 125.464844 123.472656 122.183594 122.160156 L 121.527344 122.160156 C 118.574219 120.519531 116.277344 118.222656 114.636719 115.597656 L 114.636719 114.941406 L 108.402344 121.175781 C 108.402344 121.175781 107.089844 127.410156 106.761719 130.691406 L 107.089844 130.691406 C 113.324219 137.582031 122.511719 141.847656 132.027344 141.847656 L 133.011719 141.847656 C 139.246094 141.847656 145.152344 140.207031 150.730469 137.253906 C 153.683594 135.613281 156.308594 133.972656 158.933594 131.675781 L 159.261719 131.675781 Z M 145.808594 118.550781 "/>
<path style=" stroke:none;fill-rule:nonzero;fill:rgb(100%,100%,100%);fill-opacity:1;" d="M 57.226562 87.375 L 59.851562 96.890625 L 60.507812 96.234375 C 63.132812 92.296875 67.398438 89.34375 71.992188 88.6875 L 72.320312 88.6875 C 73.960938 88.359375 75.601562 88.03125 77.570312 88.03125 C 80.195312 88.359375 82.820312 89.015625 85.117188 90.328125 C 88.398438 91.96875 91.023438 94.265625 93.320312 97.21875 L 93.976562 97.875 L 99.882812 89.34375 L 101.523438 80.484375 L 100.867188 79.828125 C 96.929688 76.21875 92.335938 73.59375 87.414062 71.953125 C 84.789062 70.96875 81.835938 70.640625 78.882812 70.3125 L 78.554688 70.3125 C 71.992188 70.3125 65.757812 71.953125 60.179688 75.234375 L 57.554688 86.390625 Z M 57.226562 87.375 "/>
<path style=" stroke:none;fill-rule:nonzero;fill:rgb(100%,100%,100%);fill-opacity:1;" d="M 113.335938 111.988281 L 113.335938 106.082031 C 113.335938 101.816406 114.648438 97.878906 117.273438 94.597656 L 117.601562 94.597656 L 118.585938 93.285156 C 122.195312 89.675781 126.789062 87.707031 132.039062 87.707031 L 134.664062 87.707031 C 138.601562 88.363281 142.539062 90.332031 145.492188 92.957031 L 145.164062 92.957031 L 157.960938 80.160156 L 157.304688 80.160156 C 151.070312 73.925781 142.539062 69.988281 133.679688 69.660156 L 131.054688 69.660156 C 125.804688 69.660156 120.554688 70.644531 115.304688 72.613281 C 112.023438 73.925781 109.070312 76.222656 106.773438 78.519531 L 106.117188 78.519531 L 103.492188 81.472656 L 101.523438 90.332031 L 94.632812 99.519531 L 94.632812 106.082031 C 94.632812 113.300781 90.367188 119.863281 83.804688 122.816406 C 73.960938 127.082031 62.804688 122.488281 58.539062 112.644531 C 57.554688 110.675781 57.226562 108.378906 56.898438 106.082031 L 56.898438 99.847656 L 53.617188 86.722656 L 56.570312 74.582031 L 56.570312 55.550781 L 38.195312 49.316406 L 38.851562 91.644531 L 38.851562 106.410156 C 38.851562 107.066406 38.851562 107.394531 39.179688 108.050781 L 39.507812 108.050781 C 40.164062 118.550781 45.085938 128.066406 53.289062 134.300781 C 60.179688 139.550781 68.382812 142.175781 76.914062 142.175781 L 78.554688 142.175781 C 87.085938 142.175781 95.617188 138.894531 101.851562 133.316406 L 104.476562 130.363281 L 106.445312 119.863281 Z M 113.335938 111.988281 "/>
</g>
</svg>
