<?xml version="1.0" encoding="UTF-8"?>
<svg xmlns="http://www.w3.org/2000/svg" xmlns:xlink="http://www.w3.org/1999/xlink" width="200px" height="200px" viewBox="0 0 200 200" version="1.1">
<defs>
<linearGradient id="linear0" gradientUnits="userSpaceOnUse" x1="951.4019" y1="1547.1788" x2="952.3822" y2="1547.929" gradientTransform="matrix(127.36,0,0,-96.052672,-121134.08,148799.96)">
<stop offset="0" style="stop-color:rgb(49.803922%,3.921569%,90.980392%);stop-opacity:1;"/>
<stop offset="1" style="stop-color:rgb(6.666667%,85.882353%,71.764706%);stop-opacity:1;"/>
</linearGradient>
<linearGradient id="linear1" gradientUnits="userSpaceOnUse" x1="951.3911" y1="1547.2701" x2="952.2557" y2="1547.191" gradientTransform="matrix(127.7604,0,0,-157.44,-121515.66,243679.22)">
<stop offset="0" style="stop-color:rgb(50.588235%,3.529412%,91.764706%);stop-opacity:1;"/>
<stop offset="0.4392" style="stop-color:rgb(45.882353%,3.921569%,90.980392%);stop-opacity:1;"/>
<stop offset="1" style="stop-color:rgb(20.784314%,6.27451%,86.666667%);stop-opacity:1;"/>
</linearGradient>
<linearGradient id="linear2" gradientUnits="userSpaceOnUse" x1="951.4019" y1="1547.1788" x2="952.3822" y2="1547.929" gradientTransform="matrix(127.36,0,0,-96.052672,-121134.08,148799.96)">
<stop offset="0" style="stop-color:rgb(49.803922%,3.921569%,90.980392%);stop-opacity:1;"/>
<stop offset="1" style="stop-color:rgb(6.666667%,85.882353%,71.764706%);stop-opacity:1;"/>
</linearGradient>
<linearGradient id="linear3" gradientUnits="userSpaceOnUse" x1="951.3911" y1="1547.2701" x2="952.2557" y2="1547.191" gradientTransform="matrix(127.7604,0,0,-157.44,-121515.66,243679.22)">
<stop offset="0" style="stop-color:rgb(50.588235%,3.529412%,91.764706%);stop-opacity:1;"/>
<stop offset="0.4392" style="stop-color:rgb(45.882353%,3.921569%,90.980392%);stop-opacity:1;"/>
<stop offset="1" style="stop-color:rgb(20.784314%,6.27451%,86.666667%);stop-opacity:1;"/>
</linearGradient>
</defs>
<g id="surface1">
<path style=" stroke:none;fill-rule:evenodd;fill:url(#linear0);" d="M 156.71875 144.878906 C 157.679688 144.320312 163.839844 136.800781 163.839844 136.800781 L 163.839844 121.601562 L 156.640625 112 L 141.679688 103.839844 L 119.601562 116.558594 C 119.601562 116.558594 115.441406 119.601562 118.480469 121.601562 C 121.519531 123.601562 129.921875 128.878906 129.921875 128.878906 L 63.359375 167.28125 L 62.800781 153.679688 C 62.800781 153.679688 61.761719 149.199219 57.761719 151.519531 C 53.761719 153.839844 36.480469 163.519531 36.480469 163.519531 L 36.558594 188.878906 C 36.558594 191.839844 44.480469 199.519531 52.878906 199.839844 C 61.199219 200.160156 63.359375 198.960938 66.160156 197.921875 L 156.800781 144.800781 Z M 156.71875 144.878906 "/>
<path style=" stroke:none;fill-rule:evenodd;fill:url(#linear1);" d="M 156.71875 87.921875 L 163.839844 79.519531 L 163.839844 62.640625 L 156.800781 54.480469 L 62.558594 0 L 48.160156 0.320312 C 48.160156 0.320312 36 2.878906 36.078125 12.480469 L 36.320312 35.761719 L 57.441406 48 C 57.441406 48 62.558594 50.480469 62.398438 45.039062 C 62.160156 39.679688 62.800781 31.761719 62.800781 31.761719 L 130.160156 70.640625 L 63.359375 109.199219 L 63.359375 90.640625 L 71.839844 94.71875 C 71.839844 94.71875 74.640625 96.238281 75.839844 95.519531 C 77.039062 94.800781 96.160156 83.761719 96.160156 83.761719 C 96.160156 83.761719 98.558594 81.921875 98.320312 80.398438 C 98.160156 78.878906 96.960938 77.519531 96.960938 77.519531 L 40.480469 44.878906 C 40.480469 44.878906 38.480469 43.679688 36.960938 44.558594 C 35.519531 45.441406 36.480469 157.441406 36.480469 157.441406 Z M 156.71875 87.921875 "/>
<path style=" stroke:none;fill-rule:evenodd;fill:url(#linear2);" d="M 156.71875 144.878906 C 157.679688 144.320312 163.839844 136.800781 163.839844 136.800781 L 163.839844 121.601562 L 156.640625 112 L 141.679688 103.839844 L 119.601562 116.558594 C 119.601562 116.558594 115.441406 119.601562 118.480469 121.601562 C 121.519531 123.601562 129.921875 128.878906 129.921875 128.878906 L 63.359375 167.28125 L 62.800781 153.679688 C 62.800781 153.679688 61.761719 149.199219 57.761719 151.519531 C 53.761719 153.839844 36.480469 163.519531 36.480469 163.519531 L 36.558594 188.878906 C 36.558594 191.839844 44.480469 199.519531 52.878906 199.839844 C 61.199219 200.160156 63.359375 198.960938 66.160156 197.921875 L 156.800781 144.800781 Z M 156.71875 144.878906 "/>
<path style=" stroke:none;fill-rule:evenodd;fill:url(#linear3);" d="M 156.71875 87.921875 L 163.839844 79.519531 L 163.839844 62.640625 L 156.800781 54.480469 L 62.558594 0 L 48.160156 0.320312 C 48.160156 0.320312 36 2.878906 36.078125 12.480469 L 36.320312 35.761719 L 57.441406 48 C 57.441406 48 62.558594 50.480469 62.398438 45.039062 C 62.160156 39.679688 62.800781 31.761719 62.800781 31.761719 L 130.160156 70.640625 L 63.359375 109.199219 L 63.359375 90.640625 L 71.839844 94.71875 C 71.839844 94.71875 74.640625 96.238281 75.839844 95.519531 C 77.039062 94.800781 96.160156 83.761719 96.160156 83.761719 C 96.160156 83.761719 98.558594 81.921875 98.320312 80.398438 C 98.160156 78.878906 96.960938 77.519531 96.960938 77.519531 L 40.480469 44.878906 C 40.480469 44.878906 38.480469 43.679688 36.960938 44.558594 C 35.519531 45.441406 36.480469 157.441406 36.480469 157.441406 Z M 156.71875 87.921875 "/>
</g>
</svg>
