<?xml version="1.0" encoding="UTF-8"?>
<svg xmlns="http://www.w3.org/2000/svg" xmlns:xlink="http://www.w3.org/1999/xlink" width="200px" height="200px" viewBox="0 0 200 200" version="1.1">
<g id="surface1">
<path style=" stroke:none;fill-rule:nonzero;fill:rgb(100%,0%,36.078431%);fill-opacity:1;" d="M 99.808594 0 C 92.238281 -0.0585938 84.691406 0.835938 77.339844 2.667969 L 77.339844 127.152344 C 77.183594 129.582031 75.230469 131.484375 72.847656 131.527344 L 63.859375 131.527344 C 62.019531 131.503906 60.523438 129.996094 60.480469 128.117188 L 60.480469 7.957031 C 24.152344 23.414062 0.4375 59.621094 0.308594 99.824219 C 0.710938 155.578125 45.285156 200.4375 99.851562 200 L 100.191406 200 C 154.539062 200.605469 199.078125 156.09375 199.691406 100.570312 L 199.691406 100.21875 C 199.03125 44.433594 154.410156 -0.339844 99.808594 0 Z M 97.96875 141.539062 C 97.96875 143.953125 96.050781 145.910156 93.6875 145.910156 L 84.699219 145.910156 C 82.335938 145.910156 80.421875 143.953125 80.421875 141.539062 L 80.421875 78.179688 C 80.421875 75.765625 82.335938 73.808594 84.699219 73.808594 L 93.6875 73.808594 C 96.050781 73.808594 97.96875 75.765625 97.96875 78.179688 Z M 118.167969 147.617188 C 118.167969 150.03125 116.25 151.988281 113.886719 151.988281 L 104.898438 151.988281 C 102.535156 151.988281 100.621094 150.03125 100.621094 147.617188 L 100.621094 72.101562 C 100.734375 69.773438 102.617188 67.945312 104.898438 67.949219 L 113.886719 67.949219 C 116.167969 67.945312 118.050781 69.773438 118.167969 72.101562 Z M 138.367188 136.25 C 138.367188 138.664062 136.449219 140.621094 134.085938 140.621094 L 125.269531 140.621094 C 122.90625 140.621094 120.992188 138.664062 120.992188 136.25 L 120.992188 84.257812 C 120.992188 81.84375 122.90625 79.886719 125.269531 79.886719 L 134.257812 79.886719 C 136.621094 79.886719 138.535156 81.84375 138.535156 84.257812 Z M 138.367188 136.25 "/>
</g>
</svg>
