<?xml version="1.0" encoding="UTF-8"?>
<svg xmlns="http://www.w3.org/2000/svg" xmlns:xlink="http://www.w3.org/1999/xlink" width="200px" height="200px" viewBox="0 0 200 200" version="1.1">
<g id="surface1">
<path style=" stroke:none;fill-rule:nonzero;fill:rgb(0%,0%,0%);fill-opacity:1;" d="M 200 100 C 200 155.226562 155.226562 200 100 200 C 44.773438 200 0 155.226562 0 100 C 0 44.773438 44.773438 0 100 0 C 155.226562 0 200 44.773438 200 100 Z M 200 100 "/>
<path style=" stroke:none;fill-rule:nonzero;fill:rgb(94.117647%,72.54902%,4.313725%);fill-opacity:1;" d="M 55.019531 99.96875 L 55.09375 126.414062 L 77.5625 139.632812 L 77.5625 155.113281 L 41.945312 134.226562 L 41.945312 92.238281 Z M 55.019531 73.527344 L 55.019531 88.9375 L 41.933594 81.195312 L 41.933594 65.789062 L 55.019531 58.046875 L 68.167969 65.789062 Z M 86.941406 65.789062 L 100.027344 58.046875 L 113.175781 65.789062 L 100.027344 73.527344 Z M 86.941406 65.789062 "/>
<path style=" stroke:none;fill-rule:nonzero;fill:rgb(94.117647%,72.54902%,4.313725%);fill-opacity:1;" d="M 64.476562 120.929688 L 64.476562 105.449219 L 77.5625 113.191406 L 77.5625 128.601562 Z M 86.941406 145.179688 L 100.027344 152.917969 L 113.175781 145.179688 L 113.175781 160.585938 L 100.027344 168.328125 L 86.941406 160.585938 Z M 131.941406 65.789062 L 145.027344 58.046875 L 158.175781 65.789062 L 158.175781 81.195312 L 145.027344 88.9375 L 145.027344 73.527344 Z M 145.027344 126.414062 L 145.101562 99.96875 L 158.1875 92.230469 L 158.1875 134.214844 L 122.570312 155.105469 L 122.570312 139.625 Z M 145.027344 126.414062 "/>
<path style=" stroke:none;fill-rule:nonzero;fill:rgb(94.117647%,72.54902%,4.313725%);fill-opacity:1;" d="M 135.644531 120.929688 L 122.5625 128.601562 L 122.5625 113.191406 L 135.644531 105.449219 Z M 135.644531 120.929688 "/>
<path style=" stroke:none;fill-rule:nonzero;fill:rgb(94.117647%,72.54902%,4.313725%);fill-opacity:1;" d="M 135.644531 79.007812 L 135.71875 94.488281 L 113.1875 107.710938 L 113.1875 134.214844 L 100.101562 141.886719 L 87.015625 134.214844 L 87.015625 107.710938 L 64.484375 94.488281 L 64.484375 79.007812 L 77.625 71.269531 L 100.019531 84.554688 L 122.550781 71.269531 L 135.703125 79.007812 Z M 64.476562 52.574219 L 100.027344 31.613281 L 135.644531 52.574219 L 122.5625 60.316406 L 100.027344 47.03125 L 77.5625 60.316406 Z M 64.476562 52.574219 "/>
</g>
</svg>
