<?xml version="1.0" encoding="UTF-8"?>
<svg xmlns="http://www.w3.org/2000/svg" xmlns:xlink="http://www.w3.org/1999/xlink" width="200px" height="200px" viewBox="0 0 200 200" version="1.1">
<g id="surface1">
<path style=" stroke:none;fill-rule:nonzero;fill:rgb(96.862745%,57.647059%,10.196078%);fill-opacity:1;" d="M 197.007812 124.1875 C 183.652344 177.753906 129.382812 210.351562 75.800781 196.992188 C 22.238281 183.640625 -10.367188 129.382812 2.996094 75.824219 C 16.347656 22.253906 70.613281 -10.347656 124.179688 3.003906 C 177.761719 16.359375 210.363281 70.621094 197.007812 124.1875 Z M 197.007812 124.1875 "/>
<path style=" stroke:none;fill-rule:nonzero;fill:rgb(100%,100%,100%);fill-opacity:1;" d="M 144.101562 85.753906 C 146.089844 72.449219 135.957031 65.296875 122.101562 60.523438 L 126.597656 42.5 L 115.621094 39.765625 L 111.246094 57.316406 C 108.363281 56.597656 105.398438 55.917969 102.453125 55.246094 L 106.863281 37.582031 L 95.894531 34.847656 L 91.398438 52.867188 C 89.007812 52.320312 86.664062 51.785156 84.390625 51.21875 L 84.402344 51.164062 L 69.265625 47.382812 L 66.347656 59.101562 C 66.347656 59.101562 74.492188 60.96875 74.320312 61.082031 C 78.761719 62.191406 79.566406 65.132812 79.433594 67.464844 L 74.3125 88 C 74.617188 88.078125 75.015625 88.1875 75.453125 88.363281 C 75.085938 88.273438 74.699219 88.175781 74.292969 88.078125 L 67.117188 116.84375 C 66.574219 118.191406 65.195312 120.21875 62.089844 119.449219 C 62.199219 119.609375 54.113281 117.460938 54.113281 117.460938 L 48.664062 130.019531 L 62.945312 133.578125 C 65.601562 134.242188 68.207031 134.941406 70.769531 135.597656 L 66.226562 153.828125 L 77.191406 156.5625 L 81.6875 138.523438 C 84.683594 139.335938 87.589844 140.085938 90.433594 140.792969 L 85.949219 158.746094 L 96.925781 161.480469 L 101.464844 143.28125 C 120.179688 146.824219 134.253906 145.394531 140.175781 128.472656 C 144.949219 114.847656 139.9375 106.988281 130.09375 101.863281 C 137.261719 100.210938 142.664062 95.496094 144.105469 85.753906 Z M 119.027344 120.90625 C 115.632812 134.53125 92.6875 127.167969 85.25 125.320312 L 91.277344 101.167969 C 98.714844 103.023438 122.570312 106.695312 119.027344 120.90625 Z M 122.421875 85.558594 C 119.328125 97.949219 100.230469 91.652344 94.035156 90.109375 L 99.496094 68.203125 C 105.691406 69.75 125.644531 72.628906 122.421875 85.558594 Z M 122.421875 85.558594 "/>
</g>
</svg>
