<?xml version="1.0" encoding="UTF-8"?>
<svg xmlns="http://www.w3.org/2000/svg" xmlns:xlink="http://www.w3.org/1999/xlink" width="200px" height="200px" viewBox="0 0 200 200" version="1.1">
<defs>
<filter id="alpha" filterUnits="objectBoundingBox" x="0%" y="0%" width="100%" height="100%">
  <feColorMatrix type="matrix" in="SourceGraphic" values="0 0 0 0 1 0 0 0 0 1 0 0 0 0 1 0 0 0 1 0"/>
</filter>
<mask id="mask0">
  <g filter="url(#alpha)">
<rect x="0" y="0" width="200" height="200" style="fill:rgb(0%,0%,0%);fill-opacity:0.996078;stroke:none;"/>
  </g>
</mask>
<clipPath id="clip1">
  <rect x="0" y="0" width="200" height="200"/>
</clipPath>
<g id="surface5" clip-path="url(#clip1)">
<path style=" stroke:none;fill-rule:evenodd;fill:rgb(98.823529%,83.529412%,18.039216%);fill-opacity:1;" d="M 82.820312 -0.605469 C 94.683594 -0.605469 106.542969 -0.605469 118.40625 -0.605469 C 131.289062 2.320312 143.148438 7.574219 153.988281 15.152344 C 144.976562 20.019531 136.796875 26.078125 129.449219 33.332031 C 108.109375 24.140625 87.660156 25.351562 68.097656 36.96875 C 63.847656 33.378906 59.757812 29.539062 55.828125 25.453125 C 51.449219 23.101562 47.359375 20.476562 43.558594 17.574219 C 55.460938 8.867188 68.546875 2.804688 82.820312 -0.605469 Z M 82.820312 -0.605469 "/>
</g>
<mask id="mask1">
  <g filter="url(#alpha)">
<rect x="0" y="0" width="200" height="200" style="fill:rgb(0%,0%,0%);fill-opacity:0.996078;stroke:none;"/>
  </g>
</mask>
<clipPath id="clip2">
  <rect x="0" y="0" width="200" height="200"/>
</clipPath>
<g id="surface8" clip-path="url(#clip2)">
<path style=" stroke:none;fill-rule:evenodd;fill:rgb(21.176471%,20.784314%,20.784314%);fill-opacity:1;" d="M 189.570312 16.363281 C 189.199219 19.464844 189.609375 22.292969 190.796875 24.847656 C 190.796875 25.253906 190.796875 25.65625 190.796875 26.0625 C 190.46875 28 190.878906 29.613281 192.023438 30.910156 C 192.023438 31.3125 192.023438 31.71875 192.023438 32.121094 C 192.449219 41.078125 191.222656 49.765625 188.34375 58.183594 C 189.027344 58.644531 189.433594 59.25 189.570312 60 C 188.496094 59.839844 187.675781 60.246094 187.117188 61.210938 C 182.574219 72.765625 175.824219 82.867188 166.871094 91.515625 C 152.878906 78.203125 139.378906 78.609375 126.378906 92.726562 C 119.738281 108.191406 124.03125 119.707031 139.265625 127.273438 C 145.082031 127.929688 150.808594 127.929688 156.441406 127.273438 C 150.40625 135.460938 143.042969 142.128906 134.355469 147.273438 C 136.8125 139.621094 135.382812 132.753906 130.0625 126.667969 C 124.234375 121.722656 119.328125 116.066406 115.335938 109.695312 C 113.042969 98.929688 111.816406 88.019531 111.65625 76.96875 C 108.675781 68.546875 104.585938 67.738281 99.386719 74.546875 C 98.976562 85.859375 98.570312 97.171875 98.160156 108.484375 C 95.050781 115.601562 90.140625 121.257812 83.4375 125.453125 C 75.726562 135.648438 76.339844 145.347656 85.277344 154.546875 C 54.996094 147.347656 37.617188 128.359375 33.128906 97.574219 C 23.945312 88.269531 15.96875 78.167969 9.203125 67.273438 C 9.339844 66.523438 9.746094 65.917969 10.429688 65.453125 C 5.164062 54.988281 3.117188 43.878906 4.292969 32.121094 C 5.460938 30.402344 5.871094 28.382812 5.519531 26.0625 C 5.519531 25.65625 5.519531 25.253906 5.519531 24.847656 C 6.714844 21.882812 7.125 18.648438 6.75 15.152344 C 6.84375 13.636719 7.660156 12.625 9.203125 12.121094 C 21.078125 11.355469 32.53125 13.175781 43.558594 17.574219 C 47.359375 20.476562 51.449219 23.101562 55.828125 25.453125 C 59.757812 29.539062 63.847656 33.378906 68.097656 36.96875 C 67.9375 38.03125 68.347656 38.839844 69.324219 39.394531 C 87.78125 30.652344 106.59375 29.84375 125.765625 36.96875 C 128.242188 36.949219 129.46875 35.738281 129.449219 33.332031 C 136.796875 26.078125 144.976562 20.019531 153.988281 15.152344 C 165.117188 10.421875 176.566406 9.003906 188.34375 10.910156 C 189.421875 12.554688 189.832031 14.371094 189.570312 16.363281 Z M 189.570312 16.363281 "/>
</g>
<mask id="mask2">
  <g filter="url(#alpha)">
<rect x="0" y="0" width="200" height="200" style="fill:rgb(0%,0%,0%);fill-opacity:0.00392157;stroke:none;"/>
  </g>
</mask>
<clipPath id="clip3">
  <rect x="0" y="0" width="200" height="200"/>
</clipPath>
<g id="surface11" clip-path="url(#clip3)">
<path style=" stroke:none;fill-rule:evenodd;fill:rgb(60.784314%,61.176471%,60.784314%);fill-opacity:1;" d="M 192.023438 13.9375 C 193.660156 14.746094 193.660156 14.746094 192.023438 13.9375 Z M 192.023438 13.9375 "/>
</g>
<mask id="mask3">
  <g filter="url(#alpha)">
<rect x="0" y="0" width="200" height="200" style="fill:rgb(0%,0%,0%);fill-opacity:0.109804;stroke:none;"/>
  </g>
</mask>
<clipPath id="clip4">
  <rect x="0" y="0" width="200" height="200"/>
</clipPath>
<g id="surface14" clip-path="url(#clip4)">
<path style=" stroke:none;fill-rule:evenodd;fill:rgb(5.490196%,5.098039%,5.098039%);fill-opacity:1;" d="M 6.75 15.152344 C 7.125 18.648438 6.714844 21.882812 5.519531 24.847656 C 3.886719 25.253906 3.886719 25.65625 5.519531 26.0625 C 5.871094 28.382812 5.460938 30.402344 4.292969 32.121094 C 3.117188 43.878906 5.164062 54.988281 10.429688 65.453125 C 9.746094 65.917969 9.339844 66.523438 9.203125 67.273438 C 9.414062 68.476562 9.003906 69.28125 7.976562 69.695312 C 6.339844 70.101562 6.339844 70.503906 7.976562 70.910156 C 8.1875 72.109375 7.777344 72.917969 6.75 73.332031 C 3.148438 66.363281 0.695312 59.089844 -0.613281 51.515625 C -0.613281 48.6875 -0.613281 45.859375 -0.613281 43.03125 C 1.023438 42.222656 1.023438 41.414062 -0.613281 40.605469 C -0.613281 40.203125 -0.613281 39.796875 -0.613281 39.394531 C 0.800781 34.90625 2.027344 30.261719 3.066406 25.453125 C 2.660156 24.242188 2.25 23.03125 1.839844 21.816406 C 2.730469 20.121094 3.34375 18.304688 3.679688 16.363281 C 4.089844 17.171875 4.5 17.980469 4.90625 18.789062 C 5.191406 17.289062 5.804688 16.074219 6.75 15.152344 Z M 6.75 15.152344 "/>
</g>
<mask id="mask4">
  <g filter="url(#alpha)">
<rect x="0" y="0" width="200" height="200" style="fill:rgb(0%,0%,0%);fill-opacity:0.101961;stroke:none;"/>
  </g>
</mask>
<clipPath id="clip5">
  <rect x="0" y="0" width="200" height="200"/>
</clipPath>
<g id="surface17" clip-path="url(#clip5)">
<path style=" stroke:none;fill-rule:evenodd;fill:rgb(4.313725%,4.313725%,4.313725%);fill-opacity:1;" d="M 192.023438 15.152344 C 193.652344 24.8125 195.289062 34.511719 196.933594 44.242188 C 195.898438 51.386719 194.265625 58.257812 192.023438 64.847656 C 192.234375 63.648438 191.824219 62.839844 190.796875 62.425781 C 189.769531 62.011719 189.359375 61.203125 189.570312 60 C 189.433594 59.25 189.027344 58.644531 188.34375 58.183594 C 191.222656 49.765625 192.449219 41.078125 192.023438 32.121094 C 193.15625 27.304688 193.15625 26.902344 192.023438 30.910156 C 190.878906 29.613281 190.46875 28 190.796875 26.0625 C 192.203125 24.425781 192.203125 24.019531 190.796875 24.847656 C 189.609375 22.292969 189.199219 19.464844 189.570312 16.363281 C 190.390625 15.960938 191.207031 15.554688 192.023438 15.152344 Z M 192.023438 15.152344 "/>
</g>
<mask id="mask5">
  <g filter="url(#alpha)">
<rect x="0" y="0" width="200" height="200" style="fill:rgb(0%,0%,0%);fill-opacity:0.00784314;stroke:none;"/>
  </g>
</mask>
<clipPath id="clip6">
  <rect x="0" y="0" width="200" height="200"/>
</clipPath>
<g id="surface20" clip-path="url(#clip6)">
<path style=" stroke:none;fill-rule:evenodd;fill:rgb(11.372549%,11.372549%,11.372549%);fill-opacity:1;" d="M 193.25 69.695312 C 193.070312 68.421875 193.273438 67.210938 193.863281 66.0625 C 194.773438 67.574219 194.566406 68.789062 193.25 69.695312 Z M 193.25 69.695312 "/>
</g>
<mask id="mask6">
  <g filter="url(#alpha)">
<rect x="0" y="0" width="200" height="200" style="fill:rgb(0%,0%,0%);fill-opacity:0.223529;stroke:none;"/>
  </g>
</mask>
<clipPath id="clip7">
  <rect x="0" y="0" width="200" height="200"/>
</clipPath>
<g id="surface23" clip-path="url(#clip7)">
<path style=" stroke:none;fill-rule:evenodd;fill:rgb(5.098039%,3.921569%,3.137255%);fill-opacity:1;" d="M 199.386719 87.878906 C 199.386719 89.089844 199.386719 90.304688 199.386719 91.515625 C 197.75 91.917969 197.75 92.324219 199.386719 92.726562 C 199.386719 93.132812 199.386719 93.535156 199.386719 93.9375 C 197.75 94.34375 197.75 94.746094 199.386719 95.152344 C 199.386719 96.363281 199.386719 97.574219 199.386719 98.789062 C 197.75 99.597656 197.75 100.402344 199.386719 101.210938 C 199.386719 102.019531 199.386719 102.828125 199.386719 103.636719 C 190.484375 156.066406 159.808594 187.984375 107.363281 199.394531 C 103.273438 199.394531 99.183594 199.394531 95.09375 199.394531 C 50.976562 193.261719 20.507812 169.828125 3.679688 129.089844 C 1.769531 120.503906 0.339844 112.019531 -0.613281 103.636719 C -0.613281 102.425781 -0.613281 101.210938 -0.613281 100 C 0.410156 92.027344 1.84375 83.949219 3.679688 75.757812 C 3.9375 77.644531 4.550781 79.261719 5.519531 80.605469 C 5.730469 81.808594 5.324219 82.617188 4.292969 83.03125 C 2.660156 85.050781 2.660156 87.070312 4.292969 89.089844 C 5.640625 139.933594 31 172.859375 80.367188 187.878906 C 121.703125 193.320312 154.011719 178.976562 177.300781 144.847656 C 190.65625 126.027344 196.382812 105.015625 194.480469 81.816406 C 196.113281 80.203125 196.113281 78.585938 194.480469 76.96875 C 193.449219 76.554688 193.039062 75.746094 193.25 74.546875 C 194.195312 73.621094 194.808594 72.410156 195.09375 70.910156 C 196.40625 76.746094 197.835938 82.40625 199.386719 87.878906 Z M 199.386719 87.878906 "/>
</g>
</defs>
<g id="surface1">
<use xlink:href="#surface5" mask="url(#mask0)"/>
<use xlink:href="#surface8" mask="url(#mask1)"/>
<use xlink:href="#surface11" mask="url(#mask2)"/>
<path style=" stroke:none;fill-rule:evenodd;fill:rgb(97.254902%,83.921569%,19.607843%);fill-opacity:1;" d="M 165.03125 79.394531 C 173.554688 63.96875 177.234375 47.40625 176.074219 29.695312 C 162.253906 31.007812 149.984375 35.859375 139.265625 44.242188 C 138.296875 43.898438 137.476562 43.292969 136.808594 42.425781 C 149.730469 30.789062 164.863281 23.71875 182.207031 21.210938 C 183.554688 42.871094 178.847656 63.074219 168.097656 81.816406 C 165.449219 84.796875 164.425781 83.988281 165.03125 79.394531 Z M 165.03125 79.394531 "/>
<path style=" stroke:none;fill-rule:evenodd;fill:rgb(96.862745%,83.137255%,19.215686%);fill-opacity:1;" d="M 59.507812 44.242188 C 49.289062 37.105469 37.839844 33.0625 25.152344 32.121094 C 24.511719 48.339844 27.78125 63.691406 34.96875 78.183594 C 35.289062 79.972656 34.882812 81.589844 33.742188 83.03125 C 28.121094 76.3125 24.234375 68.636719 22.085938 60 C 18.863281 47.667969 17.429688 35.144531 17.792969 22.425781 C 34.800781 24.316406 49.523438 30.980469 61.964844 42.425781 C 61.296875 43.292969 60.476562 43.898438 59.507812 44.242188 Z M 59.507812 44.242188 "/>
<path style=" stroke:none;fill-rule:evenodd;fill:rgb(93.333333%,65.490196%,25.490196%);fill-opacity:1;" d="M 129.449219 33.332031 C 129.46875 35.738281 128.242188 36.949219 125.765625 36.96875 C 106.59375 29.84375 87.78125 30.652344 69.324219 39.394531 C 68.347656 38.839844 67.9375 38.03125 68.097656 36.96875 C 87.660156 25.351562 108.109375 24.140625 129.449219 33.332031 Z M 129.449219 33.332031 "/>
<path style=" stroke:none;fill-rule:evenodd;fill:rgb(99.215686%,98.823529%,98.039216%);fill-opacity:1;" d="M 165.03125 79.394531 C 160.375 64.976562 151.785156 53.257812 139.265625 44.242188 C 149.984375 35.859375 162.253906 31.007812 176.074219 29.695312 C 177.234375 47.40625 173.554688 63.96875 165.03125 79.394531 Z M 165.03125 79.394531 "/>
<use xlink:href="#surface14" mask="url(#mask3)"/>
<path style=" stroke:none;fill-rule:evenodd;fill:rgb(99.215686%,98.823529%,98.039216%);fill-opacity:1;" d="M 59.507812 44.242188 C 47.964844 53.21875 39.785156 64.53125 34.96875 78.183594 C 27.78125 63.691406 24.511719 48.339844 25.152344 32.121094 C 37.839844 33.0625 49.289062 37.105469 59.507812 44.242188 Z M 59.507812 44.242188 "/>
<use xlink:href="#surface17" mask="url(#mask4)"/>
<path style=" stroke:none;fill-rule:evenodd;fill:rgb(98.431373%,83.529412%,18.039216%);fill-opacity:1;" d="M 189.570312 60 C 189.359375 61.203125 189.769531 62.011719 190.796875 62.425781 C 190.585938 63.625 190.996094 64.433594 192.023438 64.847656 C 191.695312 66.785156 192.105469 68.402344 193.25 69.695312 C 193.25 71.3125 193.25 72.929688 193.25 74.546875 C 193.039062 75.746094 193.449219 76.554688 194.480469 76.96875 C 194.480469 78.585938 194.480469 80.203125 194.480469 81.816406 C 196.382812 105.015625 190.65625 126.027344 177.300781 144.847656 C 128.179688 197.328125 78.078125 198.136719 26.992188 147.273438 C 10.269531 126.335938 3.523438 102.496094 6.75 75.757812 C 6.75 74.949219 6.75 74.140625 6.75 73.332031 C 7.777344 72.917969 8.1875 72.109375 7.976562 70.910156 C 7.976562 70.503906 7.976562 70.101562 7.976562 69.695312 C 9.003906 69.28125 9.414062 68.476562 9.203125 67.273438 C 15.96875 78.167969 23.945312 88.269531 33.128906 97.574219 C 37.617188 128.359375 54.996094 147.347656 85.277344 154.546875 C 89.097656 157.535156 93.1875 159.957031 97.546875 161.816406 C 101.96875 169.019531 108.101562 170.835938 115.949219 167.273438 C 118.328125 165.535156 119.964844 163.316406 120.859375 160.605469 C 126.960938 157.8125 131.457031 153.367188 134.355469 147.273438 C 143.042969 142.128906 150.40625 135.460938 156.441406 127.273438 C 150.808594 127.929688 145.082031 127.929688 139.265625 127.273438 C 124.03125 119.707031 119.738281 108.191406 126.378906 92.726562 C 139.378906 78.609375 152.878906 78.203125 166.871094 91.515625 C 175.824219 82.867188 182.574219 72.765625 187.117188 61.210938 C 187.675781 60.246094 188.496094 59.839844 189.570312 60 Z M 189.570312 60 "/>
<use xlink:href="#surface20" mask="url(#mask5)"/>
<path style=" stroke:none;fill-rule:evenodd;fill:rgb(98.039216%,98.039216%,98.039216%);fill-opacity:1;" d="M 134.355469 147.273438 C 131.457031 153.367188 126.960938 157.8125 120.859375 160.605469 C 113.132812 161.601562 105.359375 162.003906 97.546875 161.816406 C 93.1875 159.957031 89.097656 157.535156 85.277344 154.546875 C 76.339844 145.347656 75.726562 135.648438 83.4375 125.453125 C 90.140625 121.257812 95.050781 115.601562 98.160156 108.484375 C 98.570312 97.171875 98.976562 85.859375 99.386719 74.546875 C 104.585938 67.738281 108.675781 68.546875 111.65625 76.96875 C 111.816406 88.019531 113.042969 98.929688 115.335938 109.695312 C 119.328125 116.066406 124.234375 121.722656 130.0625 126.667969 C 135.382812 132.753906 136.8125 139.621094 134.355469 147.273438 Z M 134.355469 147.273438 "/>
<use xlink:href="#surface23" mask="url(#mask6)"/>
<path style=" stroke:none;fill-rule:evenodd;fill:rgb(20.784314%,20.392157%,20.784314%);fill-opacity:1;" d="M 139.265625 119.394531 C 139.972656 114.019531 137.925781 112.402344 133.128906 114.546875 C 126.289062 102.578125 128.746094 93.082031 140.492188 86.0625 C 157.6875 83.265625 166.074219 90.335938 165.644531 107.273438 C 160.839844 120.054688 152.042969 124.09375 139.265625 119.394531 Z M 139.265625 119.394531 "/>
<path style=" stroke:none;fill-rule:evenodd;fill:rgb(96.470588%,96.470588%,87.058824%);fill-opacity:1;" d="M 149.078125 89.089844 C 157.652344 88.886719 159.695312 92.320312 155.214844 99.394531 C 146.523438 99.96875 144.476562 96.535156 149.078125 89.089844 Z M 149.078125 89.089844 "/>
<path style=" stroke:none;fill-rule:evenodd;fill:rgb(95.294118%,83.529412%,18.039216%);fill-opacity:1;" d="M 55.828125 83.03125 C 80.457031 82.097656 90.066406 93.410156 84.664062 116.96875 C 76.070312 129.386719 64.824219 132.414062 50.921875 126.0625 C 34.859375 109.648438 36.496094 95.304688 55.828125 83.03125 Z M 55.828125 83.03125 "/>
<path style=" stroke:none;fill-rule:evenodd;fill:rgb(21.176471%,20.392157%,20.784314%);fill-opacity:1;" d="M 58.28125 121.816406 C 58.574219 119.433594 58.167969 117.210938 57.054688 115.152344 C 54.054688 114.046875 52.417969 115.058594 52.148438 118.183594 C 46.472656 112.511719 44.632812 105.644531 46.625 97.574219 C 53.550781 86.199219 63.160156 83.574219 75.460938 89.695312 C 83.445312 96.816406 84.875 105.101562 79.753906 114.546875 C 74.238281 122.03125 67.078125 124.457031 58.28125 121.816406 Z M 58.28125 121.816406 "/>
<path style=" stroke:none;fill-rule:evenodd;fill:rgb(96.470588%,96.470588%,87.45098%);fill-opacity:1;" d="M 65.644531 90.304688 C 74.214844 90.097656 76.261719 93.53125 71.777344 100.605469 C 63.085938 101.183594 61.042969 97.746094 65.644531 90.304688 Z M 65.644531 90.304688 "/>
<path style=" stroke:none;fill-rule:evenodd;fill:rgb(90.980392%,90.196078%,81.960784%);fill-opacity:1;" d="M 58.28125 121.816406 C 54.863281 122.527344 52.820312 121.3125 52.148438 118.183594 C 52.417969 115.058594 54.054688 114.046875 57.054688 115.152344 C 58.167969 117.210938 58.574219 119.433594 58.28125 121.816406 Z M 58.28125 121.816406 "/>
<path style=" stroke:none;fill-rule:evenodd;fill:rgb(94.901961%,93.72549%,85.098039%);fill-opacity:1;" d="M 139.265625 119.394531 C 134.464844 121.535156 132.417969 119.921875 133.128906 114.546875 C 137.925781 112.402344 139.972656 114.019531 139.265625 119.394531 Z M 139.265625 119.394531 "/>
<path style=" stroke:none;fill-rule:evenodd;fill:rgb(20%,19.607843%,19.607843%);fill-opacity:1;" d="M 98.773438 131.515625 C 105.328125 131.3125 111.875 131.515625 118.40625 132.121094 C 121.277344 135.054688 120.871094 137.882812 117.179688 140.605469 C 110.085938 145.0625 103.746094 144.050781 98.160156 137.574219 C 97.375 135.4375 97.578125 133.414062 98.773438 131.515625 Z M 98.773438 131.515625 "/>
<path style=" stroke:none;fill-rule:evenodd;fill:rgb(92.54902%,65.490196%,25.490196%);fill-opacity:1;" d="M 6.75 75.757812 C 3.523438 102.496094 10.269531 126.335938 26.992188 147.273438 C 78.078125 198.136719 128.179688 197.328125 177.300781 144.847656 C 154.011719 178.976562 121.703125 193.320312 80.367188 187.878906 C 31 172.859375 5.640625 139.933594 4.292969 89.089844 C 4.292969 87.070312 4.292969 85.050781 4.292969 83.03125 C 5.324219 82.617188 5.730469 81.808594 5.519531 80.605469 C 5.191406 78.667969 5.601562 77.050781 6.75 75.757812 Z M 6.75 75.757812 "/>
<path style=" stroke:none;fill-rule:evenodd;fill:rgb(98.039216%,50.196078%,36.862745%);fill-opacity:1;" d="M 120.859375 160.605469 C 119.964844 163.316406 118.328125 165.535156 115.949219 167.273438 C 108.101562 170.835938 101.96875 169.019531 97.546875 161.816406 C 105.359375 162.003906 113.132812 161.601562 120.859375 160.605469 Z M 120.859375 160.605469 "/>
</g>
</svg>
