<?xml version="1.0" encoding="UTF-8"?>
<svg xmlns="http://www.w3.org/2000/svg" xmlns:xlink="http://www.w3.org/1999/xlink" width="200px" height="200px" viewBox="0 0 200 200" version="1.1">
<g id="surface1">
<path style=" stroke:none;fill-rule:nonzero;fill:rgb(99.607843%,26.27451%,31.372549%);fill-opacity:1;" d="M 190.269531 139.160156 L 63.996094 139.160156 L 63.996094 67.082031 L 44.570312 67.082031 L 44.570312 149.089844 C 44.667969 154.644531 49 159.082031 54.277344 159.03125 L 164.9375 159.03125 L 142.082031 180.097656 L 19.488281 180.097656 L 19.488281 60.839844 L 145.695312 60.839844 C 148.074219 60.832031 150.371094 59.9375 152.175781 58.3125 L 196.746094 17.398438 C 199.707031 14.699219 200.769531 10.351562 199.410156 6.484375 C 197.882812 2.589844 194.269531 0.0507812 190.269531 0.0546875 L 54.277344 0.0546875 C 49 0.00390625 44.667969 4.441406 44.570312 10 L 44.570312 34.742188 L 63.996094 34.742188 L 63.996094 19.925781 L 164.9375 19.925781 L 142.082031 40.996094 L 9.707031 40.996094 C 4.4375 40.945312 0.109375 45.363281 0 50.910156 L 0 190 C 0.0976562 195.558594 4.429688 199.996094 9.707031 199.945312 L 145.695312 199.945312 C 148.074219 199.9375 150.371094 199.042969 152.175781 197.414062 L 196.746094 156.503906 C 199.707031 153.804688 200.769531 149.453125 199.410156 145.585938 C 197.882812 141.691406 194.269531 139.15625 190.269531 139.160156 Z M 190.269531 139.160156 "/>
</g>
</svg>
