<?xml version="1.0" encoding="UTF-8"?>
<svg xmlns="http://www.w3.org/2000/svg" xmlns:xlink="http://www.w3.org/1999/xlink" width="200px" height="200px" viewBox="0 0 200 200" version="1.1">
<g id="surface1">
<path style=" stroke:none;fill-rule:nonzero;fill:rgb(18.039216%,19.215686%,28.235294%);fill-opacity:1;" d="M 200 100 C 200 155.226562 155.226562 200 100 200 C 44.773438 200 0 155.226562 0 100 C 0 44.773438 44.773438 0 100 0 C 155.226562 0 200 44.773438 200 100 Z M 200 100 "/>
<path style=" stroke:none;fill-rule:nonzero;fill:rgb(10.588235%,11.764706%,21.176471%);fill-opacity:1;" d="M 158.023438 100 C 158.023438 132.046875 132.046875 158.023438 100 158.023438 C 67.953125 158.023438 41.976562 132.046875 41.976562 100 C 41.976562 67.953125 67.953125 41.976562 100 41.976562 C 132.046875 41.976562 158.023438 67.953125 158.023438 100 Z M 158.023438 100 "/>
<path style=" stroke:none;fill-rule:nonzero;fill:rgb(43.529412%,45.098039%,56.470588%);fill-opacity:1;" d="M 100.207031 12.757812 C 89.410156 12.757812 80.660156 51.910156 80.660156 100.207031 C 80.660156 148.503906 89.410156 187.65625 100.207031 187.65625 C 111 187.65625 119.753906 148.503906 119.753906 100.207031 C 119.753906 51.910156 111 12.757812 100.207031 12.757812 Z M 101.554688 182.71875 C 100.320312 184.367188 99.085938 183.132812 99.085938 183.132812 C 94.113281 177.371094 91.628906 166.671875 91.628906 166.671875 C 82.933594 138.6875 85.003906 78.605469 85.003906 78.605469 C 89.089844 30.90625 96.523438 19.636719 99.054688 17.136719 C 99.585938 16.609375 100.421875 16.542969 101.03125 16.976562 C 104.703125 19.578125 107.78125 30.453125 107.78125 30.453125 C 116.871094 64.199219 116.046875 95.886719 116.046875 95.886719 C 116.871094 123.457031 111.492188 154.320312 111.492188 154.320312 C 107.355469 177.777344 101.554688 182.71875 101.554688 182.71875 Z M 101.554688 182.71875 "/>
<path style=" stroke:none;fill-rule:nonzero;fill:rgb(43.529412%,45.098039%,56.470588%);fill-opacity:1;" d="M 176.058594 56.6875 C 170.683594 47.320312 132.371094 59.214844 90.457031 83.246094 C 48.542969 107.28125 18.980469 134.359375 24.351562 143.722656 C 29.722656 153.082031 68.039062 141.195312 109.949219 117.160156 C 151.863281 93.128906 181.429688 66.050781 176.058594 56.6875 Z M 29.308594 142.4375 C 27.25 142.175781 27.714844 140.484375 27.714844 140.484375 C 30.238281 133.308594 38.273438 125.828125 38.273438 125.828125 C 58.226562 104.359375 111.375 76.253906 111.375 76.253906 C 154.777344 56.0625 168.261719 56.914062 171.679688 57.855469 C 172.40625 58.058594 172.878906 58.753906 172.800781 59.5 C 172.390625 63.980469 164.464844 72.0625 164.464844 72.0625 C 139.738281 96.75 111.839844 111.804688 111.839844 111.804688 C 88.332031 126.246094 58.886719 136.933594 58.886719 136.933594 C 36.476562 145.007812 29.308594 142.4375 29.308594 142.4375 Z M 29.308594 142.4375 "/>
<path style=" stroke:none;fill-rule:nonzero;fill:rgb(43.529412%,45.098039%,56.470588%);fill-opacity:1;" d="M 175.867188 144.03125 C 181.285156 134.691406 151.792969 107.488281 110.027344 83.273438 C 68.261719 59.0625 29.953125 47.019531 24.542969 56.378906 C 19.132812 65.734375 48.617188 92.921875 90.40625 117.136719 C 132.195312 141.351562 170.457031 153.390625 175.867188 144.03125 Z M 28.132812 59.988281 C 27.332031 58.089844 29.019531 57.632812 29.019531 57.632812 C 36.496094 56.222656 47 59.441406 47 59.441406 C 75.570312 65.945312 126.519531 97.859375 126.519531 97.859375 C 165.746094 125.308594 171.761719 137.398438 172.664062 140.832031 C 172.851562 141.558594 172.492188 142.316406 171.808594 142.625 C 167.71875 144.5 156.761719 141.707031 156.761719 141.707031 C 122.996094 132.65625 95.992188 116.066406 95.992188 116.066406 C 71.730469 102.980469 47.738281 82.84375 47.738281 82.84375 C 29.507812 67.496094 28.136719 60.007812 28.136719 60.007812 Z M 28.132812 59.988281 "/>
<path style=" stroke:none;fill-rule:nonzero;fill:rgb(71.764706%,72.54902%,78.431373%);fill-opacity:1;" d="M 110.289062 100 C 110.289062 105.683594 105.683594 110.289062 100 110.289062 C 94.316406 110.289062 89.710938 105.683594 89.710938 100 C 89.710938 94.316406 94.316406 89.710938 100 89.710938 C 105.683594 89.710938 110.289062 94.316406 110.289062 100 Z M 110.289062 100 "/>
<path style=" stroke:none;fill-rule:nonzero;fill:rgb(71.764706%,72.54902%,78.431373%);fill-opacity:1;" d="M 148.148438 60.492188 C 148.148438 57.085938 145.476562 54.320312 142.179688 54.320312 C 138.886719 54.320312 136.214844 57.085938 136.214844 60.492188 C 136.214844 63.902344 138.886719 66.667969 142.179688 66.667969 C 145.476562 66.667969 148.148438 63.902344 148.148438 60.492188 Z M 148.148438 60.492188 "/>
<path style=" stroke:none;fill-rule:nonzero;fill:rgb(71.764706%,72.54902%,78.431373%);fill-opacity:1;" d="M 50.207031 81.480469 C 50.207031 78.074219 47.535156 75.308594 44.238281 75.308594 C 40.941406 75.308594 38.269531 78.074219 38.269531 81.480469 C 38.269531 84.890625 40.941406 87.65625 44.238281 87.65625 C 47.535156 87.65625 50.207031 84.890625 50.207031 81.480469 Z M 50.207031 81.480469 "/>
<path style=" stroke:none;fill-rule:nonzero;fill:rgb(71.764706%,72.54902%,78.431373%);fill-opacity:1;" d="M 93.828125 157.203125 C 93.828125 153.792969 91.15625 151.027344 87.859375 151.027344 C 84.5625 151.027344 81.894531 153.792969 81.894531 157.203125 C 81.894531 160.609375 84.5625 163.375 87.859375 163.375 C 91.15625 163.375 93.828125 160.609375 93.828125 157.203125 Z M 93.828125 157.203125 "/>
</g>
</svg>
