<?xml version="1.0" encoding="UTF-8"?>
<!DOCTYPE svg PUBLIC "-//W3C//DTD SVG 1.1//EN" "http://www.w3.org/Graphics/SVG/1.1/DTD/svg11.dtd">
<svg xmlns="http://www.w3.org/2000/svg" version="1.1" width="200px" height="200px" style="shape-rendering:geometricPrecision; text-rendering:geometricPrecision; image-rendering:optimizeQuality; fill-rule:evenodd; clip-rule:evenodd" xmlns:xlink="http://www.w3.org/1999/xlink">
<g><path style="opacity:0.991" fill="#113f68" d="M 85.5,-0.5 C 94.8333,-0.5 104.167,-0.5 113.5,-0.5C 161.167,9.16667 189.833,37.8333 199.5,85.5C 199.5,94.8333 199.5,104.167 199.5,113.5C 189.833,161.167 161.167,189.833 113.5,199.5C 104.167,199.5 94.8333,199.5 85.5,199.5C 37.8333,189.833 9.16667,161.167 -0.5,113.5C -0.5,104.167 -0.5,94.8333 -0.5,85.5C 9.16667,37.8333 37.8333,9.16667 85.5,-0.5 Z"/></g>
<g><path style="opacity:1" fill="#f6f8f9" d="M 96.5,31.5 C 98.9892,31.2978 101.323,31.7978 103.5,33C 121.37,43.6995 139.37,54.1995 157.5,64.5C 158.833,87.8333 158.833,111.167 157.5,134.5C 138.167,145.833 118.833,157.167 99.5,168.5C 80.0819,157.04 60.5819,145.707 41,134.5C 40.3333,111.167 40.3333,87.8333 41,64.5C 59.8111,53.8516 78.3111,42.8516 96.5,31.5 Z"/></g>
<g><path style="opacity:1" fill="#134069" d="M 97.5,38.5 C 101.362,39.4281 105.029,40.9281 108.5,43C 122.918,51.6261 137.418,60.1261 152,68.5C 152.667,89.1667 152.667,109.833 152,130.5C 134.58,140.917 116.913,150.917 99,160.5C 81.5194,150.76 64.186,140.76 47,130.5C 46.3333,109.833 46.3333,89.1667 47,68.5C 63.9792,58.5998 80.8125,48.5998 97.5,38.5 Z"/></g>
<g><path style="opacity:1" fill="#fcfdfd" d="M 75.5,60.5 C 91.1808,60.1673 106.848,60.5006 122.5,61.5C 124.328,69.143 125.994,76.8097 127.5,84.5C 108.5,84.5 89.5,84.5 70.5,84.5C 71.9526,76.4499 73.6192,68.4499 75.5,60.5 Z"/></g>
<g><path style="opacity:1" fill="#6c89a2" d="M 84.5,88.5 C 94.3411,87.1771 104.341,87.1771 114.5,88.5C 114.376,89.1067 114.043,89.44 113.5,89.5C 104.014,88.5062 94.3478,88.1729 84.5,88.5 Z"/></g>
<g><path style="opacity:1" fill="#fafbfc" d="M 84.5,88.5 C 94.3478,88.1729 104.014,88.5062 113.5,89.5C 109.358,98.1137 108.358,107.114 110.5,116.5C 102.833,116.5 95.1667,116.5 87.5,116.5C 89.6621,106.784 88.6621,97.4511 84.5,88.5 Z"/></g>
<g><path style="opacity:1" fill="#f9fafb" d="M 69.5,92.5 C 74.557,95.1132 79.3903,98.1132 84,101.5C 84.3333,107.167 84.6667,112.833 85,118.5C 87.7026,121.538 90.7026,124.205 94,126.5C 94.6667,128.5 94.6667,130.5 94,132.5C 91.1312,135.704 87.9646,138.537 84.5,141C 81.2397,141.784 78.0731,141.617 75,140.5C 68.4197,128.337 61.5863,116.337 54.5,104.5C 59.5434,100.446 64.5434,96.4461 69.5,92.5 Z"/></g>
<g><path style="opacity:1" fill="#fbfcfc" d="M 127.5,92.5 C 133.098,96.0909 138.431,100.091 143.5,104.5C 136.467,116.371 129.633,128.371 123,140.5C 119.927,141.617 116.76,141.784 113.5,141C 110.631,137.796 107.465,134.963 104,132.5C 103.333,130.833 103.333,129.167 104,127.5C 107.333,124.167 110.667,120.833 114,117.5C 114.17,111.804 114.67,106.138 115.5,100.5C 119.813,98.1664 123.813,95.4997 127.5,92.5 Z"/></g>
</svg>
