<?xml version="1.0" encoding="UTF-8"?>
<svg xmlns="http://www.w3.org/2000/svg" xmlns:xlink="http://www.w3.org/1999/xlink" width="200px" height="200px" viewBox="0 0 200 200" version="1.1">
<g id="surface1">
<path style=" stroke:none;fill-rule:nonzero;fill:rgb(92.941176%,42.745098%,32.941176%);fill-opacity:1;" d="M 161.976562 50.035156 C 150.980469 38.757812 137.351562 28.886719 123.820312 21.246094 C 89.769531 2.027344 54.378906 -5.105469 37.761719 3.890625 C 29.714844 8.25 23.636719 16.714844 19.382812 29.695312 C 6.925781 41.984375 0.730469 68.023438 0.046875 110.378906 C -0.664062 154.273438 6.796875 181.9375 22.226562 192.605469 C 29.339844 197.523438 39.894531 199.964844 52.46875 199.964844 C 66.863281 199.964844 83.898438 196.765625 101.4375 190.429688 C 102.738281 189.960938 104.007812 189.480469 105.265625 188.996094 C 112.921875 187.339844 120.429688 185.183594 127.71875 182.542969 C 176.328125 164.980469 196.703125 137.136719 199.5625 116.929688 C 203.070312 92.160156 185.046875 68.21875 161.976562 50.035156 Z M 50.117188 182.917969 C 47.433594 181 45.113281 178.726562 43.238281 176.175781 C 49.203125 178.125 56.324219 179.101562 64.25 179.101562 C 78.644531 179.101562 95.679688 175.902344 113.21875 169.566406 C 137.875 160.660156 155.253906 149.105469 166.78125 137.246094 C 158.953125 154.089844 139.707031 173.261719 104.242188 186.890625 C 81.207031 191.804688 61.164062 190.554688 50.117188 182.917969 Z M 112.226562 167.449219 C 83.703125 177.75 56.75 179.621094 40.929688 172.804688 C 32.441406 158.960938 28.402344 135.445312 28.933594 102.523438 C 29.605469 61.078125 35.785156 34.984375 47.765625 23.207031 C 65.15625 23.984375 88.113281 31.328125 110.628906 44.039062 C 142.621094 62.09375 175.203125 92.726562 170.695312 124.535156 C 170.386719 126.65625 169.910156 128.753906 169.269531 130.816406 C 158.25 144.085938 139.9375 157.4375 112.226562 167.449219 Z M 27.347656 26.703125 C 31.726562 24.332031 37.566406 23.207031 44.367188 23.160156 C 32.777344 35.957031 26.988281 61.628906 26.328125 102.492188 C 25.828125 133.363281 29.386719 156.167969 36.898438 170.714844 C 36.472656 170.457031 36.019531 170.21875 35.617188 169.941406 C 20.863281 159.742188 13.738281 132.691406 14.4375 89.550781 C 14.84375 64.351562 17.289062 44.832031 21.832031 30.75 C 23.449219 29.1875 25.304688 27.828125 27.347656 26.703125 Z M 112.039062 42.109375 C 90.167969 29.765625 67.769531 22.441406 50.125 21.140625 C 51.210938 20.277344 52.382812 19.5 53.628906 18.820312 C 58.101562 16.394531 64.050781 15.230469 71.039062 15.230469 C 88.734375 15.230469 113.082031 22.703125 136.910156 36.152344 C 145.113281 40.777344 152.886719 45.964844 160.160156 51.667969 C 175.1875 67.117188 185.09375 85.191406 182.480469 103.671875 C 181.527344 110.394531 178.550781 118 173.121094 125.785156 C 173.175781 125.460938 173.238281 125.136719 173.285156 124.816406 C 177.9375 91.953125 144.695312 60.542969 112.039062 42.109375 Z M 39.128906 5.84375 C 43.601562 3.421875 49.550781 2.253906 56.542969 2.253906 C 74.238281 2.253906 98.582031 9.726562 122.410156 23.175781 C 130.363281 27.664062 137.914062 32.679688 144.996094 38.175781 C 142.773438 36.804688 140.550781 35.484375 138.320312 34.222656 C 104.269531 15.003906 68.878906 7.871094 52.261719 16.867188 C 50.179688 18.007812 48.273438 19.371094 46.582031 20.929688 C 38.277344 20.695312 31.199219 21.925781 25.980469 24.753906 C 25.082031 25.246094 24.214844 25.785156 23.386719 26.363281 C 27.320312 16.214844 32.554688 9.402344 39.128906 5.84375 Z M 23.835938 190.804688 C 9.082031 180.601562 1.957031 153.554688 2.652344 110.410156 C 3.25 73.640625 8.179688 48.960938 17.652344 35.632812 C 14.097656 49.289062 12.191406 67.117188 11.828125 89.515625 C 11.117188 133.410156 18.578125 161.078125 34.003906 171.738281 C 35.597656 172.816406 37.300781 173.757812 39.097656 174.550781 C 41.8125 178.832031 44.933594 182.25 48.503906 184.71875 C 55.621094 189.636719 66.175781 192.078125 78.75 192.078125 C 82.953125 192.054688 87.15625 191.800781 91.324219 191.3125 C 62.832031 199.929688 36.980469 199.890625 23.835938 190.804688 Z M 196.976562 116.648438 C 194.203125 136.210938 174.292969 163.238281 126.726562 180.425781 C 124.285156 181.304688 121.863281 182.105469 119.453125 182.863281 C 150.601562 167.761719 166.464844 148.171875 171.660156 131.796875 C 179.65625 122.054688 183.878906 112.34375 185.066406 103.953125 C 187.101562 89.566406 181.878906 75.457031 172.617188 62.59375 C 188.777344 78.484375 199.707031 97.347656 196.976562 116.648438 Z M 196.976562 116.648438 "/>
</g>
</svg>
