<?xml version="1.0" encoding="UTF-8"?>
<svg xmlns="http://www.w3.org/2000/svg" xmlns:xlink="http://www.w3.org/1999/xlink" width="200px" height="200px" viewBox="0 0 200 200" version="1.1">
<g id="surface1">
<path style=" stroke:none;fill-rule:nonzero;fill:rgb(38.431373%,49.411765%,91.764706%);fill-opacity:1;" d="M 200 100 C 200 155.226562 155.226562 200 100 200 C 44.773438 200 0 155.226562 0 100 C 0 44.773438 44.773438 0 100 0 C 155.226562 0 200 44.773438 200 100 Z M 200 100 "/>
<path style=" stroke:none;fill-rule:nonzero;fill:rgb(100%,100%,100%);fill-opacity:0.603922;" d="M 103.117188 24.988281 L 103.117188 80.425781 L 149.972656 101.367188 Z M 103.117188 24.988281 "/>
<path style=" stroke:none;fill-rule:nonzero;fill:rgb(100%,100%,100%);fill-opacity:1;" d="M 103.117188 24.988281 L 56.261719 101.367188 L 103.117188 80.425781 Z M 103.117188 24.988281 "/>
<path style=" stroke:none;fill-rule:nonzero;fill:rgb(100%,100%,100%);fill-opacity:0.603922;" d="M 103.117188 137.289062 L 103.117188 174.960938 L 150 110.085938 Z M 103.117188 137.289062 "/>
<path style=" stroke:none;fill-rule:nonzero;fill:rgb(100%,100%,100%);fill-opacity:1;" d="M 103.117188 174.960938 L 103.117188 137.289062 L 56.261719 110.085938 Z M 103.117188 174.960938 "/>
<path style=" stroke:none;fill-rule:nonzero;fill:rgb(100%,100%,100%);fill-opacity:0.2;" d="M 103.117188 128.566406 L 149.972656 101.367188 L 103.117188 80.425781 Z M 103.117188 128.566406 "/>
<path style=" stroke:none;fill-rule:nonzero;fill:rgb(100%,100%,100%);fill-opacity:0.603922;" d="M 56.261719 101.367188 L 103.117188 128.566406 L 103.117188 80.425781 Z M 56.261719 101.367188 "/>
</g>
</svg>
