<?xml version="1.0" encoding="UTF-8"?>
<svg xmlns="http://www.w3.org/2000/svg" xmlns:xlink="http://www.w3.org/1999/xlink" width="200px" height="200px" viewBox="0 0 200 200" version="1.1">
<g id="surface1">
<path style=" stroke:none;fill-rule:evenodd;fill:rgb(0.392157%,58.039216%,24.705882%);fill-opacity:1;" d="M 90.332031 -0.332031 C 96.554688 -0.332031 102.777344 -0.332031 109 -0.332031 C 152.289062 5.949219 181.289062 29.726562 196 71 C 197.449219 76.371094 198.671875 81.707031 199.667969 87 C 199.667969 95.445312 199.667969 103.886719 199.667969 112.332031 C 190.335938 161.21875 161.222656 190.332031 112.332031 199.667969 C 104.113281 199.667969 95.886719 199.667969 87.667969 199.667969 C 44.199219 192.183594 15.863281 167.292969 2.667969 125 C 1.4375 119.613281 0.4375 114.28125 -0.332031 109 C -0.332031 102.777344 -0.332031 96.554688 -0.332031 90.332031 C 6.085938 46.511719 30.308594 17.511719 72.332031 3.332031 C 78.367188 1.792969 84.367188 0.570312 90.332031 -0.332031 Z M 90.332031 -0.332031 "/>
<path style=" stroke:none;fill-rule:evenodd;fill:rgb(21.568627%,66.666667%,40.392157%);fill-opacity:1;" d="M 51 46.332031 C 50.78125 61.335938 51 76.226562 51.667969 91 C 51.625 91.363281 51.40625 91.585938 51 91.667969 C 50.113281 76.445312 50.113281 61.335938 51 46.332031 Z M 51 46.332031 "/>
<path style=" stroke:none;fill-rule:evenodd;fill:rgb(99.215686%,99.607843%,99.215686%);fill-opacity:1;" d="M 51 46.332031 C 58.78125 46.222656 66.558594 46.332031 74.332031 46.667969 C 75.523438 47.191406 76.523438 47.96875 77.332031 49 C 77.886719 55.234375 77.777344 61.457031 77 67.667969 C 65.984375 72.683594 57.539062 80.460938 51.667969 91 C 51 76.226562 50.78125 61.335938 51 46.332031 Z M 51 46.332031 "/>
<path style=" stroke:none;fill-rule:evenodd;fill:rgb(98.823529%,99.215686%,98.823529%);fill-opacity:1;" d="M 121.667969 46.332031 C 129.449219 46.222656 137.226562 46.332031 145 46.667969 C 146.625 47.183594 147.847656 48.183594 148.667969 49.667969 C 149.113281 63 149.113281 76.332031 148.667969 89.667969 C 143.9375 112.617188 130.050781 126.0625 107 130 C 99.652344 130.476562 92.320312 130.363281 85 129.667969 C 80.941406 109.394531 89.164062 100.171875 109.667969 102 C 115.722656 99.277344 119.613281 94.722656 121.332031 88.332031 C 121.667969 74.335938 121.777344 60.335938 121.667969 46.332031 Z M 121.667969 46.332031 "/>
<path style=" stroke:none;fill-rule:evenodd;fill:rgb(99.215686%,99.607843%,99.215686%);fill-opacity:1;" d="M 78.332031 111.667969 C 77.667969 125.328125 77.445312 139.105469 77.667969 153 C 69.886719 153 62.109375 153 54.332031 153 C 53.246094 152.25 52.246094 151.359375 51.332031 150.332031 C 50.890625 136.113281 50.890625 121.886719 51.332031 107.667969 C 54.871094 91.238281 64.3125 79.574219 79.667969 72.667969 C 82.703125 71.507812 85.8125 70.617188 89 70 C 97.445312 69.554688 105.886719 69.554688 114.332031 70 C 115.097656 75.167969 115.210938 80.390625 114.667969 85.667969 C 113.492188 91.0625 110.273438 94.503906 105 96 C 95.558594 94.65625 87.667969 97.433594 81.332031 104.332031 C 79.953125 106.648438 78.953125 109.09375 78.332031 111.667969 Z M 78.332031 111.667969 "/>
<path style=" stroke:none;fill-rule:evenodd;fill:rgb(98.823529%,99.607843%,99.215686%);fill-opacity:1;" d="M 147.667969 109.667969 C 148.332031 123.996094 148.554688 138.441406 148.332031 153 C 140.777344 153 133.222656 153 125.667969 153 C 123.9375 152.496094 122.71875 151.386719 122 149.667969 C 121.554688 143.886719 121.554688 138.113281 122 132.332031 C 132.964844 127.480469 141.519531 119.921875 147.667969 109.667969 Z M 147.667969 109.667969 "/>
<path style=" stroke:none;fill-rule:evenodd;fill:rgb(59.215686%,82.745098%,69.411765%);fill-opacity:1;" d="M 125.667969 153 C 133.222656 153 140.777344 153 148.332031 153 C 148.554688 138.441406 148.332031 123.996094 147.667969 109.667969 C 147.855469 109.140625 148.1875 108.695312 148.667969 108.332031 C 149 123.441406 149.113281 138.554688 149 153.667969 C 141.101562 153.886719 133.324219 153.664062 125.667969 153 Z M 125.667969 153 "/>
<path style=" stroke:none;fill-rule:evenodd;fill:rgb(46.666667%,77.254902%,59.215686%);fill-opacity:1;" d="M 78.332031 111.667969 C 78.332031 125.667969 78.332031 139.667969 78.332031 153.667969 C 70.214844 153.886719 62.214844 153.664062 54.332031 153 C 62.109375 153 69.886719 153 77.667969 153 C 77.445312 139.105469 77.667969 125.328125 78.332031 111.667969 Z M 78.332031 111.667969 "/>
</g>
</svg>
