<?xml version="1.0" encoding="UTF-8"?>
<svg xmlns="http://www.w3.org/2000/svg" xmlns:xlink="http://www.w3.org/1999/xlink" width="200px" height="200px" viewBox="0 0 200 200" version="1.1">
<defs>
<linearGradient id="linear0" gradientUnits="userSpaceOnUse" x1="7.6651" y1="5.7703" x2="22.6441" y2="31.7166" gradientTransform="matrix(4.878049,0,0,-5,-0.00000035,210)">
<stop offset="0" style="stop-color:rgb(9.019608%,30.588235%,35.686275%);stop-opacity:1;"/>
<stop offset="0.07" style="stop-color:rgb(9.803922%,35.294118%,42.352941%);stop-opacity:1;"/>
<stop offset="0.21" style="stop-color:rgb(11.764706%,46.666667%,60.392157%);stop-opacity:1;"/>
<stop offset="0.4" style="stop-color:rgb(15.294118%,65.490196%,89.019608%);stop-opacity:1;"/>
<stop offset="0.47" style="stop-color:rgb(16.470588%,72.941176%,100%);stop-opacity:1;"/>
<stop offset="0.7" style="stop-color:rgb(11.372549%,85.490196%,94.117647%);stop-opacity:1;"/>
<stop offset="1" style="stop-color:rgb(5.490196%,100%,87.843137%);stop-opacity:1;"/>
</linearGradient>
<linearGradient id="linear1" gradientUnits="userSpaceOnUse" x1="33.3377" y1="38.2289" x2="18.3575" y2="12.2846" gradientTransform="matrix(4.878049,0,0,-5,-0.00000035,210)">
<stop offset="0" style="stop-color:rgb(9.019608%,30.588235%,35.686275%);stop-opacity:1;"/>
<stop offset="0.07" style="stop-color:rgb(9.803922%,35.294118%,42.352941%);stop-opacity:1;"/>
<stop offset="0.21" style="stop-color:rgb(11.764706%,46.666667%,60.392157%);stop-opacity:1;"/>
<stop offset="0.4" style="stop-color:rgb(15.294118%,65.490196%,89.019608%);stop-opacity:1;"/>
<stop offset="0.47" style="stop-color:rgb(16.470588%,72.941176%,100%);stop-opacity:1;"/>
<stop offset="0.7" style="stop-color:rgb(11.372549%,85.490196%,94.117647%);stop-opacity:1;"/>
<stop offset="1" style="stop-color:rgb(5.490196%,100%,87.843137%);stop-opacity:1;"/>
</linearGradient>
</defs>
<g id="surface1">
<path style=" stroke:none;fill-rule:nonzero;fill:url(#linear0);" d="M 126.339844 194.5 C 125.855469 194 125.367188 193.5 124.878906 193.5 C 113.660156 191 102.4375 187 92.683594 181 C 72.195312 168.5 58.535156 150 58.046875 128.5 C 58.046875 120.5 59.511719 112.5 62.925781 105 C 64.878906 100 76.585938 83 78.046875 80 C 85.855469 67.5 83.414062 68.5 72.195312 53 L 56.585938 29.5 L 46.339844 13.5 C 40.488281 17.5 34.632812 22.5 29.269531 27.5 C 18.535156 38.5 10.242188 52.5 5.367188 67.5 C 0.488281 82.5 -0.976562 98.5 0.976562 114 C 2.925781 129.5 8.78125 144.5 17.5625 157.5 C 26.339844 170.5 38.046875 181.5 51.21875 189 C 16.585938 163 0.488281 123.5 13.660156 84 C 17.074219 73.5 22.4375 63.5 29.269531 54.5 L 40.488281 71.5 C 40.976562 72.5 41.464844 73.5 41.464844 75 C 41.464844 76 40.976562 77.5 40.488281 78.5 C 35.121094 85.5 30.730469 93 27.804688 101.5 C 13.171875 145 52.683594 190 94.144531 197.5 C 101.953125 199 116.585938 200.5 124.390625 198.5 C 124.878906 198.5 125.367188 198 125.367188 198 C 125.855469 197.5 125.855469 197.5 125.855469 197 C 125.855469 196.5 125.855469 196 125.855469 195.5 C 126.828125 195.5 126.828125 195 126.339844 194.5 Z M 126.339844 194.5 "/>
<path style=" stroke:none;fill-rule:nonzero;fill:url(#linear1);" d="M 73.660156 5.5 C 74.144531 6 74.632812 6.5 75.121094 6.5 C 86.339844 9 97.5625 13 107.316406 19 C 127.804688 31.5 141.464844 50 141.953125 71.5 C 141.953125 79.5 140.488281 87.5 137.074219 95 C 135.121094 100 123.414062 117 121.953125 120 C 114.144531 132.5 116.585938 131.5 127.804688 147 L 143.414062 170.5 L 154.144531 186.5 C 160 182.5 165.855469 177.5 171.21875 172.5 C 181.953125 161.5 190.242188 147.5 195.121094 132.5 C 200 117.5 201.464844 101.5 199.511719 86 C 197.5625 70.5 191.707031 55.5 182.925781 42.5 C 174.144531 29.5 162.4375 18.5 149.269531 11 C 183.902344 37 200 76.5 186.339844 116 C 182.925781 126.5 177.5625 136.5 170.730469 145.5 L 159.511719 128.5 C 159.023438 127.5 158.535156 126.5 158.535156 125 C 158.535156 124 159.023438 122.5 159.511719 121.5 C 164.878906 114.5 169.269531 107 172.195312 98.5 C 186.828125 55 147.316406 10 105.855469 2.5 C 98.046875 1 83.414062 -0.5 75.609375 1.5 C 75.121094 1.5 74.632812 2 74.632812 2 C 73.660156 2 73.171875 2.5 73.171875 3 C 73.171875 3.5 73.171875 4 73.171875 4.5 C 73.171875 4.5 73.171875 5 73.660156 5.5 Z M 73.660156 5.5 "/>
</g>
</svg>
