<?xml version="1.0" encoding="UTF-8"?>
<svg xmlns="http://www.w3.org/2000/svg" xmlns:xlink="http://www.w3.org/1999/xlink" width="200px" height="200px" viewBox="0 0 200 200" version="1.1">
<defs>
<linearGradient id="linear0" gradientUnits="userSpaceOnUse" x1="96.0974" y1="902.5025" x2="876.0774" y2="122.5226" gradientTransform="matrix(0.2,0,0,0.2,0,0)">
<stop offset="0" style="stop-color:rgb(0%,61.568627%,87.058824%);stop-opacity:1;"/>
<stop offset="0.5" style="stop-color:rgb(41.176471%,30.196078%,62.352941%);stop-opacity:1;"/>
<stop offset="1" style="stop-color:rgb(92.941176%,20.784314%,32.941176%);stop-opacity:1;"/>
</linearGradient>
<linearGradient id="linear1" gradientUnits="userSpaceOnUse" x1="181.1974" y1="987.6026" x2="961.1775" y2="207.6226" gradientTransform="matrix(0.2,0,0,0.2,0,0)">
<stop offset="0" style="stop-color:rgb(0%,61.568627%,87.058824%);stop-opacity:1;"/>
<stop offset="0.5" style="stop-color:rgb(41.176471%,30.196078%,62.352941%);stop-opacity:1;"/>
<stop offset="1" style="stop-color:rgb(92.941176%,20.784314%,32.941176%);stop-opacity:1;"/>
</linearGradient>
<linearGradient id="linear2" gradientUnits="userSpaceOnUse" x1="403.7268" y1="1210.1318" x2="1183.7068" y2="430.152" gradientTransform="matrix(0.2,0,0,0.2,0,0)">
<stop offset="0" style="stop-color:rgb(0%,61.568627%,87.058824%);stop-opacity:1;"/>
<stop offset="0.5" style="stop-color:rgb(41.176471%,30.196078%,62.352941%);stop-opacity:1;"/>
<stop offset="1" style="stop-color:rgb(92.941176%,20.784314%,32.941176%);stop-opacity:1;"/>
</linearGradient>
<linearGradient id="linear3" gradientUnits="userSpaceOnUse" x1="324.4724" y1="1130.8776" x2="1104.4524" y2="350.8976" gradientTransform="matrix(0.2,0,0,0.2,0,0)">
<stop offset="0" style="stop-color:rgb(0%,61.568627%,87.058824%);stop-opacity:1;"/>
<stop offset="0.5" style="stop-color:rgb(41.176471%,30.196078%,62.352941%);stop-opacity:1;"/>
<stop offset="1" style="stop-color:rgb(92.941176%,20.784314%,32.941176%);stop-opacity:1;"/>
</linearGradient>
<linearGradient id="linear4" gradientUnits="userSpaceOnUse" x1="-130.9276" y1="675.4775" x2="649.0525" y2="-104.5023" gradientTransform="matrix(0.2,0,0,0.2,0,0)">
<stop offset="0" style="stop-color:rgb(0%,61.568627%,87.058824%);stop-opacity:1;"/>
<stop offset="0.5" style="stop-color:rgb(41.176471%,30.196078%,62.352941%);stop-opacity:1;"/>
<stop offset="1" style="stop-color:rgb(92.941176%,20.784314%,32.941176%);stop-opacity:1;"/>
</linearGradient>
<linearGradient id="linear5" gradientUnits="userSpaceOnUse" x1="-210.0172" y1="596.3879" x2="569.9626" y2="-183.5922" gradientTransform="matrix(0.2,0,0,0.2,0,0)">
<stop offset="0" style="stop-color:rgb(0%,61.568627%,87.058824%);stop-opacity:1;"/>
<stop offset="0.5" style="stop-color:rgb(41.176471%,30.196078%,62.352941%);stop-opacity:1;"/>
<stop offset="1" style="stop-color:rgb(92.941176%,20.784314%,32.941176%);stop-opacity:1;"/>
</linearGradient>
<linearGradient id="linear6" gradientUnits="userSpaceOnUse" x1="12.4973" y1="818.9024" x2="792.4774" y2="38.9227" gradientTransform="matrix(0.2,0,0,0.2,0,0)">
<stop offset="0" style="stop-color:rgb(0%,61.568627%,87.058824%);stop-opacity:1;"/>
<stop offset="0.5" style="stop-color:rgb(41.176471%,30.196078%,62.352941%);stop-opacity:1;"/>
<stop offset="1" style="stop-color:rgb(92.941176%,20.784314%,32.941176%);stop-opacity:1;"/>
</linearGradient>
</defs>
<g id="surface1">
<path style=" stroke:none;fill-rule:nonzero;fill:url(#linear0);" d="M 60.699219 144.941406 L 14.820312 150.101562 L 41.761719 87.941406 L 14.179688 50.339844 L 81.238281 42.699219 L 99.460938 0.800781 L 139.378906 55.058594 L 185.261719 49.898438 L 158.441406 111.761719 L 185.820312 149.101562 L 119.101562 156.699219 L 100.601562 199.199219 Z M 79.761719 140.820312 C 78 141.679688 76.121094 142.398438 74.179688 142.941406 L 72.421875 143.421875 L 98.28125 178.578125 L 107.460938 157.460938 L 105.800781 157.238281 C 96.761719 156.101562 88.539062 151.21875 83.238281 143.898438 L 80.660156 140.339844 Z M 70.761719 108.941406 L 91.621094 137.800781 C 95.859375 143.660156 102.71875 147.160156 109.960938 147.160156 C 110.800781 147.160156 111.640625 147.121094 112.460938 147.019531 L 166.898438 140.820312 L 145.21875 111.238281 C 144.140625 109.78125 142.898438 108.460938 141.519531 107.300781 L 140.238281 106.238281 L 124.71875 141.300781 L 97.71875 105.558594 Z M 71.660156 73.800781 C 63.578125 74.660156 56.539062 79.839844 53.300781 87.320312 L 31.441406 137.78125 L 67.761719 133.699219 C 69.558594 133.5 71.320312 133.078125 73.019531 132.460938 L 74.578125 131.878906 L 52.101562 100.839844 L 96.421875 95.21875 L 106.960938 70.039062 Z M 105.960938 99.261719 L 122.378906 121 L 132.398438 98.378906 L 136.800781 88.421875 C 140.101562 80.960938 139.160156 72.261719 134.320312 65.699219 L 101.78125 21.421875 L 87.140625 55.058594 C 86.421875 56.71875 85.898438 58.460938 85.578125 60.261719 L 85.300781 61.898438 L 123.28125 57.878906 Z M 145.859375 64.78125 L 146.5 66.320312 C 150.019531 74.738281 149.941406 84.339844 146.261719 92.640625 L 144.480469 96.640625 L 145.339844 97.21875 C 146.980469 98.320312 148.519531 99.601562 149.941406 101.019531 L 151.238281 102.300781 L 168.621094 62.199219 Z M 33.101562 58.621094 L 46.941406 77.5 L 47.960938 76.179688 C 53.460938 69.039062 61.71875 64.398438 70.578125 63.460938 L 74.921875 63 L 75 61.941406 C 75.140625 59.761719 75.519531 57.578125 76.101562 55.460938 L 76.601562 53.660156 Z M 33.101562 58.621094 "/>
<path style=" stroke:none;fill-rule:nonzero;fill:url(#linear1);" d="M 90.320312 200 C 61.519531 197.21875 35.640625 182.238281 18.699219 158.5 L 30.300781 157.199219 C 32.21875 159.558594 34.261719 161.820312 36.359375 163.941406 C 48.941406 176.578125 64.679688 185.101562 81.941406 188.621094 Z M 90.320312 200 "/>
<path style=" stroke:none;fill-rule:nonzero;fill:url(#linear2);" d="M 114.480469 189.261719 C 133.160156 186.238281 150.140625 177.5 163.640625 163.941406 C 164.839844 162.71875 166.058594 161.421875 167.28125 160.058594 L 181.339844 158.460938 C 164.460938 182.179688 138.621094 197.179688 109.820312 200 Z M 114.480469 189.261719 "/>
<path style=" stroke:none;fill-rule:nonzero;fill:url(#linear3);" d="M 184.199219 132.058594 C 188.039062 121.839844 190 111.058594 190 100 C 190 90.238281 188.460938 80.640625 185.441406 71.480469 L 191.078125 58.480469 C 197 71.539062 200 85.5 200 100 C 200 114.480469 197 128.421875 191.101562 141.480469 Z M 184.199219 132.058594 "/>
<path style=" stroke:none;fill-rule:nonzero;fill:url(#linear4);" d="M 8.960938 141.621094 C 3.019531 128.519531 0 114.539062 0 100 C 0 85.378906 3.039062 71.320312 9.058594 58.179688 L 15.941406 67.578125 C 12 77.898438 10 88.800781 10 100 C 10 109.800781 11.539062 119.421875 14.578125 128.621094 Z M 8.960938 141.621094 "/>
<path style=" stroke:none;fill-rule:nonzero;fill:url(#linear5);" d="M 19.121094 40.921875 C 36.039062 17.558594 61.71875 2.761719 90.261719 0 L 85.601562 10.71875 C 66.898438 13.71875 49.878906 22.480469 36.359375 36.058594 C 35.339844 37.078125 34.320312 38.179688 33.300781 39.300781 Z M 19.121094 40.921875 "/>
<path style=" stroke:none;fill-rule:nonzero;fill:url(#linear6);" d="M 169.71875 42.800781 C 167.800781 40.441406 165.761719 38.179688 163.640625 36.058594 C 151.078125 23.441406 135.359375 14.921875 118.140625 11.398438 L 109.761719 0 C 138.539062 2.800781 164.378906 17.78125 181.300781 41.5 Z M 169.71875 42.800781 "/>
</g>
</svg>
