<?xml version="1.0" encoding="UTF-8"?>
<svg xmlns="http://www.w3.org/2000/svg" xmlns:xlink="http://www.w3.org/1999/xlink" width="200px" height="200px" viewBox="0 0 200 200" version="1.1">
<g id="surface1">
<path style=" stroke:none;fill-rule:evenodd;fill:rgb(12.54902%,14.901961%,21.568627%);fill-opacity:1;" d="M 87.308594 -0.382812 C 95.511719 -0.382812 103.71875 -0.382812 111.921875 -0.382812 C 150.492188 5.765625 177.542969 26.789062 193.078125 62.691406 C 196 70.808594 198.179688 79.011719 199.617188 87.308594 C 199.617188 95.511719 199.617188 103.71875 199.617188 111.921875 C 193.464844 150.492188 172.441406 177.542969 136.539062 193.078125 C 128.421875 196 120.21875 198.179688 111.921875 199.617188 C 103.71875 199.617188 95.511719 199.617188 87.308594 199.617188 C 48.738281 193.464844 21.6875 172.441406 6.152344 136.539062 C 3.230469 128.421875 1.050781 120.21875 -0.382812 111.921875 C -0.382812 103.71875 -0.382812 95.511719 -0.382812 87.308594 C 5.765625 48.738281 26.789062 21.6875 62.691406 6.152344 C 70.808594 3.230469 79.011719 1.050781 87.308594 -0.382812 Z M 87.308594 -0.382812 "/>
<path style=" stroke:none;fill-rule:evenodd;fill:rgb(25.098039%,89.019608%,67.843137%);fill-opacity:1;" d="M 107.308594 48.847656 C 107.726562 48.800781 107.980469 48.542969 108.078125 48.078125 C 98.347656 47.308594 88.601562 47.050781 78.847656 47.308594 C 76.804688 43.226562 74.753906 39.121094 72.691406 35 C 89.617188 33.972656 106.539062 33.972656 123.460938 35 C 124.9375 37.183594 126.222656 39.492188 127.308594 41.921875 C 117.050781 59.359375 106.792969 76.792969 96.539062 94.230469 C 75.773438 95.128906 55.003906 95.257812 34.230469 94.617188 C 33.046875 92.371094 31.761719 90.191406 30.382812 88.078125 C 38.6875 73.652344 46.890625 59.164062 55 44.617188 C 58.527344 47.945312 61.347656 52.046875 63.460938 56.921875 C 59.164062 65.0625 54.550781 73.011719 49.617188 80.769531 C 62.699219 81.410156 75.777344 81.28125 88.847656 80.382812 C 94.824219 69.695312 100.980469 59.183594 107.308594 48.847656 Z M 107.308594 48.847656 "/>
<path style=" stroke:none;fill-rule:evenodd;fill:rgb(25.098039%,89.019608%,67.843137%);fill-opacity:1;" d="M 152.691406 109.617188 C 157.964844 109.367188 163.09375 109.621094 168.078125 110.382812 C 160.074219 124.59375 151.871094 138.695312 143.460938 152.691406 C 140.675781 153.582031 137.855469 153.710938 135 153.078125 C 124.839844 135.449219 114.582031 117.886719 104.230469 100.382812 C 114.035156 82.566406 124.035156 64.875 134.230469 47.308594 C 137.214844 46.3125 140.164062 46.3125 143.078125 47.308594 C 151.667969 61.539062 160.257812 75.769531 168.847656 90 C 163.460938 90.511719 158.078125 90.511719 152.691406 90 C 148.355469 82.214844 143.738281 74.652344 138.847656 67.308594 C 132.589844 78.15625 126.433594 89.050781 120.382812 100 C 126.316406 111.226562 132.726562 122.125 139.617188 132.691406 C 143.996094 124.988281 148.355469 117.292969 152.691406 109.617188 Z M 152.691406 109.617188 "/>
<path style=" stroke:none;fill-rule:evenodd;fill:rgb(22.745098%,74.509804%,58.823529%);fill-opacity:1;" d="M 78.847656 47.308594 C 88.601562 47.050781 98.347656 47.308594 108.078125 48.078125 C 107.980469 48.542969 107.726562 48.800781 107.308594 48.847656 C 97.820312 48.332031 88.332031 47.820312 78.847656 47.308594 Z M 78.847656 47.308594 "/>
<path style=" stroke:none;fill-rule:evenodd;fill:rgb(25.098039%,87.45098%,67.058824%);fill-opacity:1;" d="M 76.539062 53.460938 C 79.628906 53 82.320312 53.769531 84.617188 55.769531 C 84.621094 62.1875 81.417969 66.160156 75 67.691406 C 66 68.382812 64.203125 65.046875 69.617188 57.691406 C 71.996094 56.253906 74.304688 54.84375 76.539062 53.460938 Z M 76.539062 53.460938 "/>
<path style=" stroke:none;fill-rule:evenodd;fill:rgb(25.098039%,87.843137%,67.058824%);fill-opacity:1;" d="M 87.308594 60.382812 C 89.085938 62.898438 90.878906 65.460938 92.691406 68.078125 C 90.738281 71.601562 88.6875 75.0625 86.539062 78.460938 C 82.691406 78.976562 78.847656 78.976562 75 78.460938 C 73.394531 75.761719 71.601562 73.199219 69.617188 70.769531 C 77.71875 70.828125 83.613281 67.367188 87.308594 60.382812 Z M 87.308594 60.382812 "/>
<path style=" stroke:none;fill-rule:evenodd;fill:rgb(25.098039%,88.627451%,67.45098%);fill-opacity:1;" d="M 128.847656 89.617188 C 132.21875 89.363281 135.550781 89.621094 138.847656 90.382812 C 134.53125 97.144531 134.789062 103.683594 139.617188 110 C 136 110.636719 132.410156 110.507812 128.847656 109.617188 C 127.050781 106.539062 125.257812 103.460938 123.460938 100.382812 C 125.300781 96.769531 127.097656 93.179688 128.847656 89.617188 Z M 128.847656 89.617188 "/>
<path style=" stroke:none;fill-rule:evenodd;fill:rgb(25.098039%,87.45098%,67.058824%);fill-opacity:1;" d="M 141.921875 89.617188 C 146.496094 89.1875 149.191406 91.242188 150 95.769531 C 150.894531 100.429688 150.125 104.785156 147.691406 108.847656 C 145.328125 110.816406 143.019531 110.816406 140.769531 108.847656 C 136.867188 102.097656 137.253906 95.6875 141.921875 89.617188 Z M 141.921875 89.617188 "/>
<path style=" stroke:none;fill-rule:evenodd;fill:rgb(25.098039%,89.019608%,67.843137%);fill-opacity:1;" d="M 34.230469 105 C 55.007812 104.742188 75.777344 105 96.539062 105.769531 C 106.792969 123.207031 117.050781 140.640625 127.308594 158.078125 C 126.222656 160.507812 124.9375 162.816406 123.460938 165 C 106.289062 165.898438 89.109375 166.023438 71.921875 165.382812 C 74.523438 161.339844 76.832031 157.109375 78.847656 152.691406 C 88.332031 152.179688 97.820312 151.667969 107.308594 151.152344 C 100.960938 140.769531 94.804688 130.253906 88.847656 119.617188 C 75.777344 118.71875 62.699219 118.589844 49.617188 119.230469 C 54.625 126.941406 59.238281 134.886719 63.460938 143.078125 C 61.367188 147.601562 58.804688 151.832031 55.769531 155.769531 C 47.113281 141.28125 38.652344 126.664062 30.382812 111.921875 C 31.480469 109.472656 32.761719 107.164062 34.230469 105 Z M 34.230469 105 "/>
<path style=" stroke:none;fill-rule:evenodd;fill:rgb(16.862745%,39.607843%,36.862745%);fill-opacity:1;" d="M 152.691406 109.617188 C 157.957031 108.601562 163.339844 108.601562 168.847656 109.617188 C 168.75 110.082031 168.496094 110.339844 168.078125 110.382812 C 163.09375 109.621094 157.964844 109.367188 152.691406 109.617188 Z M 152.691406 109.617188 "/>
<path style=" stroke:none;fill-rule:evenodd;fill:rgb(25.098039%,87.843137%,67.058824%);fill-opacity:1;" d="M 75 121.152344 C 78.855469 121.027344 82.699219 121.15625 86.539062 121.539062 C 89.050781 124.699219 91.101562 128.160156 92.691406 131.921875 C 90.875 134.382812 89.207031 136.949219 87.691406 139.617188 C 83.738281 132.699219 77.714844 129.238281 69.617188 129.230469 C 71.703125 126.714844 73.5 124.023438 75 121.152344 Z M 75 121.152344 "/>
<path style=" stroke:none;fill-rule:evenodd;fill:rgb(25.098039%,87.843137%,67.058824%);fill-opacity:1;" d="M 68.847656 131.921875 C 76.007812 131.351562 81.265625 134.171875 84.617188 140.382812 C 85.375 144.371094 83.710938 146.421875 79.617188 146.539062 C 73.078125 145.765625 68.71875 142.300781 66.539062 136.152344 C 66.816406 134.46875 67.585938 133.058594 68.847656 131.921875 Z M 68.847656 131.921875 "/>
</g>
</svg>
