<?xml version="1.0" encoding="UTF-8"?>
<svg xmlns="http://www.w3.org/2000/svg" xmlns:xlink="http://www.w3.org/1999/xlink" width="200px" height="200px" viewBox="0 0 200 200" version="1.1">
<g id="surface1">
<path style=" stroke:none;fill-rule:nonzero;fill:rgb(23.921569%,48.235294%,76.078431%);fill-opacity:1;" d="M 108.199219 182.984375 C 152.246094 182.984375 187.953125 149.464844 187.953125 108.113281 C 187.953125 66.765625 152.246094 33.246094 108.199219 33.246094 C 64.152344 33.246094 28.445312 66.765625 28.445312 108.113281 C 28.445312 149.464844 64.152344 182.984375 108.199219 182.984375 Z M 108.199219 182.984375 "/>
<path style=" stroke:none;fill-rule:nonzero;fill:rgb(6.27451%,18.039216%,36.862745%);fill-opacity:1;" d="M 141.941406 86.386719 C 146.960938 86.386719 151.144531 82.460938 151.144531 77.75 C 151.144531 73.035156 146.960938 69.109375 141.941406 69.109375 C 136.921875 69.109375 132.738281 73.035156 132.738281 77.75 C 132.738281 82.460938 136.921875 86.386719 141.941406 86.386719 Z M 141.941406 86.386719 "/>
<path style=" stroke:none;fill-rule:nonzero;fill:rgb(6.27451%,18.039216%,36.862745%);fill-opacity:1;" d="M 153.933594 133.246094 C 160.34375 133.246094 165.644531 128.273438 165.644531 122.25 C 165.644531 116.230469 160.34375 111.257812 153.933594 111.257812 C 147.519531 111.257812 142.21875 116.230469 142.21875 122.25 C 141.941406 128.273438 147.238281 133.246094 153.933594 133.246094 Z M 153.933594 133.246094 "/>
<path style=" stroke:none;fill-rule:nonzero;fill:rgb(100%,100%,100%);fill-opacity:1;" d="M 188.230469 110.996094 C 193.25 109.6875 197.15625 105.496094 197.15625 100.261719 C 197.15625 95.027344 193.53125 90.835938 188.230469 89.527344 C 184.886719 62.566406 168.710938 39.265625 145.289062 25.132812 L 149.191406 21.203125 C 150.585938 21.726562 152.257812 21.988281 153.933594 21.988281 C 160.34375 21.988281 165.644531 17.015625 165.644531 10.996094 C 165.644531 4.972656 160.34375 0 153.933594 0 C 147.519531 0 142.21875 4.972656 142.21875 10.996094 C 142.21875 13.089844 142.777344 14.921875 143.894531 16.753906 L 138.875 21.726562 C 125.488281 14.921875 110.429688 11.257812 94.535156 11.257812 C 42.386719 11.257812 0 51.046875 0 100 C 0 148.953125 42.386719 188.742188 94.535156 188.742188 C 110.429688 188.742188 125.488281 185.078125 138.59375 178.535156 L 143.613281 183.246094 C 142.5 184.816406 141.941406 186.648438 141.941406 188.742188 C 141.941406 194.765625 147.238281 199.738281 153.652344 199.738281 C 160.066406 199.738281 165.363281 194.765625 165.363281 188.742188 C 165.363281 182.722656 160.066406 177.75 153.652344 177.75 C 151.980469 177.75 150.308594 178.011719 148.914062 178.796875 L 145.007812 174.867188 C 168.433594 160.996094 184.886719 137.957031 188.230469 110.996094 Z M 180.980469 89.789062 C 176.519531 91.359375 173.453125 95.289062 173.453125 100 C 173.453125 104.710938 176.519531 108.640625 180.980469 110.210938 C 177.636719 135.339844 162.019531 156.804688 139.988281 169.632812 L 74.734375 105.757812 C 75.570312 104.1875 76.410156 102.355469 76.410156 100.261719 C 76.410156 98.167969 75.851562 96.335938 74.734375 94.503906 L 140.269531 30.105469 C 162.296875 42.933594 177.914062 64.660156 180.980469 89.789062 Z M 94.535156 181.9375 C 46.292969 181.9375 7.25 145.289062 7.25 100 C 7.25 54.710938 46.292969 18.0625 94.535156 18.0625 C 108.476562 18.0625 121.863281 21.203125 133.574219 26.703125 L 69.15625 90.050781 C 68.878906 90.050781 68.601562 89.789062 68.320312 89.789062 L 68.320312 54.972656 C 73.0625 53.402344 76.128906 49.476562 76.128906 44.503906 C 76.128906 38.480469 70.832031 33.507812 64.417969 33.507812 C 58.003906 33.507812 52.703125 38.480469 52.703125 44.503906 C 52.703125 49.476562 56.328125 53.664062 61.070312 54.972656 L 61.070312 89.527344 C 56.328125 90.835938 52.703125 95.027344 52.703125 100 C 52.703125 104.972656 56.328125 109.164062 61.070312 110.472656 L 61.070312 144.765625 C 56.328125 146.074219 52.703125 150.261719 52.703125 155.234375 C 52.703125 161.257812 58.003906 166.230469 64.417969 166.230469 C 70.832031 166.230469 76.128906 161.257812 76.128906 155.234375 C 76.128906 150.261719 72.78125 146.335938 68.320312 144.765625 L 68.320312 110.734375 C 68.601562 110.734375 68.878906 110.472656 69.15625 110.472656 L 133.296875 173.558594 C 121.582031 178.796875 108.476562 181.9375 94.535156 181.9375 Z M 94.535156 181.9375 "/>
</g>
</svg>
