<?xml version="1.0" encoding="UTF-8"?>
<svg xmlns="http://www.w3.org/2000/svg" xmlns:xlink="http://www.w3.org/1999/xlink" width="200px" height="200px" viewBox="0 0 200 200" version="1.1">
<g id="surface1">
<path style=" stroke:none;fill-rule:nonzero;fill:rgb(37.254902%,75.294118%,75.686275%);fill-opacity:1;" d="M 140.425781 8.984375 C 163.121094 20.566406 178.722656 48.699219 177.304688 76.832031 C 136.171875 76.832031 95.035156 76.832031 55.320312 76.832031 C 55.320312 58.628906 60.992188 38.769531 72.339844 25.53125 C 87.941406 2.363281 117.730469 -4.253906 140.425781 8.984375 Z M 140.425781 8.984375 "/>
<path style=" stroke:none;fill-rule:nonzero;fill:rgb(88.235294%,9.019608%,48.627451%);fill-opacity:1;" d="M 137.589844 189.363281 C 140.425781 189.363281 141.84375 191.015625 141.84375 192.671875 C 141.84375 194.328125 140.425781 195.980469 137.589844 195.980469 L 72.339844 195.980469 C 69.503906 195.980469 68.085938 194.328125 68.085938 192.671875 C 68.085938 191.015625 69.503906 189.363281 72.339844 189.363281 Z M 137.589844 189.363281 "/>
<path style=" stroke:none;fill-rule:nonzero;fill:rgb(88.235294%,9.019608%,48.627451%);fill-opacity:1;" d="M 58.15625 197.636719 C 60.992188 197.636719 62.410156 195.980469 62.410156 192.671875 C 62.410156 189.363281 60.992188 187.707031 58.15625 187.707031 C 55.320312 187.707031 53.902344 189.363281 53.902344 192.671875 C 53.902344 195.980469 55.320312 197.636719 58.15625 197.636719 Z M 58.15625 197.636719 "/>
<path style=" stroke:none;fill-rule:nonzero;fill:rgb(88.235294%,9.019608%,48.627451%);fill-opacity:1;" d="M 97.871094 177.777344 C 100.710938 177.777344 102.128906 176.121094 102.128906 172.8125 C 102.128906 169.503906 100.710938 167.847656 97.871094 167.847656 C 95.035156 167.847656 93.617188 169.503906 93.617188 172.8125 C 93.617188 176.121094 95.035156 177.777344 97.871094 177.777344 Z M 97.871094 177.777344 "/>
<path style=" stroke:none;fill-rule:nonzero;fill:rgb(88.235294%,9.019608%,48.627451%);fill-opacity:1;" d="M 174.46875 167.847656 C 177.304688 167.847656 178.722656 169.503906 178.722656 172.8125 C 178.722656 176.121094 177.304688 177.777344 174.46875 177.777344 L 110.636719 177.777344 C 107.800781 177.777344 106.382812 176.121094 106.382812 172.8125 C 106.382812 169.503906 107.800781 167.847656 110.636719 167.847656 Z M 174.46875 167.847656 "/>
<path style=" stroke:none;fill-rule:nonzero;fill:rgb(88.235294%,9.019608%,48.627451%);fill-opacity:1;" d="M 12.765625 157.917969 C 15.601562 157.917969 17.019531 156.265625 17.019531 152.957031 C 17.019531 149.644531 15.601562 147.992188 12.765625 147.992188 C 9.929688 147.992188 8.511719 149.644531 8.511719 152.957031 C 8.511719 156.265625 11.347656 157.917969 12.765625 157.917969 Z M 12.765625 157.917969 "/>
<path style=" stroke:none;fill-rule:nonzero;fill:rgb(88.235294%,9.019608%,48.627451%);fill-opacity:1;" d="M 76.597656 147.992188 C 79.433594 147.992188 80.851562 149.644531 80.851562 152.957031 C 80.851562 156.265625 79.433594 157.917969 76.597656 157.917969 L 24.113281 157.917969 C 21.277344 157.917969 19.859375 156.265625 19.859375 152.957031 C 19.859375 149.644531 21.277344 147.992188 24.113281 147.992188 Z M 76.597656 147.992188 "/>
<path style=" stroke:none;fill-rule:nonzero;fill:rgb(88.235294%,9.019608%,48.627451%);fill-opacity:1;" d="M 195.746094 147.992188 C 198.582031 147.992188 200 149.644531 200 152.957031 C 200 156.265625 198.582031 157.917969 195.746094 157.917969 L 90.78125 157.917969 C 87.941406 157.917969 86.523438 156.265625 86.523438 152.957031 C 86.523438 149.644531 87.941406 147.992188 90.78125 147.992188 Z M 195.746094 147.992188 "/>
<path style=" stroke:none;fill-rule:nonzero;fill:rgb(88.235294%,9.019608%,48.627451%);fill-opacity:1;" d="M 175.886719 128.132812 C 178.722656 128.132812 180.140625 129.789062 180.140625 133.097656 C 180.140625 136.40625 178.722656 138.0625 175.886719 138.0625 L 46.808594 138.0625 C 45.390625 139.714844 42.554688 136.40625 42.554688 133.097656 C 42.554688 129.789062 43.972656 128.132812 46.808594 128.132812 Z M 175.886719 128.132812 "/>
<path style=" stroke:none;fill-rule:nonzero;fill:rgb(88.235294%,9.019608%,48.627451%);fill-opacity:1;" d="M 32.625 139.714844 C 35.460938 139.714844 36.878906 138.0625 36.878906 134.75 C 36.878906 131.441406 35.460938 128.132812 32.625 128.132812 C 29.789062 128.132812 28.367188 131.441406 28.367188 133.097656 C 28.367188 134.75 29.789062 139.714844 32.625 139.714844 Z M 32.625 139.714844 "/>
<path style=" stroke:none;fill-rule:nonzero;fill:rgb(88.235294%,9.019608%,48.627451%);fill-opacity:1;" d="M 148.9375 109.929688 C 151.773438 109.929688 153.191406 111.582031 153.191406 114.894531 C 153.191406 118.203125 151.773438 119.859375 148.9375 119.859375 L 19.859375 119.859375 C 18.441406 119.859375 15.601562 118.203125 15.601562 114.894531 C 15.601562 111.582031 17.019531 109.929688 19.859375 109.929688 Z M 148.9375 109.929688 "/>
<path style=" stroke:none;fill-rule:nonzero;fill:rgb(88.235294%,9.019608%,48.627451%);fill-opacity:1;" d="M 4.253906 119.859375 C 7.09375 119.859375 8.511719 118.203125 8.511719 114.894531 C 8.511719 111.582031 7.09375 109.929688 4.253906 109.929688 C 1.417969 109.929688 0 111.582031 0 114.894531 C 0 118.203125 1.417969 119.859375 4.253906 119.859375 Z M 4.253906 119.859375 "/>
<path style=" stroke:none;fill-rule:nonzero;fill:rgb(88.235294%,9.019608%,48.627451%);fill-opacity:1;" d="M 32.625 100 C 35.460938 100 36.878906 98.34375 36.878906 95.035156 C 36.878906 91.726562 35.460938 90.070312 32.625 90.070312 C 29.789062 90.070312 28.367188 93.378906 28.367188 95.035156 C 28.367188 98.34375 29.789062 100 32.625 100 Z M 32.625 100 "/>
<path style=" stroke:none;fill-rule:nonzero;fill:rgb(88.235294%,9.019608%,48.627451%);fill-opacity:1;" d="M 188.652344 90.070312 C 191.488281 90.070312 192.90625 91.726562 192.90625 95.035156 C 192.90625 98.34375 191.488281 100 188.652344 100 L 48.226562 100 C 45.390625 100 43.972656 98.34375 43.972656 95.035156 C 43.972656 91.726562 45.390625 90.070312 48.226562 90.070312 Z M 188.652344 90.070312 "/>
</g>
</svg>
