<?xml version="1.0" encoding="UTF-8"?>
<svg xmlns="http://www.w3.org/2000/svg" xmlns:xlink="http://www.w3.org/1999/xlink" width="200px" height="200px" viewBox="0 0 200 200" version="1.1">
<g id="surface1">
<path style=" stroke:none;fill-rule:evenodd;fill:rgb(5.490196%,7.058824%,18.431373%);fill-opacity:1;" d="M -0.25 -0.25 C 66.417969 -0.25 133.082031 -0.25 199.75 -0.25 C 199.75 66.417969 199.75 133.082031 199.75 199.75 C 133.082031 199.75 66.417969 199.75 -0.25 199.75 C -0.25 133.082031 -0.25 66.417969 -0.25 -0.25 Z M -0.25 -0.25 "/>
<path style=" stroke:none;fill-rule:evenodd;fill:rgb(48.627451%,38.823529%,9.803922%);fill-opacity:1;" d="M 91.75 24.25 C 95.75 24.25 99.75 24.25 103.75 24.25 C 103.75 24.417969 103.75 24.582031 103.75 24.75 C 98.742188 24.703125 93.742188 24.871094 88.75 25.25 C 89.75 24.917969 90.75 24.582031 91.75 24.25 Z M 91.75 24.25 "/>
<path style=" stroke:none;fill-rule:evenodd;fill:rgb(12.54902%,10.980392%,9.411765%);fill-opacity:1;" d="M 91.75 24.25 C 90.75 24.582031 89.75 24.917969 88.75 25.25 C 84.910156 26.253906 81.074219 27.253906 77.25 28.25 C 77.699219 27.136719 78.535156 26.636719 79.75 26.75 C 79.75 26.082031 79.75 25.417969 79.75 24.75 C 80.796875 25.121094 81.878906 25.453125 83 25.75 C 85.820312 24.734375 88.738281 24.234375 91.75 24.25 Z M 91.75 24.25 "/>
<path style=" stroke:none;fill-rule:evenodd;fill:rgb(15.686275%,12.54902%,6.27451%);fill-opacity:1;" d="M 103.75 24.75 C 103.75 24.582031 103.75 24.417969 103.75 24.25 C 106.929688 24.300781 110.097656 24.550781 113.25 25 C 115.882812 26 118.550781 27 121.25 28 C 122.632812 28.683594 123.800781 29.601562 124.75 30.75 C 118.152344 27.429688 111.152344 25.429688 103.75 24.75 Z M 103.75 24.75 "/>
<path style=" stroke:none;fill-rule:evenodd;fill:rgb(94.117647%,71.372549%,2.745098%);fill-opacity:1;" d="M 103.75 24.75 C 111.152344 25.429688 118.152344 27.429688 124.75 30.75 C 126.097656 31.421875 127.429688 32.089844 128.75 32.75 C 129.574219 33.664062 130.574219 34.328125 131.75 34.75 C 133.601562 36.601562 135.601562 38.269531 137.75 39.75 C 141.859375 43.847656 145.359375 48.347656 148.25 53.25 C 149.96875 56.023438 151.136719 59.023438 151.75 62.25 C 151.886719 64.320312 152.554688 66.15625 153.75 67.75 C 153.75 67.917969 153.75 68.082031 153.75 68.25 C 154.457031 72.875 154.792969 77.539062 154.75 82.25 C 154.828125 86.1875 153.828125 89.851562 151.75 93.25 C 151.417969 93.75 151.082031 94.25 150.75 94.75 C 148.257812 95.664062 145.925781 96.828125 143.75 98.25 C 143.082031 98.417969 142.417969 98.582031 141.75 98.75 C 139.707031 98.941406 137.707031 99.359375 135.75 100 C 133.089844 100.25 130.421875 100.332031 127.75 100.25 C 123.253906 100.210938 118.921875 99.375 114.75 97.75 C 114.15625 96.511719 113.15625 96.011719 111.75 96.25 C 109.972656 95.484375 108.308594 94.484375 106.75 93.25 C 105.546875 92.648438 104.546875 91.816406 103.75 90.75 C 103.113281 89.53125 102.113281 88.78125 100.75 88.5 C 99.816406 86.230469 98.148438 84.894531 95.75 84.5 C 96.417969 84.167969 96.417969 83.832031 95.75 83.5 C 94.472656 83.640625 93.136719 83.558594 91.75 83.25 C 89.164062 82.292969 86.496094 81.625 83.75 81.25 C 77.066406 79.382812 70.398438 79.382812 63.75 81.25 C 61.199219 81.570312 58.699219 82.15625 56.25 83 C 52.0625 85.113281 48.230469 87.695312 44.75 90.75 C 44.253906 90.707031 43.835938 90.875 43.5 91.25 C 42.066406 81.269531 42.652344 71.4375 45.25 61.75 C 46.382812 59.910156 47.214844 57.910156 47.75 55.75 C 49.039062 54.003906 50.207031 52.171875 51.25 50.25 C 52.25 48.75 53.25 47.25 54.25 45.75 C 54.75 45.25 55.25 44.75 55.75 44.25 C 57.75 43.25 59.25 41.75 60.25 39.75 C 61.117188 38.398438 62.285156 37.398438 63.75 36.75 C 64.828125 36.8125 65.828125 36.5625 66.75 36 C 67.925781 34.117188 69.425781 32.699219 71.25 31.75 C 71.632812 31.414062 71.96875 30.996094 72.25 30.5 C 74.035156 29.894531 75.703125 29.144531 77.25 28.25 C 81.074219 27.253906 84.910156 26.253906 88.75 25.25 C 93.742188 24.871094 98.742188 24.703125 103.75 24.75 Z M 103.75 24.75 "/>
<path style=" stroke:none;fill-rule:evenodd;fill:rgb(10.980392%,9.803922%,9.803922%);fill-opacity:1;" d="M 77.25 28.25 C 75.703125 29.144531 74.035156 29.894531 72.25 30.5 C 71.96875 30.996094 71.632812 31.414062 71.25 31.75 C 69.523438 32.195312 68.023438 33.03125 66.75 34.25 C 66.929688 33.042969 66.429688 32.292969 65.25 32 C 66.574219 31.75 67.90625 31.667969 69.25 31.75 C 69.164062 31.089844 69.332031 30.503906 69.75 30 C 72.410156 29.941406 74.910156 29.359375 77.25 28.25 Z M 77.25 28.25 "/>
<path style=" stroke:none;fill-rule:evenodd;fill:rgb(15.294118%,16.470588%,5.098039%);fill-opacity:1;" d="M 128.75 32.75 C 130.097656 32.921875 131.097656 33.589844 131.75 34.75 C 130.574219 34.328125 129.574219 33.664062 128.75 32.75 Z M 128.75 32.75 "/>
<path style=" stroke:none;fill-rule:evenodd;fill:rgb(83.137255%,63.921569%,16.470588%);fill-opacity:1;" d="M 71.25 31.75 C 69.425781 32.699219 67.925781 34.117188 66.75 36 C 65.828125 36.5625 64.828125 36.8125 63.75 36.75 C 63.75 36.582031 63.75 36.417969 63.75 36.25 C 64.886719 35.78125 65.886719 35.113281 66.75 34.25 C 68.023438 33.03125 69.523438 32.195312 71.25 31.75 Z M 71.25 31.75 "/>
<path style=" stroke:none;fill-rule:evenodd;fill:rgb(9.411765%,9.019608%,13.333333%);fill-opacity:1;" d="M 137.75 39.75 C 135.601562 38.269531 133.601562 36.601562 131.75 34.75 C 132.65625 35.316406 133.65625 35.648438 134.75 35.75 C 134.640625 35.164062 134.808594 34.664062 135.25 34.25 C 137.742188 35.15625 139.90625 36.574219 141.75 38.5 C 141.582031 38.667969 141.417969 38.832031 141.25 39 C 140.074219 38.929688 138.90625 38.679688 137.75 38.25 C 137.75 38.75 137.75 39.25 137.75 39.75 Z M 137.75 39.75 "/>
<path style=" stroke:none;fill-rule:evenodd;fill:rgb(8.235294%,7.843137%,13.333333%);fill-opacity:1;" d="M 63.75 36.25 C 63.75 36.417969 63.75 36.582031 63.75 36.75 C 62.285156 37.398438 61.117188 38.398438 60.25 39.75 C 58.582031 41.082031 57.082031 42.582031 55.75 44.25 C 55.25 44.75 54.75 45.25 54.25 45.75 C 53.6875 44.632812 53.4375 43.46875 53.5 42.25 C 55.722656 40.191406 57.640625 37.941406 59.25 35.5 C 59.898438 35.253906 60.5625 35.171875 61.25 35.25 C 61.140625 35.835938 61.308594 36.335938 61.75 36.75 C 62.367188 36.378906 63.035156 36.210938 63.75 36.25 Z M 63.75 36.25 "/>
<path style=" stroke:none;fill-rule:evenodd;fill:rgb(75.686275%,60.784314%,20.784314%);fill-opacity:1;" d="M 60.25 39.75 C 59.25 41.75 57.75 43.25 55.75 44.25 C 57.082031 42.582031 58.582031 41.082031 60.25 39.75 Z M 60.25 39.75 "/>
<path style=" stroke:none;fill-rule:evenodd;fill:rgb(11.764706%,9.803922%,7.843137%);fill-opacity:1;" d="M 137.75 39.75 C 140.277344 41.027344 142.277344 42.941406 143.75 45.5 C 145.753906 45.59375 146.421875 46.511719 145.75 48.25 C 147.066406 49.71875 147.902344 51.382812 148.25 53.25 C 145.359375 48.347656 141.859375 43.847656 137.75 39.75 Z M 137.75 39.75 "/>
<path style=" stroke:none;fill-rule:evenodd;fill:rgb(17.254902%,12.941176%,3.137255%);fill-opacity:1;" d="M 51.25 50.25 C 50.207031 52.171875 49.039062 54.003906 47.75 55.75 C 48.285156 53.511719 49.453125 51.679688 51.25 50.25 Z M 51.25 50.25 "/>
<path style=" stroke:none;fill-rule:evenodd;fill:rgb(61.176471%,49.803922%,16.078431%);fill-opacity:1;" d="M 151.75 62.25 C 152.058594 62.304688 152.308594 62.472656 152.5 62.75 C 152.972656 64.410156 153.386719 66.078125 153.75 67.75 C 152.554688 66.15625 151.886719 64.320312 151.75 62.25 Z M 151.75 62.25 "/>
<path style=" stroke:none;fill-rule:evenodd;fill:rgb(60%,43.529412%,13.72549%);fill-opacity:1;" d="M 153.75 68.25 C 154.082031 68.25 154.25 68.417969 154.25 68.75 C 155.285156 75.132812 155.449219 81.46875 154.75 87.75 C 154.75 85.917969 154.75 84.082031 154.75 82.25 C 154.792969 77.539062 154.457031 72.875 153.75 68.25 Z M 153.75 68.25 "/>
<path style=" stroke:none;fill-rule:evenodd;fill:rgb(12.54902%,10.588235%,10.588235%);fill-opacity:1;" d="M 83.75 81.25 C 82.308594 81.097656 80.972656 81.261719 79.75 81.75 C 74.429688 81.328125 69.09375 81.160156 63.75 81.25 C 70.398438 79.382812 77.066406 79.382812 83.75 81.25 Z M 83.75 81.25 "/>
<path style=" stroke:none;fill-rule:evenodd;fill:rgb(7.843137%,7.843137%,12.54902%);fill-opacity:1;" d="M 155.25 90.75 C 154.699219 93.113281 153.199219 94.449219 150.75 94.75 C 151.082031 94.25 151.417969 93.75 151.75 93.25 C 152.585938 93.125 153.335938 92.789062 154 92.25 C 154.574219 90.804688 154.824219 89.304688 154.75 87.75 C 155.449219 81.46875 155.285156 75.132812 154.25 68.75 C 155.207031 68.714844 155.789062 68.214844 156 67.25 C 157.804688 75.195312 157.554688 83.03125 155.25 90.75 Z M 155.25 90.75 "/>
<path style=" stroke:none;fill-rule:evenodd;fill:rgb(82.745098%,65.098039%,12.156863%);fill-opacity:1;" d="M 91.75 83.25 C 93.136719 83.558594 94.472656 83.640625 95.75 83.5 C 96.417969 83.832031 96.417969 84.167969 95.75 84.5 C 98.148438 84.894531 99.816406 86.230469 100.75 88.5 C 102.113281 88.78125 103.113281 89.53125 103.75 90.75 C 101.917969 89.75 100.082031 88.75 98.25 87.75 C 96.808594 85.980469 94.976562 84.8125 92.75 84.25 C 92.417969 83.917969 92.082031 83.582031 91.75 83.25 Z M 91.75 83.25 "/>
<path style=" stroke:none;fill-rule:evenodd;fill:rgb(11.372549%,10.588235%,12.54902%);fill-opacity:1;" d="M 45.25 61.75 C 42.652344 71.4375 42.066406 81.269531 43.5 91.25 C 43.835938 90.875 44.253906 90.707031 44.75 90.75 C 44.160156 91.957031 43.160156 92.457031 41.75 92.25 C 41.75 93.417969 41.75 94.582031 41.75 95.75 C 40.398438 95.808594 40.0625 95.308594 40.75 94.25 C 40.417969 93.75 40.082031 93.25 39.75 92.75 C 40.699219 91.722656 41.535156 90.636719 42.25 89.5 C 42.289062 88.121094 41.621094 87.539062 40.25 87.75 C 40.25 85.082031 40.25 82.417969 40.25 79.75 C 40.75 79.75 41.25 79.75 41.75 79.75 C 41.726562 76.230469 41.644531 72.730469 41.5 69.25 C 41.945312 69.855469 42.363281 69.855469 42.75 69.25 C 43.011719 68.695312 43.175781 68.113281 43.25 67.5 C 42.570312 66.363281 42.238281 65.113281 42.25 63.75 C 40.25 63.417969 40.25 63.082031 42.25 62.75 C 42.507812 60.449219 43.175781 60.28125 44.25 62.25 C 44.589844 62.070312 44.925781 61.902344 45.25 61.75 Z M 45.25 61.75 "/>
<path style=" stroke:none;fill-rule:evenodd;fill:rgb(11.372549%,8.627451%,11.372549%);fill-opacity:1;" d="M 92.75 84.25 C 94.976562 84.8125 96.808594 85.980469 98.25 87.75 C 97.222656 87.195312 96.140625 86.695312 95 86.25 C 93.902344 86.824219 92.816406 86.824219 91.75 86.25 C 93.027344 85.890625 93.363281 85.222656 92.75 84.25 Z M 92.75 84.25 "/>
<path style=" stroke:none;fill-rule:evenodd;fill:rgb(9.803922%,9.803922%,11.764706%);fill-opacity:1;" d="M 63.75 81.25 C 64.339844 82 65.171875 82.5 66.25 82.75 C 65.265625 83.144531 64.265625 83.480469 63.25 83.75 C 61.496094 82.394531 59.828125 82.476562 58.25 84 C 59.792969 84.988281 61.460938 85.738281 63.25 86.25 C 63.917969 86.75 63.917969 87.25 63.25 87.75 C 61.039062 87.136719 58.871094 86.46875 56.75 85.75 C 56.175781 85.910156 55.757812 86.242188 55.5 86.75 C 54.722656 85.742188 53.804688 85.574219 52.75 86.25 C 53.25 86.582031 53.75 86.917969 54.25 87.25 C 52.585938 87.429688 51.25 88.179688 50.25 89.5 C 49.160156 90.492188 48.242188 90.410156 47.5 89.25 C 46.757812 90.078125 45.839844 90.578125 44.75 90.75 C 48.230469 87.695312 52.0625 85.113281 56.25 83 C 58.699219 82.15625 61.199219 81.570312 63.75 81.25 Z M 63.75 81.25 "/>
<path style=" stroke:none;fill-rule:evenodd;fill:rgb(5.882353%,7.843137%,17.647059%);fill-opacity:1;" d="M 83.75 81.25 C 86.496094 81.625 89.164062 82.292969 91.75 83.25 C 92.082031 83.582031 92.417969 83.917969 92.75 84.25 C 93.363281 85.222656 93.027344 85.890625 91.75 86.25 C 92.816406 86.824219 93.902344 86.824219 95 86.25 C 96.140625 86.695312 97.222656 87.195312 98.25 87.75 C 100.082031 88.75 101.917969 89.75 103.75 90.75 C 104.546875 91.816406 105.546875 92.648438 106.75 93.25 C 106.75 93.75 106.75 94.25 106.75 94.75 C 106.164062 94.640625 105.664062 94.808594 105.25 95.25 C 106.199219 95.734375 107.199219 95.898438 108.25 95.75 C 108.25 96.25 108.25 96.75 108.25 97.25 C 106.917969 96.414062 106.085938 96.75 105.75 98.25 C 103.109375 96.925781 100.609375 95.34375 98.25 93.5 C 88.496094 88.464844 78.160156 86.550781 67.25 87.75 C 67.460938 87.390625 67.792969 87.140625 68.25 87 C 72.925781 86.84375 77.59375 86.59375 82.25 86.25 C 82.457031 85.027344 81.957031 84.359375 80.75 84.25 C 77.871094 85.347656 74.953125 85.511719 72 84.75 C 70.253906 85.6875 68.335938 86.023438 66.25 85.75 C 66.25 85.25 66.25 84.75 66.25 84.25 C 70.71875 83.5625 75.21875 83.226562 79.75 83.25 C 79.75 82.75 79.75 82.25 79.75 81.75 C 80.972656 81.261719 82.308594 81.097656 83.75 81.25 Z M 83.75 81.25 "/>
<path style=" stroke:none;fill-rule:evenodd;fill:rgb(80%,64.705882%,15.294118%);fill-opacity:1;" d="M 154.75 82.25 C 154.75 84.082031 154.75 85.917969 154.75 87.75 C 154.824219 89.304688 154.574219 90.804688 154 92.25 C 153.335938 92.789062 152.585938 93.125 151.75 93.25 C 153.828125 89.851562 154.828125 86.1875 154.75 82.25 Z M 154.75 82.25 "/>
<path style=" stroke:none;fill-rule:evenodd;fill:rgb(32.941176%,77.254902%,76.078431%);fill-opacity:1;" d="M 105.75 98.25 C 107.136719 99.800781 108.804688 100.96875 110.75 101.75 C 118.160156 107.183594 126.492188 109.101562 135.75 107.5 C 142.605469 106.15625 148.769531 103.324219 154.25 99 C 155.082031 98.667969 155.917969 98.667969 156.75 99 C 157.347656 99.546875 158.011719 99.964844 158.75 100.25 C 158.832031 101.59375 158.75 102.925781 158.5 104.25 C 142.945312 116.414062 126.363281 118 108.75 109 C 106.140625 107.117188 103.472656 105.367188 100.75 103.75 C 90.214844 94.949219 78.214844 92.117188 64.75 95.25 C 61.257812 96.042969 57.921875 97.292969 54.75 99 C 51.671875 101.289062 48.503906 103.457031 45.25 105.5 C 41.621094 106.015625 40.203125 104.433594 41 100.75 C 48.445312 93.820312 57.195312 89.484375 67.25 87.75 C 78.160156 86.550781 88.496094 88.464844 98.25 93.5 C 100.609375 95.34375 103.109375 96.925781 105.75 98.25 Z M 105.75 98.25 "/>
<path style=" stroke:none;fill-rule:evenodd;fill:rgb(64.705882%,49.803922%,16.470588%);fill-opacity:1;" d="M 111.75 96.25 C 113.15625 96.011719 114.15625 96.511719 114.75 97.75 C 113.726562 97.246094 112.726562 96.746094 111.75 96.25 Z M 111.75 96.25 "/>
<path style=" stroke:none;fill-rule:evenodd;fill:rgb(3.921569%,8.235294%,18.039216%);fill-opacity:1;" d="M 100.75 103.75 C 99.152344 103.167969 97.652344 102.335938 96.25 101.25 C 95.808594 101.664062 95.640625 102.164062 95.75 102.75 C 97.398438 102.664062 97.566406 102.996094 96.25 103.75 C 93.597656 102.089844 90.765625 100.921875 87.75 100.25 C 87.75 99.75 87.75 99.25 87.75 98.75 C 88.679688 98.730469 89.347656 99.148438 89.75 100 C 91.082031 100.332031 92.417969 100.332031 93.75 100 C 92.257812 98.753906 90.589844 97.835938 88.75 97.25 C 86.886719 98.023438 86.386719 99.355469 87.25 101.25 C 87 101.75 86.75 102.25 86.5 102.75 C 86.417969 121.753906 86.167969 140.753906 85.75 159.75 C 85.011719 164.328125 84.84375 168.910156 85.25 173.5 C 85.082031 174.25 84.917969 175 84.75 175.75 C 84.34375 174.617188 84.09375 173.449219 84 172.25 C 83.128906 172.859375 82.628906 173.691406 82.5 174.75 C 82.144531 174.011719 81.5625 173.679688 80.75 173.75 C 80.855469 173.039062 81.105469 172.371094 81.5 171.75 C 81.914062 149 81.832031 126.332031 81.25 103.75 C 80.152344 101.167969 78.316406 100.585938 75.75 102 C 75.332031 102.417969 74.917969 102.832031 74.5 103.25 C 74.167969 126.417969 74.167969 149.582031 74.5 172.75 C 75.023438 173.1875 75.4375 173.6875 75.75 174.25 C 74.558594 173.476562 73.226562 173.144531 71.75 173.25 C 71.75 172.75 71.75 172.25 71.75 171.75 C 72.417969 171.75 73.082031 171.75 73.75 171.75 C 73.917969 149.082031 73.75 126.414062 73.25 103.75 C 72.835938 106.402344 72.585938 109.066406 72.5 111.75 C 72.332031 130.417969 72.167969 149.082031 72 167.75 C 71.597656 147.808594 71.347656 127.808594 71.25 107.75 C 71.070312 105.023438 70.570312 102.355469 69.75 99.75 C 67.789062 99.199219 65.789062 98.867188 63.75 98.75 C 63.75 97.917969 63.75 97.082031 63.75 96.25 C 66.65625 96.492188 69.242188 97.492188 71.5 99.25 C 71.742188 98.777344 71.824219 98.277344 71.75 97.75 C 73.25 97.917969 73.917969 97.25 73.75 95.75 C 76.042969 95.492188 78.210938 95.828125 80.25 96.75 C 81 96.457031 81.667969 96.042969 82.25 95.5 C 76.417969 95.25 70.585938 95.167969 64.75 95.25 C 78.214844 92.117188 90.214844 94.949219 100.75 103.75 Z M 100.75 103.75 "/>
<path style=" stroke:none;fill-rule:evenodd;fill:rgb(5.490196%,8.235294%,18.431373%);fill-opacity:1;" d="M 158.75 100.25 C 158.011719 99.964844 157.347656 99.546875 156.75 99 C 155.917969 98.667969 155.082031 98.667969 154.25 99 C 148.769531 103.324219 142.605469 106.15625 135.75 107.5 C 126.492188 109.101562 118.160156 107.183594 110.75 101.75 C 111.5625 101.53125 112.398438 101.363281 113.25 101.25 C 117.011719 102.335938 120.84375 103.085938 124.75 103.5 C 124.347656 103.652344 124.011719 103.902344 123.75 104.25 C 125.082031 104.582031 126.417969 104.917969 127.75 105.25 C 126.960938 105.648438 126.128906 105.898438 125.25 106 C 125.476562 106.207031 125.644531 106.457031 125.75 106.75 C 128.734375 107.332031 131.734375 107.414062 134.75 107 C 134.1875 106.476562 133.523438 106.144531 132.75 106 C 133.75 105.582031 134.75 105.167969 135.75 104.75 C 125.097656 104.167969 125.097656 103.75 135.75 103.5 C 133.3125 103.378906 130.898438 103.128906 128.5 102.75 C 127.710938 103.273438 126.960938 103.273438 126.25 102.75 C 126.996094 102.429688 127.496094 101.929688 127.75 101.25 C 131.097656 101.226562 134.433594 100.976562 137.75 100.5 C 139.25 100.132812 140.585938 99.546875 141.75 98.75 C 142.417969 98.582031 143.082031 98.417969 143.75 98.25 C 146.683594 98.117188 149.015625 96.949219 150.75 94.75 C 153.199219 94.449219 154.699219 93.113281 155.25 90.75 C 156.382812 90.390625 157.546875 90.222656 158.75 90.25 C 158.777344 91.570312 159.109375 92.820312 159.75 94 C 159.703125 95.476562 159.453125 95.558594 159 94.25 C 158.757812 94.722656 158.675781 95.222656 158.75 95.75 C 158.082031 95.75 157.417969 95.75 156.75 95.75 C 156.617188 96.488281 156.785156 97.15625 157.25 97.75 C 157.957031 97.1875 158.707031 96.6875 159.5 96.25 C 159.183594 97.523438 158.933594 98.855469 158.75 100.25 Z M 158.75 100.25 "/>
<path style=" stroke:none;fill-rule:evenodd;fill:rgb(17.647059%,10.980392%,8.235294%);fill-opacity:1;" d="M 150.75 94.75 C 149.015625 96.949219 146.683594 98.117188 143.75 98.25 C 145.925781 96.828125 148.257812 95.664062 150.75 94.75 Z M 150.75 94.75 "/>
<path style=" stroke:none;fill-rule:evenodd;fill:rgb(8.627451%,9.019608%,10.980392%);fill-opacity:1;" d="M 106.75 93.25 C 108.308594 94.484375 109.972656 95.484375 111.75 96.25 C 112.726562 96.746094 113.726562 97.246094 114.75 97.75 C 118.921875 99.375 123.253906 100.210938 127.75 100.25 C 127.75 100.417969 127.75 100.582031 127.75 100.75 C 125.804688 101.484375 123.804688 101.734375 121.75 101.5 C 121.1875 100.976562 120.523438 100.644531 119.75 100.5 C 118.082031 100.332031 116.417969 100.167969 114.75 100 C 115.082031 99.667969 115.417969 99.332031 115.75 99 C 114.082031 99 112.417969 99 110.75 99 C 109.558594 98.886719 108.726562 98.304688 108.25 97.25 C 108.25 96.75 108.25 96.25 108.25 95.75 C 107.199219 95.898438 106.199219 95.734375 105.25 95.25 C 105.664062 94.808594 106.164062 94.640625 106.75 94.75 C 106.75 94.25 106.75 93.75 106.75 93.25 Z M 106.75 93.25 "/>
<path style=" stroke:none;fill-rule:evenodd;fill:rgb(17.254902%,12.156863%,7.058824%);fill-opacity:1;" d="M 141.75 98.75 C 140.585938 99.546875 139.25 100.132812 137.75 100.5 C 134.433594 100.976562 131.097656 101.226562 127.75 101.25 C 127.75 101.082031 127.75 100.917969 127.75 100.75 C 127.75 100.582031 127.75 100.417969 127.75 100.25 C 130.421875 100.332031 133.089844 100.25 135.75 100 C 137.707031 99.359375 139.707031 98.941406 141.75 98.75 Z M 141.75 98.75 "/>
<path style=" stroke:none;fill-rule:evenodd;fill:rgb(31.372549%,77.254902%,75.686275%);fill-opacity:1;" d="M 81.25 103.75 C 81.832031 126.332031 81.914062 149 81.5 171.75 C 81.105469 172.371094 80.855469 173.039062 80.75 173.75 C 80.417969 173.917969 80.082031 174.082031 79.75 174.25 C 78.738281 174.332031 77.738281 174.246094 76.75 174 C 76.371094 172.914062 75.957031 171.828125 75.5 170.75 C 75.082031 148.414062 75.167969 126.082031 75.75 103.75 C 76.503906 102.289062 77.585938 101.957031 79 102.75 C 79.605469 121.742188 79.9375 140.742188 80 159.75 C 79.917969 140.910156 80.335938 122.242188 81.25 103.75 Z M 81.25 103.75 "/>
<path style=" stroke:none;fill-rule:evenodd;fill:rgb(2.745098%,11.372549%,20.784314%);fill-opacity:1;" d="M 89.75 106.75 C 89.792969 107.496094 89.460938 107.996094 88.75 108.25 C 88.109375 117.589844 88.109375 126.925781 88.75 136.25 C 88.253906 136.292969 87.835938 136.125 87.5 135.75 C 87.082031 125.078125 87.167969 114.414062 87.75 103.75 C 88.148438 104.539062 88.398438 105.371094 88.5 106.25 C 88.835938 106.625 89.253906 106.792969 89.75 106.75 Z M 89.75 106.75 "/>
<path style=" stroke:none;fill-rule:evenodd;fill:rgb(6.27451%,6.666667%,19.215686%);fill-opacity:1;" d="M 108.25 97.25 C 108.726562 98.304688 109.558594 98.886719 110.75 99 C 112.417969 99 114.082031 99 115.75 99 C 115.417969 99.332031 115.082031 99.667969 114.75 100 C 116.417969 100.167969 118.082031 100.332031 119.75 100.5 C 120.523438 100.644531 121.1875 100.976562 121.75 101.5 C 123.804688 101.734375 125.804688 101.484375 127.75 100.75 C 127.75 100.917969 127.75 101.082031 127.75 101.25 C 127.496094 101.929688 126.996094 102.429688 126.25 102.75 C 126.960938 103.273438 127.710938 103.273438 128.5 102.75 C 130.898438 103.128906 133.3125 103.378906 135.75 103.5 C 125.097656 103.75 125.097656 104.167969 135.75 104.75 C 134.75 105.167969 133.75 105.582031 132.75 106 C 133.523438 106.144531 134.1875 106.476562 134.75 107 C 131.734375 107.414062 128.734375 107.332031 125.75 106.75 C 125.644531 106.457031 125.476562 106.207031 125.25 106 C 126.128906 105.898438 126.960938 105.648438 127.75 105.25 C 126.417969 104.917969 125.082031 104.582031 123.75 104.25 C 124.011719 103.902344 124.347656 103.652344 124.75 103.5 C 120.84375 103.085938 117.011719 102.335938 113.25 101.25 C 112.398438 101.363281 111.5625 101.53125 110.75 101.75 C 108.804688 100.96875 107.136719 99.800781 105.75 98.25 C 106.085938 96.75 106.917969 96.414062 108.25 97.25 Z M 108.25 97.25 "/>
<path style=" stroke:none;fill-rule:evenodd;fill:rgb(5.882353%,6.666667%,18.039216%);fill-opacity:1;" d="M 81.25 99.75 C 82.167969 100.375 83.085938 100.375 84 99.75 C 84.492188 100.890625 84.910156 102.054688 85.25 103.25 C 85.367188 118.058594 85.203125 132.894531 84.75 147.75 C 84.777344 155.492188 84.109375 163.15625 82.75 170.75 C 82.332031 147.917969 82.082031 125.085938 82 102.25 C 81.367188 101.546875 81.117188 100.714844 81.25 99.75 Z M 81.25 99.75 "/>
<path style=" stroke:none;fill-rule:evenodd;fill:rgb(32.941176%,78.431373%,77.254902%);fill-opacity:1;" d="M 53.75 112.25 C 53.832031 120.75 53.75 129.25 53.5 137.75 C 52.835938 139.503906 51.585938 140.335938 49.75 140.25 C 48.796875 140.132812 48.132812 139.632812 47.75 138.75 C 47.277344 129.765625 47.109375 120.765625 47.25 111.75 C 47.480469 110.023438 48.480469 109.191406 50.25 109.25 C 52.339844 109.207031 53.507812 110.207031 53.75 112.25 Z M 53.75 112.25 "/>
<path style=" stroke:none;fill-rule:evenodd;fill:rgb(32.941176%,78.039216%,76.862745%);fill-opacity:1;" d="M 66.25 141.75 C 65.28125 142.582031 64.113281 142.914062 62.75 142.75 C 62.28125 141.695312 61.695312 140.695312 61 139.75 C 60.667969 127.75 60.667969 115.75 61 103.75 C 63.191406 101.09375 65.355469 101.09375 67.5 103.75 C 67.832031 115.75 67.832031 127.75 67.5 139.75 C 67.167969 140.492188 66.753906 141.160156 66.25 141.75 Z M 66.25 141.75 "/>
<path style=" stroke:none;fill-rule:evenodd;fill:rgb(33.333333%,77.647059%,76.862745%);fill-opacity:1;" d="M 89.75 106.75 C 91.667969 106.511719 93.335938 107.011719 94.75 108.25 C 95.238281 117.558594 95.402344 126.894531 95.25 136.25 C 94.105469 136.945312 92.855469 137.445312 91.5 137.75 C 90.402344 137.570312 89.488281 137.070312 88.75 136.25 C 88.109375 126.925781 88.109375 117.589844 88.75 108.25 C 89.460938 107.996094 89.792969 107.496094 89.75 106.75 Z M 89.75 106.75 "/>
<path style=" stroke:none;fill-rule:evenodd;fill:rgb(4.313725%,23.921569%,31.372549%);fill-opacity:1;" d="M 94.75 108.25 C 95.058594 108.304688 95.308594 108.472656 95.5 108.75 C 95.914062 118.003906 95.832031 127.167969 95.25 136.25 C 95.402344 126.894531 95.238281 117.558594 94.75 108.25 Z M 94.75 108.25 "/>
<path style=" stroke:none;fill-rule:evenodd;fill:rgb(20.784314%,45.490196%,50.196078%);fill-opacity:1;" d="M 107.75 115.75 C 108.230469 115.976562 108.644531 116.308594 109 116.75 C 109.410156 119.839844 109.328125 122.839844 108.75 125.75 C 109.019531 122.296875 108.6875 118.960938 107.75 115.75 Z M 107.75 115.75 "/>
<path style=" stroke:none;fill-rule:evenodd;fill:rgb(34.117647%,77.254902%,76.470588%);fill-opacity:1;" d="M 107.75 115.75 C 108.6875 118.960938 109.019531 122.296875 108.75 125.75 C 107.425781 127.65625 105.589844 128.242188 103.25 127.5 C 102.9375 127.125 102.6875 126.707031 102.5 126.25 C 102.167969 123.082031 102.167969 119.917969 102.5 116.75 C 103.929688 114.578125 105.679688 114.246094 107.75 115.75 Z M 107.75 115.75 "/>
<path style=" stroke:none;fill-rule:evenodd;fill:rgb(33.72549%,78.039216%,77.254902%);fill-opacity:1;" d="M 150.25 135.75 C 148.398438 138.167969 146.316406 138.332031 144 136.25 C 143.585938 130.664062 143.671875 125.164062 144.25 119.75 C 145.113281 119.308594 146.03125 118.976562 147 118.75 C 148.378906 119.214844 149.046875 120.214844 149 121.75 C 149.207031 121.523438 149.457031 121.355469 149.75 121.25 C 150.25 126.070312 150.414062 130.90625 150.25 135.75 Z M 150.25 135.75 "/>
<path style=" stroke:none;fill-rule:evenodd;fill:rgb(25.490196%,58.039216%,59.607843%);fill-opacity:1;" d="M 150.25 135.75 C 150.414062 130.90625 150.25 126.070312 149.75 121.25 C 149.457031 121.355469 149.207031 121.523438 149 121.75 C 149.046875 120.214844 148.378906 119.214844 147 118.75 C 146.03125 118.976562 145.113281 119.308594 144.25 119.75 C 144.847656 118.539062 145.847656 118.039062 147.25 118.25 C 148.90625 117.992188 149.992188 118.660156 150.5 120.25 C 150.914062 125.503906 150.828125 130.671875 150.25 135.75 Z M 150.25 135.75 "/>
<path style=" stroke:none;fill-rule:evenodd;fill:rgb(28.235294%,56.078431%,59.607843%);fill-opacity:1;" d="M 47.25 111.75 C 47.109375 120.765625 47.277344 129.765625 47.75 138.75 C 47.390625 138.539062 47.140625 138.207031 47 137.75 C 46.585938 128.996094 46.667969 120.332031 47.25 111.75 Z M 47.25 111.75 "/>
<path style=" stroke:none;fill-rule:evenodd;fill:rgb(32.941176%,76.862745%,75.686275%);fill-opacity:1;" d="M 117.75 120.25 C 119.535156 120.019531 121.035156 120.519531 122.25 121.75 C 122.832031 134.414062 122.917969 147.078125 122.5 159.75 C 119.890625 162.007812 117.726562 161.675781 116 158.75 C 115.667969 146.75 115.667969 134.75 116 122.75 C 116.5 121.839844 117.082031 121.003906 117.75 120.25 Z M 117.75 120.25 "/>
<path style=" stroke:none;fill-rule:evenodd;fill:rgb(32.156863%,77.254902%,76.078431%);fill-opacity:1;" d="M 130.75 121.75 C 133.113281 121.277344 135.027344 121.941406 136.5 123.75 C 136.832031 134.25 136.832031 144.75 136.5 155.25 C 135.222656 157.105469 133.472656 157.6875 131.25 157 C 130.648438 156.546875 130.234375 155.964844 130 155.25 C 129.667969 144.417969 129.667969 133.582031 130 122.75 C 130.359375 122.476562 130.609375 122.144531 130.75 121.75 Z M 130.75 121.75 "/>
<path style=" stroke:none;fill-rule:evenodd;fill:rgb(4.705882%,13.333333%,21.960784%);fill-opacity:1;" d="M 66.25 141.75 C 66.753906 141.160156 67.167969 140.492188 67.5 139.75 C 67.832031 127.75 67.832031 115.75 67.5 103.75 C 65.355469 101.09375 63.191406 101.09375 61 103.75 C 60.667969 115.75 60.667969 127.75 61 139.75 C 61.695312 140.695312 62.28125 141.695312 62.75 142.75 C 61.941406 142.480469 61.109375 142.316406 60.25 142.25 C 60.496094 141.027344 60.078125 140.191406 59 139.75 C 58.082031 140.804688 56.996094 141.722656 55.75 142.5 C 53.730469 142.804688 51.730469 142.71875 49.75 142.25 C 49.75 141.582031 49.75 140.917969 49.75 140.25 C 51.585938 140.335938 52.835938 139.503906 53.5 137.75 C 53.75 129.25 53.832031 120.75 53.75 112.25 C 54.441406 116.09375 55.027344 116.09375 55.5 112.25 C 55.363281 117.742188 55.113281 123.242188 54.75 128.75 C 54.824219 132.46875 55.160156 136.132812 55.75 139.75 C 54.199219 139.484375 53.03125 139.984375 52.25 141.25 C 53.839844 142 55.171875 141.664062 56.25 140.25 C 56.582031 138.75 56.917969 137.25 57.25 135.75 C 57.582031 125.582031 57.917969 115.417969 58.25 105.25 C 58.582031 115.917969 58.917969 126.582031 59.25 137.25 C 59.667969 125.921875 59.917969 114.585938 60 103.25 C 60.355469 102.511719 60.9375 102.179688 61.75 102.25 C 61.75 101.75 61.75 101.25 61.75 100.75 C 63.285156 100.773438 64.785156 101.023438 66.25 101.5 C 67.167969 101.75 67.75 102.332031 68 103.25 C 68.332031 115.75 68.332031 128.25 68 140.75 C 67.644531 141.488281 67.0625 141.820312 66.25 141.75 Z M 66.25 141.75 "/>
<path style=" stroke:none;fill-rule:evenodd;fill:rgb(32.156863%,66.666667%,68.627451%);fill-opacity:1;" d="M 81.25 103.75 C 80.335938 122.242188 79.917969 140.910156 80 159.75 C 79.9375 140.742188 79.605469 121.742188 79 102.75 C 77.585938 101.957031 76.503906 102.289062 75.75 103.75 C 75.167969 126.082031 75.082031 148.414062 75.5 170.75 C 75.957031 171.828125 76.371094 172.914062 76.75 174 C 77.738281 174.246094 78.738281 174.332031 79.75 174.25 C 78.417969 174.917969 77.082031 174.917969 75.75 174.25 C 75.4375 173.6875 75.023438 173.1875 74.5 172.75 C 74.167969 149.582031 74.167969 126.417969 74.5 103.25 C 74.917969 102.832031 75.332031 102.417969 75.75 102 C 78.316406 100.585938 80.152344 101.167969 81.25 103.75 Z M 81.25 103.75 "/>
</g>
</svg>
