<?xml version="1.0" encoding="UTF-8"?>
<svg xmlns="http://www.w3.org/2000/svg" xmlns:xlink="http://www.w3.org/1999/xlink" width="200px" height="200px" viewBox="0 0 200 200" version="1.1">
<g id="surface1">
<path style=" stroke:none;fill-rule:nonzero;fill:rgb(100%,1.568627%,12.54902%);fill-opacity:1;" d="M 200 100 C 200 155.226562 155.226562 200 100 200 C 44.773438 200 0 155.226562 0 100 C 0 44.773438 44.773438 0 100 0 C 155.226562 0 200 44.773438 200 100 Z M 200 100 "/>
<path style=" stroke:none;fill-rule:nonzero;fill:rgb(100%,100%,100%);fill-opacity:1;" d="M 70.851562 126.578125 C 64.898438 126.578125 60.019531 125.175781 56.21875 122.375 C 52.464844 119.523438 50.589844 115.46875 50.589844 110.214844 C 50.589844 109.117188 50.714844 107.765625 50.964844 106.164062 C 51.613281 102.5625 52.539062 98.230469 53.742188 93.179688 C 57.144531 79.417969 65.925781 72.539062 80.085938 72.539062 C 83.9375 72.539062 87.390625 73.1875 90.441406 74.488281 C 93.496094 75.742188 95.898438 77.640625 97.648438 80.195312 C 99.398438 82.695312 100.273438 85.699219 100.273438 89.199219 C 100.273438 90.25 100.148438 91.578125 99.898438 93.179688 C 99.148438 97.632812 98.25 101.960938 97.199219 106.164062 C 95.445312 113.019531 92.417969 118.148438 88.117188 121.550781 C 83.8125 124.902344 78.058594 126.578125 70.851562 126.578125 Z M 71.902344 115.769531 C 74.707031 115.769531 77.082031 114.945312 79.035156 113.292969 C 81.035156 111.640625 82.460938 109.117188 83.3125 105.714844 C 84.464844 101.007812 85.339844 96.90625 85.941406 93.402344 C 86.140625 92.351562 86.238281 91.277344 86.238281 90.175781 C 86.238281 85.625 83.863281 83.347656 79.109375 83.347656 C 76.308594 83.347656 73.90625 84.171875 71.902344 85.824219 C 69.953125 87.476562 68.550781 90 67.703125 93.402344 C 66.800781 96.757812 65.898438 100.859375 65 105.714844 C 64.796875 106.714844 64.699219 107.765625 64.699219 108.863281 C 64.699219 113.46875 67.101562 115.769531 71.902344 115.769531 Z M 71.902344 115.769531 "/>
<path style=" stroke:none;fill-rule:nonzero;fill:rgb(100%,100%,100%);fill-opacity:1;" d="M 103.722656 125.828125 C 103.171875 125.828125 102.746094 125.652344 102.445312 125.300781 C 102.195312 124.902344 102.121094 124.453125 102.21875 123.953125 L 112.578125 75.164062 C 112.675781 74.613281 112.953125 74.164062 113.402344 73.8125 C 113.855469 73.464844 114.328125 73.289062 114.828125 73.289062 L 134.792969 73.289062 C 140.347656 73.289062 144.800781 74.441406 148.152344 76.742188 C 151.554688 79.042969 153.257812 82.371094 153.257812 86.722656 C 153.257812 87.976562 153.109375 89.277344 152.808594 90.625 C 151.554688 96.382812 149.03125 100.632812 145.226562 103.386719 C 141.472656 106.136719 136.320312 107.515625 129.765625 107.515625 L 119.632812 107.515625 L 116.179688 123.953125 C 116.078125 124.503906 115.804688 124.953125 115.355469 125.300781 C 114.90625 125.652344 114.429688 125.828125 113.929688 125.828125 Z M 130.289062 97.15625 C 132.390625 97.15625 134.21875 96.582031 135.769531 95.429688 C 137.371094 94.28125 138.421875 92.628906 138.921875 90.476562 C 139.070312 89.625 139.148438 88.875 139.148438 88.226562 C 139.148438 86.773438 138.722656 85.671875 137.871094 84.921875 C 137.019531 84.121094 135.570312 83.722656 133.519531 83.722656 L 124.511719 83.722656 L 121.660156 97.15625 Z M 130.289062 97.15625 "/>
</g>
</svg>
