<?xml version="1.0" encoding="UTF-8"?>
<svg xmlns="http://www.w3.org/2000/svg" xmlns:xlink="http://www.w3.org/1999/xlink" width="200px" height="200px" viewBox="0 0 200 200" version="1.1">
<defs>
<radialGradient id="radial0" gradientUnits="userSpaceOnUse" cx="122.976" cy="80.6785" fx="122.976" fy="80.6785" r="44.6944" gradientTransform="matrix(1.539569,0,0,-1.439885,0.158941,145.109287)">
<stop offset="0" style="stop-color:rgb(100%,91.764706%,100%);stop-opacity:0.6;"/>
<stop offset="0.6807" style="stop-color:rgb(62.745098%,52.941176%,78.823529%);stop-opacity:1;"/>
<stop offset="1" style="stop-color:rgb(6.27451%,0%,18.431373%);stop-opacity:1;"/>
</radialGradient>
<radialGradient id="radial1" gradientUnits="userSpaceOnUse" cx="98.1105" cy="61.6169" fx="98.1105" fy="61.6169" r="109.3511" gradientTransform="matrix(1.539569,0,0,-1.439885,0.158941,145.109287)">
<stop offset="0" style="stop-color:rgb(100%,91.764706%,100%);stop-opacity:0.6;"/>
<stop offset="0.6807" style="stop-color:rgb(62.745098%,52.941176%,78.823529%);stop-opacity:1;"/>
<stop offset="1" style="stop-color:rgb(6.27451%,0%,18.431373%);stop-opacity:1;"/>
</radialGradient>
<filter id="alpha" filterUnits="objectBoundingBox" x="0%" y="0%" width="100%" height="100%">
  <feColorMatrix type="matrix" in="SourceGraphic" values="0 0 0 0 1 0 0 0 0 1 0 0 0 0 1 0 0 0 1 0"/>
</filter>
<mask id="mask0">
  <g filter="url(#alpha)">
<rect x="0" y="0" width="200" height="200" style="fill:rgb(0%,0%,0%);fill-opacity:0.6;stroke:none;"/>
  </g>
</mask>
<clipPath id="clip1">
  <rect x="0" y="0" width="200" height="200"/>
</clipPath>
<g id="surface5" clip-path="url(#clip1)">
<path style=" stroke:none;fill-rule:nonzero;fill:rgb(66.27451%,52.54902%,59.607843%);fill-opacity:1;" d="M 185.214844 31.390625 C 173.515625 19.871094 163.660156 16.847656 151.804688 14.398438 C 142.570312 12.382812 145.03125 7.488281 156.269531 8.496094 C 150.882812 6.765625 145.800781 6.335938 142.105469 7.054688 C 134.71875 8.496094 132.5625 19.007812 134.410156 23.039062 C 135.179688 24.621094 136.871094 26.925781 139.183594 29.519531 C 135.023438 32.109375 131.484375 33.980469 128.558594 35.421875 C 129.945312 35.996094 131.636719 36.71875 133.640625 37.726562 C 138.875 40.316406 144.570312 44.636719 144.570312 44.636719 C 135.949219 37.726562 137.796875 34.558594 149.652344 26.78125 C 153.347656 24.335938 160.121094 24.621094 166.433594 27.644531 C 172.746094 30.667969 180.132812 38.300781 180.132812 38.300781 L 173.050781 50.972656 C 173.515625 51.117188 173.976562 51.261719 174.4375 51.402344 C 178.902344 52.554688 182.445312 52.269531 185.214844 51.261719 C 188.449219 49.386719 196.914062 43.050781 185.214844 31.390625 Z M 185.214844 31.390625 "/>
</g>
<mask id="mask1">
  <g filter="url(#alpha)">
<rect x="0" y="0" width="200" height="200" style="fill:rgb(0%,0%,0%);fill-opacity:0.6;stroke:none;"/>
  </g>
</mask>
<linearGradient id="linear0" gradientUnits="userSpaceOnUse" x1="-1397.5299" y1="-1163.0492" x2="-1285.7112" y2="-1163.0492" gradientTransform="matrix(0.246331,-1.42131,-1.519709,-0.230382,-1342.786591,-2062.925126)">
<stop offset="0" style="stop-color:rgb(50.588235%,100%,100%);stop-opacity:1;"/>
<stop offset="0.6202" style="stop-color:rgb(100%,100%,100%);stop-opacity:0;"/>
</linearGradient>
<clipPath id="clip2">
  <rect x="0" y="0" width="200" height="200"/>
</clipPath>
<g id="surface8" clip-path="url(#clip2)">
<path style=" stroke:none;fill-rule:nonzero;fill:url(#linear0);" d="M 180.289062 111.878906 C 180.289062 156.332031 141.757812 192.367188 94.226562 192.367188 C 46.695312 192.367188 8.164062 156.332031 8.164062 111.878906 C 8.164062 67.425781 46.695312 31.390625 94.226562 31.390625 C 141.757812 31.390625 180.289062 67.425781 180.289062 111.878906 Z M 180.289062 111.878906 "/>
</g>
<mask id="mask2">
  <g filter="url(#alpha)">
<rect x="0" y="0" width="200" height="200" style="fill:rgb(0%,0%,0%);fill-opacity:0.6;stroke:none;"/>
  </g>
</mask>
<clipPath id="clip3">
  <rect x="0" y="0" width="200" height="200"/>
</clipPath>
<g id="surface11" clip-path="url(#clip3)">
<path style=" stroke:none;fill-rule:nonzero;fill:rgb(66.27451%,52.54902%,59.607843%);fill-opacity:1;" d="M 93.609375 182.578125 C 46.652344 175.523438 14.785156 134.195312 22.484375 90.28125 C 25.871094 70.84375 36.339844 54.285156 51.117188 42.332031 C 29.566406 53.996094 13.554688 74.296875 9.242188 99.0625 C 1.699219 142.980469 33.566406 184.304688 80.371094 191.359375 C 106.542969 195.390625 131.792969 187.761719 150.421875 172.785156 C 133.949219 181.714844 113.933594 185.601562 93.609375 182.578125 Z M 93.609375 182.578125 "/>
</g>
<mask id="mask3">
  <g filter="url(#alpha)">
<rect x="0" y="0" width="200" height="200" style="fill:rgb(0%,0%,0%);fill-opacity:0.6;stroke:none;"/>
  </g>
</mask>
<linearGradient id="linear1" gradientUnits="userSpaceOnUse" x1="100.4609" y1="61.0791" x2="54.2367" y2="18.6672" gradientTransform="matrix(1.539569,0,0,-1.439885,0.158941,145.109287)">
<stop offset="0.2888" style="stop-color:rgb(100%,100%,100%);stop-opacity:1;"/>
<stop offset="0.7796" style="stop-color:rgb(100%,100%,100%);stop-opacity:0;"/>
</linearGradient>
<clipPath id="clip4">
  <rect x="0" y="0" width="200" height="200"/>
</clipPath>
<g id="surface14" clip-path="url(#clip4)">
<path style=" stroke:none;fill-rule:nonzero;fill:url(#linear1);" d="M 107.929688 32.542969 C 86.222656 29.230469 65.128906 33.835938 47.886719 44.058594 C 47.578125 44.347656 47.269531 44.636719 47.269531 44.636719 C 53.890625 40.894531 63.589844 37.582031 63.589844 37.582031 C 38.648438 51.117188 30.949219 66.523438 30.949219 66.523438 C 40.648438 48.957031 69.132812 36.574219 91.457031 35.710938 C 113.777344 34.84375 128.40625 41.035156 146.265625 54.425781 C 164.125 67.960938 174.898438 95.609375 173.824219 117.496094 C 172.898438 139.378906 160.582031 157.089844 160.582031 157.089844 C 169.050781 146.867188 174.128906 139.378906 177.363281 131.75 C 177.980469 129.445312 178.59375 127.140625 178.902344 124.695312 C 186.601562 80.921875 154.886719 39.597656 107.929688 32.542969 Z M 107.929688 32.542969 "/>
</g>
<linearGradient id="linear2" gradientUnits="userSpaceOnUse" x1="7.9" y1="-2.9716" x2="114.2" y2="-2.9716" gradientTransform="matrix(1.539569,0,0,-1.439885,0.158941,145.109287)">
<stop offset="0" style="stop-color:rgb(0%,0.784314%,91.372549%);stop-opacity:1;"/>
<stop offset="0.9952" style="stop-color:rgb(100%,0%,78.039216%);stop-opacity:1;"/>
</linearGradient>
<mask id="mask4">
  <g filter="url(#alpha)">
<rect x="0" y="0" width="200" height="200" style="fill:rgb(0%,0%,0%);fill-opacity:0.6;stroke:none;"/>
  </g>
</mask>
<mask id="mask5">
  <g filter="url(#alpha)">
<rect x="0" y="0" width="200" height="200" style="fill:rgb(0%,0%,0%);fill-opacity:0.6;stroke:none;"/>
  </g>
</mask>
<linearGradient id="linear3" gradientUnits="userSpaceOnUse" x1="119.2316" y1="18.8884" x2="61.4115" y2="-35.7548" gradientTransform="matrix(1.539569,0,0,-1.439885,0.158941,145.109287)">
<stop offset="0.2888" style="stop-color:rgb(100%,100%,100%);stop-opacity:1;"/>
<stop offset="0.7796" style="stop-color:rgb(100%,100%,100%);stop-opacity:0;"/>
</linearGradient>
<clipPath id="clip6">
  <rect x="0" y="0" width="200" height="200"/>
</clipPath>
<g id="surface18" clip-path="url(#clip6)">
<path style=" stroke:none;fill-rule:nonzero;fill:url(#linear3);" d="M 169.511719 111.160156 C 169.511719 152.339844 134.71875 186.03125 90.992188 187.617188 C 92.070312 187.617188 93.148438 187.617188 94.226562 187.617188 C 139.335938 187.617188 175.976562 153.347656 175.976562 111.160156 Z M 169.511719 111.160156 "/>
</g>
<clipPath id="clip5">
  <rect x="0" y="0" width="200" height="200"/>
</clipPath>
<g id="surface20" clip-path="url(#clip5)">
<use xlink:href="#surface18" mask="url(#mask5)"/>
</g>
<mask id="mask6">
  <g filter="url(#alpha)">
<rect x="0" y="0" width="200" height="200" style="fill:rgb(0%,0%,0%);fill-opacity:0.701961;stroke:none;"/>
  </g>
</mask>
<linearGradient id="linear4" gradientUnits="userSpaceOnUse" x1="7.9" y1="-2.9716" x2="64.7" y2="-2.9716" gradientTransform="matrix(1.539569,0,0,-1.439885,0.158941,145.109287)">
<stop offset="0" style="stop-color:rgb(0%,0.784314%,57.254902%);stop-opacity:1;"/>
<stop offset="0.9952" style="stop-color:rgb(49.019608%,0%,78.039216%);stop-opacity:1;"/>
</linearGradient>
<clipPath id="clip7">
  <rect x="0" y="0" width="200" height="200"/>
</clipPath>
<g id="surface23" clip-path="url(#clip7)">
<path style=" stroke:none;fill-rule:nonzero;fill:url(#linear4);" d="M 23.867188 111.160156 L 12.320312 111.160156 C 12.320312 153.347656 48.964844 187.617188 94.074219 187.617188 C 96.074219 187.617188 97.921875 187.617188 99.769531 187.472656 C 57.429688 184.59375 23.867188 151.476562 23.867188 111.160156 Z M 23.867188 111.160156 "/>
</g>
<linearGradient id="linear5" gradientUnits="userSpaceOnUse" x1="8.0163" y1="18.6995" x2="114.1029" y2="18.6995" gradientTransform="matrix(1.539569,0,0,-1.439885,0.158941,145.109287)">
<stop offset="0" style="stop-color:rgb(0%,0.784314%,57.254902%);stop-opacity:1;"/>
<stop offset="0.9952" style="stop-color:rgb(74.509804%,0%,78.039216%);stop-opacity:1;"/>
</linearGradient>
<mask id="mask7">
  <g filter="url(#alpha)">
<rect x="0" y="0" width="200" height="200" style="fill:rgb(0%,0%,0%);fill-opacity:0.6;stroke:none;"/>
  </g>
</mask>
<linearGradient id="linear6" gradientUnits="userSpaceOnUse" x1="112.3861" y1="75.5507" x2="104.7615" y2="63.1607" gradientTransform="matrix(1.539569,0,0,-1.439885,0.158941,145.109287)">
<stop offset="0.2888" style="stop-color:rgb(100%,100%,100%);stop-opacity:1;"/>
<stop offset="0.7796" style="stop-color:rgb(100%,100%,100%);stop-opacity:0;"/>
</linearGradient>
<clipPath id="clip8">
  <rect x="0" y="0" width="200" height="200"/>
</clipPath>
<g id="surface26" clip-path="url(#clip8)">
<path style=" stroke:none;fill-rule:nonzero;fill:url(#linear6);" d="M 164.585938 52.269531 C 164.429688 52.269531 164.277344 52.269531 164.277344 52.269531 C 163.351562 52.125 162.738281 51.261719 162.890625 50.253906 C 164.277344 43.628906 170.128906 37.292969 170.433594 37.003906 C 171.050781 36.285156 172.28125 36.285156 172.898438 36.859375 C 173.667969 37.4375 173.667969 38.589844 173.050781 39.164062 C 172.898438 39.308594 167.511719 45.210938 166.277344 50.972656 C 166.125 51.835938 165.355469 52.269531 164.585938 52.269531 Z M 164.585938 52.269531 "/>
</g>
<mask id="mask8">
  <g filter="url(#alpha)">
<rect x="0" y="0" width="200" height="200" style="fill:rgb(0%,0%,0%);fill-opacity:0.2;stroke:none;"/>
  </g>
</mask>
<clipPath id="clip9">
  <rect x="0" y="0" width="200" height="200"/>
</clipPath>
<g id="surface29" clip-path="url(#clip9)">
<path style=" stroke:none;fill-rule:nonzero;fill:rgb(100%,100%,100%);fill-opacity:1;" d="M 92.839844 167.890625 C 92.839844 170.117188 90.910156 171.921875 88.53125 171.921875 C 86.148438 171.921875 84.21875 170.117188 84.21875 167.890625 C 84.21875 165.664062 86.148438 163.859375 88.53125 163.859375 C 90.910156 163.859375 92.839844 165.664062 92.839844 167.890625 Z M 92.839844 167.890625 "/>
</g>
<mask id="mask9">
  <g filter="url(#alpha)">
<rect x="0" y="0" width="200" height="200" style="fill:rgb(0%,0%,0%);fill-opacity:0.4;stroke:none;"/>
  </g>
</mask>
<mask id="mask10">
  <g filter="url(#alpha)">
<rect x="0" y="0" width="200" height="200" style="fill:rgb(0%,0%,0%);fill-opacity:0.6;stroke:none;"/>
  </g>
</mask>
<linearGradient id="linear7" gradientUnits="userSpaceOnUse" x1="54.575" y1="-15.8431" x2="58.8059" y2="-15.8431" gradientTransform="matrix(1.539569,0,0,-1.439885,0.158941,145.109287)">
<stop offset="0.2888" style="stop-color:rgb(100%,100%,100%);stop-opacity:1;"/>
<stop offset="0.7796" style="stop-color:rgb(100%,100%,100%);stop-opacity:0;"/>
</linearGradient>
<clipPath id="clip11">
  <rect x="0" y="0" width="200" height="200"/>
</clipPath>
<g id="surface33" clip-path="url(#clip11)">
<path style=" stroke:none;fill-rule:nonzero;fill:url(#linear7);" d="M 86.066406 170.480469 C 84.375 168.898438 84.375 166.308594 86.066406 164.722656 C 86.375 164.433594 86.683594 164.289062 86.992188 164.003906 C 86.375 164.148438 85.914062 164.433594 85.449219 164.867188 C 83.757812 166.449219 83.757812 169.042969 85.449219 170.625 C 86.835938 171.921875 88.992188 172.210938 90.6875 171.347656 C 89.144531 171.921875 87.296875 171.632812 86.066406 170.480469 Z M 86.066406 170.480469 "/>
</g>
<clipPath id="clip10">
  <rect x="0" y="0" width="200" height="200"/>
</clipPath>
<g id="surface35" clip-path="url(#clip10)">
<use xlink:href="#surface33" mask="url(#mask10)"/>
</g>
<mask id="mask11">
  <g filter="url(#alpha)">
<rect x="0" y="0" width="200" height="200" style="fill:rgb(0%,0%,0%);fill-opacity:0.301961;stroke:none;"/>
  </g>
</mask>
<clipPath id="clip12">
  <rect x="0" y="0" width="200" height="200"/>
</clipPath>
<g id="surface38" clip-path="url(#clip12)">
<path style=" stroke:none;fill-rule:nonzero;fill:rgb(100%,100%,100%);fill-opacity:1;" d="M 90.992188 165.875 C 90.992188 166.351562 90.578125 166.738281 90.070312 166.738281 C 89.558594 166.738281 89.144531 166.351562 89.144531 165.875 C 89.144531 165.398438 89.558594 165.011719 90.070312 165.011719 C 90.578125 165.011719 90.992188 165.398438 90.992188 165.875 Z M 90.992188 165.875 "/>
</g>
<mask id="mask12">
  <g filter="url(#alpha)">
<rect x="0" y="0" width="200" height="200" style="fill:rgb(0%,0%,0%);fill-opacity:0.2;stroke:none;"/>
  </g>
</mask>
<clipPath id="clip13">
  <rect x="0" y="0" width="200" height="200"/>
</clipPath>
<g id="surface41" clip-path="url(#clip13)">
<path style=" stroke:none;fill-rule:nonzero;fill:rgb(100%,100%,100%);fill-opacity:1;" d="M 115.320312 165.875 C 115.320312 168.101562 113.390625 169.90625 111.007812 169.90625 C 108.628906 169.90625 106.695312 168.101562 106.695312 165.875 C 106.695312 163.648438 108.628906 161.84375 111.007812 161.84375 C 113.390625 161.84375 115.320312 163.648438 115.320312 165.875 Z M 115.320312 165.875 "/>
</g>
<mask id="mask13">
  <g filter="url(#alpha)">
<rect x="0" y="0" width="200" height="200" style="fill:rgb(0%,0%,0%);fill-opacity:0.4;stroke:none;"/>
  </g>
</mask>
<mask id="mask14">
  <g filter="url(#alpha)">
<rect x="0" y="0" width="200" height="200" style="fill:rgb(0%,0%,0%);fill-opacity:0.6;stroke:none;"/>
  </g>
</mask>
<linearGradient id="linear8" gradientUnits="userSpaceOnUse" x1="69.162" y1="-14.4431" x2="73.3929" y2="-14.4431" gradientTransform="matrix(1.539569,0,0,-1.439885,0.158941,145.109287)">
<stop offset="0.2888" style="stop-color:rgb(100%,100%,100%);stop-opacity:1;"/>
<stop offset="0.7796" style="stop-color:rgb(100%,100%,100%);stop-opacity:0;"/>
</linearGradient>
<clipPath id="clip15">
  <rect x="0" y="0" width="200" height="200"/>
</clipPath>
<g id="surface45" clip-path="url(#clip15)">
<path style=" stroke:none;fill-rule:nonzero;fill:url(#linear8);" d="M 108.542969 168.464844 C 106.851562 166.882812 106.851562 164.289062 108.542969 162.707031 C 108.851562 162.417969 109.160156 162.273438 109.46875 161.988281 C 108.851562 162.132812 108.390625 162.417969 107.929688 162.851562 C 106.234375 164.433594 106.234375 167.027344 107.929688 168.609375 C 109.3125 169.90625 111.46875 170.195312 113.164062 169.332031 C 111.625 169.90625 109.777344 169.617188 108.542969 168.464844 Z M 108.542969 168.464844 "/>
</g>
<clipPath id="clip14">
  <rect x="0" y="0" width="200" height="200"/>
</clipPath>
<g id="surface47" clip-path="url(#clip14)">
<use xlink:href="#surface45" mask="url(#mask14)"/>
</g>
<mask id="mask15">
  <g filter="url(#alpha)">
<rect x="0" y="0" width="200" height="200" style="fill:rgb(0%,0%,0%);fill-opacity:0.301961;stroke:none;"/>
  </g>
</mask>
<clipPath id="clip16">
  <rect x="0" y="0" width="200" height="200"/>
</clipPath>
<g id="surface50" clip-path="url(#clip16)">
<path style=" stroke:none;fill-rule:nonzero;fill:rgb(100%,100%,100%);fill-opacity:1;" d="M 113.472656 163.859375 C 113.472656 164.335938 113.058594 164.722656 112.546875 164.722656 C 112.039062 164.722656 111.625 164.335938 111.625 163.859375 C 111.625 163.382812 112.039062 162.996094 112.546875 162.996094 C 113.058594 162.996094 113.472656 163.382812 113.472656 163.859375 Z M 113.472656 163.859375 "/>
</g>
<mask id="mask16">
  <g filter="url(#alpha)">
<rect x="0" y="0" width="200" height="200" style="fill:rgb(0%,0%,0%);fill-opacity:0.2;stroke:none;"/>
  </g>
</mask>
<clipPath id="clip17">
  <rect x="0" y="0" width="200" height="200"/>
</clipPath>
<g id="surface53" clip-path="url(#clip17)">
<path style=" stroke:none;fill-rule:nonzero;fill:rgb(100%,100%,100%);fill-opacity:1;" d="M 103.15625 176.242188 C 103.15625 177.910156 101.707031 179.265625 99.921875 179.265625 C 98.136719 179.265625 96.691406 177.910156 96.691406 176.242188 C 96.691406 174.570312 98.136719 173.21875 99.921875 173.21875 C 101.707031 173.21875 103.15625 174.570312 103.15625 176.242188 Z M 103.15625 176.242188 "/>
</g>
<mask id="mask17">
  <g filter="url(#alpha)">
<rect x="0" y="0" width="200" height="200" style="fill:rgb(0%,0%,0%);fill-opacity:0.4;stroke:none;"/>
  </g>
</mask>
<mask id="mask18">
  <g filter="url(#alpha)">
<rect x="0" y="0" width="200" height="200" style="fill:rgb(0%,0%,0%);fill-opacity:0.6;stroke:none;"/>
  </g>
</mask>
<linearGradient id="linear9" gradientUnits="userSpaceOnUse" x1="62.6869" y1="-21.6779" x2="65.8632" y2="-21.6779" gradientTransform="matrix(1.539569,0,0,-1.439885,0.158941,145.109287)">
<stop offset="0.2888" style="stop-color:rgb(100%,100%,100%);stop-opacity:1;"/>
<stop offset="0.7796" style="stop-color:rgb(100%,100%,100%);stop-opacity:0;"/>
</linearGradient>
<clipPath id="clip19">
  <rect x="0" y="0" width="200" height="200"/>
</clipPath>
<g id="surface57" clip-path="url(#clip19)">
<path style=" stroke:none;fill-rule:nonzero;fill:url(#linear9);" d="M 98.074219 178.113281 C 96.84375 176.960938 96.84375 174.945312 98.074219 173.792969 C 98.230469 173.648438 98.539062 173.507812 98.691406 173.363281 C 98.230469 173.507812 97.921875 173.792969 97.613281 174.082031 C 96.382812 175.234375 96.382812 177.25 97.613281 178.402344 C 98.691406 179.410156 100.230469 179.554688 101.617188 178.832031 C 100.386719 179.265625 99 178.976562 98.074219 178.113281 Z M 98.074219 178.113281 "/>
</g>
<clipPath id="clip18">
  <rect x="0" y="0" width="200" height="200"/>
</clipPath>
<g id="surface59" clip-path="url(#clip18)">
<use xlink:href="#surface57" mask="url(#mask18)"/>
</g>
<mask id="mask19">
  <g filter="url(#alpha)">
<rect x="0" y="0" width="200" height="200" style="fill:rgb(0%,0%,0%);fill-opacity:0.301961;stroke:none;"/>
  </g>
</mask>
<clipPath id="clip20">
  <rect x="0" y="0" width="200" height="200"/>
</clipPath>
<g id="surface62" clip-path="url(#clip20)">
<path style=" stroke:none;fill-rule:nonzero;fill:rgb(100%,100%,100%);fill-opacity:1;" d="M 101.617188 174.65625 C 101.617188 174.976562 101.339844 175.234375 101 175.234375 C 100.660156 175.234375 100.386719 174.976562 100.386719 174.65625 C 100.386719 174.339844 100.660156 174.082031 101 174.082031 C 101.339844 174.082031 101.617188 174.339844 101.617188 174.65625 Z M 101.617188 174.65625 "/>
</g>
<mask id="mask20">
  <g filter="url(#alpha)">
<rect x="0" y="0" width="200" height="200" style="fill:rgb(0%,0%,0%);fill-opacity:0.2;stroke:none;"/>
  </g>
</mask>
<clipPath id="clip21">
  <rect x="0" y="0" width="200" height="200"/>
</clipPath>
<g id="surface65" clip-path="url(#clip21)">
<path style=" stroke:none;fill-rule:nonzero;fill:rgb(100%,100%,100%);fill-opacity:1;" d="M 77.292969 163.859375 C 77.292969 167.515625 74.121094 170.480469 70.210938 170.480469 C 66.296875 170.480469 63.128906 167.515625 63.128906 163.859375 C 63.128906 160.199219 66.296875 157.234375 70.210938 157.234375 C 74.121094 157.234375 77.292969 160.199219 77.292969 163.859375 Z M 77.292969 163.859375 "/>
</g>
<mask id="mask21">
  <g filter="url(#alpha)">
<rect x="0" y="0" width="200" height="200" style="fill:rgb(0%,0%,0%);fill-opacity:0.4;stroke:none;"/>
  </g>
</mask>
<mask id="mask22">
  <g filter="url(#alpha)">
<rect x="0" y="0" width="200" height="200" style="fill:rgb(0%,0%,0%);fill-opacity:0.6;stroke:none;"/>
  </g>
</mask>
<linearGradient id="linear10" gradientUnits="userSpaceOnUse" x1="40.9041" y1="-13.1521" x2="47.8135" y2="-13.1521" gradientTransform="matrix(1.539569,0,0,-1.439885,0.158941,145.109287)">
<stop offset="0.2888" style="stop-color:rgb(100%,100%,100%);stop-opacity:1;"/>
<stop offset="0.7796" style="stop-color:rgb(100%,100%,100%);stop-opacity:0;"/>
</linearGradient>
<clipPath id="clip23">
  <rect x="0" y="0" width="200" height="200"/>
</clipPath>
<g id="surface69" clip-path="url(#clip23)">
<path style=" stroke:none;fill-rule:nonzero;fill:url(#linear10);" d="M 66.207031 168.035156 C 63.433594 165.441406 63.433594 161.265625 66.207031 158.675781 C 66.667969 158.242188 67.128906 157.957031 67.746094 157.667969 C 66.824219 157.957031 66.050781 158.53125 65.28125 159.105469 C 62.511719 161.699219 62.511719 165.875 65.28125 168.464844 C 67.59375 170.625 71.132812 171.058594 73.90625 169.472656 C 71.285156 170.480469 68.207031 170.050781 66.207031 168.035156 Z M 66.207031 168.035156 "/>
</g>
<clipPath id="clip22">
  <rect x="0" y="0" width="200" height="200"/>
</clipPath>
<g id="surface71" clip-path="url(#clip22)">
<use xlink:href="#surface69" mask="url(#mask22)"/>
</g>
<mask id="mask23">
  <g filter="url(#alpha)">
<rect x="0" y="0" width="200" height="200" style="fill:rgb(0%,0%,0%);fill-opacity:0.301961;stroke:none;"/>
  </g>
</mask>
<clipPath id="clip24">
  <rect x="0" y="0" width="200" height="200"/>
</clipPath>
<g id="surface74" clip-path="url(#clip24)">
<path style=" stroke:none;fill-rule:nonzero;fill:rgb(100%,100%,100%);fill-opacity:1;" d="M 74.210938 160.402344 C 74.210938 161.199219 73.523438 161.84375 72.671875 161.84375 C 71.824219 161.84375 71.132812 161.199219 71.132812 160.402344 C 71.132812 159.609375 71.824219 158.964844 72.671875 158.964844 C 73.523438 158.964844 74.210938 159.609375 74.210938 160.402344 Z M 74.210938 160.402344 "/>
</g>
<mask id="mask24">
  <g filter="url(#alpha)">
<rect x="0" y="0" width="200" height="200" style="fill:rgb(0%,0%,0%);fill-opacity:0.2;stroke:none;"/>
  </g>
</mask>
<clipPath id="clip25">
  <rect x="0" y="0" width="200" height="200"/>
</clipPath>
<g id="surface77" clip-path="url(#clip25)">
<path style=" stroke:none;fill-rule:nonzero;fill:rgb(100%,100%,100%);fill-opacity:1;" d="M 140.566406 147.589844 C 140.566406 151.246094 137.398438 154.210938 133.484375 154.210938 C 129.574219 154.210938 126.402344 151.246094 126.402344 147.589844 C 126.402344 143.929688 129.574219 140.964844 133.484375 140.964844 C 137.398438 140.964844 140.566406 143.929688 140.566406 147.589844 Z M 140.566406 147.589844 "/>
</g>
<mask id="mask25">
  <g filter="url(#alpha)">
<rect x="0" y="0" width="200" height="200" style="fill:rgb(0%,0%,0%);fill-opacity:0.4;stroke:none;"/>
  </g>
</mask>
<mask id="mask26">
  <g filter="url(#alpha)">
<rect x="0" y="0" width="200" height="200" style="fill:rgb(0%,0%,0%);fill-opacity:0.6;stroke:none;"/>
  </g>
</mask>
<linearGradient id="linear11" gradientUnits="userSpaceOnUse" x1="81.9424" y1="-1.8521" x2="88.8518" y2="-1.8521" gradientTransform="matrix(1.539569,0,0,-1.439885,0.158941,145.109287)">
<stop offset="0.2888" style="stop-color:rgb(100%,100%,100%);stop-opacity:1;"/>
<stop offset="0.7796" style="stop-color:rgb(100%,100%,100%);stop-opacity:0;"/>
</linearGradient>
<clipPath id="clip27">
  <rect x="0" y="0" width="200" height="200"/>
</clipPath>
<g id="surface81" clip-path="url(#clip27)">
<path style=" stroke:none;fill-rule:nonzero;fill:url(#linear11);" d="M 129.328125 151.765625 C 126.558594 149.171875 126.558594 144.996094 129.328125 142.40625 C 129.789062 141.972656 130.253906 141.683594 130.867188 141.398438 C 129.945312 141.683594 129.175781 142.261719 128.40625 142.835938 C 125.632812 145.429688 125.632812 149.605469 128.40625 152.195312 C 130.714844 154.355469 134.253906 154.789062 137.027344 153.203125 C 134.410156 154.210938 131.484375 153.78125 129.328125 151.765625 Z M 129.328125 151.765625 "/>
</g>
<clipPath id="clip26">
  <rect x="0" y="0" width="200" height="200"/>
</clipPath>
<g id="surface83" clip-path="url(#clip26)">
<use xlink:href="#surface81" mask="url(#mask26)"/>
</g>
<mask id="mask27">
  <g filter="url(#alpha)">
<rect x="0" y="0" width="200" height="200" style="fill:rgb(0%,0%,0%);fill-opacity:0.301961;stroke:none;"/>
  </g>
</mask>
<clipPath id="clip28">
  <rect x="0" y="0" width="200" height="200"/>
</clipPath>
<g id="surface86" clip-path="url(#clip28)">
<path style=" stroke:none;fill-rule:nonzero;fill:rgb(100%,100%,100%);fill-opacity:1;" d="M 137.488281 144.132812 C 137.488281 144.925781 136.800781 145.574219 135.949219 145.574219 C 135.097656 145.574219 134.410156 144.925781 134.410156 144.132812 C 134.410156 143.335938 135.097656 142.691406 135.949219 142.691406 C 136.800781 142.691406 137.488281 143.335938 137.488281 144.132812 Z M 137.488281 144.132812 "/>
</g>
</defs>
<g id="surface1">
<path style=" stroke:none;fill-rule:nonzero;fill:rgb(36.862745%,7.058824%,62.745098%);fill-opacity:1;" d="M 196.609375 36.859375 C 194.453125 29.230469 187.523438 21.597656 175.054688 13.101562 C 165.046875 6.335938 154.421875 2.449219 145.957031 2.449219 C 144.261719 2.449219 142.722656 2.589844 141.183594 2.878906 C 137.335938 3.601562 133.949219 6.191406 131.792969 10.078125 C 129.175781 14.6875 128.558594 20.878906 130.253906 24.621094 C 130.867188 25.773438 131.636719 27.214844 132.5625 28.507812 C 124.402344 33.117188 119.785156 34.414062 119.167969 34.558594 C 140.414062 41.179688 158.117188 55.003906 169.203125 73.003906 L 169.359375 71.273438 C 169.820312 66.523438 171.359375 61.050781 173.515625 55.4375 C 175.667969 56.011719 177.824219 56.300781 179.980469 56.300781 C 185.675781 56.300781 190.605469 54.140625 193.683594 50.253906 C 196.761719 46.363281 197.992188 41.179688 196.609375 36.859375 Z M 196.609375 36.859375 "/>
<path style=" stroke:none;fill-rule:nonzero;fill:url(#radial0);" d="M 174.4375 51.261719 C 188.449219 54.859375 194.144531 44.78125 192.296875 38.011719 C 190.296875 31.246094 183.828125 24.335938 172.4375 16.558594 C 161.042969 8.785156 149.496094 5.617188 142.105469 7.054688 C 134.71875 8.496094 132.5625 19.007812 134.410156 23.039062 C 135.179688 24.621094 136.871094 26.925781 139.183594 29.519531 C 136.257812 31.390625 133.484375 32.828125 131.175781 34.125 C 145.339844 40.027344 157.65625 49.242188 166.894531 60.761719 C 167.972656 56.875 169.511719 53.417969 170.898438 50.394531 C 171.976562 50.539062 173.207031 50.828125 174.4375 51.261719 Z M 174.4375 51.261719 "/>
<path style=" stroke:none;fill-rule:nonzero;fill:url(#radial1);" d="M 180.289062 111.878906 C 180.289062 156.332031 141.757812 192.367188 94.226562 192.367188 C 46.695312 192.367188 8.164062 156.332031 8.164062 111.878906 C 8.164062 67.425781 46.695312 31.390625 94.226562 31.390625 C 141.757812 31.390625 180.289062 67.425781 180.289062 111.878906 Z M 180.289062 111.878906 "/>
<use xlink:href="#surface5" mask="url(#mask0)"/>
<path style=" stroke:none;fill-rule:nonzero;fill:rgb(36.862745%,7.058824%,62.745098%);fill-opacity:1;" d="M 151.652344 21.308594 C 154.730469 22.460938 158.734375 24.476562 163.660156 27.5 C 169.511719 31.101562 174.59375 35.132812 177.824219 38.300781 C 172.4375 44.925781 168.894531 53.996094 166.742188 60.332031 C 167.816406 61.769531 169.050781 63.210938 170.128906 64.652344 C 171.203125 61.050781 173.050781 55.722656 175.515625 50.394531 C 176.132812 50.539062 176.902344 50.539062 177.671875 50.539062 C 179.519531 50.539062 181.675781 50.253906 183.367188 48.957031 C 184.597656 48.09375 185.984375 46.507812 185.832031 43.628906 C 185.832031 40.894531 183.523438 37.4375 178.75 33.261719 C 175.363281 30.238281 170.742188 26.925781 166.125 23.902344 C 152.882812 15.695312 143.648438 13.390625 139.488281 17.277344 C 136.71875 19.871094 137.027344 23.039062 137.949219 25.34375 C 133.023438 28.367188 128.867188 30.527344 126.09375 31.964844 C 127.941406 32.542969 129.636719 33.261719 131.484375 33.980469 C 136.410156 31.535156 143.492188 27.359375 151.652344 21.308594 Z M 180.75 41.902344 C 181.210938 42.621094 181.367188 43.339844 181.367188 43.773438 C 181.367188 45.070312 180.90625 45.5 180.597656 45.789062 C 179.980469 46.21875 178.75 46.507812 177.671875 46.507812 C 178.59375 44.78125 179.671875 43.339844 180.75 41.902344 Z M 142.722656 20.445312 C 143.183594 20.015625 144.417969 19.726562 146.417969 20.015625 C 144.878906 21.167969 143.339844 22.175781 141.800781 23.183594 C 141.644531 22.175781 141.800781 21.167969 142.722656 20.445312 Z M 142.722656 20.445312 "/>
<path style=" stroke:none;fill-rule:nonzero;fill:rgb(36.862745%,7.058824%,62.745098%);fill-opacity:1;" d="M 94.226562 26.636719 C 43.882812 26.636719 3.085938 64.792969 3.085938 111.878906 C 3.085938 158.964844 43.882812 197.121094 94.226562 197.121094 C 144.570312 197.121094 185.367188 158.964844 185.367188 111.878906 C 185.367188 64.792969 144.417969 26.636719 94.226562 26.636719 Z M 94.226562 192.367188 C 46.652344 192.367188 8.164062 156.371094 8.164062 111.878906 C 8.164062 67.386719 46.652344 31.390625 94.226562 31.390625 C 141.800781 31.390625 180.289062 67.386719 180.289062 111.878906 C 180.289062 156.371094 141.644531 192.367188 94.226562 192.367188 Z M 94.226562 192.367188 "/>
<use xlink:href="#surface8" mask="url(#mask1)"/>
<use xlink:href="#surface11" mask="url(#mask2)"/>
<use xlink:href="#surface14" mask="url(#mask3)"/>
<path style=" stroke:none;fill-rule:nonzero;fill:url(#linear2);" d="M 175.976562 111.160156 C 175.976562 153.347656 139.335938 187.617188 94.226562 187.617188 C 49.117188 187.617188 12.320312 153.347656 12.320312 111.160156 Z M 175.976562 111.160156 "/>
<use xlink:href="#surface20" mask="url(#mask4)"/>
<use xlink:href="#surface23" mask="url(#mask6)"/>
<path style=" stroke:none;fill-rule:nonzero;fill:url(#linear5);" d="M 175.824219 111.878906 C 175.824219 103.097656 159.503906 98.054688 137.796875 96.328125 C 122.09375 95.175781 106.234375 96.617188 88.066406 101.800781 C 72.363281 106.121094 58.199219 105.398438 47.886719 104.246094 C 24.945312 101.800781 12.320312 101.511719 12.320312 111.878906 C 12.320312 126.855469 44.960938 145.574219 93.917969 139.09375 C 118.707031 135.78125 131.484375 129.015625 146.109375 124.40625 C 161.96875 119.511719 175.824219 119.65625 175.824219 111.878906 Z M 175.824219 111.878906 "/>
<path style=" stroke:none;fill-rule:nonzero;fill:rgb(100%,100%,100%);fill-opacity:1;" d="M 134.871094 62.636719 C 134.871094 69.792969 128.667969 75.59375 121.015625 75.59375 C 113.363281 75.59375 107.160156 69.792969 107.160156 62.636719 C 107.160156 55.476562 113.363281 49.675781 121.015625 49.675781 C 128.667969 49.675781 134.871094 55.476562 134.871094 62.636719 Z M 134.871094 62.636719 "/>
<path style=" stroke:none;fill-rule:nonzero;fill:rgb(100%,100%,100%);fill-opacity:1;" d="M 149.496094 79.769531 C 149.496094 82.792969 146.878906 85.242188 143.648438 85.242188 C 140.414062 85.242188 137.796875 82.792969 137.796875 79.769531 C 137.796875 76.746094 140.414062 74.296875 143.648438 74.296875 C 146.878906 74.296875 149.496094 76.746094 149.496094 79.769531 Z M 149.496094 79.769531 "/>
<use xlink:href="#surface26" mask="url(#mask7)"/>
<use xlink:href="#surface29" mask="url(#mask8)"/>
<use xlink:href="#surface35" mask="url(#mask9)"/>
<use xlink:href="#surface38" mask="url(#mask11)"/>
<use xlink:href="#surface41" mask="url(#mask12)"/>
<use xlink:href="#surface47" mask="url(#mask13)"/>
<use xlink:href="#surface50" mask="url(#mask15)"/>
<use xlink:href="#surface53" mask="url(#mask16)"/>
<use xlink:href="#surface59" mask="url(#mask17)"/>
<use xlink:href="#surface62" mask="url(#mask19)"/>
<use xlink:href="#surface65" mask="url(#mask20)"/>
<use xlink:href="#surface71" mask="url(#mask21)"/>
<use xlink:href="#surface74" mask="url(#mask23)"/>
<use xlink:href="#surface77" mask="url(#mask24)"/>
<use xlink:href="#surface83" mask="url(#mask25)"/>
<use xlink:href="#surface86" mask="url(#mask27)"/>
</g>
</svg>
