<?xml version="1.0" encoding="UTF-8"?>
<svg xmlns="http://www.w3.org/2000/svg" xmlns:xlink="http://www.w3.org/1999/xlink" width="200px" height="200px" viewBox="0 0 200 200" version="1.1">
<defs>
<linearGradient id="linear0" gradientUnits="userSpaceOnUse" x1="16" y1="0" x2="16" y2="32" gradientTransform="matrix(6.25,0,0,6.25,0,0)">
<stop offset="0" style="stop-color:rgb(26.27451%,26.27451%,26.27451%);stop-opacity:1;"/>
<stop offset="1" style="stop-color:rgb(0%,0%,0%);stop-opacity:1;"/>
</linearGradient>
</defs>
<g id="surface1">
<path style=" stroke:none;fill-rule:nonzero;fill:url(#linear0);" d="M 100 200 C 155.230469 200 200 155.230469 200 100 C 200 44.773438 155.230469 0 100 0 C 44.773438 0 0 44.773438 0 100 C 0 155.230469 44.773438 200 100 200 Z M 100 200 "/>
<path style="fill:none;stroke-width:0.5;stroke-linecap:butt;stroke-linejoin:miter;stroke:rgb(100%,100%,100%);stroke-opacity:1;stroke-miterlimit:4;" d="M 16 31.75 C 24.69875 31.75 31.75 24.69875 31.75 16 C 31.75 7.30125 24.69875 0.25 16 0.25 C 7.30125 0.25 0.25 7.30125 0.25 16 C 0.25 24.69875 7.30125 31.75 16 31.75 Z M 16 31.75 " transform="matrix(6.25,0,0,6.25,0,0)"/>
<path style=" stroke:none;fill-rule:nonzero;fill:rgb(100%,100%,100%);fill-opacity:1;" d="M 138.570312 96.253906 C 138.621094 101.667969 137.285156 107.003906 134.6875 111.753906 C 131.902344 116.566406 127.777344 120.460938 122.8125 122.96875 C 116.625 126.015625 109.78125 127.488281 102.886719 127.253906 L 88.207031 127.253906 L 88.207031 162.117188 L 64.585938 162.117188 L 64.585938 64.984375 L 102.914062 64.984375 C 109.683594 64.777344 116.414062 66.152344 122.5625 69 C 127.597656 71.386719 131.789062 75.242188 134.585938 80.0625 C 137.316406 85.015625 138.6875 90.601562 138.570312 96.253906 Z M 101.113281 108.4375 C 104.765625 108.726562 108.386719 107.585938 111.210938 105.253906 C 113.355469 102.746094 114.535156 99.558594 114.535156 96.257812 C 114.535156 92.960938 113.355469 89.769531 111.210938 87.261719 C 108.386719 84.929688 104.765625 83.789062 101.113281 84.078125 L 88.207031 84.078125 L 88.207031 108.453125 Z M 101.113281 108.4375 "/>
<path style=" stroke:none;fill-rule:nonzero;fill:rgb(89.803922%,3.529412%,7.45098%);fill-opacity:1;" d="M 138.570312 40.382812 L 64.550781 40.382812 L 64.550781 56.007812 L 138.570312 56.007812 Z M 138.570312 40.382812 "/>
</g>
</svg>
