<?xml version="1.0" encoding="UTF-8"?>
<svg xmlns="http://www.w3.org/2000/svg" xmlns:xlink="http://www.w3.org/1999/xlink" width="200px" height="200px" viewBox="0 0 200 200" version="1.1">
<g id="surface1">
<path style=" stroke:none;fill-rule:nonzero;fill:rgb(90.196078%,0%,47.843137%);fill-opacity:1;" d="M 138.351562 20.976562 C 138.351562 9.390625 121.183594 0 100 0 C 78.820312 0 61.652344 9.390625 61.652344 20.976562 C 61.652344 32.558594 78.820312 41.953125 100 41.953125 C 121.183594 41.953125 138.351562 32.558594 138.351562 20.976562 Z M 138.351562 20.976562 "/>
<path style=" stroke:none;fill-rule:nonzero;fill:rgb(90.196078%,0%,47.843137%);fill-opacity:1;" d="M 138.351562 179.023438 C 138.351562 167.441406 121.183594 158.046875 100 158.046875 C 78.820312 158.046875 61.652344 167.441406 61.652344 179.023438 C 61.652344 190.609375 78.820312 200 100 200 C 121.183594 200 138.351562 190.609375 138.351562 179.023438 Z M 138.351562 179.023438 "/>
<path style=" stroke:none;fill-rule:nonzero;fill:rgb(90.196078%,0%,47.843137%);fill-opacity:1;" d="M 46.40625 29.257812 C 35.730469 23.460938 18.492188 32.746094 7.902344 49.996094 C -2.6875 67.246094 -2.621094 85.925781 8.054688 91.722656 C 18.730469 97.519531 35.96875 88.234375 46.558594 70.984375 C 57.148438 53.738281 57.078125 35.054688 46.40625 29.257812 Z M 46.40625 29.257812 "/>
<path style=" stroke:none;fill-rule:nonzero;fill:rgb(90.196078%,0%,47.843137%);fill-opacity:1;" d="M 191.945312 108.277344 C 181.277344 102.484375 164.042969 111.773438 153.453125 129.023438 C 142.863281 146.273438 142.925781 164.949219 153.59375 170.742188 C 164.261719 176.535156 181.496094 167.246094 192.085938 150 C 202.675781 132.75 202.613281 114.070312 191.945312 108.277344 Z M 191.945312 108.277344 "/>
<path style=" stroke:none;fill-rule:nonzero;fill:rgb(90.196078%,0%,47.843137%);fill-opacity:1;" d="M 46.5625 129.015625 C 35.972656 111.765625 18.734375 102.480469 8.058594 108.277344 C -2.617188 114.074219 -2.6875 132.757812 7.902344 150.003906 C 18.492188 167.253906 35.730469 176.539062 46.40625 170.742188 C 57.082031 164.945312 57.152344 146.265625 46.5625 129.015625 Z M 46.5625 129.015625 "/>
<path style=" stroke:none;fill-rule:nonzero;fill:rgb(90.196078%,0%,47.843137%);fill-opacity:1;" d="M 192.097656 50.011719 C 181.507812 32.761719 164.273438 23.472656 153.605469 29.265625 C 142.9375 35.058594 142.875 53.738281 153.464844 70.984375 C 164.054688 88.234375 181.285156 97.523438 191.953125 91.730469 C 202.621094 85.9375 202.6875 67.257812 192.097656 50.011719 Z M 192.097656 50.011719 "/>
</g>
</svg>
