<?xml version="1.0" encoding="UTF-8"?>
<svg xmlns="http://www.w3.org/2000/svg" xmlns:xlink="http://www.w3.org/1999/xlink" width="200px" height="200px" viewBox="0 0 200 200" version="1.1">
<g id="surface1">
<path style="fill-rule:nonzero;fill:rgb(10.588235%,10.588235%,10.588235%);fill-opacity:1;stroke-width:4;stroke-linecap:butt;stroke-linejoin:miter;stroke:rgb(100%,100%,100%);stroke-opacity:1;stroke-miterlimit:4;" d="M 120.00082 61 C 120.00082 93.584961 93.584961 120.00082 61 120.00082 C 28.415039 120.00082 1.99918 93.584961 1.99918 61 C 1.99918 28.415039 28.415039 1.99918 61 1.99918 C 93.584961 1.99918 120.00082 28.415039 120.00082 61 Z M 120.00082 61 " transform="matrix(1.639344,0,0,1.639344,0,0)"/>
<path style=" stroke:none;fill-rule:evenodd;fill:rgb(100%,100%,100%);fill-opacity:1;" d="M 128.359375 71.640625 C 129.671875 72.949219 131.804688 72.785156 132.785156 71.3125 C 133.769531 70.164062 133.605469 68.359375 132.460938 67.378906 C 121.640625 57.050781 111.96875 51.804688 95.902344 52.621094 C 79.015625 53.441406 64.097656 62.296875 65.082031 80.984375 C 65.902344 97.539062 81.96875 103.605469 96.066406 109.015625 C 106.886719 113.113281 116.394531 116.722656 116.886719 124.425781 C 117.378906 132.949219 108.6875 138.03125 101.148438 138.523438 C 86.886719 139.34375 78.523438 134.261719 69.179688 125.246094 C 68.03125 124.097656 66.230469 124.097656 65.082031 125.082031 C 63.769531 126.230469 63.769531 128.195312 64.917969 129.507812 C 75.410156 140 86.230469 145.246094 101.96875 144.425781 C 117.703125 143.277344 137.050781 134.425781 136.066406 115.738281 C 135.246094 99.507812 119.835938 93.441406 105.902344 88.195312 C 94.425781 83.769531 83.769531 79.671875 83.277344 70.328125 C 82.949219 63.605469 90.984375 58.6875 96.722656 58.359375 C 110.65625 57.703125 119.34375 62.621094 128.359375 71.640625 Z M 130.164062 116.066406 C 130.164062 123.277344 126.230469 129.507812 120.328125 133.113281 L 120 132.949219 C 122.132812 130 122.460938 126.230469 122.460938 122.621094 C 122.460938 111.96875 110.820312 107.867188 98.523438 103.441406 C 84.917969 98.523438 70.65625 93.441406 70.65625 79.015625 C 70.65625 72.460938 73.605469 65.410156 79.34375 62.132812 L 79.507812 62.460938 C 78.03125 65.574219 77.378906 69.015625 77.378906 72.460938 C 77.378906 84.261719 90.328125 89.015625 103.441406 93.933594 C 116.886719 98.851562 130.164062 103.769531 130.164062 116.066406 Z M 130.164062 116.066406 "/>
<path style="fill:none;stroke-width:2;stroke-linecap:round;stroke-linejoin:miter;stroke:rgb(100%,100%,100%);stroke-opacity:1;stroke-miterlimit:4;" d="M 60.499609 108.000977 C 86.701016 108.000977 108.000977 86.701016 108.000977 60.499609 C 108.000977 34.300586 86.701016 13.000625 60.499609 13.000625 C 34.300586 13.000625 13.000625 34.300586 13.000625 60.499609 C 13.000625 86.701016 34.300586 108.000977 60.499609 108.000977 Z M 60.499609 108.000977 " transform="matrix(1.639344,0,0,1.639344,0,0)"/>
</g>
</svg>
