<?xml version="1.0" encoding="UTF-8"?>
<svg xmlns="http://www.w3.org/2000/svg" xmlns:xlink="http://www.w3.org/1999/xlink" width="200px" height="200px" viewBox="0 0 200 200" version="1.1">
<defs>
<linearGradient id="linear0" gradientUnits="userSpaceOnUse" x1="16" y1="0" x2="16" y2="32" gradientTransform="matrix(6.25,0,0,6.25,0,0)">
<stop offset="0" style="stop-color:rgb(43.137255%,49.803922%,93.72549%);stop-opacity:1;"/>
<stop offset="1" style="stop-color:rgb(36.078431%,40.392157%,69.019608%);stop-opacity:1;"/>
</linearGradient>
</defs>
<g id="surface1">
<path style=" stroke:none;fill-rule:nonzero;fill:url(#linear0);" d="M 100 200 C 155.230469 200 200 155.230469 200 100 C 200 44.769531 155.230469 0 100 0 C 44.769531 0 0 44.769531 0 100 C 0 155.230469 44.769531 200 100 200 Z M 100 200 "/>
<path style="fill:none;stroke-width:0.5;stroke-linecap:butt;stroke-linejoin:miter;stroke:rgb(100%,100%,100%);stroke-opacity:1;stroke-miterlimit:4;" d="M 16 31.75 C 24.698125 31.75 31.75 24.698125 31.75 16 C 31.75 7.301875 24.698125 0.25 16 0.25 C 7.301875 0.25 0.25 7.301875 0.25 16 C 0.25 24.698125 7.301875 31.75 16 31.75 Z M 16 31.75 " transform="matrix(6.25,0,0,6.25,0,0)"/>
<path style=" stroke:none;fill-rule:nonzero;fill:rgb(100%,100%,100%);fill-opacity:1;" d="M 105.144531 105.992188 L 94.832031 105.992188 L 94.949219 106.3125 L 74.195312 159.0625 L 82.90625 162.5 L 99.996094 119.101562 L 117.0625 162.5 L 125.777344 159.0625 L 105.027344 106.3125 Z M 105.144531 105.992188 "/>
<path style=" stroke:none;fill-rule:nonzero;fill:rgb(100%,100%,100%);fill-opacity:1;" d="M 162.5 82.925781 L 159.0625 74.207031 L 106.3125 94.960938 L 105.394531 94.605469 L 105.039062 93.6875 L 125.789062 40.9375 L 117.082031 37.5 L 100.019531 80.898438 L 82.917969 37.5 L 74.199219 40.9375 L 94.957031 93.6875 L 94.601562 94.605469 L 93.679688 94.960938 L 40.929688 74.210938 L 37.5 82.917969 L 80.898438 100 L 37.5 117.074219 L 40.9375 125.792969 L 93.6875 105.039062 L 94.539062 105.367188 L 94.539062 95.070312 L 95.007812 95.070312 L 94.949219 94.949219 L 95.242188 95.074219 L 104.757812 95.074219 L 105.050781 94.949219 L 104.992188 95.074219 L 105.460938 95.074219 L 105.460938 105.367188 L 106.3125 105.039062 L 159.0625 125.789062 L 162.5 117.074219 L 119.101562 100.011719 L 162.5 82.917969 Z M 162.5 82.925781 "/>
</g>
</svg>
