<?xml version="1.0" encoding="UTF-8"?>
<svg xmlns="http://www.w3.org/2000/svg" xmlns:xlink="http://www.w3.org/1999/xlink" width="200px" height="200px" viewBox="0 0 200 200" version="1.1">
<defs>
<linearGradient id="linear0" gradientUnits="userSpaceOnUse" x1="1708.8252" y1="81.8898" x2="1708.8252" y2="1246.8899" gradientTransform="matrix(0.08,0,0,-0.08,0,199.831192)">
<stop offset="0" style="stop-color:rgb(21.568627%,40.392157%,78.823529%);stop-opacity:1;"/>
<stop offset="0.1882" style="stop-color:rgb(14.117647%,32.156863%,72.54902%);stop-opacity:1;"/>
<stop offset="1" style="stop-color:rgb(6.666667%,23.529412%,66.27451%);stop-opacity:1;"/>
</linearGradient>
<linearGradient id="linear1" gradientUnits="userSpaceOnUse" x1="1381.5226" y1="2423.8899" x2="1381.5226" y2="1471.8899" gradientTransform="matrix(0.08,0,0,-0.08,0,199.831192)">
<stop offset="0" style="stop-color:rgb(21.568627%,40.392157%,78.823529%);stop-opacity:1;"/>
<stop offset="0.0784314" style="stop-color:rgb(14.117647%,32.156863%,72.54902%);stop-opacity:1;"/>
<stop offset="1" style="stop-color:rgb(6.666667%,23.529412%,66.27451%);stop-opacity:1;"/>
</linearGradient>
<linearGradient id="linear2" gradientUnits="userSpaceOnUse" x1="129" y1="2038.0499" x2="846" y2="2038.0499" gradientTransform="matrix(0.08,0,0,-0.08,0,199.831192)">
<stop offset="0" style="stop-color:rgb(0%,78.431373%,38.823529%);stop-opacity:1;"/>
<stop offset="1" style="stop-color:rgb(23.137255%,57.647059%,99.607843%);stop-opacity:1;"/>
</linearGradient>
<linearGradient id="linear3" gradientUnits="userSpaceOnUse" x1="0" y1="855.8829" x2="763" y2="855.8829" gradientTransform="matrix(0.08,0,0,-0.08,0,199.831192)">
<stop offset="0" style="stop-color:rgb(0%,78.431373%,38.823529%);stop-opacity:1;"/>
<stop offset="1" style="stop-color:rgb(23.137255%,57.647059%,99.607843%);stop-opacity:1;"/>
</linearGradient>
<linearGradient id="linear4" gradientUnits="userSpaceOnUse" x1="724" y1="1457.5596" x2="2500" y2="1457.5596" gradientTransform="matrix(0.08,0,0,-0.08,0,199.831192)">
<stop offset="0" style="stop-color:rgb(0%,78.431373%,38.823529%);stop-opacity:1;"/>
<stop offset="1" style="stop-color:rgb(23.137255%,57.647059%,99.607843%);stop-opacity:1;"/>
</linearGradient>
<linearGradient id="linear5" gradientUnits="userSpaceOnUse" x1="1652" y1="340.3772" x2="2338" y2="340.3772" gradientTransform="matrix(0.08,0,0,-0.08,0,199.831192)">
<stop offset="0" style="stop-color:rgb(0%,78.431373%,38.823529%);stop-opacity:1;"/>
<stop offset="1" style="stop-color:rgb(23.137255%,57.647059%,99.607843%);stop-opacity:1;"/>
</linearGradient>
</defs>
<g id="surface1">
<path style=" stroke:none;fill-rule:evenodd;fill:url(#linear0);" d="M 86 158.800781 C 91.519531 179.039062 111.121094 194.558594 121.039062 193.921875 C 121.359375 193.921875 158.71875 186.960938 179.121094 152.800781 C 195.039062 126.238281 189.601562 100.640625 168 100.078125 C 160.238281 100.640625 75.519531 120.238281 86 158.800781 Z M 86 158.800781 "/>
<path style=" stroke:none;fill-rule:evenodd;fill:url(#linear1);" d="M 66 14.160156 C 63.921875 15.039062 61.839844 16 60 17.121094 C 58.640625 17.839844 57.359375 18.558594 56.078125 19.28125 L 56.398438 19.359375 C 52.480469 22.078125 49.121094 25.199219 46.398438 28.800781 C 19.199219 64.800781 110.480469 90.960938 159.199219 91.039062 C 181.679688 107.121094 187.921875 45.679688 166 28.558594 C 149.441406 14.480469 128 5.921875 104.480469 5.921875 C 90.800781 5.921875 77.761719 8.878906 66 14.078125 Z M 66 14.160156 "/>
<path style=" stroke:none;fill-rule:evenodd;fill:url(#linear2);" d="M 48.960938 17.601562 C 46.238281 19.199219 43.519531 20.960938 40.960938 22.878906 C 36.800781 25.921875 32.960938 29.28125 29.28125 32.878906 C 25.679688 36.480469 22.320312 40.398438 19.28125 44.558594 C 16.238281 48.71875 13.519531 53.039062 11.121094 57.679688 C 10.800781 58.238281 10.558594 58.800781 10.238281 59.359375 C 10.238281 59.359375 10.238281 59.441406 10.320312 59.441406 C 17.199219 61.519531 58.960938 48.238281 71.519531 29.359375 C 71.601562 29.199219 81.359375 14.238281 62.71875 13.921875 C 60.71875 14 54.71875 14.238281 48.878906 17.601562 Z M 48.960938 17.601562 "/>
<path style=" stroke:none;fill-rule:evenodd;fill:url(#linear3);" d="M 6.160156 68.960938 C 5.761719 69.921875 5.441406 70.960938 5.121094 71.921875 C 3.441406 76.878906 2.160156 82 1.359375 87.28125 C 0.480469 92.558594 0.078125 98 0.078125 103.519531 C 0.078125 109.039062 0.558594 114.480469 1.359375 119.761719 C 2.238281 125.039062 3.519531 130.160156 5.121094 135.121094 C 6.800781 140.078125 8.800781 144.878906 11.199219 149.441406 C 13.601562 154 16.320312 158.398438 19.359375 162.558594 C 22.398438 166.71875 25.761719 170.558594 29.359375 174.238281 C 32.960938 177.839844 36.878906 181.199219 41.039062 184.238281 C 44.078125 186.480469 47.28125 188.558594 50.558594 190.398438 C 56.878906 193.921875 59.039062 193.761719 60.078125 193.761719 C 61.28125 191.761719 62.238281 168.398438 61.28125 162.480469 C 60.398438 156.558594 58.480469 144.238281 46.800781 124.320312 C 44.878906 121.121094 35.601562 106.078125 28.878906 96.878906 C 21.761719 87.199219 13.441406 78.558594 6.238281 68.960938 Z M 6.160156 68.960938 "/>
<path style=" stroke:none;fill-rule:evenodd;fill:url(#linear4);" d="M 54.160156 79.441406 C 57.121094 102.160156 90.238281 116.640625 101.039062 121.441406 C 101.839844 121.761719 181.199219 152.960938 193.039062 140.320312 C 197.519531 128.960938 200 116.558594 200 103.601562 C 200 73.601562 186.800781 46.640625 165.839844 28.320312 C 159.601562 23.28125 148.960938 23.121094 145.519531 23.121094 C 116.320312 24 49.921875 46.800781 54.238281 79.519531 Z M 54.160156 79.441406 "/>
<path style=" stroke:none;fill-rule:evenodd;fill:url(#linear5);" d="M 186 151.199219 C 176.800781 152.078125 135.28125 168.71875 130.558594 184.878906 C 128.078125 193.28125 137.601562 196.238281 146.238281 192.238281 C 163.359375 183.28125 177.519531 169.519531 187.039062 152.71875 C 187.519531 151.921875 187.121094 151.199219 186.160156 151.199219 C 186.078125 151.199219 186 151.199219 185.921875 151.199219 Z M 186 151.199219 "/>
</g>
</svg>
