<?xml version="1.0" encoding="UTF-8"?>
<svg xmlns="http://www.w3.org/2000/svg" xmlns:xlink="http://www.w3.org/1999/xlink" width="200px" height="200px" viewBox="0 0 200 200" version="1.1">
<g id="surface1">
<path style=" stroke:none;fill-rule:nonzero;fill:rgb(100%,2.352941%,3.921569%);fill-opacity:1;" d="M 192.34375 60.25 C 182.96875 51.59375 170 38.375 159.4375 29 L 158.8125 28.5625 C 157.773438 27.726562 156.601562 27.074219 155.34375 26.625 C 129.875 21.875 11.34375 -0.28125 9.03125 0 C 8.382812 0.0898438 7.765625 0.324219 7.21875 0.6875 L 6.625 1.15625 C 5.894531 1.898438 5.339844 2.796875 5 3.78125 L 4.84375 4.1875 L 4.84375 6.75 C 18.1875 43.90625 70.875 165.625 81.25 194.1875 C 81.875 196.125 83.0625 199.8125 85.28125 200 L 85.78125 200 C 86.96875 200 92.03125 193.3125 92.03125 193.3125 C 92.03125 193.3125 182.53125 83.5625 191.6875 71.875 C 192.871094 70.433594 193.917969 68.886719 194.8125 67.25 C 195.277344 64.644531 194.339844 61.988281 192.34375 60.25 Z M 115.25 73.03125 L 153.875 41 L 176.53125 61.875 Z M 100.25 70.9375 L 33.75 16.4375 L 141.34375 36.28125 Z M 106.25 85.21875 L 174.3125 74.25 L 96.5 168 Z M 24.71875 21.875 L 94.6875 81.25 L 84.5625 168.0625 Z M 24.71875 21.875 "/>
</g>
</svg>
