<?xml version="1.0" encoding="UTF-8"?>
<svg xmlns="http://www.w3.org/2000/svg" xmlns:xlink="http://www.w3.org/1999/xlink" width="200px" height="200px" viewBox="0 0 200 200" version="1.1">
<defs>
<filter id="alpha" filterUnits="objectBoundingBox" x="0%" y="0%" width="100%" height="100%">
  <feColorMatrix type="matrix" in="SourceGraphic" values="0 0 0 0 1 0 0 0 0 1 0 0 0 0 1 0 0 0 1 0"/>
</filter>
<mask id="mask0">
  <g filter="url(#alpha)">
<rect x="0" y="0" width="200" height="200" style="fill:rgb(0%,0%,0%);fill-opacity:0.929412;stroke:none;"/>
  </g>
</mask>
<clipPath id="clip1">
  <rect x="0" y="0" width="200" height="200"/>
</clipPath>
<g id="surface5" clip-path="url(#clip1)">
<path style=" stroke:none;fill-rule:evenodd;fill:rgb(35.294118%,29.411765%,60.784314%);fill-opacity:1;" d="M 91.882812 -0.332031 C 97.046875 -0.332031 102.214844 -0.332031 107.378906 -0.332031 C 110.011719 0.628906 112.71875 1.628906 115.5 2.667969 C 138.746094 15.058594 162.117188 27.28125 185.609375 39.332031 C 192.46875 43.855469 197.140625 49.742188 199.632812 57 C 199.632812 85.445312 199.632812 113.886719 199.632812 142.332031 C 197.140625 149.589844 192.46875 155.480469 185.609375 160 C 162.117188 172.054688 138.746094 184.277344 115.5 196.667969 C 112.71875 197.707031 110.011719 198.707031 107.378906 199.667969 C 102.214844 199.667969 97.046875 199.667969 91.882812 199.667969 C 89.25 198.707031 86.542969 197.707031 83.765625 196.667969 C 60.515625 184.277344 37.144531 172.054688 13.652344 160 C 6.792969 155.480469 2.121094 149.589844 -0.367188 142.332031 C -0.367188 113.886719 -0.367188 85.445312 -0.367188 57 C 2.121094 49.742188 6.792969 43.855469 13.652344 39.332031 C 37.144531 27.28125 60.515625 15.058594 83.765625 2.667969 C 86.542969 1.628906 89.25 0.628906 91.882812 -0.332031 Z M 95.570312 15 C 100.289062 14.527344 104.71875 15.304688 108.855469 17.332031 C 131.613281 29.5 154.492188 41.5 177.492188 53.332031 C 182.089844 57.46875 183.8125 62.46875 182.65625 68.332031 C 183.242188 80.128906 177.339844 87.796875 164.945312 91.332031 C 121.648438 91.554688 78.351562 91.777344 35.054688 92 C 28.636719 92.636719 22.734375 94.523438 17.34375 97.667969 C 16.484375 85.226562 16.359375 72.785156 16.972656 60.332031 C 18.15625 56.75 20.492188 53.972656 23.984375 52 C 47.917969 39.640625 71.78125 27.304688 95.570312 15 Z M 181.179688 101.667969 C 182.164062 107.648438 182.65625 113.871094 182.65625 120.332031 C 182.535156 126.554688 182.410156 132.777344 182.289062 139 C 181.105469 142.585938 178.769531 145.363281 175.277344 147.332031 C 151.511719 159.734375 127.648438 171.957031 103.691406 184 C 98.976562 184.804688 94.550781 184.140625 90.40625 182 C 66.730469 169.695312 43.238281 157.140625 19.925781 144.332031 C 18.554688 142.742188 17.570312 140.964844 16.972656 139 C 16.300781 132.949219 16.546875 126.949219 17.710938 121 C 20.296875 115.113281 24.847656 111 31.367188 108.667969 C 75.613281 107.789062 119.894531 107.34375 164.207031 107.332031 C 170.519531 106.804688 176.175781 104.917969 181.179688 101.667969 Z M 181.179688 101.667969 "/>
</g>
<mask id="mask1">
  <g filter="url(#alpha)">
<rect x="0" y="0" width="200" height="200" style="fill:rgb(0%,0%,0%);fill-opacity:0.913725;stroke:none;"/>
  </g>
</mask>
<clipPath id="clip2">
  <rect x="0" y="0" width="200" height="200"/>
</clipPath>
<g id="surface8" clip-path="url(#clip2)">
<path style=" stroke:none;fill-rule:evenodd;fill:rgb(35.294118%,29.411765%,60.784314%);fill-opacity:1;" d="M 57.933594 45.667969 C 66.054688 45.554688 74.171875 45.667969 82.289062 46 C 88.941406 48.011719 93 52.121094 94.464844 58.332031 C 94.832031 66.332031 94.957031 74.328125 94.832031 82.332031 C 88.929688 82.332031 83.027344 82.332031 77.121094 82.332031 C 77.121094 75.222656 77.121094 68.113281 77.121094 61 C 72.449219 61 67.773438 61 63.101562 61 C 63.101562 68.113281 63.101562 75.222656 63.101562 82.332031 C 57.441406 82.332031 51.785156 82.332031 46.125 82.332031 C 46.003906 73.664062 46.125 64.996094 46.496094 56.332031 C 48.476562 51.101562 52.289062 47.542969 57.933594 45.667969 Z M 57.933594 45.667969 "/>
</g>
<mask id="mask2">
  <g filter="url(#alpha)">
<rect x="0" y="0" width="200" height="200" style="fill:rgb(0%,0%,0%);fill-opacity:0.921569;stroke:none;"/>
  </g>
</mask>
<clipPath id="clip3">
  <rect x="0" y="0" width="200" height="200"/>
</clipPath>
<g id="surface11" clip-path="url(#clip3)">
<path style=" stroke:none;fill-rule:evenodd;fill:rgb(35.294118%,29.411765%,60.784314%);fill-opacity:1;" d="M 121.402344 45.667969 C 129.523438 45.554688 137.640625 45.667969 145.757812 46 C 151.835938 47.714844 155.648438 51.382812 157.195312 57 C 157.566406 65.441406 157.6875 73.886719 157.566406 82.332031 C 151.90625 82.332031 146.25 82.332031 140.589844 82.332031 C 140.589844 75.222656 140.589844 68.113281 140.589844 61 C 135.671875 61 130.75 61 125.832031 61 C 125.832031 68.113281 125.832031 75.222656 125.832031 82.332031 C 120.171875 82.332031 114.515625 82.332031 108.855469 82.332031 C 108.734375 73.886719 108.855469 65.441406 109.226562 57 C 110.957031 51.101562 115.019531 47.324219 121.402344 45.667969 Z M 121.402344 45.667969 "/>
</g>
<mask id="mask3">
  <g filter="url(#alpha)">
<rect x="0" y="0" width="200" height="200" style="fill:rgb(0%,0%,0%);fill-opacity:0.913725;stroke:none;"/>
  </g>
</mask>
<clipPath id="clip4">
  <rect x="0" y="0" width="200" height="200"/>
</clipPath>
<g id="surface14" clip-path="url(#clip4)">
<path style=" stroke:none;fill-rule:evenodd;fill:rgb(35.294118%,29.411765%,60.784314%);fill-opacity:1;" d="M 46.125 117 C 51.785156 117 57.441406 117 63.101562 117 C 63.101562 124.113281 63.101562 131.222656 63.101562 138.332031 C 67.773438 138.332031 72.449219 138.332031 77.121094 138.332031 C 77.121094 131.222656 77.121094 124.113281 77.121094 117 C 83.027344 117 88.929688 117 94.832031 117 C 94.957031 125.003906 94.832031 133.003906 94.464844 141 C 90.691406 151.710938 82.570312 155.933594 70.109375 153.667969 C 58.824219 155.902344 50.953125 152.347656 46.496094 143 C 46.125 134.335938 46.003906 125.667969 46.125 117 Z M 46.125 117 "/>
</g>
<mask id="mask4">
  <g filter="url(#alpha)">
<rect x="0" y="0" width="200" height="200" style="fill:rgb(0%,0%,0%);fill-opacity:0.921569;stroke:none;"/>
  </g>
</mask>
<clipPath id="clip5">
  <rect x="0" y="0" width="200" height="200"/>
</clipPath>
<g id="surface17" clip-path="url(#clip5)">
<path style=" stroke:none;fill-rule:evenodd;fill:rgb(35.294118%,29.411765%,60.784314%);fill-opacity:1;" d="M 108.855469 117 C 114.515625 117 120.171875 117 125.832031 117 C 125.832031 124.113281 125.832031 131.222656 125.832031 138.332031 C 130.75 138.332031 135.671875 138.332031 140.589844 138.332031 C 140.589844 131.222656 140.589844 124.113281 140.589844 117 C 146.25 117 151.90625 117 157.566406 117 C 157.6875 125.449219 157.566406 133.890625 157.195312 142.332031 C 155.839844 147.351562 152.515625 150.792969 147.234375 152.667969 C 142.617188 153.402344 137.941406 153.734375 133.210938 153.667969 C 124.347656 155.332031 117.089844 153.109375 111.4375 147 C 110.5 145.523438 109.761719 143.964844 109.226562 142.332031 C 108.855469 133.890625 108.734375 125.449219 108.855469 117 Z M 108.855469 117 "/>
</g>
</defs>
<g id="surface1">
<use xlink:href="#surface5" mask="url(#mask0)"/>
<use xlink:href="#surface8" mask="url(#mask1)"/>
<use xlink:href="#surface11" mask="url(#mask2)"/>
<use xlink:href="#surface14" mask="url(#mask3)"/>
<use xlink:href="#surface17" mask="url(#mask4)"/>
</g>
</svg>
