<?xml version="1.0" encoding="utf-8"?>
<!-- Generator: Adobe Illustrator 26.4.1, SVG Export Plug-In . SVG Version: 6.00 Build 0)  -->
<svg version="1.1" id="Layer_1" xmlns="http://www.w3.org/2000/svg" xmlns:xlink="http://www.w3.org/1999/xlink" x="0px" y="0px"
	 viewBox="0 0 200 200" style="enable-background:new 0 0 200 200;" xml:space="preserve">
<style type="text/css">
	.st0{fill:#FFFFFF;}
</style>
<circle cx="100" cy="100" r="100"/>
<g>
	<path class="st0" d="M41.7,61.2c0-5.2,0-10.8,0-16c0-2.8,0.9-3.4,3.4-3.4c10.8,0,21.2,0,32,0c2.8,0,3.4,0.9,3.4,3.4
		c0,10.8,0,21.2,0,32c0,2.8-0.9,3.4-3.4,3.4c-10.8,0-21.2,0-32,0c-2.8,0-3.4-0.9-3.4-3.7C41.7,71.7,41.7,66.4,41.7,61.2z"/>
	<path class="st0" d="M158.3,61.2c0,5.2,0,10.5,0,15.7c0,2.8-0.9,3.7-3.7,3.7c-10.5,0-21.2,0-31.7,0c-2.8,0-3.7-0.9-3.7-3.7
		c0-10.5,0-21.2,0-31.7c0-2.8,0.6-3.7,3.7-3.7c10.5,0,21.2,0,31.7,0c2.8,0,3.7,0.9,3.7,3.7C158.3,50.7,158.3,56,158.3,61.2z"/>
	<g>
		<path class="st0" d="M41.7,138.8c0-5.2,0-10.5,0-15.7c0-2.8,0.6-3.7,3.7-3.7c10.5,0,21.2,0,31.7,0c2.8,0,3.7,0.9,3.7,3.7
			c0,10.5,0,21.2,0,31.7c0,2.8-0.9,3.7-3.7,3.7c-10.5,0-21.2,0-31.7,0c-2.8,0-3.7-0.9-3.7-3.7C41.7,149.6,41.7,144.3,41.7,138.8z"/>
		<path class="st0" d="M119.5,139.1c0-5.2,0-10.5,0-15.7c0-2.8,0.6-3.7,3.4-3.7c10.8,0,21.2,0,32,0c2.8,0,3.4,0.9,3.4,3.4
			c0,10.8,0,21.2,0,32c0,2.8-0.9,3.4-3.7,3.4c-10.8,0-21.2,0-32,0c-2.8,0-3.4-0.9-3.4-3.4C119.5,149.6,119.5,144.3,119.5,139.1z"/>
	</g>
	<path class="st0" d="M80.5,100c0-5.2,0-10.2,0-15.4c0-3.1,0.6-3.7,3.4-3.7c10.8,0,21.2,0,32,0c2.8,0,3.4,0.9,3.4,3.4
		c0,10.8,0,21.2,0,32c0,2.8-0.9,3.4-3.4,3.4c-10.8,0-21.2,0-32,0c-2.8,0-3.4-0.9-3.4-3.4C80.5,110.8,80.5,105.2,80.5,100z"/>
</g>
</svg>
