<?xml version="1.0" encoding="utf-8"?>
<!-- Generator: Adobe Illustrator 26.4.1, SVG Export Plug-In . SVG Version: 6.00 Build 0)  -->
<svg version="1.1" id="Layer_1" xmlns="http://www.w3.org/2000/svg" xmlns:xlink="http://www.w3.org/1999/xlink" x="0px" y="0px"
	 viewBox="0 0 200 200" style="enable-background:new 0 0 200 200;" xml:space="preserve">
<style type="text/css">
	.st0{fill-rule:evenodd;clip-rule:evenodd;fill:#FBD52E;}
	.st1{fill:#FFFFFF;}
	.st2{fill:#FFFFFF;stroke:#FFFFFF;stroke-width:3;stroke-miterlimit:10;}
</style>
<circle cx="100" cy="100" r="90"/>
<path class="st0" d="M263.4-7.6"/>
<g>
	<path class="st1" d="M125.3,81.7c0-1.7,0-3.5,0-5.2c0-0.9,0.3-1.1,1.1-1.1c3.5,0,6.9,0,10.4,0c0.9,0,1.1,0.3,1.1,1.1
		c0,3.5,0,6.9,0,10.4c0,0.9-0.3,1.1-1.1,1.1c-3.5,0-6.9,0-10.4,0c-0.9,0-1.1-0.3-1.1-1.2C125.3,85.1,125.3,83.4,125.3,81.7z"/>
	<path class="st1" d="M163.2,81.7c0,1.7,0,3.4,0,5.1c0,0.9-0.3,1.2-1.2,1.2c-3.4,0-6.9,0-10.3,0c-0.9,0-1.2-0.3-1.2-1.2
		c0-3.4,0-6.9,0-10.3c0-0.9,0.2-1.2,1.2-1.2c3.4,0,6.9,0,10.3,0c0.9,0,1.2,0.3,1.2,1.2C163.2,78.3,163.2,80,163.2,81.7z"/>
	<g>
		<path class="st1" d="M74.7,94.3c0,5.9,0,11.7,0,17.6c0,1.2-0.2,1.4-1.4,1.4c-11.7,0-23.4,0-35.1,0c-1.2,0-1.4-0.2-1.4-1.4
			c0-11.7,0-23.4,0-35.1c0-1.2,0.2-1.4,1.4-1.4c11.7,0,23.4,0,35,0c1.3,0,1.5,0.2,1.5,1.4C74.7,82.6,74.7,88.5,74.7,94.3z
			 M62.1,94.4c0-1.8,0-3.5,0-5.3c0-0.8-0.2-1.1-1.1-1.1c-3.5,0-7,0-10.4,0c-0.9,0-1.1,0.3-1.1,1.2c0,3.4,0,6.9,0,10.3
			c0,0.9,0.3,1.2,1.2,1.2c3.4,0,6.9,0,10.3,0c1,0,1.2-0.2,1.2-1.2C62.1,97.7,62.1,96.1,62.1,94.4z"/>
		<path class="st1" d="M93.7,88c0.7,0,1.2,0,1.7,0c3.2,0,6.4,0,9.7,0c1,0,1.2,0.2,1.2,1.2c0,3.4,0,6.8,0,10.2c0,1-0.2,1.2-1.3,1.2
			c-3.5,0-6.9,0-10.4,0c-0.3,0-0.6,0-1,0c0,0.4,0,0.7,0,1c0,3.4,0,6.9,0,10.3c0,1.2-0.2,1.4-1.4,1.4c-3.3,0-6.7,0-10,0
			c-1.1,0-1.3-0.2-1.3-1.3c0-11.8,0-23.5,0-35.3c0-1.1,0.2-1.3,1.3-1.3c3.3,0,6.7,0,10,0c1.1,0,1.3,0.2,1.3,1.3c0,3.4,0,6.9,0,10.3
			C93.7,87.3,93.7,87.6,93.7,88z"/>
		<path class="st1" d="M125.3,106.9c0-1.7,0-3.4,0-5.1c0-0.9,0.2-1.2,1.2-1.2c3.4,0,6.9,0,10.3,0c0.9,0,1.2,0.3,1.2,1.2
			c0,3.4,0,6.9,0,10.3c0,0.9-0.3,1.2-1.2,1.2c-3.4,0-6.9,0-10.3,0c-0.9,0-1.2-0.3-1.2-1.2C125.3,110.4,125.3,108.7,125.3,106.9z"/>
		<path class="st1" d="M150.6,107c0-1.7,0-3.4,0-5.1c0-0.9,0.2-1.2,1.1-1.2c3.5,0,6.9,0,10.4,0c0.9,0,1.1,0.3,1.1,1.1
			c0,3.5,0,6.9,0,10.4c0,0.9-0.3,1.1-1.2,1.1c-3.5,0-6.9,0-10.4,0c-0.9,0-1.1-0.3-1.1-1.1C150.6,110.4,150.6,108.7,150.6,107z"/>
		<path class="st1" d="M118.9,106.9c0,1.8,0,3.5,0,5.3c0,0.9-0.2,1.1-1.1,1.1c-3.5,0-6.9,0-10.4,0c-0.9,0-1.1-0.3-1.1-1.1
			c0-3.5,0-6.9,0-10.4c0-0.9,0.3-1.1,1.1-1.1c3.5,0,6.9,0,10.4,0c0.9,0,1.1,0.3,1.1,1.2C119,103.5,118.9,105.2,118.9,106.9z"/>
	</g>
	<path class="st1" d="M112.6,88c-1.7,0-3.3,0-5,0c-1,0-1.2-0.2-1.2-1.2c0-3.4,0-6.8,0-10.2c0-1,0.2-1.2,1.2-1.2c3.4,0,6.8,0,10.2,0
		c1,0,1.2,0.2,1.2,1.2c0,3.4,0,6.8,0,10.2c0,1-0.2,1.2-1.3,1.2C116,88,114.3,88,112.6,88z"/>
	<path class="st1" d="M137.9,94.3c0-1.7,0-3.3,0-5c0-1,0.2-1.2,1.1-1.2c3.5,0,6.9,0,10.4,0c0.9,0,1.1,0.3,1.1,1.1
		c0,3.5,0,6.9,0,10.4c0,0.9-0.3,1.1-1.1,1.1c-3.5,0-6.9,0-10.4,0c-0.9,0-1.1-0.3-1.1-1.1C137.9,97.8,137.9,96,137.9,94.3z"/>
</g>
<line class="st2" x1="36.8" y1="132.3" x2="125.3" y2="132.3"/>
<g>
	<path class="st1" d="M129.3,131.4c0-3.1,2.5-5.5,5.5-5.5s5.5,2.4,5.5,5.5s-2.5,5.5-5.5,5.5S129.3,134.6,129.3,131.4z M138,131.4
		c0-1.9-1.4-3.2-3.1-3.2c-1.7,0-3.1,1.3-3.1,3.2s1.4,3.2,3.1,3.2C136.6,134.6,138,133.3,138,131.4z"/>
	<path class="st1" d="M147.6,136.7l-3.4-4.9v4.9h-2.4v-10.6h2.4v4.6l3.3-4.6h2.8l-3.6,5.2l3.7,5.5H147.6z"/>
	<path class="st1" d="M149.9,131.4c0-3.1,2.3-5.5,5.5-5.5c1.9,0,3.6,1,4.6,2.5l-2.1,1.2c-0.5-0.8-1.4-1.3-2.5-1.3
		c-1.9,0-3.1,1.3-3.1,3.2s1.2,3.2,3.1,3.2c1.1,0,2-0.5,2.5-1.3l2.1,1.2c-0.9,1.5-2.6,2.5-4.6,2.5C152.2,137,149.9,134.6,149.9,131.4
		z"/>
</g>
</svg>
