<?xml version="1.0" encoding="UTF-8"?>
<svg xmlns="http://www.w3.org/2000/svg" xmlns:xlink="http://www.w3.org/1999/xlink" width="200px" height="px" viewBox="0 0 200 179" version="1.1">
<g id="surface1">
<path style=" stroke:none;fill-rule:nonzero;fill:rgb(50.980392%,27.843137%,89.803922%);fill-opacity:1;" d="M 151.042969 55.375 C 147.394531 53.292969 142.707031 53.292969 138.542969 55.375 L 109.375 72.566406 L 89.582031 83.507812 L 60.9375 100.703125 C 57.292969 102.785156 52.605469 102.785156 48.4375 100.703125 L 26.042969 87.15625 C 22.394531 85.070312 19.792969 80.902344 19.792969 76.214844 L 19.792969 50.164062 C 19.792969 45.996094 21.875 41.828125 26.042969 39.226562 L 48.4375 26.199219 C 52.082031 24.117188 56.769531 24.117188 60.9375 26.199219 L 83.332031 39.746094 C 86.980469 41.828125 89.582031 45.996094 89.582031 50.6875 L 89.582031 67.878906 L 109.375 56.417969 L 109.375 38.703125 C 109.375 34.535156 107.292969 30.367188 103.125 27.761719 L 61.457031 3.277344 C 57.8125 1.191406 53.125 1.191406 48.957031 3.277344 L 6.25 28.285156 C 2.082031 30.367188 0 34.535156 0 38.703125 L 0 87.675781 C 0 91.84375 2.082031 96.011719 6.25 98.617188 L 48.4375 123.105469 C 52.082031 125.1875 56.769531 125.1875 60.9375 123.105469 L 89.582031 106.433594 L 109.375 94.96875 L 138.019531 78.296875 C 141.667969 76.214844 146.355469 76.214844 150.519531 78.296875 L 172.917969 91.324219 C 176.5625 93.40625 179.167969 97.574219 179.167969 102.265625 L 179.167969 128.3125 C 179.167969 132.480469 177.082031 136.648438 172.917969 139.253906 L 151.042969 152.277344 C 147.394531 154.363281 142.707031 154.363281 138.542969 152.277344 L 116.144531 139.253906 C 112.5 137.171875 109.894531 133.003906 109.894531 128.3125 L 109.894531 111.640625 L 90.105469 123.105469 L 90.105469 140.296875 C 90.105469 144.464844 92.1875 148.632812 96.355469 151.238281 L 138.542969 175.722656 C 142.1875 177.808594 146.875 177.808594 151.042969 175.722656 L 193.230469 151.238281 C 196.875 149.152344 199.480469 144.984375 199.480469 140.296875 L 199.480469 90.800781 C 199.480469 86.632812 197.394531 82.464844 193.230469 79.863281 Z M 151.042969 55.375 "/>
</g>
</svg>
