<?xml version="1.0" encoding="UTF-8"?>
<svg id="Layer_1" data-name="Layer 1" xmlns="http://www.w3.org/2000/svg" version="1.1" viewBox="0 0 500 500">
  <defs>
    <style>
      .cls-1 {
        fill: #0098ea;
      }

      .cls-1, .cls-2 {
        stroke-width: 0px;
      }

      .cls-2 {
        fill: #fff;
      }
    </style>
  </defs>
  <path class="cls-1" d="M249.9,499.5c137.8,0,249.6-111.7,249.6-249.6S387.7.3,249.9.3.3,112,.3,249.9s111.7,249.6,249.6,249.6Z"/>
  <path class="cls-2" d="M335.1,139.6h-170.4c-31.3,0-51.2,33.8-35.4,61.1l105.2,182.3c6.9,11.9,24.1,11.9,30.9,0l105.2-182.3c15.7-27.3-4.1-61.1-35.4-61.1h0ZM234.3,328.4l-22.9-44.3-55.3-98.9c-3.6-6.3.9-14.4,8.5-14.4h69.7v157.7h0ZM343.6,185.2l-55.3,98.9-22.9,44.3v-157.7h69.7c7.6,0,12.1,8.1,8.5,14.4Z"/>
</svg>