<?xml version="1.0" encoding="utf-8"?>
<!-- Generator: Adobe Illustrator 26.4.1, SVG Export Plug-In . SVG Version: 6.00 Build 0)  -->
<svg version="1.1" id="Layer_1" xmlns="http://www.w3.org/2000/svg" xmlns:xlink="http://www.w3.org/1999/xlink" x="0px" y="0px"
	 viewBox="0 0 200 200" style="enable-background:new 0 0 200 200;" xml:space="preserve">
<style type="text/css">
	.st0{fill-rule:evenodd;clip-rule:evenodd;fill:#FBD52E;}
	.st1{fill:url(#SVGID_1_);}
	.st2{fill:url(#SVGID_00000051348752443517114920000006295893331611585195_);}
</style>
<path class="st0" d="M263.4-7.6"/>
<g>
	
		<linearGradient id="SVGID_1_" gradientUnits="userSpaceOnUse" x1="1.176529e-02" y1="-550.9929" x2="200.0049" y2="-550.9929" gradientTransform="matrix(1 0 0 -1 0 -441.9998)">
		<stop  offset="0" style="stop-color:#0082FA"/>
		<stop  offset="1" style="stop-color:#00F2FE"/>
	</linearGradient>
	<path class="st1" d="M24.3,34.7c1.3-1.6,2.5-3.2,3.9-4.5c0.1-0.1,0.2-0.1,0.2-0.1c0.1-0.1,0.3-0.2,0.4-0.3l0.1-0.1
		c1-0.8,1.9-1.7,3-2.5c3.9-3,8.1-5.3,12.5-6.9c13.8-5.2,29.5-2.1,41.6,9.4c17,15.9,15.5,41.7,2,58.8c-17.2,25.6-46.7,61-5.8,92.9
		c7.4,5.8,12.8,10.5,35.9,17.1c-15.1,2.7-29.2,2-44.9-2.1c-11.1-6.2-28.4-19.6-34.3-37.7c-8.8-27.2,15.9-68.2,27.9-84
		c16.4-21.9-10.2-45.4-29.6-19C27,69.4,9.1,108.2,15.3,137.2c3.6,16.3,8.4,28.3,27.7,44.6c-3.6-2.1-7.1-4.5-10.5-7.2
		C-12,133.2-6.9,69.1,24.3,34.7z"/>
	
		<linearGradient id="SVGID_00000163763387122941258390000002188644740796878216_" gradientUnits="userSpaceOnUse" x1="3.761898e-03" y1="-533.118" x2="199.9967" y2="-533.118" gradientTransform="matrix(1 0 0 -1 0 -441.9998)">
		<stop  offset="0" style="stop-color:#0082FA"/>
		<stop  offset="1" style="stop-color:#00F2FE"/>
	</linearGradient>
	<path style="fill:url(#SVGID_00000163763387122941258390000002188644740796878216_);" d="M175.7,165.6c-1.3,1.6-2.5,3.2-3.9,4.5
		c-0.1,0.1-0.2,0.1-0.2,0.1c-0.1,0.1-0.3,0.2-0.4,0.3l-0.1,0.1c-1,0.8-1.9,1.7-3,2.5c-3.9,3-8.1,5.3-12.5,6.9
		c-13.9,4.9-29.6,1.9-41.7-9.6c-17-15.9-15.5-41.7-2-58.8c17.2-25.6,46.7-61,5.8-92.9C110.3,12.9,105,8.2,81.8,1.6
		c15.1-2.7,29.2-2,44.9,2.1c11.1,6.2,28.4,19.6,34.3,37.7c8.9,27.3-15.7,68.3-27.7,84c-16.4,21.9,10.1,45.4,29.6,19.1
		C173.1,130.8,191,92,184.8,63c-3.6-16.3-8.4-28.3-27.7-44.6c3.6,2.1,7.1,4.5,10.5,7.2C212,67.1,206.9,131.3,175.7,165.6z"/>
</g>
</svg>
