<?xml version="1.0" encoding="utf-8"?>
<!-- Generator: Adobe Illustrator 26.4.1, SVG Export Plug-In . SVG Version: 6.00 Build 0)  -->
<svg version="1.1" id="Layer_1" xmlns="http://www.w3.org/2000/svg" xmlns:xlink="http://www.w3.org/1999/xlink" x="0px" y="0px"
	 viewBox="0 0 200 200" style="enable-background:new 0 0 200 200;" xml:space="preserve">
<style type="text/css">
	.st0{fill-rule:evenodd;clip-rule:evenodd;fill:#FBD52E;}
	.st1{fill:url(#SVGID_1_);}
	.st2{fill:url(#SVGID_00000044144678721401382050000002457725000998491779_);}
</style>
<path class="st0" d="M263.4-7.6"/>
<g>
	
		<linearGradient id="SVGID_1_" gradientUnits="userSpaceOnUse" x1="5.2974" y1="750.3737" x2="194.7108" y2="750.3737" gradientTransform="matrix(1 0 0 1 0 -641.8898)">
		<stop  offset="0" style="stop-color:#0082FA"/>
		<stop  offset="1" style="stop-color:#00F2FE"/>
	</linearGradient>
	<path class="st1" d="M28.3,38.2c1.2-1.5,2.4-3,3.7-4.3c0.1-0.1,0.2-0.1,0.2-0.1c0.1-0.1,0.3-0.2,0.4-0.3l0.1-0.1
		c0.9-0.8,1.8-1.6,2.8-2.4c3.7-2.8,7.7-5,11.8-6.5c13.1-4.9,27.9-2,39.4,8.9c16.1,15.1,14.7,39.5,1.9,55.7
		c-16.3,24.2-44.2,57.8-5.5,88c7,5.5,12.1,9.9,34,16.2c-14.3,2.6-27.7,1.9-42.5-2c-10.5-5.9-26.9-18.6-32.5-35.7
		C33.8,129.8,57.2,91,68.5,76C84,55.3,58.8,33,40.5,58c-9.6,13-26.6,49.8-20.7,77.2c3.4,15.4,8,26.8,26.2,42.2
		c-3.4-2-6.7-4.3-9.9-6.8C-6.1,131.4-1.2,70.7,28.3,38.2z"/>
	
		<linearGradient id="SVGID_00000106834594708084423550000010844648493878976150_" gradientUnits="userSpaceOnUse" x1="5.2939" y1="733.4178" x2="194.7072" y2="733.4178" gradientTransform="matrix(1 0 0 1 0 -641.8898)">
		<stop  offset="0" style="stop-color:#0082FA"/>
		<stop  offset="1" style="stop-color:#00F2FE"/>
	</linearGradient>
	<path style="fill:url(#SVGID_00000106834594708084423550000010844648493878976150_);" d="M171.7,162.1c-1.2,1.5-2.4,3-3.7,4.3
		c-0.1,0.1-0.2,0.1-0.2,0.1c-0.1,0.1-0.3,0.2-0.4,0.3l-0.1,0.1c-0.9,0.8-1.8,1.6-2.8,2.4c-3.7,2.8-7.7,5-11.8,6.5
		c-13.2,4.6-28,1.8-39.5-9.1c-16.1-15.1-14.7-39.5-1.9-55.7c16.3-24.2,44.2-57.8,5.5-88c-7-5.5-12.1-9.9-34-16.2
		c14.3-2.6,27.7-1.9,42.5,2c10.5,5.9,26.9,18.6,32.5,35.7c8.4,25.9-14.9,64.7-26.2,79.6c-15.5,20.7,9.6,43,28,18.1
		c9.6-13,26.6-49.8,20.7-77.2c-3.4-15.4-8-26.8-26.2-42.2c3.4,2,6.7,4.3,9.9,6.8C206.1,68.8,201.2,129.6,171.7,162.1z"/>
</g>
</svg>
