<?xml version="1.0" encoding="UTF-8"?>
<svg xmlns="http://www.w3.org/2000/svg" xmlns:xlink="http://www.w3.org/1999/xlink" width="200px" height="200px" viewBox="0 0 200 200" version="1.1">
<defs>
<linearGradient id="linear0" gradientUnits="userSpaceOnUse" x1="16" y1="0" x2="16" y2="32" gradientTransform="matrix(6.25,0,0,6.25,0,0)">
<stop offset="0" style="stop-color:rgb(19.607843%,52.54902%,100%);stop-opacity:1;"/>
<stop offset="1" style="stop-color:rgb(5.882353%,14.117647%,47.058824%);stop-opacity:1;"/>
</linearGradient>
</defs>
<g id="surface1">
<path style=" stroke:none;fill-rule:nonzero;fill:url(#linear0);" d="M 100 200 C 155.226562 200 200 155.226562 200 100 C 200 44.773438 155.226562 0 100 0 C 44.773438 0 0 44.773438 0 100 C 0 155.226562 44.773438 200 100 200 Z M 100 200 "/>
<path style=" stroke:none;fill-rule:nonzero;fill:rgb(100%,100%,100%);fill-opacity:1;" d="M 100.023438 63.816406 C 107.289062 63.816406 113.179688 57.925781 113.179688 50.65625 C 113.179688 43.390625 107.289062 37.5 100.023438 37.5 C 92.757812 37.5 86.863281 43.390625 86.863281 50.65625 C 86.863281 57.925781 92.757812 63.816406 100.023438 63.816406 Z M 100.023438 63.816406 "/>
<path style=" stroke:none;fill-rule:nonzero;fill:rgb(100%,100%,100%);fill-opacity:1;" d="M 50.65625 113.167969 C 57.925781 113.167969 63.816406 107.277344 63.816406 100.011719 C 63.816406 92.742188 57.925781 86.851562 50.65625 86.851562 C 43.390625 86.851562 37.5 92.742188 37.5 100.011719 C 37.5 107.277344 43.390625 113.167969 50.65625 113.167969 Z M 50.65625 113.167969 "/>
<path style=" stroke:none;fill-rule:nonzero;fill:rgb(100%,100%,100%);fill-opacity:1;" d="M 149.339844 113.167969 C 156.605469 113.167969 162.496094 107.277344 162.496094 100.011719 C 162.496094 92.742188 156.605469 86.851562 149.339844 86.851562 C 142.074219 86.851562 136.183594 92.742188 136.183594 100.011719 C 136.183594 107.277344 142.074219 113.167969 149.339844 113.167969 Z M 149.339844 113.167969 "/>
<path style=" stroke:none;fill-rule:nonzero;fill:rgb(100%,100%,100%);fill-opacity:1;" d="M 99.976562 136.183594 C 92.710938 136.183594 86.820312 142.074219 86.820312 149.34375 C 86.820312 156.609375 92.710938 162.5 99.976562 162.5 C 107.242188 162.5 113.136719 156.609375 113.136719 149.34375 C 113.136719 142.074219 107.242188 136.183594 99.976562 136.183594 Z M 99.976562 136.183594 "/>
<path style=" stroke:none;fill-rule:nonzero;fill:rgb(100%,100%,100%);fill-opacity:1;" d="M 65.449219 70.414062 C 69.992188 70.414062 73.671875 66.734375 73.671875 62.191406 C 73.671875 57.648438 69.992188 53.96875 65.449219 53.96875 C 60.910156 53.96875 57.226562 57.648438 57.226562 62.191406 C 57.226562 66.734375 60.910156 70.414062 65.449219 70.414062 Z M 65.449219 70.414062 "/>
<path style=" stroke:none;fill-rule:nonzero;fill:rgb(100%,100%,100%);fill-opacity:1;" d="M 134.550781 129.585938 C 130.007812 129.585938 126.328125 133.265625 126.328125 137.808594 C 126.328125 142.351562 130.007812 146.03125 134.550781 146.03125 C 139.09375 146.03125 142.773438 142.351562 142.773438 137.808594 C 142.773438 133.265625 139.09375 129.585938 134.550781 129.585938 Z M 134.550781 129.585938 "/>
<path style=" stroke:none;fill-rule:nonzero;fill:rgb(100%,100%,100%);fill-opacity:1;" d="M 134.542969 70.414062 C 139.082031 70.414062 142.765625 66.734375 142.765625 62.191406 C 142.765625 57.648438 139.082031 53.96875 134.542969 53.96875 C 130 53.96875 126.316406 57.648438 126.316406 62.191406 C 126.316406 66.734375 130 70.414062 134.542969 70.414062 Z M 134.542969 70.414062 "/>
<path style=" stroke:none;fill-rule:nonzero;fill:rgb(100%,100%,100%);fill-opacity:1;" d="M 65.457031 129.585938 C 60.917969 129.585938 57.234375 133.265625 57.234375 137.808594 C 57.234375 142.351562 60.917969 146.03125 65.457031 146.03125 C 70 146.03125 73.683594 142.351562 73.683594 137.808594 C 73.683594 133.265625 70 129.585938 65.457031 129.585938 Z M 65.457031 129.585938 "/>
<path style=" stroke:none;fill-rule:nonzero;fill:rgb(100%,100%,100%);fill-opacity:1;" d="M 86.820312 100.011719 C 86.820312 107.277344 92.710938 113.167969 99.976562 113.167969 C 107.242188 113.167969 113.136719 107.277344 113.136719 100.011719 C 113.136719 92.742188 107.242188 86.851562 99.976562 86.851562 C 92.710938 86.851562 86.820312 92.742188 86.820312 100.011719 Z M 86.820312 100.011719 "/>
<path style="fill:none;stroke-width:0.5;stroke-linecap:butt;stroke-linejoin:miter;stroke:rgb(100%,100%,100%);stroke-opacity:1;stroke-miterlimit:4;" d="M 27.136875 27.136875 C 25.674375 28.599375 23.938125 29.76 22.0275 30.55125 C 20.11625 31.3425 18.068125 31.75 16 31.75 C 13.931875 31.75 11.88375 31.3425 9.9725 30.55125 C 8.061875 29.76 6.325625 28.599375 4.863125 27.136875 C 3.400625 25.674375 2.240625 23.938125 1.44875 22.0275 C 0.6575 20.11625 0.25 18.068125 0.25 16 C 0.25 13.931875 0.6575 11.88375 1.44875 9.9725 C 2.240625 8.061875 3.400625 6.325625 4.863125 4.863125 C 7.816875 1.909375 11.823125 0.25 16 0.25 C 20.1775 0.25 24.183125 1.909375 27.136875 4.863125 C 30.090625 7.816875 31.75 11.823125 31.75 16 C 31.75 20.1775 30.090625 24.183125 27.136875 27.136875 Z M 27.136875 27.136875 " transform="matrix(6.25,0,0,6.25,0,0)"/>
</g>
</svg>
