<?xml version="1.0" encoding="utf-8"?>
<!-- Generator: Adobe Illustrator 26.4.1, SVG Export Plug-In . SVG Version: 6.00 Build 0)  -->
<svg version="1.1" id="Layer_1" xmlns="http://www.w3.org/2000/svg" xmlns:xlink="http://www.w3.org/1999/xlink" x="0px" y="0px"
	 viewBox="0 0 200 200" style="enable-background:new 0 0 200 200;" xml:space="preserve">
<style type="text/css">
	.st0{fill:url(#SVGID_1_);}
	.st1{fill:#FFFFFF;}
	.st2{fill:none;stroke:#FFFFFF;stroke-width:3.125;stroke-miterlimit:25;}
	.st3{fill-rule:evenodd;clip-rule:evenodd;fill:#FBD52E;}
</style>
<g id="surface1">
	
		<linearGradient id="SVGID_1_" gradientUnits="userSpaceOnUse" x1="16" y1="199.181" x2="16" y2="168.8452" gradientTransform="matrix(6.25 0 0 -6.25 0 1250)">
		<stop  offset="0" style="stop-color:#3286FF"/>
		<stop  offset="1" style="stop-color:#0F2478"/>
	</linearGradient>
	<path class="st0" d="M100,194.7c52.4,0,94.8-42.4,94.8-94.8S152.4,5.1,100,5.1S5.2,47.6,5.2,99.9S47.6,194.7,100,194.7z"/>
	<path class="st1" d="M100,65.6c6.9,0,12.5-5.6,12.5-12.5c0-6.9-5.6-12.5-12.5-12.5c-6.9,0-12.5,5.6-12.5,12.5
		C87.5,60,93.1,65.6,100,65.6z"/>
	<path class="st1" d="M53.2,112.4c6.9,0,12.5-5.6,12.5-12.5c0-6.9-5.6-12.5-12.5-12.5c-6.9,0-12.5,5.6-12.5,12.5
		C40.8,106.8,46.3,112.4,53.2,112.4z"/>
	<path class="st1" d="M146.8,112.4c6.9,0,12.5-5.6,12.5-12.5c0-6.9-5.6-12.5-12.5-12.5s-12.5,5.6-12.5,12.5
		C134.3,106.8,139.9,112.4,146.8,112.4z"/>
	<path class="st1" d="M100,134.2c-6.9,0-12.5,5.6-12.5,12.5c0,6.9,5.6,12.5,12.5,12.5c6.9,0,12.5-5.6,12.5-12.5
		C112.5,139.8,106.9,134.2,100,134.2z"/>
	<path class="st1" d="M67.2,71.9c4.3,0,7.8-3.5,7.8-7.8c0-4.3-3.5-7.8-7.8-7.8c-4.3,0-7.8,3.5-7.8,7.8
		C59.5,68.4,62.9,71.9,67.2,71.9z"/>
	<path class="st1" d="M132.8,128c-4.3,0-7.8,3.5-7.8,7.8c0,4.3,3.5,7.8,7.8,7.8s7.8-3.5,7.8-7.8C140.5,131.5,137.1,128,132.8,128z"
		/>
	<path class="st1" d="M132.7,71.9c4.3,0,7.8-3.5,7.8-7.8c0-4.3-3.5-7.8-7.8-7.8c-4.3,0-7.8,3.5-7.8,7.8
		C124.9,68.4,128.4,71.9,132.7,71.9z"/>
	<path class="st1" d="M67.3,128c-4.3,0-7.8,3.5-7.8,7.8c0,4.3,3.5,7.8,7.8,7.8c4.3,0,7.8-3.5,7.8-7.8C75.1,131.5,71.6,128,67.3,128z
		"/>
	<path class="st1" d="M87.5,99.9c0,6.9,5.6,12.5,12.5,12.5c6.9,0,12.5-5.6,12.5-12.5c0-6.9-5.6-12.5-12.5-12.5
		C93.1,87.5,87.5,93,87.5,99.9z"/>
	<path class="st2" d="M166,165.9c-8.7,8.7-19,15.5-30.3,20.2c-11.3,4.7-23.5,7.1-35.7,7.1s-24.4-2.4-35.7-7.1
		C53,181.4,42.7,174.6,34,165.9s-15.5-19-20.2-30.3c-4.7-11.3-7.1-23.5-7.1-35.7s2.4-24.4,7.1-35.7C18.5,52.9,25.3,42.6,34,33.9
		C51.5,16.4,75.3,6.6,100,6.6c24.8,0,48.5,9.8,66,27.3s27.3,41.2,27.3,66C193.3,124.7,183.5,148.4,166,165.9z"/>
</g>
<path class="st3" d="M263.4-7.6"/>
</svg>
