<?xml version="1.0" encoding="UTF-8"?>
<svg id="Layer_1" data-name="Layer 1" xmlns="http://www.w3.org/2000/svg" version="1.1" viewBox="0 0 200 200">
  <defs>
    <style>
      .cls-1 {
        fill: #191919;
      }

      .cls-1, .cls-2 {
        stroke-width: 0px;
      }

      .cls-2 {
        fill: #fff;
      }
    </style>
  </defs>
  <circle class="cls-2" cx="100.2" cy="99.9" r="99.9"/>
  <path class="cls-2" d="M104.3,68.4c1,10.5,1.5,15.7,4.3,19.6,1.2,1.6,2.6,3.1,4.3,4.2,3.9,2.7,9.1,3.1,19.6,4l4.4.4v7.6l-4.4.4c-10.5.9-15.8,1.3-19.6,4-1.7,1.2-3.1,2.6-4.3,4.2-2.8,3.8-3.3,9.1-4.3,19.6h-7.5c-1-10.5-1.5-15.7-4.3-19.6-1.2-1.6-2.6-3.1-4.3-4.2-3.9-2.7-9.1-3.1-19.6-4l-4.4-.4v-7.6l4.4-.4c10.5-.9,15.8-1.3,19.6-4,1.7-1.2,3.1-2.6,4.3-4.2,2.8-3.8,3.3-9.1,4.3-19.6,0,0,7.5,0,7.5,0Z"/>
  <g>
    <path class="cls-1" d="M100.2,129c-7.7,0-15.4,0-23.2,0-1.1,0-1.5.2-1.5,1.4,0,8.8,0,17.6,0,26.5,0,1-.2,1.2-1.2,1.2-9.3,0-18.7,0-28,0-.9,0-1.2-.3-1.2-1.2,0-9.3,0-18.7,0-28,0-1,.3-1.2,1.2-1.2,7.3,0,14.7,0,22,0,1,0,1.4-.2,1.4-1.3,0-8.8,0-17.6,0-26.3,0-1.1.2-1.4,1.4-1.4,8.4,0,16.9,0,25.3,0,1,0,1.3-.2,1.2-1.2,0-9.2,0-18.4,0-27.5,0-1.1.3-1.3,1.4-1.3,8.3,0,16.5,0,24.8,0,.9,0,1.2-.3,1.1-1.2,0-7.9,0-15.8,0-23.8,0-1,.3-1.2,1.2-1.2,9.3,0,18.5,0,27.8,0,1,0,1.3.2,1.3,1.2,0,9.3,0,18.6,0,27.9,0,1-.2,1.2-1.2,1.2-7.7,0-15.4,0-23.1,0-1,0-1.2.2-1.2,1.2,0,7.8,0,15.7,0,23.5.1,9.6,0,19.3,0,28.9,0,1,.3,1.2,1.2,1.2,7.6,0,15.3,0,22.9,0,1,0,1.2.2,1.2,1.2,0,9.3,0,18.6,0,27.9,0,1.1-.3,1.3-1.3,1.3-9.3,0-18.5,0-27.8,0-1,0-1.2-.2-1.2-1.2,0-8.9,0-17.7,0-26.6,0-1.1-.3-1.3-1.4-1.3-7.8,0-15.6,0-23.4,0Z"/>
    <path class="cls-1" d="M60.6,42.7c4.7,0,9.3,0,14,0,.8,0,1.1.2,1.1,1,0,9.4,0,18.9,0,28.3,0,.7-.2,1-1,1-9.5,0-19,0-28.5,0-.7,0-.9-.2-.9-.9,0-9.5,0-19.1,0-28.6,0-.8.3-.9,1-.9,4.8,0,9.6,0,14.3,0Z"/>
  </g>
</svg>