<?xml version="1.0" encoding="utf-8"?>
<!-- Generator: Adobe Illustrator 26.4.1, SVG Export Plug-In . SVG Version: 6.00 Build 0)  -->
<svg version="1.1" id="Layer_1" xmlns="http://www.w3.org/2000/svg" xmlns:xlink="http://www.w3.org/1999/xlink" x="0px" y="0px"
	 viewBox="0 0 200 200" style="enable-background:new 0 0 200 200;" xml:space="preserve">
<style type="text/css">
	.st0{fill:#01943F;}
	.st1{fill-rule:evenodd;clip-rule:evenodd;fill:#FBD52E;}
	.st2{fill-rule:evenodd;clip-rule:evenodd;fill:#37AA67;}
	.st3{fill-rule:evenodd;clip-rule:evenodd;fill:#FDFEFD;}
	.st4{fill-rule:evenodd;clip-rule:evenodd;fill:#FCFDFC;}
	.st5{fill-rule:evenodd;clip-rule:evenodd;fill:#FCFEFD;}
	.st6{fill-rule:evenodd;clip-rule:evenodd;fill:#97D3B1;}
	.st7{fill-rule:evenodd;clip-rule:evenodd;fill:#77C597;}
</style>
<g id="surface1">
	<path class="st0" d="M194.8,100c0,52.4-42.5,94.8-94.8,94.8S5.2,152.4,5.2,100S47.6,5.2,100,5.2S194.8,47.6,194.8,100z"/>
</g>
<path class="st1" d="M263.4-7.6"/>
<g>
	<path class="st2" d="M51.3,46.3c-0.2,15,0,29.9,0.7,44.7c0,0.4-0.3,0.6-0.7,0.7C50.4,76.4,50.4,61.3,51.3,46.3z"/>
	<path class="st3" d="M51.3,46.3c7.8-0.1,15.6,0,23.3,0.3c1.2,0.5,2.2,1.3,3,2.3c0.6,6.2,0.4,12.5-0.3,18.7
		c-11,5-19.5,12.8-25.3,23.3C51.3,76.2,51.1,61.3,51.3,46.3z"/>
	<path class="st4" d="M122,46.3c7.8-0.1,15.6,0,23.3,0.3c1.6,0.5,2.8,1.5,3.7,3c0.4,13.3,0.4,26.7,0,40
		c-4.7,22.9-18.6,36.4-41.7,40.3c-7.3,0.5-14.7,0.4-22-0.3c-4.1-20.3,4.2-29.5,24.7-27.7c6.1-2.7,9.9-7.3,11.7-13.7
		C122,74.3,122.1,60.3,122,46.3z"/>
	<path class="st3" d="M78.6,111.6C78,125.3,77.8,139.1,78,153c-7.8,0-15.6,0-23.3,0c-1.1-0.8-2.1-1.6-3-2.7
		c-0.4-14.2-0.4-28.4,0-42.7c3.5-16.4,13-28.1,28.3-35c3-1.2,6.1-2.1,9.3-2.7c8.4-0.4,16.9-0.4,25.3,0c0.8,5.2,0.9,10.4,0.3,15.7
		c-1.2,5.4-4.4,8.8-9.7,10.3c-9.4-1.3-17.3,1.4-23.7,8.3C80.3,106.6,79.3,109.1,78.6,111.6z"/>
	<path class="st5" d="M148,109.6c0.7,14.3,0.9,28.8,0.7,43.3c-7.6,0-15.1,0-22.7,0c-1.7-0.5-2.9-1.6-3.7-3.3
		c-0.4-5.8-0.4-11.6,0-17.3C133.3,127.5,141.8,119.9,148,109.6z"/>
	<path class="st6" d="M126,153c7.6,0,15.1,0,22.7,0c0.2-14.6,0-29-0.7-43.3c0.2-0.5,0.5-1,1-1.3c0.3,15.1,0.4,30.2,0.3,45.3
		C141.4,153.9,133.6,153.6,126,153z"/>
	<path class="st7" d="M78.6,111.6c0,14,0,28,0,42c-8.1,0.2-16.1,0-24-0.7c7.8,0,15.6,0,23.3,0C77.8,139.1,78,125.3,78.6,111.6z"/>
</g>
</svg>
