<?xml version="1.0" encoding="UTF-8"?>
<svg id="Layer_1" data-name="Layer 1" xmlns="http://www.w3.org/2000/svg" xmlns:xlink="http://www.w3.org/1999/xlink" version="1.1" viewBox="0 0 500 500">
  <defs>
    <style>
      .cls-1 {
        clip-path: url(#clippath);
      }

      .cls-2 {
        fill: none;
      }

      .cls-2, .cls-3, .cls-4, .cls-5, .cls-6 {
        stroke-width: 0px;
      }

      .cls-3 {
        fill: url(#linear-gradient);
      }

      .cls-4 {
        fill: url(#radial-gradient);
      }

      .cls-5 {
        fill: url(#linear-gradient-2);
      }

      .cls-6 {
        fill: #030304;
      }
    </style>
    <clipPath id="clippath">
      <rect class="cls-2" x="106.2" y="69.6" width="287.5" height="360.8"/>
    </clipPath>
    <linearGradient id="linear-gradient" x1="371" y1="357.1" x2="139" y2="252.3" gradientTransform="translate(0 499.9) scale(1 -1)" gradientUnits="userSpaceOnUse">
      <stop offset="0" stop-color="#201c1b"/>
      <stop offset=".4" stop-color="#77390d"/>
      <stop offset=".7" stop-color="#ea8101"/>
      <stop offset="1" stop-color="#f4b852"/>
    </linearGradient>
    <linearGradient id="linear-gradient-2" x1="134.8" y1="140.8" x2="404.3" y2="222.4" gradientTransform="translate(0 499.9) scale(1 -1)" gradientUnits="userSpaceOnUse">
      <stop offset="0" stop-color="#1f1d1c"/>
      <stop offset=".4" stop-color="#77390d"/>
      <stop offset=".7" stop-color="#ea8101"/>
      <stop offset="1" stop-color="#f4fb52"/>
    </linearGradient>
    <radialGradient id="radial-gradient" cx="6.3" cy="601.9" fx="6.3" fy="601.9" r="5.6" gradientTransform="translate(206.8 3084.4) scale(4.9 -4.8)" gradientUnits="userSpaceOnUse">
      <stop offset="0" stop-color="#f4b852"/>
      <stop offset=".3" stop-color="#ea8101"/>
      <stop offset=".6" stop-color="#77390d"/>
      <stop offset="1" stop-color="#211c1d"/>
    </radialGradient>
  </defs>
  <path class="cls-6" d="M498.3,249.7c0,138.3-110.8,249.5-248.6,249.4C112.4,499.1,1.6,387.8,1.6,249.9,1.7,111.9,112.7.8,250.6.9c136.8.1,247.7,111.4,247.7,248.8Z"/>
  <g class="cls-1">
    <g>
      <path class="cls-3" d="M309,102.1l75.3,73.3c6.4,6.2,9.6,12.5,9.5,18.9,0,6.4-2.9,12.1-8.2,17.4-5.6,5.5-11.7,8.3-18.2,8.4-6.5,0-13-3-19.4-9.2l-77-75c-8.7-8.5-17.2-14.6-25.3-18.1-8.1-3.5-16.7-4.1-25.6-1.7-9,2.4-18.6,8.6-28.9,18.7-14.2,13.9-21,26.8-20.3,39,.7,12.1,7.7,24.7,21.1,37.8l77.6,75.6c6.5,6.3,9.7,12.6,9.6,18.9,0,6.3-2.9,12.1-8.4,17.4-5.5,5.3-11.5,8.1-18.1,8.3-6.6.2-13.1-2.8-19.5-9.1l-75.3-73.3c-12.2-11.9-21.1-23.2-26.5-33.9-5.4-10.6-7.5-22.7-6.1-36.1,1.3-11.5,5-22.6,11.3-33.4,6.2-10.8,15.2-21.8,26.8-33.1,13.8-13.5,27-23.8,39.6-30.9,12.5-7.2,24.7-11.2,36.4-12,11.7-.8,23.3,1.5,34.8,6.9,11.4,5.4,23.1,13.9,34.9,25.4h0Z"/>
      <path class="cls-5" d="M191,398l-75.2-73.3c-6.4-6.3-9.6-12.5-9.5-18.9,0-6.4,2.9-12.1,8.2-17.4,5.6-5.5,11.7-8.3,18.2-8.4,6.5,0,13,3,19.4,9.2l77,75c8.8,8.5,17.2,14.6,25.3,18.1,8.1,3.5,16.7,4.1,25.6,1.7,9-2.4,18.6-8.6,28.9-18.7,14.2-13.9,21-26.8,20.3-39-.7-12.1-7.7-24.7-21.1-37.8l-41.3-39.9c-6.5-6.3-9.7-12.6-9.6-18.9,0-6.3,2.9-12.1,8.4-17.4,5.5-5.3,11.5-8.1,18.1-8.3,6.6-.2,13.1,2.8,19.5,9.1l39,37.6c12.2,11.9,21.1,23.2,26.5,33.9,5.4,10.6,7.5,22.7,6.1,36.1-1.3,11.5-5,22.6-11.3,33.4-6.2,10.8-15.2,21.8-26.8,33.1-13.8,13.5-27,23.8-39.6,30.9-12.6,7.2-24.7,11.2-36.5,12-11.7.8-23.3-1.5-34.8-6.9-11.4-5.4-23.1-13.9-34.9-25.4h0Z"/>
      <path class="cls-4" d="M237.9,208.7c15.3,0,27.6-12.2,27.6-27.2s-12.4-27.2-27.6-27.2-27.6,12.2-27.6,27.2,12.4,27.2,27.6,27.2Z"/>
    </g>
  </g>
</svg>