<?xml version="1.0" encoding="UTF-8"?>
<svg id="Layer_1" data-name="Layer 1" xmlns="http://www.w3.org/2000/svg" version="1.1"
	viewBox="0 0 200 200">
	<defs>
		<style>
			.cls-1 {
			fill: #fefefe;
			}

			.cls-1, .cls-2 {
			stroke-width: 0px;
			}

			.cls-2 {
			fill: #212121;
			}
		</style>
	</defs>
	<circle class="cls-2" cx="100" cy="100" r="100" />
	<g>
		<path class="cls-1"
			d="M119.3,61.4c0,3.6,0,7.3,0,10.9,0,5.9-2.4,8.3-8.3,8.5-3.5.1-7,0-10.5,0-11.4,0-19.5,8.1-19.7,19.4,0,3.8,0,7.5,0,11.3-.1,5-2.8,7.7-7.8,7.8-7.7.1-15.4,0-23,0-5,0-7.5-2.3-7.7-7.4-.3-7.9-.4-15.9-.2-23.8.1-5,3-7.3,8.2-7.4,4.4,0,8.9.2,13.3-.4,10.9-1.4,17.1-8.6,17.3-19.6,0-3.6,0-7.3,0-10.9.1-4.9,2.8-7.8,7.7-7.9,7.8-.1,15.6,0,23.4,0,4.8.1,7.4,2.8,7.4,7.6,0,3.9,0,7.8,0,11.7Z" />
		<path class="cls-1"
			d="M138.7,80.8c4,0,8.1,0,12.1,0,4.3.1,7.1,2.8,7.2,7,.1,8.2.1,16.4,0,24.7,0,4-3,6.6-7.5,6.8-4.6.2-9.2,0-13.7.4-9.3.8-16.4,8-17.2,17.3-.3,4.3-.2,8.6-.3,12.9,0,5.3-2.7,8-7.9,8-7.6,0-15.1,0-22.7,0-5.3,0-7.9-2.4-8-7.8-.2-7.8-.1-15.6,0-23.4,0-4.5,2.8-7,7.4-7.2,4.4-.2,8.9,0,13.3-.3,10.8-.9,17.6-8.3,17.8-19,0-3.8,0-7.5,0-11.3.2-5.6,2.7-7.9,8.4-8,3.6,0,7.3,0,10.9,0Z" />
	</g>
</svg>