<?xml version="1.0" encoding="utf-8"?>
<!-- Generator: Adobe Illustrator 26.4.1, SVG Export Plug-In . SVG Version: 6.00 Build 0)  -->
<svg version="1.1" id="Layer_1" xmlns="http://www.w3.org/2000/svg" xmlns:xlink="http://www.w3.org/1999/xlink" x="0px" y="0px"
	 viewBox="0 0 200 200" style="enable-background:new 0 0 200 200;" xml:space="preserve">
<style type="text/css">
	.st0{fill:#421C5D;}
	.st1{fill-rule:evenodd;clip-rule:evenodd;fill:#FBD52E;}
	.st2{fill:#5FC0C1;}
	.st3{fill:#E1177C;}
</style>
<g id="Capa_2">
	<g id="Capa_1-2">
		<path class="st0" d="M190,100c0-49.7-40.3-90-90-90s-90,40.3-90,90s40.3,90,90,90S190,149.7,190,100"/>
	</g>
</g>
<path class="st1" d="M263.4-7.6"/>
<g id="surface1">
	<path class="st2" d="M126.7,39.9c15,7.7,25.3,26.2,24.4,44.8c-27.2,0-54.3,0-80.6,0c0-12,3.7-25.1,11.2-33.9
		C92,35.5,111.7,31.2,126.7,39.9z"/>
	<path class="st3" d="M124.8,159.1c1.9,0,2.8,1.1,2.8,2.2c0,1.1-0.9,2.2-2.8,2.2H81.7c-1.9,0-2.8-1.1-2.8-2.2c0-1.1,0.9-2.2,2.8-2.2
		H124.8z"/>
	<path class="st3" d="M72.4,164.5c1.9,0,2.8-1.1,2.8-3.3c0-2.2-0.9-3.3-2.8-3.3c-1.9,0-2.8,1.1-2.8,3.3
		C69.5,163.4,70.5,164.5,72.4,164.5z"/>
	<path class="st3" d="M98.6,151.4c1.9,0,2.8-1.1,2.8-3.3c0-2.2-0.9-3.3-2.8-3.3c-1.9,0-2.8,1.1-2.8,3.3
		C95.8,150.3,96.7,151.4,98.6,151.4z"/>
	<path class="st3" d="M149.2,144.9c1.9,0,2.8,1.1,2.8,3.3c0,2.2-0.9,3.3-2.8,3.3H107c-1.9,0-2.8-1.1-2.8-3.3c0-2.2,0.9-3.3,2.8-3.3
		H149.2z"/>
	<path class="st3" d="M42.4,138.3c1.9,0,2.8-1.1,2.8-3.3c0-2.2-0.9-3.3-2.8-3.3s-2.8,1.1-2.8,3.3C39.6,137.2,41.4,138.3,42.4,138.3z
		"/>
	<path class="st3" d="M84.5,131.7c1.9,0,2.8,1.1,2.8,3.3c0,2.2-0.9,3.3-2.8,3.3H49.9c-1.9,0-2.8-1.1-2.8-3.3c0-2.2,0.9-3.3,2.8-3.3
		H84.5z"/>
	<path class="st3" d="M163.3,131.7c1.9,0,2.8,1.1,2.8,3.3c0,2.2-0.9,3.3-2.8,3.3H93.9c-1.9,0-2.8-1.1-2.8-3.3c0-2.2,0.9-3.3,2.8-3.3
		H163.3z"/>
	<path class="st3" d="M150.1,118.6c1.9,0,2.8,1.1,2.8,3.3s-0.9,3.3-2.8,3.3H64.9c-0.9,1.1-2.8-1.1-2.8-3.3s0.9-3.3,2.8-3.3H150.1z"
		/>
	<path class="st3" d="M55.5,126.3c1.9,0,2.8-1.1,2.8-3.3c0-2.2-0.9-4.4-2.8-4.4c-1.9,0-2.8,2.2-2.8,3.3
		C52.7,123,53.6,126.3,55.5,126.3z"/>
	<path class="st3" d="M132.3,106.6c1.9,0,2.8,1.1,2.8,3.3c0,2.2-0.9,3.3-2.8,3.3H47.1c-0.9,0-2.8-1.1-2.8-3.3c0-2.2,0.9-3.3,2.8-3.3
		H132.3z"/>
	<path class="st3" d="M36.7,113.2c1.9,0,2.8-1.1,2.8-3.3c0-2.2-0.9-3.3-2.8-3.3c-1.9,0-2.8,1.1-2.8,3.3
		C33.9,112.1,34.9,113.2,36.7,113.2z"/>
	<path class="st3" d="M55.5,100c1.9,0,2.8-1.1,2.8-3.3c0-2.2-0.9-3.3-2.8-3.3c-1.9,0-2.8,2.2-2.8,3.3C52.7,98.9,53.6,100,55.5,100z"
		/>
	<path class="st3" d="M158.6,93.5c1.9,0,2.8,1.1,2.8,3.3c0,2.2-0.9,3.3-2.8,3.3H65.8c-1.9,0-2.8-1.1-2.8-3.3c0-2.2,0.9-3.3,2.8-3.3
		H158.6z"/>
</g>
</svg>
