<?xml version="1.0" encoding="utf-8"?>
<!-- Generator: Adobe Illustrator 26.4.1, SVG Export Plug-In . SVG Version: 6.00 Build 0)  -->
<svg version="1.1" id="Layer_1" xmlns="http://www.w3.org/2000/svg" xmlns:xlink="http://www.w3.org/1999/xlink" x="0px" y="0px"
	 viewBox="0 0 200 200" style="enable-background:new 0 0 200 200;" xml:space="preserve">
<style type="text/css">
	.st0{fill:#421C5D;}
	.st1{fill-rule:evenodd;clip-rule:evenodd;fill:#FBD52E;}
	.st2{fill:#5FC0C1;}
	.st3{fill:#E1177C;}
</style>
<g id="Capa_2">
	<g id="Capa_1-2">
		<path class="st0" d="M200,100C200,44.8,155.2,0,100,0S0,44.8,0,100s44.8,100,100,100S200,155.2,200,100"/>
	</g>
</g>
<path class="st1" d="M263.4-7.6"/>
<g id="surface1">
	<path class="st2" d="M129.5,33.5c16.6,8.5,28,29,27,49.6c-30.1,0-60.1,0-89.2,0c0-13.3,4.1-27.8,12.4-37.5
		C91.2,28.7,112.9,23.9,129.5,33.5z"/>
	<path class="st3" d="M127.4,165.4c2.1,0,3.1,1.2,3.1,2.4s-1,2.4-3.1,2.4H79.8c-2.1,0-3.1-1.2-3.1-2.4c0-1.2,1-2.4,3.1-2.4H127.4z"
		/>
	<path class="st3" d="M69.5,171.4c2.1,0,3.1-1.2,3.1-3.7c0-2.4-1-3.7-3.1-3.7c-2.1,0-3.1,1.2-3.1,3.7
		C66.3,170.1,67.4,171.4,69.5,171.4z"/>
	<path class="st3" d="M98.5,156.9c2.1,0,3.1-1.2,3.1-3.7s-1-3.7-3.1-3.7c-2.1,0-3.1,1.2-3.1,3.7C95.4,155.6,96.3,156.9,98.5,156.9z"
		/>
	<path class="st3" d="M154.4,149.7c2.1,0,3.1,1.2,3.1,3.7s-1,3.7-3.1,3.7h-46.7c-2.1,0-3.1-1.2-3.1-3.7s1-3.7,3.1-3.7H154.4z"/>
	<path class="st3" d="M36.3,142.4c2.1,0,3.1-1.2,3.1-3.7c0-2.4-1-3.7-3.1-3.7s-3.1,1.2-3.1,3.7C33.2,141.2,35.2,142.4,36.3,142.4z"
		/>
	<path class="st3" d="M82.9,135.1c2.1,0,3.1,1.2,3.1,3.7c0,2.4-1,3.7-3.1,3.7H44.6c-2.1,0-3.1-1.2-3.1-3.7c0-2.4,1-3.7,3.1-3.7H82.9
		z"/>
	<path class="st3" d="M170,135.1c2.1,0,3.1,1.2,3.1,3.7c0,2.4-1,3.7-3.1,3.7H93.3c-2.1,0-3.1-1.2-3.1-3.7c0-2.4,1-3.7,3.1-3.7H170z"
		/>
	<path class="st3" d="M155.4,120.6c2.1,0,3.1,1.2,3.1,3.7c0,2.4-1,3.7-3.1,3.7H61.2c-1,1.2-3.1-1.2-3.1-3.7c0-2.4,1-3.7,3.1-3.7
		H155.4z"/>
	<path class="st3" d="M50.8,129.1c2.1,0,3.1-1.2,3.1-3.7c0-2.4-1-4.9-3.1-4.9c-2.1,0-3.1,2.4-3.1,3.7
		C47.7,125.4,48.7,129.1,50.8,129.1z"/>
	<path class="st3" d="M135.7,107.3c2.1,0,3.1,1.2,3.1,3.7s-1,3.7-3.1,3.7H41.5c-1,0-3.1-1.2-3.1-3.7c0-2.4,1-3.7,3.1-3.7H135.7z"/>
	<path class="st3" d="M30,114.6c2.1,0,3.1-1.2,3.1-3.7c0-2.4-1-3.7-3.1-3.7c-2.1,0-3.1,1.2-3.1,3.7C26.9,113.4,28,114.6,30,114.6z"
		/>
	<path class="st3" d="M50.8,100c2.1,0,3.1-1.2,3.1-3.7c0-2.4-1-3.7-3.1-3.7c-2.1,0-3.1,2.4-3.1,3.7C47.7,98.8,48.7,100,50.8,100z"/>
	<path class="st3" d="M164.8,92.8c2.1,0,3.1,1.2,3.1,3.7s-1,3.7-3.1,3.7H62.2c-2.1,0-3.1-1.2-3.1-3.7c0-2.4,1-3.7,3.1-3.7H164.8z"/>
</g>
</svg>
