<?xml version="1.0" encoding="utf-8"?>
<!-- Generator: Adobe Illustrator 26.4.1, SVG Export Plug-In . SVG Version: 6.00 Build 0)  -->
<svg version="1.1" id="Layer_1" xmlns="http://www.w3.org/2000/svg" xmlns:xlink="http://www.w3.org/1999/xlink" x="0px" y="0px"
	 viewBox="0 0 200 200" style="enable-background:new 0 0 200 200;" xml:space="preserve">
<style type="text/css">
	.st0{fill:#8247E5;}
	.st1{fill-rule:evenodd;clip-rule:evenodd;fill:#FFFFFF;}
	.st2{fill-rule:evenodd;clip-rule:evenodd;fill:#FBD52E;}
</style>
<g id="surface1_00000103955597701102914250000005251003009576502202_">
	<path class="st0" d="M200,100c0,55.3-44.7,100-100,100S0,155.3,0,100S44.7,0,100,0S200,44.7,200,100z"/>
	<path class="st1" d="M69.1,43.1c-0.3,0.1-0.8,0.3-1,0.4c-0.2,0.1-18.4,10.7-28.9,16.8c-1.2,0.8-2.2,1.8-2.8,3.1
		c-0.2,0.4-0.4,1-0.5,1.3c-0.3,1.2-0.3,0.5-0.3,18.5c0,11.5,0,16.8,0.1,17.2c0.3,2.4,1.6,4.5,3.6,5.9c0.2,0.1,1.3,0.9,2.5,1.5
		c1.2,0.7,7.4,4.4,14,8.1c6.6,3.8,12.1,7,12.4,7.1c2.2,1,4.8,1,7.1-0.1c0.3-0.1,4.6-2.6,9.5-5.5c4.9-2.8,11.8-6.9,15.5-9
		c7.2-4.2,9.5-5.5,17.8-10.4c10-5.8,9-5.3,10-5.6c2.1-0.7,4.7-0.4,6.7,0.5c0.5,0.2,15.2,8.8,15.5,9.1c1.4,1,2.5,2.5,3.2,4.2
		c0.4,1.3,0.4,0.8,0.4,11.3c0,8.9,0,9.5-0.1,10.1c-0.2,1.3-0.8,2.5-1.5,3.5c-0.4,0.7-1.4,1.5-2.1,2c-0.3,0.2-2.6,1.5-5,3.1
		c-2.4,1.4-5.7,3.4-7.1,4.3c-3,1.8-3.3,2-4,2.2c-0.9,0.3-1.5,0.4-2.7,0.4c-1.2,0-2-0.1-3.2-0.5c-0.9-0.3-0.3,0-10.3-5.8
		c-3.1-1.8-5.8-3.4-6.1-3.6c-1.3-0.9-2.5-2.5-3.1-4.2c-0.4-1.2-0.4-0.9-0.4-7.5v-6.1l-6.6,3.8l-6.6,3.7v5.9c0,3.7,0,6.1,0.1,6.5
		c0.3,2.5,1.8,4.8,3.9,6.1c1.4,0.9,28.4,16.5,28.9,16.7l0.5,0.2h2.5h2.5l0.5-0.2c0.3-0.1,0.8-0.3,1-0.4c0.9-0.4,28.3-16.4,28.8-16.7
		c0.5-0.4,1.5-1.4,1.9-2c0.7-1,1.1-2,1.3-3.2c0.1-0.5,0.1-1.6,0.1-17.8c0-14.2,0-17.3-0.1-17.7c-0.2-1.2-0.9-2.6-1.5-3.6
		c-0.4-0.7-1.4-1.5-2-2c-0.2-0.2-1.4-0.9-2.5-1.5c-1.1-0.7-7.4-4.3-14-8.1c-6.6-3.8-12.1-7-12.4-7.1c-2-1-4.6-1-6.9,0
		c-0.5,0.2-3.2,1.8-10.3,5.9c-8.2,4.8-10.6,6.2-16.2,9.3c-6.2,3.5-7,3.9-16.2,9.4c-5.3,3.2-9.7,5.8-10,5.9c-2.2,1-4.7,0.9-7-0.1
		c-0.7-0.3-15.6-9.3-16.3-9.8c-1.4-1.1-2.5-2.8-3.1-4.8c-0.1-0.5-0.1-0.7-0.1-10.1c0-8.5,0-9.5,0.1-10.2c0.2-1.2,0.7-2.3,1.3-3.4
		c0.4-0.7,1.4-1.8,2.1-2.2c0.3-0.2,3.1-1.9,6-3.6c3.1-1.8,6.3-3.7,7.3-4.3c1-0.5,2.1-1.2,2.3-1.3c2.2-1.1,5-1.1,7.4,0
		c0.2,0.1,2,1.2,3.9,2.3c2,1.2,5.4,3.3,7.7,4.6c2.3,1.3,4.3,2.5,4.4,2.6c1.4,1.1,2.4,2.4,3,4c0.4,1.3,0.4,1,0.4,7.8v6.2l6.6-3.8
		l6.6-3.8v-6.3c0-4.4,0-6.5-0.1-6.7c-0.4-2.2-1.6-4-3.3-5.4c-0.2-0.2-1.1-0.8-2-1.2c-0.8-0.4-7-4-13.8-8.1
		c-6.8-3.9-12.5-7.3-12.7-7.4c-0.2-0.1-0.7-0.3-0.9-0.4l-0.4-0.2h-5L69.1,43.1z"/>
</g>
<path class="st2" d="M263.4-7.6"/>
</svg>
