<?xml version="1.0" encoding="utf-8"?>
<!-- Generator: Adobe Illustrator 26.4.1, SVG Export Plug-In . SVG Version: 6.00 Build 0)  -->
<svg version="1.1" id="Layer_1" xmlns="http://www.w3.org/2000/svg" xmlns:xlink="http://www.w3.org/1999/xlink" x="0px" y="0px"
	 viewBox="0 0 200 200" style="enable-background:new 0 0 200 200;" xml:space="preserve">
<style type="text/css">
	.st0{fill:#8247E5;}
	.st1{fill-rule:evenodd;clip-rule:evenodd;fill:#FFFFFF;}
	.st2{fill-rule:evenodd;clip-rule:evenodd;fill:#FBD52E;}
</style>
<g id="surface1_00000103955597701102914250000005251003009576502202_">
	<path class="st0" d="M191.4,100c0,50.5-40.9,91.4-91.4,91.4S8.6,150.5,8.6,100S49.5,8.6,100,8.6S191.4,49.5,191.4,100z"/>
	<path class="st1" d="M71.8,48c-0.3,0.1-0.7,0.3-0.9,0.4c-0.2,0.1-16.8,9.8-26.4,15.4c-1.1,0.7-2,1.6-2.6,2.8
		c-0.2,0.4-0.4,0.9-0.5,1.2c-0.3,1.1-0.3,0.5-0.3,16.9c0,10.5,0,15.4,0.1,15.7c0.3,2.2,1.5,4.1,3.3,5.4c0.2,0.1,1.2,0.8,2.3,1.4
		c1.1,0.6,6.8,4,12.8,7.4c6,3.5,11.1,6.4,11.3,6.5c2,0.9,4.4,0.9,6.5-0.1c0.3-0.1,4.2-2.4,8.7-5c4.5-2.6,10.8-6.3,14.2-8.2
		c6.6-3.8,8.7-5,16.3-9.5c9.1-5.3,8.2-4.8,9.1-5.1c1.9-0.6,4.3-0.4,6.1,0.5c0.5,0.2,13.9,8,14.2,8.3c1.3,0.9,2.3,2.3,2.9,3.8
		c0.4,1.2,0.4,0.7,0.4,10.3c0,8.1,0,8.7-0.1,9.2c-0.2,1.2-0.7,2.3-1.4,3.2c-0.4,0.6-1.3,1.4-1.9,1.8c-0.3,0.2-2.4,1.4-4.6,2.8
		c-2.2,1.3-5.2,3.1-6.5,3.9c-2.7,1.6-3,1.8-3.7,2c-0.8,0.3-1.4,0.4-2.5,0.4c-1.1,0-1.8-0.1-2.9-0.5c-0.8-0.3-0.3,0-9.4-5.3
		c-2.8-1.6-5.3-3.1-5.6-3.3c-1.2-0.8-2.3-2.3-2.8-3.8c-0.4-1.1-0.4-0.8-0.4-6.9l0-5.6l-6,3.5l-6,3.4v5.4c0,3.4,0,5.6,0.1,5.9
		c0.3,2.3,1.6,4.4,3.6,5.6c1.3,0.8,26,15.1,26.4,15.3l0.5,0.2h2.3l2.3,0l0.5-0.2c0.3-0.1,0.7-0.3,0.9-0.4c0.8-0.4,25.9-15,26.3-15.3
		c0.5-0.4,1.4-1.3,1.7-1.8c0.6-0.9,1-1.8,1.2-2.9c0.1-0.5,0.1-1.5,0.1-16.3c0-13,0-15.8-0.1-16.2c-0.2-1.1-0.8-2.4-1.4-3.3
		c-0.4-0.6-1.3-1.4-1.8-1.8c-0.2-0.2-1.3-0.8-2.3-1.4c-1-0.6-6.8-3.9-12.8-7.4c-6-3.5-11.1-6.4-11.3-6.5c-1.8-0.9-4.2-0.9-6.3,0
		c-0.5,0.2-2.9,1.6-9.4,5.4c-7.5,4.4-9.7,5.7-14.8,8.5c-5.7,3.2-6.4,3.6-14.8,8.6c-4.8,2.9-8.9,5.3-9.1,5.4c-2,0.9-4.3,0.8-6.4-0.1
		c-0.6-0.3-14.3-8.5-14.9-9c-1.3-1-2.3-2.6-2.8-4.4c-0.1-0.5-0.1-0.6-0.1-9.2c0-7.8,0-8.7,0.1-9.3c0.2-1.1,0.6-2.1,1.2-3.1
		c0.4-0.6,1.3-1.6,1.9-2c0.3-0.2,2.8-1.7,5.5-3.3c2.8-1.6,5.8-3.4,6.7-3.9c0.9-0.5,1.9-1.1,2.1-1.2c2-1,4.6-1,6.8,0
		c0.2,0.1,1.8,1.1,3.6,2.1c1.8,1.1,4.9,3,7,4.2c2.1,1.2,3.9,2.3,4,2.4c1.3,1,2.2,2.2,2.7,3.7c0.4,1.2,0.4,0.9,0.4,7.1l0,5.7l6-3.5
		l6-3.5l0-5.8c0-4,0-5.9-0.1-6.1c-0.4-2-1.5-3.7-3-4.9c-0.2-0.2-1-0.7-1.8-1.1c-0.7-0.4-6.4-3.7-12.6-7.4
		c-6.2-3.6-11.4-6.7-11.6-6.8c-0.2-0.1-0.6-0.3-0.8-0.4l-0.4-0.2l-4.6,0L71.8,48z"/>
</g>
<path class="st2" d="M263.4-7.6"/>
</svg>
