<?xml version="1.0" encoding="UTF-8"?>
<svg xmlns="http://www.w3.org/2000/svg" xmlns:xlink="http://www.w3.org/1999/xlink" width="200px" height="200px" viewBox="0 0 200 200" version="1.1">
<g id="surface1">
<path style=" stroke:none;fill-rule:nonzero;fill:rgb(50.980392%,27.843137%,89.803922%);fill-opacity:1;" d="M 200 100 C 200 155.226562 155.226562 200 100 200 C 44.773438 200 0 155.226562 0 100 C 0 44.773438 44.773438 0 100 0 C 155.226562 0 200 44.773438 200 100 Z M 200 100 "/>
<path style=" stroke:none;fill-rule:evenodd;fill:rgb(100%,100%,100%);fill-opacity:1;" d="M 69.179688 43.082031 C 68.851562 43.199219 68.421875 43.382812 68.222656 43.484375 C 67.953125 43.621094 49.867188 54.1875 39.378906 60.335938 C 38.148438 61.058594 37.234375 62.046875 36.574219 63.371094 C 36.359375 63.808594 36.117188 64.386719 36.042969 64.660156 C 35.703125 65.90625 35.714844 65.160156 35.714844 83.105469 C 35.714844 94.558594 35.734375 99.964844 35.785156 100.316406 C 36.113281 102.746094 37.375 104.789062 39.429688 106.238281 C 39.65625 106.398438 40.792969 107.082031 41.957031 107.753906 C 43.121094 108.425781 49.4375 112.09375 55.996094 115.898438 C 62.558594 119.707031 68.109375 122.90625 68.335938 123.007812 C 70.519531 123.992188 73.167969 123.957031 75.488281 122.910156 C 75.832031 122.753906 80.117188 120.300781 85.003906 117.453125 C 89.890625 114.609375 96.878906 110.546875 100.53125 108.433594 C 107.714844 104.273438 110.035156 102.925781 118.371094 98.070312 C 128.359375 92.257812 127.390625 92.800781 128.3125 92.492188 C 130.339844 91.8125 132.988281 92.019531 134.953125 93.007812 C 135.457031 93.261719 150.148438 101.808594 150.523438 102.066406 C 151.929688 103.03125 153.089844 104.59375 153.648438 106.273438 C 154.105469 107.640625 154.082031 107.003906 154.082031 117.550781 C 154.082031 126.445312 154.074219 127.101562 153.960938 127.625 C 153.695312 128.886719 153.140625 130.160156 152.445312 131.097656 C 151.953125 131.761719 151.058594 132.621094 150.375 133.085938 C 150.050781 133.304688 147.792969 134.671875 145.359375 136.117188 C 142.925781 137.566406 139.714844 139.476562 138.222656 140.363281 C 135.242188 142.140625 134.894531 142.328125 134.140625 142.582031 C 133.230469 142.886719 132.570312 142.984375 131.453125 142.980469 C 130.25 142.976562 129.507812 142.839844 128.320312 142.421875 C 127.488281 142.125 128.007812 142.417969 117.980469 136.585938 C 114.878906 134.78125 112.128906 133.164062 111.871094 132.992188 C 110.542969 132.105469 109.308594 130.441406 108.761719 128.800781 C 108.351562 127.578125 108.371094 127.882812 108.332031 121.242188 L 108.292969 115.152344 L 101.769531 118.929688 L 95.246094 122.703125 L 95.246094 128.585938 C 95.246094 132.253906 95.269531 134.679688 95.3125 135.027344 C 95.621094 137.539062 97.058594 139.792969 99.242188 141.183594 C 100.621094 142.066406 127.652344 157.679688 128.175781 157.898438 L 128.773438 158.148438 L 131.265625 158.148438 L 133.753906 158.152344 L 134.335938 157.945312 C 134.65625 157.832031 135.113281 157.644531 135.351562 157.523438 C 136.210938 157.089844 163.738281 141.082031 164.167969 140.765625 C 164.753906 140.332031 165.652344 139.378906 166.070312 138.746094 C 166.703125 137.792969 167.140625 136.722656 167.378906 135.554688 C 167.484375 135.03125 167.492188 133.867188 167.492188 117.75 C 167.492188 103.503906 167.476562 100.417969 167.402344 100.007812 C 167.183594 98.800781 166.570312 97.367188 165.859375 96.410156 C 165.394531 95.785156 164.488281 94.894531 163.886719 94.484375 C 163.617188 94.296875 162.460938 93.601562 161.316406 92.9375 C 160.171875 92.273438 153.882812 88.621094 147.339844 84.824219 C 140.800781 81.027344 135.210938 77.808594 134.917969 77.671875 C 132.914062 76.722656 130.277344 76.707031 128.023438 77.628906 C 127.5 77.84375 124.871094 79.363281 117.707031 83.585938 C 109.523438 88.414062 107.117188 89.796875 101.519531 92.890625 C 95.246094 96.359375 94.507812 96.789062 85.332031 102.289062 C 80.046875 105.460938 75.546875 108.132812 75.332031 108.226562 C 73.183594 109.179688 70.625 109.152344 68.292969 108.15625 C 67.640625 107.875 52.695312 98.855469 51.988281 98.316406 C 50.53125 97.199219 49.433594 95.453125 48.976562 93.511719 C 48.835938 92.910156 48.832031 92.871094 48.8125 83.425781 C 48.792969 74.925781 48.800781 73.871094 48.898438 73.253906 C 49.085938 72.058594 49.539062 70.90625 50.242188 69.847656 C 50.65625 69.222656 51.710938 68.140625 52.339844 67.691406 C 52.625 67.488281 55.355469 65.871094 58.410156 64.097656 C 61.460938 62.324219 64.777344 60.398438 65.777344 59.816406 C 66.777344 59.234375 67.816406 58.644531 68.089844 58.503906 C 70.234375 57.398438 73.128906 57.398438 75.570312 58.503906 C 75.804688 58.609375 77.585938 59.65625 79.527344 60.832031 C 81.464844 62.003906 84.898438 64.078125 87.148438 65.441406 C 89.402344 66.804688 91.367188 68.007812 91.511719 68.121094 C 92.917969 69.195312 93.917969 70.582031 94.449219 72.179688 C 94.890625 73.511719 94.867188 73.128906 94.910156 79.972656 L 94.945312 86.195312 L 101.476562 82.417969 L 108.003906 78.636719 L 107.976562 72.292969 C 107.957031 67.902344 107.925781 65.835938 107.875 65.578125 C 107.425781 63.378906 106.265625 61.5 104.558594 60.21875 C 104.289062 60.015625 103.410156 59.464844 102.609375 58.992188 C 101.8125 58.523438 95.628906 54.890625 88.867188 50.917969 C 82.109375 46.945312 76.371094 43.582031 76.117188 43.445312 C 75.863281 43.308594 75.453125 43.117188 75.207031 43.027344 L 74.757812 42.855469 L 69.773438 42.863281 Z M 69.179688 43.082031 "/>
</g>
</svg>
