<?xml version="1.0" encoding="UTF-8"?>
<svg xmlns="http://www.w3.org/2000/svg" xmlns:xlink="http://www.w3.org/1999/xlink" width="400px" height="400px" viewBox="0 0 400 400" version="1.1">
<g id="surface1">
<path style=" stroke:none;fill-rule:nonzero;fill:rgb(61.176471%,42.352941%,100%);fill-opacity:1;" d="M 289.054688 45.261719 L 160.800781 45.261719 C 154.300781 45.265625 148.289062 48.734375 145.03125 54.363281 L 80.90625 165.425781 C 77.640625 171.054688 77.640625 178 80.90625 183.628906 L 145.03125 294.691406 L 176.566406 276.488281 L 117.726562 174.527344 L 171.328125 81.667969 L 278.574219 81.667969 L 337.460938 183.625 L 368.996094 165.421875 L 304.820312 54.363281 C 301.574219 48.726562 295.558594 45.257812 289.054688 45.261719 Z M 289.054688 45.261719 "/>
<path style=" stroke:none;fill-rule:nonzero;fill:rgb(1.960784%,82.352941%,86.666667%);fill-opacity:1;" d="M 254.578125 105.617188 L 223.042969 123.820312 L 281.929688 225.78125 L 228.328125 318.640625 L 121.082031 318.640625 L 62.195312 216.679688 L 30.660156 234.882812 L 94.789062 345.945312 C 98.039062 351.578125 104.050781 355.050781 110.554688 355.046875 L 238.808594 355.046875 C 245.3125 355.042969 251.320312 351.574219 254.578125 345.945312 L 318.707031 234.882812 C 321.96875 229.253906 321.96875 222.308594 318.707031 216.679688 Z M 254.578125 105.617188 "/>
</g>
</svg>
