<?xml version="1.0" encoding="utf-8"?>
<!-- Generator: Adobe Illustrator 26.4.1, SVG Export Plug-In . SVG Version: 6.00 Build 0)  -->
<svg version="1.1" id="Layer_1" xmlns="http://www.w3.org/2000/svg" xmlns:xlink="http://www.w3.org/1999/xlink" x="0px" y="0px"
	 viewBox="0 0 200 200" style="enable-background:new 0 0 200 200;" xml:space="preserve">
<style type="text/css">
	.st0{fill:#002D73;}
	.st1{fill:#FFFFFF;}
	.st2{fill-rule:evenodd;clip-rule:evenodd;fill:#FBD52E;}
</style>
<circle class="st0" cx="100.9" cy="100" r="95.6"/>
<g id="surface1">
	<path class="st1" d="M99.9,31.8L30.7,66.3v69l69.2,34.5l69.1-34.5v-69L99.9,31.8z M148.5,125.1l-48.7,24.3l-48.6-24.3V76.5
		l48.7-24.3l48.6,24.3V125.1z"/>
	<path class="st1" d="M99.9,169.8l69.1-34.5v-69L99.9,31.8v20.5l48.6,24.3v48.6l-48.7,24.3v20.4H99.9z"/>
	<path class="st1" d="M99.8,31.8L30.7,66.3v69l69.1,34.5v-20.5l-48.6-24.3V76.4l48.6-24.2V31.8z"/>
	<path class="st1" d="M132.2,116.9L99.9,133l-32.4-16.1V84.7l32.4-16.1l32.2,16.1l-13.5,6.8L99.8,82l-18.8,9.4v18.8l18.9,9.4
		l18.9-9.4L132.2,116.9z"/>
</g>
<path class="st2" d="M263.4-7.6"/>
</svg>
