<?xml version="1.0" encoding="UTF-8"?>
<svg xmlns="http://www.w3.org/2000/svg" xmlns:xlink="http://www.w3.org/1999/xlink" width="200px" height="200px" viewBox="0 0 200 200" version="1.1">
<defs>
<linearGradient id="linear0" gradientUnits="userSpaceOnUse" x1="90.1166" y1="1.0868" x2="90.1166" y2="70.4884" gradientTransform="matrix(1.665279,0,0,-1.437651,0,201.339723)">
<stop offset="0" style="stop-color:rgb(0%,17.647059%,45.490196%);stop-opacity:1;"/>
<stop offset="1" style="stop-color:rgb(0%,17.647059%,45.490196%);stop-opacity:0;"/>
</linearGradient>
<linearGradient id="linear1" gradientUnits="userSpaceOnUse" x1="30.0233" y1="139.8898" x2="30.0233" y2="70.4884" gradientTransform="matrix(1.665279,0,0,-1.437651,0,201.339723)">
<stop offset="0" style="stop-color:rgb(0%,17.647059%,45.490196%);stop-opacity:1;"/>
<stop offset="1" style="stop-color:rgb(0%,17.647059%,45.490196%);stop-opacity:0;"/>
</linearGradient>
</defs>
<g id="surface1">
<path style=" stroke:none;fill-rule:nonzero;fill:rgb(0%,17.647059%,45.490196%);fill-opacity:1;" d="M 100.082031 0.226562 L 0 50.113281 L 0 149.886719 L 100.082031 199.773438 L 200 149.886719 L 200 50.113281 Z M 170.359375 135.078125 L 99.917969 170.15625 L 29.640625 135.078125 L 29.640625 64.921875 L 100.082031 29.84375 L 170.359375 64.921875 Z M 170.359375 135.078125 "/>
<path style=" stroke:none;fill-rule:nonzero;fill:url(#linear0);" d="M 100.082031 199.773438 L 200 149.886719 L 200 50.113281 L 100.082031 0.226562 L 100.082031 29.84375 L 170.359375 64.921875 L 170.359375 135.222656 L 99.917969 170.300781 L 99.917969 199.773438 Z M 100.082031 199.773438 "/>
<path style=" stroke:none;fill-rule:nonzero;fill:url(#linear1);" d="M 99.917969 0.226562 L 0 50.113281 L 0 149.886719 L 99.917969 199.773438 L 99.917969 170.15625 L 29.640625 135.078125 L 29.640625 64.777344 L 99.917969 29.84375 Z M 99.917969 0.226562 "/>
<path style=" stroke:none;fill-rule:nonzero;fill:rgb(0%,17.647059%,45.490196%);fill-opacity:1;" d="M 146.710938 123.289062 L 100.082031 146.578125 L 53.289062 123.289062 L 53.289062 76.710938 L 100.082031 53.421875 L 146.710938 76.710938 L 127.226562 86.484375 L 99.917969 72.828125 L 72.773438 86.484375 L 72.773438 113.65625 L 100.082031 127.316406 L 127.394531 113.65625 Z M 146.710938 123.289062 "/>
</g>
</svg>
