<?xml version="1.0" encoding="utf-8"?>
<!-- Generator: Adobe Illustrator 26.4.1, SVG Export Plug-In . SVG Version: 6.00 Build 0)  -->
<svg version="1.1" id="Layer_1" xmlns="http://www.w3.org/2000/svg" xmlns:xlink="http://www.w3.org/1999/xlink" x="0px" y="0px"
	 viewBox="0 0 200 200" style="enable-background:new 0 0 200 200;" xml:space="preserve">
<style type="text/css">
	.st0{fill:#002D73;}
	.st1{fill:#FFFFFF;}
	.st2{fill-rule:evenodd;clip-rule:evenodd;fill:#FBD52E;}
</style>
<circle class="st0" cx="100.9" cy="100" r="100"/>
<g id="surface1">
	<path class="st1" d="M100.1,17.9l-75.6,41V141l75.6,41l75.5-41V58.9L100.1,17.9z M153.2,128.8l-53.2,28.9l-53.1-28.9V71l53.2-28.9
		L153.2,71V128.8z"/>
	<path class="st1" d="M100.1,182l75.5-41V58.9l-75.5-41v24.4l53.1,28.9V129l-53.2,28.9v24.3h0.1V182z"/>
	<path class="st1" d="M99.9,17.9l-75.5,41V141l75.5,41v-24.4l-53.1-28.9V70.9l53.1-28.8V17.9z"/>
	<path class="st1" d="M135.4,119.1l-35.3,19.1l-35.4-19.1V80.8l35.4-19.1l35.2,19.1l-14.8,8.1L99.9,77.6L79.4,88.8v22.4l20.7,11.2
		l20.7-11.2L135.4,119.1z"/>
</g>
<path class="st2" d="M263.4-7.6"/>
</svg>
