<?xml version="1.0" encoding="utf-8"?>
<!-- Generator: Adobe Illustrator 26.4.1, SVG Export Plug-In . SVG Version: 6.00 Build 0)  -->
<svg version="1.1" id="Layer_1" xmlns="http://www.w3.org/2000/svg" xmlns:xlink="http://www.w3.org/1999/xlink" x="0px" y="0px"
	 viewBox="0 0 200 200" style="enable-background:new 0 0 200 200;" xml:space="preserve">
<style type="text/css">
	.st0{fill:#262626;}
	.st1{fill-rule:evenodd;clip-rule:evenodd;fill:#FBD52E;}
	.st2{clip-path:url(#SVGID_00000138538221273538043250000009701324971872229566_);}
	.st3{fill:url(#SVGID_00000177483924802762790390000005474083946513659294_);}
	.st4{clip-path:url(#SVGID_00000034086325926960976020000002437421105927643581_);}
	.st5{fill:url(#SVGID_00000127730896339890192940000011653573901767502014_);}
	.st6{clip-path:url(#SVGID_00000125588617202690495070000010784232149285358478_);}
	.st7{fill:url(#SVGID_00000120556720367850129750000014728276969377915051_);}
</style>
<g id="surface1_00000103955597701102914250000005251003009576502202_">
	<path class="st0" d="M100,200c-55.1,0-99.8-44.6-99.8-99.8S44.9,0.5,100,0.5s99.8,44.6,99.8,99.8S155.1,200,100,200z"/>
</g>
<path class="st1" d="M263.4-7.6"/>
<g id="surface1">
	<g>
		<g>
			<g>
				<g>
					<g>
						<defs>
							<rect id="SVGID_1_" x="43.3" y="122.4" width="113.4" height="22.3"/>
						</defs>
						<clipPath id="SVGID_00000181767095277659114810000017423843625060937860_">
							<use xlink:href="#SVGID_1_"  style="overflow:visible;"/>
						</clipPath>
						<g style="clip-path:url(#SVGID_00000181767095277659114810000017423843625060937860_);">
							
								<linearGradient id="SVGID_00000021810419143313572900000011706439717722950792_" gradientUnits="userSpaceOnUse" x1="-675.8909" y1="40.5041" x2="-683.4076" y2="26.1065" gradientTransform="matrix(8.3333 0 0 -8.3333 5778.6401 382.6665)">
								<stop  offset="0" style="stop-color:#00FFA3"/>
								<stop  offset="1" style="stop-color:#DC1FFF"/>
							</linearGradient>
							<path style="fill:url(#SVGID_00000021810419143313572900000011706439717722950792_);" d="M61.7,123.7
								c0.6-0.6,1.6-1.1,2.6-1.1h90.5c1.8,0,2.5,2,1.4,3.2l-18,17.9c-0.6,0.6-1.6,1.1-2.6,1.1H45.2c-1.8,0-2.5-2-1.4-3.2L61.7,123.7
								z"/>
						</g>
					</g>
				</g>
			</g>
		</g>
	</g>
	<g>
		<g>
			<g>
				<g>
					<g>
						<defs>
							<rect id="SVGID_00000122698016180088758150000001471485004352093824_" x="43.3" y="55.8" width="113.4" height="22.3"/>
						</defs>
						<clipPath id="SVGID_00000126300170296331849670000004543991819060741273_">
							<use xlink:href="#SVGID_00000122698016180088758150000001471485004352093824_"  style="overflow:visible;"/>
						</clipPath>
						<g style="clip-path:url(#SVGID_00000126300170296331849670000004543991819060741273_);">
							
								<linearGradient id="SVGID_00000089552112315914307290000000048965663061496766_" gradientUnits="userSpaceOnUse" x1="-679.1795" y1="42.221" x2="-686.6963" y2="27.8234" gradientTransform="matrix(8.3333 0 0 -8.3333 5778.6401 382.6665)">
								<stop  offset="0" style="stop-color:#00FFA3"/>
								<stop  offset="1" style="stop-color:#DC1FFF"/>
							</linearGradient>
							<path style="fill:url(#SVGID_00000089552112315914307290000000048965663061496766_);" d="M61.7,56.9c0.6-0.6,1.8-1.1,2.6-1.1
								h90.5c1.8,0,2.5,2,1.4,3.2l-18,17.9c-0.6,0.6-1.6,1.1-2.6,1.1H45.2c-1.8,0-2.5-2-1.4-3.2L61.7,56.9z"/>
						</g>
					</g>
				</g>
			</g>
		</g>
	</g>
	<g>
		<g>
			<g>
				<g>
					<g>
						<defs>
							<rect id="SVGID_00000091721698690543908930000009007545069587836093_" x="43.3" y="88.3" width="113.4" height="23.8"/>
						</defs>
						<clipPath id="SVGID_00000131335207614460865190000016832228514387991484_">
							<use xlink:href="#SVGID_00000091721698690543908930000009007545069587836093_"  style="overflow:visible;"/>
						</clipPath>
						<g style="clip-path:url(#SVGID_00000131335207614460865190000016832228514387991484_);">
							
								<linearGradient id="SVGID_00000160872897807319341430000004399109976470343563_" gradientUnits="userSpaceOnUse" x1="-677.55" y1="41.3702" x2="-685.0668" y2="26.9727" gradientTransform="matrix(8.3333 0 0 -8.3333 5778.6401 382.6665)">
								<stop  offset="0" style="stop-color:#00FFA3"/>
								<stop  offset="1" style="stop-color:#DC1FFF"/>
							</linearGradient>
							<path style="fill:url(#SVGID_00000160872897807319341430000004399109976470343563_);" d="M138.3,90c-0.6-0.6-1.6-1.1-2.6-1.1
								H45.2c-1.8,0-2.5,2-1.4,3.2L61.7,110c0.6,0.6,1.6,1.1,2.6,1.1h90.5c1.8,0,2.5-2,1.4-3.2L138.3,90z"/>
						</g>
					</g>
				</g>
			</g>
		</g>
	</g>
</g>
</svg>
