<?xml version="1.0" encoding="UTF-8"?>
<svg xmlns="http://www.w3.org/2000/svg" xmlns:xlink="http://www.w3.org/1999/xlink" width="200px" height="200px" viewBox="0 0 200 200" version="1.1">
<defs>
<linearGradient id="linear0" gradientUnits="userSpaceOnUse" x1="9.78915" y1="24.3817" x2="24.4857" y2="7.97584" gradientTransform="matrix(6.060606,0,0,6.25,0,0)">
<stop offset="0.08" style="stop-color:rgb(60%,27.058824%,100%);stop-opacity:1;"/>
<stop offset="0.3" style="stop-color:rgb(52.941176%,32.156863%,95.294118%);stop-opacity:1;"/>
<stop offset="0.5" style="stop-color:rgb(32.941176%,59.215686%,83.529412%);stop-opacity:1;"/>
<stop offset="0.6" style="stop-color:rgb(26.27451%,70.588235%,79.215686%);stop-opacity:1;"/>
<stop offset="0.72" style="stop-color:rgb(15.686275%,87.843137%,72.54902%);stop-opacity:1;"/>
<stop offset="0.97" style="stop-color:rgb(9.803922%,98.431373%,60.784314%);stop-opacity:1;"/>
</linearGradient>
</defs>
<g id="surface1">
<path style=" stroke:none;fill-rule:nonzero;fill:rgb(16.862745%,17.254902%,27.843137%);fill-opacity:1;" d="M 199.1875 100 C 199.1875 155.226562 155.769531 200 102.214844 200 C 48.660156 200 5.246094 155.226562 5.246094 100 C 5.246094 44.773438 48.660156 0 102.214844 0 C 155.769531 0 199.1875 44.773438 199.1875 100 Z M 199.1875 100 "/>
<path style=" stroke:none;fill-rule:nonzero;fill:url(#linear0);" d="M 157.066406 128.84375 L 139.34375 148.636719 C 138.957031 149.066406 138.496094 149.410156 137.976562 149.644531 C 137.460938 149.878906 136.90625 150 136.339844 150 L 52.328125 150 C 51.925781 150 51.535156 149.878906 51.199219 149.648438 C 50.863281 149.421875 50.601562 149.09375 50.441406 148.710938 C 50.28125 148.328125 50.230469 147.90625 50.296875 147.496094 C 50.363281 147.085938 50.542969 146.703125 50.816406 146.394531 L 68.519531 126.605469 C 68.902344 126.175781 69.367188 125.832031 69.882812 125.597656 C 70.398438 125.363281 70.957031 125.238281 71.519531 125.238281 L 155.535156 125.238281 C 155.9375 125.230469 156.335938 125.347656 156.675781 125.574219 C 157.019531 125.800781 157.289062 126.125 157.453125 126.511719 C 157.617188 126.894531 157.667969 127.324219 157.597656 127.738281 C 157.527344 128.152344 157.34375 128.539062 157.066406 128.84375 Z M 139.34375 88.980469 C 138.957031 88.550781 138.492188 88.210938 137.976562 87.976562 C 137.460938 87.742188 136.902344 87.617188 136.339844 87.613281 L 52.328125 87.613281 C 51.925781 87.613281 51.535156 87.738281 51.199219 87.964844 C 50.863281 88.195312 50.601562 88.519531 50.441406 88.902344 C 50.28125 89.285156 50.230469 89.707031 50.296875 90.121094 C 50.363281 90.53125 50.542969 90.914062 50.816406 91.21875 L 68.519531 111.019531 C 68.902344 111.449219 69.367188 111.789062 69.886719 112.027344 C 70.402344 112.261719 70.957031 112.382812 71.519531 112.386719 L 155.535156 112.386719 C 155.933594 112.382812 156.324219 112.261719 156.660156 112.03125 C 156.992188 111.800781 157.253906 111.476562 157.414062 111.09375 C 157.574219 110.710938 157.621094 110.289062 157.554688 109.878906 C 157.488281 109.46875 157.308594 109.085938 157.035156 108.78125 Z M 52.328125 74.761719 L 136.339844 74.761719 C 136.90625 74.761719 137.460938 74.640625 137.976562 74.402344 C 138.496094 74.167969 138.957031 73.828125 139.34375 73.394531 L 157.066406 53.605469 C 157.34375 53.300781 157.527344 52.914062 157.597656 52.5 C 157.667969 52.085938 157.617188 51.65625 157.453125 51.273438 C 157.289062 50.886719 157.019531 50.558594 156.675781 50.335938 C 156.335938 50.109375 155.9375 49.992188 155.535156 50 L 71.519531 50 C 70.957031 50 70.398438 50.121094 69.882812 50.355469 C 69.367188 50.59375 68.902344 50.933594 68.519531 51.363281 L 50.816406 71.15625 C 50.542969 71.460938 50.363281 71.84375 50.296875 72.257812 C 50.230469 72.667969 50.28125 73.089844 50.441406 73.472656 C 50.601562 73.855469 50.863281 74.179688 51.199219 74.410156 C 51.535156 74.640625 51.925781 74.761719 52.328125 74.761719 Z M 52.328125 74.761719 "/>
</g>
</svg>
