<?xml version="1.0" encoding="UTF-8"?>
<svg id="Layer_1" data-name="Layer 1" xmlns="http://www.w3.org/2000/svg" version="1.1" viewBox="0 0 500 500">
  <defs>
    <style>
      .cls-1 {
        fill: #fff;
      }

      .cls-1, .cls-2 {
        stroke-width: 0px;
      }

      .cls-2 {
        fill: #2470a9;
      }
    </style>
  </defs>
  <circle class="cls-2" cx="250" cy="250" r="250"/>
  <g>
    <path class="cls-1" d="M305.5,129.4c-34.8-.2-69.7-.2-104.5,0-7.5,0-9.9,2.8-10,10.4-.1,13.8-.1,27.7,0,41.5,0,9.4,2.5,11.8,12.1,11.8,16.5,0,33.1,0,49.6,0,17.2,0,34.4,0,51.6,0,8.6,0,11.2-2.8,11.3-11.3,0-14.1.1-28.1,0-42.2,0-7.7-2.3-10.2-10-10.3ZM293.3,183.3c-13.4-.1-26.8,0-40.2,0s-26.8-.1-40.2,0c-5.3,0-7.8-2-7.7-7.5.2-9.4.2-18.8,0-28.1-.1-5.6,2.7-7.5,7.8-7.5,26.8,0,53.6,0,80.4,0,5,0,7.4,2.2,7.3,7.3,0,9.6,0,19.2,0,28.8,0,5.1-2.4,7.1-7.4,7.1Z"/>
    <path class="cls-1" d="M361.5,362.7c-6.8-2.2-8.3-6.7-8.3-13.3.2-37.3.1-74.7,0-112,0-36.9,0-73.8,0-110.7,0-26-16.8-42.8-42.9-42.8-40,0-80.1.3-120.1-.1-27.1-.3-44.4,20.7-44.2,44.3.7,72.2,0,144.5.5,216.7,0,9.9-1.7,16.7-11.9,20-4.8,1.5-8.6,4.8-8.5,10.8.1,10.3,0,20.6,0,30.9,0,6,3.5,9,9,9.7,3.1.4,6.2.3,9.4.3,70.7,0,141.3,0,212,0,1.8,0,3.6,0,5.4,0,8.6-.3,11.3-2.9,11.4-11.3.1-7.6-.6-15.3.2-22.8,1.1-10.1-2.9-16.5-12.2-19.5ZM344.3,397.5c-63.1,0-126.1,0-189.2,0-3.7,0-8.5,1.5-10-4.1-1.9-7,.1-12.3,5.8-15.4,1-.5,2-1.1,3-1.5,8.8-3.1,11.8-9,11.7-18.5-.5-38-.2-76-.2-114,0-37.6,0-75.1,0-112.7,0-20.5,8.2-28.7,29-28.8,37.3,0,74.7,0,112,0,19.9,0,27.8,7.9,27.8,27.7,0,74.9.2,149.8-.2,224.7,0,11.4,2.6,19,13.8,22.7,3.9,1.3,6.8,3.7,7,8.7.4,10.1-.4,11.2-10.6,11.2Z"/>
    <path class="cls-1" d="M297.2,270.6c-10.7-.1-21.5,0-32.2,0-9.4,0-9.7-.4-8.8-9.4,1.3-13.3,2.7-26.7,4-40,.2-2.2.6-4.9-2-5.9-2.8-1-3.9,1.6-5,3.4-5.8,8.8-11.5,17.6-17.2,26.4-10.8,16.7-21.6,33.4-32.4,50.2-1.4,2.2-3.5,4.6-2.1,7.4,1.5,2.9,4.7,2.1,7.3,2.1,5.1.1,10.3,0,15.4,0,4.9,0,9.8,0,14.8,0,9.6,0,10.2.8,9.2,10.6-1.3,13.1-2.5,26.3-3.6,39.4-.2,1.9-.3,4.4,2,5.2,2.5.9,3.5-1.4,4.6-3,16.9-26.1,33.8-52.2,50.5-78.4,3.8-5.9,2.6-8-4.4-8.1ZM292.3,282.7c-12.2,18.7-24.2,37.5-36.3,56.3-.8,1.3-1.6,3.3-3.4,2.8-2.3-.7-1.4-3-1.2-4.7,1-9.8,2.1-19.5,3.2-29.3.8-7.1-.7-8.9-7.9-9-10.7-.2-21.4,0-32.2,0-3.9,0-5.7-1.2-3.1-5.1,12.9-19.9,25.7-39.7,38.6-59.6.3-.5,1-.7,2.6-1.7.5,11.6-2.2,21.8-2.6,32.2-.5,11.3,0,12,11,12,9.2,0,18.3,0,27.5,0,4.8,0,7,1.1,3.8,6.1Z"/>
  </g>
</svg>