<?xml version="1.0" encoding="utf-8"?>
<!-- Generator: Adobe Illustrator 26.4.1, SVG Export Plug-In . SVG Version: 6.00 Build 0)  -->
<svg version="1.1" id="Layer_1" xmlns="http://www.w3.org/2000/svg" xmlns:xlink="http://www.w3.org/1999/xlink" x="0px" y="0px"
	 viewBox="0 0 200 200" style="enable-background:new 0 0 200 200;" xml:space="preserve">
<style type="text/css">
	.st0{fill:#00D2FF;}
	.st1{fill-rule:evenodd;clip-rule:evenodd;fill:#FBD52E;}
</style>
<g id="Capa_2">
	<g id="Capa_1-2">
		<path class="st0" d="M200,100C200,44.8,155.2,0,100,0S0,44.8,0,100s44.8,100,100,100S200,155.2,200,100"/>
		<path d="M167.4,95c0-0.2-4.3-3-6.6-4.4c-1-0.7-1.9-1.3-2.8-2.1c-1.7-1.7-4.6-4.7-5.4-6.4c-0.6-1.1-0.3-3.2,0.1-5.2
			c0.8-3.4,0.2-7.1-1.7-10.2l-3-4.8c-1.3-2.2-2.4-4.6-3.2-7c-1-3.1-2.8-6-5.2-8.3c-4.8-4.7-18.1-7-29.2-7.3
			c-0.7-0.2-1.3-0.3-2.1-0.4c-4.9-0.9-10.2-2.2-14.9-1.3c-7,1.3-14.1,3.6-19.4,8.9c-1.1,1.1-2.8,1.6-3.9,2.7
			c-2.3,2.1-5.3,2.1-7.3,4.3c-1.2,1.3-1.8,5.7-4.9,7.3c-5.1,2.8-8.9,5.8-10.2,7.3c-0.9,1.1-1.7,2.6-2.6,3.7
			c-0.9,1.2-5.3,3.3-6.7,4.6c-1.3,1.3-3,4.4-2.2,8.1c0.1,0.3,0.1,0.7,0.2,0.9C37,87,38.3,90.4,38,92c-0.3,1.9-5.1,15.7,5.6,19.4
			c2.2,0.8,3.1,2.2,3.4,4.6c0.2,1.7,0.7,3.4,1.6,5.3c1,2,2.9,3.1,3,3.3c0.7,0.6,3.7,3.7,3.9,4.1c3.8,7,2.8,10.4,10,12.9
			c1.9,0.7,3.7,1.4,5.3,2.4c2,1.2,4.2,2.2,6.6,2.9c0.1,0,0.2,0,0.3,0.1c1.6-3.9,3.2-7.6,4.9-11.1c-13-13.3-9.7-28.3-8.3-32.4
			c0.1-0.4,0.6-0.7,0.9-0.4c0.1,0,0.2,0.1,0.2,0.1c2.8,2.4,11.1,11.1,10.1,26.7c2.9-5.8,5.7-10.8,8.2-15.1c-9.4-16-2.4-30-0.2-33.7
			c0.2-0.3,0.7-0.4,1-0.2c0.1,0.1,0.2,0.1,0.2,0.2c1.9,2.9,7.1,12.2,3.9,25.7c2.3-3.6,4.2-6.2,5.4-7.9c3.3-22.2,20.2-29.6,24.6-31.1
			c0.4-0.1,0.8,0.1,1,0.4c0,0.1,0,0.2,0,0.3c-0.4,4.6-3.2,22.3-22.8,31.4c-2.3,3.1-4.6,6.3-6.8,9.7c7.4-5.8,17.9-8.6,26.6-6.4
			c0.4,0.1,0.7,0.4,0.6,0.9c0,0.1-0.1,0.2-0.1,0.3c-2.4,3.3-12.4,14.4-31.1,11.9c-3.1,5.3-6.1,10.8-8.7,15.9
			c8.1-6.1,19.9-8.4,29-5.3c0.4,0.1,0.7,0.6,0.4,1c0,0.1-0.1,0.2-0.1,0.3c-2.9,3.1-13.8,13.1-31.8,9.1c-1.7,3.6-4.2,9.4-5.4,12.3
			c-0.4,1-0.8,2-1.1,3c-0.8,2.3-1.9,5.3-3.1,8.2c-0.8,1.7,0.1,3.7,1.8,4.3c0.1,0,0.1,0.1,0.2,0.1c14.2,5.1,29.7,5.7,44.1,1.7
			c1-0.2,1.8-1,2.1-1.9c0.3-0.7,0.6-1.4,0.6-1.4s6.2-14.6,7.2-20.9c0.3-2.4,1.1-4.3,1.9-5.8c1-1.8,2.9-3,4.9-3.1
			c4.8-0.2,15-0.9,18.7-2.1c4.9-1.6,2.8-10.6,2.6-11.6c-0.2-1,2.3-3.2,2.9-4.6c0.6-1.3-1.3-1.8-2.1-3.2c-0.8-1.4,1.9-2.4,2.3-3.8
			c0.3-1.3-0.9-2.8-1.3-3.7c-0.6-1-0.7-2.2-0.7-2.2s3.6-2.7,5.6-4.3C167.8,96.8,167.4,95.3,167.4,95"/>
	</g>
</g>
<path class="st1" d="M263.4-7.6"/>
</svg>
