<?xml version="1.0" encoding="utf-8"?>
<!-- Generator: Adobe Illustrator 26.4.1, SVG Export Plug-In . SVG Version: 6.00 Build 0)  -->
<svg version="1.1" id="Layer_1" xmlns="http://www.w3.org/2000/svg" xmlns:xlink="http://www.w3.org/1999/xlink" x="0px" y="0px"
	 viewBox="0 0 200 200" style="enable-background:new 0 0 200 200;" xml:space="preserve">
<style type="text/css">
	.st0{fill:#00D2FF;}
	.st1{fill-rule:evenodd;clip-rule:evenodd;fill:#FBD52E;}
</style>
<g id="Capa_2">
	<g id="Capa_1-2">
		<path class="st0" d="M190,100c0-49.7-40.3-90-90-90s-90,40.3-90,90s40.3,90,90,90S190,149.7,190,100"/>
		<path d="M160.7,95.5c0-0.2-3.9-2.7-5.9-4c-0.9-0.6-1.7-1.2-2.5-1.9c-1.5-1.5-4.1-4.2-4.9-5.8c-0.5-1-0.3-2.9,0.1-4.7
			c0.7-3.1,0.2-6.4-1.5-9.2l-2.7-4.3c-1.2-2-2.2-4.1-2.9-6.3c-0.9-2.8-2.5-5.4-4.7-7.5c-4.3-4.2-16.3-6.3-26.3-6.6
			c-0.6-0.2-1.2-0.3-1.9-0.4c-4.4-0.8-9.2-2-13.4-1.2c-6.3,1.2-12.7,3.2-17.5,8c-1,1-2.5,1.4-3.5,2.4c-2.1,1.9-4.8,1.9-6.6,3.9
			c-1.1,1.2-1.6,5.1-4.4,6.6c-4.6,2.5-8,5.2-9.2,6.6c-0.8,1-1.5,2.3-2.3,3.3c-0.8,1.1-4.8,3-6,4.1c-1.2,1.2-2.7,4-2,7.3
			c0.1,0.3,0.1,0.6,0.2,0.8c0.5,1.7,1.7,4.8,1.4,6.2c-0.3,1.7-4.6,14.1,5,17.5c2,0.7,2.8,2,3.1,4.1c0.2,1.5,0.6,3.1,1.4,4.8
			c0.9,1.8,2.6,2.8,2.7,3c0.6,0.5,3.3,3.3,3.5,3.7c3.4,6.3,2.5,9.4,9,11.6c1.7,0.6,3.3,1.3,4.8,2.2c1.8,1.1,3.8,2,5.9,2.6
			c0.1,0,0.2,0,0.3,0.1c1.4-3.5,2.9-6.8,4.4-10c-11.7-12-8.7-25.5-7.5-29.2c0.1-0.4,0.5-0.6,0.8-0.4c0.1,0,0.2,0.1,0.2,0.1
			c2.5,2.2,10,10,9.1,24c2.6-5.2,5.1-9.7,7.4-13.6c-8.5-14.4-2.2-27-0.2-30.3c0.2-0.3,0.6-0.4,0.9-0.2c0.1,0.1,0.2,0.1,0.2,0.2
			c1.7,2.6,6.4,11,3.5,23.1c2.1-3.2,3.8-5.6,4.9-7.1c3-20,18.2-26.6,22.1-28c0.4-0.1,0.7,0.1,0.9,0.4c0,0.1,0,0.2,0,0.3
			c-0.4,4.1-2.9,20.1-20.5,28.3c-2.1,2.8-4.1,5.7-6.1,8.7c6.7-5.2,16.1-7.7,23.9-5.8c0.4,0.1,0.6,0.4,0.5,0.8c0,0.1-0.1,0.2-0.1,0.3
			c-2.2,3-11.2,13-28,10.7c-2.8,4.8-5.5,9.7-7.8,14.3c7.3-5.5,17.9-7.6,26.1-4.8c0.4,0.1,0.6,0.5,0.4,0.9c0,0.1-0.1,0.2-0.1,0.3
			c-2.6,2.8-12.4,11.8-28.6,8.2c-1.5,3.2-3.8,8.5-4.9,11.1c-0.4,0.9-0.7,1.8-1,2.7c-0.7,2.1-1.7,4.8-2.8,7.4
			c-0.7,1.5,0.1,3.3,1.6,3.9c0.1,0,0.1,0.1,0.2,0.1c12.8,4.6,26.7,5.1,39.7,1.5c0.9-0.2,1.6-0.9,1.9-1.7c0.3-0.6,0.5-1.3,0.5-1.3
			s5.6-13.1,6.5-18.8c0.3-2.2,1-3.9,1.7-5.2c0.9-1.6,2.6-2.7,4.4-2.8c4.3-0.2,13.5-0.8,16.8-1.9c4.4-1.4,2.5-9.5,2.3-10.4
			c-0.2-0.9,2.1-2.9,2.6-4.1s-1.2-1.6-1.9-2.9c-0.7-1.3,1.7-2.2,2.1-3.4c0.3-1.2-0.8-2.5-1.2-3.3c-0.5-0.9-0.6-2-0.6-2
			s3.2-2.4,5-3.9S160.7,95.8,160.7,95.5"/>
	</g>
</g>
<path class="st1" d="M263.4-7.6"/>
</svg>
