<?xml version="1.0" encoding="utf-8"?>
<!-- Generator: Adobe Illustrator 26.4.1, SVG Export Plug-In . SVG Version: 6.00 Build 0)  -->
<svg version="1.1" id="Layer_1" xmlns="http://www.w3.org/2000/svg" xmlns:xlink="http://www.w3.org/1999/xlink" x="0px" y="0px"
	 viewBox="0 0 200 200" style="enable-background:new 0 0 200 200;" xml:space="preserve">
<style type="text/css">
	.st0{fill:url(#SVGID_1_);}
	.st1{fill-rule:evenodd;clip-rule:evenodd;fill:#FBD52E;}
	.st2{fill:#FFFFFF;}
	.st3{fill:#E50913;}
</style>
<g id="surface1">
	
		<linearGradient id="SVGID_1_" gradientUnits="userSpaceOnUse" x1="0" y1="-542.11" x2="200" y2="-542.11" gradientTransform="matrix(1 0 0 -1 0 -442.11)">
		<stop  offset="0" style="stop-color:#434343"/>
		<stop  offset="1" style="stop-color:#000000"/>
	</linearGradient>
	<path class="st0" d="M200,100c0,55.2-44.7,100-100,100S0,155.3,0,100S44.7,0,100,0S200,44.8,200,100z"/>
</g>
<path class="st1" d="M263.4-7.6"/>
<g>
	<path class="st2" d="M144.5,94c0.1,6.5-1.6,13-4.7,18.6c-3.4,5.8-8.3,10.5-14.3,13.5c-7.4,3.6-15.6,5.4-23.9,5.2H83.9v41.9H55.5
		V56.4h46c8.2-0.2,16.2,1.4,23.5,4.8c6,2.9,11.1,7.4,14.4,13.3C143,80.5,144.6,87.2,144.5,94z M99.4,108.6c4.4,0.4,8.8-1.1,12.1-3.8
		c2.5-3,4-6.8,4-10.8s-1.4-7.8-4-10.8c-3.4-2.8-7.7-4.2-12.1-3.8H83.9v29.3L99.4,108.6z"/>
	<path class="st3" d="M144.5,26.8h-89v18.7h88.9V26.8H144.5z"/>
</g>
</svg>
