<?xml version="1.0" encoding="utf-8"?>
<!-- Generator: Adobe Illustrator 26.4.1, SVG Export Plug-In . SVG Version: 6.00 Build 0)  -->
<svg version="1.1" id="Layer_1" xmlns="http://www.w3.org/2000/svg" xmlns:xlink="http://www.w3.org/1999/xlink" x="0px" y="0px"
	 viewBox="0 0 200 200" style="enable-background:new 0 0 200 200;" xml:space="preserve">
<style type="text/css">
	.st0{fill:url(#SVGID_1_);}
	.st1{fill-rule:evenodd;clip-rule:evenodd;fill:#FBD52E;}
	.st2{fill:#FFFFFF;}
	.st3{fill:#E50913;}
</style>
<g id="surface1">
	<linearGradient id="SVGID_1_" gradientUnits="userSpaceOnUse" x1="9.6802" y1="100.3205" x2="190.3198" y2="100.3205">
		<stop  offset="0" style="stop-color:#434343"/>
		<stop  offset="1" style="stop-color:#000000"/>
	</linearGradient>
	<path class="st0" d="M190.3,100.3c0,49.9-40.4,90.3-90.3,90.3S9.7,150.2,9.7,100.3S50.1,10,100,10S190.3,50.4,190.3,100.3z"/>
</g>
<path class="st1" d="M263.4-7.6"/>
<g>
	<path class="st2" d="M137,95c0.1,5.4-1.3,10.8-3.9,15.5c-2.8,4.8-6.9,8.7-11.9,11.2c-6.2,3-13,4.5-19.9,4.3H86.6v34.9H63V63.7h38.3
		c6.8-0.2,13.5,1.2,19.6,4c5,2.4,9.2,6.2,12,11.1C135.8,83.8,137.1,89.4,137,95z M99.5,107.2c3.7,0.3,7.3-0.9,10.1-3.2
		c2.1-2.5,3.3-5.7,3.3-9c0-3.3-1.2-6.5-3.3-9c-2.8-2.3-6.4-3.5-10.1-3.2H86.6v24.4L99.5,107.2z"/>
	<path class="st3" d="M137,39.1H63v15.6h74V39.1z"/>
</g>
</svg>
