<?xml version="1.0" encoding="UTF-8"?>
<svg xmlns="http://www.w3.org/2000/svg" xmlns:xlink="http://www.w3.org/1999/xlink" width="400px" height="400px" viewBox="0 0 400 400" version="1.1">
<defs>
<clipPath id="clip1">
  <path d="M 200 0 C 310.457031 0 400 89.542969 400 200 C 400 310.457031 310.457031 400 200 400 C 89.542969 400 0 310.457031 0 200 C 0 89.542969 89.542969 0 200 0 Z M 200 0 "/>
</clipPath>
<clipPath id="clip2">
  <path d="M 64 80 L 339 80 L 339 310 L 64 310 Z M 64 80 "/>
</clipPath>
<clipPath id="clip3">
  <path d="M 200 0 C 310.457031 0 400 89.542969 400 200 C 400 310.457031 310.457031 400 200 400 C 89.542969 400 0 310.457031 0 200 C 0 89.542969 89.542969 0 200 0 Z M 200 0 "/>
</clipPath>
</defs>
<g id="surface1">
<g clip-path="url(#clip1)" clip-rule="nonzero">
<rect x="0" y="0" width="400" height="400" style="fill:rgb(67.058824%,62.352941%,94.901961%);fill-opacity:1;stroke:none;"/>
</g>
<g clip-path="url(#clip2)" clip-rule="nonzero">
<g clip-path="url(#clip3)" clip-rule="nonzero">
<path style=" stroke:none;fill-rule:evenodd;fill:rgb(100%,99.215686%,97.254902%);fill-opacity:1;" d="M 174.074219 254.9375 C 158.367188 279.003906 132.050781 309.460938 97.03125 309.460938 C 80.476562 309.460938 64.558594 302.644531 64.558594 273.039062 C 64.558594 197.648438 167.492188 80.9375 263 80.9375 C 317.335938 80.9375 338.984375 118.632812 338.984375 161.441406 C 338.984375 216.390625 303.328125 279.214844 267.882812 279.214844 C 256.632812 279.214844 251.117188 273.039062 251.117188 263.242188 C 251.117188 260.6875 251.539062 257.917969 252.390625 254.9375 C 240.292969 275.597656 216.945312 294.765625 195.085938 294.765625 C 179.167969 294.765625 171.101562 284.753906 171.101562 270.699219 C 171.101562 265.585938 172.164062 260.261719 174.074219 254.9375 Z M 256.34375 159.957031 C 256.34375 172.429688 248.984375 178.667969 240.753906 178.667969 C 232.394531 178.667969 225.160156 172.429688 225.160156 159.957031 C 225.160156 147.484375 232.394531 141.246094 240.753906 141.246094 C 248.984375 141.246094 256.34375 147.484375 256.34375 159.957031 Z M 303.121094 159.957031 C 303.121094 172.429688 295.761719 178.667969 287.53125 178.667969 C 279.171875 178.667969 271.9375 172.429688 271.9375 159.957031 C 271.9375 147.484375 279.171875 141.246094 287.53125 141.246094 C 295.761719 141.246094 303.121094 147.484375 303.121094 159.957031 Z M 303.121094 159.957031 "/>
</g>
</g>
</g>
</svg>
