<?xml version="1.0" encoding="UTF-8"?>
<svg xmlns="http://www.w3.org/2000/svg" xmlns:xlink="http://www.w3.org/1999/xlink" width="400px" height="400px" viewBox="0 0 400 400" version="1.1">
<g id="surface1">
<path style=" stroke:none;fill-rule:nonzero;fill:rgb(29.019608%,12.941176%,93.72549%);fill-opacity:1;" d="M 175.359375 0 C 163.199219 0 151.519531 4.800781 142.878906 13.441406 L 7.679688 148.640625 C 2.558594 153.761719 0 160.480469 0 167.199219 C 0 173.921875 2.558594 180.640625 7.679688 185.761719 L 96.320312 274.398438 L 96.320312 117.601562 C 96.320312 105.921875 105.761719 96.480469 117.441406 96.480469 C 166.878906 96.480469 287.359375 96.480469 303.679688 96.480469 L 400 0.160156 L 175.359375 0.160156 Z M 175.359375 0 "/>
<path style=" stroke:none;fill-rule:nonzero;fill:rgb(29.019608%,12.941176%,93.72549%);fill-opacity:1;" d="M 96.320312 303.679688 L 282.558594 303.679688 C 294.238281 303.679688 303.679688 294.238281 303.679688 282.558594 L 303.679688 125.761719 L 392.320312 214.398438 C 397.441406 219.519531 400 226.238281 400 232.960938 C 400 239.679688 397.441406 246.398438 392.320312 251.519531 L 257.121094 386.71875 C 248.480469 395.359375 236.800781 400.160156 224.640625 400.160156 L 0 400.160156 L 96.320312 303.839844 Z M 96.320312 303.679688 "/>
</g>
</svg>
