<?xml version="1.0" encoding="UTF-8"?>
<svg id="Layer_1" data-name="Layer 1" xmlns="http://www.w3.org/2000/svg" version="1.1" viewBox="0 0 500 500">
  <defs>
    <style>
      .cls-1 {
        fill: #fdfdfd;
      }

      .cls-1, .cls-2, .cls-3 {
        stroke-width: 0px;
      }

      .cls-2 {
        fill: #ec7c35;
      }

      .cls-3 {
        fill: #000;
      }
    </style>
  </defs>
  <circle class="cls-3" cx="250" cy="250" r="250"/>
  <g>
    <path class="cls-1" d="M296.9,243.7c14.6,15.4,29.6,30.3,44.9,45,10.1,10.3,20.2,20.7,30.4,30.8,3.1,3,4.4,6.3,4.4,10.6-.2,13.5,0,27,0,40.4,0,5.6-1.2,6.7-6.7,6.8-12.6,0-25.2,0-37.9,0-3.8,0-6.6-1.2-9.2-3.9-22.2-22.4-44.6-44.7-66.9-67.1-4.9-4.9-5.9-4.9-10.8,0-11.1,11.2-22.2,22.4-33.5,33.5-2.6,2.6-3.7,5.2-3.6,8.8.2,7,0,14,0,21,0,6.7-.8,7.5-7.4,7.5-20.1,0-40.2.2-60.3.3-3.3,0-6.6-.2-9.9-.3-7.5,0-8-.5-8-7.8,0-13.1.1-26.3,0-39.4,0-4.2,1.1-7.1,4.1-10.1,22.3-22.1,44.4-44.3,66.5-66.5,4.6-4.6,4.6-5.4-.1-10.1-14-14-28.1-27.9-42.2-41.9-8.1-8.3-16.2-16.6-24.5-24.8-2.7-2.6-3.9-5.5-3.9-9.3.1-12.8.1-25.6,0-38.4,0-4.4,1.6-6.4,6.1-6.3,14.3.1,28.6,0,42.8,0,3,0,5.4,1,7.5,3.2,3.4,3.4,6.9,6.7,10.4,10,14.5,14.7,28.9,29.3,43.4,44,20.2,20.3,40.4,40.5,60.6,60.7,1.2,1.2,2.4,2.2,3.7,3.3Z"/>
    <path class="cls-2" d="M363.8,122.5c2.8,0,5.6.2,8.4.2,3.7,0,5.5,1.9,5.5,5.6,0,14.6,0,29.2,0,43.9,0,2.3-1.1,4-2.7,5.6-16.7,16.6-33.3,33.3-49.9,50-1.9,1.9-3.7,4.5-6.6,3.3-3-1.2-2.2-4.5-2.4-7,0-1.8-.1-3.6-.2-5.5,0-9.5,0-19,.3-28.5.1-4.6-2-6.3-6.3-6.3-11.3,0-22.6,0-33.9,0-2.5,0-5.2.3-6.4-2.7-1.2-2.8.9-4.3,2.5-6,16.2-16.3,32.5-32.5,48.6-48.8,2.8-2.9,5.8-3.9,9.8-3.8,11.1.1,22.3,0,33.4,0Z"/>
  </g>
</svg>