<?xml version="1.0" encoding="UTF-8"?>
<svg xmlns="http://www.w3.org/2000/svg" xmlns:xlink="http://www.w3.org/1999/xlink" width="200px" height="px" viewBox="0 0 200 200" version="1.1">
<g id="surface1">
<path style=" stroke:none;fill-rule:evenodd;fill:rgb(95.686275%,83.529412%,2.745098%);fill-opacity:1;" d="M 106.222656 31.609375 C 107.75 34.816406 108.105469 40.167969 107.292969 47.671875 C 107.933594 46.464844 108.660156 45.359375 109.46875 44.355469 C 115.449219 36.9375 122.5 43.347656 123.117188 48.722656 C 123.433594 51.480469 121.773438 56.152344 118.136719 62.738281 C 145.21875 67.875 170.226562 85.09375 181.503906 104.59375 C 192.363281 123.371094 193.71875 149.582031 197.457031 173.089844 L 176.984375 173.089844 C 176.417969 169.34375 175.789062 165.03125 175.132812 159.894531 C 171.582031 132.097656 163.820312 112.882812 149.957031 102.164062 C 137.046875 92.183594 122.199219 86.613281 106.546875 86.410156 L 104.804688 86.410156 C 104.222656 86.417969 103.640625 86.433594 103.058594 86.457031 C 86.125 87.097656 56.230469 92.324219 43.808594 120.953125 C 36.933594 136.792969 33.789062 155.460938 32.671875 173.089844 L 0.390625 173.085938 C 3.632812 150.761719 6.597656 126.902344 17.058594 104.59375 C 28.34375 80.53125 50.886719 68.496094 75.355469 63.726562 C 71.910156 58.847656 70.027344 54.171875 69.707031 49.710938 C 69.023438 40.207031 78.554688 40.085938 82.671875 43.597656 C 83.640625 44.425781 84.589844 45.921875 85.511719 48.085938 C 84.742188 41.964844 85.21875 37.265625 86.9375 33.984375 C 91.882812 24.539062 102.191406 23.128906 106.222656 31.609375 Z M 130.152344 132.445312 C 133.09375 132.445312 135.476562 134.828125 135.476562 137.765625 L 135.476562 150.347656 C 135.476562 153.285156 133.09375 155.667969 130.152344 155.667969 C 127.214844 155.667969 124.832031 153.285156 124.832031 150.347656 L 124.832031 137.765625 C 124.832031 134.828125 127.214844 132.445312 130.152344 132.445312 Z M 84.671875 132.445312 C 87.613281 132.445312 89.996094 134.828125 89.996094 137.765625 L 89.996094 150.347656 C 89.996094 153.285156 87.613281 155.667969 84.671875 155.667969 C 81.734375 155.667969 79.351562 153.285156 79.351562 150.347656 L 79.351562 137.765625 C 79.351562 134.828125 81.734375 132.445312 84.671875 132.445312 Z M 84.671875 132.445312 "/>
</g>
</svg>
