<?xml version="1.0" encoding="utf-8"?>
<!-- Generator: Adobe Illustrator 26.4.1, SVG Export Plug-In . SVG Version: 6.00 Build 0)  -->
<svg version="1.1" id="Layer_1" xmlns="http://www.w3.org/2000/svg" xmlns:xlink="http://www.w3.org/1999/xlink" x="0px" y="0px"
	 viewBox="0 0 200 200" style="enable-background:new 0 0 200 200;" xml:space="preserve">
<style type="text/css">
	.st0{fill-rule:evenodd;clip-rule:evenodd;fill:#E84242;}
	.st1{fill-rule:evenodd;clip-rule:evenodd;fill:#FFFFFF;}
</style>
<circle class="st0" cx="100" cy="100" r="100"/>
<path class="st1" d="M69.9,143.1H49.1c-4.3,0-6.5,0-7.7-0.9c-1.5-0.9-2.3-2.4-2.3-4.1c-0.1-1.6,1-3.4,3.1-7.2l51.1-90
	c2.2-3.7,3.3-5.7,4.7-6.4c1.5-0.8,3.3-0.8,4.8,0c1.5,0.7,2.4,2.7,4.7,6.4L118,59.2v0.1c2.3,4.1,3.6,6.2,4.1,8.4
	c0.5,2.3,0.5,4.9,0,7.3c-0.5,2.2-1.7,4.3-4.1,8.4l-26.8,47.4l-0.1,0.1c-2.3,4.1-3.6,6.2-5.2,7.7c-1.7,1.7-4,3-6.4,3.7
	C77,143.1,74.6,143.1,69.9,143.1z"/>
<path class="st1" d="M122.1,143.1h29.6c4.3,0,6.5,0,7.8-0.9c1.5-0.9,2.3-2.4,2.3-4.1c0.1-1.5-1-3.3-3-6.9c-0.1-0.1-0.1-0.3-0.3-0.3
	l-14.9-25.4l-0.3-0.3c-2.1-3.6-3.1-5.3-4.5-6c-1.5-0.8-3.2-0.8-4.8,0c-1.3,0.7-2.4,2.5-4.7,6.4l-14.6,25.3v0.1
	c-2.2,3.7-3.2,5.7-3.2,7.1c0.1,1.7,1,3.2,2.3,4.1C115.4,143.1,117.6,143.1,122.1,143.1z"/>
</svg>
