<?xml version="1.0" encoding="UTF-8"?>
<svg xmlns="http://www.w3.org/2000/svg" xmlns:xlink="http://www.w3.org/1999/xlink" width="200px" height="px" viewBox="0 0 200 200" version="1.1">
<g id="surface1">
<path style=" stroke:none;fill-rule:nonzero;fill:rgb(100%,100%,100%);fill-opacity:1;" d="M 38.191406 34.308594 L 161.675781 34.308594 L 161.675781 146.542969 L 38.191406 146.542969 Z M 38.191406 34.308594 "/>
<path style=" stroke:none;fill-rule:evenodd;fill:rgb(90.980392%,25.490196%,25.882353%);fill-opacity:1;" d="M 199.933594 100 C 199.933594 155.15625 155.191406 199.867188 100 199.867188 C 44.808594 199.867188 0.0664062 155.15625 0.0664062 100 C 0.0664062 44.84375 44.808594 0.132812 100 0.132812 C 155.191406 0.132812 199.933594 44.84375 199.933594 100 Z M 71.683594 139.742188 L 52.289062 139.742188 C 48.210938 139.742188 46.199219 139.742188 44.972656 138.957031 C 43.644531 138.097656 42.835938 136.675781 42.738281 135.105469 C 42.664062 133.660156 43.671875 131.890625 45.683594 128.359375 L 93.570312 44.007812 C 95.609375 40.425781 96.640625 38.632812 97.941406 37.972656 C 99.339844 37.261719 101.007812 37.261719 102.410156 37.972656 C 103.710938 38.632812 104.742188 40.425781 106.777344 44.007812 L 116.621094 61.179688 L 116.671875 61.269531 C 118.875 65.109375 119.988281 67.058594 120.476562 69.105469 C 121.015625 71.335938 121.015625 73.691406 120.476562 75.925781 C 119.984375 77.984375 118.882812 79.949219 116.648438 83.847656 L 91.492188 128.285156 L 91.429688 128.398438 C 89.214844 132.273438 88.089844 134.238281 86.535156 135.71875 C 84.839844 137.335938 82.804688 138.515625 80.570312 139.179688 C 78.53125 139.742188 76.246094 139.742188 71.683594 139.742188 Z M 120.660156 139.742188 L 148.449219 139.742188 C 152.546875 139.742188 154.609375 139.742188 155.839844 138.933594 C 157.164062 138.074219 158 136.625 158.074219 135.058594 C 158.144531 133.65625 157.160156 131.957031 155.230469 128.632812 C 155.164062 128.519531 155.097656 128.402344 155.027344 128.285156 L 141.109375 104.488281 L 140.949219 104.21875 C 138.992188 100.914062 138.007812 99.246094 136.738281 98.601562 C 135.339844 97.886719 133.695312 97.886719 132.296875 98.601562 C 131.019531 99.261719 129.988281 101.003906 127.949219 104.511719 L 114.078125 128.308594 L 114.03125 128.390625 C 112 131.894531 110.988281 133.644531 111.058594 135.082031 C 111.15625 136.652344 111.96875 138.097656 113.292969 138.957031 C 114.496094 139.742188 116.558594 139.742188 120.660156 139.742188 Z M 120.660156 139.742188 "/>
</g>
</svg>
