<?xml version="1.0" encoding="utf-8"?>
<!-- Generator: Adobe Illustrator 26.4.1, SVG Export Plug-In . SVG Version: 6.00 Build 0)  -->
<svg version="1.1" id="Layer_1" xmlns="http://www.w3.org/2000/svg" xmlns:xlink="http://www.w3.org/1999/xlink" x="0px" y="0px"
	 viewBox="0 0 200 200" style="enable-background:new 0 0 200 200;" xml:space="preserve">
<style type="text/css">
	.st0{fill:#ED6D54;}
	.st1{fill-rule:evenodd;clip-rule:evenodd;fill:#FBD52E;}
	.st2{fill:#FFFFFF;}
</style>
<circle class="st0" cx="100.9" cy="100" r="95.6"/>
<path class="st1" d="M263.4-7.6"/>
<g id="surface1">
	<path class="st2" d="M150.5,63.7c-8-8.2-17.9-15.4-27.7-20.9C98,28.8,72.3,23.6,60.2,30.1c-5.9,3.2-10.3,9.3-13.4,18.8
		c-9.1,8.9-13.6,27.9-14.1,58.7c-0.5,31.9,4.9,52,16.1,59.8c5.2,3.6,12.8,5.4,22,5.4c10.5,0,22.8-2.3,35.6-6.9
		c0.9-0.3,1.9-0.7,2.8-1c5.6-1.2,11-2.8,16.3-4.7c35.3-12.8,50.2-33,52.2-47.7C180.4,94.3,167.3,76.9,150.5,63.7z M69.2,160.3
		c-2-1.4-3.6-3-5-4.9c4.3,1.4,9.5,2.1,15.3,2.1c10.5,0,22.8-2.3,35.6-6.9c17.9-6.5,30.6-14.9,38.9-23.5
		c-5.7,12.2-19.7,26.2-45.5,36.1C91.8,166.7,77.3,165.8,69.2,160.3z M114.4,149c-20.7,7.5-40.3,8.8-51.8,3.9
		c-6.2-10.1-9.1-27.2-8.7-51.1c0.5-30.1,5-49.1,13.7-57.7c12.6,0.6,29.3,5.9,45.7,15.1c23.3,13.1,46.9,35.4,43.7,58.5
		c-0.2,1.5-0.6,3.1-1,4.6C147.8,132.1,134.5,141.8,114.4,149z M52.7,46.7c3.2-1.7,7.4-2.5,12.4-2.6c-8.4,9.3-12.6,28-13.1,57.7
		c-0.4,22.4,2.2,39,7.7,49.6c-0.3-0.2-0.6-0.4-0.9-0.6c-10.7-7.4-15.9-27.1-15.4-58.4c0.3-18.3,2.1-32.5,5.4-42.7
		C49.8,48.5,51.2,47.5,52.7,46.7z M114.2,57.9c-15.9-9-32.2-14.3-45-15.2c0.8-0.6,1.6-1.2,2.5-1.7c3.3-1.8,7.6-2.6,12.7-2.6
		c12.9,0,30.6,5.4,47.9,15.2c6,3.4,11.6,7.1,16.9,11.3c10.9,11.2,18.1,24.4,16.2,37.8c-0.7,4.9-2.9,10.4-6.8,16.1
		c0-0.2,0.1-0.5,0.1-0.7C162.1,94.1,138,71.3,114.2,57.9z M61.2,31.5c3.3-1.8,7.6-2.6,12.7-2.6c12.9,0,30.6,5.4,47.9,15.2
		c5.8,3.3,11.3,6.9,16.4,10.9c-1.6-1-3.2-2-4.9-2.9c-24.8-14-50.5-19.2-62.6-12.6c-1.5,0.8-2.9,1.8-4.1,3c-6-0.2-11.2,0.7-15,2.8
		c-0.7,0.4-1.3,0.7-1.9,1.2C52.6,39.1,56.5,34.1,61.2,31.5z M50.1,166c-10.7-7.4-15.9-27.1-15.4-58.4c0.4-26.7,4-44.7,10.9-54.4
		c-2.6,9.9-4,22.9-4.2,39.2c-0.5,31.9,4.9,52,16.1,59.8c1.2,0.8,2.4,1.5,3.7,2c2,3.1,4.2,5.6,6.8,7.4c5.2,3.6,12.8,5.4,22,5.4
		c3.1,0,6.1-0.2,9.1-0.6C78.5,172.7,59.7,172.6,50.1,166z M176,112.1c-2,14.2-16.5,33.9-51.1,46.4c-1.8,0.6-3.5,1.2-5.3,1.8
		c22.6-11,34.2-25.2,38-37.1c5.8-7.1,8.9-14.1,9.7-20.2c1.5-10.5-2.3-20.7-9.1-30.1C170,84.4,178,98.1,176,112.1z"/>
</g>
</svg>
