<?xml version="1.0" encoding="utf-8"?>
<!-- Generator: Adobe Illustrator 26.4.1, SVG Export Plug-In . SVG Version: 6.00 Build 0)  -->
<svg version="1.1" id="Layer_1" xmlns="http://www.w3.org/2000/svg" xmlns:xlink="http://www.w3.org/1999/xlink" x="0px" y="0px"
	 viewBox="0 0 200 200" style="enable-background:new 0 0 200 200;" xml:space="preserve">
<style type="text/css">
	.st0{fill:url(#SVGID_1_);}
	.st1{clip-path:url(#SVGID_00000069360539382237916870000005499330326581766812_);}
	.st2{fill-rule:evenodd;clip-rule:evenodd;fill:url(#SVGID_00000183944260540118401800000001714708859653732486_);}
	.st3{fill:none;}
	.st4{fill:url(#SVGID_00000161626600644970074350000001311765974671569065_);}
	.st5{fill:url(#SVGID_00000018228832966437961080000015542578657264383371_);}
	.st6{fill:url(#SVGID_00000062191088319051389030000015990312405215391158_);}
	.st7{fill:url(#SVGID_00000150823178675859685920000013910438075421942144_);}
	.st8{fill-rule:evenodd;clip-rule:evenodd;fill:#FBD52E;}
</style>
<g id="Layer_x0020_1">
	<g id="_2090755387392">
		
			<linearGradient id="SVGID_1_" gradientUnits="userSpaceOnUse" x1="100" y1="1855.4668" x2="100" y2="1656.3131" gradientTransform="matrix(1 0 0 -1 0 1855.89)">
			<stop  offset="0" style="stop-color:#F89791"/>
			<stop  offset="1" style="stop-color:#F7C882"/>
		</linearGradient>
		<path class="st0" d="M100,0.4L100,0.4c55,0,99.6,44.6,99.6,99.6l0,0c0,55-44.6,99.6-99.6,99.6l0,0C45,199.6,0.4,155,0.4,100l0,0
			C0.4,45,45,0.4,100,0.4z"/>
		<g>
			<g>
				<g>
					<defs>
						<path id="SVGID_00000008119987468138204070000008205291075451614355_" d="M99.9,117.4L57.5,93.1l-1.1,1.8
							c-13,20-10.1,46.3,7,63.1c20.2,19.8,53,19.8,73.2,0c17.1-16.8,20-43.1,7-63.1l-1.1-1.8L99.9,117.4z"/>
					</defs>
					<clipPath id="SVGID_00000036963694832670036400000015167070844574284720_">
						<use xlink:href="#SVGID_00000008119987468138204070000008205291075451614355_"  style="overflow:visible;"/>
					</clipPath>
					<g style="clip-path:url(#SVGID_00000036963694832670036400000015167070844574284720_);">
						<g>
							
								<radialGradient id="SVGID_00000124846321134348926480000006879724106235993479_" cx="5123.0503" cy="-21.767" r="45.269" gradientTransform="matrix(-1.242690e-02 -1.5265 -1.8194 2.651850e-02 123.8868 7985.9028)" gradientUnits="userSpaceOnUse">
								<stop  offset="0" style="stop-color:#C5C6AB"/>
								<stop  offset="1" style="stop-color:#7985AB"/>
							</radialGradient>
							
								<circle style="fill-rule:evenodd;clip-rule:evenodd;fill:url(#SVGID_00000124846321134348926480000006879724106235993479_);" cx="99.9" cy="122.6" r="51.7"/>
						</g>
					</g>
				</g>
			</g>
		</g>
		<path class="st3" d="M99.9,117.4L57.5,93.1l-1.1,1.8c-13,20-10.1,46.3,7,63.1c20.2,19.8,53,19.8,73.2,0c17.1-16.8,20-43.1,7-63.1
			l-1.1-1.8L99.9,117.4z"/>
		
			<radialGradient id="SVGID_00000127736342222980015910000010680512260884135571_" cx="99.9238" cy="1771.7415" r="1.829" gradientTransform="matrix(1 0 0 -1 0 1855.89)" gradientUnits="userSpaceOnUse">
			<stop  offset="0" style="stop-color:#0066FF;stop-opacity:0"/>
			<stop  offset="1" style="stop-color:#00C2FF;stop-opacity:0.4"/>
		</radialGradient>
		<polygon style="fill:url(#SVGID_00000127736342222980015910000010680512260884135571_);" points="99.9,63.3 63.3,84.1 99.9,105 
			136.5,84.1 		"/>
		
			<radialGradient id="SVGID_00000022562967007815541540000006324010775823957907_" cx="99.8857" cy="1762.8629" r="2.1345" gradientTransform="matrix(1 0 0 -1 0 1855.89)" gradientUnits="userSpaceOnUse">
			<stop  offset="0" style="stop-color:#AEE6F9;stop-opacity:0.8588"/>
			<stop  offset="1" style="stop-color:#C8D6DC"/>
		</radialGradient>
		<polygon style="fill:url(#SVGID_00000022562967007815541540000006324010775823957907_);" points="100,68.7 57.5,93.1 99.9,117.4 
			142.3,93.1 		"/>
		
			<linearGradient id="SVGID_00000033334525514602309650000014857761227153881490_" gradientUnits="userSpaceOnUse" x1="81.6333" y1="1831.6428" x2="81.6333" y2="1755.4325" gradientTransform="matrix(1 0 0 -1 0 1855.89)">
			<stop  offset="0" style="stop-color:#77D4FF"/>
			<stop  offset="1" style="stop-color:#93D6F2;stop-opacity:0.898"/>
		</linearGradient>
		<polygon style="fill:url(#SVGID_00000033334525514602309650000014857761227153881490_);" points="99.9,28.1 63.3,84.1 99.9,105 		
			"/>
		
			<linearGradient id="SVGID_00000180356540484481936000000008308789101178364080_" gradientUnits="userSpaceOnUse" x1="118.2143" y1="1831.6428" x2="118.2143" y2="1755.4325" gradientTransform="matrix(1 0 0 -1 0 1855.89)">
			<stop  offset="0" style="stop-color:#506AAC"/>
			<stop  offset="1" style="stop-color:#96CFEF;stop-opacity:0.8196"/>
		</linearGradient>
		<polygon style="fill:url(#SVGID_00000180356540484481936000000008308789101178364080_);" points="99.9,105 136.5,84.1 99.9,28.1 
					"/>
	</g>
</g>
<path class="st8" d="M99,100.7"/>
</svg>
