<?xml version="1.0" encoding="UTF-8"?>
<svg id="Layer_1" data-name="Layer 1" xmlns="http://www.w3.org/2000/svg" version="1.1" viewBox="0 0 200 200">
  <defs>
    <style>
      .cls-1 {
        fill: #65c2f3;
      }

      .cls-1, .cls-2 {
        stroke-width: 0px;
      }

      .cls-2 {
        fill: #000;
        fill-rule: evenodd;
      }
    </style>
  </defs>
  <path class="cls-2" d="M99.8,199.3c55,0,99.6-44.6,99.6-99.6S154.9,0,99.8,0,.2,44.6.2,99.6s44.6,99.6,99.6,99.6h0Z"/>
  <g>
    <path class="cls-1" d="M143.1,105c4.5,0,8.9,0,13.4,0,4.7-.1,7.5,3.8,6.3,8.2-2.4,9.3-6.3,17.8-12.2,25.5-5.4,7-11.9,12.6-19.5,17.1-5.8,3.4-12,5.7-18.5,7.2-4.1,1-7.2-1.2-7.6-5.4,0-.6-.1-1.2-.1-1.8,0-8.5,0-17.1,0-25.6,0-2.3.7-4.3,2.4-5.9,5.7-5.7,11.4-11.4,17.1-17.1,1.5-1.5,3.2-2.1,5.3-2.1,4.5,0,8.9,0,13.4,0ZM114.5,142.2c0,3,0,6,0,9,0,1.1.2,1.2,1.2.9,7-2.3,13.2-5.8,18.9-10.5,8.3-6.9,14.1-15.5,17.6-25.7.4-1.1.3-1.4-1-1.4-5.7,0-11.3,0-17,0-2.5,0-4.5.8-6.2,2.5-3.7,3.7-7.4,7.4-11.2,11.2-1.6,1.6-2.4,3.5-2.3,5.8,0,2.8,0,5.5,0,8.3Z"/>
    <path class="cls-1" d="M143.1,95c-4.5,0-8.9,0-13.4,0-2.1,0-3.9-.7-5.4-2.2-5.6-5.7-11.3-11.4-17-17-1.6-1.5-2.3-3.3-2.3-5.5,0-9,0-17.9,0-26.9,0-4.8,3.8-7.3,8-6.2,9.3,2.3,17.8,6.2,25.4,12,9.6,7.4,16.7,16.7,21.3,27.9,1.3,3.3,2.3,6.7,3.2,10.1,1.1,4.3-1.5,7.7-6,7.8-4.6,0-9.2,0-13.8,0ZM114.5,57.8c0,2.9,0,5.7,0,8.6,0,2,.6,3.6,2,5,4,4,8,8,12,12,1.5,1.5,3.2,2.1,5.3,2.1,5.8,0,11.5,0,17.3,0,1.5,0,1.5-.4,1.1-1.6-3.1-8.9-8-16.7-14.9-23.2-6.2-5.8-13.2-10-21.3-12.7-1.1-.4-1.5-.4-1.4,1,0,3,0,5.9,0,8.9Z"/>
    <path class="cls-1" d="M56.9,95c-4.5,0-9,0-13.5,0-4.7,0-7.2-3.3-6.1-7.9,2.1-9.3,6.1-17.9,11.9-25.4,7.6-9.8,17.1-17.1,28.8-21.6,3.2-1.2,6.4-2.2,9.7-3,3.9-.9,7.3,1.5,7.4,5.6.1,4.3,0,8.6,0,12.9,0,4.9,0,9.8,0,14.7,0,2.1-.7,3.9-2.2,5.4-5.7,5.7-11.4,11.3-17,17-1.5,1.5-3.3,2.3-5.5,2.3-4.5,0-8.9,0-13.4,0ZM58,85.4c2.8,0,5.5,0,8.3,0,2.2,0,4-.7,5.6-2.3,3.8-3.9,7.6-7.7,11.5-11.5,1.5-1.5,2.2-3.2,2.2-5.2,0-5.9,0-11.7,0-17.6,0-1.2-.4-1.2-1.4-.9-4.6,1.6-8.9,3.6-12.9,6.2-11.3,7.3-19,17.3-23.3,30-.4,1.3,0,1.4,1.1,1.4,3,0,6,0,9,0Z"/>
    <path class="cls-1" d="M95,143.1c0,4.5-.1,8.9,0,13.4.2,4-3.1,7.7-8.1,6.4-13.7-3.5-25.4-10.2-34.8-20.8-7.7-8.7-12.7-18.7-15.2-30-.7-3.2,1.6-6.4,4.9-6.8.7-.1,1.5-.2,2.2-.2,8.6,0,17.3,0,25.9,0,2.3,0,4.2.8,5.9,2.4,5.6,5.7,11.2,11.3,16.9,16.9,1.5,1.5,2.3,3.2,2.2,5.4,0,4.5,0,8.9,0,13.4ZM57.8,114.5c-2.8,0-5.6,0-8.4,0-1.9,0-1.9,0-1.3,1.9,1.2,3.3,2.5,6.5,4.3,9.5,7.4,12.7,18,21.5,31.9,26.2,1.1.4,1.3.2,1.3-1,0-5.8,0-11.5,0-17.3,0-2.2-.7-4-2.2-5.5-3.8-3.8-7.7-7.6-11.5-11.5-1.6-1.6-3.4-2.3-5.6-2.3-2.8,0-5.6,0-8.4,0Z"/>
  </g>
</svg>