<?xml version="1.0" encoding="utf-8"?>
<!-- Generator: Adobe Illustrator 26.4.1, SVG Export Plug-In . SVG Version: 6.00 Build 0)  -->
<svg version="1.1" id="Layer_1" xmlns="http://www.w3.org/2000/svg" xmlns:xlink="http://www.w3.org/1999/xlink" x="0px" y="0px"
	 viewBox="0 0 200 200" style="enable-background:new 0 0 200 200;" xml:space="preserve">
<style type="text/css">
	.st0{fill:#F7931A;}
	.st1{fill:#FFFFFF;}
</style>
<g id="surface1">
	<path class="st0" d="M191.9,122.9c-12.5,50.3-63.4,80.8-113.7,68.3C27.9,178.7-2.6,127.8,9.9,77.5C22.4,27.3,73.3-3.3,123.6,9.2
		C173.9,21.7,204.4,72.6,191.9,122.9z"/>
	<path class="st1" d="M142.3,86.8c1.9-12.5-7.6-19.2-20.6-23.7l4.2-16.9l-10.3-2.6l-4.1,16.5c-2.7-0.7-5.5-1.3-8.2-1.9l4.1-16.6
		l-10.3-2.6L92.8,56c-2.2-0.5-4.4-1-6.6-1.5l0-0.1l-14.2-3.5l-2.7,11c0,0,7.6,1.8,7.5,1.9c4.2,1,4.9,3.8,4.8,6l-4.8,19.3
		c0.3,0.1,0.7,0.2,1.1,0.3c-0.3-0.1-0.7-0.2-1.1-0.3l-6.7,27c-0.5,1.3-1.8,3.2-4.7,2.4c0.1,0.2-7.5-1.9-7.5-1.9l-5.1,11.8l13.4,3.3
		c2.5,0.6,4.9,1.3,7.3,1.9l-4.3,17.1l10.3,2.6l4.2-16.9c2.8,0.8,5.5,1.5,8.2,2.1l-4.2,16.8l10.3,2.6l4.3-17.1
		c17.6,3.3,30.8,2,36.3-13.9c4.5-12.8-0.2-20.2-9.5-25C135.9,100.4,140.9,96,142.3,86.8L142.3,86.8z M118.8,119.8
		c-3.2,12.8-24.7,5.9-31.7,4.1l5.7-22.7C99.7,103,122.1,106.5,118.8,119.8z M121.9,86.6c-2.9,11.6-20.8,5.7-26.6,4.3l5.1-20.6
		C106.2,71.8,125,74.5,121.9,86.6z"/>
</g>
</svg>
