<?xml version="1.0" encoding="utf-8"?>
<!-- Generator: Adobe Illustrator 26.4.1, SVG Export Plug-In . SVG Version: 6.00 Build 0)  -->
<svg version="1.1" id="Layer_1" xmlns="http://www.w3.org/2000/svg" xmlns:xlink="http://www.w3.org/1999/xlink" x="0px" y="0px"
	 viewBox="0 0 200 200" style="enable-background:new 0 0 200 200;" xml:space="preserve">
<style type="text/css">
	.st0{fill:#F7931A;}
	.st1{fill:#FFFFFF;}
</style>
<g id="surface1">
	<path class="st0" d="M196.8,124.1c-13.3,53.5-67.5,86-120.9,72.7s-86-67.5-72.7-120.9c13.3-53.4,67.5-86,120.9-72.7
		S210.1,70.5,196.8,124.1z"/>
	<path class="st1" d="M151.1,83.8c2.3-15.3-9.3-23.5-25.2-29l5.1-20.6L118.5,31l-5,20.1c-3.3-0.8-6.7-1.6-10-2.3l5-20.2l-12.6-3.2
		l-5.2,20.7c-2.7-0.6-5.3-1.2-8.1-1.8v-0.1l-17.3-4.2L62,53.4c0,0,9.3,2.2,9.2,2.3c5.1,1.2,5.9,4.6,5.8,7.3l-5.8,23.6
		c0.4,0.1,0.8,0.2,1.3,0.4c-0.4-0.1-0.8-0.2-1.3-0.4l-8.3,33c-0.6,1.6-2.2,3.9-5.7,2.9c0.1,0.2-9.2-2.3-9.2-2.3l-6.2,14.4l16.4,4
		c3,0.7,5.9,1.6,9,2.3l-5.2,20.8l12.6,3.2l5.1-20.6c3.4,1,6.7,1.8,10,2.5l-5.1,20.5l12.6,3.2l5.2-20.8c21.5,4,37.7,2.4,44.3-17
		c5.5-15.6-0.2-24.7-11.6-30.5C143.3,100.5,149.4,95.1,151.1,83.8L151.1,83.8z M122.4,124.2c-3.9,15.6-30.2,7.2-38.8,5l6.9-27.7
		C99.1,103.7,126.4,107.9,122.4,124.2z M126.2,83.6c-3.5,14.2-25.4,6.9-32.5,5.2l6.2-25.2C107,65.5,130,68.8,126.2,83.6z"/>
</g>
</svg>
