<?xml version="1.0" encoding="UTF-8"?>
<svg xmlns="http://www.w3.org/2000/svg" xmlns:xlink="http://www.w3.org/1999/xlink" width="400px" height="400px" viewBox="0 0 400 400" version="1.1">
<g id="surface1">
<rect x="0" y="0" width="400" height="400" style="fill:rgb(0%,32.156863%,100%);fill-opacity:1;stroke:none;"/>
<path style=" stroke:none;fill-rule:evenodd;fill:rgb(100%,100%,100%);fill-opacity:1;" d="M 59.375 200 C 59.375 277.664062 122.335938 340.625 200 340.625 C 277.664062 340.625 340.625 277.664062 340.625 200 C 340.625 122.335938 277.664062 59.375 200 59.375 C 122.335938 59.375 59.375 122.335938 59.375 200 Z M 164.0625 154.6875 C 158.882812 154.6875 154.6875 158.882812 154.6875 164.0625 L 154.6875 235.9375 C 154.6875 241.117188 158.882812 245.3125 164.0625 245.3125 L 235.9375 245.3125 C 241.117188 245.3125 245.3125 241.117188 245.3125 235.9375 L 245.3125 164.0625 C 245.3125 158.882812 241.117188 154.6875 235.9375 154.6875 Z M 164.0625 154.6875 "/>
</g>
</svg>
