<?xml version="1.0" encoding="utf-8"?>
<svg version="1.1" id="Layer_1" xmlns="http://www.w3.org/2000/svg" xmlns:xlink="http://www.w3.org/1999/xlink" x="0px" y="0px"
	 viewBox="0 0 200 200" style="enable-background:new 0 0 200 200;" xml:space="preserve">
<style type="text/css">
	.st0{fill:#FFFFFF;}
	.st1{fill-rule:evenodd;clip-rule:evenodd;fill:#FBD52E;}
	.st2{fill:#014BFF;}
	.st3{fill:#010101;}
</style>
<g id="surface1">
	<path class="st0" d="M200,100c0,55.3-44.8,100-100,100S0,155.3,0,100S44.7,0,100,0S200,44.7,200,100z"/>
</g>
<path class="st1" d="M263.4-7.6"/>
<g>
	<path class="st2" d="M124.8,99.6c0.2,0.3,0.4,0.4,0.7,0.4c2.2,0.2,4.3,0.8,6.4,1.6c3.2,1.3,6.1,3.1,8.7,5.4
		c2.3,2.2,4.2,4.6,5.7,7.4c0.9,1.7,1.6,3.5,2.1,5.4c0.6,2,0.8,4,1,6c0.2,2.5-0.1,4.9-0.6,7.4c-0.4,1.8-0.9,3.7-1.6,5.4
		c-0.9,2.4-1.9,4.7-3.2,6.9c-2.5,4.1-5.5,7.7-9.2,10.7c-1.7,1.4-3.5,2.6-5.4,3.7c-1.5,0.8-3,1.6-4.6,2.2c-1.5,0.6-3,1-4.5,1.6
		c-0.4,0.2-0.9,0.2-1.3,0.3c-1.6,0.3-3.1,0.6-4.7,0.8c-2.7,0.4-5.5,0.3-8.3,0.3c-22.3,0-44.5,0-66.8,0c-1.2,0-1.2,0-1-1.2
		c0.1-0.7,0.1-1.5,0.2-2.2c0.1-2.3,0.5-4.5,0.7-6.8c0.2-1.4,0.5-2.9,0.8-4.3c0.3-1.3,0.5-2.7,0.8-4c0.3-1.5,0.6-3.1,1-4.7
		c0.4-1.4,0.7-2.8,1.2-4.3c0.4-1.2,0.8-2.4,1.2-3.6c0.5-1.3,0.9-2.6,1.4-3.9c0.6-1.5,1.2-3,1.9-4.5c0.7-1.5,1.4-3,2.2-4.5
		c0.8-1.6,1.7-3.1,2.6-4.6c1.7-2.8,3.6-5.6,5.6-8.2c2.4-3.1,5.1-6,7.9-8.8c0.1-0.1,0.2-0.2,0.3-0.1c0.5,0.1,1,0.1,1.5,0.1
		c17.9,0,35.8,0,53.7,0c0.4,0,0.9,0,1.3,0C123.1,99.6,123.9,99.5,124.8,99.6z"/>
	<path class="st3" d="M124.8,99.6c-0.8-0.1-1.6,0-2.4,0c-0.4,0-0.9,0-1.3,0c-17.9,0-35.8,0-53.7,0c-0.5,0-1,0-1.5-0.1
		c0-0.3,0.3-0.4,0.4-0.5c2.7-2.5,5.6-4.9,8.6-7.1c2.4-1.8,4.9-3.5,7.5-5c1.9-1.1,3.8-2.3,5.8-3.3c1.6-0.8,3.1-1.6,4.8-2.2
		c0.7-0.3,1.3-0.6,2-0.8c0.9-0.3,1.7-0.6,2.6-0.9c1.1-0.3,2.2-0.6,3.4-0.9c0.5-0.1,1-0.2,1.5-0.3c1-0.2,2-0.4,3-0.5
		c1.6-0.2,3.3-0.4,4.9-0.4c0.2,0,0.4,0,0.5,0c0.2,0,0.3,0.1,0.4,0.3c0.5,1.2,0.9,2.5,1.4,3.7c0.4,1,0.8,2.1,1.2,3.1
		c0.2,0.5,0.3,0.9,0.5,1.4c0.2,0.6,0.4,0.7,0.9,0.2c2.9-2.8,5.8-5.6,8.7-8.4c3-2.9,6-5.9,9-8.8c0.6-0.6,0.7-0.6-0.1-1.1
		c-3-1.8-6-3.6-9-5.4c-2.6-1.5-5.2-3.1-7.7-4.6c-2.7-1.6-5.5-3.3-8.2-4.9c-0.9-0.5-1.8-1.1-2.7-1.6c-0.1,0-0.1-0.1-0.2-0.1
		c-0.1-0.1-0.3-0.2-0.4-0.1c-0.2,0.1-0.1,0.3-0.1,0.5c0.3,1.2,0.6,2.4,0.8,3.7c0.1,0.6,0.3,1.2,0.4,1.8c0.3,1.5,0.7,3,1,4.5
		c0.1,0.6,0.3,1.2,0.4,1.9c0.1,0.6,0,0.7-0.6,0.7c-1.1-0.1-2.2-0.2-3.4-0.2c-2.4,0.1-4.8,0.2-7.2,0.5c-1.3,0.1-2.5,0.3-3.8,0.5
		c-1,0.1-2,0.3-2.9,0.5c-0.8,0.1-1.5,0.3-2.3,0.4c-1,0.2-2,0.4-3,0.6c-1.2,0.2-2.4,0.6-3.7,0.8c-1.1,0.2-2.2,0.6-3.3,0.9
		c-1,0.3-2,0.5-2.9,0.8c-1.2,0.3-2.4,0.7-3.6,1.2c-1.2,0.5-2.3,1-3.4,1.5c-1.5,0.7-2.9,1.5-4.3,2.3c-3.1,1.9-6.1,3.9-9,6.2
		c-0.1,0.1-0.3,0.2-0.5,0.2c-0.2-0.3,0-0.7,0-1c0.2-0.9,0.4-1.9,0.6-2.8c0.2-0.8,0.3-1.6,0.5-2.5c0.2-0.7,0.3-1.3,0.4-2
		c0.3-1.3,0.5-2.7,0.8-4.1c0.3-1.4,0.6-2.7,0.9-4.1c0.3-1.4,0.5-2.8,0.8-4.1c0.2-0.8,0.3-1.6,0.5-2.4c0.1-0.6,0.2-1.2,0.4-1.8
		c0.3-1.4,0.5-2.8,0.8-4.1c0.3-1.4,0.6-2.7,0.9-4.1c0.2-0.8,0.3-1.6,0.5-2.4c0.2-0.8,0.3-1.6,0.5-2.5c0.1-0.6,0.2-1.3,0.4-1.9
		c0.3-1.3,0.5-2.7,0.8-4.1c0.1-0.6,0.3-1.2,0.4-1.8c0-0.2,0.2-0.3,0.4-0.4c0.2,0,0.4,0,0.6,0c23.7,0,47.4,0,71.1,0
		c1.7,0,3.5,0.1,5.2,0.4c1.5,0.3,2.9,0.6,4.3,1.2c1.3,0.5,2.6,1.1,3.9,1.7c3.6,2,6.6,4.6,9,8c1.2,1.7,2.2,3.4,3,5.3
		c0.5,1.2,0.9,2.4,1.2,3.6c0.5,2,0.8,4.1,0.9,6.2c0,1.3,0,2.6-0.2,3.9c-0.1,0.8-0.2,1.7-0.4,2.5c-0.4,1.6-0.7,3.1-1.3,4.6
		c-0.3,0.7-0.4,1.3-0.7,2c-0.8,1.9-1.7,3.8-2.7,5.5c-1.9,3.2-4.2,6.2-6.9,8.8c-1.6,1.5-3.3,2.9-5.1,4.1c-1.6,1.1-3.3,2.1-5.1,3
		c-1.3,0.6-2.6,1.2-3.9,1.7c-1.7,0.6-3.5,1.1-5.3,1.5C128.6,99.1,126.6,99.3,124.8,99.6z"/>
</g>
</svg>
