<?xml version="1.0" encoding="utf-8"?>
<svg version="1.1" id="logo" xmlns="http://www.w3.org/2000/svg" xmlns:xlink="http://www.w3.org/1999/xlink" x="0px" y="0px"
	 viewBox="0 0 1000 1000" style="enable-background:new 0 0 1000 1000;" xml:space="preserve">
<style type="text/css">
	.st0{fill:#FFFFFF;}
	.st1{fill:#FFE100;}
	.st2{fill:#F9AF00;}
</style>
<circle class="st0" cx="500" cy="500" r="500"/>
<g>
	<path d="M779.1,411.3c50.2,27.9,76.3,68.6,66.1,125.6c-10,56.1-47.1,86.4-103.1,95.8c0.5,4.8,1.3,9.5,1.6,14.2
		c2.4,36.5-13.7,63.4-42.9,83.9c-3.9,2.8-8.1,8.2-8.4,12.6c-2.1,28.6-17.7,48-45.6,53.5c-20.1,4-39,1-57.4-9.4
		c-6.8-3.8-18.8-3.7-26.1-0.3c-19.2,8.8-37.9,10.3-57.9,4.3c-4.7-1.4-10.3-2-15-1c-19.9,4.3-38.8,3.7-55.8-9.2
		c-0.9-0.7-2.1-1.8-2.8-1.6c-15.3,5.1-33.4,1.2-46.7,12.2c-24.6,20.5-53,28.1-83.9,24.9c-32.4-3.4-53.2-33.7-48.6-68.1
		c2.1-15.5,6.7-29.9,17.7-41.7c2-2.1,3.1-6.8,2.2-9.6c-3.9-12.1-9.7-23.7-12.7-36c-3-11.8-3.4-24.3-5-36.9
		c-8.8,2.5-17.9,5.8-27.2,7.7c-34.1,6.8-66.3-12.5-73.2-43.7c-1-4.7-1.2-9.7-1.2-14.5c-0.2-34.2,0.5-68.3-0.4-102.5
		c-0.7-27,9.3-46.4,34.1-57.8c5.4-2.5,10.4-5.7,15.1-8.3c-3.3-17-8.3-33.4-9.2-50c-2.5-46.7,12.6-86.4,51.6-114.6
		c7.8-5.6,17-10,26.2-12.8c50.8-15.7,101.1-33.6,154.7-38.2c9.7-0.8,19.5-1.5,29.2-2c43.8-2,87.7-6.4,131.4-5.3
		c72.5,1.8,137.2,24.8,189.1,78.5c36.5,37.7,43.6,76.1,19.7,122.9C789.9,393,784.6,401.6,779.1,411.3z M735.6,399.5
		c17.8,1.8,17.9,1.8,26.9-13c3.3-5.4,6.5-11,9.4-16.7c17.2-34,12.1-63.8-15.9-89.4c-36.4-33.3-74.9-61.9-127.1-65.7
		c-27.5-2-54.5-9.6-82.5-5.4c-15.5,2.3-31.4,4.8-46.9,4.1c-76-3.4-147.7,15.3-218.7,39.2c-23.6,7.9-40.2,22.9-51,45.9
		c-15.2,32.2-13.4,63.8-1.3,95.9c1.2,3.2,6.1,6.6,9.6,7c18.9,1.9,36.8,6.3,53.4,16.2c2.3,1.4,7.1,0.4,9.8-1.1
		c24.9-14,51.7-20,79.1-12.6c20.2,5.4,39.4,6.7,60,4.4c18.5-2.1,37.5-0.3,56.2-0.6c4.7-0.1,9.4-1.8,14.1-2.6c12-2,24.2-6,36.1-5.3
		c17.7,0.9,35.1,6.5,52.8,7.7c20.5,1.4,41.4-0.9,61.9,0.8c13.3,1.1,25.7,3.5,39.1-1.8C711.4,402.1,723.8,401.7,735.6,399.5z
		 M405.9,691.9c-2.8-22.2-5.8-41.8-7.7-61.5c-1-9.9-6.3-12.8-14.9-12.5c-12.2,0.4-18,4.8-16.8,14.3c4,32.7,8.4,65.3,13.2,97.9
		c0.5,3.1,4.4,7.8,7.2,8.2c11.6,1.4,23.2,1.3,31.4-9.6c5.8-7.6,12.1-14.8,19-23.1c8,12.2,15.2,22.6,21.8,33.4
		c4.6,7.4,11,8.5,18.4,6.2c8-2.4,17-3.4,19.1-14.5c6.4-33.4,13.4-66.7,19.9-100.1c2.2-11-1-15.4-11.9-17.3
		c-13.4-2.4-17.3-0.1-19.6,11.2c-4.6,23.4-9.2,46.8-14.5,73.4c-7.2-11.5-12.5-20.3-18.3-28.9c-7.7-11.4-13.5-12.2-23.3-2.5
		C421.5,673.9,414.7,682.2,405.9,691.9z M359.2,584.8c37.1,0.2,67.9-30.6,68-68c0.1-35.7-31.7-67.5-67.6-67.7
		c-37.7-0.2-68.1,29.6-68.4,67.2C290.7,555,320.2,584.6,359.2,584.8z M732.7,584.8c36.6,0.3,67.1-29.2,67.6-65.6
		c0.5-38.3-28.9-69.5-65.9-70c-37.8-0.5-69.1,29.4-69.4,66.6C664.6,554.6,693.8,584.4,732.7,584.8z M578.5,736.9
		c20.2,0.4,26.8-8.4,21.3-24.4c-10.4-30.2-21.1-60.2-31.1-90.5c-4.7-14.1-16-7.5-24.6-8.9c-8.3-1.4-10,5.3-11.2,11.2
		c-7.6,35.9-15,71.8-22.5,107.7c-1.5,6.9,0.5,11.4,7.5,14.1c14.9,5.8,21.5,2.4,25.4-13.5c1.5-5.9-0.7-14.2,9.9-14.8
		c9.5-0.5,16.8,0.5,19.1,11.8C573,733,577.4,735.6,578.5,736.9z M572.1,570.8c21,0.2,26.8-7.3,21.3-23.3
		c-10.1-29.4-20.8-58.6-30-88.2c-4.5-14.7-15.7-11.2-25.3-12.2c-10.2-1-10.8,7.4-12.2,14.2c-7,33.3-13.8,66.5-20.6,99.8
		c-3.3,16.2,0.8,20.3,17.1,21.3c14.3,0.9,12.6-9.7,14.7-17.7c1.5-5.7,1-12.2,10-12c7.9,0.2,15.7-1.5,18.2,9.6
		C566,566.2,570.7,569.2,572.1,570.8z M613.3,685.7c0,0,0.1,0,0.1,0c0,18,0.1,36,0,53.9c-0.1,11.8,8.8,11.9,16.4,12
		c7.6,0,16.4-0.2,15.5-12.4c-0.6-8.6,0.2-17.2-0.3-25.8c-0.4-7.5,1.6-11.3,9.6-13.4c8.1-2.1,16.3-6,23.2-10.9
		c13.8-9.6,21.6-23.1,18.7-40.5c-2.8-16.7-14.6-26.1-29.8-30.2c-9.9-2.6-20.7-3.3-31-2.8c-14.4,0.7-22.4,10.6-22.4,25.1
		C613.2,655.8,613.3,670.7,613.3,685.7z M313.5,771.2c6.3-1.1,12.6-1.7,18.8-3.3c24.9-6.4,36.6-24.9,31.1-50.1
		c-2.4-10.9-6-21.7-9.9-32.2c-5.5-15.2-12.4-29.8-17.3-45.2c-4.7-14.7-0.3-18.9,14.7-16.4c6.9,1.2,16.4-6.8,19.4-15.9
		c2.5-7.8-2.6-11-8.1-13.9c-26.2-14-58.8,3.8-58.6,33.4c0.1,13.8,4,28,8.2,41.4c4.2,13.2,11.5,25.3,16.5,38.2
		c7.9,20.5,3.9,27.3-17.3,31.3c-8.7,1.7-12.9,9.2-11.8,20.4C300.2,767.7,304.4,772,313.5,771.2z M199.8,520.1c0.1,0,0.1,0,0.2,0
		c0,17.6-0.1,35.3,0,52.9c0.1,10,4.6,13.8,16.2,13.4c8.8-0.3,16.6-1.7,15.7-13.8c-0.7-8.6,0.3-17.3-0.3-25.9
		c-0.4-6.8,2.2-9.4,8.5-12c10.3-4.1,21.1-8.7,29.3-15.8c18.9-16.4,19.2-40.6,1.7-56c-14.5-12.8-32.5-15.8-50.7-12.5
		c-16.9,3-20.6,9.3-20.6,26.9C199.8,491.5,199.8,505.8,199.8,520.1z M489.6,487.8c5.2,0,8.9,0,12.5,0c11.3-0.1,10.8-8.8,10.8-16.1
		c0-7.3,0.3-15.9-11.1-15.8c-21.4,0.1-42.8-0.4-64.2,0.4c-3.6,0.1-9.2,5.2-10.2,9c-4.3,15.8,1.5,22.9,18.4,22.2
		c10.1-0.4,13,2.8,12.6,12.7c-0.9,19.9-0.3,39.8-0.9,59.6c-0.3,11.3,6.6,13.2,15.2,13.1c8.1-0.1,16.3-0.9,16.3-12.3
		c0-9,0.4-18,0.5-27C489.7,518.8,489.6,503.9,489.6,487.8z M608.9,487.9c0,24.5-0.1,47.3,0,70.1c0,11.6,3.7,15,15.7,15.1
		c12.5,0.2,16.2-3.3,16.3-15.4c0.1-22.8,0-45.6,0-69.9c5,0,9,0,13,0c11.9-0.1,11.4-8.9,11.3-16.7c-0.1-7.6-0.5-15.3-11.7-15.1
		c-20.6,0.3-41.3,0.3-61.9,0c-12.5-0.2-12.4,8.4-12.4,16.8c0,8.4,1,16.2,12.7,15.2C597,487.5,602.3,487.9,608.9,487.9z"/>
	<path class="st1" d="M735.6,399.5c-11.7,2.1-24.1,2.6-35,6.9c-13.4,5.3-25.7,2.9-39.1,1.8c-20.5-1.7-41.3,0.6-61.9-0.8
		c-17.7-1.2-35.1-6.8-52.8-7.7c-11.9-0.6-24.1,3.3-36.1,5.3c-4.7,0.8-9.4,2.5-14.1,2.6c-18.8,0.3-37.7-1.5-56.2,0.6
		c-20.6,2.3-39.8,1-60-4.4c-27.4-7.4-54.2-1.4-79.1,12.6c-2.7,1.5-7.5,2.5-9.8,1.1c-16.5-9.9-34.4-14.3-53.4-16.2
		c-3.5-0.3-8.4-3.8-9.6-7c-12.1-32-13.8-63.7,1.3-95.9c10.8-23,27.4-37.9,51-45.9c71-23.8,142.7-42.6,218.7-39.2
		c15.6,0.7,31.4-1.8,46.9-4.1c28-4.2,55,3.3,82.5,5.4c52.2,3.9,90.7,32.4,127.1,65.7c28,25.6,33,55.4,15.9,89.4
		c-2.9,5.7-6.1,11.2-9.4,16.7C753.4,401.4,753.4,401.3,735.6,399.5z"/>
	<path class="st0" d="M405.9,691.9c8.7-9.7,15.6-18,23.2-25.5c9.8-9.7,15.7-8.9,23.3,2.5c5.7,8.6,11.1,17.4,18.3,28.9
		c5.3-26.6,9.9-50,14.5-73.4c2.2-11.3,6.1-13.6,19.6-11.2c10.8,1.9,14,6.3,11.9,17.3c-6.6,33.4-13.5,66.7-19.9,100.1
		c-2.1,11.1-11.1,12-19.1,14.5c-7.4,2.3-13.9,1.1-18.4-6.2c-6.7-10.8-13.8-21.2-21.8-33.4c-6.9,8.3-13.2,15.5-19,23.1
		c-8.2,10.9-19.8,11.1-31.4,9.6c-2.8-0.3-6.8-5-7.2-8.2c-4.8-32.6-9.2-65.2-13.2-97.9c-1.2-9.5,4.6-13.9,16.8-14.3
		c8.6-0.3,14,2.6,14.9,12.5C400.2,650.1,403.1,669.7,405.9,691.9z"/>
	<path class="st0" d="M359.2,584.8c-39-0.2-68.4-29.8-68.1-68.4c0.3-37.6,30.7-67.4,68.4-67.2c36,0.2,67.7,31.9,67.6,67.7
		C427.1,554.2,396.2,585.1,359.2,584.8z M357.4,553c20.9,0.1,37-15.2,37.3-35.5c0.3-19.5-15.9-36-35.4-36.3
		c-19.9-0.3-36.2,15.4-36.4,35.1C322.6,536.7,337.7,552.8,357.4,553z"/>
	<path class="st0" d="M732.7,584.8c-38.9-0.4-68.1-30.2-67.7-69.1c0.4-37.1,31.6-67.1,69.4-66.6c37,0.5,66.4,31.8,65.9,70
		C799.8,555.6,769.3,585.1,732.7,584.8z M731.9,552.9c20.9-0.1,36.6-15.6,36.6-36c-0.1-19.9-16.1-35.8-35.8-35.7
		c-19.9,0.1-36,16.1-35.9,35.6C696.8,537,712.4,553,731.9,552.9z"/>
	<path class="st0" d="M578.5,736.9c-1.2-1.3-5.5-3.9-6.2-7.3c-2.3-11.4-9.6-12.3-19.1-11.8c-10.6,0.5-8.5,8.9-9.9,14.8
		c-3.9,15.9-10.5,19.4-25.4,13.5c-6.9-2.7-8.9-7.1-7.5-14.1c7.5-35.9,14.9-71.8,22.5-107.7c1.2-5.9,2.9-12.5,11.2-11.2
		c8.7,1.4,20-5.2,24.6,8.9c10,30.3,20.7,60.3,31.1,90.5C605.3,728.5,598.7,737.3,578.5,736.9z"/>
	<path class="st0" d="M572.1,570.8c-1.4-1.6-6.1-4.6-7-8.5c-2.5-11.1-10.3-9.4-18.2-9.6c-9-0.2-8.5,6.3-10,12
		c-2.1,8-0.4,18.6-14.7,17.7c-16.2-1-20.4-5.1-17.1-21.3c6.8-33.3,13.6-66.6,20.6-99.8c1.4-6.8,2.1-15.2,12.2-14.2
		c9.7,1,20.8-2.6,25.3,12.2c9.1,29.7,19.9,58.9,30,88.2C598.8,563.5,593.1,571.1,572.1,570.8z"/>
	<path class="st0" d="M613.3,685.7c0-15,0-30,0-44.9c0-14.5,8-24.4,22.4-25.1c10.3-0.5,21.1,0.1,31,2.8c15.3,4,27.1,13.5,29.8,30.2
		c2.9,17.4-4.9,30.8-18.7,40.5c-6.9,4.8-15,8.8-23.2,10.9c-8,2.1-10,5.9-9.6,13.4c0.5,8.6-0.4,17.3,0.3,25.8
		c0.9,12.2-7.9,12.4-15.5,12.4c-7.6,0-16.5-0.2-16.4-12c0.1-18,0-36,0-53.9C613.3,685.7,613.3,685.7,613.3,685.7z M644.6,670
		c9.9-4.2,19.5-5.5,19.3-15.6c0-2.4-10-7.7-13.7-6.5C639.8,651.4,647.2,660.9,644.6,670z"/>
	<path class="st0" d="M313.5,771.2c-9.1,0.7-13.4-3.5-14.3-12.3c-1.1-11.2,3.1-18.8,11.8-20.4c21.2-4,25.2-10.8,17.3-31.3
		c-5-12.9-12.3-25.1-16.5-38.2c-4.2-13.4-8.2-27.5-8.2-41.4c-0.1-29.6,32.4-47.4,58.6-33.4c5.5,2.9,10.6,6.1,8.1,13.9
		c-3,9.1-12.5,17.1-19.4,15.9c-15-2.5-19.4,1.7-14.7,16.4c4.9,15.3,11.8,30,17.3,45.2c3.8,10.6,7.5,21.3,9.9,32.2
		c5.5,25.3-6.2,43.8-31.1,50.1C326.2,769.5,319.8,770.1,313.5,771.2z"/>
	<path class="st0" d="M199.8,520.1c0-14.3,0-28.5,0-42.8c0-17.6,3.7-23.9,20.6-26.9c18.2-3.3,36.2-0.3,50.7,12.5
		c17.6,15.5,17.2,39.6-1.7,56c-8.2,7.1-19,11.7-29.3,15.8c-6.3,2.5-9,5.2-8.5,12c0.5,8.6-0.4,17.3,0.3,25.9
		c0.9,12.1-6.9,13.5-15.7,13.8c-11.6,0.4-16.1-3.4-16.2-13.4c-0.2-17.6,0-35.3,0-52.9C199.9,520.1,199.9,520.1,199.8,520.1z
		 M232.5,479.1c0,9.9,0,16.6,0,23.4c0.9,0.7,1.9,1.5,2.8,2.2c5.3-5,10.6-9.9,15.9-14.9C245.6,486.6,239.9,483.3,232.5,479.1z"/>
	<path class="st0" d="M489.6,487.8c0,16.1,0.1,31,0,45.9c-0.1,9-0.5,18-0.5,27c0,11.4-8.2,12.1-16.3,12.3
		c-8.6,0.1-15.5-1.8-15.2-13.1c0.6-19.9,0-39.8,0.9-59.6c0.4-9.9-2.5-13.1-12.6-12.7c-16.8,0.7-22.7-6.4-18.4-22.2
		c1-3.8,6.6-8.9,10.2-9c21.4-0.9,42.8-0.4,64.2-0.4c11.4,0,11,8.5,11.1,15.8c0,7.3,0.5,15.9-10.8,16.1
		C498.5,487.9,494.8,487.8,489.6,487.8z"/>
	<path class="st0" d="M608.9,487.9c-6.7,0-11.9-0.4-17,0.1c-11.7,1-12.7-6.9-12.7-15.2c0-8.5-0.1-17,12.4-16.8
		c20.6,0.3,41.3,0.3,61.9,0c11.2-0.2,11.6,7.5,11.7,15.1c0.1,7.8,0.6,16.6-11.3,16.7c-4,0-8,0-13,0c0,24.3,0,47.1,0,69.9
		c0,12.1-3.8,15.6-16.3,15.4c-12-0.2-15.7-3.6-15.7-15.1C608.9,535.1,608.9,512.3,608.9,487.9z"/>
	<path d="M357.4,553c-19.7-0.1-34.8-16.2-34.6-36.7c0.2-19.7,16.6-35.4,36.4-35.1c19.6,0.3,35.7,16.8,35.4,36.3
		C394.4,537.7,378.3,553.1,357.4,553z"/>
	<path d="M731.9,552.9c-19.5,0.1-35.1-15.9-35.2-36.1c-0.1-19.5,16-35.5,35.9-35.6c19.8-0.1,35.7,15.8,35.8,35.7
		C768.6,537.3,752.8,552.8,731.9,552.9z"/>
	<path d="M644.6,670c2.7-9.1-4.8-18.7,5.7-22.1c3.7-1.2,13.6,4.1,13.7,6.5C664.1,664.6,654.4,665.8,644.6,670z"/>
	<path d="M232.5,479.1c7.3,4.2,13,7.5,18.7,10.8c-5.3,5-10.6,9.9-15.9,14.9c-0.9-0.7-1.9-1.5-2.8-2.2
		C232.5,495.8,232.5,489,232.5,479.1z"/>
	<circle class="st2" cx="379.6" cy="292.4" r="7.8"/>
	<circle class="st2" cx="714.8" cy="290.5" r="7.8"/>
	<circle class="st2" cx="353" cy="264.9" r="7.8"/>
	<circle class="st2" cx="291.1" cy="284.5" r="7.8"/>
	<circle class="st2" cx="371.8" cy="367.1" r="7.8"/>
	<circle class="st2" cx="615.7" cy="310.4" r="7.8"/>
	<circle class="st2" cx="696.8" cy="365.2" r="7.8"/>
</g>
</svg>
