<?xml version="1.0" encoding="utf-8"?>
<svg version="1.1" id="Layer_1" xmlns="http://www.w3.org/2000/svg" xmlns:xlink="http://www.w3.org/1999/xlink" x="0px" y="0px"
	 viewBox="0 0 200 200" style="enable-background:new 0 0 200 200;" xml:space="preserve">
<style type="text/css">
	.st0{fill:#00A0FE;}
	.st1{fill-rule:evenodd;clip-rule:evenodd;fill:#FBD52E;}
	.st2{fill:#FFFFFF;}
</style>
<g id="surface1">
	<path class="st0" d="M200,100c0,55.3-44.8,100-100,100S0,155.3,0,100S44.7,0,100,0S200,44.7,200,100z"/>
</g>
<path class="st1" d="M263.4-7.6"/>
<g>
	<path class="st2" d="M96.8,17.1c0.5,0.1,0.9,0.1,1.4,0.1c2.8,0.2,5.4,1,7.9,2.1c3.7,1.7,7.1,4,10.1,6.7c0.1,0.1,0.1,0.1,0.2,0.2
		c-0.2,0.1-0.3-0.1-0.4-0.1c-3.5-2.3-7.3-3.9-11.4-4.5c-2.9-0.5-5.9-0.5-8.7,0.5c-0.9,0.3-1.6,0.7-2.4,1.2c-1.3,0.9-2.7,1.6-4.3,1.9
		c-0.7,0.1-1.3,0.2-2,0c-2.2-0.5-3.2-3.2-1.9-5c0.6-0.9,1.5-1.4,2.4-1.8c1.6-0.7,3.3-1,5.1-1.1c0.2,0,0.3,0,0.5-0.1
		C94.5,17.1,95.6,17.1,96.8,17.1z"/>
	<path class="st2" d="M112,27.6c-0.8-0.3-1.5-0.5-2.3-0.7c-3.3-0.8-6.5-0.8-9.7,0.3c-1.1,0.4-2.1,1-3,1.9c-0.6,0.7-1.3,1.2-2.1,1.6
		c-0.4,0.2-0.8,0.4-1.2,0.4c-0.8,0.2-1.6,0-2.1-0.7c-0.5-0.7-0.7-1.5-0.3-2.3c0.3-0.6,0.8-1.1,1.3-1.5c1.4-1,3-1.5,4.7-1.9
		c4.1-1,8-0.3,11.9,1.3c0.8,0.3,1.7,0.7,2.5,1.2C111.8,27.4,111.9,27.4,112,27.6z"/>
	<path class="st2" d="M111.1,28.8c-0.9-0.1-1.8-0.1-2.7-0.1c-1.6,0.1-3.1,0.5-4.5,1.3c-0.8,0.5-1.5,1.1-2,1.9
		c-0.4,0.7-0.9,1.3-1.7,1.7c-0.9,0.4-1.8,0-2-0.9c-0.1-0.4,0-0.7,0.2-1.1c0.3-0.6,0.8-1.1,1.4-1.5c1.9-1.3,4-2.1,6.4-2.1
		C107.8,28.1,109.5,28.3,111.1,28.8z"/>
	<path class="st2" d="M160.8,52.6c-4.1-6.4-9-12.2-14.8-17.1c-3.4-2.8-7-5.2-11.1-6.9c-5.3-2.2-10.8-2.9-16.5-1.6
		c-2.8,0.6-5.4,1.6-7.8,3.3c-3.4,2.5-5.6,5.8-7,9.7c-1,2.8-1.5,5.7-2,8.6c-0.3,2-0.4,3.9-0.6,5.9c-0.3,2.5-0.8,5-1.6,7.5
		c-1.4,4.1-3.8,7.5-7.4,9.8c-1.8,1.1-3.6,2.1-5.5,3c-4.7,2.4-9.4,4.9-13.8,7.9c-5.2,3.5-9.9,7.5-14,12.2c-6.6,7.7-11,16.5-13.7,26.3
		c-1.9,7-2.8,14.1-3,21.3c0,0.2,0,0.5-0.1,0.7c0,2.2,0,4.4,0,6.6c0.1,0.1,0.1,0.1,0.1,0.2c0,1.9,0.1,3.7,0.3,5.6
		c0.1,2.2,0.3,4.4,0.6,6.5c0.3,2.3,0.6,4.6,0.9,7c0.3,1.9,0.6,3.8,0.9,5.8c0.2-1.1,0.4-2.2,0.8-3.3c2-6.9,6.1-12.2,11.9-16.3
		c4.8-3.4,10.2-5.4,15.9-6.6c6.6-1.4,13.2-2.4,19.8-3.5c3.9-0.7,7.9-1.4,11.8-2.4c9.5-2.3,17.1-7.5,23.2-15c3-3.7,4.9-8,6.1-12.5
		c0.9-3.4,1.4-7,1.6-10.5c0.2-3.2,0.1-6.5-0.1-9.7c-0.2-3.2-0.7-6.4-1.3-9.6c-0.6-3.4-1.4-6.8-2.6-10.1c-1.4-3.9-2.5-7.9-2.8-12.1
		c-0.1-1.7-0.1-3.3,0.4-5c0.5-2,1.7-3.6,3.7-4.3c0.5-0.2,0.9-0.4,1.3-0.6c4.4-1.9,9-2.7,13.9-2.4c3.5,0.2,7,0.8,10.5,1.5
		c0.7,0.1,1.4,0.3,2.1,0.5C160.9,52.8,160.8,52.7,160.8,52.6z M114.2,116.8c-1.2,3.4-3.2,6.4-6.1,8.6c-2.4,1.8-5.1,2.8-8,3.4
		c-2.7,0.5-5.5,0.6-8.3,0.5c-1.4-0.1-2.8,0-4.2-0.1c-1.7-0.2-3.3-0.3-5-0.5c-6-0.5-11.7,0.4-16.9,3.4c-1.9,1.1-3.5,2.6-5,4.2
		c-0.5,0.6-1,1.1-1.6,1.8c0-0.7,0.1-1.3,0.2-1.9c0.7-5.2,2-10.3,3.9-15.3c2.2-5.8,5.2-11.1,9.4-15.7c4.4-4.9,9.6-8.5,15.9-10.5
		c2.4-0.8,4.9-1.2,7.4-1.3c7.3-0.1,13.2,2.7,17.1,9C115.8,106.9,116,111.8,114.2,116.8z M145.3,48.1c-3.1,0.1-6.2,0.3-9.2,1.2
		c-2,0.6-3.8,1.4-5.3,2.9c0-0.2,0.1-0.3,0.1-0.4c1.6-3.3,4-5.6,7.7-6.4c2.3-0.5,4.6-0.3,6.9,0.4c2.1,0.6,4.1,1.5,6,2.6
		c0,0,0.1,0,0.1,0.1C149.4,48.1,147.4,48,145.3,48.1z"/>
</g>
</svg>
