<?xml version="1.0" encoding="UTF-8"?>
<svg xmlns="http://www.w3.org/2000/svg" xmlns:xlink="http://www.w3.org/1999/xlink" width="200px" height="px" viewBox="0 0 200 200" version="1.1">
<defs>
<linearGradient id="linear0" gradientUnits="userSpaceOnUse" x1="20.6442" y1="1011.5057" x2="24.3328" y2="998.8395" gradientTransform="matrix(8.333333,0,0,-8.333333,-100,8433.333333)">
<stop offset="0" style="stop-color:rgb(1.176471%,72.156863%,100%);stop-opacity:1;"/>
<stop offset="1" style="stop-color:rgb(98.039216%,32.156863%,62.745098%);stop-opacity:1;"/>
</linearGradient>
<linearGradient id="linear1" gradientUnits="userSpaceOnUse" x1="23.6818" y1="1012.3904" x2="27.3705" y2="999.7241" gradientTransform="matrix(8.333333,0,0,-8.333333,-100,8433.333333)">
<stop offset="0" style="stop-color:rgb(1.176471%,72.156863%,100%);stop-opacity:1;"/>
<stop offset="1" style="stop-color:rgb(98.039216%,32.156863%,62.745098%);stop-opacity:1;"/>
</linearGradient>
<linearGradient id="linear2" gradientUnits="userSpaceOnUse" x1="17.616" y1="1010.6239" x2="21.3047" y2="997.9576" gradientTransform="matrix(8.333333,0,0,-8.333333,-100,8433.333333)">
<stop offset="0" style="stop-color:rgb(1.176471%,72.156863%,100%);stop-opacity:1;"/>
<stop offset="1" style="stop-color:rgb(98.039216%,32.156863%,62.745098%);stop-opacity:1;"/>
</linearGradient>
</defs>
<g id="surface1">
<path style=" stroke:none;fill-rule:nonzero;fill:url(#linear0);" d="M 41.667969 19.167969 L 196.667969 125 L 158.332031 181.667969 L 3.332031 75 Z M 41.667969 19.167969 "/>
<path style=" stroke:none;fill-rule:nonzero;fill:url(#linear1);" d="M 196.667969 125 C 183.332031 144.167969 138.332031 136.667969 95.832031 106.667969 C 52.5 77.5 29.167969 38.332031 41.667969 19.167969 C 55 0 100 7.5 142.5 37.5 C 185.832031 65.832031 209.167969 105.832031 196.667969 125 Z M 196.667969 125 "/>
<path style=" stroke:none;fill-rule:nonzero;fill:url(#linear2);" d="M 158.332031 180.832031 C 145 200 100 192.5 57.5 162.5 C 15 132.5 -9.167969 94.167969 4.167969 74.167969 C 17.5 55 62.5 62.5 105 92.5 C 147.5 122.5 170.832031 161.667969 158.332031 180.832031 Z M 158.332031 180.832031 "/>
<path style=" stroke:none;fill-rule:nonzero;fill:rgb(5.490196%,5.882353%,13.72549%);fill-opacity:1;" d="M 196.667969 125 L 158.332031 181.667969 C 145 200.832031 100 192.5 57.5 163.332031 C 49.167969 157.5 41.667969 151.667969 34.167969 145 C 40 144.167969 47.5 140.832031 55 132.5 C 68.332031 118.332031 75 115 80.832031 115.832031 C 86.667969 115.832031 93.332031 121.667969 104.167969 135.832031 C 115 150 130 154.167969 139.167969 146.667969 C 140 145.832031 140.832031 145.832031 141.667969 145 C 149.167969 139.167969 151.667969 136.667969 165.832031 110 C 169.167969 103.332031 180.832031 92.5 196.667969 97.5 C 200.832031 108.332031 200.832031 117.5 196.667969 125 Z M 196.667969 125 "/>
<path style=" stroke:none;fill-rule:evenodd;fill:rgb(100%,100%,100%);fill-opacity:1;" d="M 190.832031 121.667969 C 179.167969 138.332031 138.332031 130 99.167969 102.5 C 59.167969 75 35.832031 40 47.5 23.332031 C 59.167969 6.667969 100 15 139.167969 42.5 C 178.332031 70 201.667969 105 190.832031 121.667969 Z M 154.167969 96.667969 C 148.332031 105 128.332031 100.832031 108.332031 87.5 C 89.167969 74.167969 77.5 56.667969 83.332031 48.332031 C 89.167969 40 109.167969 44.167969 129.167969 57.5 C 148.332031 70.832031 160 88.332031 154.167969 96.667969 Z M 154.167969 96.667969 "/>
<path style=" stroke:none;fill-rule:nonzero;fill:rgb(100%,100%,100%);fill-opacity:1;" d="M 38.332031 38.332031 C 38.332031 37.5 37.5 36.667969 36.667969 37.5 C 35.832031 38.332031 35 38.332031 35 39.167969 C 35.832031 41.667969 36.667969 43.332031 36.667969 45 C 36.667969 45.832031 37.5 46.667969 38.332031 45.832031 C 39.167969 45.832031 40 45 39.167969 44.167969 C 39.167969 42.5 39.167969 40.832031 38.332031 38.332031 Z M 38.332031 38.332031 "/>
<path style=" stroke:none;fill-rule:nonzero;fill:rgb(100%,100%,100%);fill-opacity:1;" d="M 42.5 51.667969 C 42.5 50.832031 41.667969 50 40.832031 50.832031 C 40 51.667969 40 51.667969 40 52.5 C 49.167969 73.332031 68.332031 95.832031 93.332031 112.5 C 94.167969 113.332031 95 112.5 95.832031 112.5 C 96.667969 111.667969 95.832031 110.832031 95.832031 110 C 70 93.332031 51.667969 71.667969 42.5 51.667969 Z M 42.5 51.667969 "/>
<path style=" stroke:none;fill-rule:nonzero;fill:rgb(100%,100%,100%);fill-opacity:1;" d="M 143.332031 133.332031 C 142.5 133.332031 141.667969 133.332031 141.667969 134.167969 C 141.667969 135 141.667969 135.832031 142.5 135.832031 C 145 136.667969 148.332031 137.5 150.832031 138.332031 C 151.667969 138.332031 152.5 138.332031 152.5 137.5 C 152.5 136.667969 152.5 135.832031 151.667969 135.832031 C 149.167969 135 145.832031 134.167969 143.332031 133.332031 Z M 143.332031 133.332031 "/>
<path style=" stroke:none;fill-rule:nonzero;fill:rgb(100%,100%,100%);fill-opacity:1;" d="M 158.332031 136.667969 C 157.5 136.667969 156.667969 137.5 156.667969 138.332031 C 156.667969 139.167969 157.5 140 158.332031 140 C 165 140.832031 172.5 141.667969 178.332031 140.832031 C 179.167969 140.832031 180 140 180 139.167969 C 180 138.332031 179.167969 137.5 178.332031 137.5 C 171.667969 138.332031 165 137.5 158.332031 136.667969 Z M 158.332031 136.667969 "/>
</g>
</svg>
