<?xml version="1.0" encoding="utf-8"?>
<!-- Generator: Adobe Illustrator 26.4.1, SVG Export Plug-In . SVG Version: 6.00 Build 0)  -->
<svg version="1.1" id="Layer_1" xmlns="http://www.w3.org/2000/svg" xmlns:xlink="http://www.w3.org/1999/xlink" x="0px" y="0px"
	 viewBox="0 0 200 200" style="enable-background:new 0 0 200 200;" xml:space="preserve">
<style type="text/css">
	.st0{fill:#F4F4F4;}
	.st1{fill:#0072CE;}
	.st2{fill:#8FCDFF;}
	.st3{fill:#36DBF5;}
	.st4{fill:#F2EE83;}
	.st5{fill:#00C08B;}
	.st6{fill:#FFB259;}
	.st7{fill:#FF585D;}
	.st8{fill-rule:evenodd;clip-rule:evenodd;fill:#FBD52E;}
</style>
<g id="Layer_x0020_1">
	<g id="_2090755387392">
		<path class="st0" d="M100,0.4L100,0.4c55,0,99.6,44.6,99.6,99.6l0,0c0,55-44.6,99.6-99.6,99.6l0,0C45,199.6,0.4,155,0.4,100l0,0
			C0.4,45,45,0.4,100,0.4z"/>
		<g>
			<rect x="75.8" y="71.7" class="st1" width="22.7" height="22.7"/>
			<rect x="75.8" y="49" class="st2" width="22.7" height="22.7"/>
			<rect x="53.1" y="71.7" class="st3" width="22.7" height="22.7"/>
			<rect x="19.4" y="82.4" class="st4" width="22.7" height="22.7"/>
			<rect x="53.1" y="94.4" class="st5" width="22.7" height="22.7"/>
			<rect x="30.4" y="117" class="st6" width="22.7" height="22.7"/>
			<rect x="64.5" y="128.3" class="st7" width="22.7" height="22.7"/>
			<path d="M98.5,49v45.4c0,0,34,1.7,34.3,33.9h47.8C180.6,128.3,176.7,49,98.5,49z"/>
		</g>
	</g>
</g>
<path class="st8" d="M99,100.7"/>
</svg>
