<?xml version="1.0" encoding="utf-8"?>
<!-- Generator: Adobe Illustrator 26.4.1, SVG Export Plug-In . SVG Version: 6.00 Build 0)  -->
<svg version="1.1" id="Layer_1" xmlns="http://www.w3.org/2000/svg" xmlns:xlink="http://www.w3.org/1999/xlink" x="0px" y="0px"
	 viewBox="0 0 200 200" style="enable-background:new 0 0 200 200;" xml:space="preserve">
<style type="text/css">
	.st0{fill-rule:evenodd;clip-rule:evenodd;}
	.st1{fill:#444444;}
	.st2{fill:#DDDDDD;}
	.st3{fill:#C4C4C4;filter:url(#Adobe_OpacityMaskFilter);}
	.st4{mask:url(#mask0_27465_74248_00000173842298688109201930000012583797115352042134_);}
	
		.st5{fill-rule:evenodd;clip-rule:evenodd;fill:#E9BCFF;filter:url(#Adobe_OpacityMaskFilter_00000037682110350381735530000006619766145925487776_);}
	.st6{mask:url(#mask1_27465_74248_00000070097461971617217350000013779798959332701859_);}
	.st7{fill:#E9BCFF;}
	.st8{fill:#2C98F3;}
	.st9{fill:#58C971;}
</style>
<circle class="st0" cx="100" cy="100" r="100"/>
<g>
	<ellipse class="st1" cx="43.9" cy="110.4" rx="30.2" ry="30.3"/>
	<ellipse class="st2" cx="154.6" cy="110.4" rx="30.2" ry="30.3"/>
	<defs>
		<filter id="Adobe_OpacityMaskFilter" filterUnits="userSpaceOnUse" x="25.2" y="40.7" width="147.8" height="265.1">
			<feColorMatrix  type="matrix" values="1 0 0 0 0  0 1 0 0 0  0 0 1 0 0  0 0 0 1 0"/>
		</filter>
	</defs>
	
		<mask maskUnits="userSpaceOnUse" x="25.2" y="40.7" width="147.8" height="265.1" id="mask0_27465_74248_00000173842298688109201930000012583797115352042134_">
		<rect x="24.7" y="39.6" class="st3" width="148.7" height="74.1"/>
	</mask>
	<g class="st4">
		<defs>
			
				<filter id="Adobe_OpacityMaskFilter_00000176745136699757287720000010405205093570053256_" filterUnits="userSpaceOnUse" x="25.2" y="40.7" width="147.8" height="265.1">
				<feColorMatrix  type="matrix" values="1 0 0 0 0  0 1 0 0 0  0 0 1 0 0  0 0 0 1 0"/>
			</filter>
		</defs>
		
			<mask maskUnits="userSpaceOnUse" x="25.2" y="40.7" width="147.8" height="265.1" id="mask1_27465_74248_00000070097461971617217350000013779798959332701859_">
			
				<path style="fill-rule:evenodd;clip-rule:evenodd;fill:#E9BCFF;filter:url(#Adobe_OpacityMaskFilter_00000176745136699757287720000010405205093570053256_);" d="
				M99.1,40.7c-40.8,0-73.9,32.2-73.9,71.9v133h37V116c0-19.8,16.5-35.8,36.8-35.8c20.3,0,36.8,16,36.8,35.8v129.5H173v-133
				C173,72.9,139.9,40.7,99.1,40.7z"/>
		</mask>
		<g class="st6">
			<path class="st7" d="M25.2,114.6c0-40.8,33.1-73.9,73.9-73.9c40.8,0,73.9,33.1,73.9,73.9v130.9H25.2V114.6z"/>
			<path class="st8" d="M33.6,115.8c0-36.2,29.4-65.6,65.6-65.6c36.2,0,65.6,29.4,65.6,65.6v142.9H33.6V115.8z"/>
			<path class="st9" d="M42.2,115.6c0-30.9,25.1-56,56-56s56,25.1,56,56v164.1h-112V115.6z"/>
			<path class="st7" d="M52.6,116.8c0-25.6,20.8-46.4,46.4-46.4s46.4,20.8,46.4,46.4v189.1H52.6V116.8z"/>
		</g>
	</g>
</g>
</svg>
