<?xml version="1.0" encoding="UTF-8"?>
<svg xmlns="http://www.w3.org/2000/svg" xmlns:xlink="http://www.w3.org/1999/xlink" width="200px" height="px" viewBox="0 0 200 200" version="1.1">
<defs>
<filter id="alpha" filterUnits="objectBoundingBox" x="0%" y="0%" width="100%" height="100%">
  <feColorMatrix type="matrix" in="SourceGraphic" values="0 0 0 0 1 0 0 0 0 1 0 0 0 0 1 0 0 0 1 0"/>
</filter>
<mask id="mask0">
  <g filter="url(#alpha)">
<rect x="0" y="0" width="200" height="200" style="fill:rgb(0%,0%,0%);fill-opacity:0.996078;stroke:none;"/>
  </g>
</mask>
<clipPath id="clip1">
  <rect x="0" y="0" width="200" height="200"/>
</clipPath>
<g id="surface5" clip-path="url(#clip1)">
<path style=" stroke:none;fill-rule:evenodd;fill:rgb(90.980392%,73.333333%,99.607843%);fill-opacity:1;" d="M 161.476562 92.839844 C 165.839844 102.039062 168.113281 111.734375 168.296875 121.933594 C 165.71875 121.933594 163.144531 121.933594 160.566406 121.933594 C 159.753906 103.445312 152.253906 88.332031 138.066406 76.589844 C 120.015625 63.027344 100.246094 59.84375 78.75 67.046875 C 61.667969 73.824219 49.734375 85.757812 42.953125 102.839844 C 40.667969 109.003906 39.417969 115.367188 39.203125 121.933594 C 36.628906 121.933594 34.054688 121.933594 31.476562 121.933594 C 31.605469 111.722656 33.878906 102.027344 38.296875 92.839844 C 49.503906 71.316406 67.15625 58.703125 91.25 55 C 115.09375 52.59375 135.132812 60.128906 151.363281 77.613281 C 155.320312 82.292969 158.691406 87.367188 161.476562 92.839844 Z M 161.476562 92.839844 "/>
</g>
<mask id="mask1">
  <g filter="url(#alpha)">
<rect x="0" y="0" width="200" height="200" style="fill:rgb(0%,0%,0%);fill-opacity:0.996078;stroke:none;"/>
  </g>
</mask>
<clipPath id="clip2">
  <rect x="0" y="0" width="200" height="200"/>
</clipPath>
<g id="surface8" clip-path="url(#clip2)">
<path style=" stroke:none;fill-rule:evenodd;fill:rgb(99.607843%,78.823529%,25.882353%);fill-opacity:1;" d="M 142.613281 121.933594 C 139.734375 121.933594 136.855469 121.933594 133.976562 121.933594 C 133.484375 115.367188 131.210938 109.535156 127.160156 104.433594 C 117.898438 93.425781 106.15625 89.300781 91.933594 92.046875 C 84.164062 93.953125 77.800781 98.003906 72.839844 104.203125 C 68.628906 109.332031 66.28125 115.242188 65.796875 121.933594 C 62.839844 121.933594 59.886719 121.933594 56.933594 121.933594 C 58.316406 107.675781 64.90625 96.578125 76.703125 88.636719 C 91.640625 79.925781 106.71875 79.695312 121.933594 87.953125 C 134.417969 95.835938 141.3125 107.164062 142.613281 121.933594 Z M 142.613281 121.933594 "/>
</g>
<mask id="mask2">
  <g filter="url(#alpha)">
<rect x="0" y="0" width="200" height="200" style="fill:rgb(0%,0%,0%);fill-opacity:0.988235;stroke:none;"/>
  </g>
</mask>
<clipPath id="clip3">
  <rect x="0" y="0" width="200" height="200"/>
</clipPath>
<g id="surface11" clip-path="url(#clip3)">
<path style=" stroke:none;fill-rule:evenodd;fill:rgb(86.27451%,86.27451%,86.27451%);fill-opacity:1;" d="M 161.476562 92.839844 C 172.894531 97.753906 178.878906 106.46875 179.433594 118.976562 C 178.855469 131.476562 172.871094 140.226562 161.476562 145.226562 C 149.320312 149.191406 138.828125 146.578125 130 137.386719 C 123.164062 128.859375 121.496094 119.386719 125 108.976562 C 125.664062 107.421875 126.382812 105.90625 127.160156 104.433594 C 131.210938 109.535156 133.484375 115.367188 133.976562 121.933594 C 136.855469 121.933594 139.734375 121.933594 142.613281 121.933594 C 145.339844 121.933594 148.066406 121.933594 150.796875 121.933594 C 150.796875 121.324219 150.796875 120.71875 150.796875 120.113281 C 151.015625 120.671875 151.09375 121.277344 151.023438 121.933594 C 154.203125 121.933594 157.386719 121.933594 160.566406 121.933594 C 163.144531 121.933594 165.71875 121.933594 168.296875 121.933594 C 168.113281 111.734375 165.839844 102.039062 161.476562 92.839844 Z M 161.476562 92.839844 "/>
</g>
<mask id="mask3">
  <g filter="url(#alpha)">
<rect x="0" y="0" width="200" height="200" style="fill:rgb(0%,0%,0%);fill-opacity:0.988235;stroke:none;"/>
  </g>
</mask>
<clipPath id="clip4">
  <rect x="0" y="0" width="200" height="200"/>
</clipPath>
<g id="surface14" clip-path="url(#clip4)">
<path style=" stroke:none;fill-rule:evenodd;fill:rgb(26.666667%,26.666667%,26.666667%);fill-opacity:1;" d="M 38.296875 92.839844 C 33.878906 102.027344 31.605469 111.722656 31.476562 121.933594 C 34.054688 121.933594 36.628906 121.933594 39.203125 121.933594 C 41.855469 121.933594 44.507812 121.933594 47.160156 121.933594 C 53.371094 122.234375 59.582031 122.234375 65.796875 121.933594 C 66.28125 115.242188 68.628906 109.332031 72.839844 104.203125 C 78.695312 115.039062 78.203125 125.570312 71.363281 135.796875 C 63.5625 145.339844 53.601562 148.789062 41.476562 146.136719 C 29.851562 142.464844 22.992188 134.621094 20.910156 122.613281 C 19.929688 108.65625 25.722656 98.734375 38.296875 92.839844 Z M 38.296875 92.839844 "/>
</g>
</defs>
<g id="surface1">
<use xlink:href="#surface5" mask="url(#mask0)"/>
<path style=" stroke:none;fill-rule:evenodd;fill:rgb(17.647059%,59.607843%,94.901961%);fill-opacity:1;" d="M 160.566406 121.933594 C 157.386719 121.933594 154.203125 121.933594 151.023438 121.933594 C 151.09375 121.277344 151.015625 120.671875 150.796875 120.113281 C 149.042969 102.199219 140.558594 88.527344 125.339844 79.089844 C 107.644531 69.480469 89.992188 69.554688 72.386719 79.316406 C 57.292969 88.929688 48.960938 102.679688 47.386719 120.566406 C 47.167969 120.96875 47.09375 121.425781 47.160156 121.933594 C 44.507812 121.933594 41.855469 121.933594 39.203125 121.933594 C 39.417969 115.367188 40.667969 109.003906 42.953125 102.839844 C 49.734375 85.757812 61.667969 73.824219 78.75 67.046875 C 100.246094 59.84375 120.015625 63.027344 138.066406 76.589844 C 152.253906 88.332031 159.753906 103.445312 160.566406 121.933594 Z M 160.566406 121.933594 "/>
<path style=" stroke:none;fill-rule:evenodd;fill:rgb(34.509804%,78.431373%,44.313725%);fill-opacity:1;" d="M 150.796875 120.113281 C 150.796875 120.71875 150.796875 121.324219 150.796875 121.933594 C 148.066406 121.933594 145.339844 121.933594 142.613281 121.933594 C 141.3125 107.164062 134.417969 95.835938 121.933594 87.953125 C 106.71875 79.695312 91.640625 79.925781 76.703125 88.636719 C 64.90625 96.578125 58.316406 107.675781 56.933594 121.933594 C 53.75 121.933594 50.566406 121.933594 47.386719 121.933594 C 47.386719 121.476562 47.386719 121.023438 47.386719 120.566406 C 48.960938 102.679688 57.292969 88.929688 72.386719 79.316406 C 89.992188 69.554688 107.644531 69.480469 125.339844 79.089844 C 140.558594 88.527344 149.042969 102.199219 150.796875 120.113281 Z M 150.796875 120.113281 "/>
<use xlink:href="#surface8" mask="url(#mask1)"/>
<use xlink:href="#surface11" mask="url(#mask2)"/>
<use xlink:href="#surface14" mask="url(#mask3)"/>
<path style=" stroke:none;fill-rule:evenodd;fill:rgb(34.509804%,41.568627%,32.156863%);fill-opacity:1;" d="M 47.386719 120.566406 C 47.386719 121.023438 47.386719 121.476562 47.386719 121.933594 C 50.566406 121.933594 53.75 121.933594 56.933594 121.933594 C 59.886719 121.933594 62.839844 121.933594 65.796875 121.933594 C 59.582031 122.234375 53.371094 122.234375 47.160156 121.933594 C 47.09375 121.425781 47.167969 120.96875 47.386719 120.566406 Z M 47.386719 120.566406 "/>
</g>
</svg>
