<?xml version="1.0" encoding="UTF-8"?>
<svg id="Layer_1" data-name="Layer 1" xmlns="http://www.w3.org/2000/svg" version="1.1" viewBox="0 0 500 500">
  <defs>
    <style>
      .cls-1 {
        fill: #f7911a;
      }

      .cls-1, .cls-2 {
        stroke-width: 0px;
      }

      .cls-2 {
        fill: #fece24;
      }
    </style>
  </defs>
  <path class="cls-1" d="M36,121.5c5.7-10.9,11.7-19.3,18.1-27.2,17.2-20.8,36.5-39.4,59.4-54.1C148.3,17.8,186.1,4.6,227.5,1c33.7-3,66.6.7,98.6,10.8,29.3,9.3,55.8,24.1,79.9,43.4,29.9,24,53,53.3,69.4,87.9,13,27.5,20.6,56.3,23.2,86.8,1.8,20.6,1.5,40.8-6.1,59.9-17.5,43.7-49.7,69.4-96.7,75.8-29.7,4-56.9-3.2-81.5-19.7-24.5-16.4-38.3-39.9-44-68.7-2.7-13.9-2.7-27.9-3.8-41.8-2.4-28.8-12.9-54.8-30.7-77.7-15.9-20.5-35.8-36.1-59.6-46.4-24.5-10.6-50-14.2-76.8-11.5-22.4,2.3-42.5,9.9-63.4,21.7Z"/>
  <path class="cls-2" d="M460.9,380.8c-9.7,18.5-22.6,34.4-37.4,48.7-40.4,38.9-88.5,62.5-144.2,68.8-72.8,8.1-137.7-11.9-193.1-60C38,396.4,10.4,342.9,2.2,279.6c-3.7-28.6-2.5-56.7,11.3-83.1,23.2-44.5,73.8-68.9,123.2-61,58.1,9.3,94.7,55.1,95.4,112.5.8,76.8,49.4,136.1,124.1,151.2,33.6,6.8,66.1,1.5,96.7-14.2,1.4-.7,2.9-1.5,4.3-2.2,1.2-.6,2.4-1.3,3.6-2Z"/>
</svg>