<?xml version="1.0" encoding="utf-8"?>
<!-- Generator: Adobe Illustrator 26.4.1, SVG Export Plug-In . SVG Version: 6.00 Build 0)  -->
<svg version="1.1" id="Layer_1" xmlns="http://www.w3.org/2000/svg" xmlns:xlink="http://www.w3.org/1999/xlink" x="0px" y="0px"
	 viewBox="0 0 200 200" style="enable-background:new 0 0 200 200;" xml:space="preserve">
<style type="text/css">
	.st0{fill-rule:evenodd;clip-rule:evenodd;fill:#223147;}
	.st1{fill:#223147;}
	.st2{fill:#4BA3DA;}
	.st3{fill:#9DCCEC;}
	.st4{fill:#FFFFFF;}
</style>
<circle class="st0" cx="100" cy="100" r="96.1"/>
<g id="surface1_00000182491684941137353270000015732112206820664486_">
	<path class="st1" d="M42.8,72.7v54.8c0,3.5,1.8,6.7,4.9,8.5l47.4,27.3c3.1,1.7,6.7,1.7,9.8,0l47.4-27.3c3.1-1.7,4.9-5,4.9-8.5V72.7
		c0-3.5-1.8-6.7-4.9-8.5l-47.4-27.3c-3.1-1.7-6.7-1.7-9.8,0L47.7,64.2C44.7,65.9,42.9,69.2,42.8,72.7L42.8,72.7z"/>
	<path class="st2" d="M110.3,110.7l-6.7,18.5c-0.2,0.5-0.2,1,0,1.7l11.6,31.9l13.5-7.8l-16.2-44.3
		C112.1,109.7,110.7,109.7,110.3,110.7z"/>
	<path class="st2" d="M123.9,79.5c-0.3-1-1.7-1-2.2,0L115,98c-0.2,0.5-0.2,1,0,1.7l19,52.2l13.5-7.8L123.9,79.5L123.9,79.5z"/>
	<path class="st3" d="M100,38.8c0.3,0,0.7,0.1,1,0.3l51.3,29.6c0.6,0.3,1,1,1,1.7v59.3c0,0.7-0.3,1.3-1,1.7L101,161
		c-0.3,0.2-0.6,0.3-1,0.3s-0.7-0.1-1-0.3l-51.3-29.6c-0.6-0.3-1-1-1-1.7V70.4c0-0.7,0.3-1.3,1-1.7L99,39.1
		C99.3,38.9,99.7,38.8,100,38.8L100,38.8z M100,30.2c-1.8,0-3.7,0.4-5.3,1.4L43.4,61.2c-3.3,1.9-5.3,5.3-5.3,9.2v59.2
		c0,3.8,2,7.3,5.3,9.2l51.3,29.6c1.7,1,3.5,1.4,5.3,1.4s3.7-0.4,5.3-1.4l51.3-29.6c3.3-1.9,5.3-5.3,5.3-9.2V70.4
		c0-3.8-2-7.3-5.3-9.2l-51.4-29.6C103.7,30.6,101.7,30.2,100,30.2L100,30.2z"/>
	<path class="st1" d="M66,152l4.7-12.9l9.5,7.9l-8.9,8.1L66,152z"/>
	<path class="st4" d="M95.6,66.2h-13c-1,0-1.8,0.6-2.2,1.5l-27.9,76.4l13.5,7.8l30.8-84.2C97,66.9,96.5,66.1,95.6,66.2L95.6,66.2z"
		/>
	<path class="st4" d="M118.4,66.2h-13c-1,0-1.8,0.6-2.2,1.5l-31.9,87.3l13.5,7.8l34.7-95C119.7,66.9,119.2,66.1,118.4,66.2
		L118.4,66.2z"/>
</g>
</svg>
