<?xml version="1.0" encoding="utf-8"?>
<!-- Generator: Adobe Illustrator 26.4.1, SVG Export Plug-In . SVG Version: 6.00 Build 0)  -->
<svg version="1.1" id="Layer_1" xmlns="http://www.w3.org/2000/svg" xmlns:xlink="http://www.w3.org/1999/xlink" x="0px" y="0px"
	 viewBox="0 0 200 200" style="enable-background:new 0 0 200 200;" xml:space="preserve">
<style type="text/css">
	.st0{fill-rule:evenodd;clip-rule:evenodd;fill:#2A374D;}
	.st1{fill:#223147;}
	.st2{fill:#4BA3DA;}
	.st3{fill:#9DCCEC;}
	.st4{fill:#FFFFFF;}
</style>
<circle class="st0" cx="100" cy="100" r="100"/>
<g id="surface1_00000182491684941137353270000015732112206820664486_">
	<path class="st1" d="M38.6,70.7v58.8c0,3.8,1.9,7.2,5.3,9.1L94.7,168c3.3,1.8,7.2,1.8,10.5,0l50.9-29.3c3.3-1.8,5.3-5.4,5.3-9.1
		V70.7c0-3.8-1.9-7.2-5.3-9.1l-50.9-29.3c-3.3-1.8-7.2-1.8-10.5,0L43.9,61.6C40.6,63.4,38.7,66.9,38.6,70.7L38.6,70.7z"/>
	<path class="st2" d="M111.1,111.5l-7.2,19.9c-0.2,0.5-0.2,1.1,0,1.8l12.5,34.2l14.5-8.4l-17.4-47.6
		C113,110.4,111.5,110.4,111.1,111.5z"/>
	<path class="st2" d="M125.7,78c-0.3-1.1-1.8-1.1-2.4,0l-7.2,19.9c-0.2,0.5-0.2,1.1,0,1.8l20.4,56l14.5-8.4L125.7,78L125.7,78z"/>
	<path class="st3" d="M100,34.3c0.3,0,0.8,0.1,1.1,0.3l55.1,31.8c0.6,0.3,1.1,1.1,1.1,1.8v63.7c0,0.8-0.3,1.4-1.1,1.8l-55.1,31.8
		c-0.3,0.2-0.6,0.3-1.1,0.3s-0.8-0.1-1.1-0.3l-55.1-31.8c-0.6-0.3-1.1-1.1-1.1-1.8V68.2c0-0.8,0.3-1.4,1.1-1.8l55.1-31.8
		C99.2,34.4,99.7,34.3,100,34.3L100,34.3z M100,25.1c-1.9,0-4,0.4-5.7,1.5L39.2,58.3c-3.5,2-5.7,5.7-5.7,9.9v63.6
		c0,4.1,2.1,7.8,5.7,9.9l55.1,31.8c1.8,1.1,3.8,1.5,5.7,1.5s4-0.4,5.7-1.5l55.1-31.8c3.5-2,5.7-5.7,5.7-9.9V68.2
		c0-4.1-2.1-7.8-5.7-9.9l-55.2-31.8C104,25.5,101.8,25.1,100,25.1L100,25.1z"/>
	<path class="st1" d="M63.5,155.8l5-13.8l10.2,8.5l-9.6,8.7L63.5,155.8z"/>
	<path class="st4" d="M95.3,63.7h-14c-1.1,0-1.9,0.6-2.4,1.6l-30,82l14.5,8.4l33.1-90.4C96.8,64.5,96.2,63.6,95.3,63.7L95.3,63.7z"
		/>
	<path class="st4" d="M119.8,63.7h-14c-1.1,0-1.9,0.6-2.4,1.6L69.2,159l14.5,8.4l37.3-102C121.1,64.5,120.6,63.6,119.8,63.7
		L119.8,63.7z"/>
</g>
</svg>
