<?xml version="1.0" encoding="utf-8"?>
<!-- Generator: Adobe Illustrator 26.4.1, SVG Export Plug-In . SVG Version: 6.00 Build 0)  -->
<svg version="1.1" id="Layer_1" xmlns="http://www.w3.org/2000/svg" xmlns:xlink="http://www.w3.org/1999/xlink" x="0px" y="0px"
	 viewBox="0 0 200 200" style="enable-background:new 0 0 200 200;" xml:space="preserve">
<style type="text/css">
	.st0{fill:#FFFFFF;}
	.st1{fill-rule:evenodd;clip-rule:evenodd;fill:#FBD52E;}
	.st2{fill:#999999;}
	.st3{fill:#010202;}
</style>
<g id="Layer_x0020_1">
	<g id="_2090755387392">
		<path class="st0" d="M100,0.4L100,0.4c55,0,99.6,44.6,99.6,99.6l0,0c0,55-44.6,99.6-99.6,99.6l0,0C45,199.6,0.4,155,0.4,100l0,0
			C0.4,45,45,0.4,100,0.4z"/>
	</g>
</g>
<path class="st1" d="M99,100.7"/>
<g>
	<g>
		<path class="st2" d="M115.6,27.6l4.2,9.9c8.3,19.2,23.6,34.7,42.9,42.9l9.9,4.2c2.6,1.1,4.6,2.7,6.2,4.6
			c-4.9-35.1-32.6-62.8-67.7-67.7C112.9,22.9,114.6,25,115.6,27.6z M27.5,84.4l9.9-4.2C56.6,72,72,56.7,80.3,37.3l4.2-9.9
			c0.9-2.4,2.6-4.6,4.6-6.2C54,26.1,26.3,53.8,21.4,88.9C22.9,87.1,24.9,85.5,27.5,84.4z M172.5,115.7l-9.9,4.2
			c-19.2,8.3-34.7,23.6-42.9,42.9l-4.2,9.7c-0.9,2.4-2.6,4.6-4.6,6.2c35.1-4.9,62.8-32.6,67.7-67.7
			C177.1,113.1,175,114.8,172.5,115.7L172.5,115.7z M84.4,172.6l-4.2-9.7c-8.3-19.2-23.6-34.7-42.9-42.9l-9.9-4.2
			c-2.4-0.9-4.6-2.6-6.2-4.6c4.9,35.1,32.6,62.8,67.7,67.7C86.9,177.2,85.4,175,84.4,172.6z"/>
	</g>
	<path class="st3" d="M64.3,92.4l4.9-2c9.5-4.1,17.1-11.6,21.1-21.1l2-4.9c2.8-6.8,12.5-6.8,15.4,0l2,4.9
		c4.1,9.5,11.6,17.1,21.1,21.1l4.9,2c6.8,2.8,6.8,12.5,0,15.4l-4.9,2c-9.5,4.1-17.1,11.6-21.1,21.1l-2,4.9c-2.8,6.8-12.5,6.8-15.4,0
		l-2-4.9c-4.1-9.5-11.6-17.1-21.1-21.1l-4.9-2C57.5,104.9,57.5,95.3,64.3,92.4z"/>
</g>
</svg>
