<?xml version="1.0" encoding="UTF-8"?>
<svg xmlns="http://www.w3.org/2000/svg" xmlns:xlink="http://www.w3.org/1999/xlink" width="200px" height="px" viewBox="0 0 200 200" version="1.1">
<defs>
<clipPath id="clip1">
  <path d="M 111 0 L 196.019531 0 L 196.019531 85 L 111 85 Z M 111 0 "/>
</clipPath>
<clipPath id="clip2">
  <path d="M 111 111 L 196.019531 111 L 196.019531 196.019531 L 111 196.019531 Z M 111 111 "/>
</clipPath>
<clipPath id="clip3">
  <path d="M 0 111 L 85 111 L 85 196.019531 L 0 196.019531 Z M 0 111 "/>
</clipPath>
</defs>
<g id="surface1">
<g clip-path="url(#clip1)" clip-rule="nonzero">
<path style=" stroke:none;fill-rule:nonzero;fill:rgb(60%,60%,60%);fill-opacity:1;" d="M 117.457031 7.796875 L 122.675781 20.015625 C 132.914062 44.007812 152.023438 63.117188 176.011719 73.355469 L 188.230469 78.570312 C 191.429688 79.933594 194.023438 81.890625 196.03125 84.21875 C 189.945312 40.589844 155.4375 6.082031 111.8125 0 C 114.136719 2 116.09375 4.601562 117.457031 7.796875 Z M 117.457031 7.796875 "/>
</g>
<path style=" stroke:none;fill-rule:nonzero;fill:rgb(60%,60%,60%);fill-opacity:1;" d="M 7.796875 78.570312 L 20.015625 73.355469 C 44.007812 63.117188 63.117188 44.007812 73.359375 20.015625 L 78.570312 7.796875 C 79.9375 4.601562 81.894531 2 84.21875 0 C 40.589844 6.082031 6.085938 40.589844 0 84.21875 C 2.003906 81.890625 4.601562 79.933594 7.796875 78.570312 Z M 7.796875 78.570312 "/>
<g clip-path="url(#clip2)" clip-rule="nonzero">
<path style=" stroke:none;fill-rule:nonzero;fill:rgb(60%,60%,60%);fill-opacity:1;" d="M 188.230469 117.441406 L 176.011719 122.660156 C 152.023438 132.894531 132.914062 152.011719 122.675781 176 L 117.457031 188.214844 C 116.09375 191.414062 114.136719 194.011719 111.8125 196.015625 C 155.4375 189.933594 189.945312 155.421875 196.03125 111.792969 C 194.023438 114.121094 191.429688 116.078125 188.230469 117.441406 Z M 188.230469 117.441406 "/>
</g>
<g clip-path="url(#clip3)" clip-rule="nonzero">
<path style=" stroke:none;fill-rule:nonzero;fill:rgb(60%,60%,60%);fill-opacity:1;" d="M 78.570312 188.214844 L 73.359375 176 C 63.117188 152.011719 44.007812 132.894531 20.015625 122.660156 L 7.796875 117.441406 C 4.601562 116.078125 2.003906 114.121094 0 111.792969 C 6.085938 155.421875 40.589844 189.933594 84.21875 196.015625 C 81.894531 194.011719 79.9375 191.414062 78.570312 188.214844 Z M 78.570312 188.214844 "/>
</g>
<path style=" stroke:none;fill-rule:nonzero;fill:rgb(0%,0%,0%);fill-opacity:1;" d="M 53.542969 88.429688 L 59.566406 85.859375 C 71.386719 80.8125 80.804688 71.398438 85.851562 59.578125 L 88.417969 53.554688 C 92.019531 45.121094 103.976562 45.121094 107.578125 53.554688 L 110.144531 59.578125 C 115.191406 71.398438 124.609375 80.8125 136.429688 85.859375 L 142.453125 88.429688 C 150.882812 92.03125 150.882812 103.984375 142.453125 107.582031 L 136.429688 110.15625 C 124.609375 115.203125 115.191406 124.617188 110.144531 136.441406 L 107.578125 142.457031 C 103.976562 150.890625 92.019531 150.890625 88.417969 142.457031 L 85.851562 136.441406 C 80.804688 124.617188 71.386719 115.203125 59.566406 110.15625 L 53.542969 107.582031 C 45.109375 103.984375 45.109375 92.03125 53.542969 88.429688 Z M 53.542969 88.429688 "/>
</g>
</svg>
