<?xml version="1.0" encoding="utf-8"?>
<!-- Generator: Adobe Illustrator 26.4.1, SVG Export Plug-In . SVG Version: 6.00 Build 0)  -->
<svg version="1.1" id="Layer_1" xmlns="http://www.w3.org/2000/svg" xmlns:xlink="http://www.w3.org/1999/xlink" x="0px" y="0px"
	 viewBox="0 0 200 200" style="enable-background:new 0 0 200 200;" xml:space="preserve">
<style type="text/css">
	.st0{opacity:0.991;fill:#113F68;enable-background:new    ;}
	.st1{fill-rule:evenodd;clip-rule:evenodd;fill:#FBD52E;}
	.st2{fill-rule:evenodd;clip-rule:evenodd;fill:#F6F8F9;}
	.st3{fill-rule:evenodd;clip-rule:evenodd;fill:#134069;}
	.st4{fill-rule:evenodd;clip-rule:evenodd;fill:#FCFDFD;}
	.st5{fill-rule:evenodd;clip-rule:evenodd;fill:#6C89A2;}
	.st6{fill-rule:evenodd;clip-rule:evenodd;fill:#FAFBFC;}
	.st7{fill-rule:evenodd;clip-rule:evenodd;fill:#F9FAFB;}
	.st8{fill-rule:evenodd;clip-rule:evenodd;fill:#FBFCFC;}
</style>
<circle class="st0" cx="100" cy="100" r="99.9"/>
<path class="st1" d="M263.4-7.6"/>
<g>
	<g>
		<path class="st2" d="M97,31.5c2.5-0.2,4.8,0.3,7,1.5c17.9,10.7,35.9,21.2,54,31.5c1.3,23.3,1.3,46.7,0,70
			c-19.3,11.3-38.7,22.7-58,34c-19.4-11.5-38.9-22.8-58.5-34c-0.7-23.3-0.7-46.7,0-70C60.3,53.9,78.8,42.9,97,31.5z"/>
	</g>
	<g>
		<path class="st3" d="M98,38.5c3.9,0.9,7.5,2.4,11,4.5c14.4,8.6,28.9,17.1,43.5,25.5c0.7,20.7,0.7,41.3,0,62
			c-17.4,10.4-35.1,20.4-53,30c-17.5-9.7-34.8-19.7-52-30c-0.7-20.7-0.7-41.3,0-62C64.5,58.6,81.3,48.6,98,38.5z"/>
	</g>
	<g>
		<path class="st4" d="M76,60.5c15.7-0.3,31.3,0,47,1c1.8,7.6,3.5,15.3,5,23c-19,0-38,0-57,0C72.5,76.5,74.1,68.5,76,60.5z"/>
	</g>
	<g>
		<path class="st5" d="M85,88.5c9.8-1.3,19.8-1.3,30,0c-0.1,0.6-0.5,0.9-1,1C104.5,88.5,94.8,88.2,85,88.5z"/>
	</g>
	<g>
		<path class="st6" d="M85,88.5c9.8-0.3,19.5,0,29,1c-4.1,8.6-5.1,17.6-3,27c-7.7,0-15.3,0-23,0C90.2,106.8,89.2,97.5,85,88.5z"/>
	</g>
	<g>
		<path class="st7" d="M70,92.5c5.1,2.6,9.9,5.6,14.5,9c0.3,5.7,0.7,11.3,1,17c2.7,3,5.7,5.7,9,8c0.7,2,0.7,4,0,6
			c-2.9,3.2-6,6-9.5,8.5c-3.3,0.8-6.4,0.6-9.5-0.5c-6.6-12.2-13.4-24.2-20.5-36C60,100.5,65,96.5,70,92.5z"/>
	</g>
	<g>
		<path class="st8" d="M128,92.5c5.6,3.6,10.9,7.6,16,12c-7,11.9-13.9,23.9-20.5,36c-3.1,1.1-6.2,1.3-9.5,0.5c-2.9-3.2-6-6-9.5-8.5
			c-0.7-1.7-0.7-3.3,0-5c3.3-3.3,6.7-6.7,10-10c0.2-5.7,0.7-11.4,1.5-17C120.3,98.2,124.3,95.5,128,92.5z"/>
	</g>
</g>
</svg>
