<?xml version="1.0" encoding="utf-8"?>
<!-- Generator: Adobe Illustrator 26.4.1, SVG Export Plug-In . SVG Version: 6.00 Build 0)  -->
<svg version="1.1" id="Layer_1" xmlns="http://www.w3.org/2000/svg" xmlns:xlink="http://www.w3.org/1999/xlink" x="0px" y="0px"
	 viewBox="0 0 200 200" style="enable-background:new 0 0 200 200;" xml:space="preserve">
<style type="text/css">
	.st0{fill-rule:evenodd;clip-rule:evenodd;fill:#4520E6;}
	.st1{fill-rule:evenodd;clip-rule:evenodd;fill:#FFFFFF;}
</style>
<g id="surface1">
	<circle class="st0" cx="100" cy="100" r="100"/>
</g>
<g id="surface1_00000019663554836276338530000002567480122223131318_">
	<path class="st1" d="M139.3,124.7c0,11.4-9.3,20.6-20.7,20.6H78.9l41.2-41.1C130.8,105,139.3,113.8,139.3,124.7z M73.1,102.5V54.8
		h45.6c0.8,0,1.5,0,2.3,0.1L73.1,102.5z M147.6,75.3c0-9.6-4.8-18.1-12-23.4l19.7-19.6l-11.8,0.1L127.8,48c-2.9-1-6-1.5-9.2-1.5
		H64.8v75.8l64.8-64.4c5.8,3.6,9.7,10.1,9.7,17.4c0,11.3-9.3,20.6-20.7,20.6h-1.7l-72.1,71.6h11.7l14.1-14h47.9
		c16,0,29-12.9,29-28.8c0-10.5-5.7-19.6-14.1-24.7C141.9,95,147.6,85.8,147.6,75.3z"/>
</g>
</svg>
