<?xml version="1.0" encoding="UTF-8"?>
<svg xmlns="http://www.w3.org/2000/svg" xmlns:xlink="http://www.w3.org/1999/xlink" width="200px" height="px" viewBox="0 0 200 199" version="1.1">
<defs>
<filter id="alpha" filterUnits="objectBoundingBox" x="0%" y="0%" width="100%" height="100%">
  <feColorMatrix type="matrix" in="SourceGraphic" values="0 0 0 0 1 0 0 0 0 1 0 0 0 0 1 0 0 0 1 0"/>
</filter>
<mask id="mask0">
  <g filter="url(#alpha)">
<rect x="0" y="0" width="200" height="199" style="fill:rgb(0%,0%,0%);fill-opacity:0.972549;stroke:none;"/>
  </g>
</mask>
<clipPath id="clip1">
  <rect x="0" y="0" width="200" height="199"/>
</clipPath>
<g id="surface5" clip-path="url(#clip1)">
<path style=" stroke:none;fill-rule:evenodd;fill:rgb(100%,0%,47.45098%);fill-opacity:1;" d="M 12.378906 -0.0976562 C 12.507812 -0.0976562 12.636719 -0.0976562 12.769531 -0.0976562 C 33.496094 22.480469 54.128906 45.152344 74.660156 67.921875 C 75.023438 73.570312 72.523438 77.359375 67.152344 79.289062 C 64.375 80 61.578125 80.648438 58.773438 81.234375 C 56.902344 82.335938 55.894531 83.984375 55.75 86.1875 C 55.609375 90.609375 54.765625 94.882812 53.214844 99.015625 C 52.214844 101.296875 51.175781 103.566406 50.097656 105.816406 C 47.660156 111.617188 48.929688 116.441406 53.898438 120.292969 C 55.847656 121.71875 57.796875 123.144531 59.746094 124.570312 C 63.027344 127.621094 63.902344 131.28125 62.378906 135.550781 C 60.476562 138.488281 57.976562 140.789062 54.875 142.449219 C 50.148438 144.90625 45.144531 146.492188 39.863281 147.210938 C 39.519531 145.554688 38.902344 144 38.011719 142.546875 C 35.449219 139.125 33.5 135.367188 32.164062 131.273438 C 31.234375 127.625 31.039062 123.933594 31.578125 120.195312 C 32.023438 118.339844 32.738281 116.59375 33.722656 114.949219 C 36.648438 111.128906 39.570312 107.304688 42.496094 103.484375 C 46.339844 98.082031 48.484375 92.058594 48.929688 85.410156 C 49.480469 81.457031 51.171875 78.089844 53.996094 75.304688 C 54.164062 74.902344 54.261719 74.480469 54.289062 74.042969 C 53.617188 72.214844 52.804688 70.433594 51.851562 68.699219 C 46.183594 58.625 40.5625 48.519531 34.992188 38.382812 C 35.15625 38.226562 35.320312 38.292969 35.476562 38.574219 C 41.375 47.546875 47.222656 56.550781 53.019531 65.589844 C 54.667969 68.070312 56.390625 70.5 58.1875 72.875 C 60.335938 74.550781 62.675781 74.875 65.203125 73.847656 C 66.871094 73.414062 68.136719 72.472656 69.003906 71.03125 C 69.203125 69.996094 68.945312 69.089844 68.226562 68.308594 C 50.246094 46.105469 32.117188 24.015625 13.839844 2.039062 C 13.253906 1.382812 12.765625 0.671875 12.378906 -0.0976562 Z M 38.5 121.945312 C 40.898438 121.84375 42.261719 122.976562 42.59375 125.347656 C 42.347656 127.601562 41.113281 128.636719 38.890625 128.457031 C 38.097656 128.078125 37.804688 127.460938 38.011719 126.609375 C 38.558594 125.910156 38.753906 125.132812 38.597656 124.277344 C 37.21875 123.496094 37.1875 122.71875 38.5 121.945312 Z M 38.5 121.945312 "/>
</g>
<mask id="mask1">
  <g filter="url(#alpha)">
<rect x="0" y="0" width="200" height="199" style="fill:rgb(0%,0%,0%);fill-opacity:0.980392;stroke:none;"/>
  </g>
</mask>
<clipPath id="clip2">
  <rect x="0" y="0" width="200" height="199"/>
</clipPath>
<g id="surface8" clip-path="url(#clip2)">
<path style=" stroke:none;fill-rule:evenodd;fill:rgb(100%,0%,47.45098%);fill-opacity:1;" d="M 68.714844 37.605469 C 75.710938 37.304688 82.011719 39.21875 87.621094 43.335938 C 88.660156 44.179688 89.699219 45.019531 90.742188 45.863281 C 92.867188 47.980469 94.976562 50.085938 97.074219 52.179688 C 108.992188 49.804688 120.265625 51.523438 130.898438 57.328125 C 131.628906 57.839844 132.375 58.324219 133.136719 58.785156 C 134.265625 62.164062 134.457031 65.597656 133.722656 69.085938 C 133.242188 70.238281 132.820312 71.40625 132.457031 72.585938 C 132.671875 74.449219 133.710938 75.257812 135.574219 75.015625 C 137.308594 73.929688 138.511719 72.40625 139.179688 70.445312 C 139.730469 68.777344 140.214844 67.09375 140.644531 65.394531 C 144.757812 69.667969 147.710938 74.65625 149.511719 80.359375 C 149.890625 81.699219 150.085938 83.058594 150.097656 84.4375 C 147.027344 79.132812 142.382812 76.378906 136.160156 76.179688 C 130.945312 75.917969 125.746094 75.464844 120.566406 74.820312 C 113.605469 73.9375 107.726562 70.988281 102.925781 65.976562 C 101.578125 64.523438 100.277344 63.035156 99.023438 61.507812 C 95.980469 57.5 92.863281 53.546875 89.667969 49.652344 C 86.292969 45.894531 82.363281 42.882812 77.875 40.617188 C 74.773438 39.375 71.589844 38.46875 68.324219 37.894531 C 68.503906 37.839844 68.632812 37.746094 68.714844 37.605469 Z M 68.714844 37.605469 "/>
</g>
<mask id="mask2">
  <g filter="url(#alpha)">
<rect x="0" y="0" width="200" height="199" style="fill:rgb(0%,0%,0%);fill-opacity:0.901961;stroke:none;"/>
  </g>
</mask>
<clipPath id="clip3">
  <rect x="0" y="0" width="200" height="199"/>
</clipPath>
<g id="surface11" clip-path="url(#clip3)">
<path style=" stroke:none;fill-rule:evenodd;fill:rgb(100%,0%,47.45098%);fill-opacity:1;" d="M 136.941406 40.324219 C 137.109375 40.300781 137.242188 40.363281 137.328125 40.519531 C 136.046875 44.597656 136.078125 48.679688 137.425781 52.761719 C 137.851562 53.605469 138.371094 54.382812 138.988281 55.09375 C 142.363281 58.328125 145.449219 61.792969 148.246094 65.492188 C 148.117188 65.621094 147.984375 65.621094 147.855469 65.492188 C 145.175781 62.753906 142.21875 60.386719 138.988281 58.398438 C 138.714844 58.601562 138.519531 58.859375 138.402344 59.175781 C 138.246094 61.90625 137.984375 64.628906 137.621094 67.335938 C 137.234375 68.949219 136.585938 70.441406 135.671875 71.808594 C 135.699219 70.941406 135.894531 70.097656 136.257812 69.28125 C 136.386719 66.496094 136.386719 63.710938 136.257812 60.925781 C 136.113281 58.402344 135.105469 56.296875 133.234375 54.609375 C 130.003906 52.382812 126.5625 50.503906 122.90625 48.972656 C 124.300781 49.011719 125.664062 49.269531 127 49.75 C 129.382812 50.519531 131.757812 51.332031 134.113281 52.179688 C 134.296875 52.101562 134.425781 51.972656 134.503906 51.789062 C 134.699219 49.515625 134.957031 47.25 135.28125 44.988281 C 135.625 43.351562 136.175781 41.796875 136.941406 40.324219 Z M 136.941406 40.324219 "/>
</g>
<mask id="mask3">
  <g filter="url(#alpha)">
<rect x="0" y="0" width="200" height="199" style="fill:rgb(0%,0%,0%);fill-opacity:0.976471;stroke:none;"/>
  </g>
</mask>
<clipPath id="clip4">
  <rect x="0" y="0" width="200" height="199"/>
</clipPath>
<g id="surface14" clip-path="url(#clip4)">
<path style=" stroke:none;fill-rule:evenodd;fill:rgb(100%,0%,47.45098%);fill-opacity:1;" d="M 68.128906 41.492188 C 71.109375 42.035156 73.835938 43.171875 76.316406 44.890625 C 78.15625 46.714844 79.421875 48.882812 80.117188 51.402344 C 80.964844 54.917969 81.875 58.414062 82.847656 61.894531 C 83.917969 64.03125 85.085938 66.105469 86.355469 68.113281 C 86.53125 68.605469 86.433594 69.027344 86.0625 69.378906 C 85.085938 69.507812 84.113281 69.507812 83.136719 69.378906 C 78.761719 67.867188 75.285156 65.179688 72.710938 61.3125 C 68.90625 55.222656 67.382812 48.613281 68.128906 41.492188 Z M 68.128906 41.492188 "/>
</g>
<mask id="mask4">
  <g filter="url(#alpha)">
<rect x="0" y="0" width="200" height="199" style="fill:rgb(0%,0%,0%);fill-opacity:0.984314;stroke:none;"/>
  </g>
</mask>
<clipPath id="clip5">
  <rect x="0" y="0" width="200" height="199"/>
</clipPath>
<g id="surface17" clip-path="url(#clip5)">
<path style=" stroke:none;fill-rule:evenodd;fill:rgb(100%,0%,47.45098%);fill-opacity:1;" d="M 107.113281 73.945312 C 110.769531 77.007812 114.992188 78.855469 119.785156 79.484375 C 125.125 80.316406 130.453125 81.226562 135.769531 82.203125 C 142.78125 83.511719 148.726562 86.71875 153.605469 91.824219 C 159.394531 99.425781 160.757812 107.78125 157.699219 116.894531 C 157.164062 118.152344 156.582031 119.382812 155.945312 120.585938 C 155.660156 121.046875 155.429688 121.046875 155.261719 120.585938 C 154.839844 115.367188 152.433594 111.316406 148.050781 108.4375 C 145.773438 107.046875 143.433594 105.75 141.03125 104.554688 C 136.125 102.402344 131.1875 100.332031 126.21875 98.335938 C 121.324219 96.316406 116.839844 93.660156 112.769531 90.367188 C 108.03125 85.886719 106.148438 80.410156 107.113281 73.945312 Z M 107.113281 73.945312 "/>
</g>
<mask id="mask5">
  <g filter="url(#alpha)">
<rect x="0" y="0" width="200" height="199" style="fill:rgb(0%,0%,0%);fill-opacity:0.956863;stroke:none;"/>
  </g>
</mask>
<clipPath id="clip6">
  <rect x="0" y="0" width="200" height="199"/>
</clipPath>
<g id="surface20" clip-path="url(#clip6)">
<path style=" stroke:none;fill-rule:evenodd;fill:rgb(100%,0%,47.45098%);fill-opacity:1;" d="M 77.875 81.136719 C 81.882812 80.6875 84.773438 82.242188 86.550781 85.800781 C 87.28125 87.816406 86.796875 89.46875 85.085938 90.753906 C 81.601562 92.835938 77.898438 93.351562 73.976562 92.308594 C 72.769531 91.261719 72.25 89.933594 72.417969 88.324219 C 72.6875 84.738281 74.507812 82.339844 77.875 81.136719 Z M 79.042969 82.300781 C 81.058594 82.074219 82.488281 82.851562 83.332031 84.632812 C 83.132812 85.644531 82.546875 86.324219 81.578125 86.671875 C 79.5 87.4375 77.78125 86.953125 76.414062 85.214844 C 76.265625 84.25 76.621094 83.503906 77.484375 82.980469 C 78.003906 82.695312 78.523438 82.46875 79.042969 82.300781 Z M 79.042969 82.300781 "/>
</g>
<mask id="mask6">
  <g filter="url(#alpha)">
<rect x="0" y="0" width="200" height="199" style="fill:rgb(0%,0%,0%);fill-opacity:0.94902;stroke:none;"/>
  </g>
</mask>
<clipPath id="clip7">
  <rect x="0" y="0" width="200" height="199"/>
</clipPath>
<g id="surface23" clip-path="url(#clip7)">
<path style=" stroke:none;fill-rule:evenodd;fill:rgb(100%,0%,47.45098%);fill-opacity:1;" d="M 116.863281 97.847656 C 117.226562 97.917969 117.519531 98.113281 117.738281 98.429688 C 121.355469 102.953125 122.328125 108.007812 120.664062 113.589844 C 118.003906 119.476562 113.488281 123.070312 107.113281 124.375 C 105.953125 124.609375 104.78125 124.804688 103.605469 124.957031 C 98.117188 125.1875 92.660156 125.703125 87.230469 126.511719 C 85.269531 126.929688 83.351562 127.480469 81.480469 128.164062 C 81.382812 128.066406 81.285156 127.96875 81.1875 127.875 C 84.714844 125.359375 88.613281 123.675781 92.886719 122.820312 C 97.582031 121.996094 102.257812 121.089844 106.921875 120.101562 C 114.742188 117.679688 118.542969 112.402344 118.324219 104.261719 C 118.097656 102.058594 117.609375 99.921875 116.863281 97.847656 Z M 116.863281 97.847656 "/>
</g>
<mask id="mask7">
  <g filter="url(#alpha)">
<rect x="0" y="0" width="200" height="199" style="fill:rgb(0%,0%,0%);fill-opacity:0.984314;stroke:none;"/>
  </g>
</mask>
<clipPath id="clip8">
  <rect x="0" y="0" width="200" height="199"/>
</clipPath>
<g id="surface26" clip-path="url(#clip8)">
<path style=" stroke:none;fill-rule:evenodd;fill:rgb(100%,0%,47.45098%);fill-opacity:1;" d="M 124.855469 101.734375 C 129.421875 104.175781 133.972656 106.667969 138.5 109.21875 C 142.113281 111.261719 145.394531 113.757812 148.34375 116.699219 C 152.464844 121.574219 154.28125 127.210938 153.800781 133.605469 C 153.308594 141.941406 149.765625 148.644531 143.175781 153.71875 C 141.757812 154.605469 140.296875 155.414062 138.792969 156.148438 C 138.695312 156.085938 138.597656 156.019531 138.5 155.953125 C 142 149.269531 141.839844 142.660156 138.011719 136.132812 C 134.859375 131.015625 131.609375 125.960938 128.265625 120.972656 C 125.992188 117.539062 124.5625 113.785156 123.976562 109.703125 C 123.667969 106.972656 123.960938 104.316406 124.855469 101.734375 Z M 124.855469 101.734375 "/>
</g>
<mask id="mask8">
  <g filter="url(#alpha)">
<rect x="0" y="0" width="200" height="199" style="fill:rgb(0%,0%,0%);fill-opacity:0.972549;stroke:none;"/>
  </g>
</mask>
<clipPath id="clip9">
  <rect x="0" y="0" width="200" height="199"/>
</clipPath>
<g id="surface29" clip-path="url(#clip9)">
<path style=" stroke:none;fill-rule:evenodd;fill:rgb(100%,0%,47.45098%);fill-opacity:1;" d="M 84.308594 132.632812 C 90.789062 131.933594 96.703125 133.390625 102.046875 137.007812 C 104.980469 139.453125 106.960938 142.527344 107.992188 146.238281 C 108.832031 149.972656 109.546875 153.726562 110.136719 157.507812 C 111.539062 164.148438 115.601562 166.839844 122.320312 165.574219 C 123.933594 165.167969 125.527344 164.679688 127.09375 164.117188 C 127.339844 164.183594 127.40625 164.3125 127.289062 164.503906 C 123.65625 167.621094 119.464844 168.820312 114.71875 168.101562 C 111.167969 167.027344 108.40625 164.921875 106.433594 161.785156 C 104.574219 158.210938 102.820312 154.582031 101.167969 150.902344 C 99.296875 147.101562 96.339844 144.542969 92.300781 143.226562 C 88.75 142.257812 85.664062 143.066406 83.039062 145.65625 C 80.6875 149.707031 81.5 152.980469 85.476562 155.46875 C 88.46875 157.027344 91.035156 156.542969 93.175781 154.011719 C 95.050781 149.792969 93.71875 147.332031 89.179688 146.625 C 86.324219 146.851562 85.25 148.339844 85.964844 151.097656 C 86.53125 151.589844 87.148438 152.011719 87.816406 152.359375 C 86.421875 152.457031 85.480469 151.839844 84.992188 150.511719 C 84.550781 147.859375 85.625 146.140625 88.207031 145.363281 C 91.308594 144.816406 93.742188 145.820312 95.515625 148.375 C 97.054688 152.433594 96.113281 155.769531 92.691406 158.382812 C 88.914062 160.207031 85.273438 159.949219 81.773438 157.605469 C 79.175781 155.144531 76.574219 152.683594 73.976562 150.222656 C 71.84375 148.488281 69.4375 147.257812 66.765625 146.53125 C 64.230469 145.984375 61.695312 145.46875 59.160156 144.976562 C 66.304688 138.371094 74.6875 134.257812 84.308594 132.632812 Z M 84.308594 132.632812 "/>
</g>
</defs>
<g id="surface1">
<use xlink:href="#surface5" mask="url(#mask0)"/>
<use xlink:href="#surface8" mask="url(#mask1)"/>
<use xlink:href="#surface11" mask="url(#mask2)"/>
<use xlink:href="#surface14" mask="url(#mask3)"/>
<use xlink:href="#surface17" mask="url(#mask4)"/>
<use xlink:href="#surface20" mask="url(#mask5)"/>
<use xlink:href="#surface23" mask="url(#mask6)"/>
<use xlink:href="#surface26" mask="url(#mask7)"/>
<use xlink:href="#surface29" mask="url(#mask8)"/>
</g>
</svg>
