<?xml version="1.0" encoding="utf-8"?>
<svg version="1.1" id="Layer_1" xmlns="http://www.w3.org/2000/svg" xmlns:xlink="http://www.w3.org/1999/xlink" x="0px" y="0px"
	 viewBox="0 0 250 250" style="enable-background:new 0 0 250 250;" xml:space="preserve">
<style type="text/css">
	.st0{fill:#1E1B54;}
	.st1{fill:#60CAE0;}
</style>
<circle class="st0" cx="125" cy="125" r="125"/>
<path class="st1" d="M188.6,103.6c-1.2-0.9-2.8,0.5-2.1,1.8c3,5.8,6.5,15.5,2.7,24.5c-5.1-5-10.1-6.7-12.9-7.2
	c-0.6-0.1-1.1,0.7-0.6,1.1c6.3,6.1,7.6,14,7.6,14c-13.4,11.8-27,4.8-29.1,3.6c-0.1-0.1-0.1-0.2,0-0.3c1.5-0.9,8.9-6.4,10.8-27.1
	c0,0,0-0.1,0-0.1c0.5-0.7,8.5-11,4.1-32.4c-4.5-22.1-25.9-38.1-44.9-37.8c-22.6,0.3-42.2,15.5-46.8,37.9
	c-4.1,19.9,5.6,35.1,6.1,35.9c0,0,0,0,0,0.1c0.1,0.7,1.9,13.2,9.9,22.3c0.1,0.1,0.1,0.2,0,0.3c-1.6,1-14.7,9.1-27.3-4l2.4,1.8
	c0,0,1.3-7.9,7.6-14c0.5-0.5,0-1.3-0.6-1.1c-2.9,0.5-8.3,2.3-13.7,8c-0.5-0.7-1-1.4-1.4-2.2c-5.1-8.5-5-14.7-3.3-19
	c0.6-1.4-1.2-2.7-2.3-1.6c-6.8,6.7-13.9,20-5.5,43.7c0,0,0,0,0,0.1c0,1.1-0.1,32.9,30.7,39.7c29.3,6.4,42.3-20.7,44-24.4
	c0.1-0.1,0.3-0.1,0.3,0c1.4,4.1,13.7,35.8,48.2,25.4c0,0,23.8-4.8,25.5-38.2c0,0,0-0.1,0-0.1C198.9,152.9,216.8,124.2,188.6,103.6z"
	/>
</svg>
