<?xml version="1.0" encoding="UTF-8"?>
<svg id="Layer_1" data-name="Layer 1" xmlns="http://www.w3.org/2000/svg" version="1.1" viewBox="0 0 500 500">
  <defs>
    <style>
      .cls-1 {
        fill: #000;
      }

      .cls-1, .cls-2 {
        stroke-width: 0px;
      }

      .cls-2 {
        fill: #fff;
      }
    </style>
  </defs>
  <circle class="cls-2" cx="250" cy="250" r="250"/>
  <g>
    <path class="cls-1" d="M204.6,159.6c0,12.8-.1,25.6,0,38.4,0,4.4-3.3,6.9-6.8,6.9-25.6,0-51.2,0-76.7,0-4,0-6.9-2.9-6.9-6.9,0-25.6,0-51.3,0-76.9,0-3.5,2.7-6.7,6.7-6.6,25.7.1,51.4,0,77.1,0,2.8,0,4.8,1,6.1,3.6.5,1,.5,2,.5,3,0,12.9,0,25.7,0,38.6Z"/>
    <path class="cls-1" d="M340.5,114.4c12.9,0,25.8,0,38.8,0,1.9,0,3.6.5,4.9,1.9.9,1,1.5,2.2,1.5,3.7,0,.3,0,.6,0,1,0,25.7,0,51.4,0,77.1,0,.8,0,1.7-.2,2.5-.8,2.3-2.9,4-5.3,4.2-.4,0-.8,0-1.2,0-25.6,0-51.2,0-76.7,0-.4,0-.8,0-1.2,0-3-.2-5.4-2.6-5.7-5.6,0-.4,0-.8,0-1.2,0-25.6,0-51.3,0-76.9,0-1.5.2-2.8,1.1-4,1.3-1.8,3.1-2.6,5.3-2.6,9.9,0,19.8,0,29.7,0,3,0,6.1,0,9.1,0Z"/>
    <path class="cls-1" d="M204.9,249.9c0-12.9,0-25.7,0-38.6,0-1.9.4-3.6,1.8-4.9,1.1-1,2.3-1.6,3.8-1.6.5,0,.9,0,1.4,0,25.5,0,50.9,0,76.4,0,.9,0,1.8,0,2.7.2,2.4.7,4.1,2.9,4.3,5.4,0,.5,0,.9,0,1.4,0,25.5,0,50.9,0,76.4,0,.8,0,1.7-.2,2.5-.7,2.5-2.8,4.3-5.5,4.5-.4,0-.8,0-1.2,0-25.6,0-51.2,0-76.7,0-1,0-1.9,0-2.9-.4-2.5-.9-3.9-3.4-3.9-5.9,0-13,0-26,0-39Z"/>
    <path class="cls-1" d="M204.6,340.5c0,12.8,0,25.6,0,38.4,0,.8,0,1.7-.2,2.5-.8,2.4-2.9,4.1-5.5,4.2-.4,0-.8,0-1.2,0-25.5,0-51,0-76.6,0-.9,0-1.8,0-2.7-.2-2.4-.8-4.1-2.9-4.2-5.5,0-.5,0-1,0-1.6,0-25.4,0-50.8,0-76.2,0-3.9,2.7-7,7-7,25.5,0,51,0,76.6,0s.5,0,.8,0c3.6,0,6.1,2.6,6.1,6.2,0,5.4,0,10.9,0,16.3v22.9Z"/>
    <path class="cls-1" d="M340.7,385.6c-13,0-26,0-39,0-3.3,0-5.7-1.9-6.2-4.9,0-.5,0-1,0-1.5,0-25.8,0-51.6,0-77.3,0-4,2.5-6.5,6.5-6.5,25.8,0,51.6,0,77.3,0,3.6,0,6.6,2.9,6.5,6.6-.1,25.8-.1,51.6,0,77.3,0,3.7-2.9,6.6-6.5,6.5-12.9-.1-25.7,0-38.6,0Z"/>
  </g>
</svg>