<?xml version="1.0" encoding="UTF-8"?>
<svg xmlns="http://www.w3.org/2000/svg" xmlns:xlink="http://www.w3.org/1999/xlink" width="400px" height="400px" viewBox="0 0 400 400" version="1.1">
<g id="surface1">
<path style=" stroke:none;fill-rule:nonzero;fill:rgb(7.058824%,100%,50.196078%);fill-opacity:1;" d="M 321.464844 199.980469 L 291.625 199.980469 C 282.714844 199.980469 275.492188 207.210938 275.492188 216.136719 L 275.492188 259.511719 C 275.492188 268.4375 268.273438 275.671875 259.359375 275.671875 L 140.644531 275.671875 C 131.734375 275.671875 124.511719 282.902344 124.511719 291.828125 L 124.511719 321.714844 C 124.511719 330.640625 131.734375 337.871094 140.644531 337.871094 L 266.230469 337.871094 C 275.144531 337.871094 282.261719 330.640625 282.261719 321.714844 L 282.261719 297.738281 C 282.261719 288.8125 289.484375 282.480469 298.394531 282.480469 L 321.460938 282.480469 C 330.371094 282.480469 337.59375 275.246094 337.59375 266.320312 L 337.59375 215.949219 C 337.59375 207.023438 330.371094 199.980469 321.460938 199.980469 Z M 321.464844 199.980469 "/>
<path style=" stroke:none;fill-rule:nonzero;fill:rgb(7.058824%,100%,50.196078%);fill-opacity:1;" d="M 124.507812 140.609375 C 124.507812 131.683594 131.726562 124.449219 140.640625 124.449219 L 259.28125 124.449219 C 268.191406 124.449219 275.414062 117.21875 275.414062 108.292969 L 275.414062 78.40625 C 275.414062 69.480469 268.191406 62.25 259.28125 62.25 L 133.761719 62.25 C 124.851562 62.25 117.628906 69.480469 117.628906 78.40625 L 117.628906 101.433594 C 117.628906 110.359375 110.40625 117.59375 101.496094 117.59375 L 78.535156 117.59375 C 69.621094 117.59375 62.398438 124.824219 62.398438 133.75 L 62.398438 184.175781 C 62.398438 193.101562 69.652344 199.972656 78.5625 199.972656 L 108.402344 199.972656 C 117.316406 199.972656 124.535156 192.742188 124.535156 183.816406 L 124.507812 140.613281 Z M 124.507812 140.609375 "/>
<path style=" stroke:none;fill-rule:nonzero;fill:rgb(7.058824%,100%,50.196078%);fill-opacity:1;" d="M 185.957031 168.5625 L 214.617188 168.5625 C 223.957031 168.5625 231.535156 176.160156 231.535156 185.507812 L 231.535156 214.214844 C 231.535156 223.570312 223.953125 231.15625 214.617188 231.15625 L 185.957031 231.15625 C 176.613281 231.15625 169.039062 223.5625 169.039062 214.214844 L 169.039062 185.507812 C 169.039062 176.152344 176.621094 168.5625 185.957031 168.5625 Z M 185.957031 168.5625 "/>
</g>
</svg>
