<?xml version="1.0" encoding="UTF-8"?>
<svg id="Layer_1" data-name="Layer 1" xmlns="http://www.w3.org/2000/svg" xmlns:xlink="http://www.w3.org/1999/xlink" version="1.1" viewBox="0 0 200 200">
  <defs>
    <style>
      .cls-1 {
        clip-path: url(#clippath);
      }

      .cls-2 {
        fill: none;
      }

      .cls-2, .cls-3, .cls-4, .cls-5 {
        stroke-width: 0px;
      }

      .cls-3 {
        fill: url(#linear-gradient);
      }

      .cls-4 {
        fill: url(#linear-gradient-2);
      }

      .cls-4, .cls-5 {
        fill-rule: evenodd;
      }

      .cls-5 {
        fill: #fff;
      }
    </style>
    <clipPath id="clippath">
      <rect class="cls-2" x="19.8" y="36.9" width="160.3" height="127"/>
    </clipPath>
    <linearGradient id="linear-gradient" x1="123.8" y1="57.7" x2="37.5" y2="144" gradientTransform="translate(0 199.9) scale(1 -1)" gradientUnits="userSpaceOnUse">
      <stop offset="0" stop-color="#3294ff"/>
      <stop offset="1" stop-color="#005bbe"/>
    </linearGradient>
    <linearGradient id="linear-gradient-2" x1="72.2" y1="138" x2="166.3" y2="59" xlink:href="#linear-gradient"/>
  </defs>
  <path class="cls-5" d="M99.8,199.3c55,0,99.6-44.6,99.6-99.6S154.9,0,99.8,0,.2,44.6.2,99.6s44.6,99.6,99.6,99.6h0Z"/>
  <g class="cls-1">
    <g>
      <path class="cls-3" d="M43.9,102.8v-2.4c0-25,17.6-46.3,38.1-46.3s38.1,21.3,38.1,46.3-8.4,32.7-20.2,40.5c3.7,2.4,7.7,4.3,12,5,17.2-3.5,31-21.7,32.1-43.1v-2.4c0-35.7-27.3-63.5-62-63.5s-62.2,27.8-62.2,63.5,27.3,63.5,62,63.5,8-.4,12-1.1c-28-5.4-49-29.7-49.9-60Z"/>
      <path class="cls-4" d="M100,140.9s0,0,0,0c0,0,0,0,0,0,5.4,3.7,11.6,5.8,18.1,5.8,20.6,0,38.1-21.3,38.1-46.3v-2.4c-1.1-30.3-22.1-54.5-50.1-60,3.9-.7,7.8-1.1,12-1.1,34.8,0,62,27.8,62,63.5s-27.3,63.5-62,63.5-62-27.8-62-63.5v-2.4c.8-21.6,14.6-39.8,31.9-43.3,4.2.9,8.3,2.6,12,5.1-11.9,8-20.2,23.4-20.2,40.6s8.3,32.5,20.2,40.5ZM174.6,100.4c0-26.3-16.3-48.2-39.4-55.3,15.7,12.1,25.8,31.2,26.7,52.7v2.6c0,28.2-20.2,51.9-43.9,51.9s-43.7-23.7-43.7-51.9,6.5-30.8,16.8-40.5c-15.7,1.9-28.6,18.3-29.5,38.3v2.2c0,32.5,25,57.9,56.6,57.9s56.4-25.4,56.4-57.9Z"/>
    </g>
  </g>
</svg>