<?xml version="1.0" encoding="utf-8"?>
<!-- Generator: Adobe Illustrator 26.4.1, SVG Export Plug-In . SVG Version: 6.00 Build 0)  -->
<svg version="1.1" id="Layer_1" xmlns="http://www.w3.org/2000/svg" xmlns:xlink="http://www.w3.org/1999/xlink" x="0px" y="0px"
	 viewBox="0 0 200 200" style="enable-background:new 0 0 200 200;" xml:space="preserve">
<style type="text/css">
	.st0{fill:#29296E;}
	.st1{fill-rule:evenodd;clip-rule:evenodd;fill:#FBD52E;}
	.st2{fill-rule:evenodd;clip-rule:evenodd;fill:#FAFAFA;}
	.st3{fill-rule:evenodd;clip-rule:evenodd;fill:#F6643C;}
</style>
<g id="surface1">
	<path class="st0" d="M100,192.9c51.3,0,92.9-41.6,92.9-92.9c0-51.3-41.6-92.9-92.9-92.9C48.7,7.1,7.1,48.7,7.1,100
		C7.1,151.3,48.7,192.9,100,192.9z"/>
</g>
<path class="st1" d="M263.4-7.6"/>
<g id="surface1_00000063600415817982339010000009232785457411493272_">
	<path class="st2" d="M145.2,73.7l-2.4-7.5c-0.5-1.5-1.7-2.7-3.2-3.2l-7.5-2.3c-1-0.3-1.1-1.8,0-2.1l7.5-2.4
		c1.5-0.5,2.7-1.7,3.2-3.2l2.3-7.5c0.3-1,1.8-1.1,2.1,0l2.4,7.5c0.5,1.5,1.7,2.7,3.2,3.2l7.5,2.3c1,0.3,1.1,1.8,0,2.1l-7.5,2.4
		c-1.5,0.5-2.7,1.7-3.2,3.2l-2.3,7.5C147,74.8,145.5,74.8,145.2,73.7"/>
	<path class="st3" d="M13.8,97.8c2.3-4.5,6.8-7.8,11.4-9.9c4.7-2.1,9.9-3.4,15-3.8c10.3-0.9,20.3,0.8,29.4,3.8
		c4.7,1.4,8.9,3.3,13.3,5.3c2.1,1,4.1,2.2,6.1,3.3l5.6,3.3c6.2,3.8,12.2,7.2,17.9,9.8c5.7,2.6,10.8,4.3,15.6,5.2
		c4.8,0.9,9.7,0.9,15.8-0.5c6-1.4,12.7-4.3,19.7-8c7.1-3.7,14.3-8.3,22.6-12.8c-0.8,9.4-3.5,18.2-7.6,26.7
		c-4.2,8.4-10.2,16.6-18.8,23.2c-8.4,6.7-20.1,11.3-31.9,12c-11.8,0.8-23.1-1.8-32.6-5.7c-9.6-4-17.9-9.2-25.2-15
		c-2-1.6-3.1-2.5-4.6-3.8l-4.2-3.7c-2.8-2.2-5.6-4.8-8.3-7c-5.6-4.7-11.1-9.3-17.1-13.4c-3-2.1-6.2-4-9.8-5.6
		c-1.8-0.8-3.7-1.6-5.7-2.2C18.3,98.3,16.2,97.9,13.8,97.8"/>
	<path class="st2" d="M13.8,97.8c1.2-9.7,5.7-18.7,12.9-26.4c7.2-7.6,18.4-13.5,30.8-14.3c6.1-0.4,12.4,0.3,18.1,1.9
		c5.7,1.6,11,3.9,15.9,6.6c2.4,1.4,4.7,2.9,6.9,4.4l6,4.5l9.3,7.4c6.1,4.8,11.8,9.3,17.2,13c5.4,3.7,10,6.4,14.4,8
		c4.3,1.7,9.8,2.2,17.1,0.3c3.6-0.8,7.4-2.3,11.4-4c4-1.7,8.1-3.7,12.7-5.7c-0.5,4.9-1.5,9.7-3.4,14.2c-1.8,4.6-4.2,9.1-7.5,13.2
		c-1.7,2-3.5,4.1-5.6,6c-2.1,1.8-4.5,3.6-7.1,5.1c-5.2,3-11.3,5.2-17.6,6c-6.3,0.8-12.6,0.4-18.4-0.8c-5.8-1.2-11.1-3.1-15.9-5.3
		c-9.6-4.5-17.7-10.1-24.8-16.1c-3.6-3-6.9-6.1-10.1-9.3l-3.8-3.8c-1.1-1.1-2.3-2.2-3.4-3.2c-4.6-4-8.8-7.1-13.5-9
		c-4.6-2-10.6-2.8-17.8-1.5C30.2,90.2,22.2,93.4,13.8,97.8"/>
	<path class="st2" d="M52,147.5c0,2.9-2.3,5.2-5.2,5.2c-2.9,0-5.2-2.3-5.2-5.2c0-2.9,2.3-5.2,5.2-5.2C49.7,142.4,52,144.7,52,147.5"
		/>
	<path class="st2" d="M52,147.5c0,2.9-2.3,5.2-5.2,5.2c-2.9,0-5.2-2.3-5.2-5.2c0-2.9,2.3-5.2,5.2-5.2C49.7,142.4,52,144.7,52,147.5"
		/>
</g>
</svg>
