<?xml version="1.0" encoding="UTF-8"?>
<svg id="Layer_1" data-name="Layer 1" xmlns="http://www.w3.org/2000/svg" version="1.1" viewBox="0 0 200 200">
  <defs>
    <style>
      .cls-1 {
        fill: #30b49c;
      }

      .cls-1, .cls-2 {
        stroke-width: 0px;
      }

      .cls-2 {
        fill: #162f29;
        fill-rule: evenodd;
      }
    </style>
  </defs>
  <path class="cls-2" d="M99.8,199.3c55,0,99.6-44.6,99.6-99.6S154.9,0,99.8,0,.2,44.6.2,99.6s44.6,99.6,99.6,99.6h0Z"/>
  <g>
    <path class="cls-1" d="M155.2,102.6c-5.2,0-10.4,0-15.5,0-.9,0-2.1.6-2.4-1.2-.1-.8-1.4-.4-2.1-.4-9.8,0-19.5,0-29.3,0-.7,0-1.4,0-2.1,0-.5,0-.8-.4-.8-.9,0-.6.2-1,.9-1.1.6,0,1.2,0,1.8,0,9.8,0,19.5,0,29.3,0,1,0,2.4.7,2.6-1.2,0-.6,1.1-.3,1.7-.3,10.7,0,21.4,0,32.2,0,2.5,0,1.8,1.4,1.9,2.7,0,1.4.3,2.7-2,2.6-5.4-.2-10.7,0-16.1,0Z"/>
    <path class="cls-1" d="M138,90.4c-.3,0-.5,0-.6,0-3.5-2.9-7.2-.5-10.7-.2-7.1.5-14.2,1.7-21.3,2.6-.3,0-.5,0-.8,0-.9-.1-2.3.5-2.3-.9,0-1.4,1.4-1,2.2-1.1,9.5-1.2,19.1-2.2,28.6-3.5,1-.1,2.7.3,3.1-1.7,0-.4,1.9-.6,2.9-.8,9.9-1.2,19.8-2.4,29.6-3.7,3.1-.4,2.4,2.1,3,3.5.7,1.7-.8,1.7-1.9,1.9-10.3,1.3-20.6,2.6-30.9,3.9-.3,0-.5,0-.7,0Z"/>
    <path class="cls-1" d="M104.3,107.2c7.2.9,14.4,1.7,21.6,2.7,2.7.3,5.3.8,8,1.1.8,0,1.9.6,2.4-.8.3-.9,1.2-.6,1.9-.5,9.6,1.2,19.2,2.5,28.8,3.7.4,0,.9.1,1.3.2,3.6.3,4.2,1.4,2.5,4.7-.6,1.1-1.3.7-2,.6-10.2-1.2-20.5-2.6-30.7-3.6-1.9-.2-2.1-2.1-3.8-2.3-2.9-.2-5.7-.9-8.5-1.2-7.2-.9-14.4-1.6-21.6-2.5-.7,0-2,.3-1.9-1.1.1-1.3,1.3-.8,2.1-.9Z"/>
    <path class="cls-1" d="M164,133.2c-8.1-2-16-4.1-24-6-1.9-.5-3.9-.8-5.9-1.4-.9-.3-2.2-.1-2.2-1.8,0-1.1-1.4-.8-2.2-1-9.2-2.4-18.4-4.6-27.7-7-.7-.2-2.3.4-1.8-1.4.4-1.5,1.6-.8,2.4-.6,9.3,2.3,18.6,4.7,27.9,7,.8.2,1.9,1.1,2.6-.5.5-1,1.4-.2,2.1,0,10.1,2.5,20.1,5.1,30.2,7.5,1.8.4,1.8,1.2,1,2.4-.7,1-.4,3-2.4,2.7Z"/>
    <path class="cls-1" d="M166.9,71.7c0,.3-1.1,0-1.7.2-9.4,2.4-18.8,4.7-28.2,7-1.5.4-3.2,1.9-4.6-.3-.2-.2-1.3.1-1.9.3-9.1,2.3-18.3,4.6-27.4,6.9-.3,0-.7.2-1,.3-.8.1-1.5.5-1.9-.7-.5-1.5.8-1.1,1.3-1.3,9-2.3,17.9-4.5,26.9-6.8,1.5-.4,3.7.2,3.8-2.5,0-.3,1.2-.5,1.9-.7,9.5-2.4,19-4.7,28.5-7,2.2-.5,4.6,1.5,4.4,4.5Z"/>
    <path class="cls-1" d="M159.9,58c0,.8-.6.7-1.1.9-9.6,3.6-19.1,7.2-28.7,10.8-.8.3-1.6.9-2.4-.3-.4-.6-1.5,0-2.2.3-8.2,3.1-16.5,6.3-24.7,9.4-.5.2-1,.4-1.5.6-1,.4-2.1.5-2.4-.7-.3-1.1,1-1,1.6-1.3,8.6-3.3,17.3-6.6,26-9.9,1.1-.4,2.5-.5,2.4-2.2,0-.2.8-.6,1.3-.8,9-3.4,18-6.8,27-10.2,1.5-.6,4.7,1.8,4.8,3.4Z"/>
    <path class="cls-1" d="M159.8,142c0,1.6-3.2,3.9-4.7,3.3-9.1-3.4-18.1-6.9-27.2-10.3-.2,0-.6-.1-.7-.3-2.3-4.6-7.3-4.1-11.1-5.8-5.7-2.6-11.7-4.5-17.6-6.8-.6-.2-1.9-.2-1.5-1.3.4-1.2,1.5-.9,2.4-.5,6.1,2.3,12.2,4.7,18.3,7,2.1.8,4.2,1.7,6.4,2.4,1.4.4,2.8,2.2,4.4.2,0-.1.8.1,1.2.3,9.7,3.7,19.4,7.3,29.1,11,.4.2,1.1.2,1.1.9Z"/>
    <path class="cls-1" d="M93.6,125.3c1,.5,1.7.8,2.4,1.2,7.4,3.8,14.7,7.7,22.1,11.5.9.5,1.7,1.6,2.9.1.5-.6,1.1.2,1.6.4,8.8,4.6,17.5,9.1,26.3,13.7,1.2.6,1.3,1,.3,2-2.8,2.8-2.7,2.8-6.3.9-7.4-3.9-14.9-7.8-22.3-11.7-.8-.4-2-.4-1.6-2.1.2-1-1.4-1.3-2.3-1.8-7.4-3.9-14.7-7.7-22.1-11.5-.4-.2-.8-.4-1.2-.6-.4-.2-.9-.4-.6-.9.2-.5.6-.8.8-1.2Z"/>
    <path class="cls-1" d="M150,47c0,.5-.7.5-1.1.7-8.7,4.6-17.5,9.2-26.3,13.7-.5.3-1.1,1-1.6.4-1.1-1.5-2-.3-2.8.1-7.6,3.9-15.2,7.9-22.8,11.9-.8.4-1.7,1.4-2.4,0-.7-1.4.8-1.5,1.5-1.8,7.5-4,15.1-7.8,22.5-11.8.8-.5,2.6-.4,2-2.4-.2-.7.8-.9,1.3-1.1,8.2-4.3,16.4-8.6,24.6-12.9,1.2-.6,5.2,1.6,5.2,3.1Z"/>
    <path class="cls-1" d="M112.4,54.4c-2-2-3.2.3-4.4,1-6.4,3.9-12.7,8.1-19.1,12.1-.2.1-.5.2-.7.4-.8.6-1.5.6-2-.2-.7-1,.4-1.1.9-1.4,5.1-3.3,10.2-6.5,15.3-9.8,2.1-1.4,4.3-2.7,6.4-4.1.5-.3,1.5-.6,1-1.5-.6-1,.4-1.2.8-1.6,7.3-4.7,14.6-9.4,21.9-14,1-.7,5.3,1,5.7,2.1.2.6-.3.7-.7.9-8.2,5.2-16.3,10.5-24.5,15.7-.2.1-.5.2-.7.3Z"/>
    <path class="cls-1" d="M138.5,162.4c-4.5,3.2-4.5,3.2-8.9.3-6-3.8-12-7.6-17.9-11.4-.8-.5-2.5-.7-1.7-2.6.3-.7-.9-.9-1.4-1.3-7-4.5-14-9-21-13.5-.6-.4-1.8-.6-1.3-1.5.5-1.1,1.5-.7,2.4-.1,6.9,4.5,13.9,8.9,20.8,13.3.8.5,1.6,1.6,2.7.3.4-.5.9.1,1.3.4,8,5.1,16.1,10.3,24.1,15.4.3.2.5.4,1,.8Z"/>
    <path class="cls-1" d="M125.6,31c-7.4,6.1-14.5,11.9-21.6,17.8-.2.2-.4.5-.6.5-5.2-.4-7,4.4-10.5,6.7-3.6,2.3-6.7,5.4-9.9,8.1-1,.9-1.9,1.2-3.1-.2,5.3-4.4,10.7-8.8,15.9-13.3,1.7-1.5,4.6-2.1,4.3-5.4,0-.5,1.4-1.2,2.1-1.8,5.3-4.3,10.6-8.6,15.8-13,2.8-2.3,4.8,0,7.5.7Z"/>
    <path class="cls-1" d="M125.3,168.9c-3.3,2-5.9,2.4-8.9-.4-4.9-4.5-10.2-8.5-15.3-12.7-.6-.5-1.6-.9-1-2.1.5-1.1-.6-1.3-1.2-1.7-6.3-5.2-12.7-10.5-19-15.7,1-1.2,1.9-1.2,3-.2,5.6,4.7,11.3,9.4,17,14,.9.7,1.5,2,3,.8.2-.1.9.3,1.3.6,7,5.8,14,11.6,21.2,17.5Z"/>
    <path class="cls-1" d="M111.5,27c-6.9,6.9-13.2,13.2-19.6,19.5-4.3.2-5.9,4.1-8.6,6.5-2.9,2.5-5.6,5.3-8.2,8.1-1.1,1.1-1.9.8-3.1,0,5-4.9,9.9-9.8,14.8-14.6.7-.7,2.1-1.2,1-2.7-.3-.5.4-.9.7-1.3,5.1-5.1,10.2-10.4,15.5-15.4,2-1.9,4.4,0,7.4,0Z"/>
    <path class="cls-1" d="M111.2,172.6c-3.7,1-6.6,1.6-9.4-1.7-3.9-4.6-8.5-8.6-12.8-12.9-.7-.7-1.7-1.2-.8-2.6.5-.8-.7-1.3-1.2-1.8-4.9-4.9-9.8-9.8-14.8-14.7,1.2-1.5,2.1-.9,3.1.2,4.3,4.4,8.7,8.7,13.1,13,.7.6,1.2,2.3,2.7.8.4-.4.6.2.8.4,6.4,6.3,12.8,12.7,19.4,19.3Z"/>
    <path class="cls-1" d="M62.9,139.6c1.9-1.1,2.7,0,3.6,1.2,3.3,4,6.7,8.1,10,12.1.6.7.9,2,2.4,1.2.5-.3.9.4,1.2.8,5.1,6.2,10.2,12.4,15.5,18.9-4.3,0-7.8-.3-10.3-4.1-2.7-4-6-7.5-9-11.2-.5-.6-1.4-1-.4-2.1.7-.8-.5-1.5-1-2.1-4-4.9-8-9.7-12-14.6Z"/>
    <path class="cls-1" d="M62.9,60.5c4-4.9,7.9-9.6,11.7-14.3.7-.9,2.3-1.6.9-3.2-.1-.1.4-.9.7-1.3,3.4-4.1,6.8-8.3,10.2-12.4,2.3-2.8,3.7-3.2,9.3-3-3.2,4-6.3,7.7-9.4,11.5-1.7,2.1-3.4,4.3-5.2,6.3-.7.8-1.1,2.6-3,1.5-.5-.3-.8.7-1.2,1.1-3.5,4.2-6.9,8.4-10.4,12.6-.9,1.1-1.7,2.1-3.7,1.2Z"/>
    <path class="cls-1" d="M80.3,29.1c-3.5,5.4-7,10.9-10.5,16.3-.4.6-.6,1.5-1.8.9-1.1-.5-1.2.7-1.6,1.3-2.6,3.9-5.2,7.9-7.7,11.9-.8,1.4-1.8,2-3.6,1.8,3.2-5,6.3-9.8,9.4-14.7.5-.8,1.6-1.5.3-2.7-.6-.5.1-1.1.5-1.6,2.1-3.3,4.2-6.6,6.4-9.9,2-3,5.4-2.7,8.5-3.4Z"/>
    <path class="cls-1" d="M55.1,138.5c1.9,0,2.8.6,3.6,1.8,2.5,4.1,5.2,8.1,7.8,12.1.4.7.6,1.7,1.9,1,.7-.4,1,.6,1.3,1,3.5,5.4,7,10.9,10.5,16.4-4,.1-7.4-1.6-9.3-4.7-1.3-2.1-2.8-4-3.9-6.2-.8-1.5-3.3-2.6-1.5-5.1.2-.3-.8-1.4-1.3-2.2-3-4.6-6-9.3-9.1-14.1Z"/>
    <path class="cls-1" d="M66.6,34.3c-2.8,5.3-4.6,11.6-8.7,15.6-3.9,3.9-5.2,8.7-8.2,12.8-.8,1.1-1.9,1.3-3.2,1.7,2.1-4,4.3-8.1,6.4-12.1.6-1.1,2.1-2.2.5-3.7-.1,0,0-.5.1-.7,2.5-4.3,3.6-9.6,8.9-11.8,1.3-.6,2.6-1.4,3.8-2l.3.4Z"/>
    <path class="cls-1" d="M66.7,165.8c-7.3-1.7-11.4-6.9-12.5-12.9-1.2-6.6-5.6-11.3-7.5-17.4,1.8.4,2.8,1.4,3.5,3,1.3,2.8,2.8,5.5,4.4,8.1.7,1.1.6,3.4,3,2.7.1,0,.5.5.6.8,2.8,5.2,5.6,10.4,8.4,15.8Z"/>
    <path class="cls-1" d="M40.8,68.1c.6-3.4,2-6,2.8-8.9.2-.8.8-1.6-.3-2.3-.5-.3-.2-.9,0-1.4,1-5.8,5.1-9.2,9.9-12.3-1.7,4.9-3.4,9.7-5.2,14.6-3.7,1.5-3,5.4-4.5,8.2-.6,1.1-1.5,1.4-2.6,2.1Z"/>
    <path class="cls-1" d="M40.6,132c2,.5,2.8,1.5,3.2,3,.4,1.8,1.2,3.4,1.8,5.2.3.7.3,1.6,1.5,1.4,1-.2.9.7,1.1,1.2,1.4,3.9,2.8,7.9,4.2,11.8.2.6.6,1.3,0,1.7-.6.5-1.2-.1-1.6-.5-3-2.9-6.4-5.5-7.2-10-.2-1.1-1.3-2.2.2-3.2.6-.4-.1-1.1-.3-1.7-.9-2.8-1.9-5.6-3-8.8Z"/>
    <path class="cls-1" d="M40.6,55.2c-.4,7.5-3.3,14-7.5,20.1.1-.7.3-1.4.3-2,.1-2.7,2.3-5,1-8-.3-.6.9-2,1.5-2.9,1.5-2.4,3.2-4.8,4.7-7.1Z"/>
    <path class="cls-1" d="M33.5,124.9c3.6,6.1,6.8,12.4,7.4,20.2-2.7-3.4-5.8-6.4-6.2-10-.4-3.4-1.3-6.7-1.2-10.2Z"/>
    <path class="cls-1" d="M29.9,72.4c1.5,5.6-.7,9.9-3.2,14.2.4-4.7,1.6-9.2,3.2-14.2Z"/>
    <path class="cls-1" d="M27.1,114.8c2.2,3.1,4.1,6.2,3,10.6-1.7-3.6-2.2-7.2-3-10.6Z"/>
  </g>
</svg>