<?xml version="1.0" encoding="UTF-8"?>
<svg id="Layer_1" data-name="Layer 1" xmlns="http://www.w3.org/2000/svg" version="1.1" viewBox="0 0 500 500">
  <defs>
    <style>
      .cls-1 {
        fill: #fdfdfd;
      }

      .cls-1, .cls-2 {
        stroke-width: 0px;
      }

      .cls-2 {
        fill: #030304;
      }
    </style>
  </defs>
  <path class="cls-2" d="M498.3,249.7c0,138.3-110.8,249.5-248.6,249.4-137.3,0-248.1-111.3-248.1-249.2C1.7,111.9,112.7.8,250.6.9c136.8.1,247.7,111.4,247.7,248.8ZM478.9,250c0-126.9-102.1-229.6-228.5-229.7-126.6,0-229.1,102.3-229.3,228.9-.1,127.5,101.8,230.3,228.5,230.4,126.9,0,229.3-102.4,229.3-229.6Z"/>
  <path class="cls-1" d="M478.9,250c0,127.2-102.3,229.7-229.3,229.6-126.7,0-228.6-102.9-228.5-230.4.1-126.6,102.6-229,229.3-228.9,126.4,0,228.5,102.7,228.5,229.7ZM262.4,143.7c-29.7,1.5-54.7,8.6-76.2,25.3-20.5,16-33.3,36-30.4,63.4,1.9,17.5,11.3,25.9,28.8,26.2,15.5.3,30.8-1.4,46.1-3.2,28.4-3.3,56.8-6.2,85.1-9.8,6.5-.8,11.4,0,14.6,5.7,3.4,6,1.1,11-3.6,15.2-7.6,6.8-15.2,13.6-22.8,20.3-21,18.3-41.9,36.7-63.1,54.7-11.3,9.6-20.4,6.4-24.1-7.7-3.6-13.6-7-27.3-10.9-40.8-3-10.5-12-17.4-21-16.6-10.6,1-16.8,7.9-18,20.1-2.7,28,20.2,55.5,50.6,59,40.1,4.7,74.8-8.7,104.4-35.3,15.3-13.7,26.1-30.6,27.7-51.8,1.5-20-9.3-34.6-27.6-33.2-30.5,2.2-60.9,5.1-91.4,7.6-15.1,1.3-30.2,2.4-45.4,3.5-4.3.3-8.4,0-11-4.6-3.8-6.5-1.6-11.9,7.2-16.5,18.5-9.6,37-19.3,55.5-28.9,17.6-9.1,35.3-18,53.1-26.9,4.3-2.2,9.2-3.5,13.2.4,3.7,3.6,1.3,8.1.2,12-2,7.4-5.1,14.6-6.8,22-1.6,6.9-1.6,13.9,5.4,18.7,12.3,8.6,28.6,0,29.9-16.3,1.1-14.5-3.8-27.6-12.4-38.8-15.1-19.5-36.8-23.7-57.1-23.8Z"/>
  <path class="cls-2" d="M262.4,143.7c20.3,0,42,4.3,57.1,23.8,8.7,11.2,13.5,24.3,12.4,38.8-1.2,16.2-17.5,24.9-29.9,16.3-6.9-4.8-6.9-11.8-5.4-18.7,1.7-7.5,4.7-14.6,6.8-22,1.1-3.9,3.5-8.4-.2-12-4-3.9-8.8-2.5-13.2-.4-17.8,8.9-35.5,17.8-53.1,26.9-18.5,9.5-37,19.2-55.5,28.9-8.8,4.6-11,9.9-7.2,16.5,2.6,4.5,6.7,4.9,11,4.6,15.1-1,30.3-2.2,45.4-3.5,30.5-2.5,60.9-5.4,91.4-7.6,18.3-1.3,29.1,13.3,27.6,33.2-1.6,21.2-12.4,38.1-27.7,51.8-29.6,26.6-64.3,40-104.4,35.3-30.4-3.5-53.3-31-50.6-59,1.2-12.2,7.4-19.2,18-20.1,9-.8,18.1,6.1,21,16.6,3.8,13.5,7.3,27.2,10.9,40.8,3.7,14.2,12.8,17.3,24.1,7.7,21.2-18,42.1-36.4,63.1-54.7,7.7-6.7,15.3-13.5,22.8-20.3,4.6-4.2,7-9.2,3.6-15.2-3.3-5.7-8.1-6.6-14.6-5.7-28.3,3.6-56.8,6.5-85.1,9.8-15.3,1.8-30.6,3.5-46.1,3.2-17.5-.3-27-8.7-28.8-26.2-2.9-27.4,9.9-47.4,30.4-63.4,21.5-16.7,46.5-23.7,76.2-25.3Z"/>
</svg>