<?xml version="1.0" encoding="UTF-8"?>
<svg xmlns="http://www.w3.org/2000/svg" xmlns:xlink="http://www.w3.org/1999/xlink" width="200px" height="200px" viewBox="0 0 200 200" version="1.1">
<defs>
<linearGradient id="linear0" gradientUnits="userSpaceOnUse" x1="16" y1="0" x2="16" y2="32" >
<stop offset="0" style="stop-color:rgb(92.941176%,30.588235%,20%);stop-opacity:1;"/>
<stop offset="1" style="stop-color:rgb(81.176471%,21.960784%,23.137255%);stop-opacity:1;"/>
</linearGradient>
</defs>
<g id="surface1">
<path style="fill-rule:nonzero;fill:url(#linear0);stroke-width:0.5;stroke-linecap:butt;stroke-linejoin:miter;stroke:rgb(100%,100%,100%);stroke-opacity:1;stroke-miterlimit:4;" d="M 31.75 16 C 31.75 24.698125 24.698125 31.75 16 31.75 C 7.301875 31.75 0.25 24.698125 0.25 16 C 0.25 7.301875 7.301875 0.25 16 0.25 C 24.698125 0.25 31.75 7.301875 31.75 16 Z M 31.75 16 " transform="matrix(6.25,0,0,6.25,0,0)"/>
<path style=" stroke:none;fill-rule:nonzero;fill:rgb(98.039216%,94.509804%,89.411765%);fill-opacity:1;" d="M 84.738281 59.089844 C 60.976562 68.214844 58.800781 91.574219 51.980469 102.484375 C 45.089844 113.527344 29.292969 119.617188 31.449219 125.242188 C 33.613281 130.867188 49.425781 124.828125 61.9375 128.417969 C 74.300781 131.960938 91.550781 147.871094 115.3125 138.746094 C 121.066406 136.546875 126.273438 133.121094 130.574219 128.710938 C 134.871094 124.300781 138.164062 119.011719 140.21875 113.203125 C 140.320312 112.921875 140.359375 112.621094 140.324219 112.320312 C 140.292969 112.023438 140.191406 111.734375 140.03125 111.480469 C 139.871094 111.226562 139.65625 111.011719 139.398438 110.855469 C 139.144531 110.699219 138.855469 110.601562 138.558594 110.574219 C 138.164062 110.535156 137.769531 110.613281 137.425781 110.804688 C 137.082031 110.996094 136.800781 111.285156 136.625 111.636719 C 133.578125 117.683594 128.78125 122.679688 122.859375 125.972656 C 116.9375 129.261719 110.164062 130.699219 103.414062 130.09375 C 96.667969 129.492188 90.257812 126.875 85.015625 122.582031 C 79.769531 118.292969 75.9375 112.523438 74.011719 106.027344 C 82.132812 102.261719 90.382812 98.777344 98.746094 95.585938 C 106.953125 92.417969 115.265625 89.53125 123.667969 86.929688 C 128.6875 85.390625 133.292969 84.105469 137.449219 83.054688 L 138.34375 82.835938 C 138.96875 82.679688 139.613281 83.015625 139.84375 83.617188 L 139.851562 83.628906 C 139.988281 83.984375 140.105469 84.347656 140.230469 84.710938 C 141.058594 87.035156 141.667969 89.386719 142.082031 91.734375 C 142.121094 91.972656 142.21875 92.199219 142.363281 92.394531 C 142.507812 92.589844 142.695312 92.746094 142.914062 92.851562 C 143.128906 92.960938 143.371094 93.015625 143.613281 93.011719 C 143.855469 93.007812 144.09375 92.949219 144.308594 92.835938 C 147.46875 91.148438 150.578125 89.367188 153.632812 87.496094 C 164.019531 81.097656 169.78125 75.671875 168.601562 72.597656 C 167.414062 69.515625 159.507812 69.339844 147.5 71.535156 C 142.457031 72.472656 137.453125 73.617188 132.5 74.960938 C 128.667969 75.972656 124.625 77.140625 120.414062 78.449219 C 112.015625 81.0625 103.703125 83.949219 95.496094 87.109375 C 87.773438 90.0625 80.144531 93.25 72.621094 96.671875 C 72.585938 91.15625 73.90625 85.714844 76.460938 80.824219 C 79.015625 75.933594 82.730469 71.742188 87.277344 68.617188 C 91.820312 65.492188 97.0625 63.523438 102.546875 62.890625 C 108.027344 62.257812 113.578125 62.972656 118.71875 64.980469 C 119.46875 65.273438 120.320312 65.066406 120.863281 64.480469 C 121.066406 64.257812 121.214844 63.988281 121.300781 63.703125 C 121.382812 63.414062 121.402344 63.109375 121.351562 62.8125 C 121.300781 62.515625 121.179688 62.234375 121.003906 61.988281 C 120.828125 61.746094 120.597656 61.546875 120.332031 61.402344 C 114.917969 58.464844 108.933594 56.738281 102.789062 56.339844 C 96.644531 55.941406 90.484375 56.878906 84.738281 59.089844 Z M 84.738281 59.089844 "/>
</g>
</svg>
