<?xml version="1.0" encoding="utf-8"?>
<!-- Generator: Adobe Illustrator 26.4.1, SVG Export Plug-In . SVG Version: 6.00 Build 0)  -->
<svg version="1.1" id="Layer_1" xmlns="http://www.w3.org/2000/svg" xmlns:xlink="http://www.w3.org/1999/xlink" x="0px" y="0px"
	 viewBox="0 0 200 200" style="enable-background:new 0 0 200 200;" xml:space="preserve">
<style type="text/css">
	.st0{fill:url(#SVGID_1_);stroke:#FFFFFF;stroke-width:3.125;stroke-miterlimit:25;}
	.st1{fill:#FAF1E4;}
	.st2{fill-rule:evenodd;clip-rule:evenodd;fill:#FBD52E;}
</style>
<g id="surface1">
	
		<linearGradient id="SVGID_1_" gradientUnits="userSpaceOnUse" x1="16" y1="199.4156" x2="16" y2="168.5844" gradientTransform="matrix(6.25 0 0 -6.25 0 1250)">
		<stop  offset="0" style="stop-color:#ED4E33"/>
		<stop  offset="1" style="stop-color:#CF383B"/>
	</linearGradient>
	<path class="st0" d="M194.8,100c0,52.4-42.5,94.8-94.8,94.8S5.2,152.4,5.2,100S47.6,5.2,100,5.2S194.8,47.6,194.8,100z"/>
	<path class="st1" d="M85.3,60.6c-22.9,8.8-25,31.3-31.6,41.8C47.1,113,31.9,118.9,34,124.3c2.1,5.4,17.3-0.4,29.4,3.1
		c11.9,3.4,28.5,18.7,51.4,10c5.5-2.1,10.6-5.4,14.7-9.7c4.1-4.2,7.3-9.3,9.3-14.9c0.1-0.3,0.1-0.6,0.1-0.9c0-0.3-0.1-0.6-0.3-0.8
		c-0.2-0.2-0.4-0.5-0.6-0.6c-0.2-0.2-0.5-0.2-0.8-0.3c-0.4,0-0.8,0-1.1,0.2s-0.6,0.5-0.8,0.8c-2.9,5.8-7.6,10.6-13.3,13.8
		c-5.7,3.2-12.2,4.6-18.7,4c-6.5-0.6-12.7-3.1-17.7-7.2c-5.1-4.1-8.7-9.7-10.6-16c7.8-3.6,15.8-7,23.8-10.1c7.9-3.1,15.9-5.8,24-8.3
		c4.8-1.5,9.3-2.7,13.3-3.7l0.9-0.2c0.6-0.2,1.2,0.2,1.4,0.8l0,0c0.1,0.3,0.2,0.7,0.4,1c0.8,2.2,1.4,4.5,1.8,6.8
		c0,0.2,0.1,0.4,0.3,0.6s0.3,0.3,0.5,0.4c0.2,0.1,0.4,0.2,0.7,0.2c0.2,0,0.5-0.1,0.7-0.2c3-1.6,6-3.3,9-5.1
		c10-6.2,15.6-11.4,14.4-14.4c-1.1-3-8.8-3.1-20.3-1c-4.9,0.9-9.7,2-14.5,3.3c-3.7,1-7.6,2.1-11.6,3.4c-8.1,2.5-16.1,5.3-24,8.3
		c-7.4,2.8-14.8,5.9-22,9.2c0-5.3,1.2-10.6,3.7-15.3c2.5-4.7,6-8.8,10.4-11.8c4.4-3,9.4-4.9,14.7-5.5c5.3-0.6,10.6,0.1,15.6,2
		c0.7,0.3,1.5,0.1,2.1-0.5c0.2-0.2,0.3-0.5,0.4-0.7c0.1-0.3,0.1-0.6,0-0.9c0-0.3-0.2-0.6-0.3-0.8c-0.2-0.2-0.4-0.4-0.6-0.6
		c-5.2-2.8-11-4.5-16.9-4.9C96.8,57.6,90.8,58.5,85.3,60.6z"/>
</g>
<path class="st2" d="M263.4-7.6"/>
</svg>
