<?xml version="1.0" encoding="utf-8"?>
<!-- Generator: Adobe Illustrator 26.4.1, SVG Export Plug-In . SVG Version: 6.00 Build 0)  -->
<svg version="1.1" id="Layer_1" xmlns="http://www.w3.org/2000/svg" xmlns:xlink="http://www.w3.org/1999/xlink" x="0px" y="0px"
	 viewBox="0 0 200 200" style="enable-background:new 0 0 200 200;" xml:space="preserve">
<style type="text/css">
	.st0{fill:url(#SVGID_1_);}
	.st1{fill:#FAF1E4;}
	.st2{fill-rule:evenodd;clip-rule:evenodd;fill:#FBD52E;}
</style>
<g id="surface1">
	
		<linearGradient id="SVGID_1_" gradientUnits="userSpaceOnUse" x1="-149.48" y1="371.9888" x2="-149.48" y2="404.5112" gradientTransform="matrix(6.25 0 0 6.25 1034.25 -2326.5625)">
		<stop  offset="0" style="stop-color:#ED4E33"/>
		<stop  offset="1" style="stop-color:#CF383B"/>
	</linearGradient>
	<path class="st0" d="M200,100c0,55.3-44.8,100-100,100S0,155.3,0,100S44.7,0,100,0S200,44.7,200,100z"/>
	<path class="st1" d="M82.4,53.1c-27.4,10.5-29.9,37.4-37.8,50c-7.9,12.7-26.1,19.7-23.5,26.2c2.5,6.5,20.7-0.5,35.1,3.7
		c14.2,4.1,34.1,22.3,61.4,12c6.6-2.5,12.7-6.5,17.6-11.6c4.9-5,8.7-11.1,11.1-17.8c0.1-0.4,0.1-0.7,0.1-1.1s-0.1-0.7-0.4-1
		c-0.2-0.2-0.5-0.6-0.7-0.7c-0.2-0.2-0.6-0.2-1-0.4c-0.5,0-1,0-1.3,0.2c-0.4,0.2-0.7,0.6-1,1c-3.5,6.9-9.1,12.7-15.9,16.5
		c-6.8,3.8-14.6,5.5-22.3,4.8c-7.8-0.7-15.2-3.7-21.2-8.6c-6.1-4.9-10.4-11.6-12.7-19.1c9.3-4.3,18.9-8.4,28.4-12.1
		c9.4-3.7,19-6.9,28.7-9.9c5.7-1.8,11.1-3.2,15.9-4.4l1.1-0.2c0.7-0.2,1.4,0.2,1.7,1l0,0c0.1,0.4,0.2,0.8,0.5,1.2
		c1,2.6,1.7,5.4,2.2,8.1c0,0.2,0.1,0.5,0.4,0.7c0.2,0.2,0.4,0.4,0.6,0.5c0.2,0.1,0.5,0.2,0.8,0.2c0.2,0,0.6-0.1,0.8-0.2
		c3.6-1.9,7.2-3.9,10.8-6.1c12-7.4,18.6-13.6,17.2-17.2c-1.3-3.6-10.5-3.7-24.3-1.2c-5.9,1.1-11.6,2.4-17.3,3.9
		c-4.4,1.2-9.1,2.5-13.9,4.1c-9.7,3-19.2,6.3-28.7,9.9c-8.8,3.3-17.7,7.1-26.3,11c0-6.3,1.4-12.7,4.4-18.3c3-5.6,7.2-10.5,12.4-14.1
		c5.3-3.6,11.2-5.9,17.6-6.6c6.3-0.7,12.7,0.1,18.6,2.4c0.8,0.4,1.8,0.1,2.5-0.6c0.2-0.2,0.4-0.6,0.5-0.8c0.1-0.4,0.1-0.7,0-1.1
		c0-0.4-0.2-0.7-0.4-1c-0.2-0.2-0.5-0.5-0.7-0.7c-6.2-3.3-13.1-5.4-20.2-5.9C96.2,49.5,89,50.6,82.4,53.1z"/>
</g>
<path class="st2" d="M263.4-7.6"/>
</svg>
