<?xml version="1.0" encoding="UTF-8"?>
<svg xmlns="http://www.w3.org/2000/svg" xmlns:xlink="http://www.w3.org/1999/xlink" width="200px" height="px" viewBox="0 0 200 200" version="1.1">
<defs>
<linearGradient id="linear0" gradientUnits="userSpaceOnUse" x1="158.614" y1="16.7426" x2="23.7921" y2="168.307" >
<stop offset="0" style="stop-color:rgb(8.627451%,83.921569%,63.137255%);stop-opacity:1;"/>
<stop offset="1" style="stop-color:rgb(4.313725%,77.647059%,85.490196%);stop-opacity:1;"/>
</linearGradient>
<linearGradient id="linear1" gradientUnits="userSpaceOnUse" x1="41" y1="138" x2="140.675" y2="45.6494" gradientTransform="matrix(1.123596,0,0,1.123596,0,0)">
<stop offset="0" style="stop-color:rgb(3.921569%,76.862745%,86.666667%);stop-opacity:1;"/>
<stop offset="1" style="stop-color:rgb(9.411765%,85.098039%,58.431373%);stop-opacity:1;"/>
</linearGradient>
</defs>
<g id="surface1">
<path style="fill:none;stroke-width:12;stroke-linecap:butt;stroke-linejoin:miter;stroke:url(#linear0);stroke-miterlimit:4;" d="M 171.999453 89 C 171.999453 134.838477 134.838477 171.999453 89 171.999453 C 43.161523 171.999453 6.000547 134.838477 6.000547 89 C 6.000547 43.161523 43.161523 6.000547 89 6.000547 C 134.838477 6.000547 171.999453 43.161523 171.999453 89 Z M 171.999453 89 " transform="matrix(1.123596,0,0,1.123596,0,0)"/>
<path style=" stroke:none;fill-rule:nonzero;fill:url(#linear1);" d="M 148.273438 142.738281 C 148.011719 142.738281 147.757812 142.636719 147.570312 142.449219 C 147.382812 142.261719 147.28125 142.011719 147.28125 141.75 L 147.28125 59.542969 C 147.285156 58.253906 146.972656 56.988281 146.367188 55.847656 C 145.761719 54.710938 144.886719 53.742188 143.816406 53.023438 C 142.742188 52.304688 141.511719 51.859375 140.226562 51.726562 C 138.941406 51.59375 137.644531 51.78125 136.449219 52.269531 C 125.683594 56.6875 115.53125 62.464844 106.238281 69.460938 C 87.347656 83.699219 79.609375 101.546875 79.609375 118.5625 C 79.609375 135.574219 90.9375 142.421875 100.125 142.421875 C 109.3125 142.421875 120.816406 134.40625 120.816406 118.5625 C 120.816406 102.714844 116.691406 96.234375 111.3125 86.980469 C 116.304688 84.324219 121.667969 82.425781 127.222656 81.339844 C 127.609375 81.265625 128.011719 81.273438 128.394531 81.367188 C 128.777344 81.460938 129.136719 81.640625 129.441406 81.890625 C 129.75 82.140625 129.996094 82.453125 130.164062 82.808594 C 130.335938 83.164062 130.421875 83.554688 130.425781 83.949219 L 130.425781 142.738281 C 130.425781 144.515625 131.132812 146.21875 132.394531 147.476562 C 133.652344 148.734375 135.363281 149.4375 137.148438 149.4375 L 153.933594 149.4375 L 153.933594 142.738281 Z M 100.132812 138.855469 C 96.15625 138.855469 89.691406 133.601562 89.691406 119.820312 C 89.691406 106.035156 98.097656 96.808594 100.222656 95.375 C 102.035156 96.652344 110.753906 105.867188 110.753906 119.808594 C 110.753906 133.75 104.113281 138.855469 100.132812 138.855469 Z M 83.347656 84.214844 C 80.046875 82.769531 76.582031 81.738281 73.027344 81.144531 C 72.648438 81.085938 72.261719 81.113281 71.894531 81.222656 C 71.527344 81.328125 71.183594 81.511719 70.898438 81.765625 C 70.605469 82.015625 70.375 82.324219 70.21875 82.671875 C 70.0625 83.019531 69.980469 83.398438 69.984375 83.78125 L 69.984375 142.738281 C 69.984375 144.515625 69.273438 146.21875 68.015625 147.476562 C 66.753906 148.734375 65.042969 149.4375 63.261719 149.4375 L 46.066406 149.4375 L 46.066406 142.738281 L 52.171875 142.738281 C 52.4375 142.738281 52.691406 142.636719 52.875 142.449219 C 53.0625 142.261719 53.167969 142.011719 53.167969 141.75 L 53.167969 59.640625 C 53.167969 58.351562 53.488281 57.085938 54.097656 55.949219 C 54.703125 54.816406 55.585938 53.847656 56.65625 53.132812 C 57.730469 52.414062 58.964844 51.972656 60.25 51.847656 C 61.535156 51.71875 62.832031 51.90625 64.027344 52.398438 C 75.234375 56.90625 85.753906 62.953125 95.28125 70.363281 C 90.703125 74.429688 86.691406 79.089844 83.347656 84.214844 Z M 83.347656 84.214844 "/>
</g>
</svg>
