<?xml version="1.0" encoding="utf-8"?>
<!-- Generator: Adobe Illustrator 26.4.1, SVG Export Plug-In . SVG Version: 6.00 Build 0)  -->
<svg version="1.1" id="Layer_1" xmlns="http://www.w3.org/2000/svg" xmlns:xlink="http://www.w3.org/1999/xlink" x="0px" y="0px"
	 viewBox="0 0 200 200" style="enable-background:new 0 0 200 200;" xml:space="preserve">
<style type="text/css">
	.st0{fill-rule:evenodd;clip-rule:evenodd;fill:url(#SVGID_1_);}
	.st1{fill-rule:evenodd;clip-rule:evenodd;fill:url(#SVGID_00000017501535287540206700000002480595426359027385_);}
	.st2{fill-rule:evenodd;clip-rule:evenodd;fill:url(#SVGID_00000124874043130301627850000014812614858096693672_);}
	.st3{fill-rule:evenodd;clip-rule:evenodd;fill:url(#SVGID_00000125584794981923775580000015259868341702491570_);}
</style>
<g id="surface1">
	<g id="surface1_00000173847803863573781930000016485764193588679045_">
		<path d="M200,100c0,55.3-44.8,100-100,100S0,155.3,0,100S44.7,0,100,0S200,44.7,200,100z"/>
	</g>
</g>
<g id="surface1_00000032621488755886809480000008832079980933591989_">
	
		<linearGradient id="SVGID_1_" gradientUnits="userSpaceOnUse" x1="365.1963" y1="1858.3262" x2="365.8744" y2="1858.8451" gradientTransform="matrix(127.36 0 0 -96.0527 -46455.3125 178659.2969)">
		<stop  offset="0" style="stop-color:#7F0AE8"/>
		<stop  offset="1" style="stop-color:#11DBB7"/>
	</linearGradient>
	<path class="st0" d="M139.2,131.2c0.7-0.3,5-5.6,5-5.6v-10.5l-5-6.6l-10.4-5.6l-15.3,8.8c0,0-2.9,2.2-0.7,3.5s7.9,5,7.9,5
		l-46.1,26.6l-0.3-9.4c0,0-0.7-3.1-3.5-1.5c-2.7,1.7-14.7,8.3-14.7,8.3l0.1,17.6c0,2.1,5.5,7.4,11.3,7.5c5.8,0.2,7.3-0.7,9.2-1.3
		L139.2,131.2L139.2,131.2z"/>
	
		<linearGradient id="SVGID_00000013165773685559059260000012174261190500850833_" gradientUnits="userSpaceOnUse" x1="365.1746" y1="1861.9972" x2="365.7726" y2="1861.9425" gradientTransform="matrix(127.7604 0 0 -157.44 -46600.2656 293237.125)">
		<stop  offset="0" style="stop-color:#8109EA"/>
		<stop  offset="0.4392" style="stop-color:#750AE8"/>
		<stop  offset="1" style="stop-color:#3510DD"/>
	</linearGradient>
	<path style="fill-rule:evenodd;clip-rule:evenodd;fill:url(#SVGID_00000013165773685559059260000012174261190500850833_);" d="
		M139.2,91.9l5-5.8V74.3l-4.9-5.6L74,31l-9.9,0.2c0,0-8.3,1.7-8.3,8.3l0.1,16.2l14.6,8.4c0,0,3.5,1.7,3.4-2.1
		c-0.2-3.6,0.2-9.2,0.2-9.2l46.8,26.9l-46.2,26.7V93.6l5.9,2.9c0,0,1.9,1,2.7,0.6c0.8-0.5,14-8.1,14-8.1s1.7-1.3,1.5-2.3
		c-0.1-1-0.9-2.1-0.9-2.1L58.7,62c0,0-1.4-0.8-2.4-0.2c-1,0.7-0.3,78.1-0.3,78.1L139.2,91.9z"/>
	
		<linearGradient id="SVGID_00000072990651906667558990000003566647578969053887_" gradientUnits="userSpaceOnUse" x1="365.1963" y1="1858.3262" x2="365.8744" y2="1858.8451" gradientTransform="matrix(127.36 0 0 -96.0527 -46455.3125 178659.2969)">
		<stop  offset="0" style="stop-color:#7F0AE8"/>
		<stop  offset="1" style="stop-color:#11DBB7"/>
	</linearGradient>
	<path style="fill-rule:evenodd;clip-rule:evenodd;fill:url(#SVGID_00000072990651906667558990000003566647578969053887_);" d="
		M139.2,131.2c0.7-0.3,5-5.6,5-5.6v-10.5l-5-6.6l-10.4-5.6l-15.3,8.8c0,0-2.9,2.2-0.7,3.5s7.9,5,7.9,5l-46.1,26.6l-0.3-9.4
		c0,0-0.7-3.1-3.5-1.5c-2.7,1.7-14.7,8.3-14.7,8.3l0.1,17.6c0,2.1,5.5,7.4,11.3,7.5c5.8,0.2,7.3-0.7,9.2-1.3L139.2,131.2
		L139.2,131.2z"/>
	
		<linearGradient id="SVGID_00000168806935626242374010000012721577329210183815_" gradientUnits="userSpaceOnUse" x1="365.1746" y1="1861.9972" x2="365.7726" y2="1861.9425" gradientTransform="matrix(127.7604 0 0 -157.44 -46600.2656 293237.125)">
		<stop  offset="0" style="stop-color:#8109EA"/>
		<stop  offset="0.4392" style="stop-color:#750AE8"/>
		<stop  offset="1" style="stop-color:#3510DD"/>
	</linearGradient>
	<path style="fill-rule:evenodd;clip-rule:evenodd;fill:url(#SVGID_00000168806935626242374010000012721577329210183815_);" d="
		M139.2,91.9l5-5.8V74.3l-4.9-5.6L74,31l-9.9,0.2c0,0-8.3,1.7-8.3,8.3l0.1,16.2l14.6,8.4c0,0,3.5,1.7,3.4-2.1
		c-0.2-3.6,0.2-9.2,0.2-9.2l46.8,26.9l-46.2,26.7V93.6l5.9,2.9c0,0,1.9,1,2.7,0.6c0.8-0.5,14-8.1,14-8.1s1.7-1.3,1.5-2.3
		c-0.1-1-0.9-2.1-0.9-2.1L58.7,62c0,0-1.4-0.8-2.4-0.2c-1,0.7-0.3,78.1-0.3,78.1L139.2,91.9z"/>
</g>
</svg>
