<?xml version="1.0" encoding="utf-8"?>
<!-- Generator: Adobe Illustrator 26.4.1, SVG Export Plug-In . SVG Version: 6.00 Build 0)  -->
<svg version="1.1" id="Layer_1" xmlns="http://www.w3.org/2000/svg" xmlns:xlink="http://www.w3.org/1999/xlink" x="0px" y="0px"
	 viewBox="0 0 200 200" style="enable-background:new 0 0 200 200;" xml:space="preserve">
<style type="text/css">
	.st0{fill:#0F0F0F;}
	.st1{fill-rule:evenodd;clip-rule:evenodd;fill:url(#SVGID_1_);}
	.st2{fill-rule:evenodd;clip-rule:evenodd;fill:url(#SVGID_00000183232875522329376420000017785510343816437646_);}
	.st3{fill-rule:evenodd;clip-rule:evenodd;fill:url(#SVGID_00000119086324857271765400000002131559017399469993_);}
	.st4{fill-rule:evenodd;clip-rule:evenodd;fill:url(#SVGID_00000062896418704043797910000008219685269196157846_);}
</style>
<g id="surface1">
	<g id="surface1_00000173847803863573781930000016485764193588679045_">
		<path class="st0" d="M194.9,99.6c0,51.9-42,93.9-93.9,93.9s-93.9-42-93.9-93.9S49.1,5.7,101,5.7S194.9,47.7,194.9,99.6z"/>
	</g>
</g>
<g id="surface1_00000032621488755886809480000008832079980933591989_">
	
		<linearGradient id="SVGID_1_" gradientUnits="userSpaceOnUse" x1="756.2136" y1="1865.0891" x2="756.8083" y2="1865.5442" gradientTransform="matrix(127.36 0 0 -96.0527 -96241.1562 179301.2969)">
		<stop  offset="0" style="stop-color:#7F0AE8"/>
		<stop  offset="1" style="stop-color:#11DBB7"/>
	</linearGradient>
	<path class="st1" d="M143.1,127.4c0.6-0.3,4.4-4.9,4.4-4.9v-9.2l-4.4-5.8l-9.1-4.9l-13.4,7.7c0,0-2.5,1.9-0.6,3.1
		c1.9,1.2,6.9,4.4,6.9,4.4l-40.4,23.3l-0.3-8.2c0,0-0.6-2.7-3.1-1.3c-2.4,1.5-12.9,7.3-12.9,7.3l0.1,15.4c0,1.8,4.8,6.5,9.9,6.6
		c5.1,0.2,6.4-0.6,8.1-1.1L143.1,127.4L143.1,127.4z"/>
	
		<linearGradient id="SVGID_00000044880805674668558230000007786117771614187411_" gradientUnits="userSpaceOnUse" x1="756.2025" y1="1866.0623" x2="756.7269" y2="1866.0143" gradientTransform="matrix(127.7604 0 0 -157.44 -96543.8594 293879.125)">
		<stop  offset="0" style="stop-color:#8109EA"/>
		<stop  offset="0.4392" style="stop-color:#750AE8"/>
		<stop  offset="1" style="stop-color:#3510DD"/>
	</linearGradient>
	<path style="fill-rule:evenodd;clip-rule:evenodd;fill:url(#SVGID_00000044880805674668558230000007786117771614187411_);" d="
		M143.1,92.9l4.4-5.1V77.5l-4.3-4.9L85.9,39.5l-8.7,0.2c0,0-7.3,1.5-7.3,7.3L70,61.2l12.8,7.4c0,0,3.1,1.5,3-1.8
		c-0.2-3.2,0.2-8.1,0.2-8.1L127,82.3l-40.5,23.4V94.4l5.2,2.5c0,0,1.7,0.9,2.4,0.5c0.7-0.4,12.3-7.1,12.3-7.1s1.5-1.1,1.3-2
		c-0.1-0.9-0.8-1.8-0.8-1.8L72.5,66.7c0,0-1.2-0.7-2.1-0.2c-0.9,0.6-0.3,68.5-0.3,68.5L143.1,92.9z"/>
	
		<linearGradient id="SVGID_00000140699935308062322570000007027469617721096634_" gradientUnits="userSpaceOnUse" x1="756.2136" y1="1865.0891" x2="756.8083" y2="1865.5442" gradientTransform="matrix(127.36 0 0 -96.0527 -96241.1562 179301.2969)">
		<stop  offset="0" style="stop-color:#7F0AE8"/>
		<stop  offset="1" style="stop-color:#11DBB7"/>
	</linearGradient>
	<path style="fill-rule:evenodd;clip-rule:evenodd;fill:url(#SVGID_00000140699935308062322570000007027469617721096634_);" d="
		M143.1,127.4c0.6-0.3,4.4-4.9,4.4-4.9v-9.2l-4.4-5.8l-9.1-4.9l-13.4,7.7c0,0-2.5,1.9-0.6,3.1c1.9,1.2,6.9,4.4,6.9,4.4l-40.4,23.3
		l-0.3-8.2c0,0-0.6-2.7-3.1-1.3c-2.4,1.5-12.9,7.3-12.9,7.3l0.1,15.4c0,1.8,4.8,6.5,9.9,6.6c5.1,0.2,6.4-0.6,8.1-1.1L143.1,127.4
		L143.1,127.4z"/>
	
		<linearGradient id="SVGID_00000151521210128502823100000000079121489592720537_" gradientUnits="userSpaceOnUse" x1="756.2025" y1="1866.0623" x2="756.7269" y2="1866.0143" gradientTransform="matrix(127.7604 0 0 -157.44 -96543.8594 293879.125)">
		<stop  offset="0" style="stop-color:#8109EA"/>
		<stop  offset="0.4392" style="stop-color:#750AE8"/>
		<stop  offset="1" style="stop-color:#3510DD"/>
	</linearGradient>
	<path style="fill-rule:evenodd;clip-rule:evenodd;fill:url(#SVGID_00000151521210128502823100000000079121489592720537_);" d="
		M143.1,92.9l4.4-5.1V77.5l-4.3-4.9L85.9,39.5l-8.7,0.2c0,0-7.3,1.5-7.3,7.3L70,61.2l12.8,7.4c0,0,3.1,1.5,3-1.8
		c-0.2-3.2,0.2-8.1,0.2-8.1L127,82.3l-40.5,23.4V94.4l5.2,2.5c0,0,1.7,0.9,2.4,0.5c0.7-0.4,12.3-7.1,12.3-7.1s1.5-1.1,1.3-2
		c-0.1-0.9-0.8-1.8-0.8-1.8L72.5,66.7c0,0-1.2-0.7-2.1-0.2c-0.9,0.6-0.3,68.5-0.3,68.5L143.1,92.9z"/>
</g>
</svg>
