<?xml version="1.0" encoding="utf-8"?>
<!-- Generator: Adobe Illustrator 26.4.1, SVG Export Plug-In . SVG Version: 6.00 Build 0)  -->
<svg version="1.1" id="Layer_1" xmlns="http://www.w3.org/2000/svg" xmlns:xlink="http://www.w3.org/1999/xlink" x="0px" y="0px"
	 viewBox="0 0 200 200" style="enable-background:new 0 0 200 200;" xml:space="preserve">
<style type="text/css">
	.st0{fill-rule:evenodd;clip-rule:evenodd;fill:#FBD52E;}
	.st1{fill:url(#SVGID_1_);}
</style>
<path class="st0" d="M100,99.1"/>
<linearGradient id="SVGID_1_" gradientUnits="userSpaceOnUse" x1="1.1382" y1="99.8923" x2="199.1002" y2="99.8923">
	<stop  offset="0" style="stop-color:#348CF3"/>
	<stop  offset="0.9994" style="stop-color:#69DF69"/>
</linearGradient>
<path class="st1" d="M55.9,27.5c-33.4,61.4,8.5,145.8,89.4,146.4c-24.5,8.9-48.8,8.7-72.9-1.6c-24-10.2-41.1-27.7-52.2-51.2
	c4.2,20.3,13.9,37.5,28.9,51.8c15,14.2,33,22.7,53.4,26c0,0.2-0.1,0.5-0.1,0.7c-5.9-0.5-11.8-0.7-17.6-1.7
	c-28.1-4.5-50.2-18.9-66.4-42c-8.9-12.7-14.3-27-16.3-42.5C-0.5,93.4,2.3,74,11.3,55.7c9.5-19.4,23.9-34.1,42.9-44.3
	C68.3,3.9,83.5,0.1,99.4,0.1c21.1,0,40.5,5.9,57.7,18.3c17.9,12.8,30.2,29.8,37,50.6c5.1,15.5,6.3,31.5,3.3,47.6
	c-1.4,7.1-3.3,14.2-6,20.9c-1.6,4-4.7,7.9-8,10.8c-2.3,2-6,2.6-9.2,3.3c-22.2,5-43.9,3.2-64.5-6.6C86,133.8,69.1,116,59.4,91.6
	c-8-19.9-9.3-40.3-4.1-61.1C55.5,29.5,55.7,28.5,55.9,27.5z"/>
</svg>
