<?xml version="1.0" encoding="UTF-8"?>
<svg xmlns="http://www.w3.org/2000/svg" xmlns:xlink="http://www.w3.org/1999/xlink" width="400px" height="400px" viewBox="0 0 400 400" version="1.1">
<g id="surface1">
<path style=" stroke:none;fill-rule:nonzero;fill:rgb(81.568627%,55.686275%,22.352941%);fill-opacity:1;" d="M 400 200 C 400 310.457031 310.457031 400 200 400 C 89.542969 400 0 310.457031 0 200 C 0 89.542969 89.542969 0 200 0 C 310.457031 0 400 89.542969 400 200 Z M 400 200 "/>
<path style=" stroke:none;fill-rule:nonzero;fill:rgb(0%,14.509804%,13.333333%);fill-opacity:1;" d="M 334.945312 122.191406 L 317.550781 121.171875 C 316.3125 121.09375 315.140625 120.574219 314.246094 119.707031 C 313.355469 118.84375 312.800781 117.6875 312.683594 116.453125 L 311.160156 100.363281 C 311.109375 100.09375 310.96875 99.851562 310.761719 99.675781 C 310.550781 99.503906 310.289062 99.40625 310.015625 99.40625 C 309.742188 99.40625 309.480469 99.503906 309.269531 99.675781 C 309.058594 99.851562 308.917969 100.09375 308.871094 100.363281 L 307.308594 116.453125 C 307.207031 117.695312 306.65625 118.855469 305.761719 119.726562 C 304.867188 120.59375 303.6875 121.105469 302.441406 121.171875 L 285.046875 122.261719 C 284.777344 122.3125 284.535156 122.453125 284.359375 122.660156 C 284.183594 122.871094 284.089844 123.132812 284.089844 123.40625 C 284.089844 123.679688 284.183594 123.945312 284.359375 124.152344 C 284.535156 124.363281 284.777344 124.503906 285.046875 124.550781 L 302.441406 125.566406 C 303.679688 125.65625 304.847656 126.175781 305.738281 127.039062 C 306.625 127.90625 307.183594 129.054688 307.308594 130.289062 L 308.835938 146.378906 C 308.882812 146.644531 309.023438 146.890625 309.230469 147.0625 C 309.441406 147.238281 309.707031 147.335938 309.980469 147.335938 C 310.25 147.335938 310.515625 147.238281 310.722656 147.0625 C 310.933594 146.890625 311.074219 146.644531 311.121094 146.378906 L 312.648438 130.289062 C 312.765625 129.050781 313.320312 127.898438 314.210938 127.03125 C 315.105469 126.167969 316.273438 125.648438 317.515625 125.566406 L 334.945312 124.476562 C 335.214844 124.429688 335.457031 124.289062 335.632812 124.078125 C 335.808594 123.871094 335.902344 123.605469 335.902344 123.335938 C 335.902344 123.0625 335.808594 122.796875 335.632812 122.589844 C 335.457031 122.378906 335.214844 122.238281 334.945312 122.191406 Z M 334.945312 122.191406 "/>
<path style=" stroke:none;fill-rule:evenodd;fill:rgb(0%,14.509804%,13.333333%);fill-opacity:1;" d="M 298.375 182.476562 L 301.246094 184.511719 C 303.777344 186.222656 305.757812 188.628906 306.945312 191.445312 C 307.519531 193.027344 307.742188 194.710938 307.601562 196.386719 C 307.46875 197.691406 307.265625 198.992188 306.984375 200.273438 C 306.394531 202.800781 305.480469 205.242188 304.257812 207.535156 C 303.613281 208.707031 302.875 209.828125 302.042969 210.878906 L 301.644531 211.421875 L 302.152344 214.652344 C 302.3125 215.941406 302.394531 217.238281 302.40625 218.539062 C 302.375 223.6875 301.214844 228.769531 299.011719 233.425781 C 296.8125 238.078125 293.617188 242.195312 289.660156 245.488281 L 289.1875 245.886719 L 288.605469 246.066406 C 283.53125 247.890625 278.320312 249.320312 273.027344 250.351562 C 267.621094 251.492188 262.097656 251.964844 256.574219 251.769531 L 255.777344 251.769531 C 244.863281 248.304688 233.613281 245.992188 222.21875 244.871094 C 221.492188 244.804688 220.757812 244.746094 220.011719 244.6875 C 217.816406 244.519531 215.542969 244.339844 213.210938 243.960938 C 210.128906 243.480469 207.101562 242.703125 204.167969 241.636719 C 199.074219 239.867188 193.726562 238.9375 188.335938 238.878906 L 188.152344 238.878906 C 186.578125 241.328125 185.535156 244.078125 185.078125 246.953125 C 184.621094 249.828125 184.765625 252.765625 185.5 255.582031 C 186.890625 262.640625 189.339844 269.449219 192.765625 275.777344 C 196.691406 282.429688 200.210938 289.320312 203.296875 296.402344 C 204.960938 300.160156 206.179688 304.097656 206.929688 308.132812 C 207.714844 312.539062 207.390625 317.070312 205.984375 321.316406 L 204.207031 326.367188 L 199.882812 323.167969 C 199.234375 322.707031 198.539062 322.304688 197.8125 321.96875 C 197.484375 324.421875 196.996094 326.847656 196.359375 329.234375 C 195.144531 333.398438 193.398438 337.390625 191.167969 341.109375 C 188.207031 317.53125 171.714844 310.773438 155.597656 304.171875 C 148.382812 301.214844 141.238281 298.289062 135.421875 293.898438 C 116.609375 279.699219 115.082031 263.101562 126.703125 234.046875 C 130.25 225.113281 132.832031 215.820312 134.402344 206.335938 C 134.730469 204.195312 135.128906 202.089844 135.601562 199.980469 C 135.640625 199.6875 135.703125 199.394531 135.785156 199.109375 L 136.109375 197.621094 C 136.152344 198.578125 136.179688 199.53125 136.207031 200.480469 C 136.273438 202.777344 136.335938 205.054688 136.617188 207.316406 C 136.792969 210.402344 137.40625 213.445312 138.433594 216.359375 C 138.902344 217.597656 139.605469 218.730469 140.503906 219.703125 C 140.761719 220.003906 141.046875 220.265625 141.375 220.570312 C 141.605469 220.785156 141.855469 221.015625 142.136719 221.300781 C 142.617188 221.847656 143.140625 222.359375 143.703125 222.824219 C 146.011719 224.59375 148.585938 225.992188 151.328125 226.964844 C 157.125 228.992188 163.152344 230.285156 169.269531 230.816406 C 175.152344 231.503906 181.144531 231.757812 187.171875 231.757812 L 188.078125 231.757812 C 194.332031 231.804688 200.539062 232.859375 206.457031 234.882812 C 211.738281 236.667969 217.261719 237.648438 222.835938 237.789062 C 234.5625 238.917969 246.136719 241.265625 257.375 244.796875 C 262.164062 244.925781 266.953125 244.496094 271.648438 243.523438 C 274.988281 242.871094 278.292969 241.964844 281.5625 240.984375 C 288.859375 237.898438 293.691406 229.542969 283.8125 230.632812 C 281.480469 230.792969 279.160156 231.121094 276.875 231.613281 C 275.089844 231.941406 273.328125 232.589844 271.4375 233.289062 C 269.753906 233.910156 267.96875 234.566406 265.980469 235.0625 C 261.953125 236.011719 257.753906 235.910156 253.777344 234.773438 C 250.308594 233.339844 246.628906 232.46875 242.882812 232.195312 C 244.625 231.195312 246.578125 230.609375 248.585938 230.488281 C 250.027344 230.339844 251.320312 230.390625 252.566406 230.441406 C 253.171875 230.464844 253.765625 230.488281 254.359375 230.488281 C 257.761719 230.917969 261.210938 230.769531 264.5625 230.050781 C 266.257812 229.566406 267.984375 228.636719 269.847656 227.632812 C 271.34375 226.824219 272.929688 225.96875 274.660156 225.257812 C 278.445312 223.664062 282.503906 222.816406 286.609375 222.753906 L 289.078125 222.753906 C 291.949219 218.757812 294.382812 214.328125 293.4375 210.695312 C 292.320312 209.199219 290.773438 208.070312 289.003906 207.460938 C 288.539062 207.296875 287.621094 207.0625 286.4375 206.753906 C 282.113281 205.625 274.171875 203.558594 271.066406 200.707031 C 268.742188 198.347656 270.121094 193.589844 279.636719 191.628906 C 284.011719 190.867188 288.476562 190.734375 292.890625 191.230469 C 294.402344 191.492188 295.953125 191.355469 297.394531 190.828125 L 296.851562 190.355469 L 294.089844 188.394531 L 291.292969 186.289062 L 280.398438 177.972656 C 278.617188 176.628906 276.730469 175.25 274.988281 174.125 L 274.117188 173.613281 L 272.410156 172.890625 C 271.28125 172.417969 270.15625 171.871094 269.03125 171.289062 C 265.554688 169.4375 262.332031 167.144531 259.445312 164.464844 C 248.800781 155.53125 236.890625 133.957031 233.769531 126.910156 C 231.273438 121.492188 226.882812 117.175781 221.421875 114.78125 C 224.101562 114.632812 226.78125 115.097656 229.253906 116.140625 C 231.726562 117.1875 233.929688 118.785156 235.691406 120.808594 C 236.605469 121.566406 238.316406 124.039062 240.378906 127.027344 C 244.539062 133.050781 250.148438 141.171875 253.597656 141.511719 C 255.449219 141.441406 257.289062 141.160156 259.078125 140.675781 C 257.363281 139.023438 255.796875 137.226562 254.394531 135.300781 C 252.53125 132.839844 251.085938 130.296875 249.691406 127.839844 C 249.210938 126.996094 248.738281 126.164062 248.257812 125.351562 C 246.65625 122.289062 244.71875 119.414062 242.484375 116.777344 C 241.96875 116.238281 241.425781 115.726562 240.847656 115.253906 C 240.246094 114.804688 239.601562 114.417969 238.925781 114.089844 C 237.4375 113.328125 235.910156 112.675781 234.019531 111.949219 C 232.132812 111.222656 230.460938 110.570312 228.5 109.589844 L 223.417969 107.046875 L 213.246094 102.105469 C 206.539062 98.886719 199.636719 96.082031 192.585938 93.71875 C 185.597656 91.417969 178.394531 89.847656 171.085938 89.03125 C 169.347656 88.800781 167.605469 88.667969 165.855469 88.632812 C 164.449219 88.59375 163.054688 88.894531 161.785156 89.503906 C 161.121094 89.796875 160.433594 90.164062 159.691406 90.554688 C 158.78125 91.039062 157.789062 91.566406 156.664062 92.046875 L 151.617188 94.371094 C 145.050781 97.675781 138.78125 101.539062 132.878906 105.921875 C 128.125 109.023438 123.929688 112.90625 120.457031 117.394531 C 125.597656 117.160156 130.738281 117.898438 135.601562 119.574219 C 129.058594 119.472656 122.535156 120.402344 116.28125 122.335938 C 113.21875 123.242188 110.222656 124.359375 107.3125 125.675781 C 104.398438 126.894531 101.59375 128.351562 98.921875 130.035156 C 96.285156 131.554688 93.84375 133.398438 91.660156 135.519531 C 90.765625 136.414062 90.070312 137.492188 89.625 138.679688 C 89.007812 140.019531 88.425781 141.511719 87.882812 143 C 85.78125 149.113281 84.109375 155.363281 82.871094 161.703125 C 80.242188 174.332031 79.265625 187.246094 79.964844 200.125 C 80.484375 210.527344 83.191406 220.699219 87.917969 229.980469 C 92.382812 224.132812 96.742188 218.140625 100.957031 212.074219 C 106.332031 204.195312 111.449219 196.058594 116.027344 187.851562 C 118.417969 183.566406 120.527344 179.082031 122.664062 174.550781 C 124.617188 170.402344 126.589844 166.214844 128.8125 162.101562 C 131.0625 157.703125 133.703125 153.511719 136.691406 149.574219 C 138.234375 147.539062 140.027344 145.710938 142.03125 144.125 C 144.003906 142.484375 146.441406 141.503906 149.003906 141.328125 C 140.867188 148.628906 134.511719 168.238281 128.230469 190.210938 C 123.109375 208.042969 105.859375 248.71875 94.964844 249.699219 C 90.714844 249.953125 89.1875 247.921875 86.28125 243.78125 L 83.921875 240.511719 C 79.738281 234.683594 76.550781 228.207031 74.480469 221.335938 C 72.582031 214.605469 71.425781 207.6875 71.03125 200.707031 C 70.695312 193.839844 70.855469 186.960938 71.503906 180.117188 C 72.25 173.335938 73.402344 166.605469 74.953125 159.960938 C 76.46875 153.292969 78.449219 146.742188 80.871094 140.347656 C 81.527344 138.75 82.179688 137.152344 82.976562 135.519531 C 83.417969 134.601562 83.914062 133.71875 84.46875 132.867188 C 85.078125 132.015625 85.761719 131.214844 86.5 130.46875 C 89.152344 127.949219 92.148438 125.824219 95.398438 124.152344 C 100.800781 121.355469 106.589844 119.382812 112.578125 118.304688 C 114.257812 114.5625 116.566406 111.136719 119.40625 108.171875 C 122.175781 105.292969 125.1875 102.65625 128.410156 100.289062 C 134.402344 95.480469 140.890625 91.328125 147.769531 87.90625 C 149.4375 87.070312 151.617188 86.089844 153.070312 85.472656 C 153.78125 85.171875 154.527344 84.78125 155.339844 84.359375 C 156.191406 83.914062 157.117188 83.429688 158.15625 82.96875 C 160.335938 81.945312 162.71875 81.425781 165.128906 81.441406 C 167.15625 81.46875 169.179688 81.613281 171.191406 81.878906 C 178.996094 82.757812 186.6875 84.4375 194.144531 86.890625 C 201.488281 89.335938 208.671875 92.246094 215.644531 95.605469 L 225.957031 100.617188 L 231.078125 103.160156 C 232.214844 103.773438 233.660156 104.335938 235.199219 104.933594 C 235.480469 105.042969 235.769531 105.152344 236.054688 105.265625 C 237.90625 105.992188 239.652344 106.753906 241.539062 107.699219 C 242.566406 108.214844 243.550781 108.808594 244.480469 109.480469 C 245.382812 110.203125 246.234375 110.992188 247.023438 111.839844 C 249.8125 114.84375 252.25 118.160156 254.285156 121.71875 C 254.367188 121.859375 254.449219 122 254.53125 122.144531 C 258.285156 128.664062 261.777344 134.722656 267.179688 138.277344 L 271.5 141.148438 L 271.5 141.621094 L 270.300781 143.761719 L 266.308594 144.78125 C 265.546875 145.011719 264.910156 145.535156 264.527344 146.230469 C 264.339844 146.578125 264.226562 146.964844 264.203125 147.355469 C 264.160156 148.144531 264.160156 148.933594 264.203125 149.71875 C 264.207031 150.949219 264.023438 152.175781 263.65625 153.351562 C 263.464844 154.003906 263.253906 154.558594 263.070312 155.03125 C 262.941406 155.371094 262.824219 155.667969 262.746094 155.929688 C 262.640625 156.179688 262.585938 156.453125 262.585938 156.726562 C 262.585938 157.003906 262.640625 157.273438 262.746094 157.527344 C 265.585938 160.46875 268.886719 162.921875 272.515625 164.789062 C 273.425781 165.296875 274.371094 165.734375 275.351562 166.171875 L 276.839844 166.753906 C 277.585938 167.089844 278.300781 167.492188 278.984375 167.949219 C 280.917969 169.175781 282.507812 170.375 284.164062 171.617188 C 284.375 171.773438 284.582031 171.933594 284.792969 172.089844 L 295.6875 180.441406 Z M 203.84375 159.453125 C 202.910156 159.542969 201.976562 159.542969 201.046875 159.453125 C 194.800781 159.089844 191.75 154.800781 192.765625 150.410156 C 193.78125 146.015625 193.164062 144.5625 191.929688 144.5625 C 190.015625 145.230469 188.371094 146.503906 187.246094 148.191406 L 186.992188 148.191406 C 186.925781 148.207031 186.855469 148.203125 186.792969 148.179688 C 186.726562 148.164062 186.667969 148.128906 186.621094 148.082031 C 186.570312 148.039062 186.535156 147.980469 186.507812 147.917969 C 186.484375 147.855469 186.476562 147.789062 186.484375 147.722656 C 187.789062 138.605469 193.128906 138.207031 195.488281 138.207031 C 202.695312 138.742188 209.832031 139.957031 216.808594 141.835938 C 217.007812 141.871094 217.199219 141.960938 217.347656 142.105469 C 217.496094 142.246094 217.597656 142.425781 217.640625 142.625 C 217.683594 142.828125 217.664062 143.035156 217.589844 143.226562 C 217.511719 143.414062 217.378906 143.578125 217.207031 143.6875 C 216.171875 144.601562 215.398438 145.769531 214.964844 147.078125 C 214.53125 148.386719 214.453125 149.785156 214.738281 151.132812 C 215.171875 155.421875 210.089844 158.761719 203.84375 159.453125 Z M 203.84375 159.453125 "/>
</g>
</svg>
