<?xml version="1.0" encoding="UTF-8"?>
<svg xmlns="http://www.w3.org/2000/svg" xmlns:xlink="http://www.w3.org/1999/xlink" width="200px" height="px" viewBox="0 0 200 218" version="1.1">
<defs>
<linearGradient id="linear0" gradientUnits="userSpaceOnUse" x1="5.54297" y1="12.9553" x2="14.7894" y2="5.71676" gradientTransform="matrix(5.028194,0,0,5.011564,0,25.861266)">
<stop offset="0" style="stop-color:rgb(69.019608%,0%,9.019608%);stop-opacity:1;"/>
<stop offset="0.615809" style="stop-color:rgb(24.705882%,0%,78.039216%);stop-opacity:1;"/>
<stop offset="1" style="stop-color:rgb(0%,23.529412%,33.72549%);stop-opacity:1;"/>
</linearGradient>
<radialGradient id="radial0" gradientUnits="userSpaceOnUse" cx="0" cy="0" fx="0" fy="0" r="1" gradientTransform="matrix(183.528887,47.609742,-67.380158,258.025781,7.758353,56.03464)">
<stop offset="0" style="stop-color:rgb(97.647059%,60%,45.490196%);stop-opacity:1;"/>
<stop offset="0.166667" style="stop-color:rgb(99.607843%,26.27451%,40%);stop-opacity:1;"/>
<stop offset="0.402254" style="stop-color:rgb(95.686275%,23.921569%,53.333333%);stop-opacity:1;"/>
<stop offset="0.552743" style="stop-color:rgb(84.313725%,17.647059%,89.803922%);stop-opacity:1;"/>
<stop offset="0.6875" style="stop-color:rgb(23.137255%,48.235294%,91.764706%);stop-opacity:1;"/>
<stop offset="0.828125" style="stop-color:rgb(18.823529%,69.411765%,80.392157%);stop-opacity:1;"/>
<stop offset="0.927083" style="stop-color:rgb(25.098039%,79.215686%,84.313725%);stop-opacity:1;"/>
<stop offset="1" style="stop-color:rgb(3.529412%,67.45098%,63.529412%);stop-opacity:1;"/>
</radialGradient>
<filter id="alpha" filterUnits="objectBoundingBox" x="0%" y="0%" width="100%" height="100%">
  <feColorMatrix type="matrix" in="SourceGraphic" values="0 0 0 0 1 0 0 0 0 1 0 0 0 0 1 0 0 0 1 0"/>
</filter>
<mask id="mask0">
  <g filter="url(#alpha)">
<rect x="0" y="0" width="200" height="218" style="fill:rgb(0%,0%,0%);fill-opacity:0.6;stroke:none;"/>
  </g>
</mask>
<linearGradient id="linear1" gradientUnits="userSpaceOnUse" x1="29.8541" y1="4.02078" x2="24.4491" y2="17.9837" gradientTransform="matrix(5.028194,0,0,5.011564,0,25.861266)">
<stop offset="0" style="stop-color:rgb(100%,100%,100%);stop-opacity:0;"/>
<stop offset="0.270833" style="stop-color:rgb(100%,100%,100%);stop-opacity:0.501961;"/>
<stop offset="0.515625" style="stop-color:rgb(100%,100%,100%);stop-opacity:0.8;"/>
<stop offset="0.802083" style="stop-color:rgb(100%,100%,100%);stop-opacity:0.501961;"/>
<stop offset="1" style="stop-color:rgb(100%,100%,100%);stop-opacity:0;"/>
</linearGradient>
<clipPath id="clip1">
  <rect x="0" y="0" width="200" height="218"/>
</clipPath>
<g id="surface5" clip-path="url(#clip1)">
<path style=" stroke:none;fill-rule:evenodd;fill:url(#linear1);" d="M 164.636719 97.160156 C 168.390625 94.789062 173.359375 95.898438 175.742188 99.636719 C 183.171875 111.316406 184.105469 123.339844 181.554688 133.007812 C 180.292969 137.785156 178.160156 142.066406 175.460938 145.464844 C 172.84375 148.761719 169.265625 151.746094 164.917969 152.957031 C 160.636719 154.148438 156.199219 151.65625 155.003906 147.390625 C 153.808594 143.125 156.308594 138.703125 160.589844 137.511719 C 160.585938 137.511719 160.589844 137.511719 160.589844 137.511719 C 160.589844 137.511719 160.816406 137.4375 161.238281 137.125 C 161.679688 136.796875 162.242188 136.273438 162.84375 135.511719 C 164.0625 133.980469 165.253906 131.738281 165.992188 128.925781 C 167.449219 123.417969 167.101562 116.007812 162.152344 108.226562 C 159.773438 104.488281 160.886719 99.535156 164.636719 97.160156 Z M 164.636719 97.160156 "/>
</g>
<mask id="mask1">
  <g filter="url(#alpha)">
<rect x="0" y="0" width="200" height="218" style="fill:rgb(0%,0%,0%);fill-opacity:0.6;stroke:none;"/>
  </g>
</mask>
<linearGradient id="linear2" gradientUnits="userSpaceOnUse" x1="18.043" y1="4.57828" x2="13.2569" y2="16.9424" gradientTransform="matrix(5.028194,0,0,5.011564,0,25.861266)">
<stop offset="0" style="stop-color:rgb(100%,100%,100%);stop-opacity:0;"/>
<stop offset="0.270833" style="stop-color:rgb(100%,100%,100%);stop-opacity:0.501961;"/>
<stop offset="0.515625" style="stop-color:rgb(100%,100%,100%);stop-opacity:0.8;"/>
<stop offset="0.802083" style="stop-color:rgb(100%,100%,100%);stop-opacity:0.501961;"/>
<stop offset="1" style="stop-color:rgb(100%,100%,100%);stop-opacity:0;"/>
</linearGradient>
<clipPath id="clip2">
  <rect x="0" y="0" width="200" height="218"/>
</clipPath>
<g id="surface8" clip-path="url(#clip2)">
<path style=" stroke:none;fill-rule:evenodd;fill:url(#linear2);" d="M 24.109375 28.425781 C 27.222656 31.585938 27.171875 36.664062 24 39.765625 C 15.414062 48.160156 14.726562 57.902344 17.664062 64.648438 C 20.613281 71.410156 27.082031 75.398438 35.097656 73.496094 C 41.859375 71.894531 48.871094 65.542969 53.332031 57.460938 C 55.488281 53.550781 56.746094 49.746094 57.105469 46.683594 C 57.484375 43.476562 56.800781 42.109375 56.523438 41.757812 C 53.789062 38.269531 54.410156 33.226562 57.910156 30.5 C 61.410156 27.773438 66.46875 28.394531 69.203125 31.882812 C 73.113281 36.867188 73.726562 43.148438 73.085938 48.558594 C 72.429688 54.113281 70.351562 59.894531 67.429688 65.1875 C 61.734375 75.515625 51.609375 86.066406 38.820312 89.097656 C 22.296875 93.015625 8.570312 84.027344 2.90625 71.035156 C -2.761719 58.027344 -0.472656 41.230469 12.734375 28.316406 C 15.90625 25.214844 21 25.261719 24.109375 28.425781 Z M 24.109375 28.425781 "/>
</g>
<mask id="mask2">
  <g filter="url(#alpha)">
<rect x="0" y="0" width="200" height="218" style="fill:rgb(0%,0%,0%);fill-opacity:0.6;stroke:none;"/>
  </g>
</mask>
<linearGradient id="linear3" gradientUnits="userSpaceOnUse" x1="17.1354" y1="4.02075" x2="11.5593" y2="18.4257" gradientTransform="matrix(5.028194,0,0,5.011564,0,25.861266)">
<stop offset="0" style="stop-color:rgb(100%,100%,100%);stop-opacity:0;"/>
<stop offset="0.270833" style="stop-color:rgb(100%,100%,100%);stop-opacity:0.501961;"/>
<stop offset="0.515625" style="stop-color:rgb(100%,100%,100%);stop-opacity:0.8;"/>
<stop offset="0.802083" style="stop-color:rgb(100%,100%,100%);stop-opacity:0.501961;"/>
<stop offset="1" style="stop-color:rgb(100%,100%,100%);stop-opacity:0;"/>
</linearGradient>
<clipPath id="clip3">
  <rect x="0" y="0" width="200" height="218"/>
</clipPath>
<g id="surface11" clip-path="url(#clip3)">
<path style=" stroke:none;fill-rule:evenodd;fill:url(#linear3);" d="M 121.273438 105.257812 C 118.816406 116.773438 114.785156 128.125 108.785156 136.71875 C 105.738281 141.085938 96.984375 150.367188 84.753906 153.773438 C 78.382812 155.546875 71.039062 155.71875 63.378906 152.707031 C 55.800781 149.726562 48.550781 143.886719 41.792969 134.746094 C 39.160156 131.183594 39.921875 126.164062 43.5 123.535156 C 47.074219 120.910156 52.113281 121.667969 54.746094 125.234375 C 60.214844 132.628906 65.214844 136.1875 69.285156 137.785156 C 73.273438 139.355469 76.980469 139.289062 80.425781 138.328125 C 87.835938 136.261719 93.816406 130.085938 95.578125 127.558594 C 99.886719 121.386719 103.316406 112.328125 105.53125 101.925781 C 107.726562 91.625 108.605469 80.585938 108.199219 70.859375 C 107.78125 60.875 106.046875 53.292969 103.800781 49.242188 C 103.035156 47.859375 102.453125 47.324219 102.21875 47.144531 C 102.039062 47.1875 101.71875 47.296875 101.214844 47.570312 C 97.3125 49.6875 92.425781 48.25 90.304688 44.359375 C 88.179688 40.46875 89.625 35.597656 93.527344 33.484375 C 98.011719 31.054688 103.113281 30.203125 108.085938 32.179688 C 112.726562 34.023438 115.832031 37.78125 117.886719 41.488281 C 121.945312 48.816406 123.824219 59.386719 124.277344 70.191406 C 124.738281 81.257812 123.746094 93.644531 121.273438 105.257812 Z M 121.273438 105.257812 "/>
</g>
<mask id="mask3">
  <g filter="url(#alpha)">
<rect x="0" y="0" width="200" height="218" style="fill:rgb(0%,0%,0%);fill-opacity:0.6;stroke:none;"/>
  </g>
</mask>
<linearGradient id="linear4" gradientUnits="userSpaceOnUse" x1="26.9185" y1="4.02075" x2="21.6201" y2="17.7082" gradientTransform="matrix(5.028194,0,0,5.011564,0,25.861266)">
<stop offset="0" style="stop-color:rgb(100%,100%,100%);stop-opacity:0;"/>
<stop offset="0.270833" style="stop-color:rgb(100%,100%,100%);stop-opacity:0.501961;"/>
<stop offset="0.515625" style="stop-color:rgb(100%,100%,100%);stop-opacity:0.8;"/>
<stop offset="0.802083" style="stop-color:rgb(100%,100%,100%);stop-opacity:0.501961;"/>
<stop offset="1" style="stop-color:rgb(100%,100%,100%);stop-opacity:0;"/>
</linearGradient>
<clipPath id="clip4">
  <rect x="0" y="0" width="200" height="218"/>
</clipPath>
<g id="surface14" clip-path="url(#clip4)">
<path style=" stroke:none;fill-rule:evenodd;fill:url(#linear4);" d="M 154.46875 123.3125 C 150.75 135.570312 144.109375 148.015625 132.082031 152.703125 C 127.945312 154.316406 123.277344 152.277344 121.660156 148.152344 C 120.042969 144.03125 122.085938 139.378906 126.222656 137.765625 C 131 135.90625 135.675781 129.855469 139.070312 118.671875 C 142.320312 107.953125 143.734375 94.605469 143.71875 81.925781 C 143.703125 69.175781 142.25 57.90625 140.25 51.347656 C 140.242188 51.316406 140.230469 51.285156 140.222656 51.253906 C 138.339844 51.507812 136.359375 51.101562 134.65625 49.964844 C 130.96875 47.496094 129.988281 42.511719 132.464844 38.835938 C 133.695312 37.011719 135.714844 34.640625 138.847656 33.503906 C 142.613281 32.132812 146.183594 33.144531 148.703125 34.996094 C 150.867188 36.585938 152.273438 38.75 153.191406 40.496094 C 154.175781 42.363281 154.976562 44.488281 155.648438 46.6875 C 158.28125 55.332031 159.792969 68.328125 159.808594 81.90625 C 159.824219 95.550781 158.332031 110.589844 154.46875 123.3125 Z M 154.46875 123.3125 "/>
</g>
</defs>
<g id="surface1">
<path style=" stroke:none;fill-rule:evenodd;fill:url(#linear0);" d="M 61.25 26.335938 C 64.664062 27.277344 67.28125 29.433594 69.203125 31.882812 C 73.113281 36.871094 73.726562 43.148438 73.085938 48.5625 C 72.429688 54.113281 70.351562 59.894531 67.429688 65.1875 C 62.574219 73.992188 54.5 82.960938 44.300781 87.292969 C 44.234375 93.679688 44.832031 100.074219 46.25 106.117188 C 47.917969 113.234375 50.691406 119.75 54.75 125.234375 C 60.214844 132.628906 65.214844 136.1875 69.285156 137.789062 C 73.273438 139.355469 76.980469 139.289062 80.425781 138.328125 C 85.011719 137.050781 89.046875 134.199219 91.878906 131.613281 C 82.59375 117.363281 77.449219 98.277344 76.457031 81.195312 C 75.886719 71.386719 76.648438 61.699219 79.097656 53.480469 C 81.507812 45.414062 85.914062 37.613281 93.527344 33.484375 C 98.011719 31.054688 103.117188 30.207031 108.085938 32.179688 C 112.730469 34.023438 115.832031 37.78125 117.886719 41.488281 C 121.949219 48.816406 123.824219 59.390625 124.277344 70.195312 C 124.742188 81.257812 123.746094 93.644531 121.273438 105.257812 C 119.308594 114.476562 116.332031 123.589844 112.148438 131.265625 C 114.292969 133.449219 116.472656 135.265625 118.601562 136.507812 C 121.835938 138.390625 124.179688 138.5625 126.226562 137.765625 C 128.828125 136.753906 131.402344 134.496094 133.753906 130.839844 C 130.734375 122.828125 128.75 113.453125 127.523438 104.128906 C 125.828125 91.246094 125.476562 77.636719 126.203125 66.203125 C 126.5625 60.488281 127.203125 55.175781 128.128906 50.683594 C 129.003906 46.453125 130.304688 42.046875 132.464844 38.835938 C 133.695312 37.011719 135.714844 34.644531 138.847656 33.503906 C 142.613281 32.136719 146.1875 33.144531 148.707031 34.996094 C 150.871094 36.585938 152.273438 38.75 153.195312 40.496094 C 154.175781 42.363281 154.980469 44.488281 155.648438 46.6875 C 158.28125 55.332031 159.792969 68.332031 159.8125 81.90625 C 159.828125 95.550781 158.332031 110.589844 154.472656 123.3125 C 153.660156 125.988281 152.710938 128.671875 151.59375 131.28125 C 153.417969 134.515625 155.148438 136.265625 156.515625 137.082031 C 157.625 137.746094 158.789062 138.011719 160.589844 137.511719 C 160.589844 137.511719 160.816406 137.4375 161.242188 137.125 C 161.683594 136.796875 162.242188 136.273438 162.847656 135.515625 C 164.0625 133.980469 165.253906 131.738281 165.996094 128.929688 C 167.449219 123.417969 167.105469 116.007812 162.15625 108.226562 C 159.777344 104.488281 160.886719 99.535156 164.640625 97.160156 C 168.390625 94.789062 173.363281 95.898438 175.742188 99.636719 C 183.175781 111.316406 184.109375 123.339844 181.558594 133.007812 C 180.296875 137.785156 178.164062 142.066406 175.464844 145.464844 C 172.847656 148.761719 169.269531 151.746094 164.917969 152.957031 C 158.917969 154.625 153.183594 153.796875 148.226562 150.828125 C 145.984375 149.484375 144.015625 147.773438 142.289062 145.84375 C 139.414062 148.78125 136.039062 151.160156 132.085938 152.703125 C 124.027344 155.84375 116.433594 153.820312 110.480469 150.351562 C 107.457031 148.589844 104.667969 146.359375 102.15625 143.96875 C 97.828125 147.808594 91.882812 151.789062 84.757812 153.773438 C 78.382812 155.546875 71.042969 155.71875 63.382812 152.707031 C 55.804688 149.726562 48.554688 143.890625 41.796875 134.75 C 36.207031 127.191406 32.648438 118.578125 30.582031 109.765625 C 29.046875 103.222656 28.320312 96.5 28.21875 89.890625 C 16.5625 88.800781 7.304688 81.125 2.90625 71.039062 C -2.761719 58.027344 -0.472656 41.234375 12.734375 28.316406 C 15.90625 25.214844 21 25.265625 24.109375 28.425781 C 27.222656 31.585938 27.171875 36.664062 24 39.765625 C 15.414062 48.164062 14.726562 57.90625 17.664062 64.648438 C 19.839844 69.640625 23.933594 73.117188 29.148438 73.835938 C 30.890625 60.421875 34.886719 48.027344 39.890625 39.398438 C 42.730469 34.507812 46.597656 29.582031 51.664062 27.242188 C 54.429688 25.964844 57.761719 25.378906 61.25 26.335938 Z M 46.851562 66.222656 C 49.304688 63.71875 51.527344 60.734375 53.332031 57.460938 C 55.488281 53.550781 56.746094 49.75 57.105469 46.683594 C 57.3125 44.949219 57.207031 43.753906 57.019531 42.964844 C 56.199219 43.828125 55.09375 45.234375 53.820312 47.425781 C 51.140625 52.046875 48.621094 58.609375 46.851562 66.222656 Z M 142.976562 97.796875 C 143.488281 92.546875 143.726562 87.179688 143.71875 81.925781 C 143.710938 75.050781 143.285156 68.609375 142.582031 63.105469 C 142.457031 64.421875 142.351562 65.792969 142.261719 67.214844 C 141.679688 76.402344 141.859375 87.253906 142.976562 97.796875 Z M 101.484375 115.957031 C 103.09375 111.714844 104.457031 106.980469 105.535156 101.929688 C 107.726562 91.625 108.609375 80.585938 108.203125 70.859375 C 107.785156 60.875 106.050781 53.292969 103.804688 49.242188 C 103.035156 47.859375 102.453125 47.324219 102.222656 47.148438 C 102.042969 47.1875 101.71875 47.300781 101.214844 47.570312 C 98.914062 48.820312 96.34375 51.945312 94.523438 58.050781 C 92.746094 64.003906 92.023438 71.730469 92.519531 80.269531 C 93.238281 92.601562 96.414062 105.523438 101.484375 115.957031 Z M 101.484375 115.957031 "/>
<path style=" stroke:none;fill-rule:evenodd;fill:url(#radial0);" d="M 61.25 26.335938 C 64.664062 27.277344 67.28125 29.433594 69.203125 31.882812 C 73.113281 36.871094 73.726562 43.148438 73.085938 48.5625 C 72.429688 54.113281 70.351562 59.894531 67.429688 65.1875 C 62.058594 74.929688 52.75 84.867188 40.984375 88.507812 C 39.558594 89.480469 37.808594 90 35.953125 89.886719 C 35.648438 89.867188 35.347656 89.832031 35.054688 89.777344 C 20.230469 91.609375 8.132812 83.027344 2.90625 71.039062 C -2.761719 58.027344 -0.472656 41.234375 12.734375 28.316406 C 15.90625 25.214844 21 25.265625 24.109375 28.425781 C 27.222656 31.585938 27.171875 36.664062 24 39.765625 C 15.414062 48.164062 14.726562 57.90625 17.664062 64.648438 C 19.839844 69.640625 23.933594 73.117188 29.148438 73.835938 C 30.890625 60.421875 34.886719 48.027344 39.890625 39.398438 C 42.730469 34.507812 46.597656 29.582031 51.664062 27.242188 C 54.429688 25.964844 57.761719 25.378906 61.25 26.335938 Z M 46.851562 66.222656 C 49.304688 63.71875 51.527344 60.734375 53.332031 57.460938 C 55.488281 53.550781 56.746094 49.75 57.105469 46.683594 C 57.3125 44.949219 57.207031 43.753906 57.019531 42.964844 C 56.199219 43.828125 55.09375 45.234375 53.820312 47.425781 C 51.140625 52.046875 48.621094 58.609375 46.851562 66.222656 Z M 121.273438 105.257812 C 118.820312 116.777344 114.785156 128.128906 108.785156 136.71875 C 105.738281 141.085938 96.984375 150.367188 84.757812 153.773438 C 78.382812 155.546875 71.042969 155.71875 63.382812 152.707031 C 55.804688 149.726562 48.554688 143.890625 41.796875 134.75 C 36.207031 127.191406 32.648438 118.578125 30.582031 109.765625 C 29.570312 105.453125 32.257812 101.140625 36.585938 100.132812 C 40.910156 99.125 45.238281 101.804688 46.25 106.117188 C 47.917969 113.234375 50.691406 119.75 54.75 125.234375 C 60.214844 132.628906 65.214844 136.1875 69.285156 137.789062 C 73.273438 139.355469 76.980469 139.289062 80.425781 138.328125 C 85.011719 137.050781 89.046875 134.199219 91.878906 131.613281 C 82.59375 117.363281 77.449219 98.277344 76.457031 81.195312 C 75.886719 71.386719 76.648438 61.699219 79.097656 53.480469 C 81.507812 45.414062 85.914062 37.613281 93.527344 33.484375 C 98.011719 31.054688 103.117188 30.207031 108.085938 32.179688 C 112.730469 34.023438 115.832031 37.78125 117.886719 41.488281 C 121.949219 48.816406 123.824219 59.390625 124.277344 70.195312 C 124.742188 81.257812 123.746094 93.644531 121.273438 105.257812 Z M 102.222656 47.148438 C 102.042969 47.1875 101.71875 47.300781 101.214844 47.570312 C 98.914062 48.820312 96.34375 51.945312 94.523438 58.050781 C 92.746094 64.003906 92.023438 71.730469 92.519531 80.269531 C 93.238281 92.601562 96.414062 105.523438 101.484375 115.957031 C 103.09375 111.714844 104.457031 106.980469 105.535156 101.929688 C 107.726562 91.625 108.609375 80.585938 108.203125 70.859375 C 107.785156 60.875 106.050781 53.292969 103.804688 49.242188 C 103.035156 47.859375 102.453125 47.324219 102.222656 47.148438 Z M 147.921875 138.492188 C 144.101562 144.78125 138.976562 150.015625 132.085938 152.703125 C 127.105469 154.640625 122.160156 154.636719 117.628906 153.402344 C 113.34375 152.238281 110.816406 147.828125 111.984375 143.554688 C 113.15625 139.285156 117.578125 136.765625 121.867188 137.933594 C 123.441406 138.359375 124.816406 138.316406 126.226562 137.765625 C 128.828125 136.753906 131.402344 134.496094 133.753906 130.839844 C 128.527344 116.972656 126.25 98.558594 125.894531 82.398438 C 125.695312 73.230469 126.105469 64.421875 127.070312 57.089844 C 127.550781 53.429688 128.183594 50.015625 128.996094 47.046875 C 129.769531 44.207031 130.847656 41.238281 132.464844 38.835938 C 133.695312 37.011719 135.714844 34.644531 138.847656 33.503906 C 142.613281 32.136719 146.1875 33.144531 148.707031 34.996094 C 150.871094 36.585938 152.273438 38.75 153.195312 40.496094 C 154.175781 42.363281 154.980469 44.488281 155.648438 46.6875 C 158.28125 55.332031 159.792969 68.332031 159.8125 81.90625 C 159.828125 95.550781 158.332031 110.589844 154.472656 123.3125 C 153.53125 126.414062 152.402344 129.53125 151.046875 132.527344 C 150.933594 134.839844 149.8125 137.042969 147.921875 138.492188 Z M 142.976562 97.792969 C 143.488281 92.546875 143.726562 87.179688 143.71875 81.925781 C 143.710938 75.050781 143.285156 68.609375 142.582031 63.105469 C 142.054688 68.695312 141.832031 75.191406 141.980469 82.046875 C 142.097656 87.292969 142.425781 92.613281 142.976562 97.792969 Z M 164.640625 97.160156 C 168.390625 94.789062 173.363281 95.898438 175.742188 99.636719 C 183.175781 111.316406 184.109375 123.339844 181.558594 133.007812 C 180.296875 137.785156 178.164062 142.066406 175.464844 145.464844 C 172.847656 148.761719 169.269531 151.746094 164.917969 152.957031 C 160.640625 154.148438 156.199219 151.65625 155.007812 147.390625 C 153.8125 143.125 156.3125 138.703125 160.589844 137.511719 C 160.589844 137.511719 160.816406 137.4375 161.242188 137.125 C 161.683594 136.796875 162.242188 136.273438 162.847656 135.515625 C 164.0625 133.980469 165.253906 131.738281 165.996094 128.929688 C 167.449219 123.417969 167.105469 116.007812 162.15625 108.226562 C 159.777344 104.488281 160.886719 99.535156 164.640625 97.160156 Z M 164.640625 97.160156 "/>
<use xlink:href="#surface5" mask="url(#mask0)"/>
<use xlink:href="#surface8" mask="url(#mask1)"/>
<use xlink:href="#surface11" mask="url(#mask2)"/>
<use xlink:href="#surface14" mask="url(#mask3)"/>
</g>
</svg>
