<?xml version="1.0" encoding="utf-8"?>
<!-- Generator: Adobe Illustrator 26.4.1, SVG Export Plug-In . SVG Version: 6.00 Build 0)  -->
<svg version="1.1" id="Layer_1" xmlns="http://www.w3.org/2000/svg" xmlns:xlink="http://www.w3.org/1999/xlink" x="0px" y="0px"
	 viewBox="0 0 200 200" style="enable-background:new 0 0 200 200;" xml:space="preserve">
<style type="text/css">
	.st0{fill:#627EEA;}
	.st1{fill:#FFFFFF;fill-opacity:0.6039;}
	.st2{fill:#FFFFFF;}
	.st3{fill:#FFFFFF;fill-opacity:0.2;}
	.st4{fill-rule:evenodd;clip-rule:evenodd;fill:#FBD52E;}
</style>
<g id="surface1_00000135663298274574094990000006308836235504029104_">
	<path class="st0" d="M195.5,100c0,52.7-42.7,95.5-95.5,95.5S4.5,152.7,4.5,100S47.3,4.5,100,4.5S195.5,47.3,195.5,100z"/>
	<path class="st1" d="M103,28.4v52.9l44.7,20L103,28.4z"/>
	<path class="st2" d="M103,28.4l-44.7,72.9l44.7-20V28.4z"/>
	<path class="st1" d="M103,135.6v36l44.8-61.9L103,135.6z"/>
	<path class="st2" d="M103,171.6v-36l-44.7-26L103,171.6z"/>
	<path class="st3" d="M103,127.3l44.7-26l-44.7-20V127.3z"/>
	<path class="st1" d="M58.2,101.3l44.7,26v-46L58.2,101.3z"/>
</g>
<path class="st4" d="M263.4-7.6"/>
</svg>
