<?xml version="1.0" encoding="utf-8"?>
<!-- Generator: Adobe Illustrator 26.4.1, SVG Export Plug-In . SVG Version: 6.00 Build 0)  -->
<svg version="1.1" id="Layer_1" xmlns="http://www.w3.org/2000/svg" xmlns:xlink="http://www.w3.org/1999/xlink" x="0px" y="0px"
	 viewBox="0 0 200 200" style="enable-background:new 0 0 200 200;" xml:space="preserve">
<style type="text/css">
	.st0{fill:#627EEA;}
	.st1{fill:#FFFFFF;fill-opacity:0.6039;}
	.st2{fill:#FFFFFF;}
	.st3{fill:#FFFFFF;fill-opacity:0.2;}
	.st4{fill-rule:evenodd;clip-rule:evenodd;fill:#FBD52E;}
</style>
<g id="surface1_00000135663298274574094990000006308836235504029104_">
	<path class="st0" d="M200,100c0,55.2-44.7,100-100,100S0,155.2,0,100S44.8,0,100,0S200,44.8,200,100z"/>
	<path class="st1" d="M103.1,8.2V76l57.3,25.6L103.1,8.2z"/>
	<path class="st2" d="M103.1,8.2l-57.3,93.4L103.1,76V8.2z"/>
	<path class="st1" d="M103.1,145.6v46.1l57.4-79.3L103.1,145.6z"/>
	<path class="st2" d="M103.1,191.8v-46.1l-57.3-33.3L103.1,191.8z"/>
	<path class="st3" d="M103.1,135l57.3-33.3L103.1,76V135z"/>
	<path class="st1" d="M45.7,101.7L103,135V76L45.7,101.7z"/>
</g>
<path class="st4" d="M263.4-7.6"/>
</svg>
