<?xml version="1.0" encoding="UTF-8"?>
<svg xmlns="http://www.w3.org/2000/svg" xmlns:xlink="http://www.w3.org/1999/xlink" width="200px" height="px" viewBox="0 0 199 111" version="1.1">
<g id="surface1">
<path style=" stroke:none;fill-rule:evenodd;fill:rgb(39.215686%,6.27451%,83.921569%);fill-opacity:1;" d="M 0 110.382812 L 22.066406 110.382812 C 22.066406 98.265625 25.296875 86.953125 30.945312 76.984375 L 11.839844 65.941406 C 4.574219 79.140625 0 94.222656 0 110.382812 Z M 150.425781 48.164062 C 139.660156 37.390625 126.207031 29.3125 110.867188 25.269531 L 105.214844 46.550781 C 116.519531 49.511719 126.742188 55.707031 134.816406 63.789062 Z M 173.296875 87.761719 L 152.039062 93.417969 C 152.308594 93.953125 152.308594 94.492188 152.308594 95.03125 C 150.695312 88.835938 148.539062 82.640625 145.3125 77.253906 L 126.207031 88.296875 C 129.972656 94.761719 132.125 102.304688 132.125 110.382812 L 176.257812 110.382812 C 176.257812 102.574219 175.179688 95.03125 173.296875 87.761719 Z M 173.296875 87.761719 "/>
<path style=" stroke:none;fill-rule:evenodd;fill:rgb(67.058824%,85.490196%,0.784314%);fill-opacity:1;" d="M 166.035156 32.542969 L 150.425781 48.164062 L 134.820312 63.789062 C 138.855469 67.828125 142.355469 72.40625 145.3125 77.523438 L 164.417969 66.480469 L 183.527344 55.4375 C 178.683594 46.820312 172.761719 39.277344 166.035156 32.542969 Z M 88.265625 0.222656 C 78.578125 0.222656 68.890625 1.570312 60.011719 3.992188 L 65.660156 25.269531 C 72.925781 23.386719 80.460938 22.308594 88.265625 22.308594 C 104.410156 22.308594 119.480469 26.617188 132.398438 34.160156 L 143.429688 15.035156 C 127.015625 5.609375 108.179688 0.222656 88.265625 0.222656 Z M 194.558594 82.105469 L 173.300781 87.761719 C 175.183594 95.03125 176.261719 102.574219 176.261719 110.382812 L 198.324219 110.382812 C 198.324219 100.6875 196.980469 90.992188 194.558594 82.105469 Z M 22.066406 110.382812 L 44.132812 110.382812 C 44.132812 86.144531 63.777344 66.210938 88.265625 66.210938 C 92.300781 66.210938 96.070312 66.75 99.566406 67.828125 L 105.21875 46.550781 C 99.835938 45.203125 93.917969 44.394531 87.996094 44.394531 C 51.667969 44.394531 22.066406 73.753906 22.066406 110.382812 Z M 22.066406 110.382812 "/>
</g>
</svg>
