<?xml version="1.0" encoding="UTF-8"?>
<svg xmlns="http://www.w3.org/2000/svg" xmlns:xlink="http://www.w3.org/1999/xlink" width="400px" height="400px" viewBox="0 0 400 400" version="1.1">
<g id="surface1">
<path style=" stroke:none;fill-rule:nonzero;fill:rgb(3.137255%,76.078431%,51.764706%);fill-opacity:1;" d="M 162.238281 190.078125 C 156.800781 195.519531 156.800781 204.480469 162.238281 209.921875 L 190.238281 237.921875 C 195.679688 243.359375 204.640625 243.359375 210.078125 237.921875 L 238.078125 209.921875 C 243.519531 204.480469 243.519531 195.519531 238.078125 190.078125 L 210.078125 162.078125 C 204.640625 156.640625 195.679688 156.640625 190.238281 162.078125 Z M 162.238281 190.078125 "/>
<path style=" stroke:none;fill-rule:evenodd;fill:rgb(3.137255%,76.078431%,51.764706%);fill-opacity:1;" d="M 305.601562 52 C 311.199219 60.640625 316 69.921875 320 79.519531 C 244.160156 -6.078125 115.039062 -26.238281 15.519531 37.601562 C -0.160156 47.519531 -4.800781 68.640625 5.28125 84.320312 C 15.199219 100 36.320312 104.640625 52 94.558594 C 60.640625 88.960938 69.921875 84.160156 79.519531 80.160156 C -6.078125 156 -26.238281 285.121094 37.601562 384.640625 C 47.519531 400.320312 68.640625 404.960938 84.320312 394.878906 C 100 384.960938 104.640625 363.839844 94.558594 348.160156 C 88.960938 339.519531 84.160156 330.238281 80.160156 320.640625 C 156 406.238281 284.800781 426.398438 384 363.199219 C 393.601562 357.28125 400 346.558594 400 334.398438 C 400 315.679688 384.800781 300.800781 366.238281 300.800781 C 359.519531 300.800781 353.28125 302.878906 347.679688 306.398438 C 339.039062 311.839844 330.078125 316.640625 320.480469 320.320312 C 406.238281 244.480469 426.238281 115.359375 362.558594 15.839844 C 352.640625 0.160156 331.519531 -4.480469 315.839844 5.601562 C 300.160156 15.839844 295.519531 36.480469 305.441406 52.160156 Z M 145.121094 114.878906 C 98.078125 144.960938 84.480469 207.679688 114.558594 254.878906 C 144.640625 302.078125 207.359375 315.679688 254.558594 285.601562 C 301.761719 255.519531 315.359375 192.800781 285.28125 145.601562 C 255.199219 98.238281 192.480469 84.640625 145.121094 114.878906 Z M 145.121094 114.878906 "/>
</g>
</svg>
