<?xml version="1.0" encoding="utf-8"?>
<!-- Generator: Adobe Illustrator 28.4.1, SVG Export Plug-In . SVG Version: 6.00 Build 0)  -->
<svg version="1.1" id="logo" xmlns="http://www.w3.org/2000/svg" xmlns:xlink="http://www.w3.org/1999/xlink" x="0px" y="0px"
	 viewBox="0 0 1000 1000" style="enable-background:new 0 0 1000 1000;" xml:space="preserve">
<style type="text/css">
	.st0{fill:#FFFFFF;}
	.st1{fill:#2432F4;}
	.st2{fill:#FFFFFF;filter:url(#Adobe_OpacityMaskFilter);}
	.st3{mask:url(#mask1_42_636_00000038407221312131850240000016638859181659308731_);}
	.st4{fill:#FFFFFF;filter:url(#Adobe_OpacityMaskFilter_00000119804384895772953880000005677665085416281734_);}
	.st5{mask:url(#mask2_42_636_00000107570986010471245040000006165164107867130558_);}
</style>
<g>
	<circle class="st0" cx="500" cy="500" r="495.5"/>
	<g>
		<path class="st1" d="M332.1,280.2c14.1-4.9,27.8-3.6,41.6,0.7c12.1,3.8,23.6,9,35.1,14.1c22.3,9.8,43.4,2.5,53.1-18.2
			c9.1-19.3,0.8-42.2-20.2-52.2c-21.1-10-43.6-15.8-66.8-18.2c-41.9-4.3-81.5,3.4-118.2,24.5c-13.9,8-22.6,19.8-22.5,36.5
			c0.1,15.5,7.6,26.9,20.9,34.4c12.3,6.9,24.8,6.3,36.9-0.9c4.6-2.8,9.2-5.6,12.2-7.5C314.6,288.1,322.9,283.4,332.1,280.2z"/>
		<defs>
			<filter id="Adobe_OpacityMaskFilter" filterUnits="userSpaceOnUse" x="241.3" y="335.8" width="306.9" height="432.8">
				<feColorMatrix  type="matrix" values="1 0 0 0 0  0 1 0 0 0  0 0 1 0 0  0 0 0 1 0"/>
			</filter>
		</defs>
		
			<mask maskUnits="userSpaceOnUse" x="241.3" y="335.8" width="306.9" height="432.8" id="mask1_42_636_00000038407221312131850240000016638859181659308731_">
			<path class="st2" d="M548.2,335.7h-307v432.8h307V335.7z"/>
		</mask>
		<g class="st3">
			<path class="st1" d="M516.6,694.4c-25.5,44.6-62.7,70.8-104.8,73.8c-42.1,3.1-83-17.5-115.2-57.8
				c-30.6-38.4-49.9-90.6-54.3-147.2c-4.4-56.5,6.5-111,30.7-153.3c25.5-44.6,62.7-70.8,104.8-73.8c62.4-4.5,122,44,151.8,123.7
				c9.5,25.5,15.5,52.9,17.8,81.3C551.7,597.6,540.8,652,516.6,694.4z M380.3,367.9c-30.5,2.2-58.3,22.6-78.2,57.4
				c-21.2,37-30.6,85.1-26.7,135.6c3.9,50.4,20.9,96.7,47.6,130.2c25.1,31.5,55.8,47.6,86.3,45.4c22.1-1.6,42.7-12.7,60-32
				c-88.2,8.6-151.6-150.1-151.6-150.1L428.5,566c1.8,0.2,2.7-2.1,1.2-3.2L340.3,495c40.6-80.9,91.4-83.1,149.3-44.9
				C463.6,396.6,422.3,364.8,380.3,367.9L380.3,367.9L380.3,367.9z"/>
		</g>
		<defs>
			
				<filter id="Adobe_OpacityMaskFilter_00000013156857795999309340000003451391496713218946_" filterUnits="userSpaceOnUse" x="449.5" y="335.8" width="306.9" height="432.8">
				<feColorMatrix  type="matrix" values="1 0 0 0 0  0 1 0 0 0  0 0 1 0 0  0 0 0 1 0"/>
			</filter>
		</defs>
		
			<mask maskUnits="userSpaceOnUse" x="449.5" y="335.8" width="306.9" height="432.8" id="mask2_42_636_00000107570986010471245040000006165164107867130558_">
			<path style="fill:#FFFFFF;filter:url(#Adobe_OpacityMaskFilter_00000013156857795999309340000003451391496713218946_);" d="
				M756.4,335.7h-307v432.8h307V335.7z"/>
		</mask>
		<g class="st5">
			<path class="st1" d="M724.8,694.4C699.3,739,662,765.2,620,768.2c-42.1,3.1-83-17.5-115.2-57.8c-30.6-38.4-49.9-90.6-54.3-147.2
				c-4.4-56.5,6.4-111,30.7-153.3c25.5-44.6,62.7-70.8,104.8-73.8c62.4-4.5,122,44,151.8,123.7c9.5,25.5,15.5,52.9,17.8,81.3
				C759.9,597.6,749,652,724.8,694.4z M588.5,367.9c-30.5,2.2-58.3,22.6-78.2,57.4c-21.2,37-30.6,85.1-26.7,135.6
				c3.9,50.4,20.9,96.7,47.6,130.2c25.1,31.5,55.8,47.6,86.3,45.4c22.1-1.6,42.7-12.7,60-32c-88.2,8.6-151.6-150.1-151.6-150.1
				L636.7,566c1.8,0.2,2.7-2.1,1.2-3.2L548.5,495c40.6-80.9,91.4-83.1,149.3-44.9C671.8,396.6,630.5,364.8,588.5,367.9L588.5,367.9
				L588.5,367.9z"/>
		</g>
		<path class="st1" d="M636.7,269c14.2-0.9,26.5,4.5,38,12.8c10.1,7.3,19.2,16,28.5,24.4c17.9,16.3,39.1,15.1,53.5-3
			c13.4-16.9,11.8-42.4-4.7-58.5c-16.7-16.2-35.8-28.6-56.4-37.7c-37.3-16.5-75.6-20.2-114.7-9.6c-14.8,4-25.9,13.4-30.2,30.3
			c-4,15.7-0.1,29.4,10,40.8c9.4,10.6,21,13.5,34,9.7c5-1.4,10-3,13.2-4C618.6,272,627.5,269.6,636.7,269L636.7,269z"/>
	</g>
</g>
</svg>
